G04 EAGLE Gerber RS-274X export*
G75*
%MOMM*%
%FSLAX34Y34*%
%LPD*%
%INBottom Solder Mask*%
%IPPOS*%
%AMOC8*
5,1,8,0,0,1.08239X$1,22.5*%
G01*
%ADD10R,0.701600X0.801600*%
%ADD11R,0.801600X0.701600*%
%ADD12C,0.450000*%
%ADD13R,0.701600X0.501600*%
%ADD14R,0.751600X0.601600*%
%ADD15R,0.601600X0.751600*%
%ADD16R,3.251600X1.101600*%
%ADD17R,0.701600X1.001600*%
%ADD18R,0.701600X1.801600*%
%ADD19R,1.101600X2.801600*%
%ADD20R,1.001600X0.701600*%


D10*
X100565Y373439D03*
X100565Y385439D03*
D11*
X248207Y89532D03*
X260207Y89532D03*
D12*
X267293Y392064D02*
X267295Y392233D01*
X267301Y392403D01*
X267312Y392572D01*
X267326Y392740D01*
X267345Y392909D01*
X267368Y393076D01*
X267395Y393244D01*
X267426Y393410D01*
X267461Y393576D01*
X267500Y393741D01*
X267543Y393904D01*
X267590Y394067D01*
X267641Y394228D01*
X267696Y394389D01*
X267755Y394547D01*
X267818Y394705D01*
X267885Y394860D01*
X267955Y395014D01*
X268030Y395166D01*
X268108Y395317D01*
X268189Y395465D01*
X268275Y395611D01*
X268364Y395755D01*
X268456Y395897D01*
X268552Y396037D01*
X268651Y396174D01*
X268753Y396309D01*
X268859Y396441D01*
X268968Y396571D01*
X269080Y396698D01*
X269196Y396822D01*
X269314Y396943D01*
X269435Y397061D01*
X269559Y397177D01*
X269686Y397289D01*
X269816Y397398D01*
X269948Y397504D01*
X270083Y397606D01*
X270220Y397705D01*
X270360Y397801D01*
X270502Y397893D01*
X270646Y397982D01*
X270792Y398068D01*
X270940Y398149D01*
X271091Y398227D01*
X271243Y398302D01*
X271397Y398372D01*
X271552Y398439D01*
X271710Y398502D01*
X271868Y398561D01*
X272029Y398616D01*
X272190Y398667D01*
X272353Y398714D01*
X272516Y398757D01*
X272681Y398796D01*
X272847Y398831D01*
X273013Y398862D01*
X273181Y398889D01*
X273348Y398912D01*
X273517Y398931D01*
X273685Y398945D01*
X273854Y398956D01*
X274024Y398962D01*
X274193Y398964D01*
X274362Y398962D01*
X274532Y398956D01*
X274701Y398945D01*
X274869Y398931D01*
X275038Y398912D01*
X275205Y398889D01*
X275373Y398862D01*
X275539Y398831D01*
X275705Y398796D01*
X275870Y398757D01*
X276033Y398714D01*
X276196Y398667D01*
X276357Y398616D01*
X276518Y398561D01*
X276676Y398502D01*
X276834Y398439D01*
X276989Y398372D01*
X277143Y398302D01*
X277295Y398227D01*
X277446Y398149D01*
X277594Y398068D01*
X277740Y397982D01*
X277884Y397893D01*
X278026Y397801D01*
X278166Y397705D01*
X278303Y397606D01*
X278438Y397504D01*
X278570Y397398D01*
X278700Y397289D01*
X278827Y397177D01*
X278951Y397061D01*
X279072Y396943D01*
X279190Y396822D01*
X279306Y396698D01*
X279418Y396571D01*
X279527Y396441D01*
X279633Y396309D01*
X279735Y396174D01*
X279834Y396037D01*
X279930Y395897D01*
X280022Y395755D01*
X280111Y395611D01*
X280197Y395465D01*
X280278Y395317D01*
X280356Y395166D01*
X280431Y395014D01*
X280501Y394860D01*
X280568Y394705D01*
X280631Y394547D01*
X280690Y394389D01*
X280745Y394228D01*
X280796Y394067D01*
X280843Y393904D01*
X280886Y393741D01*
X280925Y393576D01*
X280960Y393410D01*
X280991Y393244D01*
X281018Y393076D01*
X281041Y392909D01*
X281060Y392740D01*
X281074Y392572D01*
X281085Y392403D01*
X281091Y392233D01*
X281093Y392064D01*
X281091Y391895D01*
X281085Y391725D01*
X281074Y391556D01*
X281060Y391388D01*
X281041Y391219D01*
X281018Y391052D01*
X280991Y390884D01*
X280960Y390718D01*
X280925Y390552D01*
X280886Y390387D01*
X280843Y390224D01*
X280796Y390061D01*
X280745Y389900D01*
X280690Y389739D01*
X280631Y389581D01*
X280568Y389423D01*
X280501Y389268D01*
X280431Y389114D01*
X280356Y388962D01*
X280278Y388811D01*
X280197Y388663D01*
X280111Y388517D01*
X280022Y388373D01*
X279930Y388231D01*
X279834Y388091D01*
X279735Y387954D01*
X279633Y387819D01*
X279527Y387687D01*
X279418Y387557D01*
X279306Y387430D01*
X279190Y387306D01*
X279072Y387185D01*
X278951Y387067D01*
X278827Y386951D01*
X278700Y386839D01*
X278570Y386730D01*
X278438Y386624D01*
X278303Y386522D01*
X278166Y386423D01*
X278026Y386327D01*
X277884Y386235D01*
X277740Y386146D01*
X277594Y386060D01*
X277446Y385979D01*
X277295Y385901D01*
X277143Y385826D01*
X276989Y385756D01*
X276834Y385689D01*
X276676Y385626D01*
X276518Y385567D01*
X276357Y385512D01*
X276196Y385461D01*
X276033Y385414D01*
X275870Y385371D01*
X275705Y385332D01*
X275539Y385297D01*
X275373Y385266D01*
X275205Y385239D01*
X275038Y385216D01*
X274869Y385197D01*
X274701Y385183D01*
X274532Y385172D01*
X274362Y385166D01*
X274193Y385164D01*
X274024Y385166D01*
X273854Y385172D01*
X273685Y385183D01*
X273517Y385197D01*
X273348Y385216D01*
X273181Y385239D01*
X273013Y385266D01*
X272847Y385297D01*
X272681Y385332D01*
X272516Y385371D01*
X272353Y385414D01*
X272190Y385461D01*
X272029Y385512D01*
X271868Y385567D01*
X271710Y385626D01*
X271552Y385689D01*
X271397Y385756D01*
X271243Y385826D01*
X271091Y385901D01*
X270940Y385979D01*
X270792Y386060D01*
X270646Y386146D01*
X270502Y386235D01*
X270360Y386327D01*
X270220Y386423D01*
X270083Y386522D01*
X269948Y386624D01*
X269816Y386730D01*
X269686Y386839D01*
X269559Y386951D01*
X269435Y387067D01*
X269314Y387185D01*
X269196Y387306D01*
X269080Y387430D01*
X268968Y387557D01*
X268859Y387687D01*
X268753Y387819D01*
X268651Y387954D01*
X268552Y388091D01*
X268456Y388231D01*
X268364Y388373D01*
X268275Y388517D01*
X268189Y388663D01*
X268108Y388811D01*
X268030Y388962D01*
X267955Y389114D01*
X267885Y389268D01*
X267818Y389423D01*
X267755Y389581D01*
X267696Y389739D01*
X267641Y389900D01*
X267590Y390061D01*
X267543Y390224D01*
X267500Y390387D01*
X267461Y390552D01*
X267426Y390718D01*
X267395Y390884D01*
X267368Y391052D01*
X267345Y391219D01*
X267326Y391388D01*
X267312Y391556D01*
X267301Y391725D01*
X267295Y391895D01*
X267293Y392064D01*
D13*
X263398Y366346D03*
X263398Y372823D03*
X263398Y379300D03*
X284988Y366346D03*
X284988Y372823D03*
X284988Y379300D03*
D10*
X248539Y403196D03*
X248539Y391196D03*
D14*
X248346Y370149D03*
X248346Y379149D03*
D15*
X105470Y422929D03*
X96470Y422929D03*
X269256Y99084D03*
X260256Y99084D03*
D14*
X249454Y108123D03*
X249454Y99123D03*
D15*
X275515Y350104D03*
X284515Y350104D03*
D16*
X348150Y262400D03*
X297350Y262400D03*
X348150Y237000D03*
X297350Y237000D03*
X348150Y211600D03*
X297350Y211600D03*
X348150Y186200D03*
X297350Y186200D03*
X348150Y160800D03*
X297350Y160800D03*
X348150Y135400D03*
X297350Y135400D03*
X348150Y110000D03*
X297350Y110000D03*
X348150Y84600D03*
X297350Y84600D03*
D10*
X239519Y257602D03*
X239519Y245602D03*
D17*
X201578Y459005D03*
X216578Y459005D03*
D15*
X205661Y473210D03*
X214661Y473210D03*
D18*
X191087Y498673D03*
X203587Y498673D03*
X216087Y498673D03*
X178587Y498673D03*
X166087Y498673D03*
X153587Y498673D03*
D19*
X234837Y529923D03*
X134837Y529923D03*
D20*
X255458Y260409D03*
X255458Y245409D03*
D15*
X127971Y291383D03*
X118971Y291383D03*
D10*
X121914Y251249D03*
X121914Y239249D03*
D14*
X128212Y280970D03*
X128212Y271970D03*
D15*
X96257Y238250D03*
X105257Y238250D03*
D11*
X296403Y304974D03*
X284403Y304974D03*
D14*
X275154Y280332D03*
X275154Y271332D03*
X270749Y254579D03*
X270749Y245579D03*
M02*
