G04 EAGLE Gerber RS-274X export*
G75*
%MOMM*%
%FSLAX34Y34*%
%LPD*%
%INBottom Silkscreen*%
%IPPOS*%
%AMOC8*
5,1,8,0,0,1.08239X$1,22.5*%
G01*
%ADD10R,31.174900X0.033881*%
%ADD11R,31.581500X0.033888*%
%ADD12R,31.920500X0.033875*%
%ADD13R,32.123700X0.033888*%
%ADD14R,32.394900X0.033888*%
%ADD15R,32.530400X0.033875*%
%ADD16R,32.733700X0.033888*%
%ADD17R,32.869300X0.033881*%
%ADD18R,33.072500X0.033888*%
%ADD19R,33.208100X0.033888*%
%ADD20R,33.343700X0.033881*%
%ADD21R,33.479200X0.033888*%
%ADD22R,33.546900X0.033875*%
%ADD23R,33.682500X0.033888*%
%ADD24R,33.818100X0.033881*%
%ADD25R,33.885900X0.033888*%
%ADD26R,34.021300X0.033888*%
%ADD27R,34.089100X0.033881*%
%ADD28R,34.190800X0.033888*%
%ADD29R,34.292500X0.033875*%
%ADD30R,34.360300X0.033888*%
%ADD31R,34.428000X0.033888*%
%ADD32R,34.563500X0.033881*%
%ADD33R,34.631300X0.033888*%
%ADD34R,34.699100X0.033881*%
%ADD35R,34.766900X0.033888*%
%ADD36R,34.834700X0.033875*%
%ADD37R,34.902400X0.033888*%
%ADD38R,34.970100X0.033888*%
%ADD39R,35.037900X0.033881*%
%ADD40R,35.105700X0.033888*%
%ADD41R,35.173500X0.033881*%
%ADD42R,35.241300X0.033888*%
%ADD43R,35.275200X0.033875*%
%ADD44R,35.309100X0.033888*%
%ADD45R,35.376800X0.033888*%
%ADD46R,35.444500X0.033881*%
%ADD47R,35.512300X0.033888*%
%ADD48R,35.546200X0.033881*%
%ADD49R,35.580100X0.033888*%
%ADD50R,35.647900X0.033888*%
%ADD51R,35.715700X0.033875*%
%ADD52R,35.715700X0.033888*%
%ADD53R,35.783500X0.033881*%
%ADD54R,35.851200X0.033888*%
%ADD55R,35.851200X0.033881*%
%ADD56R,35.918900X0.033888*%
%ADD57R,35.986700X0.033875*%
%ADD58R,36.054500X0.033888*%
%ADD59R,36.054500X0.033881*%
%ADD60R,36.122300X0.033888*%
%ADD61R,36.190100X0.033881*%
%ADD62R,36.190100X0.033888*%
%ADD63R,36.257900X0.033875*%
%ADD64R,36.257900X0.033888*%
%ADD65R,36.257900X0.033881*%
%ADD66R,36.325600X0.033888*%
%ADD67R,2.846400X0.033881*%
%ADD68R,0.135600X0.033881*%
%ADD69R,29.683900X0.033881*%
%ADD70R,0.135500X0.033881*%
%ADD71R,2.812500X0.033881*%
%ADD72R,2.710800X0.033888*%
%ADD73R,0.576100X0.033888*%
%ADD74R,29.446800X0.033888*%
%ADD75R,2.609200X0.033875*%
%ADD76R,0.813200X0.033875*%
%ADD77R,29.277300X0.033875*%
%ADD78R,0.813300X0.033875*%
%ADD79R,2.575300X0.033888*%
%ADD80R,0.982700X0.033888*%
%ADD81R,29.108000X0.033888*%
%ADD82R,2.507500X0.033888*%
%ADD83R,1.118200X0.033888*%
%ADD84R,29.006300X0.033888*%
%ADD85R,2.507600X0.033875*%
%ADD86R,1.253800X0.033875*%
%ADD87R,28.870700X0.033875*%
%ADD88R,1.219900X0.033875*%
%ADD89R,2.473700X0.033875*%
%ADD90R,2.439800X0.033888*%
%ADD91R,1.355400X0.033888*%
%ADD92R,28.769000X0.033888*%
%ADD93R,2.405900X0.033881*%
%ADD94R,1.457100X0.033881*%
%ADD95R,28.667400X0.033881*%
%ADD96R,1.423200X0.033881*%
%ADD97R,2.372000X0.033881*%
%ADD98R,2.338100X0.033888*%
%ADD99R,1.524900X0.033888*%
%ADD100R,28.599700X0.033888*%
%ADD101R,1.558700X0.033888*%
%ADD102R,2.338100X0.033875*%
%ADD103R,1.592600X0.033875*%
%ADD104R,28.531900X0.033875*%
%ADD105R,1.626500X0.033875*%
%ADD106R,2.304300X0.033888*%
%ADD107R,1.694300X0.033888*%
%ADD108R,28.464100X0.033888*%
%ADD109R,2.304200X0.033888*%
%ADD110R,2.270400X0.033888*%
%ADD111R,1.762000X0.033888*%
%ADD112R,28.396300X0.033888*%
%ADD113R,1.762100X0.033888*%
%ADD114R,2.270400X0.033875*%
%ADD115R,1.829800X0.033875*%
%ADD116R,28.328500X0.033875*%
%ADD117R,2.236500X0.033888*%
%ADD118R,1.863700X0.033888*%
%ADD119R,28.260700X0.033888*%
%ADD120R,1.897600X0.033888*%
%ADD121R,2.236500X0.033881*%
%ADD122R,1.931500X0.033881*%
%ADD123R,28.226800X0.033881*%
%ADD124R,2.202600X0.033881*%
%ADD125R,2.202600X0.033888*%
%ADD126R,1.999300X0.033888*%
%ADD127R,28.159200X0.033888*%
%ADD128R,1.965400X0.033888*%
%ADD129R,2.168700X0.033888*%
%ADD130R,2.033200X0.033888*%
%ADD131R,28.125300X0.033888*%
%ADD132R,2.033100X0.033888*%
%ADD133R,2.067000X0.033881*%
%ADD134R,30.192300X0.033881*%
%ADD135R,2.168700X0.033881*%
%ADD136R,30.192300X0.033888*%
%ADD137R,2.100900X0.033888*%
%ADD138R,4.337400X0.033875*%
%ADD139R,27.989700X0.033875*%
%ADD140R,2.168700X0.033875*%
%ADD141R,2.134800X0.033875*%
%ADD142R,2.134800X0.033888*%
%ADD143R,27.955800X0.033888*%
%ADD144R,4.371300X0.033881*%
%ADD145R,27.921900X0.033881*%
%ADD146R,2.100900X0.033881*%
%ADD147R,2.101000X0.033888*%
%ADD148R,2.304200X0.033881*%
%ADD149R,27.854100X0.033881*%
%ADD150R,2.304300X0.033881*%
%ADD151R,2.101000X0.033881*%
%ADD152R,27.820200X0.033888*%
%ADD153R,4.439100X0.033888*%
%ADD154R,4.472900X0.033875*%
%ADD155R,27.786300X0.033875*%
%ADD156R,2.372000X0.033875*%
%ADD157R,2.067100X0.033875*%
%ADD158R,2.067000X0.033888*%
%ADD159R,2.372000X0.033888*%
%ADD160R,27.786300X0.033888*%
%ADD161R,2.067100X0.033888*%
%ADD162R,30.192200X0.033888*%
%ADD163R,27.752400X0.033881*%
%ADD164R,4.473000X0.033881*%
%ADD165R,2.405900X0.033888*%
%ADD166R,4.506800X0.033881*%
%ADD167R,27.718600X0.033881*%
%ADD168R,2.439800X0.033881*%
%ADD169R,2.033200X0.033881*%
%ADD170R,27.718600X0.033888*%
%ADD171R,2.033100X0.033875*%
%ADD172R,30.192300X0.033875*%
%ADD173R,2.439800X0.033875*%
%ADD174R,2.033200X0.033875*%
%ADD175R,2.033100X0.033881*%
%ADD176R,27.718600X0.033875*%
%ADD177R,4.506800X0.033888*%
%ADD178R,30.192200X0.033881*%
%ADD179R,27.752400X0.033888*%
%ADD180R,4.473000X0.033888*%
%ADD181R,2.067100X0.033881*%
%ADD182R,4.472900X0.033888*%
%ADD183R,2.100900X0.033875*%
%ADD184R,30.192200X0.033875*%
%ADD185R,2.304300X0.033875*%
%ADD186R,2.101000X0.033875*%
%ADD187R,4.439000X0.033888*%
%ADD188R,27.854100X0.033888*%
%ADD189R,2.134800X0.033881*%
%ADD190R,2.270400X0.033881*%
%ADD191R,27.888000X0.033881*%
%ADD192R,27.921900X0.033888*%
%ADD193R,2.168600X0.033881*%
%ADD194R,2.168600X0.033888*%
%ADD195R,27.989700X0.033888*%
%ADD196R,2.202500X0.033888*%
%ADD197R,28.023600X0.033888*%
%ADD198R,2.202500X0.033875*%
%ADD199R,28.057500X0.033875*%
%ADD200R,2.202600X0.033875*%
%ADD201R,2.236400X0.033888*%
%ADD202R,28.091400X0.033888*%
%ADD203R,4.303500X0.033888*%
%ADD204R,2.270300X0.033881*%
%ADD205R,1.999300X0.033881*%
%ADD206R,28.125300X0.033881*%
%ADD207R,2.270300X0.033888*%
%ADD208R,28.193000X0.033888*%
%ADD209R,1.931500X0.033888*%
%ADD210R,28.226800X0.033888*%
%ADD211R,2.338100X0.033881*%
%ADD212R,1.863700X0.033881*%
%ADD213R,28.294600X0.033881*%
%ADD214R,1.829800X0.033881*%
%ADD215R,1.795900X0.033888*%
%ADD216R,28.362400X0.033888*%
%ADD217R,2.338200X0.033888*%
%ADD218R,2.405900X0.033875*%
%ADD219R,1.728200X0.033875*%
%ADD220R,28.430200X0.033875*%
%ADD221R,2.372100X0.033875*%
%ADD222R,2.439700X0.033888*%
%ADD223R,1.660400X0.033888*%
%ADD224R,28.498000X0.033888*%
%ADD225R,2.473600X0.033881*%
%ADD226R,1.592600X0.033881*%
%ADD227R,28.565800X0.033881*%
%ADD228R,1.558700X0.033881*%
%ADD229R,1.491000X0.033888*%
%ADD230R,28.633600X0.033888*%
%ADD231R,2.473700X0.033888*%
%ADD232R,2.541400X0.033888*%
%ADD233R,1.389300X0.033888*%
%ADD234R,28.735100X0.033888*%
%ADD235R,1.423200X0.033888*%
%ADD236R,2.541500X0.033888*%
%ADD237R,2.609200X0.033881*%
%ADD238R,1.321500X0.033881*%
%ADD239R,28.802900X0.033881*%
%ADD240R,1.287700X0.033881*%
%ADD241R,2.575400X0.033881*%
%ADD242R,2.643100X0.033888*%
%ADD243R,1.186000X0.033888*%
%ADD244R,28.938500X0.033888*%
%ADD245R,2.710800X0.033875*%
%ADD246R,1.050500X0.033875*%
%ADD247R,29.040200X0.033875*%
%ADD248R,2.677000X0.033875*%
%ADD249R,2.778600X0.033888*%
%ADD250R,0.914900X0.033888*%
%ADD251R,29.175600X0.033888*%
%ADD252R,2.744800X0.033888*%
%ADD253R,2.846400X0.033888*%
%ADD254R,0.711600X0.033888*%
%ADD255R,29.345100X0.033888*%
%ADD256R,0.745500X0.033888*%
%ADD257R,2.846500X0.033888*%
%ADD258R,2.948000X0.033875*%
%ADD259R,0.440500X0.033875*%
%ADD260R,29.548500X0.033875*%
%ADD261R,0.474400X0.033875*%
%ADD262R,2.948100X0.033875*%
%ADD263R,3.117500X0.033888*%
%ADD264R,29.887300X0.033888*%
%ADD265R,36.800000X0.033881*%
%ADD266R,36.800000X0.033888*%
%ADD267R,36.800000X0.033875*%
%ADD268R,19.179300X0.033888*%
%ADD269R,17.451200X0.033888*%
%ADD270R,19.145400X0.033875*%
%ADD271R,17.383500X0.033875*%
%ADD272R,19.111600X0.033888*%
%ADD273R,17.383500X0.033888*%
%ADD274R,19.077700X0.033881*%
%ADD275R,17.349600X0.033881*%
%ADD276R,19.043800X0.033888*%
%ADD277R,17.315700X0.033888*%
%ADD278R,19.009900X0.033881*%
%ADD279R,17.281800X0.033881*%
%ADD280R,18.976000X0.033888*%
%ADD281R,17.247900X0.033888*%
%ADD282R,18.942100X0.033888*%
%ADD283R,17.214000X0.033888*%
%ADD284R,18.942100X0.033875*%
%ADD285R,17.180200X0.033875*%
%ADD286R,18.908200X0.033888*%
%ADD287R,17.180200X0.033888*%
%ADD288R,18.874400X0.033881*%
%ADD289R,17.146300X0.033881*%
%ADD290R,18.840500X0.033888*%
%ADD291R,17.112400X0.033888*%
%ADD292R,18.806600X0.033888*%
%ADD293R,17.078500X0.033888*%
%ADD294R,18.772700X0.033881*%
%ADD295R,17.044600X0.033881*%
%ADD296R,18.738800X0.033888*%
%ADD297R,17.010700X0.033888*%
%ADD298R,18.704900X0.033875*%
%ADD299R,16.976800X0.033875*%
%ADD300R,18.704900X0.033888*%
%ADD301R,16.943000X0.033888*%
%ADD302R,18.671000X0.033881*%
%ADD303R,16.943000X0.033881*%
%ADD304R,18.637200X0.033888*%
%ADD305R,16.909100X0.033888*%
%ADD306R,18.603300X0.033888*%
%ADD307R,16.875200X0.033888*%
%ADD308R,18.569400X0.033881*%
%ADD309R,16.841300X0.033881*%
%ADD310R,18.535500X0.033888*%
%ADD311R,16.807400X0.033888*%
%ADD312R,18.501600X0.033875*%
%ADD313R,16.773500X0.033875*%
%ADD314R,18.501600X0.033888*%
%ADD315R,16.739600X0.033888*%
%ADD316R,18.467700X0.033881*%
%ADD317R,16.705800X0.033881*%
%ADD318R,18.433800X0.033888*%
%ADD319R,16.705800X0.033888*%
%ADD320R,18.400000X0.033888*%
%ADD321R,16.671900X0.033888*%
%ADD322R,18.366100X0.033881*%
%ADD323R,16.638000X0.033881*%
%ADD324R,18.332200X0.033888*%
%ADD325R,16.604100X0.033888*%
%ADD326R,18.298300X0.033875*%
%ADD327R,16.570200X0.033875*%
%ADD328R,18.264400X0.033888*%
%ADD329R,16.536300X0.033888*%
%ADD330R,18.230500X0.033875*%
%ADD331R,16.502400X0.033875*%
%ADD332R,18.230500X0.033888*%
%ADD333R,16.502400X0.033888*%
%ADD334R,18.264400X0.033881*%
%ADD335R,16.536300X0.033881*%
%ADD336R,18.298300X0.033888*%
%ADD337R,20.839700X0.033888*%
%ADD338R,15.485900X0.033888*%
%ADD339R,20.704200X0.033881*%
%ADD340R,15.384200X0.033881*%
%ADD341R,20.636400X0.033888*%
%ADD342R,15.316400X0.033888*%
%ADD343R,20.602500X0.033875*%
%ADD344R,15.282500X0.033875*%
%ADD345R,20.568600X0.033888*%
%ADD346R,15.248700X0.033888*%
%ADD347R,20.534800X0.033888*%
%ADD348R,15.214800X0.033888*%
%ADD349R,20.500900X0.033881*%
%ADD350R,15.180900X0.033881*%
%ADD351R,20.467000X0.033888*%
%ADD352R,0.440600X0.033888*%
%ADD353R,15.147000X0.033888*%
%ADD354R,20.433100X0.033881*%
%ADD355R,0.643800X0.033881*%
%ADD356R,15.113100X0.033881*%
%ADD357R,20.433100X0.033888*%
%ADD358R,15.113100X0.033888*%
%ADD359R,0.779400X0.033888*%
%ADD360R,0.813300X0.033888*%
%ADD361R,18.400000X0.033875*%
%ADD362R,0.745500X0.033875*%
%ADD363R,0.847200X0.033875*%
%ADD364R,15.079200X0.033875*%
%ADD365R,0.915000X0.033888*%
%ADD366R,15.079200X0.033888*%
%ADD367R,18.400000X0.033881*%
%ADD368R,0.745500X0.033881*%
%ADD369R,0.915000X0.033881*%
%ADD370R,15.079200X0.033881*%
%ADD371R,0.372700X0.033875*%
%ADD372R,1.186000X0.033875*%
%ADD373R,0.915000X0.033875*%
%ADD374R,0.372700X0.033888*%
%ADD375R,0.372700X0.033881*%
%ADD376R,1.186000X0.033881*%
%ADD377R,0.847200X0.033881*%
%ADD378R,1.219900X0.033888*%
%ADD379R,1.253800X0.033881*%
%ADD380R,0.609900X0.033881*%
%ADD381R,1.253800X0.033888*%
%ADD382R,0.372800X0.033888*%
%ADD383R,1.287700X0.033875*%
%ADD384R,15.180900X0.033875*%
%ADD385R,1.321600X0.033888*%
%ADD386R,0.338800X0.033881*%
%ADD387R,1.355400X0.033881*%
%ADD388R,15.248700X0.033881*%
%ADD389R,0.338800X0.033888*%
%ADD390R,15.282500X0.033888*%
%ADD391R,0.271100X0.033888*%
%ADD392R,1.457100X0.033888*%
%ADD393R,0.203300X0.033881*%
%ADD394R,1.558800X0.033881*%
%ADD395R,15.418100X0.033881*%
%ADD396R,15.519700X0.033888*%
%ADD397R,18.433800X0.033875*%
%ADD398R,17.620700X0.033875*%
%ADD399R,18.467700X0.033888*%
%ADD400R,17.654600X0.033888*%
%ADD401R,18.501600X0.033881*%
%ADD402R,17.688400X0.033881*%
%ADD403R,17.688400X0.033888*%
%ADD404R,17.722300X0.033888*%
%ADD405R,18.603300X0.033881*%
%ADD406R,17.790100X0.033881*%
%ADD407R,18.671000X0.033888*%
%ADD408R,1.796000X0.033888*%
%ADD409R,14.706500X0.033888*%
%ADD410R,20.738100X0.033875*%
%ADD411R,14.706500X0.033875*%
%ADD412R,20.738100X0.033888*%
%ADD413R,1.152200X0.033881*%
%ADD414R,0.440500X0.033881*%
%ADD415R,15.147000X0.033881*%
%ADD416R,1.118300X0.033888*%
%ADD417R,0.508300X0.033888*%
%ADD418R,1.118300X0.033875*%
%ADD419R,0.576100X0.033875*%
%ADD420R,15.113100X0.033875*%
%ADD421R,1.084400X0.033888*%
%ADD422R,0.643800X0.033888*%
%ADD423R,1.084400X0.033875*%
%ADD424R,0.643800X0.033875*%
%ADD425R,0.067800X0.033881*%
%ADD426R,1.084400X0.033881*%
%ADD427R,10.707900X0.033881*%
%ADD428R,3.117500X0.033881*%
%ADD429R,10.707900X0.033888*%
%ADD430R,1.694300X0.033881*%
%ADD431R,0.474400X0.033881*%
%ADD432R,1.592700X0.033888*%
%ADD433R,0.305000X0.033888*%
%ADD434R,18.603300X0.033875*%
%ADD435R,1.524900X0.033875*%
%ADD436R,10.741800X0.033875*%
%ADD437R,3.117500X0.033875*%
%ADD438R,10.741800X0.033888*%
%ADD439R,18.806600X0.033881*%
%ADD440R,1.355500X0.033881*%
%ADD441R,10.775700X0.033881*%
%ADD442R,18.874400X0.033888*%
%ADD443R,1.321500X0.033888*%
%ADD444R,10.809600X0.033888*%
%ADD445R,0.847100X0.033888*%
%ADD446R,10.877400X0.033888*%
%ADD447R,10.911200X0.033881*%
%ADD448R,0.847100X0.033881*%
%ADD449R,11.046800X0.033888*%
%ADD450R,0.813200X0.033888*%
%ADD451R,19.281000X0.033875*%
%ADD452R,12.775000X0.033875*%
%ADD453R,19.213200X0.033888*%
%ADD454R,12.775000X0.033888*%
%ADD455R,11.521200X0.033888*%
%ADD456R,11.521200X0.033881*%
%ADD457R,0.779400X0.033881*%
%ADD458R,11.555100X0.033888*%
%ADD459R,18.840500X0.033881*%
%ADD460R,11.555100X0.033881*%
%ADD461R,3.151400X0.033881*%
%ADD462R,1.355500X0.033888*%
%ADD463R,3.151400X0.033888*%
%ADD464R,18.637200X0.033875*%
%ADD465R,10.877400X0.033875*%
%ADD466R,3.185300X0.033875*%
%ADD467R,10.843500X0.033888*%
%ADD468R,3.185300X0.033888*%
%ADD469R,10.843400X0.033888*%
%ADD470R,3.219200X0.033888*%
%ADD471R,1.491000X0.033881*%
%ADD472R,10.843400X0.033881*%
%ADD473R,3.253100X0.033881*%
%ADD474R,10.877300X0.033888*%
%ADD475R,3.253100X0.033888*%
%ADD476R,3.320900X0.033881*%
%ADD477R,10.945100X0.033888*%
%ADD478R,3.354700X0.033888*%
%ADD479R,0.610000X0.033888*%
%ADD480R,11.012900X0.033888*%
%ADD481R,3.422500X0.033888*%
%ADD482R,11.080600X0.033875*%
%ADD483R,3.490300X0.033875*%
%ADD484R,11.961700X0.033888*%
%ADD485R,13.893200X0.033881*%
%ADD486R,33.445300X0.033888*%
%ADD487R,33.377500X0.033888*%
%ADD488R,33.275800X0.033875*%
%ADD489R,0.169500X0.033888*%
%ADD490R,11.453400X0.033888*%
%ADD491R,20.399200X0.033881*%
%ADD492R,11.385600X0.033881*%
%ADD493R,20.365300X0.033888*%
%ADD494R,0.135600X0.033888*%
%ADD495R,11.283900X0.033888*%
%ADD496R,20.365300X0.033881*%
%ADD497R,11.182300X0.033881*%
%ADD498R,11.114500X0.033888*%
%ADD499R,20.399200X0.033888*%
%ADD500R,3.320900X0.033888*%
%ADD501R,20.399200X0.033875*%
%ADD502R,0.169500X0.033875*%
%ADD503R,10.911200X0.033875*%
%ADD504R,3.354700X0.033875*%
%ADD505R,32.530300X0.033888*%
%ADD506R,32.462600X0.033881*%
%ADD507R,0.033900X0.033881*%
%ADD508R,3.354700X0.033881*%
%ADD509R,32.428700X0.033888*%
%ADD510R,0.237200X0.033888*%
%ADD511R,32.428700X0.033881*%
%ADD512R,0.338900X0.033881*%
%ADD513R,21.178600X0.033888*%
%ADD514R,11.182300X0.033888*%
%ADD515R,0.406700X0.033888*%
%ADD516R,21.009200X0.033875*%
%ADD517R,10.979000X0.033875*%
%ADD518R,0.338900X0.033875*%
%ADD519R,20.941400X0.033888*%
%ADD520R,10.911200X0.033888*%
%ADD521R,19.247100X0.033881*%
%ADD522R,10.877400X0.033881*%
%ADD523R,0.440500X0.033888*%
%ADD524R,0.033900X0.033888*%
%ADD525R,18.569400X0.033888*%
%ADD526R,18.535500X0.033881*%
%ADD527R,0.305000X0.033881*%
%ADD528R,10.979000X0.033881*%
%ADD529R,0.169400X0.033888*%
%ADD530R,18.467700X0.033875*%
%ADD531R,0.237200X0.033875*%
%ADD532R,11.148400X0.033875*%
%ADD533R,3.219200X0.033875*%
%ADD534R,0.203300X0.033888*%
%ADD535R,0.271100X0.033875*%
%ADD536R,11.385600X0.033875*%
%ADD537R,0.101700X0.033888*%
%ADD538R,0.304900X0.033888*%
%ADD539R,0.169400X0.033881*%
%ADD540R,11.555000X0.033881*%
%ADD541R,18.366100X0.033888*%
%ADD542R,11.656700X0.033888*%
%ADD543R,18.366100X0.033875*%
%ADD544R,0.338800X0.033875*%
%ADD545R,11.724500X0.033875*%
%ADD546R,1.050500X0.033888*%
%ADD547R,1.016600X0.033888*%
%ADD548R,0.304900X0.033875*%
%ADD549R,0.305000X0.033875*%
%ADD550R,0.508300X0.033875*%
%ADD551R,10.707900X0.033875*%
%ADD552R,4.168000X0.033875*%
%ADD553R,4.168000X0.033888*%
%ADD554R,0.304900X0.033881*%
%ADD555R,0.271100X0.033881*%
%ADD556R,10.741800X0.033881*%
%ADD557R,4.168000X0.033881*%
%ADD558R,1.152200X0.033888*%
%ADD559R,10.775700X0.033888*%
%ADD560R,0.237200X0.033881*%
%ADD561R,0.101600X0.033881*%
%ADD562R,1.219900X0.033881*%
%ADD563R,10.843500X0.033881*%
%ADD564R,0.203300X0.033875*%
%ADD565R,1.321600X0.033875*%
%ADD566R,1.423300X0.033888*%
%ADD567R,12.842700X0.033881*%
%ADD568R,12.842700X0.033888*%
%ADD569R,0.338900X0.033888*%
%ADD570R,12.876600X0.033888*%
%ADD571R,12.944400X0.033881*%
%ADD572R,13.012200X0.033888*%
%ADD573R,20.738100X0.033881*%
%ADD574R,1.152200X0.033875*%
%ADD575R,11.419500X0.033875*%
%ADD576R,11.487300X0.033888*%
%ADD577R,1.016600X0.033881*%
%ADD578R,0.948800X0.033888*%
%ADD579R,12.571600X0.033888*%
%ADD580R,12.436100X0.033875*%
%ADD581R,12.300500X0.033888*%
%ADD582R,11.385600X0.033888*%
%ADD583R,11.283900X0.033881*%
%ADD584R,11.216200X0.033888*%
%ADD585R,11.012900X0.033875*%
%ADD586R,3.287000X0.033875*%
%ADD587R,12.910500X0.033881*%
%ADD588R,12.808900X0.033888*%
%ADD589R,12.775000X0.033881*%
%ADD590R,0.101700X0.033881*%
%ADD591R,0.203400X0.033888*%
%ADD592R,0.847100X0.033875*%
%ADD593R,10.945100X0.033875*%
%ADD594R,0.406700X0.033875*%
%ADD595R,20.873600X0.033881*%
%ADD596R,10.809600X0.033881*%
%ADD597R,20.805900X0.033888*%
%ADD598R,0.135500X0.033888*%
%ADD599R,1.118300X0.033881*%
%ADD600R,0.101600X0.033888*%
%ADD601R,0.135500X0.033875*%
%ADD602R,0.135600X0.033875*%
%ADD603R,3.320900X0.033875*%
%ADD604R,11.080600X0.033888*%
%ADD605R,0.271000X0.033881*%
%ADD606R,0.271000X0.033888*%
%ADD607R,11.250100X0.033888*%
%ADD608R,11.351700X0.033888*%
%ADD609R,11.453400X0.033881*%
%ADD610R,11.521100X0.033888*%
%ADD611R,1.796000X0.033875*%
%ADD612R,11.622800X0.033875*%
%ADD613R,11.758400X0.033888*%
%ADD614R,11.860000X0.033888*%
%ADD615R,11.961700X0.033875*%
%ADD616R,1.626600X0.033888*%
%ADD617R,18.874400X0.033875*%
%ADD618R,1.524800X0.033875*%
%ADD619R,19.043800X0.033875*%
%ADD620R,19.077700X0.033888*%
%ADD621R,19.145400X0.033881*%
%ADD622R,17.214000X0.033881*%
%ADD623R,17.146300X0.033888*%
%ADD624R,0.677700X0.033875*%
%ADD625R,0.677700X0.033888*%
%ADD626R,0.677700X0.033881*%
%ADD627R,20.331400X0.033888*%
%ADD628R,20.331400X0.033881*%
%ADD629R,32.428700X0.033875*%
%ADD630R,19.247100X0.033888*%
%ADD631R,13.079900X0.033888*%
%ADD632R,12.978300X0.033881*%
%ADD633R,12.944400X0.033888*%
%ADD634R,12.842700X0.033875*%
%ADD635R,12.808900X0.033881*%
%ADD636R,0.067800X0.033888*%
%ADD637R,3.185300X0.033881*%
%ADD638R,18.433800X0.033881*%
%ADD639R,0.813200X0.033881*%
%ADD640R,13.418800X0.033888*%
%ADD641R,3.625800X0.033888*%
%ADD642R,18.569400X0.033875*%
%ADD643R,13.283200X0.033875*%
%ADD644R,3.456400X0.033875*%
%ADD645R,13.283300X0.033888*%
%ADD646R,3.388600X0.033888*%
%ADD647R,32.632000X0.033881*%
%ADD648R,32.598100X0.033888*%
%ADD649R,3.287000X0.033888*%
%ADD650R,32.564200X0.033888*%
%ADD651R,32.530300X0.033881*%
%ADD652R,3.219200X0.033881*%
%ADD653R,18.772700X0.033888*%
%ADD654R,18.671000X0.033875*%
%ADD655R,1.355500X0.033875*%
%ADD656R,3.151400X0.033875*%
%ADD657R,1.253700X0.033881*%
%ADD658R,3.083700X0.033881*%
%ADD659R,11.419500X0.033888*%
%ADD660R,3.083700X0.033888*%
%ADD661R,11.453400X0.033875*%
%ADD662R,3.083700X0.033875*%
%ADD663R,0.779300X0.033875*%
%ADD664R,11.487300X0.033875*%
%ADD665R,0.779300X0.033888*%
%ADD666R,1.050500X0.033881*%
%ADD667R,11.521200X0.033875*%
%ADD668R,0.610000X0.033875*%
%ADD669R,10.775700X0.033875*%
%ADD670R,10.809500X0.033888*%
%ADD671R,0.711600X0.033881*%
%ADD672R,0.643900X0.033888*%
%ADD673R,3.388600X0.033881*%
%ADD674R,13.215400X0.033888*%
%ADD675R,3.490300X0.033888*%
%ADD676R,17.247900X0.033875*%
%ADD677R,17.281800X0.033888*%
%ADD678R,14.130400X0.033881*%
%ADD679R,14.096500X0.033888*%
%ADD680R,11.995600X0.033888*%
%ADD681R,18.738800X0.033881*%
%ADD682R,1.626500X0.033881*%
%ADD683R,11.826100X0.033881*%
%ADD684R,11.690600X0.033888*%
%ADD685R,20.839700X0.033875*%
%ADD686R,11.555100X0.033875*%
%ADD687R,20.772000X0.033888*%
%ADD688R,11.317800X0.033888*%
%ADD689R,11.216200X0.033881*%
%ADD690R,0.508300X0.033881*%
%ADD691R,10.809500X0.033875*%
%ADD692R,0.576100X0.033881*%
%ADD693R,0.406700X0.033881*%
%ADD694R,1.558800X0.033888*%
%ADD695R,1.592700X0.033875*%
%ADD696R,0.203400X0.033875*%
%ADD697R,1.118200X0.033881*%
%ADD698R,1.050400X0.033881*%
%ADD699R,11.012900X0.033881*%
%ADD700R,0.982600X0.033888*%
%ADD701R,13.554300X0.033875*%
%ADD702R,13.588200X0.033888*%
%ADD703R,13.622100X0.033881*%
%ADD704R,13.622100X0.033888*%
%ADD705R,0.033800X0.033881*%
%ADD706R,13.723800X0.033881*%
%ADD707R,12.097200X0.033888*%
%ADD708R,12.063300X0.033888*%
%ADD709R,12.097300X0.033875*%
%ADD710R,0.406600X0.033888*%
%ADD711R,0.542200X0.033881*%
%ADD712R,19.619800X0.033888*%
%ADD713R,20.772000X0.033881*%
%ADD714R,0.542200X0.033875*%
%ADD715R,3.558100X0.033881*%
%ADD716R,3.558100X0.033888*%
%ADD717R,3.558100X0.033875*%
%ADD718R,20.772000X0.033875*%
%ADD719R,3.524200X0.033888*%
%ADD720R,20.805900X0.033881*%
%ADD721R,3.456400X0.033881*%
%ADD722R,20.873600X0.033875*%
%ADD723R,10.843500X0.033875*%
%ADD724R,20.907500X0.033888*%
%ADD725R,20.975300X0.033888*%
%ADD726R,10.979000X0.033888*%
%ADD727R,21.076900X0.033875*%
%ADD728R,11.080700X0.033875*%
%ADD729R,32.462600X0.033888*%
%ADD730R,32.496500X0.033881*%
%ADD731R,32.496500X0.033888*%
%ADD732R,21.043100X0.033881*%
%ADD733R,11.148400X0.033881*%
%ADD734R,0.372800X0.033881*%
%ADD735R,20.907500X0.033875*%
%ADD736R,11.148500X0.033875*%
%ADD737R,0.609900X0.033875*%
%ADD738R,20.873600X0.033888*%
%ADD739R,12.029500X0.033888*%
%ADD740R,20.839700X0.033881*%
%ADD741R,0.779400X0.033875*%
%ADD742R,21.009200X0.033888*%
%ADD743R,21.178600X0.033881*%
%ADD744R,11.148500X0.033881*%
%ADD745R,32.564200X0.033875*%
%ADD746R,3.253100X0.033875*%
%ADD747R,11.046700X0.033881*%
%ADD748R,11.148400X0.033888*%
%ADD749R,15.756900X0.033875*%
%ADD750R,15.790800X0.033888*%
%ADD751R,15.824700X0.033881*%
%ADD752R,15.858600X0.033888*%
%ADD753R,15.858600X0.033881*%
%ADD754R,15.858600X0.033875*%
%ADD755R,21.686900X0.033888*%
%ADD756R,21.585200X0.033875*%
%ADD757R,10.402900X0.033875*%
%ADD758R,2.778700X0.033875*%
%ADD759R,21.517500X0.033888*%
%ADD760R,10.335100X0.033888*%
%ADD761R,21.415800X0.033881*%
%ADD762R,10.335100X0.033881*%
%ADD763R,2.710900X0.033881*%
%ADD764R,21.314100X0.033888*%
%ADD765R,2.710900X0.033888*%
%ADD766R,21.246400X0.033888*%
%ADD767R,21.144700X0.033881*%
%ADD768R,21.043100X0.033888*%
%ADD769R,10.402900X0.033888*%
%ADD770R,20.975300X0.033875*%
%ADD771R,10.504600X0.033875*%
%ADD772R,10.640100X0.033888*%
%ADD773R,2.812600X0.033888*%
%ADD774R,2.846500X0.033881*%
%ADD775R,20.704200X0.033888*%
%ADD776R,2.880300X0.033888*%
%ADD777R,20.602500X0.033888*%
%ADD778R,2.914200X0.033888*%
%ADD779R,10.877300X0.033881*%
%ADD780R,2.948100X0.033881*%
%ADD781R,2.948100X0.033888*%
%ADD782R,2.982000X0.033875*%
%ADD783R,3.015900X0.033888*%
%ADD784R,3.049800X0.033881*%
%ADD785R,11.080700X0.033881*%
%ADD786R,11.080700X0.033888*%
%ADD787R,20.534800X0.033875*%
%ADD788R,0.033900X0.033875*%
%ADD789R,11.114500X0.033875*%
%ADD790R,3.287000X0.033881*%
%ADD791R,11.114600X0.033888*%
%ADD792R,21.009200X0.033881*%
%ADD793R,11.046800X0.033881*%
%ADD794R,21.076900X0.033888*%
%ADD795R,21.178600X0.033875*%
%ADD796R,3.388600X0.033875*%
%ADD797R,21.280300X0.033888*%
%ADD798R,11.046700X0.033888*%
%ADD799R,21.348000X0.033888*%
%ADD800R,3.456400X0.033888*%
%ADD801R,21.449700X0.033881*%
%ADD802R,11.114500X0.033881*%
%ADD803R,3.490300X0.033881*%
%ADD804R,21.619100X0.033881*%
%ADD805R,32.937000X0.033888*%
%ADD806R,3.591900X0.033888*%
%ADD807R,32.970900X0.033888*%
%ADD808R,33.004700X0.033875*%
%ADD809R,3.659700X0.033875*%
%ADD810R,0.169500X0.033881*%
%ADD811R,15.756900X0.033888*%
%ADD812R,15.824700X0.033875*%
%ADD813R,20.907500X0.033881*%
%ADD814R,15.553600X0.033881*%
%ADD815R,15.418100X0.033888*%
%ADD816R,20.670300X0.033888*%
%ADD817R,15.350300X0.033888*%
%ADD818R,20.602500X0.033881*%
%ADD819R,15.282500X0.033881*%
%ADD820R,15.214800X0.033875*%
%ADD821R,20.500900X0.033888*%
%ADD822R,15.180900X0.033888*%
%ADD823R,20.467000X0.033881*%
%ADD824R,0.576000X0.033881*%
%ADD825R,0.847200X0.033888*%
%ADD826R,0.881100X0.033875*%
%ADD827R,15.045300X0.033875*%
%ADD828R,15.045300X0.033888*%
%ADD829R,15.011500X0.033881*%
%ADD830R,14.977600X0.033888*%
%ADD831R,0.508200X0.033881*%
%ADD832R,14.943700X0.033881*%
%ADD833R,14.909800X0.033888*%
%ADD834R,0.101700X0.033875*%
%ADD835R,14.875900X0.033875*%
%ADD836R,14.875900X0.033888*%
%ADD837R,20.636400X0.033881*%
%ADD838R,14.909800X0.033881*%
%ADD839R,14.943700X0.033888*%
%ADD840R,15.214800X0.033881*%
%ADD841R,21.483600X0.033888*%
%ADD842R,21.517500X0.033881*%
%ADD843R,21.551300X0.033888*%
%ADD844R,21.551300X0.033875*%
%ADD845R,21.517500X0.033875*%
%ADD846R,21.348000X0.033881*%
%ADD847R,10.538500X0.033888*%
%ADD848R,10.369000X0.033888*%
%ADD849R,4.269700X0.033888*%
%ADD850R,0.203400X0.033881*%
%ADD851R,10.267400X0.033881*%
%ADD852R,10.199600X0.033888*%
%ADD853R,4.100200X0.033888*%
%ADD854R,10.131800X0.033881*%
%ADD855R,4.032500X0.033881*%
%ADD856R,10.097900X0.033888*%
%ADD857R,3.998600X0.033888*%
%ADD858R,20.704200X0.033875*%
%ADD859R,0.271000X0.033875*%
%ADD860R,10.064100X0.033875*%
%ADD861R,3.964700X0.033875*%
%ADD862R,10.030200X0.033888*%
%ADD863R,3.930800X0.033888*%
%ADD864R,3.896900X0.033888*%
%ADD865R,9.996300X0.033881*%
%ADD866R,3.863000X0.033881*%
%ADD867R,9.996300X0.033888*%
%ADD868R,3.829100X0.033888*%
%ADD869R,3.795300X0.033881*%
%ADD870R,9.894600X0.033888*%
%ADD871R,3.795300X0.033888*%
%ADD872R,9.860700X0.033888*%
%ADD873R,3.761400X0.033888*%
%ADD874R,20.805900X0.033875*%
%ADD875R,9.860700X0.033875*%
%ADD876R,3.761400X0.033875*%
%ADD877R,3.727500X0.033888*%
%ADD878R,9.826900X0.033881*%
%ADD879R,3.727500X0.033881*%
%ADD880R,9.826900X0.033888*%
%ADD881R,21.653000X0.033881*%
%ADD882R,3.693600X0.033881*%
%ADD883R,31.513800X0.033888*%
%ADD884R,3.693600X0.033888*%
%ADD885R,31.513800X0.033875*%
%ADD886R,3.693600X0.033875*%
%ADD887R,31.513800X0.033881*%
%ADD888R,9.793000X0.033888*%
%ADD889R,9.793000X0.033881*%
%ADD890R,20.331400X0.033875*%
%ADD891R,9.793000X0.033875*%
%ADD892R,31.547700X0.033888*%
%ADD893R,31.581500X0.033881*%
%ADD894R,3.761400X0.033881*%
%ADD895R,31.615400X0.033875*%
%ADD896R,3.795300X0.033875*%
%ADD897R,31.649300X0.033888*%
%ADD898R,31.649300X0.033881*%
%ADD899R,3.829100X0.033881*%
%ADD900R,3.863000X0.033888*%
%ADD901R,10.030200X0.033881*%
%ADD902R,3.896900X0.033881*%
%ADD903R,10.064100X0.033888*%
%ADD904R,20.365300X0.033875*%
%ADD905R,10.097900X0.033875*%
%ADD906R,3.998600X0.033875*%
%ADD907R,10.131800X0.033888*%
%ADD908R,4.032500X0.033888*%
%ADD909R,20.467000X0.033875*%
%ADD910R,4.134100X0.033875*%
%ADD911R,32.055900X0.033888*%
%ADD912R,4.235800X0.033888*%
%ADD913R,32.191500X0.033881*%
%ADD914R,15.892500X0.033875*%
%ADD915R,15.892500X0.033888*%
%ADD916R,20.500900X0.033875*%
%ADD917R,0.610000X0.033881*%
%ADD918R,15.960300X0.033888*%
%ADD919R,0.914900X0.033881*%
%ADD920R,14.706500X0.033881*%
%ADD921R,14.740400X0.033881*%
%ADD922R,21.110800X0.033888*%
%ADD923R,14.740400X0.033888*%
%ADD924R,21.246400X0.033881*%
%ADD925R,14.774300X0.033881*%
%ADD926R,14.808100X0.033888*%
%ADD927R,14.943700X0.033875*%
%ADD928R,20.975300X0.033881*%
%ADD929R,15.350300X0.033881*%
%ADD930R,15.452000X0.033888*%
%ADD931R,15.553600X0.033888*%
%ADD932R,15.655300X0.033875*%
%ADD933R,15.723100X0.033888*%
%ADD934R,15.926400X0.033888*%
%ADD935R,21.483700X0.033881*%
%ADD936R,21.483700X0.033888*%
%ADD937R,11.216200X0.033875*%
%ADD938R,21.483700X0.033875*%
%ADD939R,0.542200X0.033888*%
%ADD940R,0.101600X0.033875*%
%ADD941R,0.169400X0.033875*%
%ADD942R,4.269700X0.033875*%
%ADD943R,4.032500X0.033875*%
%ADD944R,0.067700X0.033888*%
%ADD945R,16.468600X0.033881*%
%ADD946R,3.964700X0.033881*%
%ADD947R,2.710900X0.033875*%
%ADD948R,11.995600X0.033875*%
%ADD949R,3.896900X0.033875*%
%ADD950R,11.927800X0.033888*%
%ADD951R,11.927800X0.033875*%
%ADD952R,3.829100X0.033875*%
%ADD953R,11.893900X0.033888*%
%ADD954R,11.893900X0.033881*%
%ADD955R,11.826200X0.033881*%
%ADD956R,11.826200X0.033888*%
%ADD957R,12.198900X0.033875*%
%ADD958R,12.198900X0.033888*%
%ADD959R,12.198900X0.033881*%
%ADD960R,12.300500X0.033881*%
%ADD961R,12.300500X0.033875*%
%ADD962R,7.759900X0.033888*%
%ADD963R,0.474400X0.033888*%
%ADD964R,7.624300X0.033888*%
%ADD965R,2.643100X0.033881*%
%ADD966R,7.556600X0.033881*%
%ADD967R,7.522700X0.033888*%
%ADD968R,2.541400X0.033881*%
%ADD969R,7.488800X0.033881*%
%ADD970R,7.488800X0.033888*%
%ADD971R,2.473600X0.033875*%
%ADD972R,7.454900X0.033875*%
%ADD973R,3.727500X0.033875*%
%ADD974R,2.473600X0.033888*%
%ADD975R,7.488700X0.033888*%
%ADD976R,7.454800X0.033888*%
%ADD977R,7.488700X0.033881*%
%ADD978R,7.522600X0.033881*%
%ADD979R,0.609900X0.033888*%
%ADD980R,7.556500X0.033888*%
%ADD981R,0.576000X0.033888*%
%ADD982R,6.607800X0.033888*%
%ADD983R,0.542100X0.033875*%
%ADD984R,0.914900X0.033875*%
%ADD985R,0.508200X0.033875*%
%ADD986R,6.506100X0.033875*%
%ADD987R,6.438300X0.033888*%
%ADD988R,6.404400X0.033881*%
%ADD989R,3.998600X0.033881*%
%ADD990R,6.404400X0.033888*%
%ADD991R,0.440600X0.033881*%
%ADD992R,6.438300X0.033881*%
%ADD993R,4.066300X0.033881*%
%ADD994R,4.134100X0.033888*%
%ADD995R,6.506000X0.033888*%
%ADD996R,6.641600X0.033875*%
%ADD997R,4.371300X0.033875*%
%ADD998R,11.182400X0.033881*%
%ADD999R,11.182400X0.033888*%
%ADD1000R,12.029500X0.033875*%
%ADD1001R,12.029500X0.033881*%
%ADD1002R,11.385700X0.033888*%
%ADD1003R,11.317900X0.033888*%
%ADD1004R,11.284000X0.033881*%
%ADD1005R,0.542100X0.033888*%
%ADD1006R,2.982000X0.033881*%
%ADD1007R,0.542100X0.033881*%
%ADD1008R,0.576000X0.033875*%
%ADD1009R,11.284000X0.033875*%
%ADD1010R,0.881000X0.033888*%
%ADD1011R,0.948800X0.033881*%
%ADD1012R,11.351800X0.033881*%
%ADD1013R,1.084300X0.033888*%
%ADD1014R,1.490900X0.033888*%
%ADD1015R,9.522000X0.033888*%
%ADD1016R,11.724500X0.033888*%
%ADD1017R,13.012100X0.033881*%
%ADD1018R,23.415100X0.033881*%
%ADD1019R,12.944300X0.033888*%
%ADD1020R,23.347400X0.033888*%
%ADD1021R,23.313500X0.033888*%
%ADD1022R,23.245700X0.033881*%
%ADD1023R,23.245700X0.033888*%
%ADD1024R,23.211800X0.033875*%
%ADD1025R,23.177900X0.033888*%
%ADD1026R,12.910500X0.033888*%
%ADD1027R,2.948000X0.033881*%
%ADD1028R,2.236400X0.033881*%
%ADD1029R,7.997100X0.033881*%
%ADD1030R,23.177900X0.033881*%
%ADD1031R,2.914100X0.033888*%
%ADD1032R,7.963200X0.033888*%
%ADD1033R,2.880300X0.033881*%
%ADD1034R,4.201800X0.033881*%
%ADD1035R,0.813300X0.033881*%
%ADD1036R,1.626600X0.033881*%
%ADD1037R,1.660400X0.033881*%
%ADD1038R,0.881000X0.033881*%
%ADD1039R,9.759200X0.033881*%
%ADD1040R,4.032400X0.033888*%
%ADD1041R,9.284800X0.033888*%
%ADD1042R,2.812500X0.033875*%
%ADD1043R,1.863700X0.033875*%
%ADD1044R,0.067800X0.033875*%
%ADD1045R,0.406600X0.033875*%
%ADD1046R,0.033800X0.033875*%
%ADD1047R,0.372800X0.033875*%
%ADD1048R,0.711600X0.033875*%
%ADD1049R,9.318600X0.033875*%
%ADD1050R,0.508200X0.033888*%
%ADD1051R,9.318600X0.033888*%
%ADD1052R,2.744700X0.033888*%
%ADD1053R,2.710800X0.033881*%
%ADD1054R,3.761300X0.033881*%
%ADD1055R,9.318600X0.033881*%
%ADD1056R,2.676900X0.033888*%
%ADD1057R,3.693500X0.033888*%
%ADD1058R,3.659600X0.033881*%
%ADD1059R,0.406600X0.033881*%
%ADD1060R,2.609200X0.033888*%
%ADD1061R,2.643100X0.033875*%
%ADD1062R,0.881000X0.033875*%
%ADD1063R,3.625800X0.033875*%
%ADD1064R,0.440600X0.033875*%
%ADD1065R,2.676900X0.033881*%
%ADD1066R,3.625800X0.033881*%
%ADD1067R,6.031600X0.033881*%
%ADD1068R,3.659700X0.033888*%
%ADD1069R,5.760500X0.033888*%
%ADD1070R,2.982000X0.033888*%
%ADD1071R,3.659700X0.033881*%
%ADD1072R,5.625000X0.033881*%
%ADD1073R,5.523300X0.033888*%
%ADD1074R,2.778700X0.033888*%
%ADD1075R,5.455600X0.033888*%
%ADD1076R,2.778600X0.033875*%
%ADD1077R,5.421700X0.033875*%
%ADD1078R,1.118200X0.033875*%
%ADD1079R,2.812500X0.033888*%
%ADD1080R,5.353900X0.033888*%
%ADD1081R,2.609300X0.033888*%
%ADD1082R,6.675500X0.033881*%
%ADD1083R,2.541500X0.033881*%
%ADD1084R,5.252300X0.033888*%
%ADD1085R,2.507600X0.033888*%
%ADD1086R,6.811000X0.033881*%
%ADD1087R,2.473700X0.033881*%
%ADD1088R,6.878800X0.033888*%
%ADD1089R,3.862900X0.033888*%
%ADD1090R,6.912700X0.033888*%
%ADD1091R,2.846400X0.033875*%
%ADD1092R,3.862900X0.033875*%
%ADD1093R,6.946600X0.033875*%
%ADD1094R,0.745400X0.033888*%
%ADD1095R,6.980400X0.033888*%
%ADD1096R,0.745400X0.033881*%
%ADD1097R,7.048200X0.033881*%
%ADD1098R,7.116000X0.033888*%
%ADD1099R,0.033800X0.033888*%
%ADD1100R,7.183800X0.033888*%
%ADD1101R,2.778600X0.033881*%
%ADD1102R,0.067700X0.033881*%
%ADD1103R,9.522000X0.033881*%
%ADD1104R,3.998500X0.033888*%
%ADD1105R,0.948900X0.033888*%
%ADD1106R,9.623600X0.033888*%
%ADD1107R,2.744700X0.033875*%
%ADD1108R,6.302800X0.033875*%
%ADD1109R,2.676900X0.033875*%
%ADD1110R,6.302800X0.033888*%
%ADD1111R,12.436100X0.033888*%
%ADD1112R,6.302800X0.033881*%
%ADD1113R,12.436100X0.033881*%
%ADD1114R,2.202500X0.033881*%
%ADD1115R,3.795200X0.033881*%
%ADD1116R,1.728100X0.033881*%
%ADD1117R,3.930800X0.033881*%
%ADD1118R,3.795200X0.033888*%
%ADD1119R,1.728100X0.033888*%
%ADD1120R,3.964700X0.033888*%
%ADD1121R,1.016600X0.033875*%
%ADD1122R,3.795200X0.033875*%
%ADD1123R,3.863000X0.033875*%
%ADD1124R,1.728100X0.033875*%
%ADD1125R,6.540000X0.033888*%
%ADD1126R,7.421000X0.033875*%
%ADD1127R,30.666700X0.033888*%
%ADD1128R,30.666700X0.033881*%
%ADD1129R,30.666700X0.033875*%
%ADD1130R,30.768400X0.033888*%
%ADD1131R,2.507500X0.033881*%
%ADD1132R,30.971700X0.033881*%
%ADD1133R,31.141100X0.033888*%
%ADD1134R,31.208900X0.033875*%
%ADD1135R,31.208900X0.033888*%
%ADD1136R,31.242800X0.033881*%
%ADD1137R,5.896200X0.033888*%
%ADD1138R,9.386300X0.033888*%
%ADD1139R,5.930100X0.033888*%
%ADD1140R,12.842800X0.033888*%
%ADD1141R,5.930100X0.033881*%
%ADD1142R,9.386300X0.033881*%
%ADD1143R,5.963900X0.033888*%
%ADD1144R,5.963900X0.033875*%
%ADD1145R,9.386300X0.033875*%
%ADD1146R,5.997800X0.033888*%
%ADD1147R,5.997800X0.033881*%
%ADD1148R,12.741100X0.033881*%
%ADD1149R,12.741100X0.033888*%
%ADD1150R,5.963900X0.033881*%
%ADD1151R,2.507600X0.033881*%
%ADD1152R,12.707200X0.033888*%
%ADD1153R,5.015100X0.033875*%
%ADD1154R,0.643900X0.033875*%
%ADD1155R,4.913500X0.033888*%
%ADD1156R,4.845700X0.033888*%
%ADD1157R,4.777900X0.033881*%
%ADD1158R,10.064100X0.033881*%
%ADD1159R,2.677000X0.033888*%
%ADD1160R,4.710100X0.033888*%
%ADD1161R,4.676200X0.033881*%
%ADD1162R,4.608500X0.033888*%
%ADD1163R,2.575400X0.033888*%
%ADD1164R,4.540700X0.033888*%
%ADD1165R,2.541500X0.033875*%
%ADD1166R,4.506800X0.033875*%
%ADD1167R,10.199600X0.033875*%
%ADD1168R,10.165700X0.033888*%
%ADD1169R,4.472900X0.033881*%
%ADD1170R,10.165700X0.033881*%
%ADD1171R,1.152100X0.033888*%
%ADD1172R,1.253700X0.033888*%
%ADD1173R,1.016500X0.033881*%
%ADD1174R,4.574600X0.033888*%
%ADD1175R,4.608500X0.033875*%
%ADD1176R,10.131800X0.033875*%
%ADD1177R,4.642400X0.033888*%
%ADD1178R,2.677000X0.033881*%
%ADD1179R,0.643900X0.033881*%
%ADD1180R,10.097900X0.033881*%
%ADD1181R,4.744000X0.033881*%
%ADD1182R,10.064000X0.033881*%
%ADD1183R,4.777900X0.033888*%
%ADD1184R,10.064000X0.033888*%
%ADD1185R,5.658900X0.033888*%
%ADD1186R,3.591900X0.033875*%
%ADD1187R,5.658900X0.033875*%
%ADD1188R,10.030200X0.033875*%
%ADD1189R,5.658900X0.033881*%
%ADD1190R,9.860800X0.033881*%
%ADD1191R,5.692800X0.033888*%
%ADD1192R,3.558000X0.033888*%
%ADD1193R,3.558000X0.033881*%
%ADD1194R,5.692800X0.033881*%
%ADD1195R,0.779300X0.033881*%
%ADD1196R,3.524100X0.033888*%
%ADD1197R,5.726700X0.033888*%
%ADD1198R,9.759100X0.033888*%
%ADD1199R,3.524100X0.033875*%
%ADD1200R,5.726700X0.033875*%
%ADD1201R,3.490200X0.033888*%
%ADD1202R,5.760600X0.033888*%
%ADD1203R,3.524100X0.033881*%
%ADD1204R,5.794500X0.033881*%
%ADD1205R,9.894600X0.033881*%
%ADD1206R,5.828400X0.033888*%
%ADD1207R,9.826800X0.033888*%
%ADD1208R,9.860700X0.033881*%
%ADD1209R,12.707200X0.033881*%
%ADD1210R,9.826800X0.033881*%
%ADD1211R,9.894600X0.033875*%
%ADD1212R,12.741100X0.033875*%
%ADD1213R,2.236500X0.033875*%
%ADD1214R,9.826900X0.033875*%
%ADD1215R,9.894700X0.033888*%
%ADD1216R,12.232800X0.033888*%
%ADD1217R,9.928600X0.033888*%
%ADD1218R,9.996300X0.033875*%
%ADD1219R,12.944400X0.033875*%
%ADD1220R,12.232800X0.033875*%
%ADD1221R,12.266700X0.033888*%
%ADD1222R,35.580100X0.033881*%
%ADD1223R,35.512300X0.033875*%
%ADD1224R,35.444500X0.033888*%
%ADD1225R,35.309100X0.033875*%
%ADD1226R,35.241300X0.033881*%
%ADD1227R,35.173500X0.033888*%
%ADD1228R,34.902400X0.033875*%
%ADD1229R,34.834700X0.033888*%
%ADD1230R,34.766900X0.033881*%
%ADD1231R,34.699100X0.033888*%
%ADD1232R,34.360300X0.033875*%
%ADD1233R,34.292500X0.033888*%
%ADD1234R,34.224700X0.033888*%
%ADD1235R,33.885900X0.033881*%
%ADD1236R,33.818100X0.033888*%
%ADD1237R,33.682500X0.033875*%
%ADD1238R,33.546900X0.033888*%
%ADD1239R,33.072500X0.033881*%
%ADD1240R,32.869300X0.033888*%
%ADD1241R,32.733700X0.033875*%
%ADD1242R,32.564300X0.033888*%
%ADD1243R,32.123700X0.033881*%
%ADD1244R,31.920500X0.033888*%
%ADD1245R,31.242700X0.033888*%


D10*
X183492Y565557D03*
D11*
X183492Y565218D03*
D12*
X183492Y564880D03*
D13*
X183492Y564541D03*
D14*
X183492Y564202D03*
D15*
X183492Y563863D03*
D16*
X183492Y563524D03*
D17*
X183492Y563185D03*
D18*
X183492Y562846D03*
D19*
X183492Y562508D03*
D20*
X183492Y562169D03*
D21*
X183492Y561830D03*
D22*
X183492Y561491D03*
D23*
X183492Y561152D03*
D24*
X183492Y560813D03*
D25*
X183492Y560474D03*
D26*
X183492Y560136D03*
D27*
X183492Y559797D03*
D28*
X183661Y559458D03*
D29*
X183492Y559119D03*
D30*
X183492Y558780D03*
D31*
X183492Y558441D03*
D32*
X183492Y558102D03*
D33*
X183492Y557764D03*
D34*
X183492Y557425D03*
D35*
X183492Y557086D03*
D36*
X183492Y556747D03*
D37*
X183492Y556408D03*
D38*
X183492Y556069D03*
D39*
X183492Y555730D03*
D40*
X183492Y555392D03*
D41*
X183492Y555053D03*
D42*
X183492Y554714D03*
D43*
X183322Y554375D03*
D44*
X183492Y554036D03*
D45*
X183492Y553697D03*
D46*
X183492Y553358D03*
D47*
X183492Y553020D03*
D48*
X183322Y552681D03*
D49*
X183492Y552342D03*
D50*
X183492Y552003D03*
D51*
X183492Y551664D03*
D52*
X183492Y551325D03*
D53*
X183492Y550986D03*
D54*
X183492Y550648D03*
D55*
X183492Y550309D03*
D56*
X183492Y549970D03*
X183492Y549631D03*
D57*
X183492Y549292D03*
D58*
X183492Y548953D03*
D59*
X183492Y548614D03*
D60*
X183492Y548276D03*
X183492Y547937D03*
D61*
X183492Y547598D03*
D62*
X183492Y547259D03*
D63*
X183492Y546920D03*
D64*
X183492Y546581D03*
D65*
X183492Y546242D03*
D66*
X183492Y545904D03*
X183492Y545565D03*
D67*
X15757Y545226D03*
D68*
X32361Y545226D03*
D69*
X183492Y545226D03*
D70*
X334623Y545226D03*
D71*
X351396Y545226D03*
D72*
X15079Y544887D03*
D73*
X32531Y544887D03*
D74*
X183661Y544887D03*
D73*
X334792Y544887D03*
D72*
X351904Y544887D03*
D75*
X14571Y544548D03*
D76*
X32361Y544548D03*
D77*
X183492Y544548D03*
D78*
X334623Y544548D03*
D75*
X352412Y544548D03*
D79*
X14063Y544209D03*
D80*
X32531Y544209D03*
D81*
X183661Y544209D03*
D80*
X334792Y544209D03*
D79*
X352921Y544209D03*
D82*
X13724Y543870D03*
D83*
X32530Y543870D03*
D84*
X183492Y543870D03*
D83*
X334792Y543870D03*
D82*
X353260Y543870D03*
D85*
X13385Y543532D03*
D86*
X32530Y543532D03*
D87*
X183492Y543532D03*
D88*
X334623Y543532D03*
D89*
X353768Y543532D03*
D90*
X13046Y543193D03*
D91*
X32361Y543193D03*
D92*
X183661Y543193D03*
D91*
X334622Y543193D03*
D90*
X353937Y543193D03*
D93*
X12877Y542854D03*
D94*
X32531Y542854D03*
D95*
X183492Y542854D03*
D96*
X334622Y542854D03*
D97*
X354276Y542854D03*
D98*
X12538Y542515D03*
D99*
X32531Y542515D03*
D100*
X183492Y542515D03*
D101*
X334623Y542515D03*
D98*
X354446Y542515D03*
D102*
X12199Y542176D03*
D103*
X32530Y542176D03*
D104*
X183492Y542176D03*
D105*
X334623Y542176D03*
D102*
X354785Y542176D03*
D106*
X12030Y541837D03*
D107*
X32361Y541837D03*
D108*
X183492Y541837D03*
D107*
X334623Y541837D03*
D109*
X354954Y541837D03*
D110*
X11860Y541498D03*
D111*
X32361Y541498D03*
D112*
X183492Y541498D03*
D113*
X334623Y541498D03*
D110*
X355123Y541498D03*
D114*
X11521Y541160D03*
D115*
X32361Y541160D03*
D116*
X183492Y541160D03*
D115*
X334622Y541160D03*
D114*
X355462Y541160D03*
D117*
X11352Y540821D03*
D118*
X32531Y540821D03*
D119*
X183492Y540821D03*
D120*
X334622Y540821D03*
D117*
X355632Y540821D03*
D121*
X11352Y540482D03*
D122*
X32531Y540482D03*
D123*
X183661Y540482D03*
D122*
X334792Y540482D03*
D124*
X355801Y540482D03*
D125*
X11182Y540143D03*
D126*
X32531Y540143D03*
D127*
X183661Y540143D03*
D128*
X334622Y540143D03*
D125*
X355801Y540143D03*
D129*
X11013Y539804D03*
D130*
X32361Y539804D03*
D131*
X183492Y539804D03*
D132*
X334623Y539804D03*
D129*
X355971Y539804D03*
D124*
X10843Y539465D03*
D133*
X32530Y539465D03*
D134*
X194166Y539465D03*
D135*
X356310Y539465D03*
D129*
X10674Y539126D03*
D136*
X172818Y539126D03*
D137*
X334623Y539126D03*
D129*
X356310Y539126D03*
D138*
X21517Y538788D03*
D139*
X183492Y538788D03*
D140*
X334623Y538788D03*
D141*
X356479Y538788D03*
D142*
X10504Y538449D03*
D125*
X32530Y538449D03*
D143*
X183661Y538449D03*
D129*
X334623Y538449D03*
D142*
X356479Y538449D03*
D144*
X21687Y538110D03*
D145*
X183492Y538110D03*
D121*
X334623Y538110D03*
D146*
X356649Y538110D03*
D142*
X10166Y537771D03*
D136*
X172140Y537771D03*
D117*
X334623Y537771D03*
D142*
X356818Y537771D03*
X10166Y537432D03*
D110*
X32530Y537432D03*
D136*
X195183Y537432D03*
D147*
X356987Y537432D03*
D146*
X9997Y537093D03*
D148*
X32361Y537093D03*
D149*
X183492Y537093D03*
D150*
X334623Y537093D03*
D151*
X356987Y537093D03*
D137*
X9997Y536754D03*
D98*
X32531Y536754D03*
D152*
X183661Y536754D03*
D153*
X345297Y536754D03*
D154*
X21857Y536416D03*
D155*
X183492Y536416D03*
D156*
X334622Y536416D03*
D157*
X357157Y536416D03*
D158*
X9827Y536077D03*
D159*
X32361Y536077D03*
D160*
X183492Y536077D03*
D159*
X334622Y536077D03*
D161*
X357157Y536077D03*
D158*
X9827Y535738D03*
D162*
X171462Y535738D03*
D159*
X334622Y535738D03*
D161*
X357157Y535738D03*
D133*
X9827Y535399D03*
D93*
X32531Y535399D03*
D163*
X183661Y535399D03*
D164*
X345127Y535399D03*
D158*
X9827Y535060D03*
D165*
X32531Y535060D03*
D162*
X195860Y535060D03*
D130*
X357326Y535060D03*
D166*
X22026Y534721D03*
D167*
X183492Y534721D03*
D168*
X334622Y534721D03*
D169*
X357326Y534721D03*
D132*
X9658Y534382D03*
D90*
X32361Y534382D03*
D170*
X183492Y534382D03*
D90*
X334622Y534382D03*
D130*
X357326Y534382D03*
D171*
X9658Y534044D03*
D172*
X171124Y534044D03*
D173*
X334622Y534044D03*
D174*
X357326Y534044D03*
D132*
X9658Y533705D03*
D136*
X171124Y533705D03*
D90*
X334622Y533705D03*
D130*
X357326Y533705D03*
D132*
X9658Y533366D03*
D136*
X171124Y533366D03*
D90*
X334622Y533366D03*
D130*
X357326Y533366D03*
D175*
X9658Y533027D03*
D134*
X171124Y533027D03*
D168*
X334622Y533027D03*
D169*
X357326Y533027D03*
D132*
X9658Y532688D03*
D136*
X171124Y532688D03*
D90*
X334622Y532688D03*
D130*
X357326Y532688D03*
D175*
X9658Y532349D03*
D134*
X171124Y532349D03*
D168*
X334622Y532349D03*
D169*
X357326Y532349D03*
D132*
X9658Y532010D03*
D136*
X171124Y532010D03*
D90*
X334622Y532010D03*
D130*
X357326Y532010D03*
D171*
X9658Y531672D03*
D173*
X32361Y531672D03*
D176*
X183492Y531672D03*
D173*
X334622Y531672D03*
D174*
X357326Y531672D03*
D177*
X22026Y531333D03*
D170*
X183492Y531333D03*
D90*
X334622Y531333D03*
D130*
X357326Y531333D03*
D177*
X22026Y530994D03*
D162*
X195860Y530994D03*
D130*
X357326Y530994D03*
D133*
X9827Y530655D03*
D93*
X32531Y530655D03*
D178*
X195860Y530655D03*
D169*
X357326Y530655D03*
D158*
X9827Y530316D03*
D165*
X32531Y530316D03*
D179*
X183661Y530316D03*
D180*
X345127Y530316D03*
D133*
X9827Y529977D03*
D178*
X171462Y529977D03*
D97*
X334622Y529977D03*
D181*
X357157Y529977D03*
D182*
X21857Y529638D03*
D160*
X183492Y529638D03*
D159*
X334622Y529638D03*
D161*
X357157Y529638D03*
D137*
X9997Y529299D03*
D98*
X32531Y529299D03*
D162*
X195521Y529299D03*
D161*
X357157Y529299D03*
D183*
X9997Y528961D03*
D184*
X171801Y528961D03*
D185*
X334623Y528961D03*
D186*
X356987Y528961D03*
D187*
X21687Y528622D03*
D188*
X183492Y528622D03*
D106*
X334623Y528622D03*
D147*
X356987Y528622D03*
D189*
X10166Y528283D03*
D190*
X32530Y528283D03*
D191*
X183661Y528283D03*
D190*
X334792Y528283D03*
D151*
X356987Y528283D03*
D142*
X10166Y527944D03*
D117*
X32361Y527944D03*
D192*
X183492Y527944D03*
D117*
X334623Y527944D03*
D142*
X356818Y527944D03*
D193*
X10335Y527605D03*
D124*
X32530Y527605D03*
D134*
X194844Y527605D03*
D189*
X356818Y527605D03*
D194*
X10335Y527266D03*
D129*
X32361Y527266D03*
D195*
X183492Y527266D03*
D129*
X334623Y527266D03*
X356649Y527266D03*
D196*
X10505Y526927D03*
D142*
X32530Y526927D03*
D197*
X183661Y526927D03*
D142*
X334792Y526927D03*
D129*
X356649Y526927D03*
D198*
X10505Y526589D03*
D183*
X32361Y526589D03*
D199*
X183492Y526589D03*
D183*
X334623Y526589D03*
D200*
X356479Y526589D03*
D201*
X10674Y526250D03*
D158*
X32530Y526250D03*
D202*
X183661Y526250D03*
D203*
X345975Y526250D03*
D204*
X10844Y525911D03*
D205*
X32531Y525911D03*
D206*
X183492Y525911D03*
D175*
X334623Y525911D03*
D121*
X356310Y525911D03*
D207*
X10844Y525572D03*
D128*
X32361Y525572D03*
D208*
X183492Y525572D03*
D128*
X334622Y525572D03*
D110*
X356140Y525572D03*
D109*
X11013Y525233D03*
D209*
X32531Y525233D03*
D210*
X183661Y525233D03*
D120*
X334622Y525233D03*
D106*
X355971Y525233D03*
D211*
X11183Y524894D03*
D212*
X32531Y524894D03*
D213*
X183661Y524894D03*
D214*
X334622Y524894D03*
D150*
X355971Y524894D03*
D159*
X11352Y524555D03*
D215*
X32531Y524555D03*
D216*
X183661Y524555D03*
D215*
X334792Y524555D03*
D217*
X355801Y524555D03*
D218*
X11522Y524217D03*
D219*
X32530Y524217D03*
D220*
X183661Y524217D03*
D219*
X334792Y524217D03*
D221*
X355632Y524217D03*
D222*
X11691Y523878D03*
D223*
X32530Y523878D03*
D224*
X183661Y523878D03*
D223*
X334792Y523878D03*
D165*
X355463Y523878D03*
D225*
X11860Y523539D03*
D226*
X32530Y523539D03*
D227*
X183661Y523539D03*
D228*
X334623Y523539D03*
D168*
X355293Y523539D03*
D82*
X12030Y523200D03*
D229*
X32361Y523200D03*
D230*
X183661Y523200D03*
D229*
X334622Y523200D03*
D231*
X355124Y523200D03*
D232*
X12199Y522861D03*
D233*
X32531Y522861D03*
D234*
X183492Y522861D03*
D235*
X334622Y522861D03*
D236*
X354785Y522861D03*
D237*
X12538Y522522D03*
D238*
X32531Y522522D03*
D239*
X183492Y522522D03*
D240*
X334623Y522522D03*
D241*
X354615Y522522D03*
D242*
X12708Y522183D03*
D243*
X32530Y522183D03*
D244*
X183492Y522183D03*
D243*
X334792Y522183D03*
D242*
X354277Y522183D03*
D245*
X13046Y521845D03*
D246*
X32531Y521845D03*
D247*
X183661Y521845D03*
D246*
X334792Y521845D03*
D248*
X354107Y521845D03*
D249*
X13385Y521506D03*
D250*
X32531Y521506D03*
D251*
X183661Y521506D03*
D250*
X334792Y521506D03*
D252*
X353768Y521506D03*
D253*
X13724Y521167D03*
D254*
X32530Y521167D03*
D255*
X183492Y521167D03*
D256*
X334623Y521167D03*
D257*
X353260Y521167D03*
D258*
X14232Y520828D03*
D259*
X32531Y520828D03*
D260*
X183492Y520828D03*
D261*
X334622Y520828D03*
D262*
X352752Y520828D03*
D263*
X15080Y520489D03*
D264*
X183492Y520489D03*
D263*
X351905Y520489D03*
D265*
X183492Y520150D03*
D266*
X183492Y519811D03*
D267*
X183492Y519473D03*
D266*
X183492Y519134D03*
X183492Y518795D03*
D267*
X183492Y518456D03*
D266*
X183492Y518117D03*
D265*
X183492Y517778D03*
D266*
X183492Y517439D03*
X183492Y517101D03*
D265*
X183492Y516762D03*
D266*
X183492Y516423D03*
D267*
X183492Y516084D03*
D266*
X183492Y515745D03*
D265*
X183492Y515406D03*
D266*
X183492Y515067D03*
X183492Y514729D03*
D265*
X183492Y514390D03*
D266*
X183492Y514051D03*
D267*
X183492Y513712D03*
D266*
X183492Y513373D03*
D265*
X183492Y513034D03*
D266*
X183492Y512695D03*
X183492Y512357D03*
D265*
X183492Y512018D03*
D266*
X183492Y511679D03*
D267*
X183492Y511340D03*
D266*
X183492Y511001D03*
X183492Y510662D03*
D265*
X183492Y510323D03*
D266*
X183492Y509985D03*
D265*
X183492Y509646D03*
D266*
X183492Y509307D03*
D267*
X183492Y508968D03*
D266*
X183492Y508629D03*
X183492Y508290D03*
D265*
X183492Y507951D03*
D266*
X183492Y507613D03*
D265*
X183492Y507274D03*
D266*
X183492Y506935D03*
X183492Y506596D03*
D267*
X183492Y506257D03*
D266*
X183492Y505918D03*
D265*
X183492Y505579D03*
D266*
X183492Y505241D03*
D265*
X183492Y504902D03*
D266*
X183492Y504563D03*
X183492Y504224D03*
D267*
X183492Y503885D03*
D266*
X183492Y503546D03*
D265*
X183492Y503207D03*
D266*
X183492Y502869D03*
X183492Y502530D03*
D265*
X183492Y502191D03*
D266*
X183492Y501852D03*
D267*
X183492Y501513D03*
D266*
X183492Y501174D03*
D265*
X183492Y500835D03*
D266*
X183492Y500497D03*
X183492Y500158D03*
D265*
X183492Y499819D03*
D266*
X183492Y499480D03*
D267*
X183492Y499141D03*
D266*
X183492Y498802D03*
X183492Y498463D03*
D267*
X183492Y498125D03*
D266*
X183492Y497786D03*
D265*
X183492Y497447D03*
D266*
X183492Y497108D03*
D267*
X183492Y496769D03*
D266*
X183492Y496430D03*
X183492Y496091D03*
D267*
X183492Y495753D03*
D266*
X183492Y495414D03*
D265*
X183492Y495075D03*
D266*
X183492Y494736D03*
X183492Y494397D03*
D265*
X183492Y494058D03*
D266*
X183492Y493719D03*
D267*
X183492Y493381D03*
D266*
X183492Y493042D03*
D265*
X183492Y492703D03*
D266*
X183492Y492364D03*
X183492Y492025D03*
D265*
X183492Y491686D03*
D266*
X183492Y491347D03*
D267*
X183492Y491009D03*
D266*
X183492Y490670D03*
D265*
X183492Y490331D03*
D266*
X183492Y489992D03*
X183492Y489653D03*
D265*
X183492Y489314D03*
D266*
X183492Y488975D03*
D267*
X183492Y488637D03*
D266*
X183492Y488298D03*
X183492Y487959D03*
D265*
X183492Y487620D03*
D266*
X183492Y487281D03*
D265*
X183492Y486942D03*
D266*
X183492Y486603D03*
D267*
X183492Y486265D03*
D266*
X183492Y485926D03*
X183492Y485587D03*
D265*
X183492Y485248D03*
D266*
X183492Y484909D03*
D265*
X183492Y484570D03*
D266*
X183492Y484231D03*
X183492Y483892D03*
D267*
X183492Y483554D03*
D266*
X183492Y483215D03*
D265*
X183492Y482876D03*
D266*
X183492Y482537D03*
D265*
X183492Y482198D03*
D266*
X183492Y481859D03*
X183492Y481520D03*
D267*
X183492Y481182D03*
D266*
X183492Y480843D03*
D265*
X183492Y480504D03*
D266*
X183492Y480165D03*
X183492Y479826D03*
D265*
X183492Y479487D03*
D266*
X183492Y479148D03*
D267*
X183492Y478810D03*
D266*
X183492Y478471D03*
D265*
X183492Y478132D03*
D266*
X183492Y477793D03*
X183492Y477454D03*
D265*
X183492Y477115D03*
D266*
X183492Y476776D03*
D267*
X183492Y476438D03*
D266*
X183492Y476099D03*
X183492Y475760D03*
D267*
X183492Y475421D03*
D266*
X183492Y475082D03*
D265*
X183492Y474743D03*
D266*
X183492Y474404D03*
D267*
X183492Y474066D03*
D266*
X183492Y473727D03*
X183492Y473388D03*
D267*
X183492Y473049D03*
D266*
X183492Y472710D03*
D265*
X183492Y472371D03*
D266*
X183492Y472032D03*
D267*
X183492Y471694D03*
D266*
X183492Y471355D03*
X183492Y471016D03*
D267*
X183492Y470677D03*
D266*
X183492Y470338D03*
D265*
X183492Y469999D03*
D266*
X183492Y469660D03*
X183492Y469322D03*
D265*
X183492Y468983D03*
D266*
X183492Y468644D03*
D267*
X183492Y468305D03*
D266*
X183492Y467966D03*
D265*
X183492Y467627D03*
D266*
X183492Y467288D03*
X183492Y466950D03*
D265*
X183492Y466611D03*
D266*
X183492Y466272D03*
D267*
X183492Y465933D03*
D266*
X183492Y465594D03*
X183492Y465255D03*
D265*
X183492Y464916D03*
D266*
X183492Y464578D03*
D265*
X183492Y464239D03*
D266*
X183492Y463900D03*
D267*
X183492Y463561D03*
D266*
X183492Y463222D03*
X183492Y462883D03*
D265*
X183492Y462544D03*
D266*
X183492Y462206D03*
D265*
X183492Y461867D03*
D266*
X183492Y461528D03*
D268*
X95389Y461189D03*
D269*
X280236Y461189D03*
D270*
X95219Y460850D03*
D271*
X280575Y460850D03*
D272*
X95050Y460511D03*
D273*
X280575Y460511D03*
D274*
X94881Y460172D03*
D275*
X280744Y460172D03*
D276*
X94711Y459834D03*
D277*
X280914Y459834D03*
D278*
X94542Y459495D03*
D279*
X281083Y459495D03*
D280*
X94372Y459156D03*
D281*
X281253Y459156D03*
D282*
X94203Y458817D03*
D283*
X281422Y458817D03*
D284*
X94203Y458478D03*
D285*
X281591Y458478D03*
D286*
X94033Y458139D03*
D287*
X281591Y458139D03*
D288*
X93864Y457800D03*
D289*
X281761Y457800D03*
D290*
X93695Y457462D03*
D291*
X281930Y457462D03*
D292*
X93525Y457123D03*
D293*
X282100Y457123D03*
D294*
X93356Y456784D03*
D295*
X282269Y456784D03*
D296*
X93186Y456445D03*
D297*
X282439Y456445D03*
D298*
X93017Y456106D03*
D299*
X282608Y456106D03*
D300*
X93017Y455767D03*
D301*
X282777Y455767D03*
D302*
X92847Y455428D03*
D303*
X282777Y455428D03*
D304*
X92678Y455090D03*
D305*
X282947Y455090D03*
D306*
X92509Y454751D03*
D307*
X283116Y454751D03*
D308*
X92339Y454412D03*
D309*
X283286Y454412D03*
D310*
X92170Y454073D03*
D311*
X283455Y454073D03*
D312*
X92000Y453734D03*
D313*
X283625Y453734D03*
D314*
X92000Y453395D03*
D315*
X283794Y453395D03*
D316*
X91831Y453056D03*
D317*
X283963Y453056D03*
D318*
X91661Y452718D03*
D319*
X283963Y452718D03*
D320*
X91492Y452379D03*
D321*
X284133Y452379D03*
D322*
X91323Y452040D03*
D323*
X284302Y452040D03*
D324*
X91153Y451701D03*
D325*
X284472Y451701D03*
D326*
X90984Y451362D03*
D327*
X284641Y451362D03*
D328*
X90814Y451023D03*
D329*
X284811Y451023D03*
D328*
X90814Y450684D03*
D329*
X284811Y450684D03*
D330*
X90645Y450346D03*
D331*
X284980Y450346D03*
D332*
X90645Y450007D03*
D333*
X284980Y450007D03*
D334*
X90814Y449668D03*
D335*
X284811Y449668D03*
D336*
X90984Y449329D03*
D329*
X284811Y449329D03*
D267*
X183492Y448990D03*
D266*
X183492Y448651D03*
X183492Y448312D03*
D267*
X183492Y447974D03*
D266*
X183492Y447635D03*
D265*
X183492Y447296D03*
D266*
X183492Y446957D03*
X183492Y446618D03*
D265*
X183492Y446279D03*
D266*
X183492Y445940D03*
D267*
X183492Y445602D03*
D266*
X183492Y445263D03*
D265*
X183492Y444924D03*
D266*
X183492Y444585D03*
X183492Y444246D03*
D265*
X183492Y443907D03*
D266*
X183492Y443568D03*
D267*
X183492Y443230D03*
D266*
X183492Y442891D03*
X183492Y442552D03*
D265*
X183492Y442213D03*
D337*
X103691Y441874D03*
D338*
X290063Y441874D03*
D339*
X103013Y441535D03*
D340*
X290571Y441535D03*
D341*
X102674Y441196D03*
D342*
X290910Y441196D03*
D343*
X102505Y440858D03*
D344*
X291080Y440858D03*
D345*
X102335Y440519D03*
D346*
X291249Y440519D03*
D347*
X102166Y440180D03*
D348*
X291418Y440180D03*
D349*
X101997Y439841D03*
D350*
X291588Y439841D03*
D351*
X101827Y439502D03*
D352*
X210092Y439502D03*
D353*
X291757Y439502D03*
D354*
X101658Y439163D03*
D355*
X210092Y439163D03*
D356*
X291927Y439163D03*
D357*
X101658Y438824D03*
D254*
X210092Y438824D03*
D358*
X291927Y438824D03*
D320*
X91492Y438485D03*
D359*
X199926Y438485D03*
D360*
X210262Y438485D03*
D358*
X291927Y438485D03*
D361*
X91492Y438147D03*
D362*
X199757Y438147D03*
D363*
X210092Y438147D03*
D364*
X292096Y438147D03*
D320*
X91492Y437808D03*
D256*
X199757Y437808D03*
D365*
X210092Y437808D03*
D366*
X292096Y437808D03*
D367*
X91492Y437469D03*
D368*
X199757Y437469D03*
D369*
X210092Y437469D03*
D370*
X292096Y437469D03*
D320*
X91492Y437130D03*
D256*
X199757Y437130D03*
D365*
X210092Y437130D03*
D366*
X292096Y437130D03*
D367*
X91492Y436791D03*
D368*
X199757Y436791D03*
D369*
X210092Y436791D03*
D370*
X292096Y436791D03*
D320*
X91492Y436452D03*
D256*
X199757Y436452D03*
D365*
X210092Y436452D03*
D366*
X292096Y436452D03*
D320*
X91492Y436113D03*
D256*
X199757Y436113D03*
D365*
X210092Y436113D03*
D366*
X292096Y436113D03*
D361*
X91492Y435775D03*
D371*
X187389Y435775D03*
D372*
X197554Y435775D03*
D373*
X210092Y435775D03*
D364*
X292096Y435775D03*
D320*
X91492Y435436D03*
D374*
X187389Y435436D03*
D243*
X197554Y435436D03*
D365*
X210092Y435436D03*
D366*
X292096Y435436D03*
D367*
X91492Y435097D03*
D375*
X187389Y435097D03*
D376*
X197554Y435097D03*
D377*
X210092Y435097D03*
D370*
X292096Y435097D03*
D320*
X91492Y434758D03*
D374*
X187389Y434758D03*
D378*
X197724Y434758D03*
D360*
X210262Y434758D03*
D358*
X291927Y434758D03*
D320*
X91492Y434419D03*
D374*
X187389Y434419D03*
D378*
X197724Y434419D03*
D254*
X210092Y434419D03*
D358*
X291927Y434419D03*
D367*
X91492Y434080D03*
D375*
X187389Y434080D03*
D379*
X197893Y434080D03*
D380*
X210262Y434080D03*
D356*
X291927Y434080D03*
D320*
X91492Y433741D03*
D374*
X187389Y433741D03*
D381*
X197893Y433741D03*
D382*
X210092Y433741D03*
D353*
X291757Y433741D03*
D361*
X91492Y433403D03*
D371*
X187389Y433403D03*
D383*
X198063Y433403D03*
D384*
X291588Y433403D03*
D320*
X91492Y433064D03*
D374*
X187389Y433064D03*
D385*
X198232Y433064D03*
D348*
X291418Y433064D03*
D367*
X91492Y432725D03*
D386*
X187558Y432725D03*
D387*
X198401Y432725D03*
D388*
X291249Y432725D03*
D320*
X91492Y432386D03*
D389*
X187558Y432386D03*
D233*
X198571Y432386D03*
D390*
X291080Y432386D03*
D320*
X91492Y432047D03*
D391*
X187558Y432047D03*
D392*
X198910Y432047D03*
D342*
X290910Y432047D03*
D367*
X91492Y431708D03*
D393*
X187558Y431708D03*
D394*
X199079Y431708D03*
D395*
X290402Y431708D03*
D318*
X91661Y431369D03*
D223*
X199587Y431369D03*
D396*
X289894Y431369D03*
D397*
X91661Y431031D03*
D398*
X279389Y431031D03*
D399*
X91831Y430692D03*
D400*
X279219Y430692D03*
D401*
X92000Y430353D03*
D402*
X279050Y430353D03*
D314*
X92000Y430014D03*
D403*
X279050Y430014D03*
D310*
X92170Y429675D03*
D404*
X278881Y429675D03*
D405*
X92509Y429336D03*
D406*
X278542Y429336D03*
D407*
X92847Y428997D03*
D408*
X197893Y428997D03*
D409*
X293960Y428997D03*
D410*
X103183Y428659D03*
D411*
X293960Y428659D03*
D412*
X103183Y428320D03*
D409*
X293960Y428320D03*
D412*
X103183Y427981D03*
D409*
X293960Y427981D03*
D410*
X103183Y427642D03*
D411*
X293960Y427642D03*
D412*
X103183Y427303D03*
D409*
X293960Y427303D03*
D367*
X91492Y426964D03*
D413*
X201790Y426964D03*
D414*
X211787Y426964D03*
D415*
X291757Y426964D03*
D320*
X91492Y426625D03*
D416*
X201621Y426625D03*
D417*
X211787Y426625D03*
D353*
X291757Y426625D03*
D361*
X91492Y426287D03*
D418*
X201621Y426287D03*
D419*
X211787Y426287D03*
D420*
X291927Y426287D03*
D320*
X91492Y425948D03*
D421*
X201451Y425948D03*
D73*
X211787Y425948D03*
D366*
X292096Y425948D03*
D320*
X91492Y425609D03*
D421*
X201451Y425609D03*
D422*
X211786Y425609D03*
D366*
X292096Y425609D03*
D361*
X91492Y425270D03*
D423*
X201451Y425270D03*
D424*
X211786Y425270D03*
D364*
X292096Y425270D03*
D320*
X91492Y424931D03*
D421*
X201451Y424931D03*
D422*
X211786Y424931D03*
D366*
X292096Y424931D03*
D367*
X91492Y424592D03*
D425*
X187897Y424592D03*
D426*
X201451Y424592D03*
D355*
X211786Y424592D03*
D427*
X270240Y424592D03*
D428*
X351905Y424592D03*
D320*
X91492Y424253D03*
D118*
X197555Y424253D03*
D73*
X211787Y424253D03*
D429*
X270240Y424253D03*
D263*
X351905Y424253D03*
D320*
X91492Y423915D03*
D113*
X198063Y423915D03*
D73*
X211787Y423915D03*
D429*
X270240Y423915D03*
D263*
X351905Y423915D03*
D367*
X91492Y423576D03*
D430*
X198402Y423576D03*
D431*
X211956Y423576D03*
D427*
X270240Y423576D03*
D428*
X351905Y423576D03*
D314*
X92000Y423237D03*
D432*
X198910Y423237D03*
D433*
X211786Y423237D03*
D429*
X270240Y423237D03*
D263*
X351905Y423237D03*
D434*
X92509Y422898D03*
D435*
X199588Y422898D03*
D436*
X270070Y422898D03*
D437*
X351905Y422898D03*
D300*
X93017Y422559D03*
D235*
X200096Y422559D03*
D438*
X270070Y422559D03*
D263*
X351905Y422559D03*
D439*
X93525Y422220D03*
D440*
X200774Y422220D03*
D441*
X269901Y422220D03*
D428*
X351905Y422220D03*
D442*
X93864Y421881D03*
D443*
X201282Y421881D03*
D444*
X269731Y421881D03*
D445*
X330048Y421881D03*
D263*
X351905Y421881D03*
D280*
X94372Y421543D03*
D381*
X201959Y421543D03*
D446*
X269392Y421543D03*
D445*
X330048Y421543D03*
D263*
X351905Y421543D03*
D274*
X94881Y421204D03*
D240*
X202468Y421204D03*
D447*
X269223Y421204D03*
D448*
X330048Y421204D03*
D428*
X351905Y421204D03*
D268*
X95389Y420865D03*
D235*
X203145Y420865D03*
D449*
X268545Y420865D03*
D450*
X330217Y420865D03*
D263*
X351905Y420865D03*
D451*
X95897Y420526D03*
D452*
X259904Y420526D03*
D76*
X330217Y420526D03*
D437*
X351905Y420526D03*
D453*
X95558Y420187D03*
D454*
X259904Y420187D03*
D450*
X330217Y420187D03*
D263*
X351905Y420187D03*
D272*
X95050Y419848D03*
D421*
X201451Y419848D03*
D455*
X266173Y419848D03*
D359*
X330048Y419848D03*
D263*
X351905Y419848D03*
D278*
X94542Y419509D03*
D426*
X201451Y419509D03*
D456*
X266173Y419509D03*
D457*
X330048Y419509D03*
D428*
X351905Y419509D03*
D286*
X94033Y419171D03*
D243*
X200943Y419171D03*
D458*
X266343Y419171D03*
D254*
X330048Y419171D03*
D263*
X351905Y419171D03*
D459*
X93695Y418832D03*
D240*
X200435Y418832D03*
D460*
X266343Y418832D03*
D355*
X330048Y418832D03*
D461*
X351735Y418832D03*
D296*
X93186Y418493D03*
D462*
X200096Y418493D03*
D458*
X266343Y418493D03*
D73*
X330048Y418493D03*
D463*
X351735Y418493D03*
D464*
X92678Y418154D03*
D88*
X198402Y418154D03*
D465*
X270070Y418154D03*
D259*
X330048Y418154D03*
D466*
X351566Y418154D03*
D310*
X92170Y417815D03*
D385*
X197893Y417815D03*
D467*
X270240Y417815D03*
D468*
X351566Y417815D03*
D318*
X91661Y417476D03*
D235*
X197385Y417476D03*
D469*
X270578Y417476D03*
D470*
X351396Y417476D03*
D367*
X91492Y417137D03*
D471*
X197046Y417137D03*
D472*
X270917Y417137D03*
D473*
X351227Y417137D03*
D320*
X91492Y416799D03*
D432*
X196538Y416799D03*
D474*
X271087Y416799D03*
D475*
X351227Y416799D03*
D367*
X91492Y416460D03*
D386*
X189252Y416460D03*
D377*
X200265Y416460D03*
D447*
X271256Y416460D03*
D476*
X350888Y416460D03*
D320*
X91492Y416121D03*
D421*
X201451Y416121D03*
D73*
X211448Y416121D03*
D477*
X271426Y416121D03*
D478*
X350719Y416121D03*
D320*
X91492Y415782D03*
D421*
X201451Y415782D03*
D479*
X211617Y415782D03*
D480*
X271765Y415782D03*
D481*
X350380Y415782D03*
D361*
X91492Y415443D03*
D423*
X201451Y415443D03*
D424*
X211786Y415443D03*
D482*
X272103Y415443D03*
D483*
X350041Y415443D03*
D320*
X91492Y415104D03*
D421*
X201451Y415104D03*
D422*
X211786Y415104D03*
D366*
X292096Y415104D03*
D367*
X91492Y414765D03*
D426*
X201451Y414765D03*
D355*
X211786Y414765D03*
D370*
X292096Y414765D03*
D320*
X91492Y414427D03*
D120*
X205517Y414427D03*
D484*
X276170Y414427D03*
D263*
X351905Y414427D03*
D367*
X91492Y414088D03*
D485*
X265495Y414088D03*
D428*
X351905Y414088D03*
D486*
X166719Y413749D03*
D263*
X351905Y413749D03*
D487*
X166380Y413410D03*
D263*
X351905Y413410D03*
D488*
X165871Y413071D03*
D437*
X351905Y413071D03*
D357*
X101658Y412732D03*
D489*
X206026Y412732D03*
D490*
X273967Y412732D03*
D263*
X351905Y412732D03*
D491*
X101488Y412393D03*
D68*
X206195Y412393D03*
D492*
X273628Y412393D03*
D428*
X351905Y412393D03*
D493*
X101319Y412055D03*
D494*
X206195Y412055D03*
D495*
X273120Y412055D03*
D263*
X351905Y412055D03*
D496*
X101319Y411716D03*
D68*
X206195Y411716D03*
D497*
X272612Y411716D03*
D428*
X351905Y411716D03*
D493*
X101319Y411377D03*
D494*
X206195Y411377D03*
D498*
X272273Y411377D03*
D470*
X351396Y411377D03*
D499*
X101488Y411038D03*
D494*
X206195Y411038D03*
D480*
X271765Y411038D03*
D500*
X350888Y411038D03*
D501*
X101488Y410699D03*
D502*
X206026Y410699D03*
D503*
X271256Y410699D03*
D504*
X350719Y410699D03*
D505*
X162144Y410360D03*
D478*
X350719Y410360D03*
D506*
X161805Y410021D03*
D507*
X331404Y410021D03*
D508*
X350719Y410021D03*
D509*
X161636Y409683D03*
D494*
X330895Y409683D03*
D478*
X350719Y409683D03*
D509*
X161636Y409344D03*
D510*
X330387Y409344D03*
D478*
X350719Y409344D03*
D511*
X161636Y409005D03*
D512*
X329879Y409005D03*
D508*
X350719Y409005D03*
D513*
X105385Y408666D03*
D514*
X267868Y408666D03*
D515*
X329540Y408666D03*
D478*
X350719Y408666D03*
D516*
X104538Y408327D03*
D517*
X268884Y408327D03*
D518*
X329879Y408327D03*
D504*
X350719Y408327D03*
D519*
X104199Y407988D03*
D520*
X269223Y407988D03*
D510*
X330387Y407988D03*
D478*
X350719Y407988D03*
D521*
X95728Y407649D03*
D471*
X200773Y407649D03*
D522*
X269392Y407649D03*
D68*
X330895Y407649D03*
D508*
X350719Y407649D03*
D304*
X92678Y407311D03*
D523*
X189761Y407311D03*
D233*
X200943Y407311D03*
D467*
X269901Y407311D03*
D524*
X331404Y407311D03*
D478*
X350719Y407311D03*
D525*
X92339Y406972D03*
D374*
X190100Y406972D03*
D385*
X200943Y406972D03*
D474*
X270409Y406972D03*
D478*
X350719Y406972D03*
D526*
X92170Y406633D03*
D527*
X190438Y406633D03*
D240*
X201113Y406633D03*
D528*
X270917Y406633D03*
D508*
X350719Y406633D03*
D314*
X92000Y406294D03*
D391*
X190608Y406294D03*
D378*
X201113Y406294D03*
D529*
X211786Y406294D03*
D449*
X271595Y406294D03*
D500*
X350888Y406294D03*
D530*
X91831Y405955D03*
D531*
X190777Y405955D03*
D372*
X201282Y405955D03*
D259*
X211787Y405955D03*
D532*
X272103Y405955D03*
D533*
X351396Y405955D03*
D318*
X91661Y405616D03*
D510*
X190777Y405616D03*
D416*
X201282Y405616D03*
D417*
X211787Y405616D03*
D514*
X272612Y405616D03*
D263*
X351905Y405616D03*
D318*
X91661Y405277D03*
D534*
X190947Y405277D03*
D416*
X201282Y405277D03*
D73*
X211787Y405277D03*
D495*
X273120Y405277D03*
D263*
X351905Y405277D03*
D361*
X91492Y404939D03*
D535*
X191625Y404939D03*
D418*
X201282Y404939D03*
D419*
X211787Y404939D03*
D536*
X273628Y404939D03*
D437*
X351905Y404939D03*
D320*
X91492Y404600D03*
D537*
X186711Y404600D03*
D538*
X191794Y404600D03*
D421*
X201451Y404600D03*
D422*
X211786Y404600D03*
D490*
X273967Y404600D03*
D263*
X351905Y404600D03*
D367*
X91492Y404261D03*
D539*
X186711Y404261D03*
D386*
X191963Y404261D03*
D426*
X201451Y404261D03*
D355*
X211786Y404261D03*
D540*
X274475Y404261D03*
D428*
X351905Y404261D03*
D541*
X91323Y403922D03*
D510*
X186711Y403922D03*
D389*
X192302Y403922D03*
D421*
X201451Y403922D03*
D422*
X211786Y403922D03*
D542*
X274984Y403922D03*
D263*
X351905Y403922D03*
D543*
X91323Y403583D03*
D531*
X186711Y403583D03*
D544*
X192302Y403583D03*
D423*
X201451Y403583D03*
D424*
X211786Y403583D03*
D545*
X275323Y403583D03*
D437*
X351905Y403583D03*
D541*
X91323Y403244D03*
D391*
X186881Y403244D03*
D433*
X192471Y403244D03*
D546*
X201621Y403244D03*
D73*
X211787Y403244D03*
D429*
X270240Y403244D03*
D250*
X330387Y403244D03*
D263*
X351905Y403244D03*
D541*
X91323Y402905D03*
D391*
X186881Y402905D03*
D433*
X192471Y402905D03*
D546*
X201621Y402905D03*
D73*
X211787Y402905D03*
D429*
X270240Y402905D03*
D547*
X330895Y402905D03*
D263*
X351905Y402905D03*
D543*
X91323Y402567D03*
D548*
X187050Y402567D03*
D549*
X192471Y402567D03*
D246*
X201621Y402567D03*
D550*
X211787Y402567D03*
D551*
X270240Y402567D03*
D552*
X346652Y402567D03*
D541*
X91323Y402228D03*
D538*
X187050Y402228D03*
D391*
X192641Y402228D03*
D421*
X201790Y402228D03*
D374*
X211787Y402228D03*
D438*
X270070Y402228D03*
D553*
X346652Y402228D03*
D322*
X91323Y401889D03*
D554*
X187050Y401889D03*
D555*
X192641Y401889D03*
D426*
X201790Y401889D03*
D425*
X211617Y401889D03*
D556*
X270070Y401889D03*
D557*
X346652Y401889D03*
D541*
X91323Y401550D03*
D389*
X187219Y401550D03*
D510*
X192810Y401550D03*
D558*
X201790Y401550D03*
D559*
X269901Y401550D03*
D553*
X346652Y401550D03*
D320*
X91492Y401211D03*
D538*
X187389Y401211D03*
D534*
X192641Y401211D03*
D243*
X201959Y401211D03*
D444*
X269731Y401211D03*
D553*
X346652Y401211D03*
D367*
X91492Y400872D03*
D560*
X187727Y400872D03*
D561*
X192810Y400872D03*
D562*
X202129Y400872D03*
D563*
X269562Y400872D03*
D557*
X346652Y400872D03*
D320*
X91492Y400533D03*
D534*
X188236Y400533D03*
D381*
X202298Y400533D03*
D446*
X269392Y400533D03*
D553*
X346652Y400533D03*
D397*
X91661Y400195D03*
D564*
X188236Y400195D03*
D565*
X202298Y400195D03*
D503*
X269223Y400195D03*
D552*
X346652Y400195D03*
D318*
X91661Y399856D03*
D510*
X188405Y399856D03*
D566*
X202807Y399856D03*
D480*
X268715Y399856D03*
D553*
X346652Y399856D03*
D316*
X91831Y399517D03*
D555*
X188575Y399517D03*
D567*
X259566Y399517D03*
D428*
X351905Y399517D03*
D314*
X92000Y399178D03*
D433*
X188744Y399178D03*
D568*
X259566Y399178D03*
D263*
X351905Y399178D03*
D310*
X92170Y398839D03*
D569*
X188914Y398839D03*
D570*
X259396Y398839D03*
D263*
X351905Y398839D03*
D308*
X92339Y398500D03*
D375*
X189083Y398500D03*
D571*
X259057Y398500D03*
D428*
X351905Y398500D03*
D407*
X92847Y398161D03*
D523*
X189422Y398161D03*
D572*
X258718Y398161D03*
D263*
X351905Y398161D03*
D410*
X103183Y397823D03*
D551*
X270240Y397823D03*
D437*
X351905Y397823D03*
D412*
X103183Y397484D03*
D429*
X270240Y397484D03*
D263*
X351905Y397484D03*
D412*
X103183Y397145D03*
D429*
X270240Y397145D03*
D263*
X351905Y397145D03*
D573*
X103183Y396806D03*
D427*
X270240Y396806D03*
D557*
X346652Y396806D03*
D412*
X103183Y396467D03*
D429*
X270240Y396467D03*
D553*
X346652Y396467D03*
D367*
X91492Y396128D03*
D426*
X201451Y396128D03*
D427*
X270240Y396128D03*
D557*
X346652Y396128D03*
D320*
X91492Y395789D03*
D421*
X201451Y395789D03*
D429*
X270240Y395789D03*
D553*
X346652Y395789D03*
D361*
X91492Y395451D03*
D574*
X201790Y395451D03*
D575*
X266682Y395451D03*
D552*
X346652Y395451D03*
D320*
X91492Y395112D03*
D558*
X201790Y395112D03*
D490*
X266512Y395112D03*
D553*
X346652Y395112D03*
D320*
X91492Y394773D03*
D416*
X201621Y394773D03*
D576*
X266343Y394773D03*
D553*
X346652Y394773D03*
D367*
X91492Y394434D03*
D426*
X201451Y394434D03*
D456*
X266173Y394434D03*
D557*
X346652Y394434D03*
D320*
X91492Y394095D03*
D421*
X201451Y394095D03*
D455*
X266173Y394095D03*
D553*
X346652Y394095D03*
D367*
X91492Y393756D03*
D426*
X201451Y393756D03*
D456*
X266173Y393756D03*
D577*
X330895Y393756D03*
D428*
X351905Y393756D03*
D320*
X91492Y393417D03*
D538*
X187050Y393417D03*
D389*
X192302Y393417D03*
D421*
X201451Y393417D03*
D455*
X266173Y393417D03*
D578*
X330556Y393417D03*
D263*
X351905Y393417D03*
D320*
X91492Y393078D03*
D538*
X187050Y393078D03*
D389*
X192302Y393078D03*
D421*
X201451Y393078D03*
D579*
X271425Y393078D03*
D263*
X351905Y393078D03*
D361*
X91492Y392740D03*
D548*
X187050Y392740D03*
D544*
X192302Y392740D03*
D423*
X201451Y392740D03*
D580*
X271087Y392740D03*
D437*
X351905Y392740D03*
D320*
X91492Y392401D03*
D538*
X187050Y392401D03*
D389*
X192302Y392401D03*
D421*
X201451Y392401D03*
D581*
X270748Y392401D03*
D263*
X351905Y392401D03*
D367*
X91492Y392062D03*
D554*
X187050Y392062D03*
D386*
X192302Y392062D03*
D426*
X201451Y392062D03*
D456*
X273967Y392062D03*
D428*
X351905Y392062D03*
D320*
X91492Y391723D03*
D538*
X187050Y391723D03*
D389*
X192302Y391723D03*
D421*
X201451Y391723D03*
D582*
X273628Y391723D03*
D263*
X351905Y391723D03*
D367*
X91492Y391384D03*
D554*
X187050Y391384D03*
D386*
X192302Y391384D03*
D426*
X201451Y391384D03*
D583*
X273120Y391384D03*
D428*
X351905Y391384D03*
D320*
X91492Y391045D03*
D538*
X187050Y391045D03*
D389*
X192302Y391045D03*
D416*
X201621Y391045D03*
D584*
X272781Y391045D03*
D263*
X351905Y391045D03*
D320*
X91492Y390706D03*
D538*
X187050Y390706D03*
D389*
X192302Y390706D03*
D558*
X201790Y390706D03*
D498*
X272273Y390706D03*
D468*
X351566Y390706D03*
D361*
X91492Y390368D03*
D548*
X187050Y390368D03*
D544*
X192302Y390368D03*
D372*
X201959Y390368D03*
D585*
X271765Y390368D03*
D586*
X351057Y390368D03*
D320*
X91492Y390029D03*
D538*
X187050Y390029D03*
D389*
X192302Y390029D03*
D381*
X202298Y390029D03*
D477*
X271426Y390029D03*
D478*
X350719Y390029D03*
D367*
X91492Y389690D03*
D554*
X187050Y389690D03*
D386*
X192302Y389690D03*
D587*
X260582Y389690D03*
D508*
X350719Y389690D03*
D320*
X91492Y389351D03*
D538*
X187050Y389351D03*
D389*
X192302Y389351D03*
D588*
X260074Y389351D03*
D478*
X350719Y389351D03*
D367*
X91492Y389012D03*
D554*
X187050Y389012D03*
D386*
X192302Y389012D03*
D589*
X259904Y389012D03*
D590*
X331065Y389012D03*
D508*
X350719Y389012D03*
D320*
X91492Y388673D03*
D445*
X189761Y388673D03*
D454*
X259904Y388673D03*
D591*
X330556Y388673D03*
D478*
X350719Y388673D03*
D320*
X91492Y388334D03*
D445*
X189761Y388334D03*
D454*
X259904Y388334D03*
D433*
X330048Y388334D03*
D478*
X350719Y388334D03*
D361*
X91492Y387996D03*
D592*
X189761Y387996D03*
D219*
X204670Y387996D03*
D593*
X269054Y387996D03*
D594*
X329540Y387996D03*
D504*
X350719Y387996D03*
D519*
X104199Y387657D03*
D510*
X211109Y387657D03*
D467*
X269562Y387657D03*
D569*
X329879Y387657D03*
D478*
X350719Y387657D03*
D595*
X103860Y387318D03*
D393*
X210940Y387318D03*
D596*
X269731Y387318D03*
D560*
X330387Y387318D03*
D508*
X350719Y387318D03*
D337*
X103691Y386979D03*
D529*
X210770Y386979D03*
D559*
X269901Y386979D03*
D494*
X330895Y386979D03*
D478*
X350719Y386979D03*
D597*
X103522Y386640D03*
D598*
X210601Y386640D03*
D438*
X270070Y386640D03*
D524*
X331404Y386640D03*
D478*
X350719Y386640D03*
D367*
X91492Y386301D03*
D599*
X201621Y386301D03*
D70*
X210601Y386301D03*
D472*
X270578Y386301D03*
D508*
X350719Y386301D03*
D320*
X91492Y385962D03*
D416*
X201621Y385962D03*
D600*
X210431Y385962D03*
D520*
X271256Y385962D03*
D478*
X350719Y385962D03*
D361*
X91492Y385624D03*
D423*
X201451Y385624D03*
D601*
X210262Y385624D03*
D602*
X213650Y385624D03*
D517*
X271595Y385624D03*
D603*
X350888Y385624D03*
D320*
X91492Y385285D03*
D421*
X201451Y385285D03*
D534*
X209923Y385285D03*
D591*
X213650Y385285D03*
D604*
X272103Y385285D03*
D470*
X351396Y385285D03*
D367*
X91492Y384946D03*
D426*
X201451Y384946D03*
D539*
X209753Y384946D03*
D605*
X213650Y384946D03*
D497*
X272612Y384946D03*
D461*
X351735Y384946D03*
D320*
X91492Y384607D03*
D421*
X201451Y384607D03*
D534*
X209584Y384607D03*
D606*
X213650Y384607D03*
D607*
X272951Y384607D03*
D263*
X351905Y384607D03*
D320*
X91492Y384268D03*
D421*
X201451Y384268D03*
D534*
X209584Y384268D03*
D606*
X213650Y384268D03*
D608*
X273459Y384268D03*
D263*
X351905Y384268D03*
D367*
X91492Y383929D03*
D426*
X201451Y383929D03*
D393*
X209584Y383929D03*
D605*
X213650Y383929D03*
D609*
X273967Y383929D03*
D428*
X351905Y383929D03*
D318*
X91661Y383590D03*
D118*
X197555Y383590D03*
D534*
X209584Y383590D03*
D606*
X213650Y383590D03*
D610*
X274306Y383590D03*
D263*
X351905Y383590D03*
D530*
X91831Y383252D03*
D611*
X197893Y383252D03*
D564*
X209584Y383252D03*
D531*
X213481Y383252D03*
D612*
X274814Y383252D03*
D437*
X351905Y383252D03*
D310*
X92170Y382913D03*
D113*
X198063Y382913D03*
D534*
X209584Y382913D03*
D510*
X213481Y382913D03*
D613*
X275153Y382913D03*
D263*
X351905Y382913D03*
D306*
X92509Y382574D03*
D107*
X198402Y382574D03*
D529*
X209753Y382574D03*
D534*
X213312Y382574D03*
D614*
X275322Y382574D03*
D263*
X351905Y382574D03*
D464*
X92678Y382235D03*
D105*
X198741Y382235D03*
D615*
X275831Y382235D03*
D437*
X351905Y382235D03*
D300*
X93017Y381896D03*
D616*
X199079Y381896D03*
D366*
X292096Y381896D03*
D294*
X93356Y381557D03*
D394*
X199418Y381557D03*
D370*
X292096Y381557D03*
D292*
X93525Y381218D03*
D99*
X199927Y381218D03*
D366*
X292096Y381218D03*
D617*
X93864Y380880D03*
D618*
X200265Y380880D03*
D364*
X292096Y380880D03*
D282*
X94203Y380541D03*
D229*
X200773Y380541D03*
D366*
X292096Y380541D03*
D280*
X94372Y380202D03*
D229*
X201451Y380202D03*
D366*
X292096Y380202D03*
D619*
X94711Y379863D03*
D141*
X205009Y379863D03*
D364*
X292096Y379863D03*
D620*
X94881Y379524D03*
D281*
X281253Y379524D03*
D621*
X95219Y379185D03*
D622*
X281422Y379185D03*
D320*
X91492Y378846D03*
D623*
X281761Y378846D03*
D320*
X91492Y378508D03*
D623*
X281761Y378508D03*
D367*
X91492Y378169D03*
D289*
X281761Y378169D03*
D320*
X91492Y377830D03*
D623*
X281761Y377830D03*
D361*
X91492Y377491D03*
D624*
X199418Y377491D03*
D364*
X292096Y377491D03*
D320*
X91492Y377152D03*
D625*
X199418Y377152D03*
D366*
X292096Y377152D03*
D367*
X91492Y376813D03*
D626*
X199418Y376813D03*
D370*
X292096Y376813D03*
D320*
X91492Y376474D03*
D625*
X199418Y376474D03*
D429*
X270240Y376474D03*
D263*
X351905Y376474D03*
D627*
X101149Y376136D03*
D429*
X270240Y376136D03*
D263*
X351905Y376136D03*
D628*
X101149Y375797D03*
D427*
X270240Y375797D03*
D428*
X351905Y375797D03*
D627*
X101149Y375458D03*
D429*
X270240Y375458D03*
D263*
X351905Y375458D03*
D629*
X161636Y375119D03*
D437*
X351905Y375119D03*
D509*
X161636Y374780D03*
D263*
X351905Y374780D03*
D630*
X95728Y374441D03*
D631*
X258380Y374441D03*
D263*
X351905Y374441D03*
D302*
X92847Y374102D03*
D414*
X189761Y374102D03*
D632*
X258888Y374102D03*
D428*
X351905Y374102D03*
D525*
X92339Y373764D03*
D374*
X190100Y373764D03*
D633*
X259057Y373764D03*
D391*
X327507Y373764D03*
D389*
X332589Y373764D03*
D263*
X351905Y373764D03*
D526*
X92170Y373425D03*
D527*
X190438Y373425D03*
D587*
X259227Y373425D03*
D527*
X327337Y373425D03*
D386*
X332589Y373425D03*
D428*
X351905Y373425D03*
D314*
X92000Y373086D03*
D391*
X190608Y373086D03*
D570*
X259396Y373086D03*
D433*
X327337Y373086D03*
D389*
X332589Y373086D03*
D263*
X351905Y373086D03*
D530*
X91831Y372747D03*
D531*
X190777Y372747D03*
D634*
X259566Y372747D03*
D549*
X327337Y372747D03*
D544*
X332589Y372747D03*
D437*
X351905Y372747D03*
D318*
X91661Y372408D03*
D510*
X190777Y372408D03*
D588*
X259735Y372408D03*
D433*
X327337Y372408D03*
D389*
X332589Y372408D03*
D263*
X351905Y372408D03*
D318*
X91661Y372069D03*
D534*
X190947Y372069D03*
D588*
X259735Y372069D03*
D433*
X327337Y372069D03*
D389*
X332589Y372069D03*
D263*
X351905Y372069D03*
D367*
X91492Y371730D03*
D555*
X191286Y371730D03*
D635*
X259735Y371730D03*
D555*
X327507Y371730D03*
D386*
X332589Y371730D03*
D428*
X351905Y371730D03*
D320*
X91492Y371392D03*
D636*
X186880Y371392D03*
D538*
X191794Y371392D03*
D454*
X259904Y371392D03*
D391*
X327507Y371392D03*
D389*
X332589Y371392D03*
D263*
X351905Y371392D03*
D367*
X91492Y371053D03*
D539*
X186711Y371053D03*
D386*
X191963Y371053D03*
D589*
X259904Y371053D03*
D555*
X327507Y371053D03*
D386*
X332589Y371053D03*
D428*
X351905Y371053D03*
D541*
X91323Y370714D03*
D510*
X186711Y370714D03*
D389*
X192302Y370714D03*
D454*
X259904Y370714D03*
D391*
X327507Y370714D03*
X332590Y370714D03*
D263*
X351905Y370714D03*
D543*
X91323Y370375D03*
D531*
X186711Y370375D03*
D544*
X192302Y370375D03*
D452*
X259904Y370375D03*
D564*
X327507Y370375D03*
D535*
X332590Y370375D03*
D437*
X351905Y370375D03*
D541*
X91323Y370036D03*
D391*
X186881Y370036D03*
D389*
X192302Y370036D03*
D454*
X260243Y370036D03*
D534*
X332590Y370036D03*
D263*
X351905Y370036D03*
D541*
X91323Y369697D03*
D391*
X186881Y369697D03*
D433*
X192471Y369697D03*
D454*
X260243Y369697D03*
D263*
X351905Y369697D03*
D322*
X91323Y369358D03*
D554*
X187050Y369358D03*
D527*
X192471Y369358D03*
D589*
X260243Y369358D03*
D461*
X351735Y369358D03*
D541*
X91323Y369020D03*
D538*
X187050Y369020D03*
D391*
X192641Y369020D03*
D588*
X260413Y369020D03*
D463*
X351735Y369020D03*
D322*
X91323Y368681D03*
D554*
X187050Y368681D03*
D555*
X192641Y368681D03*
D635*
X260413Y368681D03*
D507*
X329709Y368681D03*
D637*
X351566Y368681D03*
D541*
X91323Y368342D03*
D389*
X187219Y368342D03*
D510*
X192810Y368342D03*
D570*
X260412Y368342D03*
D636*
X329878Y368342D03*
D468*
X351566Y368342D03*
D320*
X91492Y368003D03*
D538*
X187389Y368003D03*
D534*
X192641Y368003D03*
D256*
X199757Y368003D03*
D469*
X270917Y368003D03*
D598*
X329879Y368003D03*
D470*
X351396Y368003D03*
D361*
X91492Y367664D03*
D531*
X187727Y367664D03*
D601*
X192641Y367664D03*
D362*
X199757Y367664D03*
D503*
X271256Y367664D03*
D531*
X329709Y367664D03*
D586*
X351057Y367664D03*
D320*
X91492Y367325D03*
D534*
X188236Y367325D03*
D256*
X199757Y367325D03*
D576*
X274137Y367325D03*
D500*
X350888Y367325D03*
D638*
X91661Y366986D03*
D393*
X188236Y366986D03*
D457*
X199587Y366986D03*
D370*
X292096Y366986D03*
D318*
X91661Y366648D03*
D510*
X188405Y366648D03*
D359*
X199587Y366648D03*
D366*
X292096Y366648D03*
D316*
X91831Y366309D03*
D555*
X188575Y366309D03*
D639*
X199418Y366309D03*
D370*
X292096Y366309D03*
D314*
X92000Y365970D03*
D391*
X188575Y365970D03*
D450*
X199418Y365970D03*
D366*
X292096Y365970D03*
D310*
X92170Y365631D03*
D433*
X188744Y365631D03*
D640*
X262107Y365631D03*
D641*
X349363Y365631D03*
D642*
X92339Y365292D03*
D371*
X189083Y365292D03*
D643*
X260751Y365292D03*
D644*
X350210Y365292D03*
D407*
X92847Y364953D03*
D523*
X189422Y364953D03*
D645*
X260074Y364953D03*
D646*
X350549Y364953D03*
D647*
X162652Y364614D03*
D476*
X350888Y364614D03*
D648*
X162483Y364276D03*
D649*
X351057Y364276D03*
D650*
X162313Y363937D03*
D475*
X351227Y363937D03*
D651*
X162144Y363598D03*
D652*
X351396Y363598D03*
D653*
X93356Y363259D03*
D392*
X199588Y363259D03*
D559*
X270579Y363259D03*
D468*
X351566Y363259D03*
D654*
X92847Y362920D03*
D655*
X200096Y362920D03*
D436*
X270409Y362920D03*
D656*
X351735Y362920D03*
D306*
X92509Y362581D03*
D385*
X200265Y362581D03*
D438*
X270409Y362581D03*
D417*
X330048Y362581D03*
D463*
X351735Y362581D03*
D308*
X92339Y362242D03*
D379*
X200604Y362242D03*
D427*
X270240Y362242D03*
D355*
X330048Y362242D03*
D428*
X351905Y362242D03*
D310*
X92170Y361904D03*
D378*
X200774Y361904D03*
D429*
X270240Y361904D03*
D254*
X330048Y361904D03*
D263*
X351905Y361904D03*
D314*
X92000Y361565D03*
D243*
X200943Y361565D03*
D429*
X270240Y361565D03*
D359*
X330048Y361565D03*
D263*
X351905Y361565D03*
D316*
X91831Y361226D03*
D657*
X201621Y361226D03*
D556*
X270070Y361226D03*
D639*
X330217Y361226D03*
D658*
X352074Y361226D03*
D318*
X91661Y360887D03*
D378*
X201452Y360887D03*
D659*
X266343Y360887D03*
D445*
X330048Y360887D03*
D660*
X352074Y360887D03*
D397*
X91661Y360548D03*
D259*
X189761Y360548D03*
D574*
X201451Y360548D03*
D661*
X266173Y360548D03*
D592*
X330048Y360548D03*
D662*
X352074Y360548D03*
D320*
X91492Y360209D03*
D479*
X189591Y360209D03*
D558*
X201451Y360209D03*
D490*
X266173Y360209D03*
D445*
X330048Y360209D03*
D660*
X352074Y360209D03*
D320*
X91492Y359870D03*
D254*
X189760Y359870D03*
D421*
X201451Y359870D03*
D576*
X266004Y359870D03*
D445*
X330048Y359870D03*
D660*
X352074Y359870D03*
D361*
X91492Y359532D03*
D663*
X189761Y359532D03*
D423*
X201451Y359532D03*
D664*
X266004Y359532D03*
D592*
X330048Y359532D03*
D662*
X352074Y359532D03*
D541*
X91323Y359193D03*
D665*
X189761Y359193D03*
D421*
X201451Y359193D03*
D455*
X266173Y359193D03*
D450*
X330217Y359193D03*
D660*
X352074Y359193D03*
D322*
X91323Y358854D03*
D448*
X189761Y358854D03*
D666*
X201621Y358854D03*
D456*
X266173Y358854D03*
D457*
X330048Y358854D03*
D428*
X351905Y358854D03*
D541*
X91323Y358515D03*
D445*
X189761Y358515D03*
D546*
X201621Y358515D03*
D576*
X266343Y358515D03*
D254*
X330048Y358515D03*
D263*
X351905Y358515D03*
D543*
X91323Y358176D03*
D592*
X189761Y358176D03*
D246*
X201621Y358176D03*
D667*
X266512Y358176D03*
D668*
X330217Y358176D03*
D437*
X351905Y358176D03*
D541*
X91323Y357837D03*
D445*
X189761Y357837D03*
D546*
X201621Y357837D03*
D490*
X266851Y357837D03*
D523*
X330048Y357837D03*
D463*
X351735Y357837D03*
D541*
X91323Y357498D03*
D445*
X189761Y357498D03*
D546*
X201621Y357498D03*
D559*
X270579Y357498D03*
D463*
X351735Y357498D03*
D543*
X91323Y357160D03*
D76*
X189591Y357160D03*
D423*
X201451Y357160D03*
D669*
X270579Y357160D03*
D466*
X351566Y357160D03*
D320*
X91492Y356821D03*
D665*
X189761Y356821D03*
D416*
X201621Y356821D03*
D670*
X270748Y356821D03*
D470*
X351396Y356821D03*
D367*
X91492Y356482D03*
D671*
X189760Y356482D03*
D599*
X201621Y356482D03*
D472*
X270917Y356482D03*
D473*
X351227Y356482D03*
D320*
X91492Y356143D03*
D672*
X189761Y356143D03*
D558*
X201790Y356143D03*
D474*
X271087Y356143D03*
D649*
X351057Y356143D03*
D318*
X91661Y355804D03*
D417*
X189761Y355804D03*
D381*
X201959Y355804D03*
D477*
X271426Y355804D03*
D500*
X350888Y355804D03*
D638*
X91661Y355465D03*
D440*
X202468Y355465D03*
D528*
X271595Y355465D03*
D673*
X350549Y355465D03*
D399*
X91831Y355126D03*
D674*
X261429Y355126D03*
D675*
X350041Y355126D03*
D312*
X92000Y354788D03*
D676*
X281253Y354788D03*
D310*
X92170Y354449D03*
D677*
X281083Y354449D03*
D308*
X92339Y354110D03*
D678*
X264987Y354110D03*
D428*
X351905Y354110D03*
D306*
X92509Y353771D03*
D679*
X264479Y353771D03*
D263*
X351905Y353771D03*
D407*
X92847Y353432D03*
D616*
X201451Y353432D03*
D680*
X273967Y353432D03*
D263*
X351905Y353432D03*
D681*
X93186Y353093D03*
D682*
X200774Y353093D03*
D683*
X273798Y353093D03*
D428*
X351905Y353093D03*
D282*
X94203Y352754D03*
D111*
X199418Y352754D03*
D684*
X273797Y352754D03*
D263*
X351905Y352754D03*
D685*
X103691Y352416D03*
D686*
X273459Y352416D03*
D437*
X351905Y352416D03*
D597*
X103522Y352077D03*
D659*
X273120Y352077D03*
D263*
X351905Y352077D03*
D687*
X103352Y351738D03*
D688*
X272950Y351738D03*
D263*
X351905Y351738D03*
D573*
X103183Y351399D03*
D590*
X211787Y351399D03*
D689*
X272442Y351399D03*
D428*
X351905Y351399D03*
D412*
X103183Y351060D03*
D374*
X211787Y351060D03*
D604*
X272103Y351060D03*
D470*
X351396Y351060D03*
D367*
X91492Y350721D03*
D426*
X201451Y350721D03*
D690*
X211787Y350721D03*
D528*
X271595Y350721D03*
D476*
X350888Y350721D03*
D320*
X91492Y350382D03*
D421*
X201451Y350382D03*
D73*
X211787Y350382D03*
D520*
X271256Y350382D03*
D478*
X350719Y350382D03*
D361*
X91492Y350044D03*
D423*
X201451Y350044D03*
D419*
X211787Y350044D03*
D691*
X270748Y350044D03*
D504*
X350719Y350044D03*
D320*
X91492Y349705D03*
D421*
X201451Y349705D03*
D422*
X211786Y349705D03*
D429*
X270240Y349705D03*
D524*
X331404Y349705D03*
D478*
X350719Y349705D03*
D320*
X91492Y349366D03*
D421*
X201451Y349366D03*
D422*
X211786Y349366D03*
D429*
X270240Y349366D03*
D494*
X330895Y349366D03*
D478*
X350719Y349366D03*
D367*
X91492Y349027D03*
D426*
X201451Y349027D03*
D355*
X211786Y349027D03*
D427*
X270240Y349027D03*
D560*
X330387Y349027D03*
D508*
X350719Y349027D03*
D320*
X91492Y348688D03*
D421*
X201451Y348688D03*
D422*
X211786Y348688D03*
D429*
X270240Y348688D03*
D569*
X329879Y348688D03*
D478*
X350719Y348688D03*
D367*
X91492Y348349D03*
D426*
X201451Y348349D03*
D692*
X211787Y348349D03*
D556*
X270070Y348349D03*
D693*
X329540Y348349D03*
D508*
X350719Y348349D03*
D320*
X91492Y348010D03*
D374*
X187389Y348010D03*
D694*
X199418Y348010D03*
D73*
X211787Y348010D03*
D438*
X270070Y348010D03*
D433*
X330048Y348010D03*
D478*
X350719Y348010D03*
D361*
X91492Y347672D03*
D371*
X187389Y347672D03*
D695*
X199588Y347672D03*
D261*
X211617Y347672D03*
D669*
X269901Y347672D03*
D696*
X330556Y347672D03*
D504*
X350719Y347672D03*
D320*
X91492Y347333D03*
D374*
X187389Y347333D03*
D83*
X197215Y347333D03*
D559*
X269901Y347333D03*
D494*
X330895Y347333D03*
D478*
X350719Y347333D03*
D320*
X91492Y346994D03*
D374*
X187389Y346994D03*
D83*
X197215Y346994D03*
D438*
X270409Y346994D03*
D478*
X350719Y346994D03*
D367*
X91492Y346655D03*
D375*
X187389Y346655D03*
D697*
X197215Y346655D03*
D472*
X270917Y346655D03*
D508*
X350719Y346655D03*
D320*
X91492Y346316D03*
D374*
X187389Y346316D03*
D83*
X197215Y346316D03*
D477*
X271426Y346316D03*
D478*
X350719Y346316D03*
D367*
X91492Y345977D03*
D375*
X187389Y345977D03*
D698*
X197554Y345977D03*
D699*
X271765Y345977D03*
D476*
X350888Y345977D03*
D320*
X91492Y345638D03*
D374*
X187389Y345638D03*
D700*
X197893Y345638D03*
D498*
X272273Y345638D03*
D468*
X351566Y345638D03*
D320*
X91492Y345299D03*
D538*
X187389Y345299D03*
D578*
X198062Y345299D03*
D514*
X272612Y345299D03*
D263*
X351905Y345299D03*
D361*
X91492Y344961D03*
D548*
X187389Y344961D03*
D701*
X261768Y344961D03*
D437*
X351905Y344961D03*
D320*
X91492Y344622D03*
D510*
X187388Y344622D03*
D702*
X262615Y344622D03*
D263*
X351905Y344622D03*
D367*
X91492Y344283D03*
D703*
X263463Y344283D03*
D428*
X351905Y344283D03*
D318*
X91661Y343944D03*
D704*
X264140Y343944D03*
D263*
X351905Y343944D03*
D638*
X91661Y343605D03*
D705*
X190777Y343605D03*
D706*
X264648Y343605D03*
D428*
X351905Y343605D03*
D399*
X91831Y343266D03*
D600*
X191116Y343266D03*
D235*
X203145Y343266D03*
D707*
X273797Y343266D03*
D263*
X351905Y343266D03*
D399*
X91831Y342927D03*
D534*
X191286Y342927D03*
D385*
X202637Y342927D03*
D708*
X274645Y342927D03*
D263*
X351905Y342927D03*
D312*
X92000Y342589D03*
D549*
X191455Y342589D03*
D86*
X202298Y342589D03*
D709*
X275492Y342589D03*
D437*
X351905Y342589D03*
D310*
X92170Y342250D03*
D710*
X191624Y342250D03*
D378*
X202129Y342250D03*
D348*
X291418Y342250D03*
D405*
X92509Y341911D03*
D711*
X191624Y341911D03*
D376*
X201959Y341911D03*
D350*
X291588Y341911D03*
D296*
X93186Y341572D03*
D256*
X191286Y341572D03*
D558*
X201790Y341572D03*
D353*
X291757Y341572D03*
D712*
X97591Y341233D03*
D416*
X201621Y341233D03*
D438*
X270070Y341233D03*
D263*
X351905Y341233D03*
D713*
X103352Y340894D03*
D527*
X211786Y340894D03*
D556*
X270070Y340894D03*
D428*
X351905Y340894D03*
D412*
X103183Y340555D03*
D523*
X211787Y340555D03*
D429*
X270240Y340555D03*
D263*
X351905Y340555D03*
D410*
X103183Y340217D03*
D714*
X211617Y340217D03*
D551*
X270240Y340217D03*
D437*
X351905Y340217D03*
D412*
X103183Y339878D03*
D73*
X211787Y339878D03*
D429*
X270240Y339878D03*
D263*
X351905Y339878D03*
D573*
X103183Y339539D03*
D355*
X211786Y339539D03*
D427*
X270240Y339539D03*
D428*
X351905Y339539D03*
D412*
X103183Y339200D03*
D422*
X211786Y339200D03*
D429*
X270240Y339200D03*
D263*
X351905Y339200D03*
D412*
X103183Y338861D03*
D422*
X211786Y338861D03*
D429*
X270240Y338861D03*
D263*
X351905Y338861D03*
D573*
X103183Y338522D03*
D355*
X211786Y338522D03*
D427*
X270240Y338522D03*
D375*
X327676Y338522D03*
D715*
X349702Y338522D03*
D412*
X103183Y338183D03*
D422*
X211786Y338183D03*
D429*
X270240Y338183D03*
D374*
X327676Y338183D03*
D716*
X349702Y338183D03*
D410*
X103183Y337845D03*
D419*
X211787Y337845D03*
D551*
X270240Y337845D03*
D371*
X327676Y337845D03*
D717*
X349702Y337845D03*
D412*
X103183Y337506D03*
D417*
X211787Y337506D03*
D429*
X270240Y337506D03*
D374*
X327676Y337506D03*
D716*
X349702Y337506D03*
D412*
X103183Y337167D03*
D523*
X211787Y337167D03*
D429*
X270240Y337167D03*
D374*
X327676Y337167D03*
D716*
X349702Y337167D03*
D718*
X103352Y336828D03*
D549*
X211786Y336828D03*
D436*
X270070Y336828D03*
D371*
X327676Y336828D03*
D717*
X349702Y336828D03*
D687*
X103352Y336489D03*
D438*
X270070Y336489D03*
D389*
X327845Y336489D03*
D719*
X349871Y336489D03*
D720*
X103522Y336150D03*
D441*
X269901Y336150D03*
D386*
X327845Y336150D03*
D721*
X350210Y336150D03*
D337*
X103691Y335811D03*
D444*
X269731Y335811D03*
D389*
X327845Y335811D03*
D646*
X350549Y335811D03*
D722*
X103860Y335473D03*
D723*
X269562Y335473D03*
D549*
X327676Y335473D03*
D603*
X350888Y335473D03*
D724*
X104030Y335134D03*
D446*
X269392Y335134D03*
D391*
X327846Y335134D03*
D475*
X351227Y335134D03*
D725*
X104369Y334795D03*
D726*
X269223Y334795D03*
D494*
X327845Y334795D03*
D468*
X351566Y334795D03*
D727*
X104877Y334456D03*
D728*
X268715Y334456D03*
D437*
X351905Y334456D03*
D729*
X161805Y334117D03*
D263*
X351905Y334117D03*
D730*
X161975Y333778D03*
D561*
X331403Y333778D03*
D428*
X351905Y333778D03*
D731*
X161975Y333439D03*
D534*
X331573Y333439D03*
D263*
X351905Y333439D03*
D505*
X162144Y333101D03*
D391*
X331912Y333101D03*
D263*
X351905Y333101D03*
D732*
X104708Y332762D03*
D733*
X269392Y332762D03*
D734*
X332081Y332762D03*
D428*
X351905Y332762D03*
D519*
X104199Y332423D03*
D498*
X270240Y332423D03*
D417*
X332081Y332423D03*
D263*
X351905Y332423D03*
D735*
X104030Y332084D03*
D736*
X270748Y332084D03*
D737*
X331912Y332084D03*
D437*
X351905Y332084D03*
D738*
X103860Y331745D03*
D739*
X275492Y331745D03*
D263*
X351905Y331745D03*
D740*
X103691Y331406D03*
D350*
X291588Y331406D03*
D597*
X103522Y331067D03*
D353*
X291757Y331067D03*
D687*
X103352Y330729D03*
D358*
X291927Y330729D03*
D713*
X103352Y330390D03*
D375*
X211787Y330390D03*
D356*
X291927Y330390D03*
D412*
X103183Y330051D03*
D417*
X211787Y330051D03*
D429*
X270240Y330051D03*
D263*
X351905Y330051D03*
D410*
X103183Y329712D03*
D419*
X211787Y329712D03*
D551*
X270240Y329712D03*
D437*
X351905Y329712D03*
D412*
X103183Y329373D03*
D73*
X211787Y329373D03*
D429*
X270240Y329373D03*
D263*
X351905Y329373D03*
D573*
X103183Y329034D03*
D355*
X211786Y329034D03*
D427*
X270240Y329034D03*
D428*
X351905Y329034D03*
D412*
X103183Y328695D03*
D422*
X211786Y328695D03*
D429*
X270240Y328695D03*
D263*
X351905Y328695D03*
D412*
X103183Y328357D03*
D422*
X211786Y328357D03*
D429*
X270240Y328357D03*
D263*
X351905Y328357D03*
D573*
X103183Y328018D03*
D355*
X211786Y328018D03*
D427*
X270240Y328018D03*
D428*
X351905Y328018D03*
D412*
X103183Y327679D03*
D73*
X211787Y327679D03*
D429*
X270240Y327679D03*
D263*
X351905Y327679D03*
D410*
X103183Y327340D03*
D419*
X211787Y327340D03*
D551*
X270240Y327340D03*
D76*
X330217Y327340D03*
D437*
X351905Y327340D03*
D412*
X103183Y327001D03*
D417*
X211787Y327001D03*
D429*
X270240Y327001D03*
D445*
X330048Y327001D03*
D263*
X351905Y327001D03*
D687*
X103352Y326662D03*
D523*
X211787Y326662D03*
D438*
X270070Y326662D03*
D445*
X330048Y326662D03*
D263*
X351905Y326662D03*
D713*
X103352Y326323D03*
D560*
X211786Y326323D03*
D556*
X270070Y326323D03*
D448*
X330048Y326323D03*
D428*
X351905Y326323D03*
D597*
X103522Y325985D03*
D559*
X269901Y325985D03*
D450*
X330217Y325985D03*
D263*
X351905Y325985D03*
D720*
X103522Y325646D03*
D441*
X269901Y325646D03*
D639*
X330217Y325646D03*
D428*
X351905Y325646D03*
D337*
X103691Y325307D03*
D444*
X269731Y325307D03*
D359*
X330048Y325307D03*
D263*
X351905Y325307D03*
D722*
X103860Y324968D03*
D723*
X269562Y324968D03*
D741*
X330048Y324968D03*
D437*
X351905Y324968D03*
D519*
X104199Y324629D03*
D520*
X269223Y324629D03*
D256*
X330218Y324629D03*
D263*
X351905Y324629D03*
D742*
X104538Y324290D03*
D480*
X269054Y324290D03*
D254*
X330048Y324290D03*
D463*
X351735Y324290D03*
D743*
X105385Y323951D03*
D744*
X268376Y323951D03*
D355*
X330048Y323951D03*
D461*
X351735Y323951D03*
D731*
X161975Y323613D03*
D417*
X330048Y323613D03*
D463*
X351735Y323613D03*
D730*
X161975Y323274D03*
D527*
X330048Y323274D03*
D637*
X351566Y323274D03*
D505*
X162144Y322935D03*
D468*
X351566Y322935D03*
D505*
X162144Y322596D03*
D470*
X351396Y322596D03*
D745*
X162313Y322257D03*
D746*
X351227Y322257D03*
D412*
X103183Y321918D03*
D474*
X271087Y321918D03*
D649*
X351057Y321918D03*
D573*
X103183Y321579D03*
D447*
X271256Y321579D03*
D476*
X350888Y321579D03*
D412*
X103183Y321241D03*
D726*
X271595Y321241D03*
D646*
X350549Y321241D03*
D573*
X103183Y320902D03*
D747*
X271934Y320902D03*
D721*
X350210Y320902D03*
D412*
X103183Y320563D03*
D748*
X272442Y320563D03*
D716*
X349702Y320563D03*
D412*
X103183Y320224D03*
D366*
X292096Y320224D03*
D685*
X103691Y319885D03*
D749*
X288708Y319885D03*
D687*
X103352Y319546D03*
D750*
X288538Y319546D03*
D713*
X103352Y319207D03*
D751*
X288369Y319207D03*
D412*
X103183Y318869D03*
D752*
X288199Y318869D03*
D412*
X103183Y318530D03*
D752*
X288199Y318530D03*
D573*
X103183Y318191D03*
D753*
X288199Y318191D03*
D412*
X103183Y317852D03*
D752*
X288199Y317852D03*
D410*
X103183Y317513D03*
D754*
X288199Y317513D03*
D412*
X103183Y317174D03*
D752*
X288199Y317174D03*
D265*
X183492Y316835D03*
D266*
X183492Y316497D03*
X183492Y316158D03*
D265*
X183492Y315819D03*
D266*
X183492Y315480D03*
D267*
X183492Y315141D03*
D266*
X183492Y314802D03*
X183492Y314463D03*
D267*
X183492Y314125D03*
D266*
X183492Y313786D03*
D265*
X183492Y313447D03*
D266*
X183492Y313108D03*
D267*
X183492Y312769D03*
D266*
X183492Y312430D03*
D755*
X107927Y312091D03*
D366*
X292096Y312091D03*
D756*
X107418Y311753D03*
D757*
X268715Y311753D03*
D758*
X353599Y311753D03*
D759*
X107080Y311414D03*
D760*
X268376Y311414D03*
D252*
X353768Y311414D03*
D761*
X106571Y311075D03*
D762*
X268376Y311075D03*
D763*
X353938Y311075D03*
D764*
X106063Y310736D03*
D760*
X268376Y310736D03*
D765*
X353938Y310736D03*
D766*
X105724Y310397D03*
D760*
X268376Y310397D03*
D765*
X353938Y310397D03*
D767*
X105216Y310058D03*
D762*
X268376Y310058D03*
D763*
X353938Y310058D03*
D768*
X104708Y309719D03*
D769*
X268376Y309719D03*
D252*
X353768Y309719D03*
D770*
X104369Y309381D03*
D771*
X268206Y309381D03*
D758*
X353599Y309381D03*
D738*
X103860Y309042D03*
D772*
X267868Y309042D03*
D773*
X353429Y309042D03*
D713*
X103352Y308703D03*
D441*
X267529Y308703D03*
D774*
X353260Y308703D03*
D775*
X103013Y308364D03*
D444*
X267698Y308364D03*
D776*
X353091Y308364D03*
D777*
X102505Y308025D03*
D467*
X267868Y308025D03*
D778*
X352921Y308025D03*
D349*
X101997Y307686D03*
D425*
X211278Y307686D03*
D779*
X268037Y307686D03*
D780*
X352752Y307686D03*
D357*
X101658Y307347D03*
D529*
X210770Y307347D03*
D474*
X268037Y307347D03*
D781*
X352752Y307347D03*
D501*
X101488Y307009D03*
D535*
X210262Y307009D03*
D503*
X268206Y307009D03*
D782*
X352582Y307009D03*
D499*
X101488Y306670D03*
D382*
X209753Y306670D03*
D477*
X268376Y306670D03*
D783*
X352413Y306670D03*
D491*
X101488Y306331D03*
D431*
X209245Y306331D03*
D528*
X268545Y306331D03*
D784*
X352243Y306331D03*
D499*
X101488Y305992D03*
D523*
X209415Y305992D03*
D480*
X268715Y305992D03*
D660*
X352074Y305992D03*
D499*
X101488Y305653D03*
D569*
X209923Y305653D03*
D449*
X268884Y305653D03*
D263*
X351905Y305653D03*
D491*
X101488Y305314D03*
D560*
X210431Y305314D03*
D785*
X269054Y305314D03*
D461*
X351735Y305314D03*
D351*
X101827Y304975D03*
D494*
X210939Y304975D03*
D786*
X269054Y304975D03*
D463*
X351735Y304975D03*
D787*
X102166Y304637D03*
D788*
X211448Y304637D03*
D789*
X269223Y304637D03*
D466*
X351566Y304637D03*
D341*
X102674Y304298D03*
D748*
X269392Y304298D03*
D470*
X351396Y304298D03*
D412*
X103183Y303959D03*
D514*
X269562Y303959D03*
D475*
X351227Y303959D03*
D720*
X103522Y303620D03*
D497*
X269901Y303620D03*
D790*
X351057Y303620D03*
D724*
X104030Y303281D03*
D791*
X270578Y303281D03*
D500*
X350888Y303281D03*
D792*
X104538Y302942D03*
D793*
X271256Y302942D03*
D508*
X350719Y302942D03*
D794*
X104877Y302603D03*
D480*
X271765Y302603D03*
D646*
X350549Y302603D03*
D795*
X105385Y302265D03*
D585*
X271765Y302265D03*
D796*
X350549Y302265D03*
D797*
X105894Y301926D03*
D798*
X271934Y301926D03*
D481*
X350380Y301926D03*
D799*
X106232Y301587D03*
D604*
X272103Y301587D03*
D800*
X350210Y301587D03*
D801*
X106741Y301248D03*
D802*
X272273Y301248D03*
D803*
X350041Y301248D03*
D759*
X107080Y300909D03*
D748*
X272442Y300909D03*
D719*
X349871Y300909D03*
D804*
X107588Y300570D03*
D497*
X272612Y300570D03*
D715*
X349702Y300570D03*
D805*
X164177Y300231D03*
D806*
X349533Y300231D03*
D807*
X164347Y299892D03*
D641*
X349363Y299892D03*
D808*
X164516Y299554D03*
D809*
X349194Y299554D03*
D266*
X183492Y299215D03*
D354*
X101658Y298876D03*
D810*
X206026Y298876D03*
D370*
X292096Y298876D03*
D499*
X101488Y298537D03*
D494*
X206195Y298537D03*
D366*
X292096Y298537D03*
D496*
X101319Y298198D03*
D68*
X206195Y298198D03*
D370*
X292096Y298198D03*
D493*
X101319Y297859D03*
D494*
X206195Y297859D03*
D366*
X292096Y297859D03*
D493*
X101319Y297520D03*
D494*
X206195Y297520D03*
D366*
X292096Y297520D03*
D501*
X101488Y297182D03*
D602*
X206195Y297182D03*
D364*
X292096Y297182D03*
D499*
X101488Y296843D03*
D489*
X206026Y296843D03*
D366*
X292096Y296843D03*
D265*
X183492Y296504D03*
D266*
X183492Y296165D03*
X183492Y295826D03*
D265*
X183492Y295487D03*
D266*
X183492Y295148D03*
D267*
X183492Y294810D03*
D266*
X183492Y294471D03*
D573*
X103183Y294132D03*
D370*
X292096Y294132D03*
D412*
X103183Y293793D03*
D366*
X292096Y293793D03*
D412*
X103183Y293454D03*
D366*
X292096Y293454D03*
D573*
X103183Y293115D03*
D370*
X292096Y293115D03*
D412*
X103183Y292776D03*
D366*
X292096Y292776D03*
D410*
X103183Y292438D03*
D364*
X292096Y292438D03*
D337*
X103691Y292099D03*
D811*
X288708Y292099D03*
D687*
X103352Y291760D03*
D750*
X288538Y291760D03*
D718*
X103352Y291421D03*
D812*
X288369Y291421D03*
D412*
X103183Y291082D03*
D752*
X288199Y291082D03*
D573*
X103183Y290743D03*
D753*
X288199Y290743D03*
D412*
X103183Y290404D03*
D752*
X288199Y290404D03*
D410*
X103183Y290066D03*
D754*
X288199Y290066D03*
D412*
X103183Y289727D03*
D752*
X288199Y289727D03*
D412*
X103183Y289388D03*
D752*
X288199Y289388D03*
D267*
X183492Y289049D03*
D266*
X183492Y288710D03*
D265*
X183492Y288371D03*
D266*
X183492Y288032D03*
D267*
X183492Y287694D03*
D266*
X183492Y287355D03*
X183492Y287016D03*
D267*
X183492Y286677D03*
D266*
X183492Y286338D03*
D265*
X183492Y285999D03*
D266*
X183492Y285660D03*
X183492Y285322D03*
D265*
X183492Y284983D03*
D266*
X183492Y284644D03*
D267*
X183492Y284305D03*
D266*
X183492Y283966D03*
D813*
X104030Y283627D03*
D814*
X289724Y283627D03*
D412*
X103183Y283288D03*
D815*
X290402Y283288D03*
D816*
X102844Y282950D03*
D817*
X290741Y282950D03*
D818*
X102505Y282611D03*
D819*
X291080Y282611D03*
D345*
X102335Y282272D03*
D346*
X291249Y282272D03*
D787*
X102166Y281933D03*
D820*
X291418Y281933D03*
D821*
X101997Y281594D03*
D822*
X291588Y281594D03*
D351*
X101827Y281255D03*
D433*
X210092Y281255D03*
D353*
X291757Y281255D03*
D823*
X101827Y280916D03*
D824*
X210092Y280916D03*
D415*
X291757Y280916D03*
D357*
X101658Y280578D03*
D254*
X210092Y280578D03*
D358*
X291927Y280578D03*
D354*
X101658Y280239D03*
D457*
X210092Y280239D03*
D356*
X291927Y280239D03*
D499*
X101488Y279900D03*
D825*
X210092Y279900D03*
D366*
X292096Y279900D03*
D501*
X101488Y279561D03*
D373*
X210092Y279561D03*
D364*
X292096Y279561D03*
D499*
X101488Y279222D03*
D365*
X210092Y279222D03*
D366*
X292096Y279222D03*
D499*
X101488Y278883D03*
D365*
X210092Y278883D03*
D366*
X292096Y278883D03*
D491*
X101488Y278544D03*
D369*
X210092Y278544D03*
D370*
X292096Y278544D03*
D499*
X101488Y278206D03*
D578*
X210261Y278206D03*
D366*
X292096Y278206D03*
D491*
X101488Y277867D03*
D369*
X210092Y277867D03*
D370*
X292096Y277867D03*
D499*
X101488Y277528D03*
D365*
X210092Y277528D03*
D366*
X292096Y277528D03*
D499*
X101488Y277189D03*
D365*
X210092Y277189D03*
D366*
X292096Y277189D03*
D501*
X101488Y276850D03*
D826*
X210262Y276850D03*
D827*
X292266Y276850D03*
D499*
X101488Y276511D03*
D825*
X210092Y276511D03*
D828*
X292266Y276511D03*
D354*
X101658Y276172D03*
D457*
X210092Y276172D03*
D829*
X292435Y276172D03*
D357*
X101658Y275834D03*
D422*
X210092Y275834D03*
D830*
X292604Y275834D03*
D823*
X101827Y275495D03*
D831*
X210092Y275495D03*
D832*
X292774Y275495D03*
D821*
X101997Y275156D03*
D833*
X292943Y275156D03*
D821*
X101997Y274817D03*
D524*
X215853Y274817D03*
D833*
X292943Y274817D03*
D787*
X102166Y274478D03*
D834*
X215853Y274478D03*
D835*
X293113Y274478D03*
D345*
X102335Y274139D03*
D494*
X215683Y274139D03*
D836*
X293113Y274139D03*
D837*
X102674Y273800D03*
D560*
X215514Y273800D03*
D838*
X292943Y273800D03*
D775*
X103013Y273462D03*
D569*
X215345Y273462D03*
D839*
X292774Y273462D03*
D597*
X103522Y273123D03*
D523*
X215175Y273123D03*
D830*
X292604Y273123D03*
D265*
X183492Y272784D03*
D266*
X183492Y272445D03*
D267*
X183492Y272106D03*
D266*
X183492Y271767D03*
D265*
X183492Y271428D03*
D266*
X183492Y271090D03*
D412*
X103183Y270751D03*
D390*
X291080Y270751D03*
D573*
X103183Y270412D03*
D840*
X291418Y270412D03*
D412*
X103183Y270073D03*
D353*
X291757Y270073D03*
D410*
X103183Y269734D03*
D420*
X291927Y269734D03*
D412*
X103183Y269395D03*
D358*
X291927Y269395D03*
D573*
X103183Y269056D03*
D370*
X292096Y269056D03*
D412*
X103183Y268718D03*
D366*
X292096Y268718D03*
D841*
X106910Y268379D03*
D366*
X292096Y268379D03*
D842*
X107080Y268040D03*
D370*
X292096Y268040D03*
D843*
X107249Y267701D03*
D366*
X292096Y267701D03*
D844*
X107249Y267362D03*
D364*
X292096Y267362D03*
D843*
X107249Y267023D03*
D366*
X292096Y267023D03*
D843*
X107249Y266684D03*
D366*
X292096Y266684D03*
D845*
X107080Y266346D03*
D364*
X292096Y266346D03*
D759*
X107080Y266007D03*
D358*
X291927Y266007D03*
D842*
X107080Y265668D03*
D356*
X291927Y265668D03*
D841*
X106910Y265329D03*
D353*
X291757Y265329D03*
D410*
X103183Y264990D03*
D420*
X291927Y264990D03*
D412*
X103183Y264651D03*
D366*
X292096Y264651D03*
D412*
X103183Y264312D03*
D366*
X292096Y264312D03*
D410*
X103183Y263974D03*
D364*
X292096Y263974D03*
D412*
X103183Y263635D03*
D366*
X292096Y263635D03*
D573*
X103183Y263296D03*
D370*
X292096Y263296D03*
D412*
X103183Y262957D03*
D366*
X292096Y262957D03*
D266*
X183492Y262618D03*
D265*
X183492Y262279D03*
D266*
X183492Y261940D03*
D267*
X183492Y261602D03*
D266*
X183492Y261263D03*
D846*
X106232Y260924D03*
D819*
X291080Y260924D03*
D724*
X104030Y260585D03*
D510*
X211109Y260585D03*
D348*
X291418Y260585D03*
D738*
X103860Y260246D03*
D534*
X210940Y260246D03*
D822*
X291588Y260246D03*
D740*
X103691Y259907D03*
D539*
X210770Y259907D03*
D415*
X291757Y259907D03*
D597*
X103522Y259568D03*
D598*
X210601Y259568D03*
D358*
X291927Y259568D03*
D718*
X103352Y259230D03*
D601*
X210601Y259230D03*
D420*
X291927Y259230D03*
D687*
X103352Y258891D03*
D600*
X210431Y258891D03*
D847*
X269393Y258891D03*
D153*
X345297Y258891D03*
D412*
X103183Y258552D03*
D598*
X210262Y258552D03*
D494*
X213650Y258552D03*
D848*
X268545Y258552D03*
D849*
X346144Y258552D03*
D573*
X103183Y258213D03*
D393*
X209923Y258213D03*
D850*
X213650Y258213D03*
D851*
X268037Y258213D03*
D557*
X346652Y258213D03*
D412*
X103183Y257874D03*
D534*
X209584Y257874D03*
D606*
X213650Y257874D03*
D852*
X267698Y257874D03*
D853*
X346991Y257874D03*
D573*
X103183Y257535D03*
D393*
X209584Y257535D03*
D605*
X213650Y257535D03*
D854*
X267359Y257535D03*
D855*
X347330Y257535D03*
D412*
X103183Y257196D03*
D534*
X209584Y257196D03*
D606*
X213650Y257196D03*
D856*
X267190Y257196D03*
D857*
X347499Y257196D03*
D858*
X103013Y256858D03*
D564*
X209584Y256858D03*
D859*
X213650Y256858D03*
D860*
X267021Y256858D03*
D861*
X347669Y256858D03*
D412*
X103183Y256519D03*
D534*
X209584Y256519D03*
D510*
X213481Y256519D03*
D862*
X266851Y256519D03*
D863*
X347838Y256519D03*
D412*
X103183Y256180D03*
D534*
X209584Y256180D03*
D510*
X213481Y256180D03*
D862*
X266512Y256180D03*
D864*
X348008Y256180D03*
D573*
X103183Y255841D03*
D539*
X209753Y255841D03*
D393*
X213312Y255841D03*
D865*
X266343Y255841D03*
D866*
X348177Y255841D03*
D412*
X103183Y255502D03*
D598*
X209923Y255502D03*
D534*
X213312Y255502D03*
D867*
X266004Y255502D03*
D868*
X348347Y255502D03*
D573*
X103183Y255163D03*
D865*
X266004Y255163D03*
D869*
X348516Y255163D03*
D687*
X103352Y254824D03*
D870*
X266173Y254824D03*
D871*
X348516Y254824D03*
D687*
X103352Y254485D03*
D872*
X266004Y254485D03*
D873*
X348685Y254485D03*
D874*
X103522Y254147D03*
D875*
X266004Y254147D03*
D876*
X348685Y254147D03*
D337*
X103691Y253808D03*
D872*
X266004Y253808D03*
D877*
X348855Y253808D03*
D595*
X103860Y253469D03*
D878*
X265835Y253469D03*
D879*
X348855Y253469D03*
D519*
X104199Y253130D03*
D880*
X265835Y253130D03*
D877*
X348855Y253130D03*
D881*
X107757Y252791D03*
D878*
X265835Y252791D03*
D882*
X349024Y252791D03*
D883*
X157061Y252452D03*
D884*
X349024Y252452D03*
D883*
X157061Y252113D03*
D884*
X349024Y252113D03*
D885*
X157061Y251775D03*
D886*
X349024Y251775D03*
D883*
X157061Y251436D03*
D884*
X349024Y251436D03*
D887*
X157061Y251097D03*
D882*
X349024Y251097D03*
D883*
X157061Y250758D03*
D884*
X349024Y250758D03*
D627*
X101149Y250419D03*
D888*
X265665Y250419D03*
D884*
X349024Y250419D03*
D628*
X101149Y250080D03*
D889*
X265665Y250080D03*
D882*
X349024Y250080D03*
D627*
X101149Y249741D03*
D888*
X265665Y249741D03*
D884*
X349024Y249741D03*
D890*
X101149Y249403D03*
D891*
X265665Y249403D03*
D886*
X349024Y249403D03*
D627*
X101149Y249064D03*
D880*
X265835Y249064D03*
D884*
X349024Y249064D03*
D628*
X101149Y248725D03*
D878*
X265835Y248725D03*
D879*
X348855Y248725D03*
D892*
X157231Y248386D03*
D877*
X348855Y248386D03*
D11*
X157400Y248047D03*
D877*
X348855Y248047D03*
D893*
X157400Y247708D03*
D894*
X348685Y247708D03*
D11*
X157400Y247369D03*
D873*
X348685Y247369D03*
D895*
X157569Y247031D03*
D896*
X348516Y247031D03*
D897*
X157739Y246692D03*
D871*
X348516Y246692D03*
D898*
X157739Y246353D03*
D899*
X348347Y246353D03*
D357*
X101658Y246014D03*
D489*
X206026Y246014D03*
D867*
X266343Y246014D03*
D900*
X348177Y246014D03*
D499*
X101488Y245675D03*
D494*
X206195Y245675D03*
D867*
X266682Y245675D03*
D864*
X348008Y245675D03*
D496*
X101319Y245336D03*
D68*
X206195Y245336D03*
D901*
X266851Y245336D03*
D902*
X348008Y245336D03*
D493*
X101319Y244997D03*
D494*
X206195Y244997D03*
D903*
X267021Y244997D03*
D863*
X347838Y244997D03*
D904*
X101319Y244659D03*
D602*
X206195Y244659D03*
D905*
X267190Y244659D03*
D906*
X347499Y244659D03*
D499*
X101488Y244320D03*
D494*
X206195Y244320D03*
D907*
X267359Y244320D03*
D908*
X347330Y244320D03*
D499*
X101488Y243981D03*
D489*
X206026Y243981D03*
D852*
X267698Y243981D03*
D853*
X346991Y243981D03*
D909*
X101827Y243642D03*
D661*
X262107Y243642D03*
D910*
X346822Y243642D03*
D911*
X159772Y243303D03*
D912*
X346313Y243303D03*
D913*
X160450Y242964D03*
D144*
X345636Y242964D03*
D266*
X183492Y242625D03*
D410*
X103183Y242287D03*
D914*
X288030Y242287D03*
D412*
X103183Y241948D03*
D915*
X288030Y241948D03*
D412*
X103183Y241609D03*
D915*
X288030Y241609D03*
D410*
X103183Y241270D03*
D914*
X288030Y241270D03*
D347*
X102166Y240931D03*
D390*
X291080Y240931D03*
D349*
X101997Y240592D03*
D350*
X291588Y240592D03*
D821*
X101997Y240253D03*
D353*
X291757Y240253D03*
D821*
X101997Y239915D03*
D358*
X291927Y239915D03*
D349*
X101997Y239576D03*
D370*
X292096Y239576D03*
D821*
X101997Y239237D03*
D366*
X292096Y239237D03*
D916*
X101997Y238898D03*
D364*
X292096Y238898D03*
D412*
X103183Y238559D03*
D479*
X211617Y238559D03*
D366*
X292096Y238559D03*
D573*
X103183Y238220D03*
D917*
X211617Y238220D03*
D370*
X292096Y238220D03*
D412*
X103183Y237881D03*
D422*
X211786Y237881D03*
D366*
X292096Y237881D03*
D412*
X103183Y237543D03*
D422*
X211786Y237543D03*
D366*
X292096Y237543D03*
D573*
X103183Y237204D03*
D355*
X211786Y237204D03*
D370*
X292096Y237204D03*
D266*
X183492Y236865D03*
D267*
X183492Y236526D03*
D412*
X103183Y236187D03*
D918*
X287691Y236187D03*
D412*
X103183Y235848D03*
D915*
X288030Y235848D03*
D573*
X103183Y235509D03*
D919*
X214159Y235509D03*
D920*
X293960Y235509D03*
D412*
X103183Y235171D03*
D360*
X214667Y235171D03*
D409*
X293960Y235171D03*
D573*
X103183Y234832D03*
D671*
X215175Y234832D03*
D920*
X293960Y234832D03*
D412*
X103183Y234493D03*
D73*
X215514Y234493D03*
D409*
X293960Y234493D03*
D410*
X103183Y234154D03*
D550*
X215853Y234154D03*
D411*
X293960Y234154D03*
D597*
X103522Y233815D03*
D374*
X216192Y233815D03*
D409*
X293960Y233815D03*
D724*
X104030Y233476D03*
D510*
X216530Y233476D03*
D409*
X293960Y233476D03*
D792*
X104538Y233137D03*
D507*
X216531Y233137D03*
D921*
X293790Y233137D03*
D922*
X105046Y232799D03*
D923*
X293790Y232799D03*
D924*
X105724Y232460D03*
D925*
X293621Y232460D03*
D799*
X106232Y232121D03*
D926*
X293452Y232121D03*
D764*
X106063Y231782D03*
D836*
X293113Y231782D03*
D795*
X105385Y231443D03*
D927*
X292774Y231443D03*
D794*
X104877Y231104D03*
D828*
X292266Y231104D03*
D928*
X104369Y230765D03*
D415*
X291757Y230765D03*
D337*
X103691Y230427D03*
D346*
X291249Y230427D03*
D573*
X103183Y230088D03*
D929*
X290741Y230088D03*
D412*
X103183Y229749D03*
D930*
X290232Y229749D03*
D412*
X103183Y229410D03*
D931*
X289724Y229410D03*
D410*
X103183Y229071D03*
D932*
X289216Y229071D03*
D412*
X103183Y228732D03*
D933*
X288877Y228732D03*
D573*
X103183Y228393D03*
D751*
X288369Y228393D03*
D412*
X103183Y228055D03*
D934*
X287860Y228055D03*
D265*
X183492Y227716D03*
D266*
X183492Y227377D03*
X183492Y227038D03*
D267*
X183492Y226699D03*
D266*
X183492Y226360D03*
D265*
X183492Y226021D03*
D266*
X183492Y225683D03*
X183492Y225344D03*
D265*
X183492Y225005D03*
D266*
X183492Y224666D03*
D267*
X183492Y224327D03*
D266*
X183492Y223988D03*
D265*
X183492Y223649D03*
D266*
X183492Y223311D03*
X183492Y222972D03*
D265*
X183492Y222633D03*
D266*
X183492Y222294D03*
D267*
X183492Y221955D03*
D266*
X183492Y221616D03*
X183492Y221277D03*
D267*
X183492Y220939D03*
D266*
X183492Y220600D03*
D265*
X183492Y220261D03*
D266*
X183492Y219922D03*
D267*
X183492Y219583D03*
D266*
X183492Y219244D03*
X183492Y218905D03*
D267*
X183492Y218567D03*
D266*
X183492Y218228D03*
D265*
X183492Y217889D03*
D266*
X183492Y217550D03*
X183492Y217211D03*
D265*
X183492Y216872D03*
D266*
X183492Y216533D03*
D267*
X183492Y216195D03*
D266*
X183492Y215856D03*
D265*
X183492Y215517D03*
D266*
X183492Y215178D03*
X183492Y214839D03*
D265*
X183492Y214500D03*
D266*
X183492Y214161D03*
D267*
X183492Y213823D03*
D266*
X183492Y213484D03*
X183492Y213145D03*
D265*
X183492Y212806D03*
D266*
X183492Y212467D03*
D265*
X183492Y212128D03*
D266*
X183492Y211789D03*
D267*
X183492Y211451D03*
D266*
X183492Y211112D03*
X183492Y210773D03*
D265*
X183492Y210434D03*
D266*
X183492Y210095D03*
D265*
X183492Y209756D03*
D266*
X183492Y209417D03*
X183492Y209078D03*
D267*
X183492Y208740D03*
D266*
X183492Y208401D03*
D265*
X183492Y208062D03*
D266*
X183492Y207723D03*
D265*
X183492Y207384D03*
D266*
X183492Y207045D03*
X183492Y206706D03*
D267*
X183492Y206368D03*
D266*
X183492Y206029D03*
D265*
X183492Y205690D03*
D266*
X183492Y205351D03*
D265*
X183492Y205012D03*
D266*
X183492Y204673D03*
X183492Y204334D03*
D267*
X183492Y203996D03*
D266*
X183492Y203657D03*
D265*
X183492Y203318D03*
D266*
X183492Y202979D03*
X183492Y202640D03*
D265*
X183492Y202301D03*
D266*
X183492Y201962D03*
D267*
X183492Y201624D03*
D266*
X183492Y201285D03*
D265*
X183492Y200946D03*
D266*
X183492Y200607D03*
X183492Y200268D03*
D265*
X183492Y199929D03*
D266*
X183492Y199590D03*
D267*
X183492Y199252D03*
D266*
X183492Y198913D03*
X183492Y198574D03*
D267*
X183492Y198235D03*
D266*
X183492Y197896D03*
D265*
X183492Y197557D03*
D266*
X183492Y197218D03*
D267*
X183492Y196880D03*
D266*
X183492Y196541D03*
X183492Y196202D03*
D267*
X183492Y195863D03*
D266*
X183492Y195524D03*
D265*
X183492Y195185D03*
D266*
X183492Y194846D03*
X183492Y194508D03*
D265*
X183492Y194169D03*
D266*
X183492Y193830D03*
D267*
X183492Y193491D03*
D266*
X183492Y193152D03*
D265*
X183492Y192813D03*
D266*
X183492Y192474D03*
X183492Y192136D03*
D265*
X183492Y191797D03*
D266*
X183492Y191458D03*
D267*
X183492Y191119D03*
D266*
X183492Y190780D03*
X183492Y190441D03*
D265*
X183492Y190102D03*
D266*
X183492Y189764D03*
D265*
X183492Y189425D03*
D266*
X183492Y189086D03*
D267*
X183492Y188747D03*
D266*
X183492Y188408D03*
X183492Y188069D03*
D265*
X183492Y187730D03*
D266*
X183492Y187392D03*
D265*
X183492Y187053D03*
D266*
X183492Y186714D03*
D267*
X183492Y186375D03*
D266*
X183492Y186036D03*
X183492Y185697D03*
D265*
X183492Y185358D03*
D266*
X183492Y185020D03*
D265*
X183492Y184681D03*
D266*
X183492Y184342D03*
X183492Y184003D03*
D267*
X183492Y183664D03*
D266*
X183492Y183325D03*
D265*
X183492Y182986D03*
D266*
X183492Y182648D03*
D265*
X183492Y182309D03*
D266*
X183492Y181970D03*
X183492Y181631D03*
D267*
X183492Y181292D03*
D266*
X183492Y180953D03*
D265*
X183492Y180614D03*
D266*
X183492Y180276D03*
X183492Y179937D03*
D265*
X183492Y179598D03*
D266*
X183492Y179259D03*
D267*
X183492Y178920D03*
D266*
X183492Y178581D03*
D265*
X183492Y178242D03*
D266*
X183492Y177904D03*
X183492Y177565D03*
D265*
X183492Y177226D03*
D266*
X183492Y176887D03*
D267*
X183492Y176548D03*
D266*
X183492Y176209D03*
X183492Y175870D03*
D267*
X183492Y175532D03*
D266*
X183492Y175193D03*
D265*
X183492Y174854D03*
D266*
X183492Y174515D03*
D267*
X183492Y174176D03*
D266*
X183492Y173837D03*
X183492Y173498D03*
D267*
X183492Y173160D03*
D266*
X183492Y172821D03*
D265*
X183492Y172482D03*
D266*
X183492Y172143D03*
X183492Y171804D03*
D265*
X183492Y171465D03*
D266*
X183492Y171126D03*
D267*
X183492Y170788D03*
D266*
X183492Y170449D03*
D265*
X183492Y170110D03*
D266*
X183492Y169771D03*
X183492Y169432D03*
D265*
X183492Y169093D03*
D266*
X183492Y168754D03*
D267*
X183492Y168416D03*
D266*
X183492Y168077D03*
X183492Y167738D03*
D265*
X183492Y167399D03*
D266*
X183492Y167060D03*
D265*
X183492Y166721D03*
D266*
X183492Y166382D03*
D267*
X183492Y166044D03*
D266*
X183492Y165705D03*
X183492Y165366D03*
D265*
X183492Y165027D03*
D266*
X183492Y164688D03*
D265*
X183492Y164349D03*
D266*
X183492Y164010D03*
D267*
X183492Y163672D03*
D266*
X183492Y163333D03*
X183492Y162994D03*
D265*
X183492Y162655D03*
D266*
X183492Y162316D03*
D265*
X183492Y161977D03*
D266*
X183492Y161638D03*
X183492Y161299D03*
D267*
X183492Y160961D03*
D266*
X183492Y160622D03*
D265*
X183492Y160283D03*
D266*
X183492Y159944D03*
D265*
X183492Y159605D03*
D266*
X183492Y159266D03*
X183492Y158927D03*
D267*
X183492Y158589D03*
D266*
X183492Y158250D03*
D265*
X183492Y157911D03*
D266*
X183492Y157572D03*
X183492Y157233D03*
D265*
X183492Y156894D03*
D266*
X183492Y156555D03*
D267*
X183492Y156217D03*
D266*
X183492Y155878D03*
D265*
X183492Y155539D03*
D266*
X183492Y155200D03*
X183492Y154861D03*
D265*
X183492Y154522D03*
D266*
X183492Y154183D03*
D267*
X183492Y153845D03*
D266*
X183492Y153506D03*
X183492Y153167D03*
D267*
X183492Y152828D03*
D266*
X183492Y152489D03*
D265*
X183492Y152150D03*
D266*
X183492Y151811D03*
D267*
X183492Y151473D03*
D266*
X183492Y151134D03*
X183492Y150795D03*
D267*
X183492Y150456D03*
D266*
X183492Y150117D03*
D265*
X183492Y149778D03*
D266*
X183492Y149439D03*
X183492Y149101D03*
D265*
X183492Y148762D03*
D266*
X183492Y148423D03*
D267*
X183492Y148084D03*
D266*
X183492Y147745D03*
D265*
X183492Y147406D03*
D266*
X183492Y147067D03*
X183492Y146729D03*
D265*
X183492Y146390D03*
D266*
X183492Y146051D03*
D267*
X183492Y145712D03*
D266*
X183492Y145373D03*
D265*
X183492Y145034D03*
D266*
X183492Y144695D03*
X183492Y144357D03*
D265*
X183492Y144018D03*
D266*
X183492Y143679D03*
D267*
X183492Y143340D03*
D266*
X183492Y143001D03*
X183492Y142662D03*
D265*
X183492Y142323D03*
D266*
X183492Y141985D03*
D265*
X183492Y141646D03*
D266*
X183492Y141307D03*
D267*
X183492Y140968D03*
D266*
X183492Y140629D03*
X183492Y140290D03*
D265*
X183492Y139951D03*
D266*
X183492Y139613D03*
D265*
X183492Y139274D03*
D266*
X183492Y138935D03*
X183492Y138596D03*
D267*
X183492Y138257D03*
D266*
X183492Y137918D03*
D265*
X183492Y137579D03*
D266*
X183492Y137241D03*
D265*
X183492Y136902D03*
D266*
X183492Y136563D03*
X183492Y136224D03*
D267*
X183492Y135885D03*
D266*
X183492Y135546D03*
D265*
X183492Y135207D03*
D266*
X183492Y134869D03*
X183492Y134530D03*
D265*
X183492Y134191D03*
D266*
X183492Y133852D03*
D267*
X183492Y133513D03*
D266*
X183492Y133174D03*
D265*
X183492Y132835D03*
D266*
X183492Y132497D03*
X183492Y132158D03*
D265*
X183492Y131819D03*
D266*
X183492Y131480D03*
D267*
X183492Y131141D03*
D266*
X183492Y130802D03*
X183492Y130463D03*
D267*
X183492Y130125D03*
D266*
X183492Y129786D03*
D265*
X183492Y129447D03*
D266*
X183492Y129108D03*
D267*
X183492Y128769D03*
D266*
X183492Y128430D03*
X183492Y128091D03*
D267*
X183492Y127753D03*
D266*
X183492Y127414D03*
D265*
X183492Y127075D03*
D266*
X183492Y126736D03*
X183492Y126397D03*
D265*
X183492Y126058D03*
D266*
X183492Y125719D03*
D267*
X183492Y125381D03*
D266*
X183492Y125042D03*
D265*
X183492Y124703D03*
D266*
X183492Y124364D03*
X183492Y124025D03*
D265*
X183492Y123686D03*
D266*
X183492Y123347D03*
D267*
X183492Y123009D03*
D266*
X183492Y122670D03*
D265*
X183492Y122331D03*
D266*
X183492Y121992D03*
X183492Y121653D03*
D265*
X183492Y121314D03*
D266*
X183492Y120975D03*
D267*
X183492Y120637D03*
D266*
X183492Y120298D03*
X183492Y119959D03*
D265*
X183492Y119620D03*
D266*
X183492Y119281D03*
D265*
X183492Y118942D03*
D266*
X183492Y118603D03*
D267*
X183492Y118265D03*
D266*
X183492Y117926D03*
X183492Y117587D03*
D265*
X183492Y117248D03*
D266*
X183492Y116909D03*
D265*
X183492Y116570D03*
D266*
X183492Y116231D03*
X183492Y115892D03*
D267*
X183492Y115554D03*
D266*
X183492Y115215D03*
D265*
X183492Y114876D03*
D266*
X183492Y114537D03*
D265*
X183492Y114198D03*
D266*
X183492Y113859D03*
X183492Y113520D03*
D267*
X183492Y113182D03*
D266*
X183492Y112843D03*
D689*
X55573Y112504D03*
D935*
X260074Y112504D03*
D584*
X55573Y112165D03*
D936*
X260074Y112165D03*
D584*
X55573Y111826D03*
D936*
X260074Y111826D03*
D689*
X55573Y111487D03*
D935*
X260074Y111487D03*
D584*
X55573Y111148D03*
D936*
X260074Y111148D03*
D937*
X55573Y110810D03*
D938*
X260074Y110810D03*
D584*
X55573Y110471D03*
D936*
X260074Y110471D03*
D689*
X55573Y110132D03*
D935*
X260074Y110132D03*
D584*
X55573Y109793D03*
D936*
X260074Y109793D03*
D584*
X55573Y109454D03*
D936*
X260074Y109454D03*
D689*
X55573Y109115D03*
D711*
X120803Y109115D03*
D554*
X132155Y109115D03*
D393*
X140796Y109115D03*
D560*
X145031Y109115D03*
D935*
X260074Y109115D03*
D584*
X55573Y108776D03*
D73*
X120973Y108776D03*
D523*
X132155Y108776D03*
D534*
X140796Y108776D03*
D510*
X145031Y108776D03*
D936*
X260074Y108776D03*
D937*
X55573Y108438D03*
D737*
X121142Y108438D03*
D550*
X132155Y108438D03*
D564*
X140796Y108438D03*
D535*
X144862Y108438D03*
D938*
X260074Y108438D03*
D584*
X55573Y108099D03*
D510*
X119278Y108099D03*
D606*
X122836Y108099D03*
D939*
X131985Y108099D03*
D534*
X140796Y108099D03*
D391*
X144862Y108099D03*
D936*
X260074Y108099D03*
D584*
X55573Y107760D03*
D534*
X119109Y107760D03*
X123175Y107760D03*
D939*
X131646Y107760D03*
D534*
X140796Y107760D03*
D433*
X144692Y107760D03*
D936*
X260074Y107760D03*
D937*
X55573Y107421D03*
D564*
X119109Y107421D03*
X123175Y107421D03*
D531*
X130121Y107421D03*
D940*
X133510Y107421D03*
D564*
X140796Y107421D03*
D549*
X144692Y107421D03*
D938*
X260074Y107421D03*
D584*
X55573Y107082D03*
D534*
X119109Y107082D03*
X123175Y107082D03*
X129614Y107082D03*
X140796Y107082D03*
D389*
X144523Y107082D03*
D936*
X260074Y107082D03*
D689*
X55573Y106743D03*
D393*
X119109Y106743D03*
X123175Y106743D03*
X129614Y106743D03*
X140796Y106743D03*
D375*
X144354Y106743D03*
D935*
X260074Y106743D03*
D584*
X55573Y106404D03*
D73*
X120973Y106404D03*
D529*
X129444Y106404D03*
D534*
X140796Y106404D03*
D529*
X143337Y106404D03*
X145370Y106404D03*
D936*
X260074Y106404D03*
D937*
X55573Y106066D03*
D550*
X120634Y106066D03*
D941*
X129444Y106066D03*
D564*
X140796Y106066D03*
D941*
X142998Y106066D03*
X145370Y106066D03*
D313*
X236523Y106066D03*
D942*
X346144Y106066D03*
D584*
X55573Y105727D03*
D417*
X120634Y105727D03*
D529*
X129444Y105727D03*
D534*
X140796Y105727D03*
D529*
X142998Y105727D03*
X145370Y105727D03*
D321*
X236015Y105727D03*
D553*
X346652Y105727D03*
D584*
X55573Y105388D03*
D73*
X120973Y105388D03*
D529*
X129444Y105388D03*
D374*
X141643Y105388D03*
D529*
X145370Y105388D03*
D325*
X235676Y105388D03*
D853*
X346991Y105388D03*
D937*
X55573Y105049D03*
D564*
X119109Y105049D03*
D531*
X122667Y105049D03*
D564*
X129614Y105049D03*
D371*
X141643Y105049D03*
D941*
X145370Y105049D03*
D327*
X235506Y105049D03*
D943*
X347330Y105049D03*
D584*
X55573Y104710D03*
D534*
X119109Y104710D03*
D591*
X122836Y104710D03*
D510*
X129783Y104710D03*
D944*
X133680Y104710D03*
D389*
X141473Y104710D03*
D529*
X145370Y104710D03*
D333*
X235167Y104710D03*
D857*
X347499Y104710D03*
D689*
X55573Y104371D03*
D393*
X119109Y104371D03*
D850*
X122836Y104371D03*
D560*
X130121Y104371D03*
D70*
X133680Y104371D03*
D386*
X141473Y104371D03*
D539*
X145370Y104371D03*
D945*
X234998Y104371D03*
D946*
X347669Y104371D03*
D584*
X55573Y104032D03*
D534*
X119109Y104032D03*
D591*
X122836Y104032D03*
D73*
X131816Y104032D03*
D433*
X141304Y104032D03*
D529*
X145370Y104032D03*
D765*
X166210Y104032D03*
D739*
X256855Y104032D03*
D863*
X347838Y104032D03*
D937*
X55573Y103694D03*
D419*
X120973Y103694D03*
X132155Y103694D03*
D549*
X141304Y103694D03*
D941*
X145370Y103694D03*
D947*
X166210Y103694D03*
D948*
X256685Y103694D03*
D949*
X348008Y103694D03*
D584*
X55573Y103355D03*
D73*
X120973Y103355D03*
D417*
X132155Y103355D03*
D391*
X141135Y103355D03*
D529*
X145370Y103355D03*
D765*
X166210Y103355D03*
D484*
X256516Y103355D03*
D900*
X348177Y103355D03*
D584*
X55573Y103016D03*
D939*
X120803Y103016D03*
D710*
X131985Y103016D03*
D391*
X141135Y103016D03*
D529*
X145370Y103016D03*
D765*
X166210Y103016D03*
D950*
X256346Y103016D03*
D868*
X348347Y103016D03*
D937*
X55573Y102677D03*
D550*
X120634Y102677D03*
D535*
X131986Y102677D03*
D531*
X140965Y102677D03*
D941*
X145370Y102677D03*
D947*
X166210Y102677D03*
D951*
X256346Y102677D03*
D952*
X348347Y102677D03*
D584*
X55573Y102338D03*
D765*
X166210Y102338D03*
D953*
X256177Y102338D03*
D871*
X348516Y102338D03*
D689*
X55573Y101999D03*
D763*
X166210Y101999D03*
D954*
X256177Y101999D03*
D894*
X348685Y101999D03*
D584*
X55573Y101660D03*
D765*
X166210Y101660D03*
D614*
X256007Y101660D03*
D873*
X348685Y101660D03*
D584*
X55573Y101322D03*
D765*
X166210Y101322D03*
D614*
X256007Y101322D03*
D877*
X348855Y101322D03*
D689*
X55573Y100983D03*
D763*
X166210Y100983D03*
D955*
X255838Y100983D03*
D879*
X348855Y100983D03*
D584*
X55573Y100644D03*
D765*
X166210Y100644D03*
D956*
X255838Y100644D03*
D877*
X348855Y100644D03*
D937*
X55573Y100305D03*
D662*
X168074Y100305D03*
D957*
X253975Y100305D03*
D886*
X349024Y100305D03*
D584*
X55573Y99966D03*
D263*
X168243Y99966D03*
D958*
X253636Y99966D03*
D884*
X349024Y99966D03*
D689*
X55573Y99627D03*
D428*
X168243Y99627D03*
D959*
X253636Y99627D03*
D882*
X349024Y99627D03*
D584*
X55573Y99288D03*
D263*
X168243Y99288D03*
D958*
X253636Y99288D03*
D884*
X349024Y99288D03*
D581*
X60995Y98950D03*
D142*
X173156Y98950D03*
D958*
X253636Y98950D03*
D884*
X349024Y98950D03*
D960*
X60995Y98611D03*
D189*
X173156Y98611D03*
D959*
X253636Y98611D03*
D882*
X349024Y98611D03*
D581*
X60995Y98272D03*
D142*
X173156Y98272D03*
D958*
X253636Y98272D03*
D884*
X349024Y98272D03*
D961*
X60995Y97933D03*
D141*
X173156Y97933D03*
D957*
X253636Y97933D03*
D886*
X349024Y97933D03*
D581*
X60995Y97594D03*
D142*
X173156Y97594D03*
D253*
X206873Y97594D03*
D625*
X229238Y97594D03*
D962*
X275831Y97594D03*
D884*
X349024Y97594D03*
D581*
X60995Y97255D03*
D142*
X173156Y97255D03*
D72*
X206195Y97255D03*
D963*
X229237Y97255D03*
D964*
X276509Y97255D03*
D884*
X349024Y97255D03*
D960*
X60995Y96916D03*
D189*
X173156Y96916D03*
D965*
X205857Y96916D03*
D512*
X229238Y96916D03*
D966*
X276847Y96916D03*
D882*
X349024Y96916D03*
D581*
X60995Y96578D03*
D142*
X173156Y96578D03*
D79*
X205518Y96578D03*
D510*
X229407Y96578D03*
D967*
X277356Y96578D03*
D884*
X349024Y96578D03*
D960*
X60995Y96239D03*
D189*
X173156Y96239D03*
D968*
X205348Y96239D03*
D70*
X229577Y96239D03*
D969*
X277525Y96239D03*
D879*
X348855Y96239D03*
D581*
X60995Y95900D03*
D142*
X173156Y95900D03*
D82*
X205179Y95900D03*
D636*
X229576Y95900D03*
D970*
X277525Y95900D03*
D877*
X348855Y95900D03*
D961*
X60995Y95561D03*
D141*
X173156Y95561D03*
D971*
X205009Y95561D03*
D972*
X277695Y95561D03*
D973*
X348855Y95561D03*
D581*
X60995Y95222D03*
D417*
X131816Y95222D03*
D534*
X140118Y95222D03*
D529*
X145370Y95222D03*
D417*
X153503Y95222D03*
D142*
X173156Y95222D03*
D974*
X205009Y95222D03*
D975*
X277864Y95222D03*
D873*
X348685Y95222D03*
D581*
X60995Y94883D03*
D417*
X131816Y94883D03*
D529*
X140287Y94883D03*
D534*
X145201Y94883D03*
D73*
X153842Y94883D03*
D142*
X173156Y94883D03*
D90*
X204840Y94883D03*
D976*
X278033Y94883D03*
D873*
X348685Y94883D03*
D960*
X60995Y94544D03*
D690*
X131816Y94544D03*
D393*
X140457Y94544D03*
X145201Y94544D03*
D917*
X154011Y94544D03*
D189*
X173156Y94544D03*
D168*
X204840Y94544D03*
D977*
X278203Y94544D03*
D869*
X348516Y94544D03*
D581*
X60995Y94206D03*
D417*
X131816Y94206D03*
D534*
X140457Y94206D03*
D529*
X145031Y94206D03*
D479*
X154011Y94206D03*
D142*
X173156Y94206D03*
D90*
X204840Y94206D03*
D975*
X278203Y94206D03*
D871*
X348516Y94206D03*
D960*
X60995Y93867D03*
D393*
X130291Y93867D03*
D380*
X142829Y93867D03*
D393*
X151978Y93867D03*
D560*
X155875Y93867D03*
D189*
X173156Y93867D03*
D168*
X204840Y93867D03*
D560*
X226357Y93867D03*
D590*
X237201Y93867D03*
D978*
X278372Y93867D03*
D899*
X348347Y93867D03*
D581*
X60995Y93528D03*
D534*
X130291Y93528D03*
D979*
X142829Y93528D03*
D534*
X151978Y93528D03*
D591*
X156044Y93528D03*
D142*
X173156Y93528D03*
D165*
X204671Y93528D03*
D569*
X226527Y93528D03*
D494*
X237031Y93528D03*
D980*
X278542Y93528D03*
D900*
X348177Y93528D03*
D581*
X60995Y93189D03*
D534*
X130291Y93189D03*
D981*
X142659Y93189D03*
D534*
X151978Y93189D03*
D591*
X156044Y93189D03*
D142*
X173156Y93189D03*
D165*
X204671Y93189D03*
D515*
X226527Y93189D03*
D489*
X237201Y93189D03*
D422*
X243978Y93189D03*
D982*
X283624Y93189D03*
D900*
X348177Y93189D03*
D961*
X60995Y92850D03*
D564*
X130291Y92850D03*
D983*
X142829Y92850D03*
D564*
X151978Y92850D03*
D531*
X155875Y92850D03*
D141*
X173156Y92850D03*
D984*
X197216Y92850D03*
D714*
X207212Y92850D03*
D594*
X214667Y92850D03*
D261*
X226527Y92850D03*
D502*
X237201Y92850D03*
D985*
X243300Y92850D03*
D986*
X284472Y92850D03*
D949*
X348008Y92850D03*
D581*
X60995Y92511D03*
D534*
X130291Y92511D03*
X141135Y92511D03*
X144523Y92511D03*
X151978Y92511D03*
D510*
X155536Y92511D03*
D142*
X173156Y92511D03*
D665*
X196538Y92511D03*
D433*
X207381Y92511D03*
D391*
X215345Y92511D03*
D963*
X226527Y92511D03*
D489*
X237201Y92511D03*
D710*
X242792Y92511D03*
D987*
X285150Y92511D03*
D863*
X347838Y92511D03*
D960*
X60995Y92172D03*
D393*
X130291Y92172D03*
D539*
X141304Y92172D03*
D810*
X144354Y92172D03*
D690*
X153503Y92172D03*
D189*
X173156Y92172D03*
D671*
X196199Y92172D03*
D393*
X207551Y92172D03*
X215684Y92172D03*
D431*
X226527Y92172D03*
D810*
X237201Y92172D03*
D386*
X242453Y92172D03*
D988*
X285657Y92172D03*
D989*
X347499Y92172D03*
D581*
X60995Y91834D03*
D534*
X130291Y91834D03*
D529*
X141304Y91834D03*
D489*
X144354Y91834D03*
D417*
X153503Y91834D03*
D142*
X173156Y91834D03*
D625*
X196030Y91834D03*
D944*
X207551Y91834D03*
D591*
X216022Y91834D03*
D352*
X226696Y91834D03*
D489*
X237201Y91834D03*
D606*
X242114Y91834D03*
D990*
X285996Y91834D03*
D908*
X347330Y91834D03*
D960*
X60995Y91495D03*
D393*
X130291Y91495D03*
D539*
X141304Y91495D03*
D810*
X144354Y91495D03*
D711*
X153672Y91495D03*
D189*
X173156Y91495D03*
D355*
X195860Y91495D03*
D705*
X207720Y91495D03*
D810*
X216192Y91495D03*
D991*
X226696Y91495D03*
D810*
X237201Y91495D03*
D560*
X241945Y91495D03*
D992*
X286505Y91495D03*
D993*
X347161Y91495D03*
D581*
X60995Y91156D03*
D534*
X130291Y91156D03*
D494*
X141473Y91156D03*
D489*
X144015Y91156D03*
D534*
X151978Y91156D03*
D510*
X155536Y91156D03*
D142*
X173156Y91156D03*
D979*
X195691Y91156D03*
D489*
X216192Y91156D03*
D515*
X226866Y91156D03*
D489*
X237201Y91156D03*
D534*
X241776Y91156D03*
D987*
X286844Y91156D03*
D994*
X346822Y91156D03*
D581*
X60995Y90817D03*
D534*
X130291Y90817D03*
D489*
X141643Y90817D03*
X144015Y90817D03*
D534*
X151978Y90817D03*
X155706Y90817D03*
D142*
X173156Y90817D03*
D979*
X195691Y90817D03*
D534*
X216361Y90817D03*
D569*
X227205Y90817D03*
D479*
X239403Y90817D03*
D995*
X287521Y90817D03*
D912*
X346313Y90817D03*
D961*
X60995Y90478D03*
D564*
X130291Y90478D03*
D502*
X141643Y90478D03*
D602*
X143845Y90478D03*
D564*
X151978Y90478D03*
X155706Y90478D03*
D141*
X173156Y90478D03*
D737*
X195691Y90478D03*
D941*
X216530Y90478D03*
D531*
X227713Y90478D03*
D419*
X239234Y90478D03*
D941*
X249738Y90478D03*
D996*
X288199Y90478D03*
D997*
X345636Y90478D03*
D581*
X60995Y90139D03*
D534*
X130291Y90139D03*
D494*
X141812Y90139D03*
D529*
X143676Y90139D03*
D534*
X151978Y90139D03*
X155706Y90139D03*
D142*
X173156Y90139D03*
D981*
X195521Y90139D03*
D944*
X205179Y90139D03*
D524*
X212803Y90139D03*
D534*
X216700Y90139D03*
D494*
X228221Y90139D03*
D73*
X239234Y90139D03*
D391*
X249569Y90139D03*
D584*
X311411Y90139D03*
D960*
X60995Y89800D03*
D393*
X130291Y89800D03*
D512*
X142829Y89800D03*
D393*
X151978Y89800D03*
D555*
X155367Y89800D03*
D189*
X173156Y89800D03*
D824*
X195521Y89800D03*
D560*
X205348Y89800D03*
D425*
X212972Y89800D03*
D555*
X217039Y89800D03*
D425*
X228560Y89800D03*
D711*
X239064Y89800D03*
D386*
X249569Y89800D03*
D689*
X311411Y89800D03*
D581*
X60995Y89462D03*
D534*
X130291Y89462D03*
D433*
X142659Y89462D03*
D73*
X153842Y89462D03*
D142*
X173156Y89462D03*
D981*
X195521Y89462D03*
D433*
X205348Y89462D03*
D636*
X212972Y89462D03*
D433*
X217208Y89462D03*
D939*
X239064Y89462D03*
D710*
X249569Y89462D03*
D584*
X311411Y89462D03*
D581*
X60995Y89123D03*
D534*
X130291Y89123D03*
D391*
X142829Y89123D03*
D939*
X153672Y89123D03*
D142*
X173156Y89123D03*
D981*
X195521Y89123D03*
D433*
X205348Y89123D03*
D537*
X213142Y89123D03*
D382*
X217547Y89123D03*
D417*
X238895Y89123D03*
D523*
X249739Y89123D03*
D584*
X311411Y89123D03*
D960*
X60995Y88784D03*
D393*
X130291Y88784D03*
D555*
X142829Y88784D03*
D690*
X153503Y88784D03*
D189*
X173156Y88784D03*
D824*
X195521Y88784D03*
D527*
X205348Y88784D03*
D590*
X213142Y88784D03*
D431*
X218055Y88784D03*
D690*
X238895Y88784D03*
D431*
X249569Y88784D03*
D998*
X311580Y88784D03*
D581*
X60995Y88445D03*
D534*
X130291Y88445D03*
D142*
X173156Y88445D03*
D981*
X195521Y88445D03*
D433*
X205687Y88445D03*
D537*
X213142Y88445D03*
D422*
X218902Y88445D03*
D417*
X238895Y88445D03*
D963*
X249569Y88445D03*
D999*
X311580Y88445D03*
D961*
X60995Y88106D03*
D141*
X173156Y88106D03*
D737*
X195691Y88106D03*
D535*
X205857Y88106D03*
D834*
X213142Y88106D03*
D363*
X219919Y88106D03*
D261*
X238725Y88106D03*
D1000*
X307345Y88106D03*
D581*
X60995Y87767D03*
D142*
X173156Y87767D03*
D979*
X195691Y87767D03*
D489*
X206365Y87767D03*
D462*
X219411Y87767D03*
D963*
X238725Y87767D03*
D739*
X307345Y87767D03*
D960*
X60995Y87428D03*
D189*
X173156Y87428D03*
D355*
X195860Y87428D03*
D425*
X206873Y87428D03*
D671*
X216191Y87428D03*
D414*
X225341Y87428D03*
D431*
X238725Y87428D03*
D1001*
X307345Y87428D03*
D581*
X60995Y87090D03*
D142*
X173156Y87090D03*
D625*
X196030Y87090D03*
D479*
X215683Y87090D03*
D523*
X226019Y87090D03*
D963*
X238725Y87090D03*
D710*
X249230Y87090D03*
D1002*
X310564Y87090D03*
D581*
X60995Y86751D03*
D142*
X173156Y86751D03*
D256*
X196369Y86751D03*
D73*
X215514Y86751D03*
D515*
X226527Y86751D03*
D963*
X238725Y86751D03*
D389*
X248891Y86751D03*
D1003*
X310903Y86751D03*
D960*
X60995Y86412D03*
D189*
X173156Y86412D03*
D448*
X196877Y86412D03*
D711*
X215344Y86412D03*
D991*
X226696Y86412D03*
D431*
X238725Y86412D03*
D527*
X248722Y86412D03*
D1004*
X311072Y86412D03*
D581*
X60995Y86073D03*
D142*
X173156Y86073D03*
D80*
X197555Y86073D03*
D417*
X215175Y86073D03*
D515*
X226866Y86073D03*
D963*
X238725Y86073D03*
D391*
X248553Y86073D03*
D607*
X311242Y86073D03*
D961*
X60995Y85734D03*
D141*
X173156Y85734D03*
D592*
X196877Y85734D03*
D531*
X203654Y85734D03*
D550*
X215175Y85734D03*
D594*
X226866Y85734D03*
D261*
X238725Y85734D03*
D531*
X248383Y85734D03*
D937*
X311411Y85734D03*
D584*
X55573Y85395D03*
D142*
X173156Y85395D03*
D256*
X196369Y85395D03*
D391*
X204840Y85395D03*
D417*
X215175Y85395D03*
D515*
X226866Y85395D03*
D963*
X238725Y85395D03*
D510*
X248383Y85395D03*
D584*
X311411Y85395D03*
D689*
X55573Y85056D03*
D428*
X168243Y85056D03*
D626*
X196030Y85056D03*
D527*
X205348Y85056D03*
D690*
X215175Y85056D03*
D693*
X226866Y85056D03*
D690*
X238895Y85056D03*
D560*
X248383Y85056D03*
D689*
X311411Y85056D03*
D584*
X55573Y84718D03*
D263*
X168243Y84718D03*
D625*
X196030Y84718D03*
D391*
X205518Y84718D03*
D417*
X215175Y84718D03*
D515*
X226866Y84718D03*
D417*
X238895Y84718D03*
D534*
X248553Y84718D03*
D999*
X311580Y84718D03*
D584*
X55573Y84379D03*
D263*
X168243Y84379D03*
D979*
X196030Y84379D03*
D433*
X205687Y84379D03*
D417*
X215175Y84379D03*
D515*
X226527Y84379D03*
D1005*
X238726Y84379D03*
D510*
X248722Y84379D03*
D999*
X311580Y84379D03*
D689*
X55573Y84040D03*
D1006*
X167565Y84040D03*
D711*
X196368Y84040D03*
D555*
X205857Y84040D03*
D1007*
X215006Y84040D03*
D693*
X226527Y84040D03*
D824*
X238895Y84040D03*
D393*
X248892Y84040D03*
D689*
X311411Y84040D03*
D584*
X55573Y83701D03*
D765*
X166210Y83701D03*
D510*
X197893Y83701D03*
D433*
X205687Y83701D03*
D1005*
X215006Y83701D03*
D523*
X226019Y83701D03*
D981*
X238895Y83701D03*
D510*
X249061Y83701D03*
D584*
X311411Y83701D03*
D937*
X55573Y83362D03*
D947*
X166210Y83362D03*
D531*
X197893Y83362D03*
D535*
X205518Y83362D03*
D1008*
X215175Y83362D03*
D259*
X225341Y83362D03*
D424*
X238895Y83362D03*
D535*
X249569Y83362D03*
D937*
X311411Y83362D03*
D584*
X55573Y83023D03*
D765*
X166210Y83023D03*
D510*
X197893Y83023D03*
D391*
X205179Y83023D03*
D981*
X215175Y83023D03*
D537*
X225341Y83023D03*
D625*
X239065Y83023D03*
D510*
X250077Y83023D03*
D584*
X311411Y83023D03*
X55573Y82684D03*
D765*
X166210Y82684D03*
D510*
X197893Y82684D03*
D433*
X204670Y82684D03*
D422*
X215175Y82684D03*
D256*
X239065Y82684D03*
D607*
X311242Y82684D03*
D937*
X55573Y82346D03*
D947*
X166210Y82346D03*
D535*
X198063Y82346D03*
D624*
X215345Y82346D03*
D78*
X239065Y82346D03*
D1009*
X311072Y82346D03*
D584*
X55573Y82007D03*
D534*
X119109Y82007D03*
D529*
X129105Y82007D03*
D534*
X134358Y82007D03*
D523*
X142321Y82007D03*
D765*
X166210Y82007D03*
D433*
X198232Y82007D03*
D359*
X215514Y82007D03*
D1010*
X239064Y82007D03*
D1003*
X310903Y82007D03*
D689*
X55573Y81668D03*
D393*
X119109Y81668D03*
X129275Y81668D03*
X134358Y81668D03*
D1007*
X142829Y81668D03*
D763*
X166210Y81668D03*
D512*
X198402Y81668D03*
D448*
X215514Y81668D03*
D1011*
X239064Y81668D03*
D1012*
X310733Y81668D03*
D584*
X55573Y81329D03*
D534*
X119109Y81329D03*
X129275Y81329D03*
D529*
X134188Y81329D03*
D981*
X142998Y81329D03*
D765*
X166210Y81329D03*
D710*
X198740Y81329D03*
D80*
X215853Y81329D03*
D1013*
X239065Y81329D03*
D1002*
X310564Y81329D03*
D937*
X55573Y80990D03*
D564*
X119109Y80990D03*
D941*
X129444Y80990D03*
D564*
X134019Y80990D03*
D1008*
X142998Y80990D03*
D947*
X166210Y80990D03*
D261*
X199079Y80990D03*
D574*
X216022Y80990D03*
D86*
X238895Y80990D03*
D661*
X310225Y80990D03*
D584*
X55573Y80651D03*
D534*
X119109Y80651D03*
D422*
X131816Y80651D03*
D534*
X141135Y80651D03*
D391*
X144862Y80651D03*
D765*
X166210Y80651D03*
D422*
X199926Y80651D03*
D392*
X216192Y80651D03*
D1014*
X238726Y80651D03*
D458*
X309717Y80651D03*
D584*
X55573Y80312D03*
D534*
X119109Y80312D03*
D979*
X131647Y80312D03*
D534*
X141135Y80312D03*
D510*
X145031Y80312D03*
D1015*
X200265Y80312D03*
D1016*
X308870Y80312D03*
D937*
X55573Y79974D03*
D564*
X119109Y79974D03*
D419*
X131816Y79974D03*
D564*
X141135Y79974D03*
D531*
X145031Y79974D03*
D938*
X260074Y79974D03*
D584*
X55573Y79635D03*
D534*
X119109Y79635D03*
D939*
X131646Y79635D03*
D534*
X141135Y79635D03*
X144862Y79635D03*
D936*
X260074Y79635D03*
D689*
X55573Y79296D03*
D431*
X120464Y79296D03*
D711*
X131646Y79296D03*
D393*
X141135Y79296D03*
D560*
X144692Y79296D03*
D935*
X260074Y79296D03*
D584*
X55573Y78957D03*
D963*
X120464Y78957D03*
D489*
X130122Y78957D03*
D529*
X133510Y78957D03*
D417*
X142660Y78957D03*
D936*
X260074Y78957D03*
D584*
X55573Y78618D03*
D963*
X120464Y78618D03*
D489*
X130122Y78618D03*
D529*
X133171Y78618D03*
D963*
X142490Y78618D03*
D936*
X260074Y78618D03*
D689*
X55573Y78279D03*
D431*
X120464Y78279D03*
D810*
X130122Y78279D03*
D539*
X133171Y78279D03*
D690*
X142660Y78279D03*
D935*
X260074Y78279D03*
D584*
X55573Y77940D03*
D523*
X120295Y77940D03*
D529*
X130460Y77940D03*
X133171Y77940D03*
D534*
X141135Y77940D03*
D606*
X144184Y77940D03*
D936*
X260074Y77940D03*
D937*
X55573Y77602D03*
D564*
X119109Y77602D03*
D941*
X130460Y77602D03*
D601*
X133002Y77602D03*
D941*
X140965Y77602D03*
D564*
X144523Y77602D03*
D938*
X260074Y77602D03*
D584*
X55573Y77263D03*
D534*
X119109Y77263D03*
D598*
X130630Y77263D03*
D529*
X132832Y77263D03*
X140965Y77263D03*
D510*
X144692Y77263D03*
D936*
X260074Y77263D03*
D689*
X55573Y76924D03*
D393*
X119109Y76924D03*
D539*
X130799Y76924D03*
X132832Y76924D03*
X140965Y76924D03*
D560*
X144692Y76924D03*
D935*
X260074Y76924D03*
D584*
X55573Y76585D03*
D534*
X119109Y76585D03*
D529*
X130799Y76585D03*
D494*
X132663Y76585D03*
D529*
X140965Y76585D03*
D510*
X144692Y76585D03*
D936*
X260074Y76585D03*
D584*
X55573Y76246D03*
D417*
X120634Y76246D03*
D433*
X131816Y76246D03*
D1005*
X142829Y76246D03*
D936*
X260074Y76246D03*
D689*
X55573Y75907D03*
D690*
X120634Y75907D03*
D527*
X131816Y75907D03*
D1007*
X142829Y75907D03*
D935*
X260074Y75907D03*
D584*
X55573Y75568D03*
D417*
X120634Y75568D03*
D391*
X131647Y75568D03*
D417*
X142660Y75568D03*
D936*
X260074Y75568D03*
D937*
X55573Y75230D03*
D550*
X120634Y75230D03*
D531*
X131816Y75230D03*
D259*
X142321Y75230D03*
D938*
X260074Y75230D03*
D584*
X55573Y74891D03*
D936*
X260074Y74891D03*
D584*
X55573Y74552D03*
D936*
X260074Y74552D03*
D689*
X55573Y74213D03*
D935*
X260074Y74213D03*
D584*
X55573Y73874D03*
D936*
X260074Y73874D03*
D689*
X55573Y73535D03*
D935*
X260074Y73535D03*
D584*
X55573Y73196D03*
D936*
X260074Y73196D03*
D937*
X55573Y72858D03*
D938*
X260074Y72858D03*
D584*
X55573Y72519D03*
D936*
X260074Y72519D03*
D584*
X55573Y72180D03*
D936*
X260074Y72180D03*
D689*
X55573Y71841D03*
D935*
X260074Y71841D03*
D266*
X183492Y71502D03*
D265*
X183492Y71163D03*
D266*
X183492Y70824D03*
X183492Y70485D03*
D267*
X183492Y70147D03*
D266*
X183492Y69808D03*
D265*
X183492Y69469D03*
D266*
X183492Y69130D03*
D265*
X183492Y68791D03*
D266*
X183492Y68452D03*
X183492Y68113D03*
D267*
X183492Y67775D03*
D266*
X183492Y67436D03*
D265*
X183492Y67097D03*
D266*
X183492Y66758D03*
X183492Y66419D03*
D265*
X183492Y66080D03*
D266*
X183492Y65741D03*
D267*
X183492Y65403D03*
D266*
X183492Y65064D03*
D265*
X183492Y64725D03*
D266*
X183492Y64386D03*
X183492Y64047D03*
D265*
X183492Y63708D03*
D266*
X183492Y63369D03*
D267*
X183492Y63031D03*
D266*
X183492Y62692D03*
D265*
X183492Y62353D03*
D266*
X183492Y62014D03*
X183492Y61675D03*
D265*
X183492Y61336D03*
D266*
X183492Y60997D03*
D267*
X183492Y60659D03*
D266*
X183492Y60320D03*
X183492Y59981D03*
D267*
X183492Y59642D03*
D266*
X183492Y59303D03*
D265*
X183492Y58964D03*
D266*
X183492Y58625D03*
D267*
X183492Y58287D03*
D266*
X183492Y57948D03*
X183492Y57609D03*
D267*
X183492Y57270D03*
D266*
X183492Y56931D03*
D265*
X183492Y56592D03*
D266*
X183492Y56253D03*
X183492Y55915D03*
D265*
X183492Y55576D03*
D266*
X183492Y55237D03*
D267*
X183492Y54898D03*
D266*
X183492Y54559D03*
D1017*
X64553Y54220D03*
D1018*
X250417Y54220D03*
D1019*
X64214Y53881D03*
D1020*
X250755Y53881D03*
D570*
X63875Y53543D03*
D1021*
X250925Y53543D03*
D567*
X63706Y53204D03*
D1022*
X251264Y53204D03*
D568*
X63706Y52865D03*
D1023*
X251264Y52865D03*
D634*
X63706Y52526D03*
D564*
X131308Y52526D03*
D1024*
X251433Y52526D03*
D570*
X63875Y52187D03*
D569*
X131308Y52187D03*
D1025*
X251603Y52187D03*
D1026*
X64045Y51848D03*
D515*
X131308Y51848D03*
D1025*
X251603Y51848D03*
D1027*
X14232Y51509D03*
D1028*
X41171Y51509D03*
D1029*
X93356Y51509D03*
D1030*
X251603Y51509D03*
D1031*
X14063Y51171D03*
D129*
X41172Y51171D03*
D1032*
X93525Y51171D03*
D1025*
X251603Y51171D03*
D1033*
X13894Y50832D03*
D169*
X41171Y50832D03*
D1034*
X75057Y50832D03*
D698*
X101996Y50832D03*
D1035*
X112332Y50832D03*
D240*
X124192Y50832D03*
D393*
X132663Y50832D03*
D1036*
X144184Y50832D03*
D1035*
X157400Y50832D03*
D166*
X184678Y50832D03*
D1037*
X216530Y50832D03*
D1038*
X230254Y50832D03*
D387*
X242453Y50832D03*
D212*
X259566Y50832D03*
D1039*
X318696Y50832D03*
D253*
X13724Y50493D03*
D128*
X41171Y50493D03*
D1040*
X74549Y50493D03*
D537*
X98608Y50493D03*
D523*
X103352Y50493D03*
D939*
X112331Y50493D03*
D374*
X120973Y50493D03*
D523*
X127411Y50493D03*
D600*
X133171Y50493D03*
D591*
X137068Y50493D03*
D389*
X142151Y50493D03*
D523*
X148420Y50493D03*
D1005*
X157400Y50493D03*
D537*
X164008Y50493D03*
D254*
X170107Y50493D03*
D510*
X176884Y50493D03*
D389*
X182136Y50493D03*
D254*
X189760Y50493D03*
D422*
X202976Y50493D03*
D598*
X209923Y50493D03*
D489*
X213820Y50493D03*
D979*
X220089Y50493D03*
D672*
X230085Y50493D03*
D382*
X238895Y50493D03*
D963*
X245503Y50493D03*
D523*
X253805Y50493D03*
D569*
X260074Y50493D03*
D374*
X266004Y50493D03*
D598*
X271595Y50493D03*
D1041*
X321068Y50493D03*
D1042*
X13555Y50154D03*
D1043*
X41002Y50154D03*
D861*
X74549Y50154D03*
D1044*
X98777Y50154D03*
D371*
X103013Y50154D03*
D1045*
X112331Y50154D03*
D549*
X121311Y50154D03*
D371*
X127072Y50154D03*
D1046*
X133510Y50154D03*
D696*
X137068Y50154D03*
D544*
X142151Y50154D03*
D1047*
X148081Y50154D03*
D259*
X157569Y50154D03*
D1044*
X164177Y50154D03*
D1048*
X170107Y50154D03*
D531*
X176884Y50154D03*
D544*
X182136Y50154D03*
D1048*
X189760Y50154D03*
D261*
X203145Y50154D03*
D1046*
X210092Y50154D03*
D502*
X213820Y50154D03*
D1008*
X219919Y50154D03*
D550*
X230085Y50154D03*
D549*
X239234Y50154D03*
D1045*
X245164Y50154D03*
D371*
X254144Y50154D03*
D518*
X260074Y50154D03*
D549*
X265665Y50154D03*
D788*
X271765Y50154D03*
D1049*
X320899Y50154D03*
D249*
X13385Y49815D03*
D510*
X33547Y49815D03*
D421*
X41171Y49815D03*
D510*
X48795Y49815D03*
D900*
X74379Y49815D03*
D569*
X102844Y49815D03*
X112332Y49815D03*
D391*
X121481Y49815D03*
D569*
X126903Y49815D03*
D591*
X137068Y49815D03*
D389*
X142151Y49815D03*
D569*
X147912Y49815D03*
D382*
X157569Y49815D03*
D254*
X170107Y49815D03*
D510*
X176884Y49815D03*
D389*
X182136Y49815D03*
D254*
X189760Y49815D03*
D374*
X203315Y49815D03*
D591*
X213650Y49815D03*
D1050*
X219580Y49815D03*
D374*
X230085Y49815D03*
D510*
X239573Y49815D03*
D374*
X244995Y49815D03*
D389*
X254313Y49815D03*
D569*
X260074Y49815D03*
D391*
X265496Y49815D03*
D1051*
X320899Y49815D03*
D1052*
X13216Y49476D03*
D598*
X33378Y49476D03*
D421*
X41171Y49476D03*
D494*
X48965Y49476D03*
D868*
X74549Y49476D03*
D433*
X102674Y49476D03*
D391*
X112332Y49476D03*
D510*
X121650Y49476D03*
D433*
X126733Y49476D03*
D591*
X137068Y49476D03*
D389*
X142151Y49476D03*
D433*
X147742Y49476D03*
X157569Y49476D03*
D254*
X170107Y49476D03*
D510*
X176884Y49476D03*
D389*
X182136Y49476D03*
D254*
X189760Y49476D03*
D433*
X203315Y49476D03*
D591*
X213650Y49476D03*
D963*
X219411Y49476D03*
D538*
X230085Y49476D03*
D591*
X239742Y49476D03*
D538*
X244656Y49476D03*
X254483Y49476D03*
D569*
X260074Y49476D03*
D510*
X265326Y49476D03*
D1051*
X320899Y49476D03*
D1053*
X13046Y49137D03*
D577*
X41171Y49137D03*
D1054*
X74549Y49137D03*
D555*
X102505Y49137D03*
D393*
X112332Y49137D03*
X121820Y49137D03*
D555*
X126564Y49137D03*
D850*
X137068Y49137D03*
D386*
X142151Y49137D03*
D555*
X147573Y49137D03*
D560*
X157569Y49137D03*
D671*
X170107Y49137D03*
D560*
X176884Y49137D03*
D386*
X182136Y49137D03*
D671*
X189760Y49137D03*
D555*
X203485Y49137D03*
D850*
X213650Y49137D03*
D431*
X219411Y49137D03*
D555*
X229916Y49137D03*
D850*
X239742Y49137D03*
D554*
X244656Y49137D03*
D555*
X254652Y49137D03*
D512*
X260074Y49137D03*
D393*
X265157Y49137D03*
D1055*
X320899Y49137D03*
D1056*
X12877Y48799D03*
D547*
X41171Y48799D03*
D1057*
X74549Y48799D03*
D529*
X96913Y48799D03*
D510*
X102335Y48799D03*
D534*
X107927Y48799D03*
D529*
X112162Y48799D03*
D510*
X116906Y48799D03*
D534*
X121820Y48799D03*
D391*
X126564Y48799D03*
D598*
X131647Y48799D03*
D591*
X137068Y48799D03*
D389*
X142151Y48799D03*
D510*
X147403Y48799D03*
D529*
X152825Y48799D03*
D534*
X157400Y48799D03*
D598*
X162483Y48799D03*
D254*
X170107Y48799D03*
D510*
X176884Y48799D03*
D389*
X182136Y48799D03*
D254*
X189760Y48799D03*
D510*
X203315Y48799D03*
D598*
X208229Y48799D03*
D591*
X213650Y48799D03*
D523*
X219242Y48799D03*
D534*
X225172Y48799D03*
D510*
X230085Y48799D03*
D534*
X235337Y48799D03*
D591*
X239742Y48799D03*
D606*
X244486Y48799D03*
D529*
X249738Y48799D03*
D510*
X254821Y48799D03*
D569*
X260074Y48799D03*
D534*
X265157Y48799D03*
D529*
X269731Y48799D03*
D1051*
X320899Y48799D03*
D965*
X12708Y48460D03*
D577*
X41171Y48460D03*
D1058*
X74718Y48460D03*
D560*
X96913Y48460D03*
X102335Y48460D03*
D386*
X107926Y48460D03*
D393*
X111993Y48460D03*
D527*
X116906Y48460D03*
D393*
X121820Y48460D03*
D560*
X126394Y48460D03*
D555*
X131647Y48460D03*
D850*
X137068Y48460D03*
D386*
X142151Y48460D03*
D560*
X147403Y48460D03*
D512*
X152995Y48460D03*
D560*
X157230Y48460D03*
D555*
X162483Y48460D03*
D671*
X170107Y48460D03*
D560*
X176884Y48460D03*
D386*
X182136Y48460D03*
D671*
X189760Y48460D03*
D734*
X197554Y48460D03*
D393*
X203485Y48460D03*
D555*
X208229Y48460D03*
D850*
X213650Y48460D03*
D1059*
X219072Y48460D03*
D555*
X225172Y48460D03*
D393*
X229916Y48460D03*
D386*
X235337Y48460D03*
D560*
X239573Y48460D03*
X244317Y48460D03*
D555*
X249569Y48460D03*
D560*
X254821Y48460D03*
D512*
X260074Y48460D03*
D393*
X265157Y48460D03*
D555*
X269901Y48460D03*
D1055*
X320899Y48460D03*
D1060*
X12538Y48121D03*
D578*
X41171Y48121D03*
D806*
X74719Y48121D03*
D433*
X96913Y48121D03*
D534*
X102166Y48121D03*
D710*
X107926Y48121D03*
D510*
X111823Y48121D03*
D382*
X116906Y48121D03*
D529*
X121989Y48121D03*
D510*
X126394Y48121D03*
D569*
X131647Y48121D03*
D591*
X137068Y48121D03*
D389*
X142151Y48121D03*
D534*
X147234Y48121D03*
D710*
X152994Y48121D03*
D391*
X157061Y48121D03*
D569*
X162483Y48121D03*
D254*
X170107Y48121D03*
D510*
X176884Y48121D03*
D389*
X182136Y48121D03*
D254*
X189760Y48121D03*
D515*
X197724Y48121D03*
D534*
X203485Y48121D03*
D433*
X208398Y48121D03*
D591*
X213650Y48121D03*
D710*
X219072Y48121D03*
D389*
X225171Y48121D03*
D489*
X230085Y48121D03*
D710*
X235337Y48121D03*
D391*
X239404Y48121D03*
D510*
X244317Y48121D03*
D389*
X249569Y48121D03*
D534*
X254991Y48121D03*
D569*
X260074Y48121D03*
D534*
X265157Y48121D03*
D433*
X270070Y48121D03*
D1051*
X320899Y48121D03*
D1060*
X12538Y47782D03*
D578*
X41171Y47782D03*
D806*
X74719Y47782D03*
D374*
X96914Y47782D03*
D534*
X102166Y47782D03*
D254*
X109112Y47782D03*
D382*
X116906Y47782D03*
D529*
X121989Y47782D03*
D510*
X126394Y47782D03*
D374*
X131816Y47782D03*
D591*
X137068Y47782D03*
D389*
X142151Y47782D03*
D534*
X147234Y47782D03*
D256*
X154350Y47782D03*
D382*
X162313Y47782D03*
D254*
X170107Y47782D03*
D510*
X176884Y47782D03*
D389*
X182136Y47782D03*
D254*
X189760Y47782D03*
D352*
X197893Y47782D03*
D489*
X203654Y47782D03*
D389*
X208567Y47782D03*
D591*
X213650Y47782D03*
D710*
X219072Y47782D03*
D389*
X225171Y47782D03*
D494*
X229915Y47782D03*
D256*
X237032Y47782D03*
D510*
X244317Y47782D03*
D374*
X249739Y47782D03*
D534*
X254991Y47782D03*
D569*
X260074Y47782D03*
D534*
X265157Y47782D03*
D382*
X270070Y47782D03*
D1051*
X320899Y47782D03*
D1061*
X12708Y47443D03*
D1062*
X41171Y47443D03*
D1063*
X74549Y47443D03*
D371*
X96914Y47443D03*
D564*
X102166Y47443D03*
D383*
X111993Y47443D03*
D941*
X121989Y47443D03*
D564*
X126225Y47443D03*
D1045*
X131646Y47443D03*
D696*
X137068Y47443D03*
D544*
X142151Y47443D03*
D564*
X147234Y47443D03*
D362*
X154350Y47443D03*
D1047*
X162313Y47443D03*
D1048*
X170107Y47443D03*
D531*
X176884Y47443D03*
D544*
X182136Y47443D03*
D1048*
X189760Y47443D03*
D1064*
X197893Y47443D03*
D502*
X203654Y47443D03*
D544*
X208567Y47443D03*
D696*
X213650Y47443D03*
D371*
X218903Y47443D03*
D1045*
X225171Y47443D03*
D602*
X229915Y47443D03*
D741*
X236862Y47443D03*
D564*
X244148Y47443D03*
D1045*
X249569Y47443D03*
D564*
X254991Y47443D03*
D518*
X260074Y47443D03*
D564*
X265157Y47443D03*
D1047*
X270070Y47443D03*
D1049*
X320899Y47443D03*
D242*
X12708Y47104D03*
D1010*
X41171Y47104D03*
D641*
X74549Y47104D03*
D374*
X96914Y47104D03*
D534*
X102166Y47104D03*
D381*
X111823Y47104D03*
D534*
X121820Y47104D03*
X126225Y47104D03*
D710*
X131646Y47104D03*
D591*
X137068Y47104D03*
D389*
X142151Y47104D03*
D529*
X147064Y47104D03*
D256*
X154350Y47104D03*
D382*
X162313Y47104D03*
D254*
X170107Y47104D03*
D510*
X176884Y47104D03*
D389*
X182136Y47104D03*
D254*
X189760Y47104D03*
D963*
X198062Y47104D03*
D489*
X203654Y47104D03*
D389*
X208567Y47104D03*
D591*
X213650Y47104D03*
D374*
X218903Y47104D03*
D256*
X226866Y47104D03*
D359*
X236862Y47104D03*
D534*
X244148Y47104D03*
D523*
X249739Y47104D03*
D529*
X255160Y47104D03*
D569*
X260074Y47104D03*
D534*
X265157Y47104D03*
D569*
X270240Y47104D03*
D1051*
X320899Y47104D03*
D1065*
X12877Y46765D03*
D448*
X41002Y46765D03*
D1066*
X74210Y46765D03*
D1059*
X96744Y46765D03*
D539*
X101996Y46765D03*
D562*
X111315Y46765D03*
D393*
X121820Y46765D03*
X126225Y46765D03*
D1059*
X131646Y46765D03*
D850*
X137068Y46765D03*
D386*
X142151Y46765D03*
D539*
X147064Y46765D03*
D457*
X154180Y46765D03*
D734*
X162313Y46765D03*
D671*
X170107Y46765D03*
D560*
X176884Y46765D03*
D386*
X182136Y46765D03*
D671*
X189760Y46765D03*
D431*
X198062Y46765D03*
D810*
X203654Y46765D03*
D386*
X208567Y46765D03*
D850*
X213650Y46765D03*
D375*
X218903Y46765D03*
D368*
X226866Y46765D03*
D457*
X236862Y46765D03*
D393*
X244148Y46765D03*
D414*
X249739Y46765D03*
D539*
X255160Y46765D03*
D512*
X260074Y46765D03*
D393*
X265157Y46765D03*
D512*
X270240Y46765D03*
D1067*
X304464Y46765D03*
D473*
X351227Y46765D03*
D72*
X13046Y46427D03*
D450*
X41171Y46427D03*
D1068*
X74041Y46427D03*
D710*
X96744Y46427D03*
D529*
X101996Y46427D03*
D523*
X113857Y46427D03*
D510*
X121650Y46427D03*
D534*
X126225Y46427D03*
D710*
X131646Y46427D03*
D591*
X137068Y46427D03*
D389*
X142151Y46427D03*
D529*
X147064Y46427D03*
D598*
X157400Y46427D03*
D515*
X162144Y46427D03*
D254*
X170107Y46427D03*
D510*
X176884Y46427D03*
D389*
X182136Y46427D03*
D254*
X189760Y46427D03*
D963*
X198062Y46427D03*
D591*
X203823Y46427D03*
D606*
X208906Y46427D03*
D591*
X213650Y46427D03*
D374*
X218903Y46427D03*
D256*
X226866Y46427D03*
D489*
X239912Y46427D03*
D534*
X244148Y46427D03*
D523*
X249739Y46427D03*
D529*
X255160Y46427D03*
D569*
X260074Y46427D03*
D510*
X265326Y46427D03*
D391*
X270579Y46427D03*
D1069*
X303109Y46427D03*
D1070*
X352582Y46427D03*
D1053*
X13046Y46088D03*
D639*
X41171Y46088D03*
D1071*
X74041Y46088D03*
D1059*
X96744Y46088D03*
D539*
X101996Y46088D03*
D386*
X113348Y46088D03*
D560*
X121650Y46088D03*
D393*
X126225Y46088D03*
D1059*
X131646Y46088D03*
D850*
X137068Y46088D03*
D386*
X142151Y46088D03*
D539*
X147064Y46088D03*
D561*
X157230Y46088D03*
D693*
X162144Y46088D03*
D671*
X170107Y46088D03*
D560*
X176884Y46088D03*
D386*
X182136Y46088D03*
D671*
X189760Y46088D03*
D431*
X198062Y46088D03*
D850*
X203823Y46088D03*
D561*
X209753Y46088D03*
D850*
X213650Y46088D03*
D375*
X218903Y46088D03*
D671*
X226696Y46088D03*
D810*
X239912Y46088D03*
D393*
X244148Y46088D03*
D414*
X249739Y46088D03*
D539*
X255160Y46088D03*
D512*
X260074Y46088D03*
D560*
X265326Y46088D03*
D425*
X271256Y46088D03*
D1072*
X302431Y46088D03*
D693*
X334284Y46088D03*
D1033*
X353091Y46088D03*
D1052*
X13216Y45749D03*
D256*
X41172Y45749D03*
D884*
X73871Y45749D03*
D710*
X96744Y45749D03*
D529*
X101996Y45749D03*
D606*
X113009Y45749D03*
D433*
X121311Y45749D03*
D534*
X126225Y45749D03*
D710*
X131646Y45749D03*
D591*
X137068Y45749D03*
D389*
X142151Y45749D03*
D529*
X147064Y45749D03*
D600*
X157230Y45749D03*
D515*
X162144Y45749D03*
D254*
X170107Y45749D03*
D510*
X176884Y45749D03*
D389*
X182136Y45749D03*
D254*
X189760Y45749D03*
D352*
X197893Y45749D03*
D510*
X203992Y45749D03*
D591*
X213650Y45749D03*
D374*
X218903Y45749D03*
D254*
X226696Y45749D03*
D489*
X239912Y45749D03*
D534*
X244148Y45749D03*
D523*
X249739Y45749D03*
D529*
X255160Y45749D03*
D569*
X260074Y45749D03*
D391*
X265496Y45749D03*
D1073*
X301923Y45749D03*
D254*
X334453Y45749D03*
D1074*
X353599Y45749D03*
D249*
X13385Y45410D03*
D256*
X41172Y45410D03*
D877*
X73702Y45410D03*
D710*
X96744Y45410D03*
D529*
X101996Y45410D03*
D510*
X112840Y45410D03*
D569*
X121142Y45410D03*
D534*
X126225Y45410D03*
D710*
X131646Y45410D03*
D591*
X137068Y45410D03*
D389*
X142151Y45410D03*
D529*
X147064Y45410D03*
D600*
X157230Y45410D03*
D515*
X162144Y45410D03*
D254*
X170107Y45410D03*
D510*
X176884Y45410D03*
D389*
X182136Y45410D03*
D254*
X189760Y45410D03*
D352*
X197893Y45410D03*
D538*
X203993Y45410D03*
D591*
X213650Y45410D03*
D374*
X218903Y45410D03*
D254*
X226696Y45410D03*
D489*
X239912Y45410D03*
D534*
X244148Y45410D03*
D523*
X249739Y45410D03*
D529*
X255160Y45410D03*
D569*
X260074Y45410D03*
D433*
X265665Y45410D03*
D1075*
X301584Y45410D03*
D250*
X334453Y45410D03*
D765*
X353938Y45410D03*
D1076*
X13385Y45071D03*
D624*
X41172Y45071D03*
D876*
X73532Y45071D03*
D1045*
X96744Y45071D03*
D941*
X101996Y45071D03*
D564*
X112671Y45071D03*
D259*
X120634Y45071D03*
D564*
X126225Y45071D03*
D1045*
X131646Y45071D03*
D696*
X137068Y45071D03*
D544*
X142151Y45071D03*
D941*
X147064Y45071D03*
D601*
X157400Y45071D03*
D594*
X162144Y45071D03*
D1048*
X170107Y45071D03*
D531*
X176884Y45071D03*
D544*
X182136Y45071D03*
D1048*
X189760Y45071D03*
D594*
X197724Y45071D03*
D371*
X204332Y45071D03*
D696*
X213650Y45071D03*
D371*
X218903Y45071D03*
D362*
X226866Y45071D03*
D502*
X239912Y45071D03*
D564*
X244148Y45071D03*
D259*
X249739Y45071D03*
D941*
X255160Y45071D03*
D518*
X260074Y45071D03*
D371*
X266004Y45071D03*
D1077*
X301415Y45071D03*
D1078*
X334453Y45071D03*
D1061*
X354277Y45071D03*
D1079*
X13555Y44732D03*
D625*
X41172Y44732D03*
D873*
X73532Y44732D03*
D710*
X96744Y44732D03*
D529*
X101996Y44732D03*
D382*
X107418Y44732D03*
D529*
X112501Y44732D03*
D73*
X119956Y44732D03*
D534*
X126225Y44732D03*
D710*
X131646Y44732D03*
D591*
X137068Y44732D03*
D389*
X142151Y44732D03*
D529*
X147064Y44732D03*
D382*
X152486Y44732D03*
D598*
X157400Y44732D03*
D382*
X162313Y44732D03*
D254*
X170107Y44732D03*
D510*
X176884Y44732D03*
D389*
X182136Y44732D03*
D254*
X189760Y44732D03*
D417*
X204671Y44732D03*
D591*
X213650Y44732D03*
D374*
X218903Y44732D03*
D256*
X226866Y44732D03*
D374*
X234829Y44732D03*
D489*
X239912Y44732D03*
D534*
X244148Y44732D03*
D523*
X249739Y44732D03*
D529*
X255160Y44732D03*
D569*
X260074Y44732D03*
D963*
X266512Y44732D03*
D1080*
X301076Y44732D03*
D381*
X334453Y44732D03*
D1081*
X354446Y44732D03*
D67*
X13724Y44393D03*
D626*
X41172Y44393D03*
D899*
X73533Y44393D03*
D375*
X96914Y44393D03*
D393*
X102166Y44393D03*
D734*
X107418Y44393D03*
D539*
X112501Y44393D03*
D626*
X119448Y44393D03*
D393*
X126225Y44393D03*
D1059*
X131646Y44393D03*
D850*
X137068Y44393D03*
D386*
X142151Y44393D03*
D393*
X147234Y44393D03*
D693*
X152317Y44393D03*
D70*
X157400Y44393D03*
D734*
X162313Y44393D03*
D671*
X170107Y44393D03*
D560*
X176884Y44393D03*
D386*
X182136Y44393D03*
D671*
X189760Y44393D03*
D448*
X206026Y44393D03*
D850*
X213650Y44393D03*
D375*
X218903Y44393D03*
D1059*
X225171Y44393D03*
D68*
X229915Y44393D03*
D375*
X234829Y44393D03*
D810*
X239912Y44393D03*
D393*
X244148Y44393D03*
D414*
X249739Y44393D03*
D539*
X255160Y44393D03*
D512*
X260074Y44393D03*
D457*
X268037Y44393D03*
D1082*
X307684Y44393D03*
D1083*
X354785Y44393D03*
D776*
X13894Y44055D03*
D479*
X41171Y44055D03*
D900*
X73363Y44055D03*
D374*
X96914Y44055D03*
D534*
X102166Y44055D03*
D382*
X107418Y44055D03*
D598*
X112332Y44055D03*
D254*
X119278Y44055D03*
D534*
X126225Y44055D03*
D710*
X131646Y44055D03*
D591*
X137068Y44055D03*
D389*
X142151Y44055D03*
D534*
X147234Y44055D03*
D382*
X152486Y44055D03*
D598*
X157400Y44055D03*
D382*
X162313Y44055D03*
D254*
X170107Y44055D03*
D510*
X176884Y44055D03*
D389*
X182136Y44055D03*
D254*
X189760Y44055D03*
D1010*
X205856Y44055D03*
D591*
X213650Y44055D03*
D374*
X218903Y44055D03*
X225002Y44055D03*
D494*
X229915Y44055D03*
D374*
X234829Y44055D03*
D489*
X239912Y44055D03*
D534*
X244148Y44055D03*
D710*
X249569Y44055D03*
D534*
X254991Y44055D03*
D569*
X260074Y44055D03*
D359*
X268037Y44055D03*
D1084*
X300568Y44055D03*
D392*
X334453Y44055D03*
D1085*
X354954Y44055D03*
D1033*
X13894Y43716D03*
D917*
X41171Y43716D03*
D866*
X73363Y43716D03*
D375*
X96914Y43716D03*
D393*
X102166Y43716D03*
D734*
X107418Y43716D03*
D539*
X112162Y43716D03*
D512*
X117076Y43716D03*
D393*
X121820Y43716D03*
X126225Y43716D03*
D375*
X131816Y43716D03*
D850*
X137068Y43716D03*
D386*
X142151Y43716D03*
D393*
X147234Y43716D03*
D734*
X152486Y43716D03*
D539*
X157230Y43716D03*
D734*
X162313Y43716D03*
D671*
X170107Y43716D03*
D560*
X176884Y43716D03*
D386*
X182136Y43716D03*
D671*
X189760Y43716D03*
D693*
X202807Y43716D03*
D386*
X208567Y43716D03*
D850*
X213650Y43716D03*
D512*
X219072Y43716D03*
D386*
X225171Y43716D03*
D68*
X229915Y43716D03*
D375*
X234829Y43716D03*
D810*
X239912Y43716D03*
D560*
X244317Y43716D03*
D375*
X249739Y43716D03*
D393*
X254991Y43716D03*
D512*
X260074Y43716D03*
D560*
X265326Y43716D03*
D512*
X270240Y43716D03*
D1086*
X308361Y43716D03*
D1087*
X355124Y43716D03*
D253*
X13724Y43377D03*
D939*
X41171Y43377D03*
D868*
X73533Y43377D03*
D569*
X97083Y43377D03*
D510*
X102335Y43377D03*
D433*
X107418Y43377D03*
D529*
X112162Y43377D03*
D433*
X116906Y43377D03*
D534*
X121820Y43377D03*
D510*
X126394Y43377D03*
D569*
X131647Y43377D03*
D591*
X137068Y43377D03*
D389*
X142151Y43377D03*
D534*
X147234Y43377D03*
D433*
X152486Y43377D03*
D529*
X157230Y43377D03*
D569*
X162483Y43377D03*
D254*
X170107Y43377D03*
D510*
X176884Y43377D03*
D389*
X182136Y43377D03*
D254*
X189760Y43377D03*
D569*
X202807Y43377D03*
D389*
X208567Y43377D03*
D591*
X213650Y43377D03*
D382*
X219241Y43377D03*
D389*
X225171Y43377D03*
D489*
X230085Y43377D03*
D389*
X234998Y43377D03*
D591*
X239742Y43377D03*
D510*
X244317Y43377D03*
D389*
X249569Y43377D03*
D534*
X254991Y43377D03*
D569*
X260074Y43377D03*
D534*
X265157Y43377D03*
D433*
X270070Y43377D03*
D1088*
X308361Y43377D03*
D90*
X355293Y43377D03*
D253*
X13724Y43038D03*
D939*
X41171Y43038D03*
D1089*
X73702Y43038D03*
D391*
X97083Y43038D03*
D510*
X102335Y43038D03*
D433*
X107418Y43038D03*
D534*
X112332Y43038D03*
D433*
X116906Y43038D03*
D534*
X121820Y43038D03*
D510*
X126394Y43038D03*
D391*
X131647Y43038D03*
D591*
X137068Y43038D03*
D391*
X142151Y43038D03*
D510*
X147403Y43038D03*
D433*
X152486Y43038D03*
D534*
X157400Y43038D03*
D391*
X162483Y43038D03*
D254*
X170107Y43038D03*
D510*
X176884Y43038D03*
D391*
X182137Y43038D03*
D254*
X189760Y43038D03*
D433*
X203315Y43038D03*
D391*
X208568Y43038D03*
D510*
X213481Y43038D03*
D433*
X219580Y43038D03*
D391*
X225172Y43038D03*
D534*
X229916Y43038D03*
D606*
X234998Y43038D03*
D591*
X239742Y43038D03*
D510*
X244317Y43038D03*
D433*
X249738Y43038D03*
D510*
X254821Y43038D03*
D391*
X260074Y43038D03*
D534*
X265157Y43038D03*
D391*
X270240Y43038D03*
D1090*
X308531Y43038D03*
D165*
X355463Y43038D03*
D1091*
X13724Y42699D03*
D714*
X41171Y42699D03*
D1092*
X73702Y42699D03*
D941*
X96913Y42699D03*
D535*
X102505Y42699D03*
D941*
X107418Y42699D03*
D531*
X112162Y42699D03*
X116906Y42699D03*
D564*
X121820Y42699D03*
D535*
X126564Y42699D03*
D941*
X131816Y42699D03*
D696*
X137068Y42699D03*
D941*
X142320Y42699D03*
D531*
X147403Y42699D03*
D941*
X152486Y42699D03*
D531*
X157230Y42699D03*
D941*
X162313Y42699D03*
D1048*
X170107Y42699D03*
D531*
X176884Y42699D03*
D502*
X182306Y42699D03*
D1048*
X189760Y42699D03*
D518*
X197385Y42699D03*
D549*
X203315Y42699D03*
D564*
X208568Y42699D03*
D531*
X213481Y42699D03*
D602*
X220766Y42699D03*
D564*
X225172Y42699D03*
D531*
X230085Y42699D03*
D696*
X234998Y42699D03*
X239742Y42699D03*
D859*
X244486Y42699D03*
D564*
X249569Y42699D03*
D531*
X254821Y42699D03*
D941*
X260243Y42699D03*
D531*
X265326Y42699D03*
D564*
X270240Y42699D03*
D1093*
X308700Y42699D03*
D221*
X355632Y42699D03*
D1079*
X13555Y42360D03*
D963*
X41171Y42360D03*
D900*
X74040Y42360D03*
D391*
X102505Y42360D03*
D510*
X112162Y42360D03*
X121650Y42360D03*
D391*
X126564Y42360D03*
D591*
X137068Y42360D03*
D433*
X147403Y42360D03*
D391*
X157400Y42360D03*
D254*
X170107Y42360D03*
D510*
X176884Y42360D03*
D1094*
X189591Y42360D03*
D382*
X197554Y42360D03*
D391*
X203485Y42360D03*
D510*
X213481Y42360D03*
D494*
X220766Y42360D03*
D391*
X229916Y42360D03*
D510*
X239573Y42360D03*
D538*
X244656Y42360D03*
D391*
X254652Y42360D03*
X265157Y42360D03*
D1095*
X308869Y42360D03*
D217*
X355801Y42360D03*
D71*
X13555Y42021D03*
D431*
X41171Y42021D03*
D866*
X74040Y42021D03*
D527*
X102674Y42021D03*
X112162Y42021D03*
D560*
X121650Y42021D03*
D527*
X126733Y42021D03*
D850*
X137068Y42021D03*
D512*
X147573Y42021D03*
X157400Y42021D03*
D671*
X170107Y42021D03*
D560*
X176884Y42021D03*
D1096*
X189591Y42021D03*
D693*
X197724Y42021D03*
D554*
X203654Y42021D03*
D555*
X213312Y42021D03*
D810*
X220936Y42021D03*
D554*
X230085Y42021D03*
D555*
X239404Y42021D03*
D554*
X244656Y42021D03*
X254483Y42021D03*
D527*
X265326Y42021D03*
D1097*
X308869Y42021D03*
D150*
X355971Y42021D03*
D249*
X13385Y41683D03*
D710*
X41171Y41683D03*
D900*
X74379Y41683D03*
D569*
X102844Y41683D03*
D382*
X112162Y41683D03*
D391*
X121481Y41683D03*
D569*
X126903Y41683D03*
D591*
X137068Y41683D03*
D515*
X147573Y41683D03*
D382*
X157230Y41683D03*
D254*
X170107Y41683D03*
D510*
X176884Y41683D03*
D665*
X189422Y41683D03*
D352*
X197893Y41683D03*
D538*
X203993Y41683D03*
D433*
X213142Y41683D03*
D534*
X221105Y41683D03*
D374*
X230085Y41683D03*
D433*
X239234Y41683D03*
D389*
X244825Y41683D03*
X254313Y41683D03*
D382*
X265326Y41683D03*
D1098*
X308869Y41683D03*
D110*
X356140Y41683D03*
D249*
X13385Y41344D03*
D710*
X41171Y41344D03*
D864*
X74549Y41344D03*
D524*
X98608Y41344D03*
D374*
X103013Y41344D03*
D523*
X112162Y41344D03*
D433*
X121311Y41344D03*
D374*
X127072Y41344D03*
D1099*
X133510Y41344D03*
D591*
X137068Y41344D03*
D944*
X140457Y41344D03*
D963*
X147573Y41344D03*
D352*
X157230Y41344D03*
D524*
X164008Y41344D03*
D254*
X170107Y41344D03*
D510*
X176884Y41344D03*
D524*
X180612Y41344D03*
D450*
X189252Y41344D03*
D352*
X197893Y41344D03*
D389*
X204162Y41344D03*
D569*
X212973Y41344D03*
D1099*
X217208Y41344D03*
D510*
X221274Y41344D03*
D523*
X230085Y41344D03*
D569*
X239065Y41344D03*
D710*
X245164Y41344D03*
D374*
X254144Y41344D03*
D524*
X258549Y41344D03*
D523*
X265326Y41344D03*
D1100*
X308869Y41344D03*
D117*
X356310Y41344D03*
D1101*
X13385Y41005D03*
D431*
X41171Y41005D03*
D946*
X74888Y41005D03*
D425*
X98438Y41005D03*
D414*
X103352Y41005D03*
D824*
X112162Y41005D03*
D375*
X120973Y41005D03*
D1059*
X127241Y41005D03*
D1102*
X133341Y41005D03*
D850*
X137068Y41005D03*
D561*
X140626Y41005D03*
D824*
X147742Y41005D03*
X157230Y41005D03*
D425*
X163838Y41005D03*
D671*
X170107Y41005D03*
D560*
X176884Y41005D03*
D561*
X180950Y41005D03*
D448*
X189083Y41005D03*
D991*
X197893Y41005D03*
D1059*
X204501Y41005D03*
D734*
X212803Y41005D03*
D1102*
X217378Y41005D03*
D527*
X221613Y41005D03*
D692*
X230085Y41005D03*
D734*
X238895Y41005D03*
D414*
X245334Y41005D03*
X253805Y41005D03*
D590*
X258888Y41005D03*
D711*
X265495Y41005D03*
D1103*
X319882Y41005D03*
D1052*
X13216Y40666D03*
D479*
X41171Y40666D03*
D1104*
X75396Y40666D03*
D529*
X97930Y40666D03*
D939*
X103860Y40666D03*
D359*
X112162Y40666D03*
D378*
X124192Y40666D03*
D547*
X137068Y40666D03*
D359*
X147742Y40666D03*
X157230Y40666D03*
D494*
X163499Y40666D03*
D101*
X174343Y40666D03*
D250*
X188744Y40666D03*
D352*
X197893Y40666D03*
D417*
X205010Y40666D03*
D1010*
X213989Y40666D03*
D352*
X221952Y40666D03*
D665*
X230085Y40666D03*
D963*
X238387Y40666D03*
D1005*
X245842Y40666D03*
D1105*
X255330Y40666D03*
D256*
X265496Y40666D03*
D1106*
X319374Y40666D03*
D1107*
X13216Y40327D03*
D624*
X41172Y40327D03*
D138*
X77090Y40327D03*
D1108*
X132663Y40327D03*
D1109*
X179934Y40327D03*
D594*
X197724Y40327D03*
D952*
X221614Y40327D03*
D580*
X305312Y40327D03*
D72*
X13046Y39988D03*
D256*
X41172Y39988D03*
D203*
X77260Y39988D03*
D1110*
X132663Y39988D03*
D1056*
X179934Y39988D03*
D515*
X197724Y39988D03*
D868*
X221614Y39988D03*
D1111*
X305312Y39988D03*
D237*
X12538Y39649D03*
D639*
X41171Y39649D03*
D1034*
X77768Y39649D03*
D1112*
X132663Y39649D03*
D1065*
X179934Y39649D03*
D734*
X197554Y39649D03*
D866*
X221444Y39649D03*
D1113*
X305312Y39649D03*
D222*
X11691Y39311D03*
D1010*
X41171Y39311D03*
D1040*
X78615Y39311D03*
D117*
X112332Y39311D03*
D863*
X144523Y39311D03*
D256*
X170277Y39311D03*
D215*
X184339Y39311D03*
D900*
X221444Y39311D03*
D1111*
X305312Y39311D03*
D201*
X10674Y38972D03*
D578*
X41171Y38972D03*
D868*
X79632Y38972D03*
D125*
X112162Y38972D03*
D864*
X144693Y38972D03*
D254*
X170107Y38972D03*
D111*
X184508Y38972D03*
D864*
X221275Y38972D03*
D1111*
X305312Y38972D03*
D1114*
X10505Y38633D03*
D1011*
X41171Y38633D03*
D1115*
X79801Y38633D03*
D135*
X111993Y38633D03*
D866*
X144862Y38633D03*
D626*
X169938Y38633D03*
D1116*
X184678Y38633D03*
D1117*
X221105Y38633D03*
D1113*
X305312Y38633D03*
D196*
X10505Y38294D03*
D547*
X41171Y38294D03*
D1118*
X79801Y38294D03*
D129*
X111993Y38294D03*
D900*
X144862Y38294D03*
D625*
X169938Y38294D03*
D1119*
X184678Y38294D03*
D1120*
X220936Y38294D03*
D1111*
X305312Y38294D03*
D198*
X10505Y37955D03*
D1121*
X41171Y37955D03*
D1122*
X79801Y37955D03*
D140*
X111993Y37955D03*
D1123*
X144862Y37955D03*
D624*
X169938Y37955D03*
D1124*
X184678Y37955D03*
D906*
X220766Y37955D03*
D580*
X305312Y37955D03*
D196*
X10505Y37616D03*
D547*
X41171Y37616D03*
D1118*
X79801Y37616D03*
D125*
X112162Y37616D03*
D864*
X144693Y37616D03*
D254*
X170107Y37616D03*
D111*
X184508Y37616D03*
D853*
X220258Y37616D03*
D1111*
X305312Y37616D03*
D196*
X10505Y37277D03*
D546*
X41002Y37277D03*
D1118*
X79801Y37277D03*
D125*
X112162Y37277D03*
D863*
X144523Y37277D03*
D256*
X170277Y37277D03*
D1125*
X208059Y37277D03*
D1111*
X305312Y37277D03*
D198*
X10505Y36939D03*
D423*
X41171Y36939D03*
D1122*
X79801Y36939D03*
D1108*
X132663Y36939D03*
D1126*
X203654Y36939D03*
D580*
X305312Y36939D03*
D196*
X10505Y36600D03*
D421*
X41171Y36600D03*
D1127*
X214159Y36600D03*
D1114*
X10505Y36261D03*
D426*
X41171Y36261D03*
D1128*
X214159Y36261D03*
D196*
X10505Y35922D03*
D421*
X41171Y35922D03*
D1127*
X214159Y35922D03*
D198*
X10505Y35583D03*
D423*
X41171Y35583D03*
D1129*
X214159Y35583D03*
D196*
X10505Y35244D03*
D421*
X41171Y35244D03*
D1127*
X214159Y35244D03*
D196*
X10505Y34905D03*
D547*
X41171Y34905D03*
D1127*
X214159Y34905D03*
D198*
X10505Y34567D03*
D1121*
X41171Y34567D03*
D1129*
X214159Y34567D03*
D196*
X10505Y34228D03*
D547*
X41171Y34228D03*
D1127*
X214159Y34228D03*
D1114*
X10505Y33889D03*
D1011*
X41171Y33889D03*
D1128*
X214159Y33889D03*
D196*
X10505Y33550D03*
D578*
X41171Y33550D03*
D1127*
X214159Y33550D03*
D109*
X11013Y33211D03*
D1010*
X41171Y33211D03*
D1130*
X213650Y33211D03*
D1131*
X12030Y32872D03*
D448*
X41002Y32872D03*
D1132*
X212634Y32872D03*
D1056*
X12877Y32533D03*
D450*
X41171Y32533D03*
D1133*
X211787Y32533D03*
D1107*
X13216Y32195D03*
D362*
X41172Y32195D03*
D1134*
X211448Y32195D03*
D1052*
X13216Y31856D03*
D422*
X41002Y31856D03*
D1135*
X211448Y31856D03*
D1101*
X13385Y31517D03*
D711*
X41171Y31517D03*
D1136*
X211278Y31517D03*
D249*
X13385Y31178D03*
D710*
X41171Y31178D03*
D1137*
X84545Y31178D03*
D1138*
X163330Y31178D03*
D106*
X224155Y31178D03*
D1026*
X302940Y31178D03*
D1079*
X13555Y30839D03*
D494*
X41171Y30839D03*
D1139*
X84376Y30839D03*
D1138*
X163330Y30839D03*
D106*
X224155Y30839D03*
D1140*
X303278Y30839D03*
D71*
X13555Y30500D03*
D1141*
X84376Y30500D03*
D1142*
X163330Y30500D03*
D150*
X224155Y30500D03*
D635*
X303448Y30500D03*
D1079*
X13555Y30161D03*
D1143*
X84207Y30161D03*
D1138*
X163330Y30161D03*
D106*
X224155Y30161D03*
D588*
X303448Y30161D03*
D1091*
X13724Y29823D03*
D1144*
X84207Y29823D03*
D1145*
X163330Y29823D03*
D185*
X224155Y29823D03*
D452*
X303617Y29823D03*
D253*
X13724Y29484D03*
D1143*
X84207Y29484D03*
D1138*
X163330Y29484D03*
D217*
X224324Y29484D03*
D524*
X236523Y29484D03*
D454*
X303617Y29484D03*
D776*
X13894Y29145D03*
D1146*
X84037Y29145D03*
D1138*
X163330Y29145D03*
D231*
X225002Y29145D03*
D454*
X303617Y29145D03*
D1033*
X13894Y28806D03*
D1147*
X84037Y28806D03*
D1142*
X163330Y28806D03*
D1087*
X225002Y28806D03*
D1148*
X303787Y28806D03*
D776*
X13894Y28467D03*
D1146*
X84037Y28467D03*
D1138*
X163330Y28467D03*
D1085*
X225171Y28467D03*
D1149*
X303787Y28467D03*
D67*
X13724Y28128D03*
D1150*
X84207Y28128D03*
D1142*
X163330Y28128D03*
D1151*
X225171Y28128D03*
D1148*
X303787Y28128D03*
D773*
X13893Y27789D03*
D1143*
X84207Y27789D03*
D1138*
X163330Y27789D03*
D1085*
X225171Y27789D03*
D1152*
X303617Y27789D03*
D758*
X13724Y27451D03*
D1153*
X79801Y27451D03*
D419*
X111146Y27451D03*
D940*
X116906Y27451D03*
D1048*
X123683Y27451D03*
D1045*
X132324Y27451D03*
D1047*
X138593Y27451D03*
D1062*
X146895Y27451D03*
D624*
X158078Y27451D03*
X167905Y27451D03*
D601*
X174682Y27451D03*
D531*
X178578Y27451D03*
D624*
X185186Y27451D03*
X195013Y27451D03*
D592*
X206026Y27451D03*
D834*
X213142Y27451D03*
D259*
X218564Y27451D03*
D424*
X226357Y27451D03*
D550*
X235168Y27451D03*
D261*
X242453Y27451D03*
D1154*
X251433Y27451D03*
D737*
X260752Y27451D03*
D860*
X316833Y27451D03*
D252*
X13554Y27112D03*
D1155*
X79632Y27112D03*
D417*
X111485Y27112D03*
D524*
X116568Y27112D03*
D981*
X123683Y27112D03*
D433*
X132832Y27112D03*
D569*
X138424Y27112D03*
D450*
X146556Y27112D03*
D417*
X158247Y27112D03*
X168074Y27112D03*
D636*
X175020Y27112D03*
D534*
X178748Y27112D03*
D73*
X185017Y27112D03*
D939*
X195013Y27112D03*
D665*
X206365Y27112D03*
D636*
X212972Y27112D03*
D374*
X218903Y27112D03*
D73*
X226019Y27112D03*
D710*
X235676Y27112D03*
X242114Y27112D03*
D417*
X251433Y27112D03*
D963*
X260751Y27112D03*
D903*
X316833Y27112D03*
D252*
X13554Y26773D03*
D1156*
X79293Y26773D03*
D352*
X111823Y26773D03*
D963*
X123514Y26773D03*
D391*
X133002Y26773D03*
D569*
X138424Y26773D03*
D665*
X146387Y26773D03*
D710*
X158077Y26773D03*
D523*
X168074Y26773D03*
D534*
X178748Y26773D03*
D417*
X184678Y26773D03*
D523*
X195183Y26773D03*
D254*
X206703Y26773D03*
D433*
X219241Y26773D03*
D417*
X225680Y26773D03*
D382*
X235845Y26773D03*
D389*
X241775Y26773D03*
D374*
X251433Y26773D03*
X260921Y26773D03*
D903*
X316833Y26773D03*
D763*
X13385Y26434D03*
D1157*
X79293Y26434D03*
D693*
X111993Y26434D03*
D1059*
X123514Y26434D03*
D560*
X133171Y26434D03*
D512*
X138424Y26434D03*
D671*
X146048Y26434D03*
D386*
X158077Y26434D03*
D375*
X168074Y26434D03*
D393*
X178748Y26434D03*
D431*
X184508Y26434D03*
D512*
X195013Y26434D03*
D626*
X206873Y26434D03*
D555*
X219411Y26434D03*
D431*
X225510Y26434D03*
D512*
X236015Y26434D03*
D527*
X241606Y26434D03*
X251433Y26434D03*
D386*
X261090Y26434D03*
D1158*
X316833Y26434D03*
D1159*
X13215Y26095D03*
D1160*
X79293Y26095D03*
D382*
X112162Y26095D03*
D569*
X123514Y26095D03*
D534*
X133341Y26095D03*
D569*
X138424Y26095D03*
D254*
X146048Y26095D03*
D391*
X158078Y26095D03*
D389*
X168243Y26095D03*
D534*
X178748Y26095D03*
D963*
X184508Y26095D03*
D391*
X195013Y26095D03*
D422*
X207042Y26095D03*
D391*
X219411Y26095D03*
D523*
X225341Y26095D03*
D433*
X236184Y26095D03*
D391*
X241437Y26095D03*
D510*
X251433Y26095D03*
D391*
X261091Y26095D03*
D862*
X316663Y26095D03*
D237*
X13215Y25756D03*
D1161*
X79123Y25756D03*
D512*
X112332Y25756D03*
D590*
X118262Y25756D03*
D555*
X123514Y25756D03*
D1102*
X128936Y25756D03*
D539*
X133510Y25756D03*
D512*
X138424Y25756D03*
D626*
X145879Y25756D03*
D539*
X153164Y25756D03*
D555*
X158078Y25756D03*
D425*
X163160Y25756D03*
D605*
X168243Y25756D03*
D507*
X173157Y25756D03*
D393*
X178748Y25756D03*
D414*
X184339Y25756D03*
D590*
X190100Y25756D03*
D555*
X195013Y25756D03*
D561*
X200265Y25756D03*
D355*
X207042Y25756D03*
D1102*
X214667Y25756D03*
D560*
X219580Y25756D03*
D414*
X225341Y25756D03*
D1102*
X231271Y25756D03*
D555*
X236354Y25756D03*
D560*
X241267Y25756D03*
D590*
X246689Y25756D03*
D560*
X251433Y25756D03*
D590*
X256177Y25756D03*
D555*
X261091Y25756D03*
D901*
X316663Y25756D03*
D1060*
X13215Y25417D03*
D1162*
X79124Y25417D03*
D391*
X106571Y25417D03*
D433*
X112501Y25417D03*
D510*
X118261Y25417D03*
D391*
X123514Y25417D03*
X128936Y25417D03*
D534*
X133341Y25417D03*
D569*
X138424Y25417D03*
D422*
X145709Y25417D03*
D433*
X153164Y25417D03*
D534*
X158078Y25417D03*
D510*
X162991Y25417D03*
X168412Y25417D03*
X173495Y25417D03*
D534*
X178748Y25417D03*
D710*
X184169Y25417D03*
D510*
X190099Y25417D03*
D534*
X195013Y25417D03*
D391*
X200435Y25417D03*
D625*
X206873Y25417D03*
D510*
X214497Y25417D03*
X219580Y25417D03*
D710*
X225171Y25417D03*
D510*
X231101Y25417D03*
D391*
X236354Y25417D03*
D510*
X241267Y25417D03*
D538*
X246689Y25417D03*
D510*
X251094Y25417D03*
X256177Y25417D03*
X261260Y25417D03*
D852*
X315816Y25417D03*
D1163*
X13046Y25078D03*
D1164*
X79124Y25078D03*
D569*
X106571Y25078D03*
D391*
X112671Y25078D03*
D538*
X118262Y25078D03*
D534*
X123514Y25078D03*
D382*
X129105Y25078D03*
D510*
X133171Y25078D03*
D569*
X138424Y25078D03*
D422*
X145709Y25078D03*
D569*
X152995Y25078D03*
D534*
X158078Y25078D03*
D433*
X162991Y25078D03*
D510*
X168412Y25078D03*
D433*
X173495Y25078D03*
D534*
X178748Y25078D03*
D710*
X184169Y25078D03*
D433*
X190099Y25078D03*
D534*
X195013Y25078D03*
D382*
X200265Y25078D03*
D254*
X206703Y25078D03*
D433*
X214497Y25078D03*
D534*
X219750Y25078D03*
D710*
X225171Y25078D03*
D433*
X231101Y25078D03*
D510*
X236523Y25078D03*
D534*
X241098Y25078D03*
D374*
X246689Y25078D03*
D391*
X250925Y25078D03*
D433*
X256177Y25078D03*
D510*
X261260Y25078D03*
D852*
X315816Y25078D03*
D1165*
X12877Y24740D03*
D1166*
X79293Y24740D03*
D1045*
X106571Y24740D03*
D535*
X112671Y24740D03*
D371*
X118262Y24740D03*
D564*
X123514Y24740D03*
D259*
X129105Y24740D03*
D535*
X133002Y24740D03*
D518*
X138424Y24740D03*
D424*
X145709Y24740D03*
D518*
X152995Y24740D03*
D941*
X157908Y24740D03*
D371*
X162991Y24740D03*
D696*
X168243Y24740D03*
D518*
X173665Y24740D03*
D564*
X178748Y24740D03*
D1047*
X184000Y24740D03*
D371*
X190100Y24740D03*
D601*
X195013Y24740D03*
D594*
X200435Y24740D03*
D362*
X206534Y24740D03*
D1047*
X214497Y24740D03*
D564*
X219750Y24740D03*
D371*
X225002Y24740D03*
D1047*
X231101Y24740D03*
D531*
X236523Y24740D03*
D564*
X241098Y24740D03*
D259*
X246689Y24740D03*
D535*
X250586Y24740D03*
D371*
X256177Y24740D03*
D531*
X261260Y24740D03*
D1167*
X315816Y24740D03*
D1085*
X13046Y24401D03*
D182*
X79124Y24401D03*
D963*
X106571Y24401D03*
D510*
X112840Y24401D03*
D374*
X118262Y24401D03*
D529*
X123344Y24401D03*
D359*
X130460Y24401D03*
D569*
X138424Y24401D03*
D422*
X145709Y24401D03*
D382*
X152825Y24401D03*
D529*
X157908Y24401D03*
D710*
X163160Y24401D03*
D489*
X168413Y24401D03*
D374*
X173496Y24401D03*
D534*
X178748Y24401D03*
D382*
X184000Y24401D03*
D374*
X190100Y24401D03*
D598*
X195013Y24401D03*
D378*
X204162Y24401D03*
D382*
X214497Y24401D03*
D534*
X219750Y24401D03*
D374*
X225002Y24401D03*
D515*
X231271Y24401D03*
D534*
X236693Y24401D03*
X241098Y24401D03*
D256*
X248214Y24401D03*
D374*
X256177Y24401D03*
D591*
X261429Y24401D03*
D1168*
X315647Y24401D03*
D1151*
X13046Y24062D03*
D1169*
X79124Y24062D03*
D711*
X106571Y24062D03*
D560*
X112840Y24062D03*
D375*
X118262Y24062D03*
D539*
X123344Y24062D03*
D457*
X130460Y24062D03*
D512*
X138424Y24062D03*
D376*
X148420Y24062D03*
D539*
X157908Y24062D03*
D1059*
X163160Y24062D03*
D810*
X168413Y24062D03*
D375*
X173496Y24062D03*
D393*
X178748Y24062D03*
D734*
X184000Y24062D03*
D1096*
X191963Y24062D03*
D562*
X204162Y24062D03*
D693*
X214667Y24062D03*
D539*
X219919Y24062D03*
D375*
X225002Y24062D03*
D693*
X231271Y24062D03*
D393*
X236693Y24062D03*
D539*
X240928Y24062D03*
D457*
X248044Y24062D03*
D1035*
X258380Y24062D03*
D1170*
X315647Y24062D03*
D236*
X13216Y23723D03*
D177*
X78954Y23723D03*
D939*
X106571Y23723D03*
D510*
X112840Y23723D03*
D374*
X118262Y23723D03*
D598*
X123514Y23723D03*
D359*
X130460Y23723D03*
D569*
X138424Y23723D03*
D1171*
X148251Y23723D03*
D598*
X157739Y23723D03*
D523*
X162991Y23723D03*
D489*
X168413Y23723D03*
D374*
X173496Y23723D03*
D534*
X178748Y23723D03*
D382*
X184000Y23723D03*
D254*
X191794Y23723D03*
D1172*
X203993Y23723D03*
D515*
X214667Y23723D03*
D529*
X219919Y23723D03*
D569*
X224833Y23723D03*
D523*
X231102Y23723D03*
D534*
X236693Y23723D03*
D529*
X240928Y23723D03*
D256*
X247875Y23723D03*
D825*
X258210Y23723D03*
D1168*
X315647Y23723D03*
D968*
X13554Y23384D03*
D166*
X78615Y23384D03*
D711*
X106571Y23384D03*
D850*
X113009Y23384D03*
D1059*
X118431Y23384D03*
D70*
X123514Y23384D03*
D457*
X130460Y23384D03*
D512*
X138424Y23384D03*
D1173*
X147573Y23384D03*
D539*
X157569Y23384D03*
D414*
X162991Y23384D03*
D810*
X168413Y23384D03*
D375*
X173496Y23384D03*
D393*
X178748Y23384D03*
D734*
X184000Y23384D03*
D368*
X191625Y23384D03*
D657*
X203993Y23384D03*
D693*
X214667Y23384D03*
D539*
X219919Y23384D03*
D512*
X224833Y23384D03*
D414*
X231102Y23384D03*
D393*
X236693Y23384D03*
D539*
X240928Y23384D03*
D368*
X247875Y23384D03*
D377*
X258210Y23384D03*
D854*
X315477Y23384D03*
D79*
X13724Y23045D03*
D529*
X33886Y23045D03*
D489*
X48457Y23045D03*
D1164*
X78446Y23045D03*
D979*
X106571Y23045D03*
D591*
X113009Y23045D03*
D710*
X118431Y23045D03*
D598*
X123514Y23045D03*
X133680Y23045D03*
D569*
X138424Y23045D03*
D250*
X147065Y23045D03*
D534*
X157400Y23045D03*
D523*
X162991Y23045D03*
D489*
X168413Y23045D03*
D374*
X173496Y23045D03*
D534*
X178748Y23045D03*
D569*
X183831Y23045D03*
D256*
X191625Y23045D03*
D979*
X207212Y23045D03*
D515*
X214667Y23045D03*
D529*
X219919Y23045D03*
D569*
X224833Y23045D03*
D523*
X231102Y23045D03*
D534*
X236693Y23045D03*
D529*
X240928Y23045D03*
D537*
X251094Y23045D03*
D825*
X258210Y23045D03*
D907*
X315477Y23045D03*
D1060*
X13893Y22706D03*
D538*
X34225Y22706D03*
D391*
X48288Y22706D03*
D1174*
X78276Y22706D03*
D979*
X106571Y22706D03*
D591*
X113009Y22706D03*
D710*
X118431Y22706D03*
D598*
X123514Y22706D03*
X133680Y22706D03*
D569*
X138424Y22706D03*
D450*
X146556Y22706D03*
D510*
X157230Y22706D03*
D963*
X163160Y22706D03*
D489*
X168413Y22706D03*
D374*
X173496Y22706D03*
D534*
X178748Y22706D03*
D569*
X183831Y22706D03*
D256*
X191625Y22706D03*
D979*
X207212Y22706D03*
D515*
X214667Y22706D03*
D529*
X219919Y22706D03*
D569*
X224833Y22706D03*
D523*
X231102Y22706D03*
D534*
X236693Y22706D03*
D529*
X240928Y22706D03*
D537*
X251094Y22706D03*
D825*
X258210Y22706D03*
D907*
X315477Y22706D03*
D1061*
X14063Y22368D03*
D259*
X34225Y22368D03*
X48118Y22368D03*
D1175*
X78107Y22368D03*
D737*
X106571Y22368D03*
D696*
X113009Y22368D03*
D1045*
X118431Y22368D03*
D601*
X123514Y22368D03*
X133680Y22368D03*
D518*
X138424Y22368D03*
D663*
X146387Y22368D03*
D535*
X157061Y22368D03*
D261*
X163160Y22368D03*
D502*
X168413Y22368D03*
D371*
X173496Y22368D03*
D564*
X178748Y22368D03*
D518*
X183831Y22368D03*
D362*
X191625Y22368D03*
D737*
X207212Y22368D03*
D594*
X214667Y22368D03*
D941*
X219919Y22368D03*
D518*
X224833Y22368D03*
D259*
X231102Y22368D03*
D564*
X236693Y22368D03*
D941*
X240928Y22368D03*
D834*
X251094Y22368D03*
D363*
X258210Y22368D03*
D1176*
X315477Y22368D03*
D242*
X14402Y22029D03*
D939*
X34394Y22029D03*
X47948Y22029D03*
D1177*
X77937Y22029D03*
D979*
X106571Y22029D03*
D591*
X113009Y22029D03*
D710*
X118431Y22029D03*
D598*
X123514Y22029D03*
D529*
X133510Y22029D03*
D569*
X138424Y22029D03*
D256*
X146218Y22029D03*
D569*
X156722Y22029D03*
D523*
X162991Y22029D03*
D489*
X168413Y22029D03*
D374*
X173496Y22029D03*
D534*
X178748Y22029D03*
D569*
X183831Y22029D03*
D256*
X191625Y22029D03*
D979*
X207212Y22029D03*
D515*
X214667Y22029D03*
D529*
X219919Y22029D03*
D569*
X224833Y22029D03*
D523*
X231102Y22029D03*
D534*
X236693Y22029D03*
D529*
X240928Y22029D03*
D537*
X251094Y22029D03*
D825*
X258210Y22029D03*
D856*
X315308Y22029D03*
D1178*
X14571Y21690D03*
D1179*
X34225Y21690D03*
D380*
X47949Y21690D03*
D1161*
X77768Y21690D03*
D380*
X106571Y21690D03*
D850*
X113009Y21690D03*
D1059*
X118431Y21690D03*
D70*
X123514Y21690D03*
D539*
X133510Y21690D03*
D512*
X138424Y21690D03*
D671*
X146048Y21690D03*
D431*
X156044Y21690D03*
D414*
X162991Y21690D03*
D810*
X168413Y21690D03*
D375*
X173496Y21690D03*
D393*
X178748Y21690D03*
D734*
X184000Y21690D03*
D368*
X191625Y21690D03*
D380*
X207212Y21690D03*
D693*
X214667Y21690D03*
D539*
X219919Y21690D03*
D512*
X224833Y21690D03*
D414*
X231102Y21690D03*
D393*
X236693Y21690D03*
D539*
X240928Y21690D03*
D590*
X251094Y21690D03*
D377*
X258210Y21690D03*
D1180*
X315308Y21690D03*
D1159*
X14910Y21351D03*
D625*
X34056Y21351D03*
X48288Y21351D03*
D1160*
X77599Y21351D03*
D979*
X106571Y21351D03*
D591*
X113009Y21351D03*
D374*
X118262Y21351D03*
D529*
X123344Y21351D03*
D515*
X128597Y21351D03*
D529*
X133510Y21351D03*
D569*
X138424Y21351D03*
D625*
X145879Y21351D03*
D73*
X155536Y21351D03*
D523*
X162991Y21351D03*
D489*
X168413Y21351D03*
D374*
X173496Y21351D03*
D534*
X178748Y21351D03*
D382*
X184000Y21351D03*
D254*
X191794Y21351D03*
D710*
X199757Y21351D03*
D979*
X207212Y21351D03*
D515*
X214667Y21351D03*
D529*
X219919Y21351D03*
D569*
X224833Y21351D03*
D523*
X231102Y21351D03*
D534*
X236693Y21351D03*
D529*
X240928Y21351D03*
D710*
X246180Y21351D03*
D537*
X251094Y21351D03*
D825*
X258210Y21351D03*
D856*
X315308Y21351D03*
D1053*
X15079Y21012D03*
D671*
X33886Y21012D03*
X48457Y21012D03*
D1181*
X77429Y21012D03*
D380*
X106571Y21012D03*
D850*
X113009Y21012D03*
D375*
X118262Y21012D03*
D539*
X123344Y21012D03*
D734*
X128427Y21012D03*
D539*
X133510Y21012D03*
D512*
X138424Y21012D03*
D626*
X145879Y21012D03*
D671*
X155197Y21012D03*
D1059*
X163160Y21012D03*
D810*
X168413Y21012D03*
D375*
X173496Y21012D03*
D393*
X178748Y21012D03*
D734*
X184000Y21012D03*
D375*
X190100Y21012D03*
D70*
X195013Y21012D03*
D734*
X199926Y21012D03*
D380*
X207212Y21012D03*
D734*
X214497Y21012D03*
D539*
X219919Y21012D03*
D375*
X225002Y21012D03*
D693*
X231271Y21012D03*
D393*
X236693Y21012D03*
X241098Y21012D03*
D1059*
X246180Y21012D03*
D539*
X251094Y21012D03*
D375*
X256177Y21012D03*
D850*
X261429Y21012D03*
D1182*
X315138Y21012D03*
D1052*
X15249Y20673D03*
D360*
X33717Y20673D03*
D450*
X48626Y20673D03*
D1183*
X77260Y20673D03*
D979*
X106571Y20673D03*
D591*
X113009Y20673D03*
D374*
X118262Y20673D03*
D529*
X123344Y20673D03*
D382*
X128427Y20673D03*
D529*
X133510Y20673D03*
D569*
X138424Y20673D03*
D625*
X145879Y20673D03*
D254*
X155197Y20673D03*
D710*
X163160Y20673D03*
D489*
X168413Y20673D03*
D374*
X173496Y20673D03*
D534*
X178748Y20673D03*
D382*
X184000Y20673D03*
D374*
X190100Y20673D03*
D598*
X195013Y20673D03*
D382*
X199926Y20673D03*
D422*
X207042Y20673D03*
D382*
X214497Y20673D03*
D534*
X219750Y20673D03*
D374*
X225002Y20673D03*
D382*
X231101Y20673D03*
D534*
X236693Y20673D03*
X241098Y20673D03*
D374*
X246350Y20673D03*
D529*
X251094Y20673D03*
D374*
X256177Y20673D03*
D510*
X261260Y20673D03*
D1184*
X315138Y20673D03*
D806*
X19824Y20334D03*
D1185*
X72855Y20334D03*
D979*
X106571Y20334D03*
D591*
X113009Y20334D03*
D389*
X118092Y20334D03*
D534*
X123514Y20334D03*
D569*
X128597Y20334D03*
D529*
X133510Y20334D03*
D569*
X138424Y20334D03*
D625*
X145879Y20334D03*
D433*
X153164Y20334D03*
D529*
X157908Y20334D03*
D389*
X163160Y20334D03*
D591*
X168243Y20334D03*
D374*
X173496Y20334D03*
D534*
X178748Y20334D03*
D569*
X184170Y20334D03*
X190269Y20334D03*
D529*
X194843Y20334D03*
D569*
X199757Y20334D03*
D422*
X207042Y20334D03*
D382*
X214497Y20334D03*
D534*
X219750Y20334D03*
D389*
X225171Y20334D03*
D382*
X231101Y20334D03*
D510*
X236523Y20334D03*
D534*
X241098Y20334D03*
D569*
X246181Y20334D03*
D529*
X251094Y20334D03*
D569*
X256008Y20334D03*
D510*
X261260Y20334D03*
D862*
X314969Y20334D03*
D1186*
X19824Y19996D03*
D1187*
X72855Y19996D03*
D737*
X106571Y19996D03*
D696*
X113009Y19996D03*
D548*
X118262Y19996D03*
D564*
X123514Y19996D03*
D535*
X128597Y19996D03*
D564*
X133341Y19996D03*
D549*
X138593Y19996D03*
D624*
X145879Y19996D03*
D549*
X153164Y19996D03*
D564*
X158078Y19996D03*
D549*
X162991Y19996D03*
D696*
X168243Y19996D03*
D371*
X173496Y19996D03*
D564*
X178748Y19996D03*
D544*
X184508Y19996D03*
D549*
X190099Y19996D03*
D564*
X195013Y19996D03*
D549*
X199926Y19996D03*
D424*
X207042Y19996D03*
D549*
X214497Y19996D03*
D564*
X219750Y19996D03*
D544*
X225510Y19996D03*
D549*
X231101Y19996D03*
D531*
X236523Y19996D03*
X241267Y19996D03*
D549*
X246350Y19996D03*
D564*
X251264Y19996D03*
D549*
X256177Y19996D03*
D531*
X261260Y19996D03*
D1188*
X314969Y19996D03*
D716*
X19993Y19657D03*
D1185*
X72855Y19657D03*
D979*
X106571Y19657D03*
D591*
X113009Y19657D03*
D510*
X118261Y19657D03*
D391*
X123514Y19657D03*
D534*
X128597Y19657D03*
X133341Y19657D03*
D510*
X138593Y19657D03*
D625*
X145879Y19657D03*
D391*
X152995Y19657D03*
D510*
X157908Y19657D03*
X162991Y19657D03*
X168074Y19657D03*
D374*
X173496Y19657D03*
D534*
X178748Y19657D03*
D598*
X185525Y19657D03*
D510*
X190099Y19657D03*
D534*
X195013Y19657D03*
D510*
X199926Y19657D03*
D625*
X206873Y19657D03*
D510*
X214497Y19657D03*
X219580Y19657D03*
D598*
X226527Y19657D03*
D510*
X231101Y19657D03*
D391*
X236354Y19657D03*
D510*
X241267Y19657D03*
X246350Y19657D03*
X251094Y19657D03*
X256177Y19657D03*
X261260Y19657D03*
D867*
X314800Y19657D03*
D715*
X19993Y19318D03*
D1189*
X72855Y19318D03*
D380*
X106571Y19318D03*
D850*
X113009Y19318D03*
D555*
X123514Y19318D03*
D560*
X133171Y19318D03*
D671*
X146048Y19318D03*
D70*
X152995Y19318D03*
D555*
X158078Y19318D03*
D560*
X168074Y19318D03*
D375*
X173496Y19318D03*
D393*
X178748Y19318D03*
D539*
X185694Y19318D03*
D555*
X195013Y19318D03*
D626*
X206873Y19318D03*
D560*
X219580Y19318D03*
D70*
X226866Y19318D03*
D555*
X236354Y19318D03*
X241437Y19318D03*
X251264Y19318D03*
D561*
X260243Y19318D03*
D1190*
X315477Y19318D03*
D806*
X20162Y18979D03*
D1191*
X72685Y18979D03*
D979*
X106571Y18979D03*
D591*
X113009Y18979D03*
D569*
X123514Y18979D03*
D510*
X133171Y18979D03*
D256*
X145879Y18979D03*
D389*
X158077Y18979D03*
D391*
X167905Y18979D03*
D374*
X173496Y18979D03*
D534*
X178748Y18979D03*
X185864Y18979D03*
D433*
X195182Y18979D03*
D254*
X206703Y18979D03*
D391*
X219411Y18979D03*
D598*
X226866Y18979D03*
D433*
X236184Y18979D03*
D391*
X241437Y18979D03*
D433*
X251094Y18979D03*
D598*
X260074Y18979D03*
D880*
X315647Y18979D03*
D1192*
X20331Y18640D03*
D1191*
X72685Y18640D03*
D979*
X106571Y18640D03*
D591*
X113009Y18640D03*
D710*
X123514Y18640D03*
D391*
X133002Y18640D03*
D359*
X146048Y18640D03*
D389*
X158077Y18640D03*
D433*
X167735Y18640D03*
D374*
X173496Y18640D03*
D534*
X178748Y18640D03*
X185864Y18640D03*
D382*
X195182Y18640D03*
D256*
X206534Y18640D03*
D433*
X219241Y18640D03*
D529*
X227035Y18640D03*
D569*
X236015Y18640D03*
D433*
X241606Y18640D03*
D382*
X251094Y18640D03*
D598*
X260074Y18640D03*
D888*
X315477Y18640D03*
D1193*
X20331Y18301D03*
D1194*
X72685Y18301D03*
D711*
X106571Y18301D03*
D850*
X113009Y18301D03*
D431*
X123514Y18301D03*
D527*
X132832Y18301D03*
D507*
X136899Y18301D03*
D448*
X146048Y18301D03*
D414*
X158247Y18301D03*
D512*
X167566Y18301D03*
D375*
X173496Y18301D03*
D393*
X178748Y18301D03*
D555*
X186203Y18301D03*
D414*
X195183Y18301D03*
D1195*
X206365Y18301D03*
D527*
X219241Y18301D03*
D560*
X227374Y18301D03*
D734*
X235845Y18301D03*
D375*
X241945Y18301D03*
D414*
X251094Y18301D03*
D539*
X259904Y18301D03*
D889*
X315477Y18301D03*
D1196*
X20501Y17962D03*
D1197*
X72855Y17962D03*
D939*
X106571Y17962D03*
D510*
X112840Y17962D03*
D636*
X116398Y17962D03*
D981*
X123683Y17962D03*
D374*
X132494Y17962D03*
D636*
X137068Y17962D03*
D250*
X146048Y17962D03*
D939*
X158077Y17962D03*
D515*
X167227Y17962D03*
D374*
X173496Y17962D03*
D534*
X178748Y17962D03*
D524*
X182306Y17962D03*
D433*
X186372Y17962D03*
D939*
X195013Y17962D03*
D450*
X206195Y17962D03*
D636*
X212972Y17962D03*
D374*
X218903Y17962D03*
D524*
X223308Y17962D03*
D391*
X227544Y17962D03*
D523*
X235507Y17962D03*
D710*
X242114Y17962D03*
D939*
X251263Y17962D03*
D510*
X259565Y17962D03*
D1198*
X315308Y17962D03*
D1199*
X20501Y17624D03*
D1200*
X72855Y17624D03*
D261*
X106571Y17624D03*
D531*
X112840Y17624D03*
D601*
X116737Y17624D03*
D1048*
X123683Y17624D03*
D259*
X132155Y17624D03*
D502*
X137238Y17624D03*
D423*
X146217Y17624D03*
D624*
X158078Y17624D03*
D985*
X167057Y17624D03*
D371*
X173496Y17624D03*
D531*
X178578Y17624D03*
D602*
X182475Y17624D03*
D371*
X186711Y17624D03*
D624*
X195013Y17624D03*
D984*
X206026Y17624D03*
D941*
X213142Y17624D03*
D259*
X218564Y17624D03*
D602*
X223477Y17624D03*
D371*
X227713Y17624D03*
D550*
X235168Y17624D03*
X242284Y17624D03*
D624*
X251264Y17624D03*
D548*
X259227Y17624D03*
D891*
X315138Y17624D03*
D1201*
X20670Y17285D03*
D1202*
X72685Y17285D03*
D963*
X106571Y17285D03*
D358*
X186881Y17285D03*
D870*
X314291Y17285D03*
D1203*
X20840Y16946D03*
D1204*
X72855Y16946D03*
D1059*
X106571Y16946D03*
D356*
X186881Y16946D03*
D1205*
X314291Y16946D03*
D1201*
X21009Y16607D03*
D1206*
X72685Y16607D03*
D569*
X106571Y16607D03*
D353*
X186711Y16607D03*
D872*
X314122Y16607D03*
D880*
X53032Y16268D03*
D534*
X106571Y16268D03*
D1149*
X174682Y16268D03*
D217*
X250755Y16268D03*
D1207*
X313952Y16268D03*
D1208*
X53201Y15929D03*
D1209*
X174173Y15929D03*
D190*
X251094Y15929D03*
D1210*
X313952Y15929D03*
D872*
X53540Y15590D03*
D1152*
X173834Y15590D03*
D117*
X251264Y15590D03*
D888*
X313783Y15590D03*
D1211*
X53709Y15252D03*
D1212*
X173665Y15252D03*
D1213*
X251264Y15252D03*
D1214*
X313614Y15252D03*
D1215*
X54048Y14913D03*
D454*
X173495Y14913D03*
D1216*
X301245Y14913D03*
D1217*
X54556Y14574D03*
D570*
X173326Y14574D03*
D958*
X301076Y14574D03*
D1218*
X54895Y14235D03*
D1219*
X172987Y14235D03*
D1220*
X300906Y14235D03*
D1021*
X121820Y13896D03*
D1221*
X300398Y13896D03*
D1222*
X183492Y13557D03*
D49*
X183492Y13218D03*
D1223*
X183492Y12880D03*
D1224*
X183492Y12541D03*
D45*
X183492Y12202D03*
D1225*
X183492Y11863D03*
D44*
X183492Y11524D03*
D1226*
X183492Y11185D03*
D1227*
X183492Y10846D03*
D40*
X183492Y10508D03*
D39*
X183492Y10169D03*
D38*
X183492Y9830D03*
D1228*
X183492Y9491D03*
D1229*
X183492Y9152D03*
D1230*
X183492Y8813D03*
D1231*
X183492Y8474D03*
D33*
X183492Y8136D03*
D32*
X183492Y7797D03*
D31*
X183492Y7458D03*
D1232*
X183492Y7119D03*
D1233*
X183492Y6780D03*
D1234*
X183492Y6441D03*
D27*
X183492Y6102D03*
D26*
X183492Y5764D03*
D1235*
X183492Y5425D03*
D1236*
X183492Y5086D03*
D1237*
X183492Y4747D03*
D1238*
X183492Y4408D03*
D21*
X183492Y4069D03*
D20*
X183492Y3730D03*
D19*
X183492Y3392D03*
D1239*
X183492Y3053D03*
D1240*
X183492Y2714D03*
D1241*
X183492Y2375D03*
D1242*
X183323Y2036D03*
D14*
X183492Y1697D03*
D1243*
X183492Y1358D03*
D1244*
X183492Y1020D03*
D893*
X183492Y681D03*
D1245*
X183492Y342D03*
M02*
