M48
;GenerationSoftware,Autodesk,EAGLE,9.6.2*%
;CreationDate,2024-07-22T17:53:41Z*%
FMAT,2
ICI,OFF
METRIC,TZ,000.000
T5C0.300
T4C0.350
T3C0.800
T2C0.950
T1C1.000
%
G90
M71
T1
X51769Y51333
X43789Y51333
T2
X35160Y55219
X32860Y55219
T3
X20246Y52369
X25479Y52369
X25225Y52369
X26368Y55316
X26368Y54808
X19357Y54808
X19357Y55316
X20500Y52369
T4
X14442Y3284
X8284Y3274
T5
X18618Y17658
X20768Y19858
X47917Y21907
X48967Y8408
X53267Y18208
X52917Y13757
X31117Y5707
X12217Y9558
X52367Y26857
X29767Y46057
X20818Y53807
X39093Y52917
X32868Y41208
X55917Y41358
X54617Y42708
X7367Y49407
X53167Y50957
X56067Y50907
X35718Y44307
X56067Y26907
X24917Y31707
X50067Y42308
X50067Y43108
X23667Y42808
X7817Y13357
X20768Y49557
X1667Y46707
X22867Y53857
X24867Y39958
X30617Y43957
X22117Y19008
X22817Y42808
X22817Y43658
X24517Y41958
X23667Y41958
X24517Y43658
X23667Y43658
X24517Y42808
X22817Y41958
X30317Y33108
X30317Y32307
X28567Y33108
X28567Y32307
X32067Y33108
X32067Y32307
X10918Y42258
X10918Y43108
X4618Y8157
X33718Y50807
X33954Y53729
X46167Y55157
X24917Y53807
X29567Y11907
X6467Y52557
X52167Y55157
X42068Y15257
X50167Y55157
X33718Y48157
X48167Y55157
X29317Y21907
X27017Y30457
X49317Y29607
X11967Y14607
X51117Y28407
X52417Y38408
X56017Y38408
X39068Y48957
X49417Y39158
X38368Y41408
X40018Y42908
X7317Y46757
X52917Y29607
X56867Y9258
X37068Y17358
X23217Y31707
X20600Y11350
X18150Y4650
X12850Y24050
X29567Y19408
X32567Y36608
X25317Y48707
X20618Y30157
X22117Y30157
X10218Y35308
X11017Y35308
X15867Y36608
X15767Y35408
X10218Y40958
X11217Y40958
X12167Y40958
X13117Y40958
X2817Y49457
X3917Y49457
X5018Y49457
X6117Y49457
X2817Y46707
X3917Y46707
X5018Y46707
X6117Y46707
X3917Y48507
X5018Y48507
X3917Y47607
X5018Y47607
X22965Y25723
X22975Y24860
X29167Y15907
X44567Y42358
X37500Y9250
X44450Y12250
X13117Y15107
X23150Y22809
X16918Y31857
X3217Y35408
X21650Y46050
X26650Y26900
X17968Y32908
X4368Y35408
X22907Y46107
X24950Y28000
X25567Y22857
X33568Y23407
X39187Y23367
X38500Y9700
X38500Y11950
X1517Y28107
X3117Y28107
X5967Y16458
X11067Y16408
X47867Y42308
X47867Y43108
X39968Y31607
X22167Y2757
X19450Y11550
X19550Y23300
X37850Y33200
X33500Y33200
X33850Y27400
X29600Y23250
X30900Y23250
X32200Y23250
X37050Y50750
X24400Y21350
X23850Y46600
X17950Y49550
X29550Y7100
X27550Y25050
X27650Y27950
X38800Y22400
X38400Y21650
X19418Y19008
X19418Y16307
X26317Y17008
X36268Y48407
X38768Y14207
X36518Y8758
X45750Y13000
X35500Y8750
X2600Y15250
X2600Y23900
X16350Y9200
X8300Y11850
X22300Y50700
X24050Y50700
X16100Y34100
X23350Y50050
X15400Y33150
X7417Y25007
X4067Y17558
X12950Y27600
X15450Y28800
X13550Y18050
X22250Y22600
X51167Y42308
X25017Y6207
X23667Y12157
X30017Y16408
X27117Y15007
X42418Y27457
X7267Y26007
X4067Y18808
X12450Y28450
X15050Y29750
X26167Y14957
X43168Y28207
X27867Y15657
X41318Y26707
X46817Y42358
X31717Y16408
X21568Y11607
X18868Y6607
X49017Y42308
X19068Y5258
X30867Y15907
X22617Y11607
X20768Y17658
X13217Y19958
X18514Y31414
X21618Y44707
X15417Y19258
X24617Y12507
X28517Y4208
X42118Y18258
X55367Y23907
X51717Y10058
X47200Y25300
X19400Y41550
X19400Y38900
X22650Y39000
X31100Y39000
X3650Y39000
X18550Y11150
X17618Y12307
X5168Y37508
X18568Y12157
X4368Y39658
X48667Y31607
X47950Y31183
X55226Y32029
X54276Y32029
X55226Y31129
X54276Y31129
X49474Y32484
X52267Y42308
X24317Y14107
X21300Y50400
X24400Y48300
X54363Y33608
X25317Y13857
X22100Y40200
X26117Y13357
X24567Y22857
X40968Y36008
X42468Y39658
X17468Y13257
X9368Y30607
X17068Y14107
X9368Y31807
X16000Y15150
X11650Y30550
X7350Y36950
X12700Y30850
X19200Y44400
X19500Y46200
X10750Y39550
X11600Y39550
X12450Y39550
X13300Y39550
X6650Y39350
X7950Y39350
X6700Y41500
X7900Y41500
X22967Y17658
X1717Y49407
X12967Y52007
X33968Y25857
X4067Y23057
X4067Y22057
X4067Y21058
X4067Y20058
X25367Y20208
X20768Y15457
X22117Y16307
X52867Y35608
M30