G04 EAGLE Gerber RS-274X export*
G75*
%MOMM*%
%FSLAX34Y34*%
%LPD*%
%INMechanical*%
%IPPOS*%
%AMOC8*
5,1,8,0,0,1.08239X$1,22.5*%
G01*
%ADD10C,0.025400*%
%ADD11C,0.020000*%
%ADD12C,0.000000*%
%ADD13C,0.254000*%


D10*
X321249Y32777D02*
X321253Y33116D01*
X321266Y33454D01*
X321286Y33792D01*
X321315Y34130D01*
X321353Y34466D01*
X321398Y34802D01*
X321452Y35136D01*
X321514Y35469D01*
X321584Y35801D01*
X321663Y36130D01*
X321749Y36458D01*
X321843Y36783D01*
X321946Y37106D01*
X322056Y37426D01*
X322174Y37744D01*
X322299Y38058D01*
X322433Y38369D01*
X322574Y38677D01*
X322723Y38982D01*
X322878Y39282D01*
X323042Y39579D01*
X323212Y39872D01*
X323390Y40160D01*
X323575Y40444D01*
X323766Y40723D01*
X323965Y40998D01*
X324170Y41267D01*
X324381Y41532D01*
X324600Y41791D01*
X324824Y42045D01*
X325054Y42293D01*
X325291Y42535D01*
X325533Y42772D01*
X325781Y43002D01*
X326035Y43226D01*
X326294Y43445D01*
X326559Y43656D01*
X326828Y43861D01*
X327103Y44060D01*
X327382Y44251D01*
X327666Y44436D01*
X327954Y44614D01*
X328247Y44784D01*
X328544Y44948D01*
X328844Y45103D01*
X329149Y45252D01*
X329457Y45393D01*
X329768Y45527D01*
X330082Y45652D01*
X330400Y45770D01*
X330720Y45880D01*
X331043Y45983D01*
X331368Y46077D01*
X331696Y46163D01*
X332025Y46242D01*
X332357Y46312D01*
X332690Y46374D01*
X333024Y46428D01*
X333360Y46473D01*
X333696Y46511D01*
X334034Y46540D01*
X334372Y46560D01*
X334710Y46573D01*
X335049Y46577D01*
X335388Y46573D01*
X335726Y46560D01*
X336064Y46540D01*
X336402Y46511D01*
X336738Y46473D01*
X337074Y46428D01*
X337408Y46374D01*
X337741Y46312D01*
X338073Y46242D01*
X338402Y46163D01*
X338730Y46077D01*
X339055Y45983D01*
X339378Y45880D01*
X339698Y45770D01*
X340016Y45652D01*
X340330Y45527D01*
X340641Y45393D01*
X340949Y45252D01*
X341254Y45103D01*
X341554Y44948D01*
X341851Y44784D01*
X342144Y44614D01*
X342432Y44436D01*
X342716Y44251D01*
X342995Y44060D01*
X343270Y43861D01*
X343539Y43656D01*
X343804Y43445D01*
X344063Y43226D01*
X344317Y43002D01*
X344565Y42772D01*
X344807Y42535D01*
X345044Y42293D01*
X345274Y42045D01*
X345498Y41791D01*
X345717Y41532D01*
X345928Y41267D01*
X346133Y40998D01*
X346332Y40723D01*
X346523Y40444D01*
X346708Y40160D01*
X346886Y39872D01*
X347056Y39579D01*
X347220Y39282D01*
X347375Y38982D01*
X347524Y38677D01*
X347665Y38369D01*
X347799Y38058D01*
X347924Y37744D01*
X348042Y37426D01*
X348152Y37106D01*
X348255Y36783D01*
X348349Y36458D01*
X348435Y36130D01*
X348514Y35801D01*
X348584Y35469D01*
X348646Y35136D01*
X348700Y34802D01*
X348745Y34466D01*
X348783Y34130D01*
X348812Y33792D01*
X348832Y33454D01*
X348845Y33116D01*
X348849Y32777D01*
X348845Y32438D01*
X348832Y32100D01*
X348812Y31762D01*
X348783Y31424D01*
X348745Y31088D01*
X348700Y30752D01*
X348646Y30418D01*
X348584Y30085D01*
X348514Y29753D01*
X348435Y29424D01*
X348349Y29096D01*
X348255Y28771D01*
X348152Y28448D01*
X348042Y28128D01*
X347924Y27810D01*
X347799Y27496D01*
X347665Y27185D01*
X347524Y26877D01*
X347375Y26572D01*
X347220Y26272D01*
X347056Y25975D01*
X346886Y25682D01*
X346708Y25394D01*
X346523Y25110D01*
X346332Y24831D01*
X346133Y24556D01*
X345928Y24287D01*
X345717Y24022D01*
X345498Y23763D01*
X345274Y23509D01*
X345044Y23261D01*
X344807Y23019D01*
X344565Y22782D01*
X344317Y22552D01*
X344063Y22328D01*
X343804Y22109D01*
X343539Y21898D01*
X343270Y21693D01*
X342995Y21494D01*
X342716Y21303D01*
X342432Y21118D01*
X342144Y20940D01*
X341851Y20770D01*
X341554Y20606D01*
X341254Y20451D01*
X340949Y20302D01*
X340641Y20161D01*
X340330Y20027D01*
X340016Y19902D01*
X339698Y19784D01*
X339378Y19674D01*
X339055Y19571D01*
X338730Y19477D01*
X338402Y19391D01*
X338073Y19312D01*
X337741Y19242D01*
X337408Y19180D01*
X337074Y19126D01*
X336738Y19081D01*
X336402Y19043D01*
X336064Y19014D01*
X335726Y18994D01*
X335388Y18981D01*
X335049Y18977D01*
X334710Y18981D01*
X334372Y18994D01*
X334034Y19014D01*
X333696Y19043D01*
X333360Y19081D01*
X333024Y19126D01*
X332690Y19180D01*
X332357Y19242D01*
X332025Y19312D01*
X331696Y19391D01*
X331368Y19477D01*
X331043Y19571D01*
X330720Y19674D01*
X330400Y19784D01*
X330082Y19902D01*
X329768Y20027D01*
X329457Y20161D01*
X329149Y20302D01*
X328844Y20451D01*
X328544Y20606D01*
X328247Y20770D01*
X327954Y20940D01*
X327666Y21118D01*
X327382Y21303D01*
X327103Y21494D01*
X326828Y21693D01*
X326559Y21898D01*
X326294Y22109D01*
X326035Y22328D01*
X325781Y22552D01*
X325533Y22782D01*
X325291Y23019D01*
X325054Y23261D01*
X324824Y23509D01*
X324600Y23763D01*
X324381Y24022D01*
X324170Y24287D01*
X323965Y24556D01*
X323766Y24831D01*
X323575Y25110D01*
X323390Y25394D01*
X323212Y25682D01*
X323042Y25975D01*
X322878Y26272D01*
X322723Y26572D01*
X322574Y26877D01*
X322433Y27185D01*
X322299Y27496D01*
X322174Y27810D01*
X322056Y28128D01*
X321946Y28448D01*
X321843Y28771D01*
X321749Y29096D01*
X321663Y29424D01*
X321584Y29753D01*
X321514Y30085D01*
X321452Y30418D01*
X321398Y30752D01*
X321353Y31088D01*
X321315Y31424D01*
X321286Y31762D01*
X321266Y32100D01*
X321253Y32438D01*
X321249Y32777D01*
X543753Y469657D02*
X543757Y469996D01*
X543770Y470334D01*
X543790Y470672D01*
X543819Y471010D01*
X543857Y471346D01*
X543902Y471682D01*
X543956Y472016D01*
X544018Y472349D01*
X544088Y472681D01*
X544167Y473010D01*
X544253Y473338D01*
X544347Y473663D01*
X544450Y473986D01*
X544560Y474306D01*
X544678Y474624D01*
X544803Y474938D01*
X544937Y475249D01*
X545078Y475557D01*
X545227Y475862D01*
X545382Y476162D01*
X545546Y476459D01*
X545716Y476752D01*
X545894Y477040D01*
X546079Y477324D01*
X546270Y477603D01*
X546469Y477878D01*
X546674Y478147D01*
X546885Y478412D01*
X547104Y478671D01*
X547328Y478925D01*
X547558Y479173D01*
X547795Y479415D01*
X548037Y479652D01*
X548285Y479882D01*
X548539Y480106D01*
X548798Y480325D01*
X549063Y480536D01*
X549332Y480741D01*
X549607Y480940D01*
X549886Y481131D01*
X550170Y481316D01*
X550458Y481494D01*
X550751Y481664D01*
X551048Y481828D01*
X551348Y481983D01*
X551653Y482132D01*
X551961Y482273D01*
X552272Y482407D01*
X552586Y482532D01*
X552904Y482650D01*
X553224Y482760D01*
X553547Y482863D01*
X553872Y482957D01*
X554200Y483043D01*
X554529Y483122D01*
X554861Y483192D01*
X555194Y483254D01*
X555528Y483308D01*
X555864Y483353D01*
X556200Y483391D01*
X556538Y483420D01*
X556876Y483440D01*
X557214Y483453D01*
X557553Y483457D01*
X557892Y483453D01*
X558230Y483440D01*
X558568Y483420D01*
X558906Y483391D01*
X559242Y483353D01*
X559578Y483308D01*
X559912Y483254D01*
X560245Y483192D01*
X560577Y483122D01*
X560906Y483043D01*
X561234Y482957D01*
X561559Y482863D01*
X561882Y482760D01*
X562202Y482650D01*
X562520Y482532D01*
X562834Y482407D01*
X563145Y482273D01*
X563453Y482132D01*
X563758Y481983D01*
X564058Y481828D01*
X564355Y481664D01*
X564648Y481494D01*
X564936Y481316D01*
X565220Y481131D01*
X565499Y480940D01*
X565774Y480741D01*
X566043Y480536D01*
X566308Y480325D01*
X566567Y480106D01*
X566821Y479882D01*
X567069Y479652D01*
X567311Y479415D01*
X567548Y479173D01*
X567778Y478925D01*
X568002Y478671D01*
X568221Y478412D01*
X568432Y478147D01*
X568637Y477878D01*
X568836Y477603D01*
X569027Y477324D01*
X569212Y477040D01*
X569390Y476752D01*
X569560Y476459D01*
X569724Y476162D01*
X569879Y475862D01*
X570028Y475557D01*
X570169Y475249D01*
X570303Y474938D01*
X570428Y474624D01*
X570546Y474306D01*
X570656Y473986D01*
X570759Y473663D01*
X570853Y473338D01*
X570939Y473010D01*
X571018Y472681D01*
X571088Y472349D01*
X571150Y472016D01*
X571204Y471682D01*
X571249Y471346D01*
X571287Y471010D01*
X571316Y470672D01*
X571336Y470334D01*
X571349Y469996D01*
X571353Y469657D01*
X571349Y469318D01*
X571336Y468980D01*
X571316Y468642D01*
X571287Y468304D01*
X571249Y467968D01*
X571204Y467632D01*
X571150Y467298D01*
X571088Y466965D01*
X571018Y466633D01*
X570939Y466304D01*
X570853Y465976D01*
X570759Y465651D01*
X570656Y465328D01*
X570546Y465008D01*
X570428Y464690D01*
X570303Y464376D01*
X570169Y464065D01*
X570028Y463757D01*
X569879Y463452D01*
X569724Y463152D01*
X569560Y462855D01*
X569390Y462562D01*
X569212Y462274D01*
X569027Y461990D01*
X568836Y461711D01*
X568637Y461436D01*
X568432Y461167D01*
X568221Y460902D01*
X568002Y460643D01*
X567778Y460389D01*
X567548Y460141D01*
X567311Y459899D01*
X567069Y459662D01*
X566821Y459432D01*
X566567Y459208D01*
X566308Y458989D01*
X566043Y458778D01*
X565774Y458573D01*
X565499Y458374D01*
X565220Y458183D01*
X564936Y457998D01*
X564648Y457820D01*
X564355Y457650D01*
X564058Y457486D01*
X563758Y457331D01*
X563453Y457182D01*
X563145Y457041D01*
X562834Y456907D01*
X562520Y456782D01*
X562202Y456664D01*
X561882Y456554D01*
X561559Y456451D01*
X561234Y456357D01*
X560906Y456271D01*
X560577Y456192D01*
X560245Y456122D01*
X559912Y456060D01*
X559578Y456006D01*
X559242Y455961D01*
X558906Y455923D01*
X558568Y455894D01*
X558230Y455874D01*
X557892Y455861D01*
X557553Y455857D01*
X557214Y455861D01*
X556876Y455874D01*
X556538Y455894D01*
X556200Y455923D01*
X555864Y455961D01*
X555528Y456006D01*
X555194Y456060D01*
X554861Y456122D01*
X554529Y456192D01*
X554200Y456271D01*
X553872Y456357D01*
X553547Y456451D01*
X553224Y456554D01*
X552904Y456664D01*
X552586Y456782D01*
X552272Y456907D01*
X551961Y457041D01*
X551653Y457182D01*
X551348Y457331D01*
X551048Y457486D01*
X550751Y457650D01*
X550458Y457820D01*
X550170Y457998D01*
X549886Y458183D01*
X549607Y458374D01*
X549332Y458573D01*
X549063Y458778D01*
X548798Y458989D01*
X548539Y459208D01*
X548285Y459432D01*
X548037Y459662D01*
X547795Y459899D01*
X547558Y460141D01*
X547328Y460389D01*
X547104Y460643D01*
X546885Y460902D01*
X546674Y461167D01*
X546469Y461436D01*
X546270Y461711D01*
X546079Y461990D01*
X545894Y462274D01*
X545716Y462562D01*
X545546Y462855D01*
X545382Y463152D01*
X545227Y463452D01*
X545078Y463757D01*
X544937Y464065D01*
X544803Y464376D01*
X544678Y464690D01*
X544560Y465008D01*
X544450Y465328D01*
X544347Y465651D01*
X544253Y465976D01*
X544167Y466304D01*
X544088Y466633D01*
X544018Y466965D01*
X543956Y467298D01*
X543902Y467632D01*
X543857Y467968D01*
X543819Y468304D01*
X543790Y468642D01*
X543770Y468980D01*
X543757Y469318D01*
X543753Y469657D01*
X19243Y531125D02*
X19247Y531464D01*
X19260Y531802D01*
X19280Y532140D01*
X19309Y532478D01*
X19347Y532814D01*
X19392Y533150D01*
X19446Y533484D01*
X19508Y533817D01*
X19578Y534149D01*
X19657Y534478D01*
X19743Y534806D01*
X19837Y535131D01*
X19940Y535454D01*
X20050Y535774D01*
X20168Y536092D01*
X20293Y536406D01*
X20427Y536717D01*
X20568Y537025D01*
X20717Y537330D01*
X20872Y537630D01*
X21036Y537927D01*
X21206Y538220D01*
X21384Y538508D01*
X21569Y538792D01*
X21760Y539071D01*
X21959Y539346D01*
X22164Y539615D01*
X22375Y539880D01*
X22594Y540139D01*
X22818Y540393D01*
X23048Y540641D01*
X23285Y540883D01*
X23527Y541120D01*
X23775Y541350D01*
X24029Y541574D01*
X24288Y541793D01*
X24553Y542004D01*
X24822Y542209D01*
X25097Y542408D01*
X25376Y542599D01*
X25660Y542784D01*
X25948Y542962D01*
X26241Y543132D01*
X26538Y543296D01*
X26838Y543451D01*
X27143Y543600D01*
X27451Y543741D01*
X27762Y543875D01*
X28076Y544000D01*
X28394Y544118D01*
X28714Y544228D01*
X29037Y544331D01*
X29362Y544425D01*
X29690Y544511D01*
X30019Y544590D01*
X30351Y544660D01*
X30684Y544722D01*
X31018Y544776D01*
X31354Y544821D01*
X31690Y544859D01*
X32028Y544888D01*
X32366Y544908D01*
X32704Y544921D01*
X33043Y544925D01*
X33382Y544921D01*
X33720Y544908D01*
X34058Y544888D01*
X34396Y544859D01*
X34732Y544821D01*
X35068Y544776D01*
X35402Y544722D01*
X35735Y544660D01*
X36067Y544590D01*
X36396Y544511D01*
X36724Y544425D01*
X37049Y544331D01*
X37372Y544228D01*
X37692Y544118D01*
X38010Y544000D01*
X38324Y543875D01*
X38635Y543741D01*
X38943Y543600D01*
X39248Y543451D01*
X39548Y543296D01*
X39845Y543132D01*
X40138Y542962D01*
X40426Y542784D01*
X40710Y542599D01*
X40989Y542408D01*
X41264Y542209D01*
X41533Y542004D01*
X41798Y541793D01*
X42057Y541574D01*
X42311Y541350D01*
X42559Y541120D01*
X42801Y540883D01*
X43038Y540641D01*
X43268Y540393D01*
X43492Y540139D01*
X43711Y539880D01*
X43922Y539615D01*
X44127Y539346D01*
X44326Y539071D01*
X44517Y538792D01*
X44702Y538508D01*
X44880Y538220D01*
X45050Y537927D01*
X45214Y537630D01*
X45369Y537330D01*
X45518Y537025D01*
X45659Y536717D01*
X45793Y536406D01*
X45918Y536092D01*
X46036Y535774D01*
X46146Y535454D01*
X46249Y535131D01*
X46343Y534806D01*
X46429Y534478D01*
X46508Y534149D01*
X46578Y533817D01*
X46640Y533484D01*
X46694Y533150D01*
X46739Y532814D01*
X46777Y532478D01*
X46806Y532140D01*
X46826Y531802D01*
X46839Y531464D01*
X46843Y531125D01*
X46839Y530786D01*
X46826Y530448D01*
X46806Y530110D01*
X46777Y529772D01*
X46739Y529436D01*
X46694Y529100D01*
X46640Y528766D01*
X46578Y528433D01*
X46508Y528101D01*
X46429Y527772D01*
X46343Y527444D01*
X46249Y527119D01*
X46146Y526796D01*
X46036Y526476D01*
X45918Y526158D01*
X45793Y525844D01*
X45659Y525533D01*
X45518Y525225D01*
X45369Y524920D01*
X45214Y524620D01*
X45050Y524323D01*
X44880Y524030D01*
X44702Y523742D01*
X44517Y523458D01*
X44326Y523179D01*
X44127Y522904D01*
X43922Y522635D01*
X43711Y522370D01*
X43492Y522111D01*
X43268Y521857D01*
X43038Y521609D01*
X42801Y521367D01*
X42559Y521130D01*
X42311Y520900D01*
X42057Y520676D01*
X41798Y520457D01*
X41533Y520246D01*
X41264Y520041D01*
X40989Y519842D01*
X40710Y519651D01*
X40426Y519466D01*
X40138Y519288D01*
X39845Y519118D01*
X39548Y518954D01*
X39248Y518799D01*
X38943Y518650D01*
X38635Y518509D01*
X38324Y518375D01*
X38010Y518250D01*
X37692Y518132D01*
X37372Y518022D01*
X37049Y517919D01*
X36724Y517825D01*
X36396Y517739D01*
X36067Y517660D01*
X35735Y517590D01*
X35402Y517528D01*
X35068Y517474D01*
X34732Y517429D01*
X34396Y517391D01*
X34058Y517362D01*
X33720Y517342D01*
X33382Y517329D01*
X33043Y517325D01*
X32704Y517329D01*
X32366Y517342D01*
X32028Y517362D01*
X31690Y517391D01*
X31354Y517429D01*
X31018Y517474D01*
X30684Y517528D01*
X30351Y517590D01*
X30019Y517660D01*
X29690Y517739D01*
X29362Y517825D01*
X29037Y517919D01*
X28714Y518022D01*
X28394Y518132D01*
X28076Y518250D01*
X27762Y518375D01*
X27451Y518509D01*
X27143Y518650D01*
X26838Y518799D01*
X26538Y518954D01*
X26241Y519118D01*
X25948Y519288D01*
X25660Y519466D01*
X25376Y519651D01*
X25097Y519842D01*
X24822Y520041D01*
X24553Y520246D01*
X24288Y520457D01*
X24029Y520676D01*
X23775Y520900D01*
X23527Y521130D01*
X23285Y521367D01*
X23048Y521609D01*
X22818Y521857D01*
X22594Y522111D01*
X22375Y522370D01*
X22164Y522635D01*
X21959Y522904D01*
X21760Y523179D01*
X21569Y523458D01*
X21384Y523742D01*
X21206Y524030D01*
X21036Y524323D01*
X20872Y524620D01*
X20717Y524920D01*
X20568Y525225D01*
X20427Y525533D01*
X20293Y525844D01*
X20168Y526158D01*
X20050Y526476D01*
X19940Y526796D01*
X19837Y527119D01*
X19743Y527444D01*
X19657Y527772D01*
X19578Y528101D01*
X19508Y528433D01*
X19446Y528766D01*
X19392Y529100D01*
X19347Y529436D01*
X19309Y529772D01*
X19280Y530110D01*
X19260Y530448D01*
X19247Y530786D01*
X19243Y531125D01*
X20543Y33031D02*
X20547Y33338D01*
X20558Y33644D01*
X20577Y33951D01*
X20603Y34256D01*
X20637Y34561D01*
X20678Y34865D01*
X20727Y35168D01*
X20783Y35470D01*
X20847Y35770D01*
X20918Y36068D01*
X20996Y36365D01*
X21081Y36660D01*
X21174Y36952D01*
X21274Y37242D01*
X21381Y37530D01*
X21495Y37815D01*
X21615Y38097D01*
X21743Y38375D01*
X21878Y38651D01*
X22019Y38923D01*
X22167Y39192D01*
X22321Y39457D01*
X22482Y39718D01*
X22650Y39976D01*
X22823Y40229D01*
X23003Y40477D01*
X23189Y40721D01*
X23380Y40961D01*
X23578Y41196D01*
X23781Y41425D01*
X23990Y41650D01*
X24204Y41870D01*
X24424Y42084D01*
X24649Y42293D01*
X24878Y42496D01*
X25113Y42694D01*
X25353Y42885D01*
X25597Y43071D01*
X25845Y43251D01*
X26098Y43424D01*
X26356Y43592D01*
X26617Y43753D01*
X26882Y43907D01*
X27151Y44055D01*
X27423Y44196D01*
X27699Y44331D01*
X27977Y44459D01*
X28259Y44579D01*
X28544Y44693D01*
X28832Y44800D01*
X29122Y44900D01*
X29414Y44993D01*
X29709Y45078D01*
X30006Y45156D01*
X30304Y45227D01*
X30604Y45291D01*
X30906Y45347D01*
X31209Y45396D01*
X31513Y45437D01*
X31818Y45471D01*
X32123Y45497D01*
X32430Y45516D01*
X32736Y45527D01*
X33043Y45531D01*
X33350Y45527D01*
X33656Y45516D01*
X33963Y45497D01*
X34268Y45471D01*
X34573Y45437D01*
X34877Y45396D01*
X35180Y45347D01*
X35482Y45291D01*
X35782Y45227D01*
X36080Y45156D01*
X36377Y45078D01*
X36672Y44993D01*
X36964Y44900D01*
X37254Y44800D01*
X37542Y44693D01*
X37827Y44579D01*
X38109Y44459D01*
X38387Y44331D01*
X38663Y44196D01*
X38935Y44055D01*
X39204Y43907D01*
X39469Y43753D01*
X39730Y43592D01*
X39988Y43424D01*
X40241Y43251D01*
X40489Y43071D01*
X40733Y42885D01*
X40973Y42694D01*
X41208Y42496D01*
X41437Y42293D01*
X41662Y42084D01*
X41882Y41870D01*
X42096Y41650D01*
X42305Y41425D01*
X42508Y41196D01*
X42706Y40961D01*
X42897Y40721D01*
X43083Y40477D01*
X43263Y40229D01*
X43436Y39976D01*
X43604Y39718D01*
X43765Y39457D01*
X43919Y39192D01*
X44067Y38923D01*
X44208Y38651D01*
X44343Y38375D01*
X44471Y38097D01*
X44591Y37815D01*
X44705Y37530D01*
X44812Y37242D01*
X44912Y36952D01*
X45005Y36660D01*
X45090Y36365D01*
X45168Y36068D01*
X45239Y35770D01*
X45303Y35470D01*
X45359Y35168D01*
X45408Y34865D01*
X45449Y34561D01*
X45483Y34256D01*
X45509Y33951D01*
X45528Y33644D01*
X45539Y33338D01*
X45543Y33031D01*
X45539Y32724D01*
X45528Y32418D01*
X45509Y32111D01*
X45483Y31806D01*
X45449Y31501D01*
X45408Y31197D01*
X45359Y30894D01*
X45303Y30592D01*
X45239Y30292D01*
X45168Y29994D01*
X45090Y29697D01*
X45005Y29402D01*
X44912Y29110D01*
X44812Y28820D01*
X44705Y28532D01*
X44591Y28247D01*
X44471Y27965D01*
X44343Y27687D01*
X44208Y27411D01*
X44067Y27139D01*
X43919Y26870D01*
X43765Y26605D01*
X43604Y26344D01*
X43436Y26086D01*
X43263Y25833D01*
X43083Y25585D01*
X42897Y25341D01*
X42706Y25101D01*
X42508Y24866D01*
X42305Y24637D01*
X42096Y24412D01*
X41882Y24192D01*
X41662Y23978D01*
X41437Y23769D01*
X41208Y23566D01*
X40973Y23368D01*
X40733Y23177D01*
X40489Y22991D01*
X40241Y22811D01*
X39988Y22638D01*
X39730Y22470D01*
X39469Y22309D01*
X39204Y22155D01*
X38935Y22007D01*
X38663Y21866D01*
X38387Y21731D01*
X38109Y21603D01*
X37827Y21483D01*
X37542Y21369D01*
X37254Y21262D01*
X36964Y21162D01*
X36672Y21069D01*
X36377Y20984D01*
X36080Y20906D01*
X35782Y20835D01*
X35482Y20771D01*
X35180Y20715D01*
X34877Y20666D01*
X34573Y20625D01*
X34268Y20591D01*
X33963Y20565D01*
X33656Y20546D01*
X33350Y20535D01*
X33043Y20531D01*
X32736Y20535D01*
X32430Y20546D01*
X32123Y20565D01*
X31818Y20591D01*
X31513Y20625D01*
X31209Y20666D01*
X30906Y20715D01*
X30604Y20771D01*
X30304Y20835D01*
X30006Y20906D01*
X29709Y20984D01*
X29414Y21069D01*
X29122Y21162D01*
X28832Y21262D01*
X28544Y21369D01*
X28259Y21483D01*
X27977Y21603D01*
X27699Y21731D01*
X27423Y21866D01*
X27151Y22007D01*
X26882Y22155D01*
X26617Y22309D01*
X26356Y22470D01*
X26098Y22638D01*
X25845Y22811D01*
X25597Y22991D01*
X25353Y23177D01*
X25113Y23368D01*
X24878Y23566D01*
X24649Y23769D01*
X24424Y23978D01*
X24204Y24192D01*
X23990Y24412D01*
X23781Y24637D01*
X23578Y24866D01*
X23380Y25101D01*
X23189Y25341D01*
X23003Y25585D01*
X22823Y25833D01*
X22650Y26086D01*
X22482Y26344D01*
X22321Y26605D01*
X22167Y26870D01*
X22019Y27139D01*
X21878Y27411D01*
X21743Y27687D01*
X21615Y27965D01*
X21495Y28247D01*
X21381Y28532D01*
X21274Y28820D01*
X21174Y29110D01*
X21081Y29402D01*
X20996Y29697D01*
X20918Y29994D01*
X20847Y30292D01*
X20783Y30592D01*
X20727Y30894D01*
X20678Y31197D01*
X20637Y31501D01*
X20603Y31806D01*
X20577Y32111D01*
X20558Y32418D01*
X20547Y32724D01*
X20543Y33031D01*
D11*
X84945Y552194D02*
X84945Y555562D01*
X84945Y552194D02*
X84948Y551907D01*
X84959Y551619D01*
X84976Y551332D01*
X85001Y551046D01*
X85032Y550760D01*
X85070Y550475D01*
X85115Y550192D01*
X85167Y549909D01*
X85225Y549627D01*
X85291Y549348D01*
X85363Y549069D01*
X85442Y548793D01*
X85527Y548519D01*
X85619Y548246D01*
X85718Y547976D01*
X85823Y547709D01*
X85935Y547444D01*
X86053Y547182D01*
X86177Y546923D01*
X86307Y546667D01*
X86444Y546414D01*
X86587Y546164D01*
X86735Y545918D01*
X86890Y545676D01*
X87050Y545437D01*
X87217Y545203D01*
X87388Y544972D01*
X87566Y544746D01*
X87748Y544524D01*
X87936Y544307D01*
X88129Y544094D01*
X88328Y543886D01*
X88531Y543683D01*
X88739Y543484D01*
X88952Y543291D01*
X89169Y543103D01*
X89391Y542921D01*
X89617Y542743D01*
X89848Y542572D01*
X90082Y542405D01*
X90321Y542245D01*
X90563Y542090D01*
X90809Y541942D01*
X91059Y541799D01*
X91312Y541662D01*
X91568Y541532D01*
X91827Y541408D01*
X92089Y541290D01*
X92354Y541178D01*
X92621Y541073D01*
X92891Y540974D01*
X93164Y540882D01*
X93438Y540797D01*
X93714Y540718D01*
X93993Y540646D01*
X94272Y540580D01*
X94554Y540522D01*
X94837Y540470D01*
X95120Y540425D01*
X95405Y540387D01*
X95691Y540356D01*
X95977Y540331D01*
X96264Y540314D01*
X96552Y540303D01*
X96839Y540300D01*
X163048Y540300D01*
X163333Y540303D01*
X163618Y540314D01*
X163902Y540331D01*
X164186Y540355D01*
X164469Y540386D01*
X164751Y540424D01*
X165033Y540468D01*
X165313Y540520D01*
X165592Y540578D01*
X165869Y540643D01*
X166145Y540714D01*
X166419Y540792D01*
X166691Y540877D01*
X166961Y540968D01*
X167228Y541066D01*
X167494Y541170D01*
X167756Y541281D01*
X168016Y541398D01*
X168273Y541521D01*
X168527Y541650D01*
X168777Y541786D01*
X169025Y541927D01*
X169268Y542075D01*
X169509Y542228D01*
X169745Y542387D01*
X169977Y542551D01*
X170206Y542722D01*
X170430Y542897D01*
X170650Y543078D01*
X170866Y543265D01*
X171076Y543456D01*
X171283Y543653D01*
X171484Y543854D01*
X171681Y544061D01*
X171872Y544271D01*
X172059Y544487D01*
X172240Y544707D01*
X172415Y544931D01*
X172586Y545160D01*
X172750Y545392D01*
X172909Y545628D01*
X173062Y545869D01*
X173210Y546112D01*
X173351Y546360D01*
X173487Y546610D01*
X173616Y546864D01*
X173739Y547121D01*
X173856Y547381D01*
X173967Y547643D01*
X174071Y547909D01*
X174169Y548176D01*
X174260Y548446D01*
X174345Y548718D01*
X174423Y548992D01*
X174494Y549268D01*
X174559Y549545D01*
X174617Y549824D01*
X174669Y550104D01*
X174713Y550386D01*
X174751Y550668D01*
X174782Y550951D01*
X174806Y551235D01*
X174823Y551519D01*
X174834Y551804D01*
X174837Y552089D01*
X174837Y555668D01*
X174839Y555856D01*
X174846Y556044D01*
X174857Y556232D01*
X174873Y556420D01*
X174894Y556607D01*
X174919Y556793D01*
X174948Y556979D01*
X174982Y557164D01*
X175021Y557349D01*
X175063Y557532D01*
X175111Y557714D01*
X175162Y557895D01*
X175218Y558075D01*
X175279Y558253D01*
X175343Y558430D01*
X175412Y558605D01*
X175485Y558779D01*
X175562Y558950D01*
X175644Y559120D01*
X175729Y559288D01*
X175819Y559453D01*
X175912Y559617D01*
X176009Y559778D01*
X176111Y559936D01*
X176216Y560093D01*
X176325Y560246D01*
X176437Y560397D01*
X176553Y560545D01*
X176673Y560691D01*
X176796Y560833D01*
X176922Y560972D01*
X177052Y561109D01*
X177185Y561242D01*
X177322Y561372D01*
X177461Y561498D01*
X177603Y561621D01*
X177749Y561741D01*
X177897Y561857D01*
X178048Y561969D01*
X178201Y562078D01*
X178358Y562183D01*
X178516Y562285D01*
X178677Y562382D01*
X178841Y562475D01*
X179006Y562565D01*
X179174Y562650D01*
X179344Y562732D01*
X179515Y562809D01*
X179689Y562882D01*
X179864Y562951D01*
X180041Y563015D01*
X180219Y563076D01*
X180399Y563132D01*
X180580Y563183D01*
X180762Y563231D01*
X180945Y563273D01*
X181130Y563312D01*
X181315Y563346D01*
X181501Y563375D01*
X181687Y563400D01*
X181874Y563421D01*
X182062Y563437D01*
X182250Y563448D01*
X182438Y563455D01*
X182626Y563457D01*
X550299Y563457D01*
X551065Y563448D01*
X551830Y563420D01*
X552594Y563374D01*
X553357Y563309D01*
X554118Y563226D01*
X554877Y563125D01*
X555633Y563005D01*
X556386Y562867D01*
X557136Y562711D01*
X557881Y562536D01*
X558622Y562344D01*
X559359Y562134D01*
X560090Y561906D01*
X560815Y561661D01*
X561534Y561398D01*
X562246Y561118D01*
X562952Y560821D01*
X563650Y560507D01*
X564341Y560175D01*
X565023Y559828D01*
X565696Y559464D01*
X566361Y559084D01*
X567016Y558688D01*
X567662Y558276D01*
X568297Y557849D01*
X568922Y557406D01*
X569536Y556949D01*
X570138Y556476D01*
X570730Y555990D01*
X571309Y555489D01*
X571876Y554974D01*
X572430Y554446D01*
X572971Y553905D01*
X573499Y553351D01*
X574014Y552784D01*
X574515Y552205D01*
X575001Y551613D01*
X575474Y551011D01*
X575931Y550397D01*
X576374Y549772D01*
X576801Y549137D01*
X577213Y548491D01*
X577609Y547836D01*
X577989Y547171D01*
X578353Y546498D01*
X578700Y545816D01*
X579032Y545125D01*
X579346Y544427D01*
X579643Y543721D01*
X579923Y543009D01*
X580186Y542290D01*
X580431Y541565D01*
X580659Y540834D01*
X580869Y540097D01*
X581061Y539356D01*
X581236Y538611D01*
X581392Y537861D01*
X581530Y537108D01*
X581650Y536352D01*
X581751Y535593D01*
X581834Y534832D01*
X581899Y534069D01*
X581945Y533305D01*
X581973Y532540D01*
X581982Y531774D01*
X581983Y531774D02*
X581983Y90103D01*
X581977Y89589D01*
X581958Y89076D01*
X581927Y88563D01*
X581884Y88051D01*
X581828Y87540D01*
X581760Y87031D01*
X581679Y86523D01*
X581587Y86018D01*
X581482Y85515D01*
X581365Y85014D01*
X581236Y84517D01*
X581095Y84023D01*
X580942Y83532D01*
X580778Y83046D01*
X580601Y82563D01*
X580413Y82085D01*
X580214Y81611D01*
X580003Y81143D01*
X579781Y80679D01*
X579547Y80222D01*
X579303Y79770D01*
X579048Y79324D01*
X578782Y78884D01*
X578506Y78451D01*
X578219Y78024D01*
X577922Y77605D01*
X577615Y77193D01*
X577298Y76788D01*
X576972Y76392D01*
X576636Y76003D01*
X576290Y75623D01*
X575936Y75251D01*
X575572Y74887D01*
X575200Y74533D01*
X574820Y74187D01*
X574431Y73851D01*
X574035Y73525D01*
X573630Y73208D01*
X573218Y72901D01*
X572799Y72604D01*
X572372Y72317D01*
X571939Y72041D01*
X571499Y71775D01*
X571053Y71520D01*
X570601Y71276D01*
X570144Y71042D01*
X569680Y70820D01*
X569212Y70609D01*
X568738Y70410D01*
X568260Y70222D01*
X567777Y70045D01*
X567291Y69881D01*
X566800Y69728D01*
X566306Y69587D01*
X565809Y69458D01*
X565308Y69341D01*
X564805Y69236D01*
X564300Y69144D01*
X563792Y69063D01*
X563283Y68995D01*
X562772Y68939D01*
X562260Y68896D01*
X561747Y68865D01*
X561234Y68846D01*
X560720Y68840D01*
X389883Y68840D01*
X389356Y68834D01*
X388830Y68815D01*
X388305Y68783D01*
X387780Y68738D01*
X387257Y68681D01*
X386735Y68611D01*
X386215Y68529D01*
X385697Y68434D01*
X385181Y68327D01*
X384669Y68207D01*
X384159Y68075D01*
X383653Y67930D01*
X383150Y67774D01*
X382651Y67605D01*
X382157Y67424D01*
X381666Y67231D01*
X381181Y67027D01*
X380701Y66811D01*
X380226Y66583D01*
X379757Y66344D01*
X379294Y66094D01*
X378837Y65832D01*
X378386Y65560D01*
X377942Y65277D01*
X377505Y64983D01*
X377076Y64679D01*
X376654Y64364D01*
X376239Y64039D01*
X375833Y63705D01*
X375434Y63360D01*
X375044Y63006D01*
X374663Y62643D01*
X374291Y62271D01*
X373928Y61890D01*
X373574Y61500D01*
X373229Y61101D01*
X372895Y60695D01*
X372570Y60280D01*
X372255Y59858D01*
X371951Y59429D01*
X371657Y58992D01*
X371374Y58548D01*
X371102Y58097D01*
X370840Y57640D01*
X370590Y57177D01*
X370351Y56708D01*
X370123Y56233D01*
X369907Y55753D01*
X369703Y55268D01*
X369510Y54777D01*
X369329Y54283D01*
X369160Y53784D01*
X369004Y53281D01*
X368859Y52775D01*
X368727Y52265D01*
X368607Y51753D01*
X368500Y51237D01*
X368405Y50719D01*
X368323Y50199D01*
X368253Y49677D01*
X368196Y49154D01*
X368151Y48629D01*
X368119Y48104D01*
X368100Y47578D01*
X368094Y47051D01*
X368094Y33473D01*
X368084Y32662D01*
X368055Y31851D01*
X368006Y31041D01*
X367937Y30232D01*
X367849Y29426D01*
X367742Y28621D01*
X367615Y27820D01*
X367468Y27022D01*
X367303Y26227D01*
X367118Y25437D01*
X366915Y24652D01*
X366692Y23872D01*
X366451Y23097D01*
X366191Y22328D01*
X365912Y21566D01*
X365615Y20811D01*
X365300Y20063D01*
X364967Y19323D01*
X364616Y18592D01*
X364248Y17869D01*
X363862Y17155D01*
X363459Y16450D01*
X363039Y15756D01*
X362603Y15072D01*
X362150Y14399D01*
X361681Y13736D01*
X361196Y13086D01*
X360696Y12447D01*
X360180Y11820D01*
X359649Y11207D01*
X359104Y10606D01*
X358544Y10018D01*
X357971Y9445D01*
X357383Y8885D01*
X356782Y8340D01*
X356169Y7809D01*
X355542Y7293D01*
X354903Y6793D01*
X354253Y6308D01*
X353590Y5839D01*
X352917Y5386D01*
X352233Y4950D01*
X351539Y4530D01*
X350834Y4127D01*
X350120Y3741D01*
X349397Y3373D01*
X348666Y3022D01*
X347926Y2689D01*
X347178Y2374D01*
X346423Y2077D01*
X345661Y1798D01*
X344892Y1538D01*
X344117Y1297D01*
X343337Y1074D01*
X342552Y871D01*
X341762Y686D01*
X340967Y521D01*
X340169Y374D01*
X339368Y247D01*
X338563Y140D01*
X337757Y52D01*
X336948Y-17D01*
X336138Y-66D01*
X335327Y-95D01*
X334516Y-105D01*
X33578Y-105D01*
X32767Y-95D01*
X31956Y-66D01*
X31146Y-17D01*
X30337Y52D01*
X29531Y140D01*
X28726Y247D01*
X27925Y374D01*
X27127Y521D01*
X26332Y686D01*
X25542Y871D01*
X24757Y1074D01*
X23977Y1297D01*
X23202Y1538D01*
X22433Y1798D01*
X21671Y2077D01*
X20916Y2374D01*
X20168Y2689D01*
X19428Y3022D01*
X18697Y3373D01*
X17974Y3741D01*
X17260Y4127D01*
X16555Y4530D01*
X15861Y4950D01*
X15177Y5386D01*
X14504Y5839D01*
X13841Y6308D01*
X13191Y6793D01*
X12552Y7293D01*
X11925Y7809D01*
X11312Y8340D01*
X10711Y8885D01*
X10123Y9445D01*
X9550Y10018D01*
X8990Y10606D01*
X8445Y11207D01*
X7914Y11820D01*
X7398Y12447D01*
X6898Y13086D01*
X6413Y13736D01*
X5944Y14399D01*
X5491Y15072D01*
X5055Y15756D01*
X4635Y16450D01*
X4232Y17155D01*
X3846Y17869D01*
X3478Y18592D01*
X3127Y19323D01*
X2794Y20063D01*
X2479Y20811D01*
X2182Y21566D01*
X1903Y22328D01*
X1643Y23097D01*
X1402Y23872D01*
X1179Y24652D01*
X976Y25437D01*
X791Y26227D01*
X626Y27022D01*
X479Y27820D01*
X352Y28621D01*
X245Y29426D01*
X157Y30232D01*
X88Y31041D01*
X39Y31851D01*
X10Y32662D01*
X0Y33473D01*
X0Y530931D01*
X32525Y563457D02*
X77050Y563457D01*
X32525Y563456D02*
X31739Y563447D01*
X30954Y563418D01*
X30169Y563371D01*
X29386Y563304D01*
X28605Y563219D01*
X27825Y563115D01*
X27049Y562992D01*
X26276Y562850D01*
X25507Y562690D01*
X24741Y562511D01*
X23980Y562314D01*
X23225Y562098D01*
X22474Y561864D01*
X21730Y561612D01*
X20991Y561342D01*
X20260Y561055D01*
X19536Y560750D01*
X18819Y560427D01*
X18110Y560087D01*
X17410Y559730D01*
X16718Y559357D01*
X16036Y558967D01*
X15364Y558560D01*
X14701Y558137D01*
X14049Y557699D01*
X13407Y557244D01*
X12777Y556775D01*
X12158Y556290D01*
X11552Y555790D01*
X10957Y555276D01*
X10375Y554748D01*
X9806Y554206D01*
X9250Y553650D01*
X8708Y553081D01*
X8180Y552499D01*
X7666Y551904D01*
X7166Y551298D01*
X6681Y550679D01*
X6212Y550049D01*
X5757Y549407D01*
X5319Y548755D01*
X4896Y548092D01*
X4489Y547420D01*
X4099Y546738D01*
X3726Y546046D01*
X3369Y545346D01*
X3029Y544637D01*
X2706Y543920D01*
X2401Y543196D01*
X2114Y542465D01*
X1844Y541726D01*
X1592Y540982D01*
X1358Y540231D01*
X1142Y539476D01*
X945Y538715D01*
X766Y537949D01*
X606Y537180D01*
X464Y536407D01*
X341Y535631D01*
X237Y534851D01*
X152Y534070D01*
X85Y533287D01*
X38Y532502D01*
X9Y531717D01*
X0Y530931D01*
X77050Y563457D02*
X77241Y563455D01*
X77431Y563448D01*
X77622Y563436D01*
X77812Y563420D01*
X78002Y563399D01*
X78191Y563374D01*
X78379Y563344D01*
X78567Y563310D01*
X78754Y563271D01*
X78939Y563228D01*
X79124Y563180D01*
X79308Y563127D01*
X79490Y563071D01*
X79670Y563009D01*
X79850Y562944D01*
X80027Y562874D01*
X80203Y562800D01*
X80377Y562722D01*
X80549Y562639D01*
X80719Y562553D01*
X80887Y562462D01*
X81052Y562367D01*
X81216Y562269D01*
X81377Y562166D01*
X81535Y562059D01*
X81691Y561949D01*
X81844Y561835D01*
X81994Y561718D01*
X82141Y561596D01*
X82285Y561471D01*
X82427Y561343D01*
X82565Y561212D01*
X82700Y561077D01*
X82831Y560939D01*
X82959Y560797D01*
X83084Y560653D01*
X83206Y560506D01*
X83323Y560356D01*
X83437Y560203D01*
X83547Y560047D01*
X83654Y559889D01*
X83757Y559728D01*
X83855Y559564D01*
X83950Y559399D01*
X84041Y559231D01*
X84127Y559061D01*
X84210Y558889D01*
X84288Y558715D01*
X84362Y558539D01*
X84432Y558362D01*
X84497Y558182D01*
X84559Y558002D01*
X84615Y557820D01*
X84668Y557636D01*
X84716Y557451D01*
X84759Y557266D01*
X84798Y557079D01*
X84832Y556891D01*
X84862Y556703D01*
X84887Y556514D01*
X84908Y556324D01*
X84924Y556134D01*
X84936Y555943D01*
X84943Y555753D01*
X84945Y555562D01*
D12*
X512689Y513333D02*
X512691Y513474D01*
X512697Y513615D01*
X512707Y513755D01*
X512721Y513895D01*
X512739Y514035D01*
X512760Y514174D01*
X512786Y514313D01*
X512815Y514451D01*
X512849Y514587D01*
X512886Y514723D01*
X512927Y514858D01*
X512972Y514992D01*
X513021Y515124D01*
X513073Y515255D01*
X513129Y515384D01*
X513189Y515511D01*
X513252Y515637D01*
X513318Y515761D01*
X513389Y515884D01*
X513462Y516004D01*
X513539Y516122D01*
X513619Y516238D01*
X513703Y516351D01*
X513789Y516462D01*
X513879Y516571D01*
X513972Y516677D01*
X514067Y516780D01*
X514166Y516881D01*
X514267Y516979D01*
X514371Y517074D01*
X514478Y517166D01*
X514587Y517255D01*
X514699Y517340D01*
X514813Y517423D01*
X514929Y517503D01*
X515048Y517579D01*
X515169Y517651D01*
X515291Y517721D01*
X515416Y517786D01*
X515542Y517849D01*
X515670Y517907D01*
X515800Y517962D01*
X515931Y518014D01*
X516064Y518061D01*
X516198Y518105D01*
X516333Y518146D01*
X516469Y518182D01*
X516606Y518214D01*
X516744Y518243D01*
X516882Y518268D01*
X517022Y518288D01*
X517162Y518305D01*
X517302Y518318D01*
X517443Y518327D01*
X517583Y518332D01*
X517724Y518333D01*
X517865Y518330D01*
X518006Y518323D01*
X518146Y518312D01*
X518286Y518297D01*
X518426Y518278D01*
X518565Y518256D01*
X518703Y518229D01*
X518841Y518199D01*
X518977Y518164D01*
X519113Y518126D01*
X519247Y518084D01*
X519381Y518038D01*
X519513Y517989D01*
X519643Y517935D01*
X519772Y517878D01*
X519899Y517818D01*
X520025Y517754D01*
X520148Y517686D01*
X520270Y517615D01*
X520390Y517541D01*
X520507Y517463D01*
X520622Y517382D01*
X520735Y517298D01*
X520846Y517211D01*
X520954Y517120D01*
X521059Y517027D01*
X521162Y516930D01*
X521262Y516831D01*
X521359Y516729D01*
X521453Y516624D01*
X521544Y516517D01*
X521632Y516407D01*
X521717Y516295D01*
X521799Y516180D01*
X521878Y516063D01*
X521953Y515944D01*
X522025Y515823D01*
X522093Y515700D01*
X522158Y515575D01*
X522220Y515448D01*
X522277Y515319D01*
X522332Y515189D01*
X522382Y515058D01*
X522429Y514925D01*
X522472Y514791D01*
X522511Y514655D01*
X522546Y514519D01*
X522578Y514382D01*
X522605Y514244D01*
X522629Y514105D01*
X522649Y513965D01*
X522665Y513825D01*
X522677Y513685D01*
X522685Y513544D01*
X522689Y513403D01*
X522689Y513263D01*
X522685Y513122D01*
X522677Y512981D01*
X522665Y512841D01*
X522649Y512701D01*
X522629Y512561D01*
X522605Y512422D01*
X522578Y512284D01*
X522546Y512147D01*
X522511Y512011D01*
X522472Y511875D01*
X522429Y511741D01*
X522382Y511608D01*
X522332Y511477D01*
X522277Y511347D01*
X522220Y511218D01*
X522158Y511091D01*
X522093Y510966D01*
X522025Y510843D01*
X521953Y510722D01*
X521878Y510603D01*
X521799Y510486D01*
X521717Y510371D01*
X521632Y510259D01*
X521544Y510149D01*
X521453Y510042D01*
X521359Y509937D01*
X521262Y509835D01*
X521162Y509736D01*
X521059Y509639D01*
X520954Y509546D01*
X520846Y509455D01*
X520735Y509368D01*
X520622Y509284D01*
X520507Y509203D01*
X520390Y509125D01*
X520270Y509051D01*
X520148Y508980D01*
X520025Y508912D01*
X519899Y508848D01*
X519772Y508788D01*
X519643Y508731D01*
X519513Y508677D01*
X519381Y508628D01*
X519247Y508582D01*
X519113Y508540D01*
X518977Y508502D01*
X518841Y508467D01*
X518703Y508437D01*
X518565Y508410D01*
X518426Y508388D01*
X518286Y508369D01*
X518146Y508354D01*
X518006Y508343D01*
X517865Y508336D01*
X517724Y508333D01*
X517583Y508334D01*
X517443Y508339D01*
X517302Y508348D01*
X517162Y508361D01*
X517022Y508378D01*
X516882Y508398D01*
X516744Y508423D01*
X516606Y508452D01*
X516469Y508484D01*
X516333Y508520D01*
X516198Y508561D01*
X516064Y508605D01*
X515931Y508652D01*
X515800Y508704D01*
X515670Y508759D01*
X515542Y508817D01*
X515416Y508880D01*
X515291Y508945D01*
X515169Y509015D01*
X515048Y509087D01*
X514929Y509163D01*
X514813Y509243D01*
X514699Y509326D01*
X514587Y509411D01*
X514478Y509500D01*
X514371Y509592D01*
X514267Y509687D01*
X514166Y509785D01*
X514067Y509886D01*
X513972Y509989D01*
X513879Y510095D01*
X513789Y510204D01*
X513703Y510315D01*
X513619Y510428D01*
X513539Y510544D01*
X513462Y510662D01*
X513389Y510782D01*
X513318Y510905D01*
X513252Y511029D01*
X513189Y511155D01*
X513129Y511282D01*
X513073Y511411D01*
X513021Y511542D01*
X512972Y511674D01*
X512927Y511808D01*
X512886Y511943D01*
X512849Y512079D01*
X512815Y512215D01*
X512786Y512353D01*
X512760Y512492D01*
X512739Y512631D01*
X512721Y512771D01*
X512707Y512911D01*
X512697Y513051D01*
X512691Y513192D01*
X512689Y513333D01*
X432889Y513333D02*
X432891Y513474D01*
X432897Y513615D01*
X432907Y513755D01*
X432921Y513895D01*
X432939Y514035D01*
X432960Y514174D01*
X432986Y514313D01*
X433015Y514451D01*
X433049Y514587D01*
X433086Y514723D01*
X433127Y514858D01*
X433172Y514992D01*
X433221Y515124D01*
X433273Y515255D01*
X433329Y515384D01*
X433389Y515511D01*
X433452Y515637D01*
X433518Y515761D01*
X433589Y515884D01*
X433662Y516004D01*
X433739Y516122D01*
X433819Y516238D01*
X433903Y516351D01*
X433989Y516462D01*
X434079Y516571D01*
X434172Y516677D01*
X434267Y516780D01*
X434366Y516881D01*
X434467Y516979D01*
X434571Y517074D01*
X434678Y517166D01*
X434787Y517255D01*
X434899Y517340D01*
X435013Y517423D01*
X435129Y517503D01*
X435248Y517579D01*
X435369Y517651D01*
X435491Y517721D01*
X435616Y517786D01*
X435742Y517849D01*
X435870Y517907D01*
X436000Y517962D01*
X436131Y518014D01*
X436264Y518061D01*
X436398Y518105D01*
X436533Y518146D01*
X436669Y518182D01*
X436806Y518214D01*
X436944Y518243D01*
X437082Y518268D01*
X437222Y518288D01*
X437362Y518305D01*
X437502Y518318D01*
X437643Y518327D01*
X437783Y518332D01*
X437924Y518333D01*
X438065Y518330D01*
X438206Y518323D01*
X438346Y518312D01*
X438486Y518297D01*
X438626Y518278D01*
X438765Y518256D01*
X438903Y518229D01*
X439041Y518199D01*
X439177Y518164D01*
X439313Y518126D01*
X439447Y518084D01*
X439581Y518038D01*
X439713Y517989D01*
X439843Y517935D01*
X439972Y517878D01*
X440099Y517818D01*
X440225Y517754D01*
X440348Y517686D01*
X440470Y517615D01*
X440590Y517541D01*
X440707Y517463D01*
X440822Y517382D01*
X440935Y517298D01*
X441046Y517211D01*
X441154Y517120D01*
X441259Y517027D01*
X441362Y516930D01*
X441462Y516831D01*
X441559Y516729D01*
X441653Y516624D01*
X441744Y516517D01*
X441832Y516407D01*
X441917Y516295D01*
X441999Y516180D01*
X442078Y516063D01*
X442153Y515944D01*
X442225Y515823D01*
X442293Y515700D01*
X442358Y515575D01*
X442420Y515448D01*
X442477Y515319D01*
X442532Y515189D01*
X442582Y515058D01*
X442629Y514925D01*
X442672Y514791D01*
X442711Y514655D01*
X442746Y514519D01*
X442778Y514382D01*
X442805Y514244D01*
X442829Y514105D01*
X442849Y513965D01*
X442865Y513825D01*
X442877Y513685D01*
X442885Y513544D01*
X442889Y513403D01*
X442889Y513263D01*
X442885Y513122D01*
X442877Y512981D01*
X442865Y512841D01*
X442849Y512701D01*
X442829Y512561D01*
X442805Y512422D01*
X442778Y512284D01*
X442746Y512147D01*
X442711Y512011D01*
X442672Y511875D01*
X442629Y511741D01*
X442582Y511608D01*
X442532Y511477D01*
X442477Y511347D01*
X442420Y511218D01*
X442358Y511091D01*
X442293Y510966D01*
X442225Y510843D01*
X442153Y510722D01*
X442078Y510603D01*
X441999Y510486D01*
X441917Y510371D01*
X441832Y510259D01*
X441744Y510149D01*
X441653Y510042D01*
X441559Y509937D01*
X441462Y509835D01*
X441362Y509736D01*
X441259Y509639D01*
X441154Y509546D01*
X441046Y509455D01*
X440935Y509368D01*
X440822Y509284D01*
X440707Y509203D01*
X440590Y509125D01*
X440470Y509051D01*
X440348Y508980D01*
X440225Y508912D01*
X440099Y508848D01*
X439972Y508788D01*
X439843Y508731D01*
X439713Y508677D01*
X439581Y508628D01*
X439447Y508582D01*
X439313Y508540D01*
X439177Y508502D01*
X439041Y508467D01*
X438903Y508437D01*
X438765Y508410D01*
X438626Y508388D01*
X438486Y508369D01*
X438346Y508354D01*
X438206Y508343D01*
X438065Y508336D01*
X437924Y508333D01*
X437783Y508334D01*
X437643Y508339D01*
X437502Y508348D01*
X437362Y508361D01*
X437222Y508378D01*
X437082Y508398D01*
X436944Y508423D01*
X436806Y508452D01*
X436669Y508484D01*
X436533Y508520D01*
X436398Y508561D01*
X436264Y508605D01*
X436131Y508652D01*
X436000Y508704D01*
X435870Y508759D01*
X435742Y508817D01*
X435616Y508880D01*
X435491Y508945D01*
X435369Y509015D01*
X435248Y509087D01*
X435129Y509163D01*
X435013Y509243D01*
X434899Y509326D01*
X434787Y509411D01*
X434678Y509500D01*
X434571Y509592D01*
X434467Y509687D01*
X434366Y509785D01*
X434267Y509886D01*
X434172Y509989D01*
X434079Y510095D01*
X433989Y510204D01*
X433903Y510315D01*
X433819Y510428D01*
X433739Y510544D01*
X433662Y510662D01*
X433589Y510782D01*
X433518Y510905D01*
X433452Y511029D01*
X433389Y511155D01*
X433329Y511282D01*
X433273Y511411D01*
X433221Y511542D01*
X433172Y511674D01*
X433127Y511808D01*
X433086Y511943D01*
X433049Y512079D01*
X433015Y512215D01*
X432986Y512353D01*
X432960Y512492D01*
X432939Y512631D01*
X432921Y512771D01*
X432907Y512911D01*
X432897Y513051D01*
X432891Y513192D01*
X432889Y513333D01*
X346845Y552194D02*
X346847Y552332D01*
X346853Y552469D01*
X346863Y552606D01*
X346877Y552743D01*
X346895Y552879D01*
X346917Y553015D01*
X346942Y553150D01*
X346972Y553284D01*
X347005Y553418D01*
X347043Y553550D01*
X347084Y553681D01*
X347129Y553811D01*
X347178Y553940D01*
X347230Y554067D01*
X347286Y554193D01*
X347346Y554317D01*
X347409Y554439D01*
X347476Y554559D01*
X347546Y554677D01*
X347619Y554794D01*
X347696Y554908D01*
X347777Y555019D01*
X347860Y555129D01*
X347946Y555236D01*
X348036Y555340D01*
X348129Y555442D01*
X348224Y555541D01*
X348322Y555637D01*
X348423Y555730D01*
X348527Y555820D01*
X348633Y555908D01*
X348742Y555992D01*
X348853Y556073D01*
X348967Y556151D01*
X349082Y556225D01*
X349200Y556296D01*
X349320Y556364D01*
X349442Y556428D01*
X349565Y556488D01*
X349690Y556545D01*
X349817Y556599D01*
X349945Y556648D01*
X350075Y556694D01*
X350206Y556736D01*
X350338Y556775D01*
X350471Y556809D01*
X350605Y556840D01*
X350740Y556866D01*
X350876Y556889D01*
X351012Y556908D01*
X351149Y556923D01*
X351286Y556934D01*
X351423Y556941D01*
X351561Y556944D01*
X351698Y556943D01*
X351836Y556938D01*
X351973Y556929D01*
X352110Y556916D01*
X352246Y556899D01*
X352382Y556878D01*
X352517Y556854D01*
X352652Y556825D01*
X352786Y556792D01*
X352918Y556756D01*
X353050Y556716D01*
X353180Y556672D01*
X353309Y556624D01*
X353437Y556572D01*
X353563Y556517D01*
X353687Y556459D01*
X353809Y556396D01*
X353930Y556330D01*
X354049Y556261D01*
X354166Y556188D01*
X354280Y556112D01*
X354393Y556033D01*
X354503Y555950D01*
X354610Y555864D01*
X354715Y555776D01*
X354817Y555684D01*
X354917Y555589D01*
X355014Y555491D01*
X355108Y555391D01*
X355199Y555288D01*
X355287Y555182D01*
X355372Y555074D01*
X355454Y554964D01*
X355533Y554851D01*
X355608Y554736D01*
X355680Y554618D01*
X355748Y554499D01*
X355813Y554378D01*
X355875Y554255D01*
X355932Y554130D01*
X355987Y554004D01*
X356037Y553876D01*
X356084Y553747D01*
X356127Y553616D01*
X356166Y553484D01*
X356202Y553351D01*
X356233Y553217D01*
X356261Y553083D01*
X356285Y552947D01*
X356305Y552811D01*
X356321Y552675D01*
X356333Y552538D01*
X356341Y552400D01*
X356345Y552263D01*
X356345Y552125D01*
X356341Y551988D01*
X356333Y551850D01*
X356321Y551713D01*
X356305Y551577D01*
X356285Y551441D01*
X356261Y551305D01*
X356233Y551171D01*
X356202Y551037D01*
X356166Y550904D01*
X356127Y550772D01*
X356084Y550641D01*
X356037Y550512D01*
X355987Y550384D01*
X355932Y550258D01*
X355875Y550133D01*
X355813Y550010D01*
X355748Y549889D01*
X355680Y549770D01*
X355608Y549652D01*
X355533Y549537D01*
X355454Y549424D01*
X355372Y549314D01*
X355287Y549206D01*
X355199Y549100D01*
X355108Y548997D01*
X355014Y548897D01*
X354917Y548799D01*
X354817Y548704D01*
X354715Y548612D01*
X354610Y548524D01*
X354503Y548438D01*
X354393Y548355D01*
X354280Y548276D01*
X354166Y548200D01*
X354049Y548127D01*
X353930Y548058D01*
X353809Y547992D01*
X353687Y547929D01*
X353563Y547871D01*
X353437Y547816D01*
X353309Y547764D01*
X353180Y547716D01*
X353050Y547672D01*
X352918Y547632D01*
X352786Y547596D01*
X352652Y547563D01*
X352517Y547534D01*
X352382Y547510D01*
X352246Y547489D01*
X352110Y547472D01*
X351973Y547459D01*
X351836Y547450D01*
X351698Y547445D01*
X351561Y547444D01*
X351423Y547447D01*
X351286Y547454D01*
X351149Y547465D01*
X351012Y547480D01*
X350876Y547499D01*
X350740Y547522D01*
X350605Y547548D01*
X350471Y547579D01*
X350338Y547613D01*
X350206Y547652D01*
X350075Y547694D01*
X349945Y547740D01*
X349817Y547789D01*
X349690Y547843D01*
X349565Y547900D01*
X349442Y547960D01*
X349320Y548024D01*
X349200Y548092D01*
X349082Y548163D01*
X348967Y548237D01*
X348853Y548315D01*
X348742Y548396D01*
X348633Y548480D01*
X348527Y548568D01*
X348423Y548658D01*
X348322Y548751D01*
X348224Y548847D01*
X348129Y548946D01*
X348036Y549048D01*
X347946Y549152D01*
X347860Y549259D01*
X347777Y549369D01*
X347696Y549480D01*
X347619Y549594D01*
X347546Y549711D01*
X347476Y549829D01*
X347409Y549949D01*
X347346Y550071D01*
X347286Y550195D01*
X347230Y550321D01*
X347178Y550448D01*
X347129Y550577D01*
X347084Y550707D01*
X347043Y550838D01*
X347005Y550970D01*
X346972Y551104D01*
X346942Y551238D01*
X346917Y551373D01*
X346895Y551509D01*
X346877Y551645D01*
X346863Y551782D01*
X346853Y551919D01*
X346847Y552056D01*
X346845Y552194D01*
X323845Y552194D02*
X323847Y552332D01*
X323853Y552469D01*
X323863Y552606D01*
X323877Y552743D01*
X323895Y552879D01*
X323917Y553015D01*
X323942Y553150D01*
X323972Y553284D01*
X324005Y553418D01*
X324043Y553550D01*
X324084Y553681D01*
X324129Y553811D01*
X324178Y553940D01*
X324230Y554067D01*
X324286Y554193D01*
X324346Y554317D01*
X324409Y554439D01*
X324476Y554559D01*
X324546Y554677D01*
X324619Y554794D01*
X324696Y554908D01*
X324777Y555019D01*
X324860Y555129D01*
X324946Y555236D01*
X325036Y555340D01*
X325129Y555442D01*
X325224Y555541D01*
X325322Y555637D01*
X325423Y555730D01*
X325527Y555820D01*
X325633Y555908D01*
X325742Y555992D01*
X325853Y556073D01*
X325967Y556151D01*
X326082Y556225D01*
X326200Y556296D01*
X326320Y556364D01*
X326442Y556428D01*
X326565Y556488D01*
X326690Y556545D01*
X326817Y556599D01*
X326945Y556648D01*
X327075Y556694D01*
X327206Y556736D01*
X327338Y556775D01*
X327471Y556809D01*
X327605Y556840D01*
X327740Y556866D01*
X327876Y556889D01*
X328012Y556908D01*
X328149Y556923D01*
X328286Y556934D01*
X328423Y556941D01*
X328561Y556944D01*
X328698Y556943D01*
X328836Y556938D01*
X328973Y556929D01*
X329110Y556916D01*
X329246Y556899D01*
X329382Y556878D01*
X329517Y556854D01*
X329652Y556825D01*
X329786Y556792D01*
X329918Y556756D01*
X330050Y556716D01*
X330180Y556672D01*
X330309Y556624D01*
X330437Y556572D01*
X330563Y556517D01*
X330687Y556459D01*
X330809Y556396D01*
X330930Y556330D01*
X331049Y556261D01*
X331166Y556188D01*
X331280Y556112D01*
X331393Y556033D01*
X331503Y555950D01*
X331610Y555864D01*
X331715Y555776D01*
X331817Y555684D01*
X331917Y555589D01*
X332014Y555491D01*
X332108Y555391D01*
X332199Y555288D01*
X332287Y555182D01*
X332372Y555074D01*
X332454Y554964D01*
X332533Y554851D01*
X332608Y554736D01*
X332680Y554618D01*
X332748Y554499D01*
X332813Y554378D01*
X332875Y554255D01*
X332932Y554130D01*
X332987Y554004D01*
X333037Y553876D01*
X333084Y553747D01*
X333127Y553616D01*
X333166Y553484D01*
X333202Y553351D01*
X333233Y553217D01*
X333261Y553083D01*
X333285Y552947D01*
X333305Y552811D01*
X333321Y552675D01*
X333333Y552538D01*
X333341Y552400D01*
X333345Y552263D01*
X333345Y552125D01*
X333341Y551988D01*
X333333Y551850D01*
X333321Y551713D01*
X333305Y551577D01*
X333285Y551441D01*
X333261Y551305D01*
X333233Y551171D01*
X333202Y551037D01*
X333166Y550904D01*
X333127Y550772D01*
X333084Y550641D01*
X333037Y550512D01*
X332987Y550384D01*
X332932Y550258D01*
X332875Y550133D01*
X332813Y550010D01*
X332748Y549889D01*
X332680Y549770D01*
X332608Y549652D01*
X332533Y549537D01*
X332454Y549424D01*
X332372Y549314D01*
X332287Y549206D01*
X332199Y549100D01*
X332108Y548997D01*
X332014Y548897D01*
X331917Y548799D01*
X331817Y548704D01*
X331715Y548612D01*
X331610Y548524D01*
X331503Y548438D01*
X331393Y548355D01*
X331280Y548276D01*
X331166Y548200D01*
X331049Y548127D01*
X330930Y548058D01*
X330809Y547992D01*
X330687Y547929D01*
X330563Y547871D01*
X330437Y547816D01*
X330309Y547764D01*
X330180Y547716D01*
X330050Y547672D01*
X329918Y547632D01*
X329786Y547596D01*
X329652Y547563D01*
X329517Y547534D01*
X329382Y547510D01*
X329246Y547489D01*
X329110Y547472D01*
X328973Y547459D01*
X328836Y547450D01*
X328698Y547445D01*
X328561Y547444D01*
X328423Y547447D01*
X328286Y547454D01*
X328149Y547465D01*
X328012Y547480D01*
X327876Y547499D01*
X327740Y547522D01*
X327605Y547548D01*
X327471Y547579D01*
X327338Y547613D01*
X327206Y547652D01*
X327075Y547694D01*
X326945Y547740D01*
X326817Y547789D01*
X326690Y547843D01*
X326565Y547900D01*
X326442Y547960D01*
X326320Y548024D01*
X326200Y548092D01*
X326082Y548163D01*
X325967Y548237D01*
X325853Y548315D01*
X325742Y548396D01*
X325633Y548480D01*
X325527Y548568D01*
X325423Y548658D01*
X325322Y548751D01*
X325224Y548847D01*
X325129Y548946D01*
X325036Y549048D01*
X324946Y549152D01*
X324860Y549259D01*
X324777Y549369D01*
X324696Y549480D01*
X324619Y549594D01*
X324546Y549711D01*
X324476Y549829D01*
X324409Y549949D01*
X324346Y550071D01*
X324286Y550195D01*
X324230Y550321D01*
X324178Y550448D01*
X324129Y550577D01*
X324084Y550707D01*
X324043Y550838D01*
X324005Y550970D01*
X323972Y551104D01*
X323942Y551238D01*
X323917Y551373D01*
X323895Y551509D01*
X323877Y551645D01*
X323863Y551782D01*
X323853Y551919D01*
X323847Y552056D01*
X323845Y552194D01*
D13*
X0Y33473D02*
X128Y30546D01*
X510Y27642D01*
X1144Y24782D01*
X2025Y21988D01*
X3146Y19282D01*
X4499Y16684D01*
X6073Y14213D01*
X7856Y11889D01*
X9835Y9730D01*
X11994Y7751D01*
X14318Y5967D01*
X16789Y4393D01*
X19387Y3041D01*
X22094Y1920D01*
X24887Y1039D01*
X27747Y405D01*
X30651Y23D01*
X33578Y-105D01*
X334516Y-105D01*
X337443Y23D01*
X340347Y405D01*
X343207Y1039D01*
X346001Y1920D01*
X348707Y3041D01*
X351305Y4393D01*
X353776Y5967D01*
X356100Y7751D01*
X358259Y9730D01*
X360238Y11889D01*
X362022Y14213D01*
X363596Y16684D01*
X364948Y19282D01*
X366069Y21988D01*
X366950Y24782D01*
X367584Y27642D01*
X367966Y30546D01*
X368094Y33473D01*
X368094Y47051D01*
X368177Y48950D01*
X368425Y50835D01*
X368837Y52691D01*
X369408Y54503D01*
X370136Y56260D01*
X371013Y57946D01*
X372035Y59549D01*
X373192Y61057D01*
X374476Y62458D01*
X375877Y63742D01*
X377385Y64900D01*
X378989Y65921D01*
X380675Y66799D01*
X382431Y67526D01*
X384244Y68098D01*
X386099Y68509D01*
X387984Y68757D01*
X389883Y68840D01*
X560720Y68840D01*
X562573Y68921D01*
X564412Y69163D01*
X566223Y69565D01*
X567992Y70122D01*
X569706Y70832D01*
X571351Y71689D01*
X572916Y72685D01*
X574387Y73815D01*
X575755Y75068D01*
X577008Y76435D01*
X578137Y77907D01*
X579134Y79471D01*
X579990Y81117D01*
X580700Y82830D01*
X581258Y84599D01*
X581660Y86410D01*
X581902Y88249D01*
X581983Y90103D01*
X581983Y531774D01*
X581862Y534535D01*
X581501Y537275D01*
X580903Y539974D01*
X580072Y542610D01*
X579014Y545163D01*
X577738Y547615D01*
X576253Y549946D01*
X574570Y552139D01*
X572703Y554177D01*
X570665Y556044D01*
X568472Y557727D01*
X566141Y559212D01*
X563689Y560488D01*
X561136Y561546D01*
X558500Y562377D01*
X555801Y562975D01*
X553061Y563336D01*
X550299Y563457D01*
X182626Y563457D01*
X181947Y563427D01*
X181274Y563338D01*
X180610Y563191D01*
X179962Y562987D01*
X179334Y562727D01*
X178731Y562413D01*
X178158Y562048D01*
X177619Y561634D01*
X177118Y561175D01*
X176659Y560674D01*
X176246Y560135D01*
X175880Y559562D01*
X175567Y558959D01*
X175307Y558332D01*
X175102Y557684D01*
X174955Y557020D01*
X174867Y556346D01*
X174837Y555668D01*
X174837Y552089D01*
X174792Y551061D01*
X174658Y550042D01*
X174435Y549037D01*
X174126Y548057D01*
X173732Y547106D01*
X173257Y546194D01*
X172705Y545327D01*
X172079Y544511D01*
X171384Y543753D01*
X170626Y543058D01*
X169810Y542432D01*
X168942Y541879D01*
X168030Y541404D01*
X167080Y541011D01*
X166099Y540701D01*
X165095Y540479D01*
X164075Y540344D01*
X163048Y540300D01*
X96839Y540300D01*
X95803Y540345D01*
X94774Y540480D01*
X93761Y540705D01*
X92771Y541017D01*
X91812Y541414D01*
X90892Y541893D01*
X90017Y542451D01*
X89194Y543082D01*
X88429Y543783D01*
X87728Y544548D01*
X87096Y545372D01*
X86538Y546247D01*
X86059Y547167D01*
X85662Y548126D01*
X85350Y549115D01*
X85126Y550129D01*
X84990Y551157D01*
X84945Y552194D01*
X84945Y555562D01*
X84915Y556250D01*
X84825Y556933D01*
X84676Y557606D01*
X84469Y558262D01*
X84205Y558899D01*
X83887Y559510D01*
X83517Y560090D01*
X83098Y560637D01*
X82633Y561145D01*
X82125Y561610D01*
X81578Y562029D01*
X80998Y562399D01*
X80387Y562717D01*
X79750Y562981D01*
X79094Y563188D01*
X78421Y563337D01*
X77738Y563427D01*
X77050Y563457D01*
X32525Y563457D01*
X29691Y563333D01*
X26877Y562963D01*
X24107Y562348D01*
X21401Y561495D01*
X18780Y560409D01*
X16263Y559099D01*
X13870Y557575D01*
X11618Y555847D01*
X9526Y553930D01*
X7609Y551838D01*
X5882Y549587D01*
X4358Y547194D01*
X3047Y544677D01*
X1962Y542056D01*
X1108Y539350D01*
X494Y536579D01*
X124Y533766D01*
X0Y530931D01*
X0Y33473D01*
X348849Y32284D02*
X348849Y33270D01*
X348779Y34253D01*
X348638Y35229D01*
X348429Y36192D01*
X348151Y37138D01*
X347807Y38061D01*
X347397Y38958D01*
X346925Y39823D01*
X346392Y40652D01*
X345801Y41442D01*
X345156Y42187D01*
X344459Y42884D01*
X343714Y43529D01*
X342924Y44120D01*
X342095Y44653D01*
X341230Y45125D01*
X340333Y45535D01*
X339410Y45879D01*
X338464Y46157D01*
X337501Y46366D01*
X336525Y46507D01*
X335542Y46577D01*
X334556Y46577D01*
X333573Y46507D01*
X332597Y46366D01*
X331634Y46157D01*
X330688Y45879D01*
X329765Y45535D01*
X328868Y45125D01*
X328003Y44653D01*
X327174Y44120D01*
X326384Y43529D01*
X325639Y42884D01*
X324942Y42187D01*
X324297Y41442D01*
X323706Y40652D01*
X323173Y39823D01*
X322701Y38958D01*
X322291Y38061D01*
X321947Y37138D01*
X321669Y36192D01*
X321460Y35229D01*
X321319Y34253D01*
X321249Y33270D01*
X321249Y32284D01*
X321319Y31301D01*
X321460Y30325D01*
X321669Y29362D01*
X321947Y28416D01*
X322291Y27493D01*
X322701Y26596D01*
X323173Y25731D01*
X323706Y24902D01*
X324297Y24112D01*
X324942Y23367D01*
X325639Y22670D01*
X326384Y22025D01*
X327174Y21434D01*
X328003Y20901D01*
X328868Y20429D01*
X329765Y20019D01*
X330688Y19675D01*
X331634Y19397D01*
X332597Y19188D01*
X333573Y19047D01*
X334556Y18977D01*
X335542Y18977D01*
X336525Y19047D01*
X337501Y19188D01*
X338464Y19397D01*
X339410Y19675D01*
X340333Y20019D01*
X341230Y20429D01*
X342095Y20901D01*
X342924Y21434D01*
X343714Y22025D01*
X344459Y22670D01*
X345156Y23367D01*
X345801Y24112D01*
X346392Y24902D01*
X346925Y25731D01*
X347397Y26596D01*
X347807Y27493D01*
X348151Y28416D01*
X348429Y29362D01*
X348638Y30325D01*
X348779Y31301D01*
X348849Y32284D01*
X571353Y469164D02*
X571353Y470150D01*
X571283Y471133D01*
X571142Y472109D01*
X570933Y473072D01*
X570655Y474018D01*
X570311Y474941D01*
X569901Y475838D01*
X569429Y476703D01*
X568896Y477532D01*
X568305Y478322D01*
X567660Y479067D01*
X566963Y479764D01*
X566218Y480409D01*
X565428Y481000D01*
X564599Y481533D01*
X563734Y482005D01*
X562837Y482415D01*
X561914Y482759D01*
X560968Y483037D01*
X560005Y483246D01*
X559029Y483387D01*
X558046Y483457D01*
X557060Y483457D01*
X556077Y483387D01*
X555101Y483246D01*
X554138Y483037D01*
X553192Y482759D01*
X552269Y482415D01*
X551372Y482005D01*
X550507Y481533D01*
X549678Y481000D01*
X548888Y480409D01*
X548143Y479764D01*
X547446Y479067D01*
X546801Y478322D01*
X546210Y477532D01*
X545677Y476703D01*
X545205Y475838D01*
X544795Y474941D01*
X544451Y474018D01*
X544173Y473072D01*
X543964Y472109D01*
X543823Y471133D01*
X543753Y470150D01*
X543753Y469164D01*
X543823Y468181D01*
X543964Y467205D01*
X544173Y466242D01*
X544451Y465296D01*
X544795Y464373D01*
X545205Y463476D01*
X545677Y462611D01*
X546210Y461782D01*
X546801Y460992D01*
X547446Y460247D01*
X548143Y459550D01*
X548888Y458905D01*
X549678Y458314D01*
X550507Y457781D01*
X551372Y457309D01*
X552269Y456899D01*
X553192Y456555D01*
X554138Y456277D01*
X555101Y456068D01*
X556077Y455927D01*
X557060Y455857D01*
X558046Y455857D01*
X559029Y455927D01*
X560005Y456068D01*
X560968Y456277D01*
X561914Y456555D01*
X562837Y456899D01*
X563734Y457309D01*
X564599Y457781D01*
X565428Y458314D01*
X566218Y458905D01*
X566963Y459550D01*
X567660Y460247D01*
X568305Y460992D01*
X568896Y461782D01*
X569429Y462611D01*
X569901Y463476D01*
X570311Y464373D01*
X570655Y465296D01*
X570933Y466242D01*
X571142Y467205D01*
X571283Y468181D01*
X571353Y469164D01*
X46843Y530632D02*
X46843Y531618D01*
X46773Y532601D01*
X46632Y533577D01*
X46423Y534540D01*
X46145Y535486D01*
X45801Y536409D01*
X45391Y537306D01*
X44919Y538171D01*
X44386Y539000D01*
X43795Y539790D01*
X43150Y540535D01*
X42453Y541232D01*
X41708Y541877D01*
X40918Y542468D01*
X40089Y543001D01*
X39224Y543473D01*
X38327Y543883D01*
X37404Y544227D01*
X36458Y544505D01*
X35495Y544714D01*
X34519Y544855D01*
X33536Y544925D01*
X32550Y544925D01*
X31567Y544855D01*
X30591Y544714D01*
X29628Y544505D01*
X28682Y544227D01*
X27759Y543883D01*
X26862Y543473D01*
X25997Y543001D01*
X25168Y542468D01*
X24378Y541877D01*
X23633Y541232D01*
X22936Y540535D01*
X22291Y539790D01*
X21700Y539000D01*
X21167Y538171D01*
X20695Y537306D01*
X20285Y536409D01*
X19941Y535486D01*
X19663Y534540D01*
X19454Y533577D01*
X19313Y532601D01*
X19243Y531618D01*
X19243Y530632D01*
X19313Y529649D01*
X19454Y528673D01*
X19663Y527710D01*
X19941Y526764D01*
X20285Y525841D01*
X20695Y524944D01*
X21167Y524079D01*
X21700Y523250D01*
X22291Y522460D01*
X22936Y521715D01*
X23633Y521018D01*
X24378Y520373D01*
X25168Y519782D01*
X25997Y519249D01*
X26862Y518777D01*
X27759Y518367D01*
X28682Y518023D01*
X29628Y517745D01*
X30591Y517536D01*
X31567Y517395D01*
X32550Y517325D01*
X33536Y517325D01*
X34519Y517395D01*
X35495Y517536D01*
X36458Y517745D01*
X37404Y518023D01*
X38327Y518367D01*
X39224Y518777D01*
X40089Y519249D01*
X40918Y519782D01*
X41708Y520373D01*
X42453Y521018D01*
X43150Y521715D01*
X43795Y522460D01*
X44386Y523250D01*
X44919Y524079D01*
X45391Y524944D01*
X45801Y525841D01*
X46145Y526764D01*
X46423Y527710D01*
X46632Y528673D01*
X46773Y529649D01*
X46843Y530632D01*
X45543Y32540D02*
X45543Y33522D01*
X45466Y34501D01*
X45312Y35472D01*
X45083Y36427D01*
X44779Y37361D01*
X44404Y38268D01*
X43958Y39143D01*
X43444Y39981D01*
X42867Y40776D01*
X42229Y41523D01*
X41535Y42217D01*
X40788Y42855D01*
X39993Y43432D01*
X39155Y43946D01*
X38280Y44392D01*
X37373Y44767D01*
X36439Y45071D01*
X35484Y45300D01*
X34513Y45454D01*
X33534Y45531D01*
X32552Y45531D01*
X31573Y45454D01*
X30603Y45300D01*
X29647Y45071D01*
X28713Y44767D01*
X27806Y44392D01*
X26931Y43946D01*
X26093Y43432D01*
X25298Y42855D01*
X24551Y42217D01*
X23857Y41523D01*
X23219Y40776D01*
X22642Y39981D01*
X22128Y39143D01*
X21682Y38268D01*
X21307Y37361D01*
X21003Y36427D01*
X20774Y35472D01*
X20620Y34501D01*
X20543Y33522D01*
X20543Y32540D01*
X20620Y31561D01*
X20774Y30591D01*
X21003Y29635D01*
X21307Y28701D01*
X21682Y27794D01*
X22128Y26919D01*
X22642Y26081D01*
X23219Y25286D01*
X23857Y24539D01*
X24551Y23845D01*
X25298Y23207D01*
X26093Y22630D01*
X26931Y22116D01*
X27806Y21670D01*
X28713Y21295D01*
X29647Y20991D01*
X30603Y20762D01*
X31573Y20608D01*
X32552Y20531D01*
X33534Y20531D01*
X34513Y20608D01*
X35484Y20762D01*
X36439Y20991D01*
X37373Y21295D01*
X38280Y21670D01*
X39155Y22116D01*
X39993Y22630D01*
X40788Y23207D01*
X41535Y23845D01*
X42229Y24539D01*
X42867Y25286D01*
X43444Y26081D01*
X43958Y26919D01*
X44404Y27794D01*
X44779Y28701D01*
X45083Y29635D01*
X45312Y30591D01*
X45466Y31561D01*
X45543Y32540D01*
X512689Y513614D02*
X512751Y514172D01*
X512876Y514720D01*
X513062Y515250D01*
X513306Y515756D01*
X513604Y516231D01*
X513954Y516670D01*
X514352Y517067D01*
X514791Y517417D01*
X515266Y517716D01*
X515772Y517960D01*
X516302Y518145D01*
X516850Y518270D01*
X517408Y518333D01*
X517969Y518333D01*
X518527Y518270D01*
X519075Y518145D01*
X519605Y517960D01*
X520111Y517716D01*
X520586Y517417D01*
X521025Y517067D01*
X521423Y516670D01*
X521773Y516231D01*
X522072Y515756D01*
X522315Y515250D01*
X522501Y514720D01*
X522626Y514172D01*
X522689Y513614D01*
X522689Y513052D01*
X522626Y512494D01*
X522501Y511947D01*
X522315Y511417D01*
X522072Y510911D01*
X521773Y510435D01*
X521423Y509996D01*
X521025Y509599D01*
X520586Y509249D01*
X520111Y508950D01*
X519605Y508707D01*
X519075Y508521D01*
X518527Y508396D01*
X517969Y508333D01*
X517408Y508333D01*
X516850Y508396D01*
X516302Y508521D01*
X515772Y508707D01*
X515266Y508950D01*
X514791Y509249D01*
X514352Y509599D01*
X513954Y509996D01*
X513604Y510435D01*
X513306Y510911D01*
X513062Y511417D01*
X512876Y511947D01*
X512751Y512494D01*
X512689Y513052D01*
X512689Y513614D01*
X432889Y513614D02*
X432951Y514172D01*
X433076Y514720D01*
X433262Y515250D01*
X433506Y515756D01*
X433804Y516231D01*
X434154Y516670D01*
X434552Y517067D01*
X434991Y517417D01*
X435466Y517716D01*
X435972Y517960D01*
X436502Y518145D01*
X437050Y518270D01*
X437608Y518333D01*
X438169Y518333D01*
X438727Y518270D01*
X439275Y518145D01*
X439805Y517960D01*
X440311Y517716D01*
X440786Y517417D01*
X441225Y517067D01*
X441623Y516670D01*
X441973Y516231D01*
X442272Y515756D01*
X442515Y515250D01*
X442701Y514720D01*
X442826Y514172D01*
X442889Y513614D01*
X442889Y513052D01*
X442826Y512494D01*
X442701Y511947D01*
X442515Y511417D01*
X442272Y510911D01*
X441973Y510435D01*
X441623Y509996D01*
X441225Y509599D01*
X440786Y509249D01*
X440311Y508950D01*
X439805Y508707D01*
X439275Y508521D01*
X438727Y508396D01*
X438169Y508333D01*
X437608Y508333D01*
X437050Y508396D01*
X436502Y508521D01*
X435972Y508707D01*
X435466Y508950D01*
X434991Y509249D01*
X434552Y509599D01*
X434154Y509996D01*
X433804Y510435D01*
X433506Y510911D01*
X433262Y511417D01*
X433076Y511947D01*
X432951Y512494D01*
X432889Y513052D01*
X432889Y513614D01*
X346845Y552461D02*
X346905Y552991D01*
X347024Y553511D01*
X347200Y554015D01*
X347431Y554495D01*
X347715Y554947D01*
X348048Y555364D01*
X348425Y555741D01*
X348842Y556074D01*
X349294Y556358D01*
X349774Y556589D01*
X350278Y556766D01*
X350798Y556884D01*
X351328Y556944D01*
X351862Y556944D01*
X352392Y556884D01*
X352912Y556766D01*
X353416Y556589D01*
X353896Y556358D01*
X354348Y556074D01*
X354765Y555741D01*
X355142Y555364D01*
X355475Y554947D01*
X355759Y554495D01*
X355990Y554015D01*
X356167Y553511D01*
X356285Y552991D01*
X356345Y552461D01*
X356345Y551927D01*
X356285Y551397D01*
X356167Y550877D01*
X355990Y550373D01*
X355759Y549893D01*
X355475Y549441D01*
X355142Y549024D01*
X354765Y548647D01*
X354348Y548314D01*
X353896Y548030D01*
X353416Y547799D01*
X352912Y547622D01*
X352392Y547504D01*
X351862Y547444D01*
X351328Y547444D01*
X350798Y547504D01*
X350278Y547622D01*
X349774Y547799D01*
X349294Y548030D01*
X348842Y548314D01*
X348425Y548647D01*
X348048Y549024D01*
X347715Y549441D01*
X347431Y549893D01*
X347200Y550373D01*
X347024Y550877D01*
X346905Y551397D01*
X346845Y551927D01*
X346845Y552461D01*
X323845Y552461D02*
X323905Y552991D01*
X324024Y553511D01*
X324200Y554015D01*
X324431Y554495D01*
X324715Y554947D01*
X325048Y555364D01*
X325425Y555741D01*
X325842Y556074D01*
X326294Y556358D01*
X326774Y556589D01*
X327278Y556766D01*
X327798Y556884D01*
X328328Y556944D01*
X328862Y556944D01*
X329392Y556884D01*
X329912Y556766D01*
X330416Y556589D01*
X330896Y556358D01*
X331348Y556074D01*
X331765Y555741D01*
X332142Y555364D01*
X332475Y554947D01*
X332759Y554495D01*
X332990Y554015D01*
X333167Y553511D01*
X333285Y552991D01*
X333345Y552461D01*
X333345Y551927D01*
X333285Y551397D01*
X333167Y550877D01*
X332990Y550373D01*
X332759Y549893D01*
X332475Y549441D01*
X332142Y549024D01*
X331765Y548647D01*
X331348Y548314D01*
X330896Y548030D01*
X330416Y547799D01*
X329912Y547622D01*
X329392Y547504D01*
X328862Y547444D01*
X328328Y547444D01*
X327798Y547504D01*
X327278Y547622D01*
X326774Y547799D01*
X326294Y548030D01*
X325842Y548314D01*
X325425Y548647D01*
X325048Y549024D01*
X324715Y549441D01*
X324431Y549893D01*
X324200Y550373D01*
X324024Y550877D01*
X323905Y551397D01*
X323845Y551927D01*
X323845Y552461D01*
M02*
