M48
;GenerationSoftware,Autodesk,EAGLE,9.6.2*%
;CreationDate,2024-07-22T17:35:08Z*%
FMAT,2
ICI,OFF
METRIC,TZ,000.000
T3C0.300
T2C0.500
T1C1.000
%
G90
M71
T1
X27419Y39206
T2
X25652Y16062
X21518Y16062
T3
X27542Y9674
X8905Y23855
X12005Y27255
X28735Y8472
X30735Y8472
X33920Y8472
X34869Y8472
X35818Y8472
X24127Y28837
X24838Y29515
X25550Y30226
X34815Y21160
X19100Y47800
X17011Y45848
X34815Y23700
X17900Y47800
X17877Y34402
X16867Y31560
X27007Y23652
X24059Y23449
X19543Y33073
X19714Y23551
X21068Y24155
X29718Y8472
X19443Y25742
X11184Y23846
X29718Y26228
X30768Y26228
X33750Y26262
X34801Y26262
X8110Y43649
X24619Y11670
X26910Y9033
X31175Y37986
X31548Y35004
X10114Y44778
X10015Y26599
X12005Y28155
X10305Y29155
X26601Y21111
X21416Y21043
X18875Y21789
X14782Y25357
X21416Y18603
X18875Y20637
X27414Y26296
X27583Y29752
X29515Y24906
X26533Y18637
M30