G04 EAGLE Gerber RS-274X export*
G75*
%MOMM*%
%FSLAX34Y34*%
%LPD*%
%INTop Copper*%
%IPPOS*%
%AMOC8*
5,1,8,0,0,1.08239X$1,22.5*%
G01*
%ADD10R,1.000000X0.220000*%
%ADD11R,1.500000X1.200000*%
%ADD12C,1.750000*%
%ADD13R,0.550000X0.250000*%
%ADD14R,1.000000X1.700000*%
%ADD15R,0.350000X0.600000*%
%ADD16R,0.600000X0.350000*%
%ADD17R,0.800000X0.550000*%
%ADD18C,0.254000*%
%ADD19C,0.700000*%
%ADD20C,0.200000*%
%ADD21C,0.609600*%
%ADD22C,0.900000*%
%ADD23C,0.812800*%

G36*
X335036Y5217D02*
X335036Y5217D01*
X335042Y5216D01*
X335767Y5225D01*
X335780Y5227D01*
X335793Y5226D01*
X336472Y5252D01*
X336486Y5254D01*
X336498Y5253D01*
X337174Y5296D01*
X337187Y5299D01*
X337199Y5298D01*
X337869Y5358D01*
X337882Y5361D01*
X337894Y5361D01*
X338559Y5437D01*
X338572Y5441D01*
X338584Y5441D01*
X339245Y5534D01*
X339258Y5537D01*
X339270Y5538D01*
X339923Y5647D01*
X339936Y5651D01*
X339948Y5651D01*
X340597Y5776D01*
X340610Y5781D01*
X340622Y5781D01*
X341266Y5922D01*
X341278Y5927D01*
X341290Y5928D01*
X341927Y6085D01*
X341940Y6090D01*
X341952Y6091D01*
X342583Y6263D01*
X342595Y6268D01*
X342607Y6270D01*
X343232Y6457D01*
X343244Y6462D01*
X343256Y6464D01*
X343875Y6666D01*
X343886Y6672D01*
X343898Y6674D01*
X344511Y6891D01*
X344523Y6897D01*
X344534Y6900D01*
X345141Y7131D01*
X345152Y7138D01*
X345163Y7140D01*
X345762Y7386D01*
X345773Y7392D01*
X345784Y7395D01*
X346376Y7655D01*
X346387Y7662D01*
X346398Y7666D01*
X346983Y7939D01*
X346993Y7947D01*
X347004Y7950D01*
X347583Y8238D01*
X347593Y8246D01*
X347604Y8249D01*
X348172Y8550D01*
X348183Y8558D01*
X348193Y8562D01*
X348756Y8877D01*
X348766Y8885D01*
X348777Y8889D01*
X349330Y9217D01*
X349340Y9225D01*
X349351Y9230D01*
X349895Y9571D01*
X349905Y9579D01*
X349916Y9584D01*
X350451Y9937D01*
X350461Y9946D01*
X350471Y9951D01*
X350998Y10317D01*
X351008Y10325D01*
X351018Y10331D01*
X351537Y10710D01*
X351546Y10719D01*
X351556Y10724D01*
X352065Y11115D01*
X352074Y11124D01*
X352084Y11130D01*
X352582Y11531D01*
X352591Y11541D01*
X352600Y11547D01*
X353091Y11962D01*
X353099Y11971D01*
X353109Y11977D01*
X353588Y12403D01*
X353596Y12413D01*
X353606Y12419D01*
X354075Y12856D01*
X354083Y12866D01*
X354092Y12873D01*
X354550Y13320D01*
X354558Y13330D01*
X354567Y13336D01*
X355016Y13796D01*
X355023Y13807D01*
X355032Y13814D01*
X355469Y14282D01*
X355476Y14293D01*
X355485Y14300D01*
X355911Y14779D01*
X355918Y14790D01*
X355926Y14797D01*
X356341Y15287D01*
X356348Y15298D01*
X356356Y15306D01*
X356758Y15804D01*
X356765Y15815D01*
X356773Y15823D01*
X357164Y16332D01*
X357170Y16343D01*
X357178Y16351D01*
X357557Y16870D01*
X357563Y16881D01*
X357571Y16890D01*
X357937Y17417D01*
X357943Y17428D01*
X357951Y17437D01*
X358304Y17972D01*
X358310Y17984D01*
X358317Y17993D01*
X358658Y18537D01*
X358663Y18549D01*
X358671Y18558D01*
X358999Y19111D01*
X359004Y19123D01*
X359011Y19132D01*
X359326Y19695D01*
X359331Y19706D01*
X359338Y19716D01*
X359639Y20284D01*
X359643Y20296D01*
X359650Y20305D01*
X359938Y20884D01*
X359942Y20896D01*
X359949Y20905D01*
X360222Y21490D01*
X360226Y21502D01*
X360233Y21512D01*
X360493Y22104D01*
X360496Y22116D01*
X360502Y22126D01*
X360748Y22725D01*
X360751Y22737D01*
X360757Y22748D01*
X360988Y23354D01*
X360991Y23367D01*
X360997Y23377D01*
X361214Y23990D01*
X361217Y24003D01*
X361222Y24013D01*
X361424Y24632D01*
X361426Y24645D01*
X361431Y24656D01*
X361618Y25281D01*
X361620Y25294D01*
X361625Y25305D01*
X361797Y25936D01*
X361799Y25950D01*
X361803Y25961D01*
X361960Y26598D01*
X361961Y26611D01*
X361966Y26623D01*
X362107Y27266D01*
X362108Y27279D01*
X362112Y27291D01*
X362237Y27940D01*
X362238Y27954D01*
X362242Y27965D01*
X362350Y28618D01*
X362351Y28632D01*
X362354Y28643D01*
X362447Y29304D01*
X362447Y29318D01*
X362451Y29329D01*
X362527Y29994D01*
X362527Y30007D01*
X362530Y30019D01*
X362590Y30689D01*
X362589Y30702D01*
X362592Y30714D01*
X362635Y31390D01*
X362634Y31404D01*
X362636Y31416D01*
X362662Y32095D01*
X362661Y32109D01*
X362663Y32121D01*
X362672Y32845D01*
X362671Y32852D01*
X362672Y32858D01*
X362672Y531600D01*
X362671Y531607D01*
X362672Y531613D01*
X362663Y532337D01*
X362661Y532350D01*
X362662Y532363D01*
X362636Y533042D01*
X362634Y533056D01*
X362635Y533068D01*
X362592Y533744D01*
X362589Y533757D01*
X362590Y533769D01*
X362530Y534439D01*
X362527Y534452D01*
X362527Y534464D01*
X362451Y535129D01*
X362447Y535142D01*
X362447Y535154D01*
X362354Y535815D01*
X362351Y535828D01*
X362350Y535840D01*
X362242Y536492D01*
X362238Y536505D01*
X362237Y536517D01*
X362112Y537167D01*
X362107Y537180D01*
X362107Y537192D01*
X361966Y537836D01*
X361961Y537848D01*
X361960Y537860D01*
X361803Y538497D01*
X361798Y538510D01*
X361797Y538522D01*
X361625Y539153D01*
X361620Y539165D01*
X361618Y539177D01*
X361431Y539802D01*
X361426Y539814D01*
X361424Y539826D01*
X361222Y540445D01*
X361216Y540456D01*
X361214Y540468D01*
X360997Y541081D01*
X360991Y541093D01*
X360988Y541104D01*
X360757Y541710D01*
X360750Y541722D01*
X360748Y541733D01*
X360502Y542332D01*
X360496Y542343D01*
X360493Y542354D01*
X360233Y542946D01*
X360226Y542957D01*
X360222Y542968D01*
X359949Y543553D01*
X359942Y543563D01*
X359938Y543574D01*
X359650Y544153D01*
X359642Y544163D01*
X359639Y544174D01*
X359338Y544742D01*
X359330Y544753D01*
X359326Y544763D01*
X359011Y545326D01*
X359003Y545336D01*
X358999Y545347D01*
X358671Y545900D01*
X358663Y545910D01*
X358658Y545921D01*
X358317Y546465D01*
X358309Y546475D01*
X358304Y546486D01*
X357951Y547021D01*
X357942Y547031D01*
X357937Y547041D01*
X357571Y547568D01*
X357563Y547578D01*
X357557Y547588D01*
X357178Y548107D01*
X357169Y548116D01*
X357164Y548126D01*
X356773Y548635D01*
X356764Y548644D01*
X356758Y548654D01*
X356356Y549152D01*
X356347Y549161D01*
X356341Y549171D01*
X355926Y549661D01*
X355917Y549669D01*
X355911Y549679D01*
X355485Y550158D01*
X355475Y550166D01*
X355469Y550176D01*
X355032Y550645D01*
X355023Y550652D01*
X355016Y550662D01*
X354567Y551122D01*
X354557Y551129D01*
X354550Y551138D01*
X354092Y551585D01*
X354082Y551593D01*
X354075Y551602D01*
X353606Y552039D01*
X353595Y552046D01*
X353588Y552055D01*
X353109Y552481D01*
X353098Y552488D01*
X353091Y552496D01*
X352601Y552911D01*
X352590Y552918D01*
X352582Y552926D01*
X352084Y553328D01*
X352073Y553335D01*
X352065Y553343D01*
X351556Y553734D01*
X351545Y553740D01*
X351537Y553748D01*
X351018Y554127D01*
X351007Y554133D01*
X350998Y554141D01*
X350471Y554507D01*
X350460Y554513D01*
X350451Y554521D01*
X349916Y554874D01*
X349904Y554880D01*
X349895Y554887D01*
X349351Y555228D01*
X349339Y555233D01*
X349330Y555241D01*
X348777Y555568D01*
X348766Y555573D01*
X348756Y555581D01*
X348193Y555896D01*
X348182Y555901D01*
X348172Y555908D01*
X347604Y556209D01*
X347592Y556213D01*
X347583Y556220D01*
X347004Y556508D01*
X346992Y556512D01*
X346983Y556519D01*
X346398Y556792D01*
X346386Y556796D01*
X346376Y556803D01*
X345784Y557063D01*
X345772Y557066D01*
X345762Y557072D01*
X345163Y557318D01*
X345151Y557321D01*
X345140Y557327D01*
X344534Y557558D01*
X344521Y557561D01*
X344511Y557567D01*
X343898Y557784D01*
X343885Y557786D01*
X343875Y557792D01*
X343256Y557994D01*
X343243Y557996D01*
X343232Y558001D01*
X342607Y558188D01*
X342594Y558190D01*
X342583Y558195D01*
X341952Y558367D01*
X341938Y558369D01*
X341927Y558373D01*
X341290Y558530D01*
X341277Y558531D01*
X341265Y558536D01*
X340622Y558677D01*
X340609Y558678D01*
X340597Y558682D01*
X339948Y558807D01*
X339934Y558808D01*
X339923Y558812D01*
X339270Y558920D01*
X339256Y558921D01*
X339245Y558924D01*
X338584Y559017D01*
X338570Y559017D01*
X338559Y559021D01*
X337894Y559097D01*
X337881Y559097D01*
X337869Y559100D01*
X337199Y559160D01*
X337186Y559159D01*
X337174Y559162D01*
X336498Y559205D01*
X336484Y559204D01*
X336472Y559206D01*
X335793Y559232D01*
X335779Y559231D01*
X335767Y559233D01*
X335042Y559242D01*
X335036Y559241D01*
X335030Y559242D01*
X32708Y559242D01*
X32702Y559241D01*
X32696Y559242D01*
X31971Y559233D01*
X31958Y559231D01*
X31945Y559232D01*
X31266Y559206D01*
X31252Y559204D01*
X31240Y559205D01*
X30564Y559162D01*
X30551Y559159D01*
X30539Y559160D01*
X29869Y559100D01*
X29856Y559097D01*
X29844Y559097D01*
X29179Y559021D01*
X29166Y559017D01*
X29154Y559017D01*
X28493Y558924D01*
X28480Y558921D01*
X28468Y558920D01*
X27815Y558812D01*
X27802Y558807D01*
X27790Y558807D01*
X27141Y558682D01*
X27128Y558677D01*
X27116Y558677D01*
X26472Y558536D01*
X26460Y558531D01*
X26448Y558530D01*
X25811Y558373D01*
X25798Y558368D01*
X25786Y558367D01*
X25155Y558195D01*
X25143Y558190D01*
X25131Y558188D01*
X24506Y558001D01*
X24494Y557996D01*
X24482Y557994D01*
X23863Y557792D01*
X23852Y557786D01*
X23840Y557784D01*
X23227Y557567D01*
X23215Y557561D01*
X23204Y557558D01*
X22598Y557327D01*
X22587Y557321D01*
X22575Y557318D01*
X21976Y557072D01*
X21965Y557066D01*
X21954Y557063D01*
X21362Y556803D01*
X21351Y556796D01*
X21340Y556792D01*
X20755Y556519D01*
X20745Y556512D01*
X20734Y556508D01*
X20155Y556220D01*
X20145Y556212D01*
X20134Y556209D01*
X19566Y555908D01*
X19555Y555900D01*
X19545Y555896D01*
X18982Y555581D01*
X18972Y555573D01*
X18961Y555569D01*
X18408Y555241D01*
X18398Y555233D01*
X18387Y555228D01*
X17843Y554887D01*
X17833Y554879D01*
X17822Y554874D01*
X17287Y554521D01*
X17277Y554512D01*
X17267Y554507D01*
X16740Y554141D01*
X16730Y554133D01*
X16720Y554127D01*
X16201Y553748D01*
X16192Y553739D01*
X16182Y553734D01*
X15673Y553343D01*
X15664Y553334D01*
X15654Y553328D01*
X15156Y552926D01*
X15147Y552917D01*
X15137Y552911D01*
X14647Y552496D01*
X14639Y552487D01*
X14629Y552481D01*
X14150Y552055D01*
X14142Y552045D01*
X14132Y552039D01*
X13663Y551602D01*
X13655Y551592D01*
X13646Y551585D01*
X13187Y551138D01*
X13180Y551128D01*
X13170Y551121D01*
X12723Y550662D01*
X12715Y550652D01*
X12706Y550645D01*
X12269Y550176D01*
X12262Y550165D01*
X12253Y550158D01*
X11827Y549679D01*
X11820Y549668D01*
X11812Y549661D01*
X11397Y549171D01*
X11390Y549160D01*
X11382Y549152D01*
X10980Y548654D01*
X10973Y548643D01*
X10965Y548635D01*
X10574Y548126D01*
X10568Y548115D01*
X10560Y548107D01*
X10181Y547588D01*
X10175Y547577D01*
X10167Y547568D01*
X9801Y547041D01*
X9795Y547030D01*
X9787Y547021D01*
X9434Y546486D01*
X9428Y546474D01*
X9421Y546465D01*
X9080Y545921D01*
X9075Y545909D01*
X9067Y545900D01*
X8739Y545347D01*
X8734Y545335D01*
X8727Y545326D01*
X8412Y544763D01*
X8407Y544752D01*
X8400Y544742D01*
X8099Y544174D01*
X8095Y544162D01*
X8088Y544153D01*
X7800Y543574D01*
X7796Y543562D01*
X7789Y543553D01*
X7516Y542968D01*
X7512Y542956D01*
X7505Y542946D01*
X7245Y542354D01*
X7242Y542342D01*
X7236Y542332D01*
X6990Y541733D01*
X6987Y541721D01*
X6981Y541710D01*
X6750Y541104D01*
X6747Y541091D01*
X6741Y541081D01*
X6524Y540469D01*
X6522Y540456D01*
X6516Y540445D01*
X6314Y539826D01*
X6312Y539813D01*
X6307Y539802D01*
X6120Y539177D01*
X6118Y539164D01*
X6113Y539153D01*
X5941Y538522D01*
X5939Y538508D01*
X5935Y538497D01*
X5778Y537860D01*
X5777Y537847D01*
X5772Y537835D01*
X5631Y537192D01*
X5630Y537179D01*
X5626Y537167D01*
X5501Y536518D01*
X5500Y536504D01*
X5497Y536493D01*
X5388Y535840D01*
X5387Y535826D01*
X5384Y535815D01*
X5291Y535154D01*
X5291Y535140D01*
X5287Y535129D01*
X5211Y534464D01*
X5211Y534451D01*
X5208Y534439D01*
X5148Y533769D01*
X5149Y533756D01*
X5146Y533744D01*
X5103Y533068D01*
X5104Y533054D01*
X5102Y533042D01*
X5076Y532363D01*
X5077Y532349D01*
X5075Y532337D01*
X5066Y531612D01*
X5067Y531606D01*
X5066Y531599D01*
X5066Y32858D01*
X5067Y32852D01*
X5066Y32846D01*
X5075Y32121D01*
X5077Y32108D01*
X5076Y32095D01*
X5102Y31416D01*
X5104Y31402D01*
X5103Y31390D01*
X5146Y30714D01*
X5149Y30701D01*
X5148Y30689D01*
X5208Y30019D01*
X5211Y30006D01*
X5211Y29994D01*
X5287Y29329D01*
X5291Y29316D01*
X5291Y29304D01*
X5384Y28643D01*
X5387Y28630D01*
X5388Y28618D01*
X5497Y27965D01*
X5501Y27952D01*
X5501Y27940D01*
X5626Y27291D01*
X5631Y27278D01*
X5631Y27266D01*
X5772Y26622D01*
X5777Y26610D01*
X5778Y26598D01*
X5935Y25961D01*
X5940Y25948D01*
X5941Y25936D01*
X6113Y25305D01*
X6118Y25293D01*
X6120Y25281D01*
X6307Y24656D01*
X6312Y24644D01*
X6314Y24632D01*
X6516Y24013D01*
X6522Y24002D01*
X6524Y23990D01*
X6741Y23377D01*
X6747Y23366D01*
X6750Y23354D01*
X6981Y22748D01*
X6987Y22736D01*
X6990Y22725D01*
X7236Y22126D01*
X7242Y22115D01*
X7245Y22104D01*
X7505Y21512D01*
X7512Y21501D01*
X7516Y21490D01*
X7789Y20905D01*
X7797Y20895D01*
X7800Y20884D01*
X8088Y20305D01*
X8096Y20295D01*
X8099Y20284D01*
X8400Y19716D01*
X8408Y19706D01*
X8412Y19695D01*
X8727Y19132D01*
X8735Y19122D01*
X8739Y19111D01*
X9067Y18558D01*
X9075Y18548D01*
X9080Y18537D01*
X9421Y17993D01*
X9429Y17983D01*
X9434Y17972D01*
X9787Y17437D01*
X9796Y17427D01*
X9801Y17417D01*
X10167Y16890D01*
X10175Y16880D01*
X10181Y16870D01*
X10560Y16351D01*
X10569Y16342D01*
X10574Y16332D01*
X10965Y15823D01*
X10974Y15814D01*
X10980Y15804D01*
X11382Y15306D01*
X11391Y15297D01*
X11397Y15287D01*
X11812Y14797D01*
X11821Y14789D01*
X11827Y14779D01*
X12253Y14300D01*
X12263Y14292D01*
X12269Y14282D01*
X12706Y13813D01*
X12716Y13805D01*
X12723Y13796D01*
X13170Y13337D01*
X13180Y13330D01*
X13187Y13320D01*
X13646Y12873D01*
X13656Y12865D01*
X13663Y12856D01*
X14133Y12419D01*
X14143Y12412D01*
X14150Y12403D01*
X14629Y11977D01*
X14640Y11970D01*
X14647Y11962D01*
X15137Y11547D01*
X15148Y11540D01*
X15156Y11532D01*
X15654Y11130D01*
X15665Y11123D01*
X15673Y11115D01*
X16182Y10724D01*
X16193Y10718D01*
X16201Y10710D01*
X16720Y10331D01*
X16731Y10325D01*
X16740Y10317D01*
X17267Y9951D01*
X17278Y9945D01*
X17287Y9937D01*
X17822Y9584D01*
X17834Y9578D01*
X17843Y9571D01*
X18387Y9230D01*
X18399Y9225D01*
X18408Y9217D01*
X18961Y8889D01*
X18973Y8884D01*
X18982Y8877D01*
X19545Y8562D01*
X19556Y8557D01*
X19566Y8550D01*
X20134Y8249D01*
X20146Y8245D01*
X20155Y8238D01*
X20734Y7950D01*
X20746Y7946D01*
X20755Y7939D01*
X21340Y7666D01*
X21352Y7662D01*
X21362Y7655D01*
X21954Y7395D01*
X21966Y7392D01*
X21976Y7386D01*
X22575Y7140D01*
X22587Y7137D01*
X22598Y7131D01*
X23204Y6900D01*
X23217Y6897D01*
X23227Y6891D01*
X23840Y6674D01*
X23853Y6671D01*
X23863Y6666D01*
X24482Y6464D01*
X24495Y6462D01*
X24506Y6457D01*
X25131Y6270D01*
X25144Y6268D01*
X25155Y6263D01*
X25786Y6091D01*
X25800Y6089D01*
X25811Y6085D01*
X26448Y5928D01*
X26461Y5927D01*
X26472Y5922D01*
X27115Y5782D01*
X27129Y5781D01*
X27140Y5776D01*
X27790Y5651D01*
X27804Y5650D01*
X27815Y5647D01*
X28468Y5538D01*
X28482Y5537D01*
X28493Y5534D01*
X29154Y5441D01*
X29168Y5441D01*
X29179Y5437D01*
X29844Y5361D01*
X29857Y5361D01*
X29869Y5358D01*
X30539Y5298D01*
X30552Y5299D01*
X30564Y5296D01*
X31240Y5253D01*
X31254Y5254D01*
X31266Y5252D01*
X31945Y5226D01*
X31959Y5227D01*
X31971Y5225D01*
X32696Y5216D01*
X32703Y5217D01*
X32709Y5216D01*
X335029Y5216D01*
X335036Y5217D01*
G37*
%LPC*%
G36*
X268006Y84833D02*
X268006Y84833D01*
X265984Y85671D01*
X264436Y87218D01*
X263599Y89240D01*
X263599Y91428D01*
X264436Y93450D01*
X265984Y94997D01*
X268006Y95835D01*
X270194Y95835D01*
X272216Y94997D01*
X273316Y93898D01*
X273316Y93897D01*
X273680Y93533D01*
X273757Y93475D01*
X273828Y93411D01*
X273869Y93391D01*
X273906Y93364D01*
X273996Y93330D01*
X274082Y93288D01*
X274124Y93281D01*
X274170Y93264D01*
X274297Y93254D01*
X274387Y93240D01*
X276458Y93240D01*
X276553Y93254D01*
X276649Y93259D01*
X276692Y93274D01*
X276737Y93280D01*
X276825Y93320D01*
X276915Y93351D01*
X276950Y93376D01*
X276994Y93396D01*
X277091Y93480D01*
X277164Y93533D01*
X285008Y101376D01*
X285065Y101453D01*
X285130Y101525D01*
X285150Y101565D01*
X285177Y101602D01*
X285211Y101692D01*
X285253Y101778D01*
X285259Y101820D01*
X285277Y101866D01*
X285285Y101979D01*
X285288Y101989D01*
X285289Y102008D01*
X285300Y102083D01*
X285300Y104940D01*
X285291Y105004D01*
X285292Y105068D01*
X285272Y105143D01*
X285261Y105220D01*
X285234Y105278D01*
X285217Y105340D01*
X285176Y105406D01*
X285144Y105477D01*
X285103Y105525D01*
X285069Y105580D01*
X285011Y105632D01*
X284961Y105691D01*
X284907Y105726D01*
X284860Y105769D01*
X284790Y105803D01*
X284725Y105845D01*
X284663Y105864D01*
X284606Y105892D01*
X284536Y105903D01*
X284455Y105928D01*
X284371Y105929D01*
X284301Y105940D01*
X282475Y105940D01*
X282447Y105950D01*
X282360Y105992D01*
X282318Y105999D01*
X282273Y106016D01*
X282145Y106026D01*
X282056Y106040D01*
X264741Y106040D01*
X264646Y106026D01*
X264550Y106021D01*
X264507Y106006D01*
X264462Y106000D01*
X264374Y105960D01*
X264315Y105940D01*
X260337Y105940D01*
X260242Y105926D01*
X260146Y105921D01*
X260103Y105906D01*
X260058Y105900D01*
X259971Y105860D01*
X259880Y105829D01*
X259845Y105804D01*
X259801Y105784D01*
X259785Y105770D01*
X230837Y105770D01*
X194285Y142322D01*
X194285Y201714D01*
X194280Y201746D01*
X194283Y201778D01*
X194260Y201885D01*
X194245Y201993D01*
X194232Y202022D01*
X194225Y202054D01*
X194174Y202150D01*
X194129Y202250D01*
X194108Y202274D01*
X194092Y202303D01*
X194016Y202381D01*
X193945Y202464D01*
X193918Y202482D01*
X193896Y202505D01*
X193801Y202559D01*
X193709Y202619D01*
X193678Y202628D01*
X193650Y202644D01*
X193544Y202669D01*
X193440Y202701D01*
X193407Y202701D01*
X193376Y202709D01*
X193267Y202703D01*
X193158Y202705D01*
X193126Y202696D01*
X193094Y202695D01*
X192991Y202659D01*
X192886Y202630D01*
X192858Y202613D01*
X192828Y202602D01*
X192755Y202549D01*
X192646Y202481D01*
X192613Y202445D01*
X192579Y202420D01*
X191861Y201702D01*
X189839Y200865D01*
X187651Y200865D01*
X185629Y201702D01*
X184529Y202802D01*
X184452Y202860D01*
X184381Y202924D01*
X184340Y202944D01*
X184304Y202972D01*
X184214Y203006D01*
X184127Y203047D01*
X184085Y203054D01*
X184040Y203071D01*
X183912Y203081D01*
X183823Y203095D01*
X177764Y203095D01*
X143657Y237202D01*
X143581Y237259D01*
X143509Y237324D01*
X143468Y237344D01*
X143432Y237371D01*
X143342Y237405D01*
X143255Y237447D01*
X143213Y237454D01*
X143168Y237471D01*
X143040Y237481D01*
X142951Y237495D01*
X126745Y237495D01*
X117845Y246395D01*
X117768Y246453D01*
X117696Y246518D01*
X117655Y246537D01*
X117619Y246565D01*
X117529Y246599D01*
X117443Y246641D01*
X117401Y246647D01*
X117355Y246664D01*
X117228Y246674D01*
X117138Y246688D01*
X112629Y246688D01*
X112534Y246675D01*
X112438Y246670D01*
X112395Y246655D01*
X112350Y246648D01*
X112263Y246609D01*
X112172Y246577D01*
X112137Y246552D01*
X112093Y246532D01*
X111996Y246449D01*
X111923Y246395D01*
X111189Y245662D01*
X111170Y245636D01*
X111145Y245615D01*
X111085Y245524D01*
X111020Y245436D01*
X111009Y245406D01*
X110991Y245379D01*
X110959Y245275D01*
X110920Y245172D01*
X110918Y245140D01*
X110908Y245109D01*
X110907Y245000D01*
X110899Y244891D01*
X110905Y244860D01*
X110905Y244827D01*
X110934Y244722D01*
X110956Y244615D01*
X110971Y244587D01*
X110980Y244556D01*
X111037Y244463D01*
X111089Y244366D01*
X111111Y244343D01*
X111128Y244316D01*
X111209Y244242D01*
X111285Y244164D01*
X111313Y244148D01*
X111337Y244127D01*
X111436Y244079D01*
X111531Y244025D01*
X111562Y244018D01*
X111591Y244004D01*
X111681Y243990D01*
X111805Y243960D01*
X111854Y243963D01*
X111896Y243956D01*
X112930Y243956D01*
X114952Y243119D01*
X116499Y241571D01*
X117337Y239549D01*
X117337Y237361D01*
X116913Y236338D01*
X116883Y236223D01*
X116849Y236109D01*
X116848Y236087D01*
X116843Y236064D01*
X116847Y235946D01*
X116845Y235827D01*
X116851Y235805D01*
X116852Y235783D01*
X116889Y235670D01*
X116920Y235556D01*
X116932Y235536D01*
X116939Y235514D01*
X117006Y235417D01*
X117068Y235316D01*
X117085Y235300D01*
X117098Y235281D01*
X117190Y235206D01*
X117278Y235127D01*
X117298Y235117D01*
X117316Y235102D01*
X117425Y235055D01*
X117531Y235004D01*
X117553Y235000D01*
X117575Y234991D01*
X117760Y234968D01*
X117836Y234956D01*
X134363Y234956D01*
X134377Y234958D01*
X134390Y234956D01*
X134475Y234972D01*
X134642Y234996D01*
X134662Y235005D01*
X135512Y234958D01*
X135541Y234960D01*
X135568Y234956D01*
X136412Y234956D01*
X136414Y234955D01*
X136498Y234937D01*
X136661Y234895D01*
X136690Y234896D01*
X136715Y234891D01*
X138403Y234797D01*
X142965Y231813D01*
X145425Y226948D01*
X145341Y225435D01*
X145276Y224265D01*
X145274Y224226D01*
X145207Y223018D01*
X145123Y221505D01*
X142139Y216942D01*
X137274Y214482D01*
X134721Y214624D01*
X134692Y214621D01*
X134666Y214626D01*
X62766Y214626D01*
X58180Y217274D01*
X55532Y221860D01*
X55532Y227515D01*
X58255Y232232D01*
X62973Y234956D01*
X103497Y234956D01*
X103529Y234961D01*
X103561Y234958D01*
X103668Y234980D01*
X103776Y234996D01*
X103806Y235009D01*
X103837Y235016D01*
X103934Y235067D01*
X104033Y235112D01*
X104058Y235133D01*
X104086Y235148D01*
X104165Y235224D01*
X104248Y235295D01*
X104265Y235322D01*
X104288Y235345D01*
X104342Y235440D01*
X104402Y235531D01*
X104412Y235562D01*
X104427Y235590D01*
X104453Y235697D01*
X104484Y235801D01*
X104485Y235833D01*
X104492Y235865D01*
X104487Y235974D01*
X104488Y236083D01*
X104480Y236114D01*
X104478Y236146D01*
X104442Y236249D01*
X104413Y236355D01*
X104396Y236382D01*
X104386Y236413D01*
X104332Y236486D01*
X104265Y236595D01*
X104229Y236627D01*
X104204Y236662D01*
X103472Y237393D01*
X101845Y239021D01*
X101844Y239021D01*
X99636Y241230D01*
X99636Y243419D01*
X99627Y243482D01*
X99628Y243547D01*
X99607Y243621D01*
X99596Y243698D01*
X99570Y243757D01*
X99553Y243819D01*
X99512Y243885D01*
X99480Y243955D01*
X99438Y244004D01*
X99404Y244059D01*
X99347Y244110D01*
X99297Y244169D01*
X99243Y244205D01*
X99195Y244248D01*
X99125Y244281D01*
X99061Y244324D01*
X98999Y244343D01*
X98941Y244371D01*
X98906Y244376D01*
X98906Y249959D01*
X98906Y255500D01*
X99991Y255500D01*
X100637Y255326D01*
X101041Y255093D01*
X101140Y255054D01*
X101236Y255007D01*
X101268Y255002D01*
X101303Y254988D01*
X101450Y254974D01*
X101541Y254960D01*
X104907Y254960D01*
X104970Y254969D01*
X105035Y254968D01*
X105109Y254988D01*
X105186Y254999D01*
X105244Y255026D01*
X105306Y255043D01*
X105372Y255084D01*
X105443Y255116D01*
X105492Y255157D01*
X105546Y255191D01*
X105598Y255249D01*
X105657Y255299D01*
X105692Y255353D01*
X105735Y255400D01*
X105769Y255470D01*
X105812Y255535D01*
X105830Y255596D01*
X105858Y255654D01*
X105869Y255724D01*
X105894Y255805D01*
X105895Y255889D01*
X105906Y255959D01*
X105906Y259575D01*
X105891Y259681D01*
X105883Y259787D01*
X105871Y259818D01*
X105866Y259854D01*
X105805Y259989D01*
X105772Y260075D01*
X105539Y260478D01*
X105366Y261124D01*
X105366Y262209D01*
X106456Y262209D01*
X106497Y262215D01*
X106538Y262213D01*
X106636Y262235D01*
X106735Y262249D01*
X106773Y262266D01*
X106813Y262275D01*
X106901Y262324D01*
X106992Y262365D01*
X107024Y262392D01*
X107060Y262412D01*
X107130Y262483D01*
X107207Y262549D01*
X107229Y262583D01*
X107258Y262612D01*
X107306Y262701D01*
X107361Y262785D01*
X107373Y262824D01*
X107393Y262860D01*
X107414Y262958D01*
X107444Y263055D01*
X107444Y263096D01*
X107453Y263136D01*
X107446Y263236D01*
X107447Y263337D01*
X107436Y263376D01*
X107434Y263417D01*
X107399Y263511D01*
X107372Y263608D01*
X107350Y263643D01*
X107336Y263682D01*
X107277Y263763D01*
X107224Y263848D01*
X107193Y263876D01*
X107169Y263909D01*
X107100Y263961D01*
X107015Y264037D01*
X107014Y264038D01*
X106962Y264063D01*
X106922Y264093D01*
X106921Y264093D01*
X106839Y264123D01*
X106760Y264161D01*
X106710Y264168D01*
X106655Y264188D01*
X106541Y264195D01*
X106456Y264208D01*
X105366Y264208D01*
X105366Y265293D01*
X105408Y265450D01*
X105421Y265556D01*
X105441Y265661D01*
X105437Y265693D01*
X105442Y265730D01*
X105418Y265877D01*
X105408Y265967D01*
X105366Y266124D01*
X105366Y267209D01*
X106456Y267209D01*
X106486Y267214D01*
X106515Y267211D01*
X106561Y267221D01*
X106609Y267221D01*
X106666Y267239D01*
X106735Y267249D01*
X106762Y267262D01*
X106792Y267268D01*
X106849Y267298D01*
X106903Y267315D01*
X106945Y267344D01*
X106992Y267365D01*
X107014Y267385D01*
X107041Y267399D01*
X107085Y267441D01*
X107135Y267476D01*
X107168Y267516D01*
X107206Y267549D01*
X107222Y267573D01*
X107244Y267595D01*
X107274Y267647D01*
X107313Y267694D01*
X107333Y267743D01*
X107361Y267785D01*
X107369Y267813D01*
X107384Y267839D01*
X107399Y267898D01*
X107422Y267954D01*
X107428Y268007D01*
X107443Y268055D01*
X107443Y268083D01*
X107451Y268113D01*
X107448Y268174D01*
X107455Y268234D01*
X107446Y268287D01*
X107447Y268337D01*
X107439Y268364D01*
X107438Y268395D01*
X107418Y268453D01*
X107408Y268512D01*
X107385Y268560D01*
X107372Y268609D01*
X107356Y268633D01*
X107347Y268662D01*
X107312Y268712D01*
X107285Y268766D01*
X107250Y268805D01*
X107223Y268849D01*
X107202Y268868D01*
X107184Y268893D01*
X107140Y268927D01*
X107096Y268976D01*
X107052Y269003D01*
X107014Y269038D01*
X106973Y269058D01*
X106941Y269082D01*
X106897Y269099D01*
X106857Y269124D01*
X106807Y269138D01*
X106760Y269161D01*
X106720Y269167D01*
X106678Y269183D01*
X106630Y269187D01*
X106585Y269200D01*
X106516Y269199D01*
X106456Y269208D01*
X105366Y269208D01*
X105366Y270293D01*
X105408Y270450D01*
X105421Y270556D01*
X105441Y270661D01*
X105437Y270694D01*
X105442Y270730D01*
X105418Y270877D01*
X105408Y270968D01*
X105366Y271124D01*
X105366Y272209D01*
X106456Y272209D01*
X106542Y272222D01*
X106629Y272225D01*
X106677Y272241D01*
X106735Y272249D01*
X106839Y272296D01*
X106921Y272324D01*
X106922Y272325D01*
X106955Y272349D01*
X106992Y272365D01*
X106992Y272366D01*
X107069Y272431D01*
X107150Y272490D01*
X107175Y272522D01*
X107207Y272549D01*
X107262Y272633D01*
X107323Y272713D01*
X107339Y272751D01*
X107361Y272785D01*
X107390Y272881D01*
X107428Y272975D01*
X107431Y273016D01*
X107443Y273055D01*
X107445Y273155D01*
X107454Y273255D01*
X107447Y273296D01*
X107447Y273337D01*
X107420Y273434D01*
X107402Y273532D01*
X107383Y273569D01*
X107372Y273609D01*
X107319Y273694D01*
X107274Y273784D01*
X107245Y273814D01*
X107224Y273849D01*
X107149Y273916D01*
X107080Y273989D01*
X107045Y274010D01*
X107015Y274038D01*
X106924Y274081D01*
X106838Y274133D01*
X106798Y274143D01*
X106761Y274161D01*
X106675Y274174D01*
X106564Y274202D01*
X106506Y274200D01*
X106456Y274208D01*
X105366Y274208D01*
X105366Y275406D01*
X105375Y275480D01*
X105366Y275533D01*
X105367Y275587D01*
X105343Y275671D01*
X105329Y275758D01*
X105306Y275806D01*
X105292Y275859D01*
X105246Y275933D01*
X105208Y276012D01*
X105172Y276053D01*
X105144Y276099D01*
X105078Y276157D01*
X105020Y276223D01*
X104974Y276251D01*
X104934Y276288D01*
X104855Y276326D01*
X104781Y276372D01*
X104729Y276387D01*
X104680Y276411D01*
X104603Y276423D01*
X104509Y276449D01*
X104437Y276449D01*
X104376Y276458D01*
X101541Y276458D01*
X101435Y276443D01*
X101328Y276435D01*
X101298Y276424D01*
X101261Y276418D01*
X101126Y276357D01*
X101041Y276324D01*
X100637Y276091D01*
X99991Y275918D01*
X98906Y275918D01*
X98906Y277008D01*
X98900Y277049D01*
X98903Y277090D01*
X98880Y277188D01*
X98866Y277288D01*
X98849Y277325D01*
X98840Y277365D01*
X98791Y277453D01*
X98750Y277545D01*
X98723Y277576D01*
X98703Y277612D01*
X98632Y277682D01*
X98567Y277759D01*
X98532Y277781D01*
X98503Y277810D01*
X98415Y277858D01*
X98331Y277913D01*
X98291Y277925D01*
X98255Y277945D01*
X98157Y277966D01*
X98061Y277996D01*
X98020Y277996D01*
X97980Y278005D01*
X97879Y277998D01*
X97779Y277999D01*
X97739Y277988D01*
X97698Y277986D01*
X97604Y277951D01*
X97507Y277924D01*
X97472Y277903D01*
X97434Y277888D01*
X97353Y277829D01*
X97267Y277776D01*
X97240Y277746D01*
X97207Y277721D01*
X97155Y277652D01*
X97078Y277567D01*
X97078Y277566D01*
X97053Y277514D01*
X97023Y277474D01*
X97022Y277473D01*
X96993Y277391D01*
X96955Y277312D01*
X96947Y277262D01*
X96927Y277208D01*
X96921Y277093D01*
X96907Y277008D01*
X96907Y275918D01*
X96447Y275918D01*
X96383Y275909D01*
X96319Y275910D01*
X96244Y275889D01*
X96167Y275878D01*
X96109Y275852D01*
X96047Y275835D01*
X95981Y275794D01*
X95911Y275762D01*
X95862Y275720D01*
X95807Y275687D01*
X95755Y275629D01*
X95696Y275579D01*
X95661Y275525D01*
X95618Y275477D01*
X95584Y275408D01*
X95542Y275343D01*
X95523Y275281D01*
X95495Y275223D01*
X95484Y275154D01*
X95459Y275073D01*
X95458Y274988D01*
X95447Y274919D01*
X95447Y274208D01*
X94357Y274208D01*
X94317Y274202D01*
X94275Y274205D01*
X94177Y274183D01*
X94078Y274168D01*
X94041Y274152D01*
X94000Y274142D01*
X93913Y274094D01*
X93821Y274052D01*
X93790Y274025D01*
X93754Y274006D01*
X93683Y273934D01*
X93607Y273869D01*
X93584Y273834D01*
X93555Y273805D01*
X93508Y273717D01*
X93452Y273633D01*
X93440Y273593D01*
X93421Y273557D01*
X93399Y273459D01*
X93370Y273363D01*
X93369Y273322D01*
X93361Y273282D01*
X93368Y273182D01*
X93366Y273081D01*
X93377Y273041D01*
X93380Y273000D01*
X93415Y272906D01*
X93441Y272809D01*
X93463Y272774D01*
X93477Y272736D01*
X93537Y272655D01*
X93590Y272569D01*
X93620Y272542D01*
X93644Y272509D01*
X93714Y272457D01*
X93799Y272380D01*
X93851Y272355D01*
X93892Y272325D01*
X93892Y272324D01*
X93975Y272295D01*
X94053Y272257D01*
X94103Y272249D01*
X94158Y272230D01*
X94272Y272223D01*
X94358Y272209D01*
X95447Y272209D01*
X95447Y271124D01*
X95405Y270968D01*
X95393Y270861D01*
X95373Y270757D01*
X95376Y270724D01*
X95372Y270688D01*
X95396Y270541D01*
X95405Y270450D01*
X95447Y270293D01*
X95447Y269208D01*
X94358Y269208D01*
X94324Y269203D01*
X94291Y269206D01*
X94271Y269202D01*
X94250Y269202D01*
X94174Y269182D01*
X94079Y269168D01*
X94048Y269154D01*
X94015Y269147D01*
X93983Y269130D01*
X93952Y269122D01*
X93889Y269083D01*
X93822Y269052D01*
X93796Y269030D01*
X93766Y269014D01*
X93742Y268990D01*
X93713Y268972D01*
X93663Y268916D01*
X93607Y268869D01*
X93589Y268841D01*
X93565Y268817D01*
X93548Y268787D01*
X93525Y268762D01*
X93493Y268694D01*
X93453Y268633D01*
X93443Y268601D01*
X93426Y268571D01*
X93418Y268538D01*
X93404Y268507D01*
X93392Y268432D01*
X93370Y268363D01*
X93370Y268331D01*
X93362Y268297D01*
X93364Y268262D01*
X93358Y268229D01*
X93368Y268153D01*
X93367Y268081D01*
X93375Y268050D01*
X93377Y268015D01*
X93389Y267983D01*
X93393Y267949D01*
X93423Y267879D01*
X93442Y267809D01*
X93459Y267781D01*
X93470Y267749D01*
X93490Y267721D01*
X93504Y267690D01*
X93552Y267631D01*
X93590Y267569D01*
X93615Y267547D01*
X93634Y267519D01*
X93660Y267500D01*
X93683Y267472D01*
X93745Y267430D01*
X93799Y267380D01*
X93844Y267358D01*
X93879Y267332D01*
X93879Y267331D01*
X93899Y267324D01*
X93916Y267313D01*
X93986Y267290D01*
X94053Y267257D01*
X94097Y267250D01*
X94144Y267233D01*
X94165Y267231D01*
X94184Y267225D01*
X94279Y267222D01*
X94358Y267209D01*
X95447Y267209D01*
X95447Y266124D01*
X95405Y265968D01*
X95393Y265861D01*
X95373Y265757D01*
X95376Y265724D01*
X95372Y265688D01*
X95396Y265541D01*
X95405Y265450D01*
X95447Y265293D01*
X95447Y264208D01*
X94358Y264208D01*
X94271Y264196D01*
X94184Y264193D01*
X94136Y264177D01*
X94079Y264168D01*
X93974Y264121D01*
X93892Y264093D01*
X93859Y264069D01*
X93822Y264052D01*
X93821Y264052D01*
X93745Y263987D01*
X93663Y263928D01*
X93638Y263895D01*
X93607Y263868D01*
X93552Y263784D01*
X93490Y263705D01*
X93475Y263667D01*
X93452Y263633D01*
X93423Y263536D01*
X93386Y263443D01*
X93382Y263402D01*
X93370Y263363D01*
X93369Y263263D01*
X93359Y263162D01*
X93367Y263122D01*
X93366Y263081D01*
X93393Y262984D01*
X93412Y262885D01*
X93430Y262849D01*
X93441Y262809D01*
X93494Y262723D01*
X93540Y262634D01*
X93568Y262604D01*
X93589Y262569D01*
X93664Y262502D01*
X93733Y262428D01*
X93768Y262408D01*
X93799Y262380D01*
X93889Y262336D01*
X93976Y262285D01*
X94016Y262275D01*
X94053Y262257D01*
X94138Y262244D01*
X94249Y262215D01*
X94307Y262217D01*
X94357Y262209D01*
X95447Y262209D01*
X95447Y261124D01*
X95274Y260478D01*
X95041Y260075D01*
X95002Y259976D01*
X94955Y259880D01*
X94950Y259847D01*
X94936Y259813D01*
X94922Y259665D01*
X94907Y259575D01*
X94907Y256499D01*
X94917Y256435D01*
X94916Y256371D01*
X94936Y256296D01*
X94947Y256220D01*
X94974Y256161D01*
X94991Y256099D01*
X95032Y256033D01*
X95063Y255963D01*
X95105Y255914D01*
X95139Y255859D01*
X95197Y255807D01*
X95247Y255748D01*
X95301Y255713D01*
X95348Y255670D01*
X95418Y255636D01*
X95483Y255594D01*
X95544Y255575D01*
X95602Y255547D01*
X95672Y255536D01*
X95753Y255512D01*
X95837Y255510D01*
X95907Y255500D01*
X96907Y255500D01*
X96907Y249959D01*
X96907Y244418D01*
X95822Y244418D01*
X95176Y244591D01*
X94772Y244824D01*
X94674Y244864D01*
X94577Y244911D01*
X94545Y244916D01*
X94511Y244929D01*
X94363Y244944D01*
X94273Y244958D01*
X90328Y244958D01*
X88891Y246395D01*
X88814Y246453D01*
X88742Y246518D01*
X88701Y246537D01*
X88665Y246565D01*
X88575Y246599D01*
X88489Y246641D01*
X88447Y246647D01*
X88401Y246664D01*
X88274Y246674D01*
X88184Y246688D01*
X46281Y246688D01*
X36779Y256190D01*
X36779Y314900D01*
X50695Y328816D01*
X184392Y328816D01*
X184456Y328825D01*
X184520Y328824D01*
X184595Y328845D01*
X184672Y328856D01*
X184730Y328882D01*
X184792Y328899D01*
X184858Y328940D01*
X184929Y328972D01*
X184977Y329014D01*
X185032Y329047D01*
X185084Y329105D01*
X185143Y329155D01*
X185178Y329209D01*
X185221Y329257D01*
X185255Y329326D01*
X185297Y329391D01*
X185316Y329453D01*
X185344Y329510D01*
X185355Y329580D01*
X185380Y329661D01*
X185381Y329746D01*
X185392Y329815D01*
X185392Y340610D01*
X185379Y340696D01*
X185377Y340783D01*
X185360Y340835D01*
X185352Y340889D01*
X185316Y340969D01*
X185289Y341051D01*
X185258Y341096D01*
X185236Y341146D01*
X185179Y341212D01*
X185130Y341284D01*
X185088Y341319D01*
X185052Y341361D01*
X184979Y341408D01*
X184913Y341463D01*
X184862Y341485D01*
X184816Y341515D01*
X184733Y341540D01*
X184653Y341575D01*
X184599Y341581D01*
X184547Y341597D01*
X184460Y341599D01*
X184374Y341609D01*
X184319Y341601D01*
X184265Y341601D01*
X184181Y341578D01*
X184095Y341564D01*
X184046Y341541D01*
X183993Y341526D01*
X183919Y341480D01*
X183840Y341443D01*
X183799Y341407D01*
X183753Y341378D01*
X183695Y341313D01*
X183630Y341256D01*
X183603Y341212D01*
X183564Y341169D01*
X183514Y341066D01*
X183469Y340993D01*
X183431Y340901D01*
X181884Y339353D01*
X179862Y338516D01*
X177674Y338516D01*
X175652Y339353D01*
X174105Y340901D01*
X173267Y342922D01*
X173267Y345111D01*
X174105Y347132D01*
X175437Y348464D01*
X175494Y348541D01*
X175559Y348613D01*
X175579Y348654D01*
X175606Y348690D01*
X175640Y348780D01*
X175682Y348866D01*
X175688Y348909D01*
X175705Y348954D01*
X175715Y349082D01*
X175729Y349171D01*
X175729Y453908D01*
X175725Y453939D01*
X175727Y453972D01*
X175721Y454001D01*
X175721Y454007D01*
X175716Y454024D01*
X175705Y454079D01*
X175689Y454187D01*
X175676Y454216D01*
X175670Y454248D01*
X175618Y454344D01*
X175573Y454444D01*
X175552Y454468D01*
X175537Y454497D01*
X175461Y454575D01*
X175390Y454658D01*
X175363Y454676D01*
X175340Y454699D01*
X175245Y454753D01*
X175154Y454812D01*
X175123Y454822D01*
X175095Y454838D01*
X174989Y454863D01*
X174884Y454895D01*
X174852Y454895D01*
X174821Y454903D01*
X174711Y454897D01*
X174602Y454899D01*
X174571Y454890D01*
X174539Y454888D01*
X174436Y454853D01*
X174330Y454823D01*
X174303Y454806D01*
X174272Y454796D01*
X174199Y454743D01*
X174170Y454724D01*
X174165Y454722D01*
X174162Y454720D01*
X174090Y454675D01*
X174058Y454639D01*
X174023Y454614D01*
X173224Y453814D01*
X171202Y452977D01*
X169014Y452977D01*
X168722Y453098D01*
X168682Y453108D01*
X168644Y453126D01*
X168559Y453139D01*
X168449Y453168D01*
X168390Y453166D01*
X168340Y453174D01*
X140701Y453174D01*
X140606Y453160D01*
X140510Y453155D01*
X140467Y453140D01*
X140422Y453134D01*
X140335Y453094D01*
X140244Y453063D01*
X140209Y453038D01*
X140165Y453018D01*
X140068Y452934D01*
X139995Y452881D01*
X139047Y451933D01*
X139045Y451930D01*
X139041Y451927D01*
X138959Y451816D01*
X138878Y451708D01*
X138876Y451704D01*
X138874Y451701D01*
X138826Y451571D01*
X138778Y451444D01*
X138778Y451440D01*
X138776Y451436D01*
X138767Y451299D01*
X138756Y451163D01*
X138757Y451159D01*
X138757Y451154D01*
X138786Y451021D01*
X138814Y450887D01*
X138816Y450883D01*
X138817Y450879D01*
X138882Y450758D01*
X138946Y450638D01*
X138949Y450635D01*
X138951Y450631D01*
X139048Y450533D01*
X139143Y450436D01*
X139147Y450434D01*
X139150Y450431D01*
X139270Y450364D01*
X139389Y450296D01*
X139393Y450296D01*
X139396Y450294D01*
X139447Y450283D01*
X139663Y450232D01*
X139681Y450232D01*
X139698Y450229D01*
X139759Y450226D01*
X139798Y450209D01*
X139838Y450205D01*
X139882Y450192D01*
X139936Y450190D01*
X140205Y450097D01*
X140305Y450077D01*
X140383Y450053D01*
X140663Y450010D01*
X140685Y449999D01*
X140723Y449992D01*
X140762Y449975D01*
X140798Y449970D01*
X141072Y449847D01*
X141168Y449819D01*
X141242Y449787D01*
X141531Y449716D01*
X141540Y449710D01*
X141574Y449700D01*
X141610Y449681D01*
X141630Y449677D01*
X141905Y449522D01*
X141998Y449486D01*
X142067Y449449D01*
X142375Y449342D01*
X142392Y449335D01*
X142424Y449314D01*
X142434Y449310D01*
X142703Y449126D01*
X142791Y449083D01*
X142856Y449040D01*
X143174Y448896D01*
X143198Y448877D01*
X143201Y448876D01*
X143456Y448666D01*
X143540Y448615D01*
X143601Y448567D01*
X143909Y448393D01*
X143929Y448374D01*
X143932Y448373D01*
X144169Y448139D01*
X144247Y448082D01*
X144304Y448028D01*
X144594Y447829D01*
X144614Y447807D01*
X144621Y447802D01*
X144833Y447553D01*
X144906Y447488D01*
X144959Y447430D01*
X145203Y447229D01*
X145225Y447210D01*
X145248Y447178D01*
X145262Y447167D01*
X145445Y446908D01*
X145514Y446836D01*
X145561Y446772D01*
X145776Y446561D01*
X145781Y446551D01*
X145806Y446525D01*
X145827Y446491D01*
X145850Y446469D01*
X146004Y446204D01*
X146066Y446125D01*
X146108Y446057D01*
X146295Y445838D01*
X146304Y445814D01*
X146327Y445785D01*
X146346Y445746D01*
X146379Y445710D01*
X146500Y445447D01*
X146556Y445362D01*
X146592Y445289D01*
X146750Y445066D01*
X146762Y445025D01*
X146784Y444991D01*
X146800Y444949D01*
X146840Y444896D01*
X146931Y444639D01*
X146979Y444546D01*
X147009Y444470D01*
X147139Y444246D01*
X147150Y444186D01*
X147169Y444149D01*
X147182Y444104D01*
X147228Y444031D01*
X147289Y443782D01*
X147329Y443684D01*
X147352Y443605D01*
X147458Y443375D01*
X147464Y443322D01*
X147478Y443288D01*
X147485Y443248D01*
X147505Y443209D01*
X147551Y442929D01*
X147580Y442835D01*
X147595Y442757D01*
X147681Y442514D01*
X147675Y442414D01*
X147700Y442133D01*
X147703Y442126D01*
X147704Y442119D01*
X147839Y441578D01*
X147832Y441536D01*
X147831Y441316D01*
X147829Y441263D01*
X147846Y441129D01*
X147851Y441111D01*
X147851Y441093D01*
X147860Y441041D01*
X147864Y441026D01*
X147865Y441011D01*
X147886Y440953D01*
X147908Y440757D01*
X147915Y440729D01*
X147915Y440704D01*
X147956Y440453D01*
X147950Y440385D01*
X147956Y440356D01*
X147955Y440329D01*
X147957Y440308D01*
X147961Y440291D01*
X147961Y440275D01*
X147964Y440257D01*
X147969Y440241D01*
X147969Y440224D01*
X147991Y440160D01*
X148013Y439923D01*
X148019Y439897D01*
X148019Y439873D01*
X148052Y439641D01*
X148046Y439585D01*
X148052Y439554D01*
X148050Y439526D01*
X148051Y439513D01*
X148055Y439496D01*
X148055Y439480D01*
X148057Y439466D01*
X148061Y439449D01*
X148061Y439432D01*
X148083Y439366D01*
X148102Y439120D01*
X148107Y439094D01*
X148107Y439070D01*
X148135Y438846D01*
X148128Y438792D01*
X148133Y438760D01*
X148131Y438732D01*
X148132Y438714D01*
X148136Y438697D01*
X148135Y438682D01*
X148136Y438673D01*
X148141Y438656D01*
X148141Y438639D01*
X148161Y438573D01*
X148175Y438328D01*
X148181Y438302D01*
X148180Y438278D01*
X148205Y438051D01*
X148197Y437997D01*
X148201Y437966D01*
X148199Y437938D01*
X148199Y437926D01*
X148203Y437908D01*
X148202Y437891D01*
X148203Y437876D01*
X148207Y437860D01*
X148207Y437845D01*
X148226Y437778D01*
X148236Y437536D01*
X148241Y437509D01*
X148240Y437485D01*
X148261Y437257D01*
X148252Y437202D01*
X148256Y437171D01*
X148253Y437142D01*
X148254Y437126D01*
X148257Y437110D01*
X148255Y437095D01*
X148256Y437083D01*
X148260Y437066D01*
X148259Y437049D01*
X148278Y436981D01*
X148284Y436737D01*
X148288Y436711D01*
X148286Y436687D01*
X148304Y436460D01*
X148294Y436406D01*
X148297Y436374D01*
X148294Y436345D01*
X148294Y436331D01*
X148297Y436314D01*
X148295Y436299D01*
X148296Y436286D01*
X148300Y436270D01*
X148299Y436253D01*
X148316Y436186D01*
X148318Y435946D01*
X148322Y435919D01*
X148319Y435895D01*
X148333Y435664D01*
X148322Y435609D01*
X148325Y435577D01*
X148321Y435548D01*
X148321Y435536D01*
X148324Y435520D01*
X148322Y435505D01*
X148323Y435490D01*
X148326Y435473D01*
X148325Y435456D01*
X148341Y435388D01*
X148338Y435144D01*
X148342Y435118D01*
X148339Y435093D01*
X148349Y434866D01*
X148337Y434812D01*
X148340Y434780D01*
X148335Y434752D01*
X148335Y434735D01*
X148337Y434718D01*
X148335Y434703D01*
X148336Y434692D01*
X148338Y434675D01*
X148337Y434659D01*
X148352Y434590D01*
X148346Y434345D01*
X148349Y434318D01*
X148346Y434294D01*
X148351Y434069D01*
X148339Y434015D01*
X148341Y433984D01*
X148336Y433957D01*
X148335Y433944D01*
X148338Y433924D01*
X148335Y433906D01*
X148335Y433891D01*
X148338Y433876D01*
X148336Y433861D01*
X148347Y433807D01*
X148346Y433766D01*
X148348Y433759D01*
X148339Y433553D01*
X148342Y433527D01*
X148339Y433502D01*
X148341Y433273D01*
X148327Y433218D01*
X148328Y433186D01*
X148323Y433157D01*
X148322Y433144D01*
X148324Y433127D01*
X148321Y433112D01*
X148321Y433096D01*
X148323Y433079D01*
X148321Y433062D01*
X148334Y432993D01*
X148320Y432753D01*
X148322Y432726D01*
X148318Y432702D01*
X148316Y432474D01*
X148302Y432421D01*
X148302Y432389D01*
X148296Y432362D01*
X148295Y432345D01*
X148297Y432327D01*
X148294Y432311D01*
X148294Y432297D01*
X148295Y432281D01*
X148293Y432264D01*
X148305Y432195D01*
X148286Y431955D01*
X148288Y431928D01*
X148284Y431904D01*
X148278Y431677D01*
X148263Y431623D01*
X148263Y431592D01*
X148256Y431565D01*
X148255Y431550D01*
X148256Y431532D01*
X148253Y431516D01*
X148252Y431498D01*
X148254Y431482D01*
X148252Y431467D01*
X148262Y431397D01*
X148239Y431157D01*
X148241Y431130D01*
X148236Y431106D01*
X148226Y430881D01*
X148210Y430827D01*
X148210Y430796D01*
X148203Y430769D01*
X148201Y430750D01*
X148202Y430733D01*
X148199Y430718D01*
X148198Y430703D01*
X148199Y430685D01*
X148196Y430668D01*
X148205Y430599D01*
X148179Y430361D01*
X148180Y430334D01*
X148174Y430310D01*
X148161Y430084D01*
X148144Y430031D01*
X148143Y430000D01*
X148136Y429973D01*
X148134Y429957D01*
X148135Y429939D01*
X148131Y429924D01*
X148127Y429869D01*
X148127Y429858D01*
X148125Y429847D01*
X148133Y429766D01*
X148136Y429726D01*
X148095Y429430D01*
X148095Y429398D01*
X148089Y429369D01*
X148082Y429281D01*
X148071Y429250D01*
X148070Y429224D01*
X148064Y429202D01*
X148044Y429058D01*
X148044Y429035D01*
X148039Y429015D01*
X147990Y428495D01*
X147970Y428440D01*
X147967Y428391D01*
X147956Y428349D01*
X147920Y428024D01*
X147920Y428021D01*
X147919Y428018D01*
X147921Y427976D01*
X147925Y427856D01*
X147755Y426961D01*
X147754Y426934D01*
X147747Y426911D01*
X147628Y426051D01*
X147604Y425983D01*
X147543Y425835D01*
X147539Y425803D01*
X147530Y425777D01*
X147411Y425149D01*
X147410Y425139D01*
X147407Y425129D01*
X147406Y425051D01*
X147398Y424867D01*
X147403Y424843D01*
X147403Y424821D01*
X147200Y424027D01*
X147196Y423994D01*
X147186Y423966D01*
X147033Y423161D01*
X147029Y423152D01*
X147022Y423144D01*
X146991Y423072D01*
X146913Y422906D01*
X146909Y422882D01*
X146901Y422861D01*
X146737Y422224D01*
X146736Y422214D01*
X146733Y422205D01*
X146727Y422126D01*
X146706Y421943D01*
X146711Y421919D01*
X146709Y421898D01*
X146456Y421118D01*
X146450Y421085D01*
X146438Y421058D01*
X146234Y420263D01*
X146230Y420255D01*
X146223Y420248D01*
X146187Y420178D01*
X146099Y420017D01*
X146094Y419993D01*
X146084Y419973D01*
X145886Y419365D01*
X145884Y419355D01*
X145880Y419346D01*
X145869Y419268D01*
X145838Y419087D01*
X145840Y419063D01*
X145838Y419042D01*
X145535Y418279D01*
X145527Y418246D01*
X145514Y418220D01*
X145260Y417439D01*
X145256Y417432D01*
X145248Y417425D01*
X145209Y417358D01*
X145110Y417202D01*
X145103Y417179D01*
X145092Y417160D01*
X144862Y416580D01*
X144860Y416570D01*
X144855Y416561D01*
X144839Y416483D01*
X144797Y416305D01*
X144798Y416280D01*
X144794Y416262D01*
X144444Y415518D01*
X144434Y415486D01*
X144419Y415460D01*
X144116Y414696D01*
X144112Y414690D01*
X144104Y414683D01*
X144060Y414618D01*
X143952Y414470D01*
X143944Y414446D01*
X143931Y414428D01*
X143887Y414333D01*
X143671Y413875D01*
X143668Y413865D01*
X143663Y413856D01*
X143642Y413779D01*
X143588Y413605D01*
X143588Y413580D01*
X143583Y413562D01*
X143187Y412841D01*
X143175Y412809D01*
X143159Y412785D01*
X142947Y412335D01*
X142947Y412334D01*
X142809Y412040D01*
X142804Y412035D01*
X142796Y412029D01*
X142747Y411966D01*
X142631Y411826D01*
X142621Y411803D01*
X142608Y411785D01*
X142318Y411257D01*
X142314Y411247D01*
X142308Y411239D01*
X142282Y411163D01*
X142218Y410993D01*
X142216Y410968D01*
X142211Y410951D01*
X141770Y410255D01*
X141757Y410225D01*
X141738Y410202D01*
X141342Y409479D01*
X141338Y409475D01*
X141329Y409470D01*
X141277Y409410D01*
X141152Y409277D01*
X141141Y409255D01*
X141126Y409238D01*
X140807Y408734D01*
X140803Y408724D01*
X140796Y408716D01*
X140766Y408642D01*
X140691Y408477D01*
X140688Y408452D01*
X140681Y408436D01*
X140198Y407768D01*
X140182Y407739D01*
X140163Y407716D01*
X139722Y407020D01*
X139718Y407016D01*
X139709Y407011D01*
X139653Y406955D01*
X139520Y406830D01*
X139508Y406808D01*
X139492Y406792D01*
X139144Y406312D01*
X139139Y406303D01*
X139132Y406295D01*
X139097Y406223D01*
X139013Y406063D01*
X139008Y406038D01*
X139000Y406023D01*
X138476Y405386D01*
X138459Y405357D01*
X138438Y405337D01*
X137955Y404669D01*
X137951Y404665D01*
X137941Y404661D01*
X137882Y404608D01*
X137742Y404492D01*
X137728Y404471D01*
X137711Y404456D01*
X137334Y403998D01*
X137329Y403989D01*
X137321Y403982D01*
X137282Y403913D01*
X137188Y403758D01*
X137181Y403733D01*
X137173Y403718D01*
X136610Y403115D01*
X136591Y403088D01*
X136569Y403069D01*
X136045Y402432D01*
X136041Y402429D01*
X136031Y402425D01*
X135968Y402376D01*
X135822Y402269D01*
X135807Y402249D01*
X135789Y402235D01*
X135383Y401800D01*
X135377Y401791D01*
X135369Y401784D01*
X135325Y401717D01*
X135221Y401568D01*
X135213Y401545D01*
X135203Y401530D01*
X134605Y400963D01*
X134584Y400938D01*
X134561Y400919D01*
X133999Y400317D01*
X133994Y400314D01*
X133984Y400311D01*
X133919Y400265D01*
X133765Y400167D01*
X133749Y400149D01*
X133730Y400136D01*
X133294Y399723D01*
X133288Y399715D01*
X133279Y399708D01*
X133231Y399644D01*
X133118Y399502D01*
X133109Y399479D01*
X133098Y399464D01*
X132466Y398937D01*
X132444Y398912D01*
X132419Y398895D01*
X131821Y398329D01*
X131816Y398326D01*
X131806Y398324D01*
X131737Y398283D01*
X131578Y398195D01*
X131561Y398177D01*
X131541Y398165D01*
X131074Y397775D01*
X131067Y397767D01*
X131058Y397762D01*
X131007Y397701D01*
X130885Y397566D01*
X130874Y397543D01*
X130862Y397529D01*
X130199Y397042D01*
X130175Y397019D01*
X130150Y397004D01*
X129518Y396477D01*
X129512Y396474D01*
X129501Y396472D01*
X129431Y396435D01*
X129266Y396357D01*
X129248Y396340D01*
X129228Y396330D01*
X128727Y395963D01*
X128720Y395956D01*
X128711Y395951D01*
X128657Y395894D01*
X128526Y395766D01*
X128514Y395744D01*
X128500Y395729D01*
X127808Y395286D01*
X127783Y395264D01*
X127756Y395251D01*
X127094Y394765D01*
X127087Y394762D01*
X127077Y394761D01*
X127005Y394729D01*
X126835Y394661D01*
X126815Y394645D01*
X126795Y394636D01*
X126260Y394293D01*
X126252Y394287D01*
X126243Y394282D01*
X126185Y394229D01*
X126046Y394109D01*
X126033Y394088D01*
X126017Y394074D01*
X125300Y393676D01*
X125273Y393656D01*
X125246Y393644D01*
X124556Y393201D01*
X124547Y393198D01*
X124537Y393197D01*
X124463Y393170D01*
X124289Y393113D01*
X124268Y393099D01*
X124248Y393091D01*
X123676Y392774D01*
X123668Y392768D01*
X123659Y392764D01*
X123599Y392715D01*
X123452Y392603D01*
X123437Y392584D01*
X123420Y392570D01*
X122680Y392218D01*
X122652Y392200D01*
X122624Y392189D01*
X121908Y391791D01*
X121898Y391789D01*
X121888Y391789D01*
X121813Y391767D01*
X121635Y391720D01*
X121614Y391707D01*
X121593Y391701D01*
X121002Y391420D01*
X120991Y391413D01*
X120979Y391409D01*
X120910Y391359D01*
X120767Y391265D01*
X120752Y391246D01*
X119966Y390926D01*
X119940Y390911D01*
X119914Y390903D01*
X119155Y390542D01*
X119150Y390542D01*
X119084Y390526D01*
X119062Y390526D01*
X119014Y390512D01*
X118900Y390490D01*
X118875Y390477D01*
X118851Y390471D01*
X118830Y390463D01*
X118812Y390452D01*
X118791Y390446D01*
X118715Y390396D01*
X118700Y390387D01*
X118650Y390361D01*
X118640Y390352D01*
X118587Y390321D01*
X118586Y390320D01*
X118558Y390312D01*
X118482Y390264D01*
X118426Y390245D01*
X118398Y390231D01*
X118368Y390223D01*
X118290Y390176D01*
X118287Y390175D01*
X118232Y390157D01*
X118204Y390144D01*
X118173Y390137D01*
X118094Y390091D01*
X118090Y390089D01*
X118036Y390073D01*
X118008Y390060D01*
X117977Y390054D01*
X117897Y390010D01*
X117893Y390008D01*
X117841Y389994D01*
X117812Y389982D01*
X117781Y389976D01*
X117700Y389934D01*
X117698Y389933D01*
X117644Y389920D01*
X117615Y389908D01*
X117584Y389903D01*
X117502Y389863D01*
X117499Y389861D01*
X117447Y389850D01*
X117417Y389839D01*
X117386Y389834D01*
X117304Y389796D01*
X117304Y389795D01*
X117247Y389784D01*
X117218Y389773D01*
X117187Y389770D01*
X117104Y389733D01*
X117097Y389731D01*
X117086Y389729D01*
X116973Y389691D01*
X116887Y389671D01*
X116844Y389653D01*
X116774Y389648D01*
X116747Y389637D01*
X116717Y389633D01*
X116650Y389604D01*
X116577Y389583D01*
X116512Y389570D01*
X116500Y389569D01*
X116382Y389538D01*
X116294Y389523D01*
X116290Y389521D01*
X116174Y389493D01*
X116091Y389481D01*
X116086Y389480D01*
X115967Y389454D01*
X115880Y389443D01*
X115878Y389443D01*
X115759Y389419D01*
X115675Y389410D01*
X115673Y389410D01*
X115671Y389410D01*
X115670Y389410D01*
X115553Y389389D01*
X115470Y389382D01*
X115466Y389382D01*
X115346Y389364D01*
X115314Y389362D01*
X115262Y389366D01*
X115233Y389360D01*
X115199Y389361D01*
X115099Y389336D01*
X115049Y389337D01*
X114926Y389324D01*
X114876Y389323D01*
X114772Y389330D01*
X114726Y389321D01*
X114684Y389320D01*
X114642Y389314D01*
X114559Y389322D01*
X114513Y389313D01*
X114472Y389314D01*
X114379Y389301D01*
X114369Y389298D01*
X114306Y389296D01*
X114273Y389298D01*
X114144Y389315D01*
X114098Y389309D01*
X114057Y389311D01*
X114012Y389307D01*
X113935Y389319D01*
X113888Y389313D01*
X113846Y389316D01*
X113778Y389311D01*
X113773Y389312D01*
X113732Y389308D01*
X113707Y389306D01*
X113692Y389307D01*
X113661Y389317D01*
X113616Y389325D01*
X113563Y389327D01*
X113543Y389331D01*
X113515Y389329D01*
X113497Y389329D01*
X113410Y389340D01*
X113388Y389340D01*
X113312Y389357D01*
X113265Y389354D01*
X113223Y389360D01*
X113198Y389359D01*
X113176Y389366D01*
X113146Y389366D01*
X113114Y389374D01*
X113011Y389370D01*
X112931Y389390D01*
X112811Y389403D01*
X112724Y389419D01*
X112665Y389421D01*
X112634Y389430D01*
X112543Y389466D01*
X112502Y389469D01*
X112458Y389482D01*
X112326Y389483D01*
X112310Y389484D01*
X112244Y389505D01*
X112126Y389526D01*
X112041Y389549D01*
X111971Y389556D01*
X111953Y389563D01*
X111863Y389605D01*
X111824Y389611D01*
X111782Y389627D01*
X111649Y389637D01*
X111645Y389637D01*
X111573Y389666D01*
X111458Y389694D01*
X111375Y389723D01*
X111300Y389736D01*
X111287Y389742D01*
X111200Y389791D01*
X111161Y389799D01*
X111121Y389817D01*
X110990Y389836D01*
X110915Y389873D01*
X110802Y389909D01*
X110721Y389943D01*
X110642Y389963D01*
X110635Y389967D01*
X110551Y390022D01*
X110514Y390032D01*
X110475Y390053D01*
X110348Y390081D01*
X110273Y390124D01*
X110164Y390167D01*
X110086Y390207D01*
X110007Y390232D01*
X110002Y390236D01*
X109921Y390296D01*
X109885Y390310D01*
X109848Y390333D01*
X109723Y390370D01*
X109652Y390417D01*
X109545Y390468D01*
X109470Y390513D01*
X109395Y390543D01*
X109388Y390549D01*
X109313Y390614D01*
X109277Y390630D01*
X109242Y390656D01*
X109117Y390702D01*
X109052Y390753D01*
X108949Y390811D01*
X108876Y390861D01*
X108808Y390894D01*
X108797Y390904D01*
X108726Y390974D01*
X108691Y390993D01*
X108657Y391022D01*
X108535Y391076D01*
X108531Y391079D01*
X108473Y391130D01*
X108374Y391196D01*
X108305Y391251D01*
X108246Y391285D01*
X108230Y391301D01*
X108165Y391376D01*
X108131Y391397D01*
X108098Y391428D01*
X107981Y391491D01*
X107969Y391498D01*
X107921Y391548D01*
X107826Y391621D01*
X107760Y391681D01*
X107711Y391714D01*
X107689Y391739D01*
X107630Y391817D01*
X107597Y391841D01*
X107566Y391876D01*
X107455Y391945D01*
X107432Y391961D01*
X107396Y392005D01*
X107305Y392085D01*
X107244Y392150D01*
X107207Y392179D01*
X107178Y392215D01*
X107126Y392297D01*
X107094Y392324D01*
X107065Y392361D01*
X106960Y392437D01*
X106928Y392464D01*
X106902Y392500D01*
X106859Y392544D01*
X106846Y392565D01*
X106803Y392603D01*
X106760Y392657D01*
X106733Y392680D01*
X106699Y392731D01*
X106653Y392815D01*
X106622Y392845D01*
X106595Y392886D01*
X106497Y392967D01*
X106455Y393008D01*
X106440Y393033D01*
X106360Y393128D01*
X106308Y393201D01*
X106295Y393214D01*
X106255Y393284D01*
X106216Y393370D01*
X106186Y393403D01*
X106161Y393446D01*
X106071Y393533D01*
X106019Y393592D01*
X106013Y393603D01*
X105939Y393705D01*
X105892Y393782D01*
X105889Y393785D01*
X105889Y393787D01*
X105848Y393871D01*
X105815Y393959D01*
X105788Y393994D01*
X105766Y394040D01*
X105683Y394133D01*
X105628Y394204D01*
X105626Y394207D01*
X105560Y394312D01*
X105520Y394389D01*
X105514Y394415D01*
X105481Y394499D01*
X105456Y394585D01*
X105430Y394626D01*
X105410Y394676D01*
X105336Y394770D01*
X105288Y394844D01*
X105259Y394877D01*
X105211Y394971D01*
X105195Y395008D01*
X105188Y395048D01*
X105180Y395073D01*
X105180Y395076D01*
X105167Y395112D01*
X105160Y395136D01*
X105146Y395210D01*
X105140Y395229D01*
X105115Y395277D01*
X105103Y395317D01*
X105101Y395318D01*
X105100Y395323D01*
X105089Y395342D01*
X105080Y395368D01*
X104947Y395618D01*
X104899Y395685D01*
X104896Y395691D01*
X104892Y395733D01*
X104828Y395987D01*
X104793Y396073D01*
X104774Y396146D01*
X104631Y396471D01*
X104627Y396494D01*
X104613Y396523D01*
X104569Y396809D01*
X104540Y396908D01*
X104525Y396988D01*
X104439Y397234D01*
X104439Y397286D01*
X104427Y397324D01*
X104423Y397369D01*
X104396Y397441D01*
X104380Y397707D01*
X104359Y397809D01*
X104352Y397891D01*
X104288Y398145D01*
X104293Y398196D01*
X104285Y398235D01*
X104285Y398281D01*
X104266Y398347D01*
X104276Y398621D01*
X104264Y398724D01*
X104265Y398806D01*
X104223Y399076D01*
X104230Y399112D01*
X104226Y399151D01*
X104230Y399195D01*
X104221Y399246D01*
X104256Y399531D01*
X104255Y399633D01*
X104262Y399714D01*
X104246Y399999D01*
X104252Y400023D01*
X104252Y400061D01*
X104260Y400103D01*
X104256Y400142D01*
X104320Y400435D01*
X104328Y400536D01*
X104343Y400615D01*
X104352Y400909D01*
X104357Y400921D01*
X104359Y400957D01*
X104371Y400996D01*
X104371Y401023D01*
X104463Y401318D01*
X104480Y401417D01*
X104501Y401493D01*
X104539Y401793D01*
X104541Y401798D01*
X104547Y401834D01*
X104562Y401871D01*
X104563Y401890D01*
X104685Y402183D01*
X104710Y402279D01*
X104738Y402353D01*
X104808Y402671D01*
X104812Y402687D01*
X104829Y402722D01*
X104837Y402765D01*
X104856Y402799D01*
X104871Y402873D01*
X104897Y402945D01*
X104900Y403011D01*
X104914Y403075D01*
X104909Y403151D01*
X104913Y403226D01*
X104898Y403291D01*
X104893Y403357D01*
X104867Y403427D01*
X104850Y403501D01*
X104818Y403559D01*
X104794Y403621D01*
X104749Y403681D01*
X104712Y403747D01*
X104665Y403794D01*
X104626Y403847D01*
X104565Y403892D01*
X104512Y403945D01*
X104453Y403977D01*
X104401Y404017D01*
X104330Y404043D01*
X104263Y404079D01*
X104199Y404093D01*
X104137Y404117D01*
X104068Y404121D01*
X103988Y404139D01*
X103901Y404133D01*
X103829Y404137D01*
X102115Y403986D01*
X102064Y403974D01*
X102011Y403971D01*
X101927Y403942D01*
X101840Y403922D01*
X101834Y403918D01*
X101391Y403918D01*
X101378Y403916D01*
X101371Y403916D01*
X101339Y403912D01*
X101303Y403914D01*
X100854Y403875D01*
X100802Y403883D01*
X100706Y403910D01*
X100635Y403909D01*
X100576Y403918D01*
X100539Y403918D01*
X100483Y403910D01*
X100426Y403912D01*
X100344Y403890D01*
X100259Y403878D01*
X99802Y403915D01*
X99767Y403913D01*
X99744Y403916D01*
X99734Y403916D01*
X99722Y403918D01*
X99248Y403918D01*
X99214Y403926D01*
X99126Y403960D01*
X99051Y403965D01*
X98989Y403980D01*
X98244Y404040D01*
X98167Y404035D01*
X98091Y404041D01*
X98027Y404027D01*
X97962Y404023D01*
X97890Y403997D01*
X97815Y403981D01*
X97758Y403950D01*
X97697Y403928D01*
X97635Y403882D01*
X97567Y403846D01*
X97521Y403800D01*
X97469Y403762D01*
X97422Y403701D01*
X97367Y403647D01*
X97336Y403590D01*
X97296Y403539D01*
X97268Y403468D01*
X97230Y403401D01*
X97216Y403337D01*
X97192Y403277D01*
X97185Y403200D01*
X97168Y403126D01*
X97172Y403066D01*
X97166Y402996D01*
X97185Y402898D01*
X97190Y402818D01*
X97225Y402668D01*
X97262Y402573D01*
X97277Y402518D01*
X97283Y402508D01*
X97296Y402465D01*
X97335Y402382D01*
X97341Y402267D01*
X97356Y402192D01*
X97360Y402116D01*
X97381Y402060D01*
X97395Y401990D01*
X97440Y401902D01*
X97468Y401827D01*
X97526Y401725D01*
X97536Y401636D01*
X97569Y401515D01*
X97585Y401426D01*
X97614Y401344D01*
X97607Y401220D01*
X97613Y401145D01*
X97609Y401070D01*
X97624Y401011D01*
X97630Y400939D01*
X97666Y400847D01*
X97685Y400771D01*
X97735Y400653D01*
X97736Y400571D01*
X97755Y400445D01*
X97762Y400355D01*
X97779Y400278D01*
X97757Y400142D01*
X97755Y400069D01*
X97743Y399996D01*
X97752Y399934D01*
X97750Y399860D01*
X97775Y399767D01*
X97785Y399691D01*
X97826Y399554D01*
X97819Y399483D01*
X97824Y399354D01*
X97821Y399263D01*
X97829Y399194D01*
X97791Y399056D01*
X97778Y398963D01*
X97759Y398889D01*
X97759Y398885D01*
X97761Y398829D01*
X97754Y398776D01*
X97753Y398773D01*
X97753Y398747D01*
X97767Y398656D01*
X97768Y398640D01*
X97769Y398578D01*
X97795Y398439D01*
X97782Y398379D01*
X97772Y398248D01*
X97759Y398157D01*
X97760Y398099D01*
X97716Y397990D01*
X97696Y397908D01*
X97666Y397830D01*
X97663Y397776D01*
X97648Y397716D01*
X97653Y397606D01*
X97648Y397522D01*
X97653Y397467D01*
X97624Y397373D01*
X97607Y397263D01*
X97585Y397180D01*
X97565Y396979D01*
X97541Y396936D01*
X97439Y396661D01*
X97438Y396655D01*
X97435Y396650D01*
X97423Y396586D01*
X97380Y396385D01*
X97382Y396365D01*
X97378Y396347D01*
X97377Y396323D01*
X97341Y396242D01*
X97307Y396125D01*
X97275Y396042D01*
X97250Y395928D01*
X97247Y395923D01*
X97207Y395843D01*
X97159Y395769D01*
X97146Y395721D01*
X97120Y395671D01*
X97099Y395556D01*
X97084Y395500D01*
X97059Y395456D01*
X97023Y395365D01*
X97012Y395347D01*
X97002Y395317D01*
X96979Y395269D01*
X96976Y395266D01*
X96934Y395190D01*
X96847Y395048D01*
X96839Y395020D01*
X96826Y394997D01*
X96731Y394739D01*
X96728Y394722D01*
X96563Y394482D01*
X96528Y394408D01*
X96488Y394348D01*
X96486Y394341D01*
X96478Y394329D01*
X96335Y394012D01*
X96110Y393738D01*
X96060Y393655D01*
X96012Y393594D01*
X95845Y393297D01*
X95602Y393047D01*
X95546Y392970D01*
X95493Y392914D01*
X95302Y392634D01*
X95039Y392405D01*
X94977Y392334D01*
X94920Y392283D01*
X94708Y392024D01*
X94429Y391821D01*
X94362Y391756D01*
X94302Y391711D01*
X94068Y391470D01*
X93776Y391292D01*
X93704Y391234D01*
X93641Y391194D01*
X93388Y390975D01*
X93086Y390824D01*
X93039Y390791D01*
X92992Y390770D01*
X92969Y390750D01*
X92944Y390737D01*
X92672Y390540D01*
X92359Y390414D01*
X92279Y390369D01*
X92210Y390340D01*
X91923Y390166D01*
X91603Y390068D01*
X91520Y390029D01*
X91449Y390006D01*
X91148Y389856D01*
X90820Y389785D01*
X90734Y389753D01*
X90660Y389736D01*
X90344Y389610D01*
X90012Y389568D01*
X89923Y389543D01*
X89848Y389532D01*
X89521Y389432D01*
X89187Y389418D01*
X89095Y389401D01*
X89019Y389396D01*
X88650Y389317D01*
X88320Y389334D01*
X88221Y389325D01*
X88141Y389327D01*
X87852Y389290D01*
X87804Y389300D01*
X87763Y389296D01*
X87716Y389302D01*
X87626Y389288D01*
X87402Y389322D01*
X87291Y389324D01*
X87206Y389333D01*
X87039Y389326D01*
X86969Y389341D01*
X86885Y389368D01*
X86835Y389369D01*
X86780Y389381D01*
X86663Y389372D01*
X86576Y389374D01*
X86572Y389373D01*
X86435Y389409D01*
X86319Y389422D01*
X86233Y389440D01*
X86076Y389448D01*
X86019Y389466D01*
X85929Y389503D01*
X85888Y389507D01*
X85843Y389521D01*
X85741Y389523D01*
X85566Y389583D01*
X85539Y389589D01*
X85513Y389600D01*
X85422Y389611D01*
X85289Y389637D01*
X85279Y389636D01*
X85263Y389639D01*
X85179Y389666D01*
X85103Y389678D01*
X85034Y389720D01*
X84945Y389758D01*
X84878Y389797D01*
X84781Y389835D01*
X84721Y389849D01*
X84672Y389870D01*
X84625Y389882D01*
X84574Y389888D01*
X84531Y389907D01*
X84136Y390010D01*
X84104Y390034D01*
X84101Y390036D01*
X84098Y390038D01*
X84056Y390061D01*
X83857Y390171D01*
X83840Y390175D01*
X83826Y390183D01*
X83711Y390222D01*
X83708Y390223D01*
X83675Y390229D01*
X83664Y390235D01*
X83619Y390247D01*
X83584Y390266D01*
X83479Y390302D01*
X83413Y390345D01*
X83401Y390349D01*
X83392Y390355D01*
X83259Y390414D01*
X83247Y390417D01*
X83239Y390423D01*
X83199Y390441D01*
X83171Y390448D01*
X83149Y390461D01*
X83068Y390492D01*
X83056Y390500D01*
X83004Y390518D01*
X82963Y390542D01*
X82644Y390666D01*
X82603Y390695D01*
X82556Y390712D01*
X82518Y390735D01*
X81966Y390960D01*
X81960Y390961D01*
X81955Y390964D01*
X81894Y390978D01*
X81877Y390982D01*
X81748Y391045D01*
X81743Y391047D01*
X81740Y391050D01*
X81001Y391414D01*
X80980Y391421D01*
X80964Y391431D01*
X80174Y391781D01*
X80174Y391782D01*
X80173Y391782D01*
X80160Y391785D01*
X80145Y391790D01*
X80136Y391795D01*
X80095Y391810D01*
X80067Y391828D01*
X80051Y391840D01*
X80037Y391846D01*
X80027Y391854D01*
X79269Y392268D01*
X79249Y392275D01*
X79233Y392286D01*
X78458Y392669D01*
X78457Y392669D01*
X78447Y392673D01*
X78429Y392678D01*
X78419Y392684D01*
X78379Y392701D01*
X78354Y392719D01*
X78338Y392732D01*
X78324Y392739D01*
X78314Y392748D01*
X77573Y393192D01*
X77553Y393200D01*
X77537Y393212D01*
X76777Y393627D01*
X76776Y393627D01*
X76770Y393630D01*
X76749Y393638D01*
X76740Y393643D01*
X76701Y393662D01*
X76677Y393680D01*
X76661Y393695D01*
X76648Y393702D01*
X76638Y393711D01*
X75914Y394186D01*
X75895Y394195D01*
X75880Y394208D01*
X75135Y394655D01*
X75134Y394655D01*
X75134Y394656D01*
X75121Y394661D01*
X75108Y394666D01*
X75101Y394671D01*
X75062Y394692D01*
X75040Y394710D01*
X75024Y394726D01*
X75012Y394733D01*
X75002Y394742D01*
X74297Y395249D01*
X74277Y395259D01*
X74263Y395272D01*
X73457Y395801D01*
X73408Y395856D01*
X73376Y395875D01*
X73370Y395882D01*
X73325Y395916D01*
X73320Y395919D01*
X73312Y395925D01*
X73308Y395928D01*
X73307Y395928D01*
X73119Y396072D01*
X73092Y396087D01*
X73069Y396108D01*
X72987Y396147D01*
X72981Y396150D01*
X72479Y396551D01*
X72456Y396565D01*
X72438Y396582D01*
X71909Y396962D01*
X71852Y397030D01*
X71814Y397056D01*
X71785Y397085D01*
X71609Y397218D01*
X71601Y397222D01*
X71596Y397227D01*
X71531Y397261D01*
X71525Y397264D01*
X70779Y397909D01*
X70762Y397920D01*
X70750Y397933D01*
X70171Y398396D01*
X70168Y398397D01*
X70166Y398400D01*
X70126Y398422D01*
X70124Y398423D01*
X70079Y398466D01*
X70045Y398489D01*
X70020Y398516D01*
X69980Y398548D01*
X69958Y398578D01*
X69944Y398588D01*
X69934Y398600D01*
X69393Y399106D01*
X69377Y399117D01*
X69365Y399131D01*
X68812Y399609D01*
X68809Y399611D01*
X68807Y399613D01*
X68769Y399637D01*
X68763Y399640D01*
X68716Y399688D01*
X68683Y399713D01*
X68660Y399741D01*
X68619Y399775D01*
X68598Y399806D01*
X68585Y399817D01*
X68575Y399830D01*
X68060Y400349D01*
X68044Y400361D01*
X68033Y400376D01*
X67504Y400869D01*
X67502Y400871D01*
X67500Y400873D01*
X67461Y400899D01*
X67457Y400902D01*
X67410Y400953D01*
X67379Y400979D01*
X67356Y401007D01*
X67313Y401047D01*
X67292Y401081D01*
X67279Y401092D01*
X67270Y401105D01*
X66782Y401637D01*
X66766Y401650D01*
X66755Y401665D01*
X66252Y402172D01*
X66249Y402174D01*
X66247Y402177D01*
X66211Y402203D01*
X66204Y402208D01*
X66157Y402263D01*
X66127Y402290D01*
X66105Y402320D01*
X66062Y402364D01*
X66041Y402399D01*
X66029Y402411D01*
X66020Y402424D01*
X65557Y402969D01*
X65542Y402982D01*
X65532Y402997D01*
X65053Y403518D01*
X65051Y403520D01*
X65049Y403523D01*
X65011Y403553D01*
X65006Y403557D01*
X64959Y403616D01*
X64930Y403644D01*
X64910Y403674D01*
X64866Y403721D01*
X64847Y403758D01*
X64834Y403771D01*
X64826Y403785D01*
X64389Y404341D01*
X64374Y404355D01*
X64365Y404370D01*
X63910Y404904D01*
X63907Y404907D01*
X63905Y404910D01*
X63868Y404942D01*
X63863Y404946D01*
X63816Y405010D01*
X63788Y405039D01*
X63769Y405070D01*
X63727Y405120D01*
X63709Y405157D01*
X63697Y405170D01*
X63689Y405185D01*
X63276Y405752D01*
X63262Y405767D01*
X63254Y405783D01*
X62823Y406330D01*
X62820Y406332D01*
X62818Y406336D01*
X62782Y406369D01*
X62777Y406373D01*
X62733Y406438D01*
X62706Y406469D01*
X62689Y406500D01*
X62645Y406556D01*
X62627Y406596D01*
X62616Y406609D01*
X62609Y406624D01*
X62221Y407202D01*
X62208Y407216D01*
X62200Y407233D01*
X61793Y407791D01*
X61790Y407794D01*
X61788Y407798D01*
X61752Y407834D01*
X61747Y407839D01*
X61703Y407910D01*
X61677Y407941D01*
X61661Y407973D01*
X61621Y408029D01*
X61605Y408068D01*
X61594Y408083D01*
X61587Y408098D01*
X61224Y408687D01*
X61211Y408702D01*
X61203Y408719D01*
X60820Y409289D01*
X60817Y409292D01*
X60816Y409296D01*
X60781Y409332D01*
X60777Y409337D01*
X60736Y409409D01*
X60711Y409441D01*
X60696Y409473D01*
X60655Y409535D01*
X60640Y409577D01*
X60630Y409592D01*
X60624Y409607D01*
X60285Y410205D01*
X60273Y410221D01*
X60266Y410237D01*
X59906Y410820D01*
X59904Y410823D01*
X59902Y410827D01*
X59868Y410865D01*
X59864Y410871D01*
X59824Y410948D01*
X59800Y410980D01*
X59787Y411013D01*
X59748Y411075D01*
X59735Y411117D01*
X59725Y411133D01*
X59720Y411148D01*
X59405Y411756D01*
X59394Y411772D01*
X59387Y411789D01*
X59051Y412383D01*
X59048Y412386D01*
X59047Y412390D01*
X59015Y412430D01*
X59010Y412435D01*
X58974Y412513D01*
X58952Y412547D01*
X58939Y412580D01*
X58902Y412645D01*
X58890Y412689D01*
X58881Y412704D01*
X58876Y412720D01*
X58585Y413338D01*
X58574Y413354D01*
X58569Y413371D01*
X58255Y413976D01*
X58253Y413979D01*
X58252Y413983D01*
X58220Y414025D01*
X58217Y414031D01*
X58182Y414111D01*
X58161Y414146D01*
X58150Y414180D01*
X58116Y414245D01*
X58106Y414289D01*
X58097Y414305D01*
X58093Y414321D01*
X57826Y414948D01*
X57816Y414965D01*
X57811Y414982D01*
X57521Y415598D01*
X57519Y415601D01*
X57517Y415605D01*
X57488Y415648D01*
X57484Y415653D01*
X57454Y415734D01*
X57434Y415769D01*
X57424Y415803D01*
X57392Y415872D01*
X57383Y415917D01*
X57375Y415933D01*
X57371Y415949D01*
X57128Y416585D01*
X57119Y416602D01*
X57114Y416620D01*
X56848Y417245D01*
X56846Y417249D01*
X56845Y417253D01*
X56816Y417297D01*
X56813Y417302D01*
X56785Y417386D01*
X56767Y417422D01*
X56758Y417456D01*
X56729Y417525D01*
X56722Y417570D01*
X56714Y417586D01*
X56711Y417603D01*
X56493Y418246D01*
X56484Y418264D01*
X56480Y418282D01*
X56237Y418918D01*
X56235Y418921D01*
X56234Y418925D01*
X56207Y418971D01*
X56205Y418976D01*
X56179Y419061D01*
X56163Y419097D01*
X56155Y419132D01*
X56129Y419201D01*
X56124Y419246D01*
X56117Y419263D01*
X56114Y419279D01*
X55920Y419932D01*
X55912Y419950D01*
X55908Y419968D01*
X55689Y420614D01*
X55687Y420618D01*
X55686Y420622D01*
X55662Y420668D01*
X55659Y420673D01*
X55637Y420757D01*
X55622Y420794D01*
X55616Y420830D01*
X55592Y420899D01*
X55589Y420944D01*
X55582Y420961D01*
X55581Y420978D01*
X55411Y421638D01*
X55403Y421657D01*
X55401Y421674D01*
X55205Y422331D01*
X55203Y422335D01*
X55203Y422339D01*
X55180Y422384D01*
X55177Y422391D01*
X55159Y422475D01*
X55145Y422513D01*
X55140Y422548D01*
X55119Y422618D01*
X55118Y422663D01*
X55112Y422680D01*
X55111Y422696D01*
X54965Y423365D01*
X54958Y423384D01*
X54957Y423402D01*
X54785Y424068D01*
X54784Y424071D01*
X54783Y424075D01*
X54763Y424120D01*
X54760Y424128D01*
X54745Y424212D01*
X54733Y424250D01*
X54729Y424286D01*
X54711Y424355D01*
X54711Y424399D01*
X54706Y424417D01*
X54706Y424433D01*
X54585Y425110D01*
X54579Y425129D01*
X54578Y425147D01*
X54431Y425823D01*
X54429Y425826D01*
X54429Y425830D01*
X54410Y425879D01*
X54408Y425884D01*
X54397Y425966D01*
X54385Y426005D01*
X54383Y426041D01*
X54368Y426109D01*
X54370Y426153D01*
X54366Y426170D01*
X54366Y426186D01*
X54270Y426871D01*
X54265Y426890D01*
X54265Y426908D01*
X54142Y427593D01*
X54141Y427597D01*
X54141Y427601D01*
X54124Y427648D01*
X54122Y427655D01*
X54114Y427737D01*
X54104Y427776D01*
X54103Y427812D01*
X54092Y427878D01*
X54095Y427919D01*
X54091Y427937D01*
X54092Y427954D01*
X54022Y428646D01*
X54017Y428666D01*
X54018Y428684D01*
X53921Y429379D01*
X53920Y429382D01*
X53920Y429386D01*
X53905Y429432D01*
X53903Y429439D01*
X53898Y429518D01*
X53890Y429557D01*
X53891Y429593D01*
X53882Y429659D01*
X53886Y429701D01*
X53883Y429718D01*
X53885Y429735D01*
X53841Y430435D01*
X53837Y430455D01*
X53838Y430473D01*
X53767Y431176D01*
X53766Y431179D01*
X53766Y431183D01*
X53754Y431229D01*
X53752Y431237D01*
X53750Y431315D01*
X53743Y431355D01*
X53745Y431391D01*
X53739Y431452D01*
X53745Y431492D01*
X53743Y431510D01*
X53745Y431526D01*
X53727Y432233D01*
X53724Y432253D01*
X53726Y432271D01*
X53681Y432985D01*
X53680Y432988D01*
X53680Y432992D01*
X53676Y433010D01*
X53676Y433023D01*
X53669Y433051D01*
X53670Y433119D01*
X53664Y433159D01*
X53668Y433195D01*
X53664Y433254D01*
X53671Y433293D01*
X53670Y433311D01*
X53672Y433327D01*
X53682Y434042D01*
X53680Y434062D01*
X53682Y434080D01*
X53664Y434802D01*
X53664Y434805D01*
X53664Y434809D01*
X53655Y434855D01*
X53655Y434860D01*
X53658Y434930D01*
X53655Y434971D01*
X53659Y435007D01*
X53658Y435064D01*
X53667Y435102D01*
X53666Y435119D01*
X53669Y435135D01*
X53706Y435856D01*
X53705Y435877D01*
X53708Y435894D01*
X53718Y436626D01*
X53717Y436629D01*
X53718Y436632D01*
X53711Y436677D01*
X53710Y436683D01*
X53716Y436752D01*
X53714Y436792D01*
X53720Y436828D01*
X53721Y436880D01*
X53731Y436915D01*
X53730Y436933D01*
X53734Y436949D01*
X53800Y437677D01*
X53799Y437697D01*
X53803Y437715D01*
X53841Y438455D01*
X53841Y438458D01*
X53842Y438461D01*
X53837Y438505D01*
X53837Y438510D01*
X53845Y438573D01*
X53844Y438613D01*
X53852Y438649D01*
X53854Y438699D01*
X53865Y438733D01*
X53865Y438751D01*
X53870Y438766D01*
X53965Y439501D01*
X53965Y439521D01*
X53969Y439539D01*
X54032Y440234D01*
X54032Y440241D01*
X54033Y440248D01*
X54055Y440486D01*
X54061Y440499D01*
X54065Y440534D01*
X54077Y440568D01*
X54078Y440590D01*
X54084Y440609D01*
X54101Y440712D01*
X54101Y440716D01*
X54107Y440754D01*
X54107Y440764D01*
X54110Y440784D01*
X54111Y440807D01*
X54112Y440811D01*
X54112Y440814D01*
X54117Y440839D01*
X54116Y440847D01*
X54120Y440862D01*
X54119Y440878D01*
X54119Y440880D01*
X54120Y440914D01*
X54128Y440946D01*
X54124Y441010D01*
X54174Y441282D01*
X54174Y441286D01*
X54176Y441290D01*
X54177Y441340D01*
X54185Y441564D01*
X54181Y441582D01*
X54181Y441598D01*
X54176Y441636D01*
X54288Y442062D01*
X54296Y442130D01*
X54312Y442187D01*
X54328Y442307D01*
X54349Y442353D01*
X54353Y442379D01*
X54363Y442405D01*
X54380Y442574D01*
X54392Y442659D01*
X54389Y442778D01*
X54419Y442854D01*
X54443Y442954D01*
X54457Y442986D01*
X54461Y443017D01*
X54465Y443028D01*
X54466Y443032D01*
X54467Y443034D01*
X54468Y443037D01*
X54479Y443064D01*
X54482Y443084D01*
X54513Y443153D01*
X54519Y443203D01*
X54528Y443229D01*
X54553Y443267D01*
X54554Y443270D01*
X54557Y443273D01*
X54577Y443320D01*
X54620Y443412D01*
X54639Y443443D01*
X54645Y443466D01*
X54671Y443523D01*
X54674Y443541D01*
X54680Y443556D01*
X54688Y443586D01*
X54698Y443673D01*
X54716Y443742D01*
X54728Y443865D01*
X54738Y443883D01*
X54787Y444016D01*
X54823Y444101D01*
X54830Y444126D01*
X54910Y444232D01*
X54952Y444308D01*
X54996Y444365D01*
X55039Y444446D01*
X55043Y444458D01*
X55046Y444462D01*
X55051Y444480D01*
X55060Y444505D01*
X55087Y444551D01*
X55106Y444600D01*
X55127Y444687D01*
X55154Y444756D01*
X55182Y444887D01*
X55205Y444920D01*
X55266Y445043D01*
X55312Y445122D01*
X55329Y445164D01*
X55427Y445267D01*
X55480Y445340D01*
X55531Y445393D01*
X55560Y445436D01*
X55584Y445483D01*
X55593Y445495D01*
X55594Y445499D01*
X55619Y445532D01*
X55626Y445545D01*
X55656Y445628D01*
X55677Y445670D01*
X55693Y445700D01*
X55737Y445833D01*
X55776Y445878D01*
X55847Y445989D01*
X55902Y446061D01*
X55933Y446120D01*
X56050Y446216D01*
X56100Y446271D01*
X56156Y446316D01*
X56163Y446328D01*
X56174Y446338D01*
X56175Y446339D01*
X56204Y446384D01*
X56240Y446423D01*
X56278Y446500D01*
X56310Y446551D01*
X56325Y446574D01*
X56383Y446699D01*
X56441Y446753D01*
X56521Y446852D01*
X56583Y446917D01*
X56632Y446988D01*
X56735Y447055D01*
X56793Y447105D01*
X56857Y447147D01*
X56895Y447194D01*
X56948Y447240D01*
X57002Y447324D01*
X57053Y447385D01*
X57110Y447483D01*
X57186Y447540D01*
X57274Y447627D01*
X57342Y447685D01*
X57407Y447760D01*
X57498Y447805D01*
X57563Y447850D01*
X57634Y447887D01*
X57675Y447928D01*
X57730Y447966D01*
X57795Y448046D01*
X57853Y448104D01*
X57909Y448179D01*
X58000Y448233D01*
X58094Y448309D01*
X58167Y448359D01*
X58248Y448434D01*
X58331Y448465D01*
X58402Y448504D01*
X58478Y448534D01*
X58522Y448569D01*
X58579Y448600D01*
X58654Y448675D01*
X58719Y448726D01*
X58776Y448789D01*
X58879Y448837D01*
X58979Y448902D01*
X59057Y448943D01*
X59148Y449011D01*
X59227Y449032D01*
X59302Y449063D01*
X59381Y449085D01*
X59428Y449115D01*
X59487Y449139D01*
X59571Y449206D01*
X59641Y449251D01*
X59702Y449305D01*
X59809Y449342D01*
X59916Y449397D01*
X59997Y449430D01*
X60094Y449488D01*
X60179Y449501D01*
X60257Y449524D01*
X60336Y449537D01*
X60386Y449562D01*
X60449Y449581D01*
X60538Y449638D01*
X60612Y449675D01*
X60685Y449727D01*
X60792Y449752D01*
X60904Y449795D01*
X60989Y449820D01*
X61085Y449864D01*
X61181Y449868D01*
X61259Y449883D01*
X61338Y449888D01*
X61392Y449908D01*
X61458Y449920D01*
X61550Y449967D01*
X61627Y449995D01*
X61717Y450046D01*
X61814Y450057D01*
X61934Y450089D01*
X62022Y450105D01*
X62111Y450136D01*
X62226Y450129D01*
X62302Y450135D01*
X62378Y450131D01*
X62437Y450146D01*
X62507Y450151D01*
X62600Y450187D01*
X62677Y450206D01*
X62793Y450255D01*
X62877Y450256D01*
X63003Y450275D01*
X63093Y450281D01*
X63169Y450299D01*
X63305Y450276D01*
X63406Y450274D01*
X63462Y450264D01*
X63512Y450271D01*
X63587Y450269D01*
X63588Y450269D01*
X63602Y450271D01*
X63693Y450295D01*
X63768Y450305D01*
X63911Y450347D01*
X63974Y450341D01*
X64106Y450345D01*
X64198Y450342D01*
X64250Y450348D01*
X64381Y450312D01*
X64472Y450299D01*
X64545Y450280D01*
X64570Y450277D01*
X64624Y450279D01*
X64660Y450274D01*
X64663Y450275D01*
X64684Y450272D01*
X64800Y450273D01*
X64883Y450285D01*
X64953Y450286D01*
X65091Y450308D01*
X65111Y450304D01*
X65257Y450291D01*
X65346Y450278D01*
X65446Y450237D01*
X65527Y450217D01*
X65592Y450191D01*
X65708Y450164D01*
X65774Y450158D01*
X65830Y450143D01*
X65967Y450129D01*
X66052Y450132D01*
X66122Y450124D01*
X66219Y450129D01*
X66351Y450102D01*
X66440Y450078D01*
X66459Y450076D01*
X66576Y450013D01*
X66656Y449983D01*
X66718Y449949D01*
X66843Y449904D01*
X66903Y449892D01*
X66951Y449872D01*
X66999Y449861D01*
X67091Y449853D01*
X67165Y449837D01*
X67297Y449828D01*
X67341Y449807D01*
X67467Y449766D01*
X67552Y449731D01*
X67601Y449720D01*
X67711Y449641D01*
X67793Y449598D01*
X67854Y449555D01*
X67898Y449534D01*
X67946Y449518D01*
X67961Y449510D01*
X67966Y449509D01*
X68002Y449490D01*
X68024Y449482D01*
X68114Y449464D01*
X68129Y449459D01*
X68188Y449439D01*
X68325Y449415D01*
X68374Y449383D01*
X68494Y449329D01*
X68574Y449285D01*
X68632Y449265D01*
X68738Y449168D01*
X68816Y449116D01*
X68869Y449069D01*
X68871Y449067D01*
X68873Y449066D01*
X68893Y449053D01*
X68941Y449031D01*
X68972Y449010D01*
X69024Y448994D01*
X69150Y448937D01*
X69288Y448896D01*
X69343Y448852D01*
X69454Y448787D01*
X69529Y448735D01*
X69595Y448702D01*
X69688Y448597D01*
X69744Y448549D01*
X69793Y448494D01*
X69846Y448461D01*
X69902Y448413D01*
X69990Y448374D01*
X70056Y448334D01*
X70181Y448282D01*
X70238Y448225D01*
X70340Y448149D01*
X70407Y448089D01*
X70478Y448044D01*
X70551Y447941D01*
X70602Y447886D01*
X70646Y447825D01*
X70694Y447787D01*
X70744Y447735D01*
X70828Y447685D01*
X70890Y447637D01*
X70998Y447578D01*
X71054Y447509D01*
X71146Y447424D01*
X71206Y447357D01*
X71426Y447181D01*
X71435Y447176D01*
X71443Y447168D01*
X71556Y447104D01*
X71668Y447037D01*
X71679Y447035D01*
X71688Y447029D01*
X71815Y447000D01*
X71941Y446967D01*
X71952Y446968D01*
X71963Y446965D01*
X72093Y446972D01*
X72223Y446976D01*
X72234Y446980D01*
X72245Y446980D01*
X72368Y447023D01*
X72492Y447064D01*
X72500Y447070D01*
X72511Y447073D01*
X72617Y447149D01*
X72725Y447222D01*
X72731Y447231D01*
X72740Y447237D01*
X72789Y447301D01*
X72904Y447440D01*
X72914Y447463D01*
X72928Y447482D01*
X73067Y447735D01*
X73094Y447808D01*
X73126Y447865D01*
X73245Y448185D01*
X73246Y448186D01*
X73267Y448201D01*
X73323Y448274D01*
X73415Y448380D01*
X73432Y448417D01*
X73454Y448445D01*
X74868Y451034D01*
X74876Y451057D01*
X74890Y451078D01*
X74925Y451188D01*
X74966Y451298D01*
X74968Y451323D01*
X74976Y451346D01*
X74976Y451353D01*
X75178Y451623D01*
X75215Y451691D01*
X75255Y451743D01*
X75461Y452121D01*
X75481Y452173D01*
X75509Y452220D01*
X75530Y452304D01*
X75560Y452385D01*
X75564Y452440D01*
X75578Y452494D01*
X75575Y452580D01*
X75581Y452666D01*
X75570Y452720D01*
X75568Y452775D01*
X75541Y452858D01*
X75523Y452942D01*
X75497Y452991D01*
X75479Y453043D01*
X75431Y453115D01*
X75390Y453191D01*
X75351Y453230D01*
X75320Y453276D01*
X75259Y453324D01*
X75193Y453392D01*
X75128Y453429D01*
X75104Y453448D01*
X75091Y453459D01*
X75089Y453460D01*
X75079Y453468D01*
X75041Y453489D01*
X74972Y453517D01*
X74947Y453531D01*
X74926Y453536D01*
X74836Y453577D01*
X74808Y453581D01*
X74779Y453593D01*
X74748Y453596D01*
X74650Y453634D01*
X74539Y453661D01*
X74457Y453689D01*
X74366Y453705D01*
X74350Y453714D01*
X74323Y453719D01*
X74294Y453732D01*
X74257Y453737D01*
X74166Y453779D01*
X74055Y453811D01*
X74040Y453817D01*
X74011Y453831D01*
X74001Y453833D01*
X73975Y453843D01*
X73892Y453862D01*
X73873Y453874D01*
X73845Y453880D01*
X73817Y453895D01*
X73777Y453903D01*
X73694Y453946D01*
X73585Y453984D01*
X73506Y454020D01*
X73427Y454043D01*
X73402Y454059D01*
X73374Y454068D01*
X73346Y454084D01*
X73297Y454096D01*
X73222Y454140D01*
X73114Y454184D01*
X73037Y454225D01*
X72969Y454248D01*
X72939Y454269D01*
X72911Y454280D01*
X72883Y454298D01*
X72828Y454314D01*
X72764Y454357D01*
X72657Y454407D01*
X72582Y454451D01*
X72521Y454475D01*
X72486Y454504D01*
X72458Y454516D01*
X72431Y454536D01*
X72368Y454559D01*
X72311Y454600D01*
X72207Y454656D01*
X72134Y454704D01*
X72081Y454728D01*
X72043Y454764D01*
X72015Y454777D01*
X71987Y454799D01*
X71918Y454828D01*
X71873Y454865D01*
X71771Y454927D01*
X71699Y454979D01*
X71657Y455001D01*
X71613Y455046D01*
X71585Y455062D01*
X71558Y455086D01*
X71483Y455122D01*
X71445Y455156D01*
X71346Y455224D01*
X71277Y455279D01*
X71241Y455301D01*
X71194Y455354D01*
X71166Y455372D01*
X71140Y455398D01*
X71056Y455443D01*
X71028Y455472D01*
X70931Y455545D01*
X70865Y455605D01*
X70840Y455621D01*
X70789Y455686D01*
X70762Y455705D01*
X70736Y455733D01*
X70645Y455789D01*
X70626Y455811D01*
X70532Y455890D01*
X70470Y455953D01*
X70466Y455956D01*
X70449Y455976D01*
X70394Y456057D01*
X70362Y456083D01*
X70332Y456119D01*
X70225Y456193D01*
X70154Y456250D01*
X70144Y456256D01*
X70129Y456270D01*
X70100Y456310D01*
X70096Y456320D01*
X70082Y456337D01*
X70052Y456391D01*
X70021Y456431D01*
X69984Y456467D01*
X69975Y456480D01*
X69958Y456493D01*
X69951Y456499D01*
X69902Y456560D01*
X69717Y456728D01*
X69710Y456742D01*
X69685Y456765D01*
X69664Y456798D01*
X69605Y456848D01*
X69545Y456942D01*
X69466Y457035D01*
X69419Y457100D01*
X69419Y457101D01*
X69371Y457175D01*
X69288Y457318D01*
X69266Y457338D01*
X69252Y457361D01*
X69030Y457612D01*
X68910Y457846D01*
X68851Y457929D01*
X68812Y458000D01*
X68649Y458211D01*
X68635Y458252D01*
X68613Y458284D01*
X68595Y458325D01*
X68550Y458380D01*
X68450Y458630D01*
X68398Y458721D01*
X68365Y458796D01*
X68222Y459019D01*
X68211Y459066D01*
X68191Y459100D01*
X68177Y459143D01*
X68141Y459197D01*
X68061Y459464D01*
X68018Y459557D01*
X67993Y459634D01*
X67867Y459881D01*
X67862Y459914D01*
X67845Y459949D01*
X67836Y459992D01*
X67812Y460035D01*
X67754Y460320D01*
X67721Y460416D01*
X67702Y460495D01*
X67596Y460762D01*
X67594Y460783D01*
X67582Y460819D01*
X67576Y460861D01*
X67562Y460894D01*
X67529Y461194D01*
X67504Y461292D01*
X67493Y461371D01*
X67408Y461655D01*
X67409Y461667D01*
X67400Y461702D01*
X67398Y461742D01*
X67390Y461766D01*
X67384Y462078D01*
X67368Y462176D01*
X67365Y462255D01*
X67304Y462554D01*
X67305Y462557D01*
X67299Y462592D01*
X67301Y462632D01*
X67297Y462648D01*
X67319Y462966D01*
X67312Y463065D01*
X67316Y463144D01*
X67279Y463482D01*
X67278Y463484D01*
X67284Y463522D01*
X67283Y463533D01*
X67333Y463853D01*
X67335Y463951D01*
X67346Y464029D01*
X67339Y464375D01*
X67347Y464410D01*
X67346Y464419D01*
X67426Y464734D01*
X67436Y464832D01*
X67454Y464909D01*
X67477Y465252D01*
X67490Y465289D01*
X67490Y465303D01*
X67596Y465606D01*
X67615Y465704D01*
X67639Y465779D01*
X67687Y466080D01*
X67688Y466082D01*
X67695Y466117D01*
X67711Y466154D01*
X67713Y466173D01*
X67843Y466459D01*
X67871Y466555D01*
X67902Y466628D01*
X67975Y466919D01*
X67981Y466929D01*
X67991Y466964D01*
X68011Y467000D01*
X68017Y467030D01*
X68169Y467296D01*
X68205Y467390D01*
X68243Y467460D01*
X68339Y467735D01*
X68352Y467751D01*
X68366Y467786D01*
X68389Y467822D01*
X68402Y467863D01*
X68570Y468103D01*
X68616Y468194D01*
X68660Y468262D01*
X68775Y468516D01*
X68800Y468542D01*
X68817Y468576D01*
X68845Y468611D01*
X68866Y468663D01*
X69048Y468878D01*
X69103Y468966D01*
X69153Y469029D01*
X69286Y469263D01*
X69324Y469296D01*
X69345Y469330D01*
X69376Y469363D01*
X69410Y469427D01*
X69602Y469615D01*
X69665Y469698D01*
X69722Y469757D01*
X69872Y469972D01*
X69910Y470000D01*
X69932Y470030D01*
X69964Y470057D01*
X69990Y470097D01*
X70209Y470278D01*
X70276Y470352D01*
X70336Y470404D01*
X70496Y470593D01*
X70581Y470637D01*
X70811Y470801D01*
X70816Y470807D01*
X70822Y470812D01*
X71216Y471198D01*
X71268Y471219D01*
X71438Y471317D01*
X71500Y471351D01*
X71570Y471404D01*
X71585Y471419D01*
X71601Y471429D01*
X71667Y471483D01*
X71676Y471493D01*
X71687Y471500D01*
X71724Y471544D01*
X71855Y471641D01*
X71876Y471662D01*
X71900Y471675D01*
X72113Y471852D01*
X72186Y471886D01*
X72207Y471905D01*
X72230Y471916D01*
X72253Y471934D01*
X72266Y471946D01*
X72280Y471954D01*
X72285Y471958D01*
X72297Y471970D01*
X72311Y471979D01*
X72357Y472032D01*
X72557Y472174D01*
X72576Y472193D01*
X72597Y472205D01*
X72780Y472348D01*
X72832Y472371D01*
X72856Y472392D01*
X72882Y472405D01*
X72887Y472409D01*
X72900Y472421D01*
X72914Y472428D01*
X72922Y472435D01*
X72933Y472446D01*
X72947Y472455D01*
X72994Y472507D01*
X73195Y472645D01*
X73215Y472663D01*
X73236Y472674D01*
X73421Y472815D01*
X73474Y472837D01*
X73498Y472858D01*
X73524Y472870D01*
X73532Y472875D01*
X73545Y472887D01*
X73558Y472894D01*
X73565Y472899D01*
X73577Y472911D01*
X73592Y472919D01*
X73640Y472971D01*
X73845Y473106D01*
X73865Y473124D01*
X73886Y473135D01*
X74072Y473272D01*
X74125Y473293D01*
X74148Y473312D01*
X74172Y473322D01*
X74180Y473328D01*
X74195Y473341D01*
X74211Y473349D01*
X74219Y473355D01*
X74231Y473366D01*
X74245Y473374D01*
X74293Y473424D01*
X74498Y473554D01*
X74518Y473572D01*
X74540Y473582D01*
X74730Y473717D01*
X74783Y473738D01*
X74807Y473756D01*
X74833Y473767D01*
X74840Y473772D01*
X74855Y473784D01*
X74870Y473792D01*
X74880Y473799D01*
X74892Y473809D01*
X74905Y473817D01*
X74955Y473866D01*
X75162Y473994D01*
X75183Y474011D01*
X75205Y474021D01*
X75396Y474152D01*
X75449Y474171D01*
X75474Y474190D01*
X75500Y474201D01*
X75510Y474207D01*
X75524Y474218D01*
X75538Y474225D01*
X75547Y474231D01*
X75559Y474241D01*
X75574Y474249D01*
X75624Y474297D01*
X75833Y474421D01*
X75854Y474437D01*
X75875Y474447D01*
X76069Y474576D01*
X76123Y474594D01*
X76149Y474612D01*
X76175Y474623D01*
X76183Y474627D01*
X76196Y474638D01*
X76210Y474644D01*
X76222Y474652D01*
X76235Y474663D01*
X76250Y474670D01*
X76301Y474718D01*
X76512Y474838D01*
X76533Y474854D01*
X76555Y474864D01*
X76750Y474988D01*
X76803Y475005D01*
X76830Y475023D01*
X76857Y475034D01*
X76869Y475040D01*
X76882Y475051D01*
X76896Y475057D01*
X76906Y475063D01*
X76919Y475073D01*
X76934Y475080D01*
X76985Y475127D01*
X77198Y475243D01*
X77219Y475259D01*
X77241Y475268D01*
X77439Y475389D01*
X77492Y475406D01*
X77518Y475423D01*
X77544Y475432D01*
X77553Y475437D01*
X77567Y475448D01*
X77582Y475453D01*
X77597Y475462D01*
X77610Y475473D01*
X77626Y475480D01*
X77677Y475525D01*
X77890Y475637D01*
X77911Y475652D01*
X77934Y475661D01*
X78133Y475779D01*
X78186Y475794D01*
X78213Y475811D01*
X78240Y475821D01*
X78253Y475827D01*
X78267Y475837D01*
X78282Y475843D01*
X78295Y475850D01*
X78309Y475861D01*
X78324Y475868D01*
X78377Y475912D01*
X78594Y476022D01*
X78616Y476037D01*
X78638Y476045D01*
X78836Y476158D01*
X78889Y476172D01*
X78916Y476188D01*
X78943Y476197D01*
X78957Y476204D01*
X78971Y476214D01*
X78986Y476220D01*
X79001Y476228D01*
X79014Y476238D01*
X79030Y476244D01*
X79082Y476287D01*
X79296Y476390D01*
X79318Y476405D01*
X79341Y476413D01*
X79544Y476524D01*
X79598Y476538D01*
X79625Y476554D01*
X79653Y476563D01*
X79665Y476568D01*
X79680Y476578D01*
X79695Y476584D01*
X79715Y476594D01*
X79728Y476603D01*
X79743Y476609D01*
X79796Y476651D01*
X80013Y476752D01*
X80035Y476766D01*
X80058Y476774D01*
X80261Y476880D01*
X80313Y476893D01*
X80341Y476908D01*
X80369Y476916D01*
X80388Y476925D01*
X80402Y476934D01*
X80417Y476939D01*
X80433Y476947D01*
X80447Y476957D01*
X80463Y476963D01*
X80516Y477004D01*
X80737Y477102D01*
X80759Y477116D01*
X80782Y477123D01*
X80984Y477224D01*
X81036Y477236D01*
X81064Y477251D01*
X81091Y477258D01*
X81108Y477266D01*
X81123Y477275D01*
X81139Y477280D01*
X81186Y477303D01*
X81197Y477310D01*
X81208Y477314D01*
X81276Y477363D01*
X81298Y477378D01*
X81572Y477491D01*
X81599Y477507D01*
X81626Y477515D01*
X81719Y477560D01*
X81751Y477567D01*
X81775Y477579D01*
X81799Y477585D01*
X81923Y477636D01*
X81942Y477647D01*
X81961Y477653D01*
X82446Y477877D01*
X82502Y477887D01*
X82547Y477910D01*
X82589Y477921D01*
X82656Y477951D01*
X82660Y477953D01*
X82665Y477955D01*
X82713Y477986D01*
X82720Y477991D01*
X82778Y478017D01*
X82821Y478054D01*
X82827Y478058D01*
X83159Y478176D01*
X83187Y478191D01*
X83209Y478195D01*
X83226Y478203D01*
X83243Y478206D01*
X83677Y478362D01*
X83700Y478374D01*
X83723Y478379D01*
X84535Y478714D01*
X84598Y478726D01*
X84754Y478748D01*
X84784Y478762D01*
X84813Y478767D01*
X85412Y478981D01*
X85421Y478986D01*
X85430Y478988D01*
X85498Y479027D01*
X85661Y479113D01*
X85679Y479130D01*
X85698Y479141D01*
X85699Y479141D01*
X86485Y479367D01*
X86516Y479381D01*
X86545Y479386D01*
X87317Y479662D01*
X87327Y479663D01*
X87337Y479661D01*
X87415Y479671D01*
X87598Y479688D01*
X87621Y479697D01*
X87643Y479700D01*
X88278Y479882D01*
X88287Y479886D01*
X88297Y479888D01*
X88367Y479922D01*
X88535Y479997D01*
X88551Y480011D01*
X88561Y480016D01*
X88565Y480019D01*
X88573Y480023D01*
X89374Y480199D01*
X89405Y480211D01*
X89435Y480215D01*
X90223Y480441D01*
X90232Y480441D01*
X90242Y480439D01*
X90321Y480444D01*
X90504Y480449D01*
X90528Y480457D01*
X90550Y480458D01*
X91176Y480596D01*
X91186Y480600D01*
X91196Y480601D01*
X91269Y480631D01*
X91440Y480695D01*
X91460Y480710D01*
X91479Y480718D01*
X92290Y480843D01*
X92322Y480853D01*
X92352Y480855D01*
X93153Y481031D01*
X93162Y481031D01*
X93172Y481028D01*
X93250Y481028D01*
X93434Y481022D01*
X93458Y481028D01*
X93480Y481028D01*
X94098Y481124D01*
X94108Y481127D01*
X94118Y481127D01*
X94194Y481153D01*
X94368Y481206D01*
X94389Y481219D01*
X94407Y481226D01*
X95226Y481300D01*
X95258Y481308D01*
X95288Y481308D01*
X96100Y481434D01*
X96108Y481433D01*
X96117Y481430D01*
X96196Y481425D01*
X96378Y481407D01*
X96403Y481411D01*
X96425Y481410D01*
X97035Y481466D01*
X97045Y481468D01*
X97056Y481468D01*
X97132Y481489D01*
X97309Y481531D01*
X97331Y481543D01*
X97349Y481548D01*
X98172Y481572D01*
X98205Y481577D01*
X98234Y481575D01*
X99054Y481650D01*
X99060Y481649D01*
X99070Y481645D01*
X99149Y481635D01*
X99328Y481606D01*
X99353Y481609D01*
X99375Y481606D01*
X99978Y481624D01*
X99989Y481625D01*
X99999Y481624D01*
X100077Y481641D01*
X100256Y481671D01*
X100279Y481682D01*
X100296Y481686D01*
X101120Y481658D01*
X101153Y481662D01*
X101182Y481658D01*
X102005Y481682D01*
X102011Y481681D01*
X102020Y481676D01*
X102098Y481661D01*
X102276Y481621D01*
X102301Y481622D01*
X102323Y481618D01*
X102919Y481598D01*
X102930Y481599D01*
X102940Y481597D01*
X103019Y481609D01*
X103200Y481628D01*
X103223Y481638D01*
X103240Y481640D01*
X104061Y481561D01*
X104094Y481563D01*
X104123Y481557D01*
X104947Y481530D01*
X104952Y481528D01*
X104961Y481523D01*
X105038Y481503D01*
X105212Y481452D01*
X105238Y481452D01*
X105259Y481446D01*
X105850Y481390D01*
X105860Y481390D01*
X105871Y481388D01*
X105950Y481394D01*
X106132Y481403D01*
X106155Y481411D01*
X106173Y481412D01*
X106987Y481283D01*
X107020Y481282D01*
X107048Y481275D01*
X107869Y481196D01*
X107874Y481194D01*
X107883Y481188D01*
X107958Y481163D01*
X108129Y481102D01*
X108154Y481100D01*
X108176Y481093D01*
X108761Y481000D01*
X108771Y481000D01*
X108782Y480997D01*
X108861Y480998D01*
X109043Y480995D01*
X109067Y481002D01*
X109084Y481002D01*
X109889Y480822D01*
X109922Y480820D01*
X109950Y480811D01*
X110764Y480681D01*
X110769Y480679D01*
X110777Y480672D01*
X110852Y480643D01*
X111018Y480571D01*
X111043Y480568D01*
X111064Y480559D01*
X111644Y480430D01*
X111655Y480429D01*
X111664Y480425D01*
X111744Y480422D01*
X111925Y480408D01*
X111950Y480413D01*
X111967Y480412D01*
X112759Y480182D01*
X112792Y480178D01*
X112819Y480167D01*
X113623Y479987D01*
X113628Y479985D01*
X113636Y479977D01*
X113709Y479943D01*
X113870Y479861D01*
X113895Y479857D01*
X113915Y479847D01*
X114491Y479680D01*
X114502Y479678D01*
X114511Y479674D01*
X114590Y479666D01*
X114771Y479640D01*
X114795Y479644D01*
X114813Y479642D01*
X115588Y479364D01*
X115621Y479357D01*
X115647Y479345D01*
X116438Y479115D01*
X116444Y479112D01*
X116451Y479105D01*
X116521Y479066D01*
X116678Y478974D01*
X116702Y478968D01*
X116722Y478957D01*
X117294Y478752D01*
X117304Y478750D01*
X117313Y478745D01*
X117391Y478732D01*
X117570Y478695D01*
X117595Y478697D01*
X117613Y478694D01*
X118369Y478368D01*
X118401Y478359D01*
X118427Y478345D01*
X119201Y478067D01*
X119207Y478063D01*
X119213Y478055D01*
X119281Y478013D01*
X119432Y477911D01*
X119455Y477903D01*
X119474Y477891D01*
X120042Y477646D01*
X120052Y477643D01*
X120061Y477638D01*
X120138Y477620D01*
X120314Y477572D01*
X120339Y477572D01*
X120359Y477568D01*
X121091Y477196D01*
X121123Y477185D01*
X121148Y477169D01*
X121902Y476844D01*
X121909Y476839D01*
X121915Y476831D01*
X121979Y476785D01*
X122123Y476673D01*
X122147Y476664D01*
X122165Y476651D01*
X122729Y476364D01*
X122739Y476361D01*
X122747Y476355D01*
X122823Y476332D01*
X122996Y476273D01*
X123021Y476272D01*
X123041Y476266D01*
X123748Y475849D01*
X123779Y475836D01*
X123803Y475819D01*
X124534Y475447D01*
X124541Y475441D01*
X124546Y475433D01*
X124607Y475383D01*
X124745Y475262D01*
X124767Y475251D01*
X124785Y475237D01*
X125345Y474907D01*
X125354Y474903D01*
X125362Y474897D01*
X125436Y474869D01*
X125606Y474799D01*
X125630Y474796D01*
X125651Y474789D01*
X126329Y474329D01*
X126359Y474314D01*
X126382Y474295D01*
X127088Y473879D01*
X127095Y473872D01*
X127100Y473863D01*
X127158Y473809D01*
X127287Y473680D01*
X127309Y473668D01*
X127325Y473653D01*
X127874Y473281D01*
X127884Y473276D01*
X127892Y473268D01*
X127967Y473235D01*
X128127Y473157D01*
X128153Y473152D01*
X128162Y473148D01*
X128821Y472640D01*
X128849Y472624D01*
X128870Y472604D01*
X129558Y472138D01*
X129563Y472128D01*
X129619Y472069D01*
X129737Y471936D01*
X129759Y471922D01*
X129775Y471905D01*
X130172Y471599D01*
X130417Y471460D01*
X130430Y471457D01*
X130441Y471451D01*
X130503Y471429D01*
X130912Y471054D01*
X131145Y470895D01*
X131153Y470892D01*
X131159Y470888D01*
X131245Y470847D01*
X131413Y470662D01*
X131489Y470599D01*
X131544Y470541D01*
X131761Y470374D01*
X131778Y470347D01*
X131807Y470323D01*
X131833Y470290D01*
X131892Y470247D01*
X132051Y470035D01*
X132125Y469961D01*
X132177Y469897D01*
X132365Y469725D01*
X132393Y469672D01*
X132422Y469643D01*
X132447Y469605D01*
X132506Y469554D01*
X132646Y469326D01*
X132693Y469270D01*
X132719Y469227D01*
X132733Y469215D01*
X132757Y469177D01*
X132936Y468980D01*
X132954Y468938D01*
X132980Y468907D01*
X133001Y468867D01*
X133043Y468823D01*
X133168Y468571D01*
X133226Y468486D01*
X133264Y468415D01*
X133431Y468191D01*
X133440Y468161D01*
X133462Y468129D01*
X133479Y468089D01*
X133508Y468053D01*
X133614Y467779D01*
X133663Y467690D01*
X133694Y467616D01*
X133845Y467369D01*
X133849Y467351D01*
X133868Y467318D01*
X133880Y467278D01*
X133899Y467250D01*
X133982Y466958D01*
X134023Y466866D01*
X134047Y466790D01*
X134179Y466522D01*
X134180Y466513D01*
X134195Y466480D01*
X134204Y466440D01*
X134214Y466421D01*
X134273Y466112D01*
X134305Y466018D01*
X134322Y465941D01*
X134433Y465654D01*
X134433Y465653D01*
X134444Y465620D01*
X134449Y465581D01*
X134454Y465568D01*
X134476Y465358D01*
X134479Y465345D01*
X134479Y465331D01*
X134513Y465207D01*
X134543Y465084D01*
X134550Y465072D01*
X134554Y465059D01*
X134621Y464950D01*
X134685Y464840D01*
X134695Y464831D01*
X134702Y464819D01*
X134797Y464733D01*
X134889Y464646D01*
X134901Y464639D01*
X134911Y464630D01*
X135026Y464574D01*
X135139Y464516D01*
X135153Y464513D01*
X135165Y464507D01*
X135250Y464494D01*
X135416Y464461D01*
X135444Y464463D01*
X135470Y464459D01*
X160420Y464459D01*
X160515Y464473D01*
X160611Y464478D01*
X160654Y464493D01*
X160699Y464499D01*
X160786Y464539D01*
X160877Y464570D01*
X160912Y464595D01*
X160956Y464615D01*
X161053Y464699D01*
X161126Y464752D01*
X173207Y476832D01*
X173264Y476909D01*
X173329Y476980D01*
X173349Y477021D01*
X173376Y477058D01*
X173410Y477148D01*
X173452Y477234D01*
X173458Y477276D01*
X173475Y477322D01*
X173485Y477449D01*
X173499Y477539D01*
X173499Y479094D01*
X174337Y481116D01*
X175884Y482663D01*
X177906Y483501D01*
X180094Y483501D01*
X182116Y482663D01*
X183663Y481116D01*
X184077Y480118D01*
X184093Y480090D01*
X184103Y480059D01*
X184165Y479969D01*
X184220Y479875D01*
X184244Y479853D01*
X184262Y479826D01*
X184346Y479757D01*
X184426Y479682D01*
X184455Y479667D01*
X184480Y479647D01*
X184580Y479604D01*
X184678Y479554D01*
X184709Y479548D01*
X184739Y479535D01*
X184847Y479522D01*
X184955Y479502D01*
X184987Y479505D01*
X185019Y479501D01*
X185127Y479518D01*
X185235Y479529D01*
X185265Y479541D01*
X185297Y479546D01*
X185396Y479593D01*
X185497Y479633D01*
X185523Y479653D01*
X185552Y479667D01*
X185634Y479740D01*
X185720Y479807D01*
X185739Y479833D01*
X185763Y479854D01*
X185810Y479932D01*
X185885Y480035D01*
X185901Y480081D01*
X185923Y480118D01*
X186337Y481116D01*
X187884Y482663D01*
X189906Y483501D01*
X192094Y483501D01*
X194116Y482663D01*
X195663Y481116D01*
X196501Y479094D01*
X196501Y476906D01*
X195663Y474884D01*
X194563Y473784D01*
X194506Y473707D01*
X194441Y473636D01*
X194421Y473595D01*
X194394Y473559D01*
X194360Y473469D01*
X194318Y473382D01*
X194312Y473340D01*
X194295Y473295D01*
X194285Y473167D01*
X194271Y473078D01*
X194271Y467645D01*
X188563Y461938D01*
X188506Y461861D01*
X188441Y461790D01*
X188421Y461749D01*
X188394Y461712D01*
X188360Y461622D01*
X188318Y461536D01*
X188312Y461494D01*
X188295Y461448D01*
X188285Y461321D01*
X188271Y461231D01*
X188271Y362343D01*
X188284Y362248D01*
X188289Y362152D01*
X188304Y362109D01*
X188311Y362064D01*
X188350Y361976D01*
X188382Y361885D01*
X188407Y361851D01*
X188427Y361807D01*
X188510Y361709D01*
X188563Y361636D01*
X191933Y358267D01*
X191933Y336727D01*
X191950Y336610D01*
X191961Y336492D01*
X191970Y336471D01*
X191973Y336448D01*
X192022Y336340D01*
X192066Y336230D01*
X192080Y336212D01*
X192089Y336191D01*
X192166Y336101D01*
X192239Y336008D01*
X192258Y335994D01*
X192273Y335977D01*
X192372Y335912D01*
X192468Y335843D01*
X192489Y335835D01*
X192509Y335822D01*
X192622Y335788D01*
X192734Y335748D01*
X192756Y335747D01*
X192778Y335740D01*
X192897Y335738D01*
X193015Y335732D01*
X193036Y335737D01*
X193060Y335736D01*
X193240Y335786D01*
X193315Y335804D01*
X194338Y336228D01*
X196527Y336228D01*
X198548Y335391D01*
X200096Y333843D01*
X200933Y331822D01*
X200933Y329633D01*
X200096Y327611D01*
X199783Y327299D01*
X199745Y327248D01*
X199699Y327203D01*
X199661Y327136D01*
X199614Y327074D01*
X199591Y327013D01*
X199560Y326958D01*
X199542Y326882D01*
X199515Y326810D01*
X199510Y326746D01*
X199495Y326683D01*
X199499Y326606D01*
X199493Y326529D01*
X199506Y326466D01*
X199509Y326401D01*
X199535Y326328D01*
X199550Y326252D01*
X199581Y326196D01*
X199602Y326135D01*
X199643Y326078D01*
X199683Y326003D01*
X199742Y325943D01*
X199783Y325886D01*
X211722Y313948D01*
X211722Y247746D01*
X211723Y247736D01*
X211722Y247727D01*
X211743Y247597D01*
X211762Y247466D01*
X211766Y247458D01*
X211767Y247448D01*
X211824Y247329D01*
X211878Y247209D01*
X211884Y247202D01*
X211888Y247194D01*
X211976Y247095D01*
X212061Y246995D01*
X212069Y246990D01*
X212076Y246983D01*
X212141Y246943D01*
X212297Y246841D01*
X212320Y246834D01*
X212339Y246822D01*
X213797Y246218D01*
X215344Y244671D01*
X216182Y242649D01*
X216182Y240461D01*
X215848Y239656D01*
X215846Y239646D01*
X215841Y239638D01*
X215811Y239510D01*
X215778Y239382D01*
X215779Y239373D01*
X215776Y239364D01*
X215783Y239232D01*
X215787Y239101D01*
X215790Y239092D01*
X215791Y239082D01*
X215834Y238958D01*
X215875Y238832D01*
X215880Y238825D01*
X215883Y238816D01*
X215929Y238753D01*
X216034Y238599D01*
X216052Y238584D01*
X216065Y238567D01*
X216577Y238055D01*
X216654Y237997D01*
X216725Y237932D01*
X216766Y237913D01*
X216803Y237885D01*
X216893Y237851D01*
X216979Y237809D01*
X217021Y237803D01*
X217067Y237786D01*
X217194Y237776D01*
X217284Y237762D01*
X235668Y237762D01*
X235763Y237775D01*
X235859Y237780D01*
X235902Y237795D01*
X235947Y237802D01*
X236035Y237841D01*
X236126Y237873D01*
X236160Y237898D01*
X236204Y237918D01*
X236302Y238001D01*
X236375Y238055D01*
X237475Y239154D01*
X239496Y239992D01*
X241685Y239992D01*
X243707Y239154D01*
X244086Y238775D01*
X244111Y238756D01*
X244132Y238732D01*
X244224Y238672D01*
X244311Y238606D01*
X244341Y238595D01*
X244368Y238577D01*
X244473Y238545D01*
X244575Y238507D01*
X244607Y238504D01*
X244638Y238495D01*
X244747Y238493D01*
X244856Y238485D01*
X244888Y238491D01*
X244920Y238491D01*
X245025Y238520D01*
X245132Y238542D01*
X245161Y238558D01*
X245192Y238566D01*
X245285Y238624D01*
X245381Y238675D01*
X245404Y238697D01*
X245432Y238714D01*
X245505Y238795D01*
X245583Y238872D01*
X245599Y238900D01*
X245621Y238924D01*
X245669Y239022D01*
X245722Y239117D01*
X245730Y239148D01*
X245744Y239177D01*
X245758Y239267D01*
X245787Y239391D01*
X245785Y239440D01*
X245791Y239482D01*
X245791Y252450D01*
X254334Y260993D01*
X257415Y260993D01*
X257510Y261006D01*
X257606Y261011D01*
X257649Y261026D01*
X257694Y261032D01*
X257782Y261072D01*
X257873Y261104D01*
X257907Y261129D01*
X257951Y261149D01*
X258049Y261232D01*
X258122Y261285D01*
X259309Y262473D01*
X267638Y262473D01*
X267701Y262482D01*
X267766Y262481D01*
X267840Y262502D01*
X267917Y262512D01*
X267975Y262539D01*
X268037Y262556D01*
X268103Y262597D01*
X268174Y262629D01*
X268223Y262670D01*
X268277Y262704D01*
X268329Y262762D01*
X268388Y262812D01*
X268423Y262866D01*
X268466Y262914D01*
X268500Y262983D01*
X268543Y263048D01*
X268561Y263110D01*
X268589Y263167D01*
X268600Y263237D01*
X268625Y263318D01*
X268626Y263402D01*
X268637Y263472D01*
X268637Y264050D01*
X268654Y264090D01*
X268683Y264204D01*
X268718Y264318D01*
X268718Y264341D01*
X268724Y264363D01*
X268720Y264481D01*
X268721Y264600D01*
X268715Y264622D01*
X268715Y264645D01*
X268678Y264757D01*
X268646Y264872D01*
X268634Y264891D01*
X268627Y264913D01*
X268560Y265011D01*
X268498Y265112D01*
X268481Y265127D01*
X268468Y265146D01*
X268377Y265221D01*
X268289Y265301D01*
X268268Y265311D01*
X268251Y265325D01*
X268142Y265372D01*
X268035Y265424D01*
X268014Y265427D01*
X267992Y265436D01*
X267807Y265459D01*
X267730Y265471D01*
X259309Y265471D01*
X258137Y266643D01*
X258137Y273801D01*
X259309Y274973D01*
X268967Y274973D01*
X270138Y273801D01*
X270138Y268748D01*
X270155Y268631D01*
X270167Y268513D01*
X270175Y268492D01*
X270178Y268469D01*
X270227Y268361D01*
X270271Y268251D01*
X270285Y268233D01*
X270295Y268212D01*
X270372Y268122D01*
X270445Y268028D01*
X270463Y268015D01*
X270478Y267998D01*
X270577Y267933D01*
X270673Y267863D01*
X270695Y267856D01*
X270714Y267843D01*
X270828Y267809D01*
X270939Y267769D01*
X270962Y267768D01*
X270984Y267761D01*
X271102Y267759D01*
X271221Y267752D01*
X271242Y267757D01*
X271266Y267757D01*
X271445Y267807D01*
X271520Y267825D01*
X273044Y268456D01*
X275232Y268456D01*
X276215Y268049D01*
X276330Y268019D01*
X276444Y267985D01*
X276466Y267984D01*
X276489Y267979D01*
X276607Y267982D01*
X276726Y267981D01*
X276748Y267987D01*
X276770Y267988D01*
X276883Y268024D01*
X276997Y268056D01*
X277017Y268068D01*
X277039Y268075D01*
X277137Y268142D01*
X277237Y268204D01*
X277253Y268221D01*
X277272Y268234D01*
X277347Y268326D01*
X277426Y268414D01*
X277436Y268434D01*
X277451Y268452D01*
X277498Y268561D01*
X277549Y268667D01*
X277553Y268689D01*
X277562Y268711D01*
X277579Y268842D01*
X277580Y268848D01*
X282763Y268848D01*
X282763Y264931D01*
X280638Y264931D01*
X280574Y264922D01*
X280510Y264923D01*
X280435Y264902D01*
X280359Y264891D01*
X280300Y264865D01*
X280238Y264848D01*
X280172Y264807D01*
X280102Y264775D01*
X280053Y264733D01*
X279998Y264700D01*
X279946Y264642D01*
X279887Y264592D01*
X279852Y264538D01*
X279809Y264490D01*
X279775Y264421D01*
X279733Y264356D01*
X279714Y264294D01*
X279686Y264237D01*
X279675Y264167D01*
X279650Y264086D01*
X279649Y264001D01*
X279638Y263932D01*
X279638Y262972D01*
X279647Y262913D01*
X279647Y262894D01*
X279647Y262892D01*
X279647Y262844D01*
X279667Y262769D01*
X279678Y262693D01*
X279705Y262634D01*
X279722Y262572D01*
X279763Y262506D01*
X279795Y262436D01*
X279836Y262387D01*
X279870Y262332D01*
X279928Y262280D01*
X279978Y262221D01*
X280032Y262186D01*
X280079Y262143D01*
X280149Y262109D01*
X280214Y262067D01*
X280275Y262048D01*
X280333Y262020D01*
X280403Y262009D01*
X280484Y261985D01*
X280568Y261984D01*
X280638Y261973D01*
X288966Y261973D01*
X289974Y260965D01*
X289999Y260946D01*
X290020Y260922D01*
X290112Y260862D01*
X290199Y260796D01*
X290229Y260785D01*
X290256Y260767D01*
X290361Y260735D01*
X290463Y260697D01*
X290495Y260694D01*
X290526Y260685D01*
X290635Y260683D01*
X290727Y260676D01*
X290645Y260625D01*
X290549Y260574D01*
X290525Y260552D01*
X290498Y260535D01*
X290425Y260454D01*
X290347Y260377D01*
X290331Y260349D01*
X290309Y260325D01*
X290261Y260227D01*
X290208Y260132D01*
X290200Y260101D01*
X290186Y260072D01*
X290172Y259982D01*
X290143Y259858D01*
X290145Y259809D01*
X290138Y259767D01*
X290138Y254245D01*
X290143Y254213D01*
X290141Y254181D01*
X290163Y254074D01*
X290178Y253966D01*
X290192Y253937D01*
X290198Y253905D01*
X290250Y253808D01*
X290295Y253709D01*
X290315Y253684D01*
X290331Y253656D01*
X290407Y253578D01*
X290478Y253495D01*
X290505Y253477D01*
X290527Y253454D01*
X290622Y253400D01*
X290714Y253340D01*
X290745Y253331D01*
X290773Y253315D01*
X290879Y253290D01*
X290984Y253258D01*
X291016Y253257D01*
X291047Y253250D01*
X291157Y253256D01*
X291266Y253254D01*
X291297Y253263D01*
X291329Y253264D01*
X291432Y253300D01*
X291537Y253329D01*
X291565Y253346D01*
X291595Y253357D01*
X291669Y253410D01*
X291777Y253477D01*
X291810Y253513D01*
X291844Y253539D01*
X292031Y253725D01*
X294053Y254563D01*
X296241Y254563D01*
X298263Y253725D01*
X299810Y252178D01*
X300648Y250156D01*
X300648Y247968D01*
X299810Y245946D01*
X298263Y244399D01*
X296241Y243561D01*
X294686Y243561D01*
X294591Y243548D01*
X294495Y243543D01*
X294452Y243528D01*
X294407Y243522D01*
X294319Y243482D01*
X294228Y243450D01*
X294194Y243425D01*
X294150Y243405D01*
X294052Y243322D01*
X293979Y243269D01*
X292662Y241951D01*
X290860Y241951D01*
X290765Y241938D01*
X290669Y241933D01*
X290626Y241918D01*
X290581Y241911D01*
X290494Y241872D01*
X290403Y241840D01*
X290368Y241815D01*
X290324Y241795D01*
X290227Y241712D01*
X290154Y241659D01*
X289996Y241501D01*
X289977Y241475D01*
X289952Y241454D01*
X289892Y241363D01*
X289827Y241275D01*
X289815Y241245D01*
X289798Y241218D01*
X289766Y241114D01*
X289727Y241011D01*
X289725Y240979D01*
X289715Y240948D01*
X289714Y240839D01*
X289705Y240730D01*
X289712Y240699D01*
X289712Y240666D01*
X289741Y240561D01*
X289763Y240454D01*
X289778Y240426D01*
X289787Y240395D01*
X289844Y240301D01*
X289896Y240205D01*
X289918Y240182D01*
X289935Y240155D01*
X290016Y240081D01*
X290092Y240003D01*
X290120Y239987D01*
X290144Y239966D01*
X290242Y239918D01*
X290338Y239864D01*
X290369Y239857D01*
X290398Y239843D01*
X290487Y239829D01*
X290612Y239799D01*
X290660Y239802D01*
X290703Y239795D01*
X342752Y239795D01*
X342847Y239809D01*
X342943Y239813D01*
X342986Y239828D01*
X343031Y239835D01*
X343119Y239874D01*
X343209Y239906D01*
X343244Y239931D01*
X343288Y239951D01*
X343385Y240034D01*
X343458Y240088D01*
X345034Y241663D01*
X347056Y242501D01*
X349244Y242501D01*
X351266Y241663D01*
X352813Y240116D01*
X353651Y238094D01*
X353651Y235906D01*
X352813Y233884D01*
X351266Y232337D01*
X349244Y231499D01*
X347056Y231499D01*
X345034Y232337D01*
X344410Y232961D01*
X344333Y233018D01*
X344262Y233083D01*
X344221Y233103D01*
X344184Y233130D01*
X344094Y233164D01*
X344008Y233206D01*
X343966Y233213D01*
X343920Y233230D01*
X343793Y233240D01*
X343703Y233254D01*
X274994Y233254D01*
X274899Y233240D01*
X274803Y233235D01*
X274760Y233220D01*
X274715Y233214D01*
X274627Y233174D01*
X274536Y233143D01*
X274502Y233117D01*
X274458Y233098D01*
X274360Y233014D01*
X274287Y232961D01*
X273163Y231837D01*
X273105Y231811D01*
X273063Y231775D01*
X273016Y231747D01*
X272957Y231684D01*
X272891Y231627D01*
X272860Y231581D01*
X272823Y231541D01*
X272784Y231464D01*
X272736Y231391D01*
X272720Y231339D01*
X272695Y231290D01*
X272679Y231205D01*
X272654Y231121D01*
X272653Y231067D01*
X272643Y231013D01*
X272651Y230926D01*
X272650Y230839D01*
X272665Y230787D01*
X272670Y230732D01*
X272702Y230651D01*
X272725Y230568D01*
X272754Y230521D01*
X272774Y230470D01*
X272828Y230402D01*
X272873Y230328D01*
X272914Y230291D01*
X272948Y230248D01*
X273018Y230197D01*
X273083Y230139D01*
X273132Y230115D01*
X273176Y230083D01*
X273258Y230053D01*
X273336Y230016D01*
X273387Y230008D01*
X273442Y229988D01*
X273556Y229981D01*
X273641Y229968D01*
X334407Y229968D01*
X336616Y227759D01*
X346982Y217393D01*
X347059Y217336D01*
X347130Y217271D01*
X347171Y217251D01*
X347208Y217224D01*
X347298Y217190D01*
X347384Y217148D01*
X347426Y217142D01*
X347472Y217125D01*
X347599Y217115D01*
X347689Y217101D01*
X349244Y217101D01*
X351266Y216263D01*
X352813Y214716D01*
X353651Y212694D01*
X353651Y210506D01*
X352813Y208484D01*
X351266Y206937D01*
X349244Y206099D01*
X347056Y206099D01*
X345034Y206937D01*
X343487Y208484D01*
X342649Y210506D01*
X342649Y212061D01*
X342640Y212125D01*
X342641Y212188D01*
X342633Y212219D01*
X342631Y212252D01*
X342616Y212296D01*
X342609Y212341D01*
X342582Y212400D01*
X342566Y212460D01*
X342550Y212487D01*
X342538Y212519D01*
X342513Y212553D01*
X342493Y212597D01*
X342450Y212648D01*
X342418Y212700D01*
X342383Y212731D01*
X342357Y212768D01*
X331991Y223134D01*
X331914Y223192D01*
X331842Y223256D01*
X331801Y223276D01*
X331765Y223303D01*
X331675Y223337D01*
X331589Y223379D01*
X331546Y223386D01*
X331501Y223403D01*
X331373Y223413D01*
X331284Y223427D01*
X212722Y223427D01*
X208888Y227261D01*
X208862Y227280D01*
X208841Y227305D01*
X208749Y227365D01*
X208662Y227430D01*
X208632Y227442D01*
X208605Y227459D01*
X208500Y227491D01*
X208398Y227530D01*
X208366Y227532D01*
X208335Y227542D01*
X208226Y227543D01*
X208117Y227552D01*
X208085Y227545D01*
X208053Y227546D01*
X207948Y227516D01*
X207841Y227494D01*
X207813Y227479D01*
X207781Y227470D01*
X207688Y227413D01*
X207592Y227362D01*
X207569Y227339D01*
X207541Y227322D01*
X207468Y227241D01*
X207390Y227165D01*
X207374Y227137D01*
X207352Y227113D01*
X207305Y227015D01*
X207251Y226919D01*
X207243Y226888D01*
X207229Y226859D01*
X207215Y226770D01*
X207186Y226645D01*
X207188Y226597D01*
X207182Y226554D01*
X207182Y212984D01*
X207194Y212898D01*
X207197Y212811D01*
X207214Y212759D01*
X207222Y212705D01*
X207257Y212626D01*
X207284Y212543D01*
X207315Y212498D01*
X207338Y212448D01*
X207394Y212382D01*
X207443Y212310D01*
X207486Y212275D01*
X207521Y212234D01*
X207594Y212186D01*
X207661Y212131D01*
X207711Y212109D01*
X207757Y212079D01*
X207840Y212054D01*
X207920Y212019D01*
X207974Y212013D01*
X208027Y211997D01*
X208114Y211996D01*
X208200Y211985D01*
X208254Y211994D01*
X208309Y211993D01*
X208393Y212016D01*
X208478Y212030D01*
X208528Y212054D01*
X208581Y212068D01*
X208655Y212114D01*
X208733Y212151D01*
X208774Y212187D01*
X208821Y212216D01*
X208879Y212281D01*
X208944Y212338D01*
X208970Y212382D01*
X209010Y212426D01*
X209059Y212528D01*
X209104Y212602D01*
X209496Y213548D01*
X211044Y215095D01*
X213065Y215933D01*
X215254Y215933D01*
X217276Y215095D01*
X217698Y214673D01*
X217774Y214616D01*
X217846Y214551D01*
X217887Y214531D01*
X217923Y214504D01*
X218013Y214470D01*
X218100Y214428D01*
X218142Y214422D01*
X218187Y214404D01*
X218315Y214394D01*
X218404Y214381D01*
X261083Y214381D01*
X261178Y214394D01*
X261274Y214399D01*
X261317Y214414D01*
X261362Y214420D01*
X261449Y214460D01*
X261540Y214491D01*
X261575Y214517D01*
X261619Y214537D01*
X261716Y214620D01*
X261789Y214673D01*
X262889Y215773D01*
X264911Y216611D01*
X267099Y216611D01*
X269121Y215773D01*
X270668Y214226D01*
X271506Y212204D01*
X271506Y210016D01*
X270668Y207994D01*
X269121Y206447D01*
X267099Y205609D01*
X264911Y205609D01*
X262889Y206447D01*
X261789Y207546D01*
X261713Y207604D01*
X261641Y207668D01*
X261600Y207688D01*
X261564Y207716D01*
X261474Y207750D01*
X261387Y207791D01*
X261345Y207798D01*
X261300Y207815D01*
X261172Y207825D01*
X261083Y207839D01*
X219707Y207839D01*
X219698Y207838D01*
X219688Y207839D01*
X219558Y207818D01*
X219428Y207799D01*
X219419Y207795D01*
X219410Y207794D01*
X219290Y207737D01*
X219171Y207683D01*
X219164Y207677D01*
X219155Y207673D01*
X219056Y207585D01*
X218957Y207500D01*
X218951Y207492D01*
X218944Y207485D01*
X218904Y207419D01*
X218862Y207356D01*
X217276Y205769D01*
X215254Y204931D01*
X213065Y204931D01*
X211044Y205769D01*
X209496Y207316D01*
X209104Y208262D01*
X209060Y208337D01*
X209024Y208416D01*
X208989Y208458D01*
X208961Y208505D01*
X208897Y208565D01*
X208841Y208631D01*
X208795Y208661D01*
X208755Y208698D01*
X208678Y208737D01*
X208605Y208785D01*
X208552Y208801D01*
X208504Y208826D01*
X208418Y208842D01*
X208335Y208867D01*
X208280Y208868D01*
X208226Y208878D01*
X208140Y208870D01*
X208053Y208871D01*
X208000Y208857D01*
X207946Y208851D01*
X207865Y208819D01*
X207781Y208796D01*
X207735Y208767D01*
X207684Y208747D01*
X207615Y208693D01*
X207541Y208648D01*
X207505Y208607D01*
X207461Y208573D01*
X207411Y208503D01*
X207352Y208438D01*
X207328Y208389D01*
X207296Y208345D01*
X207267Y208263D01*
X207229Y208185D01*
X207222Y208134D01*
X207202Y208079D01*
X207195Y207965D01*
X207182Y207880D01*
X207182Y188586D01*
X207194Y188500D01*
X207197Y188413D01*
X207214Y188361D01*
X207222Y188307D01*
X207257Y188228D01*
X207284Y188145D01*
X207315Y188100D01*
X207338Y188050D01*
X207394Y187984D01*
X207443Y187912D01*
X207486Y187877D01*
X207521Y187836D01*
X207594Y187788D01*
X207661Y187733D01*
X207711Y187711D01*
X207757Y187681D01*
X207840Y187656D01*
X207920Y187622D01*
X207974Y187615D01*
X208027Y187599D01*
X208114Y187598D01*
X208200Y187587D01*
X208254Y187596D01*
X208309Y187595D01*
X208393Y187618D01*
X208478Y187632D01*
X208528Y187656D01*
X208581Y187670D01*
X208655Y187716D01*
X208733Y187753D01*
X208774Y187790D01*
X208821Y187818D01*
X208879Y187883D01*
X208944Y187940D01*
X208970Y187984D01*
X209010Y188028D01*
X209059Y188130D01*
X209104Y188204D01*
X209496Y189150D01*
X211044Y190697D01*
X213065Y191535D01*
X215254Y191535D01*
X217276Y190697D01*
X218036Y189936D01*
X218113Y189879D01*
X218185Y189814D01*
X218226Y189794D01*
X218262Y189767D01*
X218352Y189733D01*
X218438Y189691D01*
X218481Y189685D01*
X218526Y189668D01*
X218654Y189658D01*
X218743Y189644D01*
X260405Y189644D01*
X260500Y189657D01*
X260596Y189662D01*
X260639Y189677D01*
X260684Y189684D01*
X260772Y189723D01*
X260863Y189755D01*
X260897Y189780D01*
X260941Y189800D01*
X261038Y189883D01*
X261112Y189936D01*
X262211Y191036D01*
X264233Y191874D01*
X266422Y191874D01*
X268443Y191036D01*
X269991Y189489D01*
X270828Y187467D01*
X270828Y185279D01*
X269991Y183257D01*
X268443Y181710D01*
X266422Y180872D01*
X264233Y180872D01*
X262211Y181710D01*
X261112Y182810D01*
X261035Y182867D01*
X260963Y182932D01*
X260922Y182952D01*
X260886Y182979D01*
X260796Y183013D01*
X260710Y183055D01*
X260668Y183061D01*
X260622Y183078D01*
X260494Y183088D01*
X260405Y183102D01*
X219421Y183102D01*
X219326Y183089D01*
X219230Y183084D01*
X219187Y183069D01*
X219142Y183062D01*
X219054Y183023D01*
X218963Y182991D01*
X218929Y182966D01*
X218885Y182946D01*
X218787Y182863D01*
X218714Y182810D01*
X217276Y181371D01*
X215254Y180533D01*
X213065Y180533D01*
X211044Y181371D01*
X209496Y182918D01*
X209104Y183865D01*
X209060Y183939D01*
X209024Y184018D01*
X208989Y184060D01*
X208961Y184107D01*
X208897Y184167D01*
X208841Y184233D01*
X208795Y184263D01*
X208755Y184300D01*
X208678Y184339D01*
X208605Y184387D01*
X208552Y184403D01*
X208504Y184428D01*
X208418Y184444D01*
X208335Y184469D01*
X208280Y184470D01*
X208226Y184480D01*
X208140Y184472D01*
X208053Y184473D01*
X208000Y184459D01*
X207946Y184453D01*
X207865Y184421D01*
X207781Y184398D01*
X207735Y184369D01*
X207684Y184349D01*
X207615Y184295D01*
X207541Y184250D01*
X207505Y184209D01*
X207461Y184175D01*
X207411Y184105D01*
X207352Y184041D01*
X207328Y183991D01*
X207296Y183947D01*
X207267Y183865D01*
X207229Y183787D01*
X207222Y183736D01*
X207202Y183681D01*
X207195Y183567D01*
X207182Y183482D01*
X207182Y163316D01*
X207194Y163230D01*
X207197Y163144D01*
X207214Y163091D01*
X207222Y163037D01*
X207257Y162958D01*
X207284Y162875D01*
X207315Y162830D01*
X207338Y162780D01*
X207394Y162714D01*
X207443Y162642D01*
X207486Y162608D01*
X207521Y162566D01*
X207594Y162518D01*
X207661Y162463D01*
X207711Y162441D01*
X207757Y162411D01*
X207840Y162386D01*
X207920Y162352D01*
X207974Y162345D01*
X208027Y162329D01*
X208114Y162328D01*
X208200Y162317D01*
X208254Y162326D01*
X208309Y162325D01*
X208393Y162348D01*
X208478Y162362D01*
X208528Y162386D01*
X208581Y162400D01*
X208655Y162446D01*
X208733Y162483D01*
X208774Y162520D01*
X208821Y162549D01*
X208879Y162613D01*
X208944Y162671D01*
X208970Y162714D01*
X209010Y162758D01*
X209059Y162860D01*
X209104Y162934D01*
X209671Y164302D01*
X211500Y166131D01*
X213889Y167120D01*
X216475Y167120D01*
X217344Y166760D01*
X217384Y166750D01*
X217422Y166732D01*
X217507Y166719D01*
X217617Y166690D01*
X217676Y166692D01*
X217726Y166684D01*
X253973Y166684D01*
X254014Y166690D01*
X254055Y166688D01*
X254139Y166708D01*
X254252Y166724D01*
X254305Y166748D01*
X254355Y166760D01*
X255224Y167120D01*
X257810Y167120D01*
X260199Y166131D01*
X262028Y164302D01*
X263018Y161913D01*
X263018Y159327D01*
X262028Y156937D01*
X260199Y155109D01*
X257810Y154119D01*
X255224Y154119D01*
X254355Y154479D01*
X254315Y154489D01*
X254277Y154507D01*
X254192Y154521D01*
X254082Y154549D01*
X254023Y154547D01*
X253973Y154555D01*
X217726Y154555D01*
X217685Y154549D01*
X217644Y154551D01*
X217560Y154531D01*
X217447Y154515D01*
X217394Y154491D01*
X217344Y154479D01*
X216475Y154119D01*
X213889Y154119D01*
X211500Y155109D01*
X209671Y156937D01*
X209104Y158305D01*
X209060Y158380D01*
X209024Y158459D01*
X208989Y158501D01*
X208961Y158548D01*
X208897Y158608D01*
X208841Y158673D01*
X208795Y158703D01*
X208755Y158741D01*
X208678Y158780D01*
X208605Y158828D01*
X208552Y158844D01*
X208504Y158869D01*
X208418Y158885D01*
X208335Y158910D01*
X208280Y158911D01*
X208226Y158921D01*
X208140Y158913D01*
X208053Y158914D01*
X208000Y158899D01*
X207946Y158894D01*
X207865Y158862D01*
X207781Y158839D01*
X207735Y158810D01*
X207684Y158790D01*
X207615Y158736D01*
X207541Y158691D01*
X207505Y158650D01*
X207461Y158616D01*
X207411Y158546D01*
X207352Y158481D01*
X207328Y158432D01*
X207296Y158387D01*
X207267Y158306D01*
X207229Y158228D01*
X207222Y158177D01*
X207202Y158122D01*
X207195Y158008D01*
X207182Y157923D01*
X207182Y148811D01*
X207195Y148717D01*
X207200Y148620D01*
X207215Y148577D01*
X207222Y148532D01*
X207261Y148445D01*
X207293Y148354D01*
X207318Y148319D01*
X207338Y148275D01*
X207421Y148178D01*
X207475Y148105D01*
X227654Y127925D01*
X227731Y127867D01*
X227803Y127803D01*
X227844Y127783D01*
X227880Y127756D01*
X227970Y127722D01*
X228056Y127680D01*
X228098Y127673D01*
X228144Y127656D01*
X228271Y127646D01*
X228361Y127632D01*
X254432Y127632D01*
X259631Y122434D01*
X259707Y122376D01*
X259779Y122312D01*
X259820Y122292D01*
X259856Y122265D01*
X259946Y122231D01*
X260033Y122189D01*
X260075Y122182D01*
X260120Y122165D01*
X260248Y122155D01*
X260337Y122141D01*
X264322Y122141D01*
X264350Y122131D01*
X264437Y122089D01*
X264479Y122082D01*
X264524Y122065D01*
X264652Y122055D01*
X264741Y122041D01*
X281341Y122041D01*
X281447Y122056D01*
X281554Y122064D01*
X281584Y122076D01*
X281621Y122081D01*
X281756Y122142D01*
X281841Y122175D01*
X282418Y122508D01*
X283064Y122681D01*
X287399Y122681D01*
X287399Y119041D01*
X287399Y119040D01*
X287399Y114041D01*
X287408Y113977D01*
X287407Y113913D01*
X287428Y113838D01*
X287439Y113762D01*
X287465Y113703D01*
X287482Y113641D01*
X287523Y113575D01*
X287555Y113505D01*
X287597Y113456D01*
X287631Y113401D01*
X287688Y113349D01*
X287739Y113290D01*
X287793Y113255D01*
X287840Y113212D01*
X287910Y113178D01*
X287975Y113135D01*
X288036Y113117D01*
X288094Y113089D01*
X288164Y113078D01*
X288245Y113053D01*
X288329Y113052D01*
X288399Y113041D01*
X295939Y113041D01*
X295939Y112606D01*
X295766Y111960D01*
X295533Y111556D01*
X295493Y111457D01*
X295447Y111361D01*
X295442Y111329D01*
X295428Y111295D01*
X295413Y111147D01*
X295399Y111057D01*
X295399Y107112D01*
X294227Y105940D01*
X292841Y105940D01*
X292777Y105931D01*
X292713Y105932D01*
X292639Y105911D01*
X292562Y105900D01*
X292503Y105873D01*
X292441Y105856D01*
X292375Y105816D01*
X292305Y105784D01*
X292256Y105742D01*
X292201Y105708D01*
X292150Y105651D01*
X292091Y105600D01*
X292055Y105547D01*
X292012Y105499D01*
X291979Y105429D01*
X291936Y105364D01*
X291917Y105303D01*
X291889Y105245D01*
X291879Y105176D01*
X291854Y105095D01*
X291853Y105010D01*
X291842Y104940D01*
X291842Y98959D01*
X279581Y86699D01*
X273658Y86699D01*
X273563Y86685D01*
X273466Y86680D01*
X273423Y86665D01*
X273378Y86659D01*
X273291Y86619D01*
X273200Y86588D01*
X273166Y86563D01*
X273121Y86543D01*
X273024Y86459D01*
X272951Y86406D01*
X272216Y85671D01*
X270194Y84833D01*
X268006Y84833D01*
G37*
%LPD*%
G36*
X142172Y249513D02*
X142172Y249513D01*
X142291Y249524D01*
X142312Y249533D01*
X142334Y249536D01*
X142442Y249585D01*
X142553Y249629D01*
X142571Y249643D01*
X142591Y249652D01*
X142681Y249729D01*
X142775Y249802D01*
X142788Y249821D01*
X142806Y249835D01*
X142871Y249935D01*
X142940Y250031D01*
X142948Y250052D01*
X142960Y250071D01*
X142995Y250185D01*
X143034Y250297D01*
X143036Y250319D01*
X143042Y250341D01*
X143044Y250460D01*
X143051Y250578D01*
X143046Y250599D01*
X143046Y250623D01*
X142997Y250802D01*
X142978Y250878D01*
X142776Y251366D01*
X142755Y251402D01*
X142741Y251441D01*
X142728Y251459D01*
X142727Y251470D01*
X142702Y251523D01*
X142690Y251573D01*
X142315Y252480D01*
X142315Y254669D01*
X142690Y255576D01*
X142701Y255617D01*
X142719Y255654D01*
X142722Y255676D01*
X142729Y255684D01*
X142749Y255739D01*
X142776Y255783D01*
X143152Y256691D01*
X144699Y258238D01*
X145607Y258614D01*
X145643Y258635D01*
X145682Y258649D01*
X145700Y258662D01*
X145710Y258663D01*
X145764Y258687D01*
X145813Y258699D01*
X146721Y259075D01*
X148909Y259075D01*
X149817Y258699D01*
X149857Y258689D01*
X149895Y258671D01*
X149917Y258667D01*
X149925Y258661D01*
X149980Y258640D01*
X150024Y258614D01*
X150498Y258417D01*
X150539Y258407D01*
X150576Y258389D01*
X150661Y258375D01*
X150771Y258347D01*
X150830Y258349D01*
X150881Y258341D01*
X187794Y258341D01*
X187889Y258355D01*
X187986Y258360D01*
X188029Y258374D01*
X188074Y258381D01*
X188161Y258420D01*
X188252Y258452D01*
X188286Y258477D01*
X188331Y258497D01*
X188428Y258580D01*
X188501Y258634D01*
X189175Y259307D01*
X189200Y259341D01*
X189231Y259368D01*
X189276Y259442D01*
X189344Y259533D01*
X189359Y259572D01*
X189377Y259601D01*
X189382Y259617D01*
X189391Y259632D01*
X189767Y260539D01*
X191315Y262087D01*
X192222Y262462D01*
X192258Y262484D01*
X192297Y262497D01*
X192315Y262510D01*
X192326Y262512D01*
X192379Y262536D01*
X192429Y262548D01*
X193336Y262924D01*
X195525Y262924D01*
X196432Y262548D01*
X196473Y262538D01*
X196510Y262520D01*
X196532Y262516D01*
X196540Y262510D01*
X196595Y262489D01*
X196639Y262462D01*
X197546Y262087D01*
X198935Y260698D01*
X198960Y260679D01*
X198981Y260655D01*
X199073Y260595D01*
X199160Y260529D01*
X199190Y260518D01*
X199217Y260500D01*
X199322Y260468D01*
X199424Y260430D01*
X199456Y260427D01*
X199487Y260418D01*
X199596Y260416D01*
X199705Y260408D01*
X199737Y260414D01*
X199769Y260414D01*
X199874Y260443D01*
X199981Y260465D01*
X200010Y260481D01*
X200041Y260489D01*
X200134Y260547D01*
X200230Y260598D01*
X200253Y260620D01*
X200281Y260637D01*
X200354Y260718D01*
X200432Y260795D01*
X200448Y260823D01*
X200470Y260847D01*
X200517Y260945D01*
X200571Y261040D01*
X200579Y261071D01*
X200593Y261100D01*
X200607Y261190D01*
X200636Y261315D01*
X200634Y261363D01*
X200640Y261405D01*
X200640Y308943D01*
X200627Y309038D01*
X200622Y309135D01*
X200607Y309178D01*
X200601Y309223D01*
X200561Y309310D01*
X200529Y309401D01*
X200504Y309435D01*
X200484Y309480D01*
X200401Y309577D01*
X200366Y309625D01*
X200364Y309627D01*
X200364Y309628D01*
X200348Y309650D01*
X188016Y321982D01*
X187939Y322039D01*
X187868Y322104D01*
X187827Y322124D01*
X187790Y322151D01*
X187700Y322185D01*
X187614Y322227D01*
X187572Y322233D01*
X187527Y322250D01*
X187399Y322260D01*
X187309Y322274D01*
X171955Y322274D01*
X171869Y322262D01*
X171782Y322259D01*
X171730Y322242D01*
X171675Y322235D01*
X171596Y322199D01*
X171514Y322172D01*
X171468Y322141D01*
X171418Y322118D01*
X171352Y322062D01*
X171281Y322013D01*
X171246Y321971D01*
X171204Y321935D01*
X171156Y321862D01*
X171101Y321795D01*
X171080Y321745D01*
X171050Y321699D01*
X171024Y321616D01*
X170990Y321536D01*
X170983Y321482D01*
X170967Y321429D01*
X170966Y321342D01*
X170955Y321256D01*
X170964Y321202D01*
X170963Y321147D01*
X170987Y321063D01*
X171001Y320978D01*
X171024Y320928D01*
X171039Y320875D01*
X171084Y320801D01*
X171122Y320723D01*
X171158Y320682D01*
X171187Y320635D01*
X171251Y320577D01*
X171309Y320512D01*
X171353Y320486D01*
X171396Y320446D01*
X171498Y320397D01*
X171572Y320352D01*
X171789Y320262D01*
X173336Y318715D01*
X174173Y316693D01*
X174173Y314505D01*
X173336Y312483D01*
X171789Y310936D01*
X169767Y310098D01*
X167578Y310098D01*
X165557Y310936D01*
X164009Y312483D01*
X163172Y314505D01*
X163172Y315459D01*
X163163Y315522D01*
X163164Y315587D01*
X163143Y315661D01*
X163132Y315738D01*
X163106Y315797D01*
X163088Y315859D01*
X163048Y315925D01*
X163016Y315995D01*
X162974Y316044D01*
X162940Y316099D01*
X162883Y316150D01*
X162832Y316209D01*
X162779Y316245D01*
X162731Y316288D01*
X162661Y316321D01*
X162596Y316364D01*
X162535Y316383D01*
X162477Y316411D01*
X162408Y316421D01*
X162327Y316446D01*
X162242Y316447D01*
X162173Y316458D01*
X141875Y316458D01*
X141742Y316439D01*
X141608Y316422D01*
X141602Y316419D01*
X141596Y316418D01*
X141474Y316363D01*
X141350Y316309D01*
X141345Y316305D01*
X141339Y316302D01*
X141237Y316215D01*
X141133Y316128D01*
X141129Y316123D01*
X141125Y316119D01*
X141050Y316005D01*
X140976Y315894D01*
X140974Y315888D01*
X140970Y315883D01*
X140931Y315754D01*
X140890Y315626D01*
X140890Y315619D01*
X140888Y315613D01*
X140886Y315479D01*
X140882Y315344D01*
X140884Y315337D01*
X140884Y315331D01*
X140920Y315201D01*
X140954Y315071D01*
X140957Y315065D01*
X140959Y315059D01*
X141031Y314943D01*
X141099Y314829D01*
X141104Y314825D01*
X141107Y314819D01*
X141317Y314630D01*
X141323Y314627D01*
X141328Y314623D01*
X143248Y313367D01*
X145707Y308502D01*
X145623Y306989D01*
X145557Y305805D01*
X145556Y305780D01*
X145489Y304572D01*
X145405Y303059D01*
X142421Y298496D01*
X137556Y296036D01*
X135003Y296178D01*
X134974Y296176D01*
X134948Y296180D01*
X108579Y296180D01*
X108462Y296163D01*
X108344Y296151D01*
X108323Y296143D01*
X108300Y296140D01*
X108192Y296091D01*
X108082Y296047D01*
X108064Y296033D01*
X108043Y296024D01*
X107953Y295947D01*
X107860Y295874D01*
X107846Y295855D01*
X107829Y295840D01*
X107764Y295741D01*
X107695Y295645D01*
X107687Y295623D01*
X107675Y295604D01*
X107640Y295491D01*
X107600Y295379D01*
X107599Y295356D01*
X107592Y295334D01*
X107591Y295216D01*
X107584Y295098D01*
X107589Y295077D01*
X107588Y295052D01*
X107638Y294873D01*
X107656Y294798D01*
X108550Y292639D01*
X108550Y290451D01*
X107713Y288429D01*
X107449Y288165D01*
X107430Y288140D01*
X107405Y288119D01*
X107345Y288027D01*
X107280Y287940D01*
X107269Y287910D01*
X107251Y287883D01*
X107219Y287778D01*
X107180Y287676D01*
X107178Y287644D01*
X107169Y287613D01*
X107167Y287504D01*
X107159Y287395D01*
X107165Y287363D01*
X107165Y287331D01*
X107194Y287226D01*
X107216Y287119D01*
X107231Y287090D01*
X107240Y287059D01*
X107297Y286966D01*
X107349Y286870D01*
X107371Y286847D01*
X107388Y286819D01*
X107469Y286746D01*
X107545Y286668D01*
X107573Y286652D01*
X107597Y286630D01*
X107696Y286582D01*
X107791Y286529D01*
X107822Y286521D01*
X107851Y286507D01*
X107941Y286493D01*
X108065Y286464D01*
X108114Y286466D01*
X108156Y286460D01*
X110485Y286460D01*
X111836Y285109D01*
X111913Y285051D01*
X111985Y284986D01*
X112026Y284967D01*
X112062Y284939D01*
X112152Y284905D01*
X112238Y284863D01*
X112281Y284857D01*
X112326Y284840D01*
X112454Y284830D01*
X112543Y284816D01*
X115127Y284816D01*
X115222Y284829D01*
X115319Y284834D01*
X115362Y284849D01*
X115407Y284856D01*
X115494Y284895D01*
X115585Y284927D01*
X115619Y284952D01*
X115664Y284972D01*
X115761Y285055D01*
X115834Y285109D01*
X116934Y286208D01*
X118956Y287046D01*
X121144Y287046D01*
X123166Y286208D01*
X124713Y284661D01*
X125550Y282639D01*
X125550Y280451D01*
X124713Y278429D01*
X123166Y276882D01*
X121144Y276044D01*
X118956Y276044D01*
X117780Y276531D01*
X117676Y276558D01*
X117573Y276592D01*
X117539Y276593D01*
X117507Y276601D01*
X117399Y276598D01*
X117291Y276602D01*
X117258Y276593D01*
X117225Y276592D01*
X117122Y276559D01*
X117018Y276532D01*
X116989Y276515D01*
X116957Y276505D01*
X116868Y276444D01*
X116775Y276389D01*
X116751Y276365D01*
X116724Y276346D01*
X116655Y276263D01*
X116581Y276184D01*
X116566Y276154D01*
X116544Y276128D01*
X116502Y276029D01*
X116453Y275933D01*
X116446Y275900D01*
X116433Y275869D01*
X116420Y275762D01*
X116400Y275656D01*
X116403Y275625D01*
X116399Y275589D01*
X116423Y275440D01*
X116432Y275349D01*
X116447Y275293D01*
X116447Y274208D01*
X115357Y274208D01*
X115328Y274204D01*
X115298Y274206D01*
X115188Y274184D01*
X115078Y274168D01*
X115051Y274156D01*
X115022Y274150D01*
X114923Y274098D01*
X114821Y274052D01*
X114798Y274033D01*
X114772Y274019D01*
X114692Y273941D01*
X114607Y273869D01*
X114590Y273844D01*
X114569Y273823D01*
X114514Y273727D01*
X114452Y273633D01*
X114444Y273604D01*
X114429Y273578D01*
X114403Y273470D01*
X114370Y273363D01*
X114370Y273333D01*
X114363Y273304D01*
X114368Y273193D01*
X114366Y273081D01*
X114374Y273052D01*
X114376Y273023D01*
X114412Y272917D01*
X114441Y272809D01*
X114457Y272784D01*
X114467Y272756D01*
X114531Y272664D01*
X114590Y272569D01*
X114612Y272549D01*
X114629Y272525D01*
X114701Y272469D01*
X114799Y272380D01*
X114840Y272360D01*
X114872Y272335D01*
X114873Y272335D01*
X114965Y272300D01*
X115053Y272257D01*
X115093Y272251D01*
X115136Y272234D01*
X115268Y272223D01*
X115358Y272209D01*
X116447Y272209D01*
X116447Y271124D01*
X116405Y270967D01*
X116393Y270861D01*
X116373Y270757D01*
X116376Y270724D01*
X116372Y270687D01*
X116396Y270541D01*
X116405Y270450D01*
X116447Y270293D01*
X116447Y269208D01*
X115358Y269208D01*
X115306Y269201D01*
X115255Y269203D01*
X115210Y269192D01*
X115162Y269189D01*
X115124Y269175D01*
X115079Y269168D01*
X115031Y269147D01*
X114981Y269135D01*
X114925Y269102D01*
X114872Y269082D01*
X114849Y269064D01*
X114822Y269052D01*
X114782Y269019D01*
X114738Y268993D01*
X114696Y268949D01*
X114647Y268912D01*
X114629Y268888D01*
X114607Y268869D01*
X114579Y268826D01*
X114543Y268788D01*
X114515Y268734D01*
X114479Y268686D01*
X114469Y268657D01*
X114453Y268633D01*
X114438Y268585D01*
X114414Y268538D01*
X114402Y268478D01*
X114381Y268421D01*
X114379Y268390D01*
X114370Y268363D01*
X114370Y268313D01*
X114360Y268261D01*
X114365Y268200D01*
X114361Y268140D01*
X114367Y268109D01*
X114367Y268081D01*
X114380Y268033D01*
X114385Y267980D01*
X114407Y267924D01*
X114420Y267864D01*
X114434Y267837D01*
X114442Y267809D01*
X114468Y267766D01*
X114487Y267717D01*
X114525Y267669D01*
X114553Y267616D01*
X114575Y267594D01*
X114590Y267569D01*
X114628Y267535D01*
X114659Y267494D01*
X114705Y267461D01*
X114751Y267415D01*
X114777Y267400D01*
X114799Y267380D01*
X114862Y267350D01*
X114911Y267315D01*
X114956Y267300D01*
X114997Y267277D01*
X115026Y267270D01*
X115053Y267257D01*
X115112Y267248D01*
X115178Y267226D01*
X115226Y267224D01*
X115272Y267213D01*
X115317Y267216D01*
X115358Y267209D01*
X116447Y267209D01*
X116447Y266124D01*
X116405Y265968D01*
X116393Y265861D01*
X116373Y265757D01*
X116376Y265724D01*
X116372Y265688D01*
X116396Y265541D01*
X116405Y265450D01*
X116447Y265293D01*
X116447Y264208D01*
X115358Y264208D01*
X115260Y264194D01*
X115162Y264189D01*
X115124Y264175D01*
X115079Y264168D01*
X114958Y264114D01*
X114872Y264082D01*
X114848Y264064D01*
X114822Y264052D01*
X114821Y264052D01*
X114736Y263979D01*
X114647Y263912D01*
X114629Y263888D01*
X114607Y263868D01*
X114545Y263775D01*
X114479Y263685D01*
X114469Y263658D01*
X114452Y263633D01*
X114420Y263526D01*
X114381Y263421D01*
X114379Y263391D01*
X114370Y263363D01*
X114368Y263251D01*
X114360Y263140D01*
X114367Y263111D01*
X114366Y263081D01*
X114396Y262973D01*
X114419Y262864D01*
X114433Y262838D01*
X114441Y262809D01*
X114500Y262714D01*
X114553Y262616D01*
X114574Y262594D01*
X114589Y262569D01*
X114672Y262494D01*
X114751Y262415D01*
X114777Y262400D01*
X114799Y262380D01*
X114899Y262331D01*
X114997Y262277D01*
X115026Y262270D01*
X115053Y262257D01*
X115143Y262243D01*
X115272Y262213D01*
X115317Y262216D01*
X115357Y262209D01*
X116486Y262209D01*
X116487Y262200D01*
X116514Y262141D01*
X116531Y262079D01*
X116572Y262013D01*
X116603Y261943D01*
X116645Y261894D01*
X116679Y261839D01*
X116737Y261787D01*
X116787Y261728D01*
X116841Y261693D01*
X116888Y261650D01*
X116958Y261616D01*
X117023Y261574D01*
X117084Y261555D01*
X117142Y261527D01*
X117212Y261516D01*
X117293Y261492D01*
X117377Y261490D01*
X117447Y261480D01*
X120262Y261480D01*
X131952Y249789D01*
X132029Y249731D01*
X132101Y249667D01*
X132142Y249647D01*
X132178Y249619D01*
X132268Y249585D01*
X132354Y249544D01*
X132396Y249537D01*
X132442Y249520D01*
X132569Y249510D01*
X132659Y249496D01*
X142055Y249496D01*
X142172Y249513D01*
G37*
%LPC*%
G36*
X314175Y444223D02*
X314175Y444223D01*
X306854Y449114D01*
X301962Y456435D01*
X300245Y465071D01*
X301962Y473707D01*
X306854Y481028D01*
X314175Y485920D01*
X322811Y487637D01*
X331446Y485920D01*
X338767Y481028D01*
X343659Y473707D01*
X345377Y465071D01*
X343659Y456435D01*
X338767Y449114D01*
X331446Y444223D01*
X322811Y442505D01*
X314175Y444223D01*
G37*
%LPD*%
G36*
X83430Y261489D02*
X83430Y261489D01*
X83495Y261488D01*
X83569Y261508D01*
X83646Y261519D01*
X83704Y261546D01*
X83766Y261563D01*
X83832Y261604D01*
X83903Y261636D01*
X83952Y261677D01*
X84006Y261711D01*
X84058Y261769D01*
X84117Y261819D01*
X84152Y261873D01*
X84195Y261920D01*
X84229Y261990D01*
X84272Y262055D01*
X84290Y262116D01*
X84318Y262174D01*
X84324Y262209D01*
X85456Y262209D01*
X85497Y262215D01*
X85538Y262213D01*
X85636Y262235D01*
X85735Y262249D01*
X85773Y262266D01*
X85813Y262275D01*
X85901Y262324D01*
X85992Y262365D01*
X86024Y262392D01*
X86060Y262412D01*
X86130Y262483D01*
X86207Y262549D01*
X86229Y262583D01*
X86258Y262612D01*
X86306Y262701D01*
X86361Y262785D01*
X86373Y262824D01*
X86393Y262860D01*
X86414Y262958D01*
X86444Y263055D01*
X86444Y263096D01*
X86453Y263136D01*
X86446Y263236D01*
X86447Y263337D01*
X86436Y263376D01*
X86434Y263417D01*
X86399Y263511D01*
X86372Y263608D01*
X86350Y263643D01*
X86336Y263682D01*
X86277Y263763D01*
X86224Y263848D01*
X86193Y263876D01*
X86169Y263909D01*
X86100Y263961D01*
X86015Y264037D01*
X86014Y264038D01*
X85962Y264063D01*
X85922Y264093D01*
X85921Y264093D01*
X85839Y264123D01*
X85760Y264161D01*
X85710Y264168D01*
X85655Y264188D01*
X85541Y264195D01*
X85456Y264208D01*
X84366Y264208D01*
X84366Y265293D01*
X84408Y265450D01*
X84421Y265556D01*
X84441Y265661D01*
X84437Y265694D01*
X84442Y265730D01*
X84418Y265877D01*
X84408Y265968D01*
X84366Y266124D01*
X84366Y267209D01*
X85456Y267209D01*
X85530Y267220D01*
X85603Y267221D01*
X85623Y267226D01*
X85644Y267227D01*
X85685Y267242D01*
X85735Y267249D01*
X85803Y267280D01*
X85874Y267301D01*
X85904Y267321D01*
X85934Y267331D01*
X85934Y267332D01*
X85961Y267352D01*
X85992Y267365D01*
X86048Y267414D01*
X86111Y267454D01*
X86133Y267480D01*
X86161Y267500D01*
X86181Y267527D01*
X86206Y267549D01*
X86246Y267610D01*
X86296Y267667D01*
X86310Y267698D01*
X86330Y267725D01*
X86343Y267758D01*
X86361Y267785D01*
X86382Y267854D01*
X86414Y267923D01*
X86419Y267957D01*
X86431Y267989D01*
X86434Y268024D01*
X86443Y268055D01*
X86444Y268127D01*
X86455Y268202D01*
X86451Y268236D01*
X86453Y268270D01*
X86446Y268304D01*
X86447Y268337D01*
X86427Y268406D01*
X86417Y268482D01*
X86403Y268513D01*
X86396Y268546D01*
X86380Y268577D01*
X86372Y268609D01*
X86333Y268670D01*
X86303Y268739D01*
X86281Y268766D01*
X86265Y268796D01*
X86241Y268820D01*
X86223Y268849D01*
X86169Y268898D01*
X86121Y268955D01*
X86094Y268972D01*
X86069Y268998D01*
X86039Y269015D01*
X86014Y269038D01*
X85927Y269080D01*
X85862Y269122D01*
X85842Y269128D01*
X85824Y269138D01*
X85791Y269146D01*
X85760Y269161D01*
X85683Y269173D01*
X85590Y269199D01*
X85569Y269199D01*
X85549Y269204D01*
X85500Y269201D01*
X85456Y269208D01*
X84366Y269208D01*
X84366Y270293D01*
X84408Y270450D01*
X84421Y270556D01*
X84441Y270661D01*
X84437Y270694D01*
X84442Y270730D01*
X84418Y270877D01*
X84408Y270968D01*
X84366Y271124D01*
X84366Y272209D01*
X85456Y272209D01*
X85542Y272222D01*
X85629Y272225D01*
X85677Y272241D01*
X85735Y272249D01*
X85839Y272296D01*
X85921Y272324D01*
X85922Y272325D01*
X85955Y272349D01*
X85992Y272365D01*
X85992Y272366D01*
X86069Y272431D01*
X86150Y272490D01*
X86175Y272522D01*
X86207Y272549D01*
X86262Y272633D01*
X86323Y272713D01*
X86339Y272751D01*
X86361Y272785D01*
X86390Y272881D01*
X86428Y272975D01*
X86431Y273016D01*
X86443Y273055D01*
X86445Y273155D01*
X86454Y273255D01*
X86447Y273296D01*
X86447Y273337D01*
X86420Y273434D01*
X86402Y273532D01*
X86383Y273569D01*
X86372Y273609D01*
X86319Y273694D01*
X86274Y273784D01*
X86245Y273814D01*
X86224Y273849D01*
X86149Y273916D01*
X86080Y273989D01*
X86045Y274010D01*
X86015Y274038D01*
X85924Y274081D01*
X85838Y274133D01*
X85798Y274143D01*
X85761Y274161D01*
X85675Y274174D01*
X85564Y274202D01*
X85506Y274200D01*
X85456Y274208D01*
X84366Y274208D01*
X84366Y275293D01*
X84539Y275940D01*
X84874Y276519D01*
X85347Y276992D01*
X85926Y277326D01*
X86572Y277500D01*
X87617Y277500D01*
X87680Y277509D01*
X87745Y277508D01*
X87819Y277528D01*
X87896Y277539D01*
X87954Y277566D01*
X88016Y277583D01*
X88082Y277624D01*
X88153Y277656D01*
X88202Y277697D01*
X88256Y277731D01*
X88308Y277789D01*
X88367Y277839D01*
X88402Y277893D01*
X88445Y277940D01*
X88479Y278010D01*
X88522Y278075D01*
X88540Y278136D01*
X88568Y278194D01*
X88579Y278264D01*
X88604Y278345D01*
X88605Y278429D01*
X88616Y278499D01*
X88616Y280459D01*
X92906Y280459D01*
X92907Y280459D01*
X97906Y280459D01*
X97970Y280468D01*
X98034Y280468D01*
X98109Y280488D01*
X98186Y280499D01*
X98244Y280526D01*
X98306Y280543D01*
X98372Y280584D01*
X98443Y280615D01*
X98491Y280657D01*
X98546Y280691D01*
X98598Y280748D01*
X98657Y280799D01*
X98692Y280853D01*
X98735Y280900D01*
X98769Y280970D01*
X98811Y281035D01*
X98830Y281096D01*
X98858Y281154D01*
X98869Y281223D01*
X98894Y281305D01*
X98895Y281389D01*
X98906Y281459D01*
X98897Y281523D01*
X98897Y281587D01*
X98877Y281662D01*
X98866Y281738D01*
X98839Y281797D01*
X98822Y281859D01*
X98781Y281925D01*
X98750Y281995D01*
X98708Y282044D01*
X98674Y282099D01*
X98617Y282151D01*
X98566Y282209D01*
X98512Y282245D01*
X98465Y282288D01*
X98395Y282321D01*
X98330Y282364D01*
X98269Y282383D01*
X98211Y282411D01*
X98142Y282422D01*
X98061Y282446D01*
X97976Y282447D01*
X97906Y282458D01*
X92907Y282458D01*
X92906Y282458D01*
X88616Y282458D01*
X88616Y284793D01*
X88789Y285440D01*
X89124Y286019D01*
X89597Y286492D01*
X90176Y286826D01*
X90822Y287000D01*
X91907Y287000D01*
X91907Y285909D01*
X91911Y285880D01*
X91909Y285850D01*
X91931Y285741D01*
X91947Y285630D01*
X91959Y285603D01*
X91965Y285574D01*
X92017Y285475D01*
X92063Y285373D01*
X92083Y285351D01*
X92097Y285324D01*
X92174Y285244D01*
X92247Y285159D01*
X92272Y285143D01*
X92292Y285121D01*
X92389Y285066D01*
X92483Y285004D01*
X92511Y284996D01*
X92537Y284981D01*
X92645Y284955D01*
X92752Y284922D01*
X92782Y284922D01*
X92811Y284915D01*
X92923Y284920D01*
X93034Y284918D01*
X93063Y284926D01*
X93093Y284928D01*
X93199Y284964D01*
X93306Y284993D01*
X93332Y285009D01*
X93360Y285019D01*
X93451Y285083D01*
X93546Y285142D01*
X93566Y285164D01*
X93591Y285181D01*
X93647Y285253D01*
X93735Y285351D01*
X93736Y285351D01*
X93755Y285392D01*
X93780Y285424D01*
X93780Y285425D01*
X93816Y285517D01*
X93859Y285605D01*
X93865Y285645D01*
X93881Y285688D01*
X93892Y285820D01*
X93906Y285910D01*
X93906Y287000D01*
X94991Y287000D01*
X95148Y286958D01*
X95254Y286945D01*
X95359Y286925D01*
X95391Y286928D01*
X95428Y286924D01*
X95574Y286948D01*
X95665Y286958D01*
X95822Y287000D01*
X97483Y287000D01*
X97600Y287016D01*
X97719Y287028D01*
X97740Y287036D01*
X97762Y287039D01*
X97870Y287088D01*
X97981Y287132D01*
X97999Y287146D01*
X98019Y287156D01*
X98109Y287233D01*
X98203Y287306D01*
X98216Y287324D01*
X98234Y287339D01*
X98299Y287438D01*
X98368Y287534D01*
X98375Y287556D01*
X98388Y287575D01*
X98423Y287689D01*
X98462Y287800D01*
X98464Y287823D01*
X98470Y287845D01*
X98472Y287963D01*
X98479Y288082D01*
X98474Y288103D01*
X98474Y288127D01*
X98425Y288306D01*
X98406Y288381D01*
X97549Y290451D01*
X97549Y292639D01*
X98443Y294798D01*
X98473Y294913D01*
X98507Y295026D01*
X98508Y295049D01*
X98513Y295071D01*
X98509Y295190D01*
X98511Y295308D01*
X98505Y295330D01*
X98504Y295353D01*
X98468Y295466D01*
X98436Y295580D01*
X98424Y295599D01*
X98417Y295621D01*
X98350Y295719D01*
X98288Y295820D01*
X98271Y295835D01*
X98258Y295854D01*
X98166Y295930D01*
X98078Y296009D01*
X98058Y296019D01*
X98040Y296034D01*
X97931Y296080D01*
X97825Y296132D01*
X97803Y296135D01*
X97781Y296145D01*
X97596Y296168D01*
X97520Y296180D01*
X63049Y296180D01*
X58462Y298828D01*
X55814Y303414D01*
X55814Y309069D01*
X58538Y313786D01*
X59936Y314593D01*
X59953Y314607D01*
X59972Y314616D01*
X60063Y314693D01*
X60158Y314768D01*
X60170Y314785D01*
X60187Y314799D01*
X60252Y314899D01*
X60322Y314997D01*
X60329Y315017D01*
X60341Y315035D01*
X60376Y315150D01*
X60416Y315263D01*
X60417Y315284D01*
X60423Y315305D01*
X60425Y315425D01*
X60432Y315544D01*
X60427Y315565D01*
X60427Y315587D01*
X60395Y315702D01*
X60368Y315819D01*
X60358Y315838D01*
X60352Y315859D01*
X60289Y315960D01*
X60230Y316065D01*
X60215Y316080D01*
X60204Y316099D01*
X60115Y316179D01*
X60029Y316263D01*
X60010Y316273D01*
X59994Y316288D01*
X59887Y316340D01*
X59781Y316397D01*
X59760Y316401D01*
X59741Y316411D01*
X59650Y316425D01*
X59505Y316456D01*
X59469Y316453D01*
X59436Y316458D01*
X58002Y316458D01*
X57907Y316445D01*
X57811Y316440D01*
X57768Y316425D01*
X57723Y316418D01*
X57636Y316379D01*
X57545Y316347D01*
X57510Y316322D01*
X57466Y316302D01*
X57369Y316219D01*
X57296Y316165D01*
X50613Y309483D01*
X50556Y309406D01*
X50491Y309335D01*
X50471Y309294D01*
X50444Y309257D01*
X50410Y309167D01*
X50368Y309081D01*
X50361Y309039D01*
X50344Y308994D01*
X50334Y308866D01*
X50320Y308776D01*
X50320Y263314D01*
X50334Y263219D01*
X50339Y263123D01*
X50354Y263080D01*
X50360Y263035D01*
X50400Y262947D01*
X50431Y262856D01*
X50457Y262822D01*
X50477Y262778D01*
X50560Y262680D01*
X50613Y262607D01*
X51448Y261772D01*
X51525Y261715D01*
X51596Y261650D01*
X51637Y261630D01*
X51674Y261603D01*
X51764Y261569D01*
X51850Y261527D01*
X51892Y261521D01*
X51938Y261503D01*
X52065Y261494D01*
X52155Y261480D01*
X83367Y261480D01*
X83430Y261489D01*
G37*
%LPC*%
G36*
X335051Y14757D02*
X335051Y14757D01*
X334998Y14755D01*
X334952Y14762D01*
X334147Y14762D01*
X334137Y14765D01*
X334135Y14765D01*
X334132Y14765D01*
X334109Y14765D01*
X333306Y14926D01*
X333253Y14929D01*
X333208Y14941D01*
X332397Y15022D01*
X331609Y15263D01*
X331557Y15271D01*
X331514Y15287D01*
X330725Y15446D01*
X329973Y15759D01*
X329923Y15771D01*
X329882Y15791D01*
X329120Y16024D01*
X328409Y16404D01*
X328361Y16421D01*
X328322Y16445D01*
X327593Y16748D01*
X326926Y17190D01*
X326880Y17211D01*
X326845Y17238D01*
X326150Y17609D01*
X325533Y18107D01*
X325490Y18133D01*
X325457Y18163D01*
X324802Y18597D01*
X324237Y19149D01*
X324197Y19178D01*
X324167Y19211D01*
X323556Y19706D01*
X323047Y20305D01*
X323010Y20338D01*
X322983Y20374D01*
X322419Y20924D01*
X321970Y21569D01*
X321936Y21606D01*
X321913Y21644D01*
X321400Y22248D01*
X321014Y22933D01*
X320983Y22973D01*
X320963Y23013D01*
X320507Y23667D01*
X320186Y24389D01*
X320159Y24432D01*
X320143Y24474D01*
X319748Y25175D01*
X319497Y25929D01*
X319474Y25975D01*
X319462Y26019D01*
X319132Y26761D01*
X318955Y27543D01*
X318936Y27592D01*
X318928Y27638D01*
X318669Y28417D01*
X318568Y29223D01*
X318554Y29274D01*
X318551Y29320D01*
X318372Y30109D01*
X318372Y30113D01*
X318372Y30115D01*
X318372Y30117D01*
X318367Y30135D01*
X318347Y30956D01*
X318338Y31008D01*
X318339Y31055D01*
X318240Y31848D01*
X318244Y31873D01*
X318243Y31876D01*
X318244Y31879D01*
X318237Y31918D01*
X318298Y32727D01*
X318294Y32780D01*
X318300Y32826D01*
X318280Y33629D01*
X318284Y33644D01*
X318284Y33647D01*
X318284Y33649D01*
X318283Y33677D01*
X318424Y34482D01*
X318426Y34536D01*
X318437Y34581D01*
X318498Y35397D01*
X318720Y36192D01*
X318727Y36245D01*
X318742Y36288D01*
X318881Y37084D01*
X319176Y37845D01*
X319188Y37895D01*
X319207Y37937D01*
X319421Y38705D01*
X319785Y39427D01*
X319801Y39476D01*
X319824Y39515D01*
X320110Y40254D01*
X320536Y40931D01*
X320557Y40978D01*
X320583Y41014D01*
X320937Y41718D01*
X321422Y42348D01*
X321447Y42392D01*
X321476Y42425D01*
X321895Y43091D01*
X322433Y43668D01*
X322462Y43710D01*
X322494Y43740D01*
X322973Y44362D01*
X323562Y44886D01*
X323594Y44924D01*
X323629Y44951D01*
X324166Y45528D01*
X324799Y45992D01*
X324835Y46027D01*
X324873Y46051D01*
X325464Y46577D01*
X326139Y46979D01*
X326179Y47011D01*
X326218Y47032D01*
X326860Y47502D01*
X327573Y47840D01*
X327615Y47868D01*
X327657Y47885D01*
X328346Y48295D01*
X329092Y48564D01*
X329138Y48588D01*
X329181Y48601D01*
X329914Y48948D01*
X330689Y49144D01*
X330738Y49164D01*
X330783Y49173D01*
X331553Y49450D01*
X332354Y49570D01*
X332404Y49585D01*
X332450Y49590D01*
X333254Y49793D01*
X334074Y49834D01*
X334127Y49844D01*
X334173Y49844D01*
X334965Y49963D01*
X334986Y49961D01*
X334989Y49961D01*
X334991Y49961D01*
X335026Y49967D01*
X335839Y49927D01*
X335892Y49931D01*
X335938Y49927D01*
X336738Y49966D01*
X336758Y49962D01*
X336761Y49962D01*
X336764Y49962D01*
X336799Y49965D01*
X337603Y49844D01*
X337656Y49843D01*
X337702Y49834D01*
X338510Y49794D01*
X338512Y49794D01*
X338514Y49793D01*
X338523Y49793D01*
X339326Y49590D01*
X339379Y49584D01*
X339423Y49570D01*
X340224Y49450D01*
X340994Y49173D01*
X341045Y49162D01*
X341087Y49144D01*
X341862Y48948D01*
X342595Y48601D01*
X342644Y48586D01*
X342684Y48564D01*
X343431Y48295D01*
X344119Y47885D01*
X344167Y47865D01*
X344204Y47840D01*
X344916Y47502D01*
X345558Y47032D01*
X345603Y47008D01*
X345637Y46979D01*
X346312Y46577D01*
X346904Y46051D01*
X346946Y46023D01*
X346977Y45992D01*
X347611Y45527D01*
X348148Y44951D01*
X348187Y44920D01*
X348215Y44886D01*
X348803Y44363D01*
X349282Y43740D01*
X349318Y43705D01*
X349343Y43668D01*
X349882Y43090D01*
X350300Y42426D01*
X350333Y42387D01*
X350354Y42348D01*
X350839Y41718D01*
X351193Y41014D01*
X351222Y40972D01*
X351240Y40931D01*
X351666Y40253D01*
X351952Y39515D01*
X351978Y39470D01*
X351992Y39427D01*
X352355Y38706D01*
X352569Y37937D01*
X352590Y37889D01*
X352600Y37845D01*
X352895Y37083D01*
X353035Y36288D01*
X353051Y36238D01*
X353057Y36192D01*
X353279Y35396D01*
X353340Y34581D01*
X353351Y34529D01*
X353352Y34482D01*
X353491Y33691D01*
X353490Y33675D01*
X353490Y33673D01*
X353490Y33671D01*
X353496Y33643D01*
X353476Y32826D01*
X353482Y32773D01*
X353478Y32727D01*
X353538Y31929D01*
X353534Y31905D01*
X353534Y31902D01*
X353533Y31900D01*
X353538Y31860D01*
X353437Y31055D01*
X353438Y31002D01*
X353429Y30956D01*
X353409Y30150D01*
X353408Y30145D01*
X353408Y30142D01*
X353407Y30139D01*
X353407Y30123D01*
X353225Y29320D01*
X353221Y29267D01*
X353208Y29223D01*
X353107Y28418D01*
X352848Y27638D01*
X352838Y27586D01*
X352822Y27544D01*
X352644Y26760D01*
X352314Y26019D01*
X352300Y25969D01*
X352279Y25929D01*
X352029Y25175D01*
X351633Y24474D01*
X351614Y24426D01*
X351590Y24389D01*
X351269Y23667D01*
X350813Y23013D01*
X350790Y22968D01*
X350763Y22933D01*
X350376Y22248D01*
X349864Y21644D01*
X349837Y21601D01*
X349806Y21569D01*
X349357Y20924D01*
X348793Y20374D01*
X348762Y20334D01*
X348729Y20305D01*
X348221Y19706D01*
X347609Y19211D01*
X347575Y19174D01*
X347539Y19149D01*
X346974Y18597D01*
X346319Y18163D01*
X346282Y18130D01*
X346243Y18107D01*
X345626Y17609D01*
X344932Y17238D01*
X344891Y17208D01*
X344850Y17190D01*
X344184Y16748D01*
X343454Y16445D01*
X343410Y16419D01*
X343367Y16404D01*
X342656Y16024D01*
X341895Y15791D01*
X341848Y15769D01*
X341803Y15758D01*
X341051Y15446D01*
X340263Y15287D01*
X340213Y15270D01*
X340168Y15263D01*
X339380Y15022D01*
X338569Y14941D01*
X338517Y14928D01*
X338471Y14926D01*
X337680Y14767D01*
X337671Y14768D01*
X337668Y14767D01*
X337666Y14767D01*
X337643Y14762D01*
X336824Y14762D01*
X336772Y14755D01*
X336725Y14757D01*
X335930Y14678D01*
X335904Y14682D01*
X335901Y14681D01*
X335898Y14682D01*
X335858Y14677D01*
X335051Y14757D01*
G37*
%LPD*%
%LPC*%
G36*
X33045Y513105D02*
X33045Y513105D01*
X32992Y513103D01*
X32946Y513110D01*
X32141Y513110D01*
X32131Y513113D01*
X32129Y513113D01*
X32126Y513113D01*
X32103Y513113D01*
X31300Y513274D01*
X31247Y513277D01*
X31202Y513289D01*
X30391Y513370D01*
X29603Y513611D01*
X29551Y513619D01*
X29508Y513635D01*
X28719Y513794D01*
X27967Y514106D01*
X27917Y514119D01*
X27876Y514139D01*
X27114Y514372D01*
X26403Y514752D01*
X26355Y514769D01*
X26316Y514793D01*
X25587Y515096D01*
X24920Y515538D01*
X24874Y515559D01*
X24839Y515586D01*
X24144Y515957D01*
X23527Y516455D01*
X23484Y516481D01*
X23451Y516511D01*
X22796Y516945D01*
X22231Y517497D01*
X22191Y517526D01*
X22161Y517559D01*
X21550Y518054D01*
X21041Y518653D01*
X21004Y518686D01*
X20977Y518722D01*
X20413Y519273D01*
X19964Y519917D01*
X19930Y519954D01*
X19907Y519992D01*
X19394Y520596D01*
X19008Y521281D01*
X18977Y521321D01*
X18957Y521361D01*
X18501Y522015D01*
X18180Y522737D01*
X18153Y522780D01*
X18137Y522822D01*
X17742Y523523D01*
X17491Y524277D01*
X17468Y524323D01*
X17456Y524367D01*
X17126Y525109D01*
X16949Y525891D01*
X16930Y525940D01*
X16922Y525986D01*
X16663Y526765D01*
X16562Y527571D01*
X16548Y527622D01*
X16545Y527668D01*
X16366Y528457D01*
X16366Y528461D01*
X16366Y528463D01*
X16366Y528465D01*
X16361Y528483D01*
X16341Y529304D01*
X16332Y529356D01*
X16333Y529403D01*
X16234Y530196D01*
X16238Y530221D01*
X16237Y530224D01*
X16238Y530227D01*
X16231Y530266D01*
X16292Y531075D01*
X16288Y531128D01*
X16294Y531174D01*
X16274Y531977D01*
X16278Y531992D01*
X16278Y531995D01*
X16278Y531997D01*
X16277Y532025D01*
X16418Y532830D01*
X16420Y532884D01*
X16431Y532929D01*
X16492Y533745D01*
X16714Y534540D01*
X16721Y534593D01*
X16736Y534636D01*
X16875Y535432D01*
X17170Y536193D01*
X17182Y536243D01*
X17201Y536285D01*
X17415Y537053D01*
X17779Y537775D01*
X17795Y537824D01*
X17818Y537863D01*
X18104Y538602D01*
X18530Y539279D01*
X18551Y539326D01*
X18577Y539362D01*
X18931Y540066D01*
X19416Y540696D01*
X19441Y540740D01*
X19470Y540773D01*
X19889Y541439D01*
X20427Y542016D01*
X20456Y542058D01*
X20488Y542088D01*
X20967Y542710D01*
X21556Y543234D01*
X21588Y543272D01*
X21623Y543299D01*
X22160Y543876D01*
X22793Y544340D01*
X22829Y544375D01*
X22867Y544399D01*
X23458Y544925D01*
X24133Y545327D01*
X24173Y545359D01*
X24212Y545380D01*
X24854Y545850D01*
X25567Y546188D01*
X25609Y546216D01*
X25651Y546232D01*
X26340Y546643D01*
X27086Y546912D01*
X27132Y546936D01*
X27175Y546949D01*
X27908Y547296D01*
X28684Y547492D01*
X28732Y547512D01*
X28777Y547521D01*
X29547Y547798D01*
X30348Y547918D01*
X30398Y547933D01*
X30444Y547938D01*
X31248Y548141D01*
X32068Y548182D01*
X32121Y548192D01*
X32167Y548192D01*
X32959Y548311D01*
X32980Y548309D01*
X32983Y548309D01*
X32985Y548309D01*
X33020Y548315D01*
X33833Y548275D01*
X33886Y548279D01*
X33932Y548275D01*
X34732Y548314D01*
X34752Y548310D01*
X34755Y548310D01*
X34758Y548310D01*
X34793Y548313D01*
X35597Y548192D01*
X35650Y548191D01*
X35696Y548182D01*
X36504Y548142D01*
X36506Y548142D01*
X36508Y548141D01*
X36517Y548141D01*
X37320Y547938D01*
X37373Y547932D01*
X37417Y547918D01*
X38218Y547798D01*
X38988Y547521D01*
X39039Y547510D01*
X39081Y547492D01*
X39856Y547296D01*
X40589Y546949D01*
X40638Y546934D01*
X40678Y546912D01*
X41425Y546643D01*
X42113Y546233D01*
X42161Y546213D01*
X42198Y546188D01*
X42910Y545850D01*
X43552Y545380D01*
X43597Y545356D01*
X43631Y545327D01*
X44306Y544925D01*
X44898Y544399D01*
X44940Y544371D01*
X44971Y544340D01*
X45605Y543875D01*
X46142Y543299D01*
X46181Y543268D01*
X46209Y543234D01*
X46797Y542711D01*
X47276Y542088D01*
X47312Y542053D01*
X47337Y542016D01*
X47876Y541438D01*
X48294Y540774D01*
X48327Y540735D01*
X48348Y540696D01*
X48833Y540066D01*
X49187Y539362D01*
X49216Y539320D01*
X49234Y539279D01*
X49660Y538601D01*
X49946Y537863D01*
X49972Y537818D01*
X49986Y537775D01*
X50349Y537054D01*
X50563Y536285D01*
X50584Y536237D01*
X50594Y536193D01*
X50889Y535431D01*
X51029Y534636D01*
X51045Y534586D01*
X51051Y534540D01*
X51273Y533744D01*
X51334Y532929D01*
X51345Y532877D01*
X51346Y532830D01*
X51485Y532039D01*
X51484Y532023D01*
X51484Y532021D01*
X51484Y532019D01*
X51490Y531991D01*
X51470Y531174D01*
X51476Y531121D01*
X51472Y531075D01*
X51532Y530277D01*
X51528Y530253D01*
X51528Y530250D01*
X51527Y530248D01*
X51532Y530208D01*
X51431Y529403D01*
X51432Y529350D01*
X51423Y529304D01*
X51403Y528498D01*
X51402Y528493D01*
X51402Y528490D01*
X51401Y528487D01*
X51401Y528471D01*
X51219Y527668D01*
X51215Y527615D01*
X51202Y527571D01*
X51101Y526766D01*
X50842Y525986D01*
X50832Y525934D01*
X50816Y525892D01*
X50638Y525108D01*
X50308Y524367D01*
X50294Y524317D01*
X50273Y524277D01*
X50023Y523523D01*
X49627Y522822D01*
X49608Y522775D01*
X49584Y522737D01*
X49263Y522015D01*
X48807Y521361D01*
X48784Y521316D01*
X48757Y521281D01*
X48370Y520596D01*
X47858Y519992D01*
X47831Y519949D01*
X47800Y519917D01*
X47351Y519272D01*
X46787Y518722D01*
X46756Y518682D01*
X46723Y518653D01*
X46215Y518053D01*
X45603Y517559D01*
X45569Y517522D01*
X45533Y517497D01*
X44968Y516945D01*
X44313Y516511D01*
X44276Y516478D01*
X44237Y516455D01*
X43620Y515957D01*
X42926Y515586D01*
X42885Y515556D01*
X42844Y515538D01*
X42178Y515096D01*
X41448Y514793D01*
X41404Y514767D01*
X41361Y514752D01*
X40650Y514372D01*
X39889Y514139D01*
X39842Y514117D01*
X39797Y514106D01*
X39045Y513794D01*
X38257Y513635D01*
X38207Y513618D01*
X38162Y513611D01*
X37374Y513370D01*
X36563Y513289D01*
X36511Y513276D01*
X36465Y513274D01*
X35674Y513115D01*
X35665Y513116D01*
X35662Y513115D01*
X35660Y513115D01*
X35637Y513110D01*
X34818Y513110D01*
X34766Y513103D01*
X34719Y513105D01*
X33924Y513026D01*
X33898Y513030D01*
X33895Y513029D01*
X33892Y513030D01*
X33852Y513025D01*
X33045Y513105D01*
G37*
%LPD*%
%LPC*%
G36*
X335051Y513105D02*
X335051Y513105D01*
X334998Y513103D01*
X334952Y513110D01*
X334147Y513110D01*
X334137Y513113D01*
X334135Y513113D01*
X334132Y513113D01*
X334109Y513113D01*
X333306Y513274D01*
X333253Y513277D01*
X333208Y513289D01*
X332397Y513370D01*
X331609Y513611D01*
X331557Y513619D01*
X331514Y513635D01*
X330725Y513794D01*
X329973Y514106D01*
X329923Y514119D01*
X329882Y514139D01*
X329120Y514372D01*
X328409Y514752D01*
X328361Y514769D01*
X328322Y514793D01*
X327593Y515096D01*
X326926Y515538D01*
X326880Y515559D01*
X326845Y515586D01*
X326150Y515957D01*
X325533Y516455D01*
X325490Y516481D01*
X325457Y516511D01*
X324802Y516945D01*
X324237Y517497D01*
X324197Y517526D01*
X324167Y517559D01*
X323556Y518054D01*
X323047Y518653D01*
X323010Y518686D01*
X322983Y518722D01*
X322419Y519273D01*
X321970Y519917D01*
X321936Y519954D01*
X321913Y519992D01*
X321400Y520596D01*
X321014Y521281D01*
X320983Y521321D01*
X320963Y521361D01*
X320507Y522015D01*
X320186Y522737D01*
X320159Y522780D01*
X320143Y522822D01*
X319748Y523523D01*
X319497Y524277D01*
X319474Y524323D01*
X319462Y524367D01*
X319132Y525109D01*
X318955Y525891D01*
X318936Y525940D01*
X318928Y525986D01*
X318669Y526765D01*
X318568Y527571D01*
X318554Y527622D01*
X318551Y527668D01*
X318372Y528457D01*
X318372Y528461D01*
X318372Y528463D01*
X318372Y528465D01*
X318367Y528483D01*
X318347Y529304D01*
X318338Y529356D01*
X318339Y529403D01*
X318240Y530196D01*
X318244Y530221D01*
X318243Y530224D01*
X318244Y530227D01*
X318237Y530266D01*
X318298Y531075D01*
X318294Y531128D01*
X318300Y531174D01*
X318280Y531977D01*
X318284Y531992D01*
X318284Y531995D01*
X318284Y531997D01*
X318283Y532025D01*
X318424Y532830D01*
X318426Y532884D01*
X318437Y532929D01*
X318498Y533745D01*
X318720Y534540D01*
X318727Y534593D01*
X318742Y534636D01*
X318881Y535432D01*
X319176Y536193D01*
X319188Y536243D01*
X319207Y536285D01*
X319421Y537053D01*
X319785Y537775D01*
X319801Y537824D01*
X319824Y537863D01*
X320110Y538602D01*
X320536Y539279D01*
X320557Y539326D01*
X320583Y539362D01*
X320937Y540066D01*
X321422Y540696D01*
X321447Y540740D01*
X321476Y540773D01*
X321895Y541439D01*
X322433Y542016D01*
X322462Y542058D01*
X322494Y542088D01*
X322973Y542710D01*
X323562Y543234D01*
X323594Y543272D01*
X323629Y543299D01*
X324166Y543876D01*
X324799Y544340D01*
X324835Y544375D01*
X324873Y544399D01*
X325464Y544925D01*
X326139Y545327D01*
X326179Y545359D01*
X326218Y545380D01*
X326860Y545850D01*
X327573Y546188D01*
X327615Y546216D01*
X327657Y546233D01*
X328346Y546643D01*
X329092Y546912D01*
X329138Y546936D01*
X329181Y546949D01*
X329914Y547296D01*
X330689Y547492D01*
X330738Y547512D01*
X330783Y547521D01*
X331553Y547798D01*
X332354Y547918D01*
X332404Y547933D01*
X332450Y547938D01*
X333241Y548138D01*
X333254Y548141D01*
X334074Y548182D01*
X334127Y548192D01*
X334173Y548192D01*
X334965Y548311D01*
X334986Y548309D01*
X334989Y548309D01*
X334991Y548309D01*
X335026Y548315D01*
X335839Y548275D01*
X335892Y548279D01*
X335938Y548275D01*
X336738Y548314D01*
X336758Y548310D01*
X336761Y548310D01*
X336764Y548310D01*
X336799Y548313D01*
X337603Y548192D01*
X337656Y548191D01*
X337702Y548182D01*
X338510Y548142D01*
X338512Y548142D01*
X338514Y548141D01*
X338523Y548141D01*
X339326Y547938D01*
X339379Y547932D01*
X339423Y547918D01*
X340224Y547798D01*
X340994Y547521D01*
X341045Y547510D01*
X341087Y547492D01*
X341862Y547296D01*
X342595Y546949D01*
X342644Y546934D01*
X342684Y546912D01*
X343431Y546643D01*
X344119Y546233D01*
X344167Y546213D01*
X344204Y546188D01*
X344916Y545850D01*
X345558Y545380D01*
X345603Y545356D01*
X345637Y545327D01*
X346312Y544925D01*
X346904Y544399D01*
X346946Y544371D01*
X346977Y544340D01*
X347611Y543875D01*
X348148Y543299D01*
X348187Y543268D01*
X348215Y543234D01*
X348803Y542711D01*
X349282Y542088D01*
X349318Y542053D01*
X349343Y542016D01*
X349882Y541438D01*
X350300Y540774D01*
X350333Y540735D01*
X350354Y540696D01*
X350839Y540066D01*
X351193Y539362D01*
X351222Y539320D01*
X351240Y539279D01*
X351666Y538601D01*
X351952Y537863D01*
X351978Y537818D01*
X351992Y537775D01*
X352355Y537054D01*
X352569Y536285D01*
X352590Y536237D01*
X352600Y536193D01*
X352895Y535431D01*
X353035Y534636D01*
X353051Y534586D01*
X353057Y534540D01*
X353279Y533744D01*
X353340Y532929D01*
X353351Y532877D01*
X353352Y532830D01*
X353491Y532039D01*
X353490Y532023D01*
X353490Y532021D01*
X353490Y532019D01*
X353496Y531991D01*
X353476Y531174D01*
X353482Y531121D01*
X353478Y531075D01*
X353538Y530277D01*
X353534Y530253D01*
X353534Y530250D01*
X353533Y530248D01*
X353538Y530208D01*
X353437Y529403D01*
X353438Y529350D01*
X353429Y529304D01*
X353409Y528498D01*
X353408Y528493D01*
X353408Y528490D01*
X353407Y528487D01*
X353407Y528471D01*
X353225Y527668D01*
X353221Y527615D01*
X353208Y527571D01*
X353107Y526766D01*
X352848Y525986D01*
X352839Y525934D01*
X352822Y525892D01*
X352644Y525108D01*
X352314Y524367D01*
X352300Y524317D01*
X352279Y524277D01*
X352029Y523523D01*
X351633Y522822D01*
X351614Y522775D01*
X351590Y522737D01*
X351269Y522015D01*
X350813Y521361D01*
X350790Y521316D01*
X350763Y521281D01*
X350376Y520596D01*
X349864Y519991D01*
X349837Y519949D01*
X349806Y519917D01*
X349357Y519272D01*
X348793Y518722D01*
X348762Y518682D01*
X348729Y518653D01*
X348221Y518054D01*
X347609Y517559D01*
X347575Y517522D01*
X347539Y517497D01*
X346974Y516945D01*
X346319Y516511D01*
X346282Y516478D01*
X346243Y516455D01*
X345626Y515957D01*
X344932Y515586D01*
X344891Y515556D01*
X344850Y515538D01*
X344184Y515096D01*
X343454Y514793D01*
X343410Y514767D01*
X343367Y514752D01*
X342656Y514372D01*
X341895Y514139D01*
X341848Y514117D01*
X341803Y514106D01*
X341052Y513794D01*
X340263Y513635D01*
X340213Y513618D01*
X340168Y513611D01*
X339380Y513370D01*
X338569Y513289D01*
X338517Y513276D01*
X338471Y513274D01*
X337680Y513115D01*
X337671Y513116D01*
X337668Y513115D01*
X337666Y513115D01*
X337643Y513110D01*
X336824Y513110D01*
X336772Y513103D01*
X336725Y513105D01*
X335930Y513026D01*
X335904Y513030D01*
X335901Y513029D01*
X335898Y513030D01*
X335858Y513025D01*
X335051Y513105D01*
G37*
%LPD*%
%LPC*%
G36*
X306591Y256777D02*
X306591Y256777D01*
X305683Y257153D01*
X305643Y257163D01*
X305605Y257181D01*
X305520Y257195D01*
X305410Y257223D01*
X305351Y257221D01*
X305301Y257229D01*
X299564Y257229D01*
X299523Y257223D01*
X299481Y257225D01*
X299398Y257205D01*
X299285Y257189D01*
X299232Y257165D01*
X299182Y257153D01*
X298274Y256777D01*
X296086Y256777D01*
X295179Y257153D01*
X295138Y257163D01*
X295101Y257181D01*
X295079Y257185D01*
X295071Y257191D01*
X295015Y257212D01*
X294972Y257238D01*
X294064Y257614D01*
X292517Y259162D01*
X292141Y260069D01*
X292120Y260105D01*
X292106Y260145D01*
X292055Y260214D01*
X291997Y260312D01*
X291954Y260352D01*
X291924Y260393D01*
X291844Y260474D01*
X291819Y260493D01*
X291798Y260517D01*
X291706Y260577D01*
X291619Y260643D01*
X291589Y260654D01*
X291562Y260672D01*
X291457Y260704D01*
X291355Y260742D01*
X291323Y260745D01*
X291292Y260754D01*
X291183Y260756D01*
X291091Y260763D01*
X291173Y260814D01*
X291269Y260865D01*
X291292Y260887D01*
X291320Y260904D01*
X291393Y260985D01*
X291471Y261062D01*
X291487Y261090D01*
X291509Y261114D01*
X291557Y261212D01*
X291610Y261307D01*
X291618Y261338D01*
X291632Y261367D01*
X291646Y261457D01*
X291675Y261582D01*
X291673Y261630D01*
X291679Y261672D01*
X291679Y263372D01*
X292055Y264279D01*
X292066Y264320D01*
X292084Y264357D01*
X292087Y264379D01*
X292094Y264387D01*
X292114Y264442D01*
X292141Y264486D01*
X292517Y265394D01*
X294064Y266941D01*
X294972Y267317D01*
X295008Y267338D01*
X295047Y267352D01*
X295065Y267365D01*
X295075Y267366D01*
X295129Y267390D01*
X295178Y267402D01*
X296086Y267778D01*
X298274Y267778D01*
X299182Y267402D01*
X299222Y267392D01*
X299260Y267374D01*
X299345Y267361D01*
X299455Y267332D01*
X299514Y267334D01*
X299564Y267326D01*
X299685Y267326D01*
X305180Y267326D01*
X305275Y267340D01*
X305371Y267345D01*
X305414Y267360D01*
X305459Y267366D01*
X305546Y267406D01*
X305637Y267437D01*
X305672Y267462D01*
X305716Y267482D01*
X305813Y267566D01*
X305886Y267619D01*
X305932Y267665D01*
X306119Y267665D01*
X306160Y267671D01*
X306202Y267669D01*
X306285Y267689D01*
X306398Y267705D01*
X306452Y267729D01*
X306501Y267741D01*
X306591Y267778D01*
X308779Y267778D01*
X308869Y267741D01*
X308909Y267731D01*
X308946Y267713D01*
X309032Y267699D01*
X309142Y267671D01*
X309200Y267673D01*
X309251Y267665D01*
X335120Y267665D01*
X335162Y267671D01*
X335203Y267669D01*
X335287Y267689D01*
X335400Y267705D01*
X335453Y267729D01*
X335503Y267741D01*
X336410Y268117D01*
X338599Y268117D01*
X339506Y267741D01*
X339547Y267731D01*
X339584Y267713D01*
X339669Y267699D01*
X339779Y267671D01*
X339838Y267673D01*
X339889Y267665D01*
X345625Y267665D01*
X345666Y267671D01*
X345708Y267669D01*
X345792Y267689D01*
X345904Y267705D01*
X345958Y267729D01*
X346007Y267741D01*
X346915Y268117D01*
X349103Y268117D01*
X350011Y267741D01*
X350051Y267731D01*
X350089Y267713D01*
X350110Y267709D01*
X350119Y267703D01*
X350174Y267682D01*
X350218Y267656D01*
X351125Y267280D01*
X352672Y265732D01*
X353048Y264825D01*
X353070Y264789D01*
X353083Y264750D01*
X353096Y264732D01*
X353098Y264721D01*
X353122Y264668D01*
X353134Y264618D01*
X353510Y263711D01*
X353510Y261522D01*
X353134Y260615D01*
X353124Y260574D01*
X353106Y260537D01*
X353102Y260515D01*
X353096Y260507D01*
X353084Y260476D01*
X353066Y260448D01*
X353059Y260426D01*
X353048Y260408D01*
X352672Y259501D01*
X351125Y257953D01*
X350218Y257577D01*
X350182Y257556D01*
X350142Y257542D01*
X350125Y257529D01*
X350114Y257528D01*
X350061Y257504D01*
X350011Y257492D01*
X349103Y257116D01*
X346915Y257116D01*
X346007Y257492D01*
X345967Y257502D01*
X345930Y257520D01*
X345844Y257534D01*
X345734Y257562D01*
X345676Y257560D01*
X345625Y257568D01*
X339889Y257568D01*
X339847Y257562D01*
X339806Y257564D01*
X339722Y257544D01*
X339609Y257528D01*
X339556Y257504D01*
X339506Y257492D01*
X338599Y257116D01*
X336410Y257116D01*
X335503Y257492D01*
X335462Y257502D01*
X335425Y257520D01*
X335340Y257534D01*
X335230Y257562D01*
X335171Y257560D01*
X335120Y257568D01*
X310887Y257568D01*
X310846Y257562D01*
X310804Y257564D01*
X310720Y257544D01*
X310608Y257528D01*
X310554Y257504D01*
X310505Y257492D01*
X309893Y257238D01*
X309857Y257217D01*
X309818Y257204D01*
X309800Y257191D01*
X309790Y257189D01*
X309736Y257165D01*
X309687Y257153D01*
X308779Y256777D01*
X306591Y256777D01*
G37*
%LPD*%
%LPC*%
G36*
X314384Y344542D02*
X314384Y344542D01*
X312363Y345379D01*
X310815Y346926D01*
X309978Y348948D01*
X309978Y351137D01*
X310815Y353158D01*
X311915Y354258D01*
X311931Y354279D01*
X311948Y354293D01*
X311980Y354343D01*
X312037Y354406D01*
X312057Y354447D01*
X312085Y354484D01*
X312101Y354528D01*
X312102Y354529D01*
X312103Y354534D01*
X312118Y354574D01*
X312160Y354660D01*
X312167Y354702D01*
X312184Y354748D01*
X312194Y354875D01*
X312208Y354965D01*
X312208Y373362D01*
X312199Y373426D01*
X312200Y373490D01*
X312179Y373565D01*
X312168Y373641D01*
X312142Y373700D01*
X312125Y373762D01*
X312084Y373828D01*
X312052Y373898D01*
X312010Y373947D01*
X311976Y374002D01*
X311919Y374054D01*
X311868Y374113D01*
X311815Y374148D01*
X311767Y374191D01*
X311697Y374225D01*
X311633Y374267D01*
X311571Y374286D01*
X311513Y374314D01*
X311444Y374325D01*
X311363Y374349D01*
X311278Y374350D01*
X311209Y374361D01*
X310657Y374361D01*
X308635Y375199D01*
X307088Y376746D01*
X306250Y378768D01*
X306250Y380956D01*
X307088Y382978D01*
X308635Y384525D01*
X310657Y385363D01*
X312845Y385363D01*
X314867Y384525D01*
X316414Y382978D01*
X317252Y380956D01*
X317252Y379401D01*
X317265Y379306D01*
X317270Y379210D01*
X317285Y379167D01*
X317292Y379122D01*
X317331Y379034D01*
X317363Y378943D01*
X317388Y378909D01*
X317408Y378865D01*
X317491Y378767D01*
X317545Y378694D01*
X318749Y377489D01*
X318749Y354965D01*
X318763Y354870D01*
X318768Y354774D01*
X318783Y354731D01*
X318789Y354686D01*
X318829Y354598D01*
X318860Y354507D01*
X318885Y354473D01*
X318905Y354429D01*
X318963Y354361D01*
X318992Y354314D01*
X319019Y354289D01*
X319042Y354258D01*
X320142Y353158D01*
X320979Y351137D01*
X320979Y348948D01*
X320142Y346926D01*
X318595Y345379D01*
X316573Y344542D01*
X314384Y344542D01*
G37*
%LPD*%
%LPC*%
G36*
X279309Y277971D02*
X279309Y277971D01*
X278137Y279143D01*
X278137Y286301D01*
X279574Y287738D01*
X279613Y287789D01*
X279659Y287834D01*
X279697Y287902D01*
X279744Y287964D01*
X279766Y288024D01*
X279798Y288080D01*
X279816Y288155D01*
X279843Y288227D01*
X279848Y288291D01*
X279863Y288354D01*
X279859Y288432D01*
X279865Y288509D01*
X279852Y288571D01*
X279849Y288636D01*
X279823Y288709D01*
X279807Y288785D01*
X279777Y288842D01*
X279756Y288902D01*
X279715Y288959D01*
X279675Y289034D01*
X279616Y289095D01*
X279574Y289151D01*
X277000Y291726D01*
X276923Y291783D01*
X276852Y291848D01*
X276811Y291868D01*
X276774Y291895D01*
X276684Y291929D01*
X276598Y291971D01*
X276556Y291977D01*
X276510Y291994D01*
X276383Y292004D01*
X276293Y292018D01*
X274738Y292018D01*
X272716Y292856D01*
X271169Y294403D01*
X270331Y296425D01*
X270331Y298613D01*
X271169Y300635D01*
X272716Y302182D01*
X274738Y303020D01*
X276926Y303020D01*
X278948Y302182D01*
X280495Y300635D01*
X281333Y298613D01*
X281333Y297058D01*
X281346Y296963D01*
X281351Y296867D01*
X281366Y296824D01*
X281373Y296779D01*
X281412Y296691D01*
X281444Y296600D01*
X281469Y296566D01*
X281489Y296522D01*
X281572Y296424D01*
X281625Y296351D01*
X287408Y290568D01*
X287408Y288472D01*
X287418Y288408D01*
X287417Y288344D01*
X287437Y288269D01*
X287448Y288193D01*
X287475Y288134D01*
X287492Y288072D01*
X287533Y288006D01*
X287565Y287936D01*
X287606Y287887D01*
X287640Y287832D01*
X287698Y287780D01*
X287748Y287721D01*
X287802Y287686D01*
X287849Y287643D01*
X287919Y287609D01*
X287984Y287567D01*
X288045Y287548D01*
X288103Y287520D01*
X288173Y287509D01*
X288254Y287485D01*
X288338Y287484D01*
X288408Y287473D01*
X288967Y287473D01*
X290138Y286301D01*
X290138Y279143D01*
X288967Y277971D01*
X279309Y277971D01*
G37*
%LPD*%
%LPC*%
G36*
X259309Y277971D02*
X259309Y277971D01*
X258137Y279143D01*
X258137Y286301D01*
X259309Y287473D01*
X268967Y287473D01*
X270138Y286301D01*
X270138Y279143D01*
X268967Y277971D01*
X259309Y277971D01*
G37*
%LPD*%
%LPC*%
G36*
X276192Y394063D02*
X276192Y394063D01*
X276192Y403178D01*
X276837Y403076D01*
X278527Y402527D01*
X280111Y401720D01*
X281549Y400676D01*
X282805Y399419D01*
X283850Y397981D01*
X284657Y396398D01*
X285206Y394707D01*
X285308Y394063D01*
X276192Y394063D01*
G37*
%LPD*%
%LPC*%
G36*
X263078Y394063D02*
X263078Y394063D01*
X263180Y394707D01*
X263730Y396398D01*
X264537Y397981D01*
X265581Y399419D01*
X266838Y400676D01*
X268276Y401720D01*
X269859Y402527D01*
X271549Y403076D01*
X272194Y403178D01*
X272194Y394063D01*
X263078Y394063D01*
G37*
%LPD*%
%LPC*%
G36*
X276192Y390064D02*
X276192Y390064D01*
X285308Y390064D01*
X285206Y389420D01*
X284657Y387729D01*
X283850Y386146D01*
X282805Y384708D01*
X281549Y383452D01*
X280111Y382407D01*
X278527Y381600D01*
X276837Y381051D01*
X276192Y380949D01*
X276192Y390064D01*
G37*
%LPD*%
%LPC*%
G36*
X271549Y381051D02*
X271549Y381051D01*
X269859Y381600D01*
X268276Y382407D01*
X266838Y383452D01*
X265581Y384708D01*
X264537Y386146D01*
X263730Y387729D01*
X263181Y389420D01*
X263078Y390064D01*
X272194Y390064D01*
X272194Y380949D01*
X271549Y381051D01*
G37*
%LPD*%
G36*
X110970Y262219D02*
X110970Y262219D01*
X111034Y262218D01*
X111035Y262218D01*
X111109Y262239D01*
X111186Y262250D01*
X111245Y262276D01*
X111307Y262293D01*
X111373Y262334D01*
X111443Y262366D01*
X111492Y262408D01*
X111547Y262441D01*
X111598Y262499D01*
X111657Y262549D01*
X111693Y262603D01*
X111736Y262651D01*
X111769Y262720D01*
X111812Y262785D01*
X111831Y262847D01*
X111859Y262905D01*
X111869Y262974D01*
X111894Y263055D01*
X111895Y263140D01*
X111906Y263209D01*
X111906Y268209D01*
X111906Y273209D01*
X111897Y273272D01*
X111898Y273336D01*
X111877Y273411D01*
X111866Y273488D01*
X111840Y273546D01*
X111823Y273608D01*
X111782Y273674D01*
X111750Y273745D01*
X111708Y273793D01*
X111675Y273848D01*
X111617Y273900D01*
X111567Y273959D01*
X111513Y273994D01*
X111465Y274037D01*
X111396Y274071D01*
X111331Y274113D01*
X111269Y274132D01*
X111211Y274160D01*
X111142Y274171D01*
X111061Y274196D01*
X110976Y274197D01*
X110907Y274208D01*
X110843Y274199D01*
X110779Y274200D01*
X110704Y274179D01*
X110627Y274168D01*
X110569Y274142D01*
X110507Y274124D01*
X110441Y274084D01*
X110370Y274052D01*
X110322Y274010D01*
X110267Y273976D01*
X110215Y273919D01*
X110156Y273868D01*
X110121Y273815D01*
X110078Y273767D01*
X110044Y273697D01*
X110002Y273632D01*
X109983Y273571D01*
X109955Y273513D01*
X109944Y273444D01*
X109919Y273363D01*
X109918Y273278D01*
X109907Y273209D01*
X109907Y268209D01*
X109907Y263209D01*
X109916Y263146D01*
X109916Y263081D01*
X109936Y263007D01*
X109947Y262930D01*
X109974Y262872D01*
X109991Y262809D01*
X110031Y262743D01*
X110063Y262673D01*
X110105Y262624D01*
X110139Y262570D01*
X110196Y262518D01*
X110247Y262459D01*
X110301Y262424D01*
X110348Y262380D01*
X110418Y262347D01*
X110483Y262304D01*
X110544Y262285D01*
X110602Y262257D01*
X110671Y262247D01*
X110752Y262222D01*
X110837Y262221D01*
X110907Y262210D01*
X110970Y262219D01*
G37*
G36*
X89970Y262219D02*
X89970Y262219D01*
X90034Y262218D01*
X90035Y262218D01*
X90109Y262239D01*
X90186Y262250D01*
X90245Y262276D01*
X90307Y262293D01*
X90373Y262334D01*
X90443Y262366D01*
X90492Y262408D01*
X90547Y262441D01*
X90598Y262499D01*
X90657Y262549D01*
X90693Y262603D01*
X90736Y262651D01*
X90769Y262720D01*
X90812Y262785D01*
X90831Y262847D01*
X90859Y262905D01*
X90869Y262974D01*
X90894Y263055D01*
X90895Y263140D01*
X90906Y263209D01*
X90906Y268209D01*
X90906Y273209D01*
X90897Y273272D01*
X90898Y273336D01*
X90877Y273411D01*
X90866Y273488D01*
X90840Y273546D01*
X90823Y273608D01*
X90782Y273674D01*
X90750Y273745D01*
X90708Y273793D01*
X90675Y273848D01*
X90617Y273900D01*
X90567Y273959D01*
X90513Y273994D01*
X90465Y274037D01*
X90396Y274071D01*
X90331Y274113D01*
X90269Y274132D01*
X90211Y274160D01*
X90142Y274171D01*
X90061Y274196D01*
X89976Y274197D01*
X89907Y274208D01*
X89843Y274199D01*
X89779Y274200D01*
X89704Y274179D01*
X89627Y274168D01*
X89569Y274142D01*
X89507Y274124D01*
X89441Y274084D01*
X89370Y274052D01*
X89322Y274010D01*
X89267Y273976D01*
X89215Y273919D01*
X89156Y273868D01*
X89121Y273815D01*
X89078Y273767D01*
X89044Y273697D01*
X89002Y273632D01*
X88983Y273571D01*
X88955Y273513D01*
X88944Y273444D01*
X88919Y273363D01*
X88918Y273278D01*
X88907Y273209D01*
X88907Y268209D01*
X88907Y263209D01*
X88916Y263146D01*
X88916Y263081D01*
X88936Y263007D01*
X88947Y262930D01*
X88974Y262872D01*
X88991Y262809D01*
X89031Y262743D01*
X89063Y262673D01*
X89105Y262624D01*
X89139Y262570D01*
X89196Y262518D01*
X89247Y262459D01*
X89301Y262424D01*
X89348Y262380D01*
X89418Y262347D01*
X89483Y262304D01*
X89544Y262285D01*
X89602Y262257D01*
X89671Y262247D01*
X89752Y262222D01*
X89837Y262221D01*
X89907Y262210D01*
X89970Y262219D01*
G37*
%LPC*%
G36*
X289398Y115040D02*
X289398Y115040D01*
X289398Y118041D01*
X295939Y118041D01*
X295939Y117606D01*
X295752Y116908D01*
X295740Y116886D01*
X295728Y116831D01*
X295707Y116779D01*
X295699Y116693D01*
X295681Y116610D01*
X295685Y116554D01*
X295679Y116498D01*
X295695Y116414D01*
X295701Y116329D01*
X295720Y116280D01*
X295731Y116221D01*
X295749Y116186D01*
X295939Y115475D01*
X295939Y115040D01*
X289398Y115040D01*
G37*
%LPD*%
%LPC*%
G36*
X285512Y271596D02*
X285512Y271596D01*
X285512Y275513D01*
X288472Y275513D01*
X289118Y275340D01*
X289698Y275005D01*
X290171Y274532D01*
X290505Y273953D01*
X290678Y273306D01*
X290678Y271596D01*
X285512Y271596D01*
G37*
%LPD*%
%LPC*%
G36*
X277597Y271596D02*
X277597Y271596D01*
X277597Y273306D01*
X277770Y273953D01*
X278105Y274532D01*
X278578Y275005D01*
X279157Y275340D01*
X279803Y275513D01*
X282763Y275513D01*
X282763Y271596D01*
X277597Y271596D01*
G37*
%LPD*%
%LPC*%
G36*
X285512Y264931D02*
X285512Y264931D01*
X285512Y268848D01*
X290678Y268848D01*
X290678Y267137D01*
X290505Y266491D01*
X290171Y265912D01*
X289698Y265439D01*
X289118Y265104D01*
X288472Y264931D01*
X285512Y264931D01*
G37*
%LPD*%
%LPC*%
G36*
X289398Y120040D02*
X289398Y120040D01*
X289398Y122681D01*
X293733Y122681D01*
X294379Y122508D01*
X294959Y122174D01*
X295432Y121701D01*
X295766Y121121D01*
X295939Y120475D01*
X295939Y120040D01*
X289398Y120040D01*
G37*
%LPD*%
%LPC*%
G36*
X274192Y392063D02*
X274192Y392063D01*
X274192Y392064D01*
X274194Y392064D01*
X274194Y392063D01*
X274192Y392063D01*
G37*
%LPD*%
D10*
X258399Y114040D03*
X258399Y119040D03*
X258399Y109040D03*
X288399Y114040D03*
X288399Y119040D03*
X288399Y109040D03*
D11*
X273399Y114040D03*
D12*
X274193Y392064D03*
D13*
X112393Y426186D03*
X112393Y431186D03*
X112393Y436186D03*
X112393Y441186D03*
X89893Y441186D03*
X89893Y436186D03*
X89893Y431186D03*
X89893Y426186D03*
D14*
X100893Y433686D03*
D15*
X97907Y281459D03*
X102907Y281459D03*
X92907Y281459D03*
X107907Y281459D03*
D16*
X89907Y273209D03*
X89907Y268209D03*
X89907Y263209D03*
X89907Y258209D03*
X110907Y273209D03*
X110907Y268209D03*
X110907Y263209D03*
X110907Y258209D03*
D15*
X102907Y249959D03*
X97907Y249959D03*
X107907Y249959D03*
X92907Y249959D03*
D17*
X264138Y270222D03*
X284138Y270222D03*
X264138Y282722D03*
X284138Y282722D03*
X264138Y257722D03*
X264138Y245222D03*
X284138Y257222D03*
X284138Y245222D03*
D18*
X99804Y431186D02*
X89893Y431186D01*
X100893Y432275D02*
X100893Y433686D01*
X100893Y432275D02*
X99804Y431186D01*
X100893Y433686D02*
X103393Y431186D01*
X89893Y431186D02*
X89893Y426186D01*
X100893Y447539D02*
X101135Y447781D01*
X100893Y447539D02*
X100893Y433686D01*
D19*
X101135Y447781D03*
D18*
X101194Y265991D02*
X100149Y265991D01*
D19*
X100149Y265991D03*
X275422Y96740D03*
D20*
X112393Y431186D02*
X103393Y431186D01*
X100893Y433686D01*
D18*
X102931Y263209D02*
X110907Y263209D01*
X102931Y263209D02*
X100149Y265991D01*
X102367Y268209D02*
X110907Y268209D01*
X102367Y268209D02*
X100149Y265991D01*
X110907Y268209D02*
X110907Y273209D01*
X89907Y273209D02*
X89907Y268209D01*
X89907Y263229D01*
X97387Y263229D01*
X100149Y265991D01*
X97907Y263749D02*
X97907Y249959D01*
X97907Y263749D02*
X100149Y265991D01*
X97887Y281459D02*
X92907Y281459D01*
X97887Y268254D02*
X100149Y265991D01*
X97887Y268254D02*
X97887Y281459D01*
X97907Y249959D02*
X97907Y242402D01*
X94050Y238545D01*
X89050Y238545D01*
D19*
X89050Y238545D03*
D18*
X89907Y263209D02*
X89907Y268209D01*
X110907Y273209D02*
X119386Y273209D01*
X120050Y272545D01*
D19*
X120050Y272545D03*
X287353Y84715D03*
X297180Y84715D03*
X307346Y84715D03*
X339199Y84715D03*
X348687Y84715D03*
X358175Y84715D03*
X241268Y288370D03*
X248384Y295147D03*
X255500Y302263D03*
X348150Y211600D03*
D18*
X92907Y249959D02*
X47636Y249959D01*
X40050Y257545D01*
X40050Y313545D01*
X52050Y325545D01*
X188662Y325545D01*
X188870Y325753D02*
X203911Y310712D01*
D19*
X191000Y478000D03*
D18*
X191000Y469000D01*
X185000Y463000D01*
X203911Y236863D02*
X203911Y147043D01*
X203911Y236863D02*
X203911Y310712D01*
X185000Y360574D02*
X185000Y463000D01*
X118501Y426186D02*
X112393Y426186D01*
X138933Y456444D02*
X168075Y456444D01*
X170108Y458478D01*
X170108Y458478D01*
D19*
X170108Y458478D03*
D18*
X120973Y428658D02*
X118501Y426186D01*
X120973Y428658D02*
X120973Y438485D01*
X138933Y456444D01*
X188662Y356912D02*
X188662Y325545D01*
X188662Y356912D02*
X185000Y360574D01*
X188870Y325753D02*
X188662Y325545D01*
X255689Y257722D02*
X264138Y257722D01*
X255689Y257722D02*
X249062Y251095D01*
X249062Y238896D01*
X261261Y226697D01*
X333053Y226697D02*
X348150Y211600D01*
X333053Y226697D02*
X261261Y226697D01*
X214077Y226697D01*
X203911Y236863D01*
X253077Y124362D02*
X258399Y119040D01*
X253077Y124362D02*
X226592Y124362D01*
X203911Y147043D01*
D19*
X348150Y237000D03*
D18*
X89907Y258209D02*
X50386Y258209D01*
X47050Y261545D01*
X47050Y310545D01*
X168334Y315599D02*
X168673Y315599D01*
X168334Y315599D02*
X164204Y319729D01*
X56234Y319729D01*
X47050Y310545D01*
D19*
X179000Y478000D03*
D18*
X179000Y344249D01*
X178768Y344017D01*
D19*
X178768Y344017D03*
X168673Y315599D03*
D18*
X116897Y441186D02*
X112393Y441186D01*
X162188Y461188D02*
X179000Y478000D01*
X136899Y461188D02*
X116897Y441186D01*
X136899Y461188D02*
X162188Y461188D01*
X264138Y245222D02*
X264138Y242458D01*
X270071Y236524D01*
X347674Y236524D01*
X348150Y237000D01*
D19*
X270071Y236524D03*
X240591Y234491D03*
D18*
X215515Y234491D01*
D19*
X195432Y330727D03*
D18*
X208451Y243785D02*
X208451Y241555D01*
X208451Y243785D02*
X208451Y312593D01*
X195432Y325611D02*
X195432Y330727D01*
X195432Y325611D02*
X208451Y312593D01*
X208451Y241555D02*
X215515Y234491D01*
X197555Y143677D02*
X232192Y109040D01*
X258399Y109040D01*
X197555Y143677D02*
X197555Y235093D01*
X197141Y235508D01*
D19*
X197141Y235508D03*
X210681Y241555D03*
D18*
X208451Y243785D01*
D19*
X147815Y253575D03*
D21*
X190300Y253292D02*
X194431Y257423D01*
X148097Y253292D02*
X147815Y253575D01*
X148097Y253292D02*
X190300Y253292D01*
D19*
X194431Y257423D03*
X111836Y238455D03*
D18*
X102907Y242584D02*
X102907Y249959D01*
X102907Y242584D02*
X107036Y238455D01*
X111836Y238455D01*
D19*
X297180Y262278D03*
X307685Y262278D03*
X337505Y262617D03*
X348009Y262617D03*
D21*
X337505Y262617D02*
X308024Y262617D01*
X307685Y262278D01*
X297180Y262278D01*
X297180Y262278D01*
X337505Y262617D02*
X348009Y262617D01*
D18*
X89893Y436186D02*
X89893Y441186D01*
D19*
X81099Y436493D03*
D18*
X81382Y436211D02*
X89855Y436211D01*
X81382Y436211D02*
X81099Y436493D01*
X89855Y436211D02*
X89893Y436186D01*
X248845Y114040D02*
X258399Y114040D01*
X248845Y114040D02*
X246191Y116695D01*
D19*
X246191Y116695D03*
X269100Y90334D03*
D18*
X288571Y100314D02*
X288571Y108868D01*
X288399Y109040D01*
X272253Y90334D02*
X269100Y90334D01*
X272253Y90334D02*
X272618Y89970D01*
X278227Y89970D01*
X288571Y100314D01*
D19*
X311751Y379862D03*
D18*
X315479Y376135D01*
X315479Y350042D01*
D19*
X315479Y350042D03*
D22*
X215182Y160620D03*
X256517Y160620D03*
D23*
X215182Y160620D01*
D19*
X120050Y281545D03*
D18*
X107993Y281545D02*
X107907Y281459D01*
X107993Y281545D02*
X120050Y281545D01*
D19*
X103050Y291545D03*
D18*
X102907Y291402D02*
X102907Y281459D01*
X102907Y291402D02*
X103050Y291545D01*
X130890Y246225D02*
X146839Y246225D01*
X130890Y246225D02*
X118907Y258209D01*
X110907Y258209D01*
D19*
X266005Y211110D03*
D18*
X214837Y211110D01*
X214160Y210432D01*
D19*
X214160Y210432D03*
X188745Y217887D03*
D18*
X175177Y217887D01*
X146839Y246225D01*
X144720Y240765D02*
X128100Y240765D01*
X118907Y249959D01*
X107907Y249959D01*
D19*
X265327Y186373D03*
D18*
X214498Y186373D01*
X214160Y186034D01*
D19*
X214160Y186034D03*
X188745Y206366D03*
D18*
X179119Y206366D01*
X144720Y240765D01*
D19*
X274138Y262955D03*
D18*
X279871Y257222D01*
X284138Y257222D01*
D19*
X275832Y297519D03*
D18*
X284138Y289213D01*
X284138Y282722D01*
D19*
X295147Y249062D03*
D18*
X291307Y245222D01*
X284138Y245222D01*
M02*
