G04 EAGLE Gerber RS-274X export*
G75*
%MOMM*%
%FSLAX34Y34*%
%LPD*%
%INTop Solder Mask*%
%IPPOS*%
%AMOC8*
5,1,8,0,0,1.08239X$1,22.5*%
G01*
%ADD10R,1.101600X0.321600*%
%ADD11R,1.601600X1.301600*%
%ADD12R,0.600000X0.300000*%
%ADD13R,1.100000X1.800000*%
%ADD14R,0.451600X0.701600*%
%ADD15R,0.701600X0.451600*%
%ADD16R,0.901600X0.651600*%


D10*
X258399Y114040D03*
X258399Y119040D03*
X258399Y109040D03*
X288399Y114040D03*
X288399Y119040D03*
X288399Y109040D03*
D11*
X273399Y114040D03*
D12*
X112393Y426186D03*
X112393Y431186D03*
X112393Y436186D03*
X112393Y441186D03*
X89893Y441186D03*
X89893Y436186D03*
X89893Y431186D03*
X89893Y426186D03*
D13*
X100893Y433686D03*
D14*
X97907Y281459D03*
X102907Y281459D03*
X92907Y281459D03*
X107907Y281459D03*
D15*
X89907Y273209D03*
X89907Y268209D03*
X89907Y263209D03*
X89907Y258209D03*
X110907Y273209D03*
X110907Y268209D03*
X110907Y263209D03*
X110907Y258209D03*
D14*
X102907Y249959D03*
X97907Y249959D03*
X107907Y249959D03*
X92907Y249959D03*
D16*
X264138Y270222D03*
X284138Y270222D03*
X264138Y282722D03*
X284138Y282722D03*
X264138Y257722D03*
X264138Y245222D03*
X284138Y257222D03*
X284138Y245222D03*
M02*
