G04 EAGLE Gerber RS-274X export*
G75*
%MOMM*%
%FSLAX34Y34*%
%LPD*%
%INMechanical*%
%IPPOS*%
%AMOC8*
5,1,8,0,0,1.08239X$1,22.5*%
G01*
%ADD10C,0.001000*%
%ADD11C,0.254000*%


D10*
X335069Y130D02*
X32669Y130D01*
X-20Y32819D02*
X-20Y531639D01*
X32669Y564328D02*
X335069Y564328D01*
X367758Y531639D02*
X367758Y32819D01*
X114217Y394456D02*
X113879Y394467D01*
X113545Y394503D01*
X113215Y394562D01*
X112891Y394643D01*
X112574Y394746D01*
X112265Y394870D01*
X111965Y395016D01*
X111676Y395181D01*
X111398Y395367D01*
X111132Y395572D01*
X110881Y395796D01*
X110645Y396038D01*
X110425Y396298D01*
X110223Y396575D01*
X110039Y396868D01*
X109875Y397178D01*
X109732Y397503D01*
X109588Y397917D01*
X109478Y398356D01*
X109411Y398797D01*
X109385Y399237D01*
X109400Y399674D01*
X109453Y400105D01*
X109545Y400527D01*
X109674Y400938D01*
X109839Y401336D01*
X110039Y401718D01*
X110272Y402081D01*
X110538Y402423D01*
X110835Y402742D01*
X111162Y403035D01*
X111518Y403299D01*
X111903Y403531D01*
X112314Y403731D01*
X113588Y404241D01*
X115484Y405110D01*
X117306Y406089D01*
X119052Y407174D01*
X120718Y408360D01*
X122299Y409642D01*
X123793Y411017D01*
X125196Y412479D01*
X126504Y414024D01*
X127713Y415647D01*
X128819Y417343D01*
X129820Y419108D01*
X130711Y420937D01*
X131488Y422826D01*
X132149Y424770D01*
X132689Y426764D01*
X133104Y428804D01*
X133334Y430369D01*
X133397Y430917D01*
X133451Y431465D01*
X133495Y432013D01*
X133530Y432562D01*
X133556Y433110D01*
X133573Y433659D01*
X133580Y434207D01*
X133578Y434756D01*
X133566Y435304D01*
X133546Y435852D01*
X133516Y436400D01*
X133477Y436947D01*
X133429Y437493D01*
X133371Y438039D01*
X133305Y438584D01*
X133229Y439129D01*
X133147Y439663D01*
X133097Y440119D01*
X133092Y440569D01*
X133127Y441012D01*
X133203Y441445D01*
X133317Y441866D01*
X133468Y442272D01*
X133655Y442662D01*
X133874Y443033D01*
X134126Y443383D01*
X134408Y443709D01*
X134718Y444010D01*
X135056Y444283D01*
X135418Y444526D01*
X135805Y444737D01*
X136214Y444913D01*
X136643Y445052D01*
X137092Y445152D01*
X137538Y445214D01*
X137981Y445232D01*
X138419Y445207D01*
X138850Y445142D01*
X139271Y445037D01*
X139679Y444895D01*
X140073Y444717D01*
X140450Y444505D01*
X140807Y444260D01*
X141142Y443984D01*
X141452Y443679D01*
X141735Y443347D01*
X141989Y442989D01*
X142211Y442606D01*
X142398Y442201D01*
X142548Y441775D01*
X142659Y441330D01*
X142761Y440708D01*
X142863Y440001D01*
X142952Y439294D01*
X143030Y438586D01*
X143096Y437877D01*
X143150Y437167D01*
X143192Y436457D01*
X143222Y435746D01*
X143240Y435035D01*
X143246Y434323D01*
X143240Y433612D01*
X143222Y432901D01*
X143191Y432190D01*
X143149Y431479D01*
X143095Y430769D01*
X143028Y430059D01*
X142950Y429350D01*
X142730Y427759D01*
X142226Y425104D01*
X141560Y422507D01*
X140736Y419973D01*
X139761Y417510D01*
X138638Y415121D01*
X137371Y412815D01*
X135967Y410596D01*
X134429Y408472D01*
X132763Y406447D01*
X130972Y404527D01*
X129062Y402720D01*
X127037Y401030D01*
X124903Y399464D01*
X122663Y398029D01*
X120323Y396729D01*
X117887Y395570D01*
X115907Y394763D01*
X115808Y394728D01*
X115710Y394694D01*
X115611Y394663D01*
X115512Y394634D01*
X115413Y394608D01*
X115314Y394583D01*
X115215Y394561D01*
X115115Y394541D01*
X115016Y394523D01*
X114916Y394507D01*
X114816Y394493D01*
X114716Y394482D01*
X114617Y394472D01*
X114517Y394465D01*
X114417Y394460D01*
X114317Y394457D01*
X114217Y394456D01*
X87838Y394451D02*
X87360Y394475D01*
X86880Y394549D01*
X86401Y394675D01*
X86162Y394757D01*
X86113Y394775D01*
X85912Y394852D01*
X85511Y395008D01*
X84713Y395332D01*
X83139Y396030D01*
X81595Y396792D01*
X80083Y397617D01*
X78604Y398505D01*
X77160Y399453D01*
X75753Y400463D01*
X75580Y400593D01*
X75494Y400659D01*
X75451Y400692D01*
X75301Y400807D01*
X74016Y401833D01*
X72779Y402903D01*
X71589Y404013D01*
X70448Y405164D01*
X69356Y406352D01*
X68313Y407578D01*
X67321Y408838D01*
X66380Y410131D01*
X65490Y411457D01*
X64653Y412813D01*
X63868Y414197D01*
X63137Y415608D01*
X62461Y417045D01*
X61839Y418506D01*
X61272Y419990D01*
X60761Y421494D01*
X60307Y423017D01*
X59910Y424559D01*
X59572Y426116D01*
X59292Y427688D01*
X59071Y429272D01*
X58909Y430868D01*
X58809Y432474D01*
X58769Y434088D01*
X58791Y435709D01*
X58876Y437335D01*
X59023Y438964D01*
X59235Y440595D01*
X59297Y441003D01*
X59314Y441105D01*
X59320Y441142D01*
X59321Y441150D01*
X59327Y441185D01*
X59352Y441323D01*
X59492Y441857D01*
X59690Y442360D01*
X59942Y442831D01*
X60243Y443267D01*
X60587Y443664D01*
X60972Y444022D01*
X61391Y444336D01*
X61840Y444606D01*
X62316Y444827D01*
X62812Y444998D01*
X63324Y445116D01*
X63848Y445179D01*
X64379Y445183D01*
X64915Y445126D01*
X65455Y445000D01*
X65967Y444817D01*
X66448Y444581D01*
X66894Y444297D01*
X67304Y443968D01*
X67674Y443599D01*
X68002Y443192D01*
X68284Y442754D01*
X68517Y442286D01*
X68700Y441793D01*
X68828Y441280D01*
X68900Y440750D01*
X68912Y440206D01*
X68861Y439654D01*
X68856Y439619D01*
X68853Y439602D01*
X68846Y439557D01*
X68797Y439243D01*
X68708Y438613D01*
X68567Y437355D01*
X68475Y436098D01*
X68431Y434845D01*
X68435Y433596D01*
X68487Y432353D01*
X68586Y431117D01*
X68731Y429889D01*
X68922Y428670D01*
X69158Y427462D01*
X69440Y426266D01*
X69766Y425082D01*
X70136Y423913D01*
X70549Y422759D01*
X71006Y421622D01*
X71505Y420502D01*
X72046Y419402D01*
X72629Y418322D01*
X73253Y417263D01*
X73917Y416227D01*
X74621Y415215D01*
X75365Y414228D01*
X76149Y413267D01*
X76970Y412334D01*
X77830Y411429D01*
X78728Y410555D01*
X79663Y409712D01*
X80634Y408901D01*
X81133Y408508D01*
X81259Y408411D01*
X81307Y408375D01*
X81324Y408362D01*
X81391Y408312D01*
X81659Y408111D01*
X82748Y407337D01*
X83865Y406610D01*
X85007Y405931D01*
X86174Y405300D01*
X87365Y404717D01*
X88580Y404183D01*
X89196Y403935D01*
X89506Y403816D01*
X89771Y403710D01*
X90262Y403462D01*
X90714Y403166D01*
X91124Y402826D01*
X91490Y402447D01*
X91811Y402032D01*
X92084Y401588D01*
X92307Y401117D01*
X92479Y400624D01*
X92597Y400115D01*
X92659Y399592D01*
X92665Y399062D01*
X92610Y398528D01*
X92495Y397994D01*
X92413Y397729D01*
X92326Y397492D01*
X92149Y397100D01*
X91941Y396731D01*
X91706Y396386D01*
X91444Y396066D01*
X91158Y395772D01*
X90850Y395505D01*
X90522Y395266D01*
X90176Y395055D01*
X89814Y394874D01*
X89438Y394724D01*
X89050Y394606D01*
X88653Y394520D01*
X88248Y394468D01*
X87838Y394451D01*
X77275Y458428D02*
X77033Y458434D01*
X76791Y458452D01*
X76550Y458483D01*
X76311Y458525D01*
X76074Y458580D01*
X75840Y458646D01*
X75608Y458724D01*
X75380Y458814D01*
X75157Y458916D01*
X74938Y459029D01*
X74724Y459155D01*
X74515Y459292D01*
X74313Y459440D01*
X74118Y459600D01*
X73930Y459772D01*
X73749Y459954D01*
X73577Y460149D01*
X73323Y460479D01*
X73079Y460861D01*
X72875Y461258D01*
X72711Y461668D01*
X72587Y462087D01*
X72501Y462512D01*
X72454Y462942D01*
X72445Y463373D01*
X72475Y463803D01*
X72543Y464228D01*
X72648Y464647D01*
X72790Y465056D01*
X72970Y465452D01*
X73187Y465833D01*
X73440Y466197D01*
X73729Y466539D01*
X74055Y466859D01*
X74516Y467240D01*
X75071Y467678D01*
X75634Y468107D01*
X76204Y468527D01*
X76782Y468937D01*
X77367Y469338D01*
X77959Y469728D01*
X78557Y470110D01*
X79163Y470481D01*
X79776Y470843D01*
X80395Y471194D01*
X81021Y471536D01*
X81653Y471868D01*
X82292Y472189D01*
X82937Y472501D01*
X83588Y472802D01*
X84245Y473093D01*
X85527Y473622D01*
X88075Y474532D01*
X90655Y475274D01*
X93259Y475847D01*
X95879Y476253D01*
X98508Y476494D01*
X101139Y476569D01*
X103763Y476481D01*
X106374Y476230D01*
X108963Y475818D01*
X111524Y475245D01*
X114049Y474513D01*
X116529Y473623D01*
X118959Y472575D01*
X121329Y471371D01*
X123633Y470012D01*
X125862Y468500D01*
X127816Y466994D01*
X128155Y466684D01*
X128458Y466349D01*
X128724Y465993D01*
X128954Y465618D01*
X129147Y465227D01*
X129303Y464822D01*
X129422Y464406D01*
X129503Y463983D01*
X129546Y463555D01*
X129551Y463124D01*
X129518Y462693D01*
X129446Y462265D01*
X129335Y461843D01*
X129185Y461430D01*
X128996Y461027D01*
X128767Y460639D01*
X128499Y460268D01*
X128194Y459920D01*
X127864Y459609D01*
X127511Y459334D01*
X127139Y459096D01*
X126750Y458895D01*
X126347Y458731D01*
X125933Y458604D01*
X125511Y458515D01*
X125083Y458464D01*
X124652Y458451D01*
X124221Y458476D01*
X123792Y458539D01*
X123369Y458642D01*
X122955Y458783D01*
X122551Y458963D01*
X122161Y459183D01*
X121788Y459442D01*
X120566Y460399D01*
X118860Y461595D01*
X117095Y462671D01*
X115277Y463628D01*
X113411Y464465D01*
X111505Y465181D01*
X109563Y465774D01*
X107592Y466245D01*
X105597Y466591D01*
X103585Y466813D01*
X101561Y466910D01*
X99531Y466880D01*
X97501Y466723D01*
X95478Y466437D01*
X93467Y466023D01*
X91473Y465478D01*
X89503Y464803D01*
X88194Y464275D01*
X87685Y464052D01*
X87180Y463821D01*
X86681Y463583D01*
X86186Y463336D01*
X85696Y463082D01*
X85212Y462820D01*
X84732Y462550D01*
X84258Y462273D01*
X83789Y461988D01*
X83326Y461696D01*
X82868Y461396D01*
X82416Y461089D01*
X81970Y460775D01*
X81530Y460453D01*
X81096Y460124D01*
X80667Y459788D01*
X80304Y459494D01*
X80145Y459372D01*
X79983Y459257D01*
X79817Y459149D01*
X79648Y459050D01*
X79477Y458957D01*
X79302Y458872D01*
X79125Y458795D01*
X78946Y458725D01*
X78765Y458663D01*
X78582Y458607D01*
X78398Y458560D01*
X78213Y458519D01*
X78026Y458487D01*
X77839Y458461D01*
X77651Y458443D01*
X77463Y458432D01*
X77275Y458428D01*
X33882Y543180D02*
X32624Y543118D01*
X31401Y542934D01*
X30219Y542635D01*
X29086Y542227D01*
X28006Y541716D01*
X26986Y541107D01*
X26031Y540408D01*
X25148Y539623D01*
X24343Y538759D01*
X23622Y537822D01*
X22990Y536817D01*
X22454Y535752D01*
X22019Y534631D01*
X21693Y533461D01*
X21480Y532248D01*
X21386Y530998D01*
X21418Y529733D01*
X21572Y528501D01*
X21842Y527308D01*
X22224Y526162D01*
X22710Y525068D01*
X23294Y524033D01*
X23972Y523061D01*
X24736Y522160D01*
X25580Y521335D01*
X26500Y520592D01*
X27488Y519937D01*
X28539Y519377D01*
X29646Y518916D01*
X30804Y518562D01*
X32007Y518320D01*
X33249Y518196D01*
X34516Y518196D01*
X35757Y518320D01*
X36960Y518562D01*
X38118Y518916D01*
X39226Y519377D01*
X40276Y519937D01*
X41265Y520592D01*
X42184Y521335D01*
X43029Y522160D01*
X43793Y523061D01*
X44470Y524033D01*
X45055Y525068D01*
X45541Y526162D01*
X45922Y527308D01*
X46193Y528501D01*
X46347Y529733D01*
X46378Y530998D01*
X46285Y532248D01*
X46072Y533461D01*
X45745Y534631D01*
X45311Y535752D01*
X44774Y536817D01*
X44143Y537822D01*
X43421Y538759D01*
X42616Y539623D01*
X41733Y540408D01*
X40779Y541107D01*
X39759Y541716D01*
X38679Y542227D01*
X37545Y542635D01*
X36364Y542934D01*
X35141Y543118D01*
X33882Y543180D01*
X334630Y543118D02*
X335888Y543180D01*
X334630Y543118D02*
X333407Y542934D01*
X332225Y542635D01*
X331092Y542227D01*
X330012Y541716D01*
X328992Y541107D01*
X328037Y540408D01*
X327154Y539623D01*
X326349Y538759D01*
X325628Y537822D01*
X324996Y536817D01*
X324460Y535752D01*
X324025Y534631D01*
X323699Y533461D01*
X323486Y532248D01*
X323392Y530998D01*
X323424Y529733D01*
X323578Y528501D01*
X323848Y527308D01*
X324230Y526162D01*
X324716Y525068D01*
X325300Y524033D01*
X325978Y523061D01*
X326742Y522160D01*
X327586Y521335D01*
X328506Y520592D01*
X329494Y519937D01*
X330545Y519377D01*
X331652Y518916D01*
X332810Y518562D01*
X334013Y518320D01*
X335255Y518196D01*
X336522Y518196D01*
X337763Y518320D01*
X338966Y518562D01*
X340124Y518916D01*
X341232Y519377D01*
X342282Y519937D01*
X343271Y520592D01*
X344190Y521335D01*
X345035Y522160D01*
X345799Y523061D01*
X346476Y524033D01*
X347061Y525068D01*
X347547Y526162D01*
X347928Y527308D01*
X348199Y528501D01*
X348353Y529733D01*
X348384Y530998D01*
X348291Y532248D01*
X348078Y533461D01*
X347751Y534631D01*
X347317Y535752D01*
X346780Y536817D01*
X346149Y537822D01*
X345427Y538759D01*
X344622Y539623D01*
X343739Y540408D01*
X342785Y541107D01*
X341765Y541716D01*
X340685Y542227D01*
X339551Y542635D01*
X338370Y542934D01*
X337147Y543118D01*
X335888Y543180D01*
X-9Y532480D02*
X-20Y531639D01*
X-9Y532480D02*
X23Y533315D01*
X76Y534145D01*
X150Y534969D01*
X244Y535788D01*
X358Y536600D01*
X493Y537406D01*
X647Y538206D01*
X821Y538998D01*
X1014Y539784D01*
X1226Y540562D01*
X1456Y541332D01*
X1705Y542095D01*
X1972Y542849D01*
X2257Y543595D01*
X2559Y544332D01*
X2879Y545060D01*
X3216Y545779D01*
X3570Y546488D01*
X3940Y547188D01*
X4327Y547877D01*
X4730Y548557D01*
X5148Y549225D01*
X5582Y549883D01*
X6032Y550530D01*
X6496Y551165D01*
X6975Y551789D01*
X7469Y552401D01*
X7976Y553001D01*
X8498Y553589D01*
X9033Y554164D01*
X9582Y554726D01*
X10144Y555275D01*
X10719Y555810D01*
X11307Y556332D01*
X11907Y556839D01*
X12519Y557333D01*
X13143Y557812D01*
X13778Y558276D01*
X14425Y558726D01*
X15083Y559160D01*
X15752Y559578D01*
X16431Y559981D01*
X17120Y560368D01*
X17820Y560738D01*
X18529Y561092D01*
X19248Y561429D01*
X19976Y561749D01*
X20713Y562051D01*
X21459Y562336D01*
X22213Y562603D01*
X22976Y562852D01*
X23746Y563083D01*
X24524Y563294D01*
X25310Y563487D01*
X26102Y563661D01*
X26902Y563815D01*
X27708Y563950D01*
X28520Y564064D01*
X29339Y564158D01*
X30163Y564232D01*
X30993Y564285D01*
X31828Y564317D01*
X32669Y564328D01*
X335069Y564328D02*
X335910Y564317D01*
X336745Y564285D01*
X337575Y564232D01*
X338399Y564158D01*
X339218Y564064D01*
X340030Y563950D01*
X340836Y563815D01*
X341636Y563661D01*
X342428Y563487D01*
X343214Y563294D01*
X343992Y563083D01*
X344762Y562852D01*
X345525Y562603D01*
X346279Y562336D01*
X347025Y562051D01*
X347762Y561749D01*
X348490Y561429D01*
X349209Y561092D01*
X349918Y560738D01*
X350618Y560368D01*
X351307Y559981D01*
X351987Y559578D01*
X352655Y559160D01*
X353313Y558726D01*
X353960Y558276D01*
X354595Y557812D01*
X355219Y557333D01*
X355831Y556839D01*
X356431Y556332D01*
X357019Y555810D01*
X357594Y555275D01*
X358156Y554726D01*
X358705Y554164D01*
X359240Y553589D01*
X359762Y553001D01*
X360269Y552401D01*
X360763Y551789D01*
X361242Y551165D01*
X361706Y550530D01*
X362156Y549883D01*
X362590Y549225D01*
X363008Y548557D01*
X363411Y547877D01*
X363798Y547188D01*
X364168Y546488D01*
X364522Y545779D01*
X364859Y545060D01*
X365179Y544332D01*
X365481Y543595D01*
X365766Y542849D01*
X366033Y542095D01*
X366282Y541332D01*
X366513Y540562D01*
X366724Y539784D01*
X366917Y538998D01*
X367091Y538206D01*
X367245Y537406D01*
X367380Y536600D01*
X367494Y535788D01*
X367588Y534969D01*
X367662Y534145D01*
X367715Y533315D01*
X367747Y532480D01*
X367758Y531639D01*
X335888Y44832D02*
X334630Y44770D01*
X333407Y44586D01*
X332225Y44287D01*
X331092Y43879D01*
X330012Y43368D01*
X328992Y42759D01*
X328037Y42060D01*
X327154Y41275D01*
X326349Y40411D01*
X325628Y39474D01*
X324996Y38469D01*
X324460Y37404D01*
X324025Y36283D01*
X323699Y35113D01*
X323486Y33900D01*
X323392Y32650D01*
X323424Y31385D01*
X323578Y30153D01*
X323848Y28960D01*
X324230Y27814D01*
X324716Y26720D01*
X325300Y25685D01*
X325978Y24713D01*
X326742Y23812D01*
X327586Y22987D01*
X328506Y22244D01*
X329494Y21589D01*
X330545Y21029D01*
X331652Y20568D01*
X332810Y20214D01*
X334013Y19972D01*
X335255Y19848D01*
X336522Y19848D01*
X337763Y19972D01*
X338966Y20214D01*
X340124Y20568D01*
X341232Y21029D01*
X342282Y21589D01*
X343271Y22244D01*
X344190Y22987D01*
X345035Y23812D01*
X345799Y24713D01*
X346476Y25685D01*
X347061Y26720D01*
X347547Y27814D01*
X347928Y28960D01*
X348199Y30153D01*
X348353Y31385D01*
X348384Y32650D01*
X348291Y33900D01*
X348078Y35113D01*
X347751Y36283D01*
X347317Y37404D01*
X346780Y38469D01*
X346149Y39474D01*
X345427Y40411D01*
X344622Y41275D01*
X343739Y42060D01*
X342785Y42759D01*
X341765Y43368D01*
X340685Y43879D01*
X339551Y44287D01*
X338370Y44586D01*
X337147Y44770D01*
X335888Y44832D01*
X367758Y32819D02*
X367747Y31978D01*
X367715Y31143D01*
X367662Y30313D01*
X367588Y29489D01*
X367494Y28670D01*
X367380Y27858D01*
X367245Y27052D01*
X367091Y26252D01*
X366917Y25460D01*
X366724Y24674D01*
X366513Y23896D01*
X366282Y23126D01*
X366033Y22363D01*
X365766Y21609D01*
X365481Y20863D01*
X365179Y20126D01*
X364859Y19398D01*
X364522Y18679D01*
X364168Y17970D01*
X363798Y17270D01*
X363411Y16581D01*
X363008Y15902D01*
X362590Y15233D01*
X362156Y14575D01*
X361706Y13928D01*
X361242Y13293D01*
X360763Y12669D01*
X360269Y12057D01*
X359762Y11457D01*
X359240Y10869D01*
X358705Y10294D01*
X358156Y9732D01*
X357594Y9183D01*
X357019Y8648D01*
X356431Y8126D01*
X355831Y7619D01*
X355219Y7125D01*
X354595Y6646D01*
X353960Y6182D01*
X353313Y5732D01*
X352655Y5298D01*
X351987Y4880D01*
X351307Y4477D01*
X350618Y4090D01*
X349918Y3720D01*
X349209Y3366D01*
X348490Y3029D01*
X347762Y2709D01*
X347025Y2407D01*
X346279Y2122D01*
X345525Y1855D01*
X344762Y1606D01*
X343992Y1376D01*
X343214Y1164D01*
X342428Y971D01*
X341636Y797D01*
X340836Y643D01*
X340030Y508D01*
X339218Y394D01*
X338399Y300D01*
X337575Y226D01*
X336745Y173D01*
X335910Y141D01*
X335069Y130D01*
X32669Y130D02*
X31828Y141D01*
X30993Y173D01*
X30163Y226D01*
X29339Y300D01*
X28520Y394D01*
X27708Y508D01*
X26902Y643D01*
X26102Y797D01*
X25310Y971D01*
X24524Y1164D01*
X23746Y1376D01*
X22976Y1606D01*
X22213Y1855D01*
X21459Y2122D01*
X20713Y2407D01*
X19976Y2709D01*
X19248Y3029D01*
X18529Y3366D01*
X17820Y3720D01*
X17120Y4090D01*
X16431Y4477D01*
X15752Y4880D01*
X15083Y5298D01*
X14425Y5732D01*
X13778Y6182D01*
X13143Y6646D01*
X12519Y7125D01*
X11907Y7619D01*
X11307Y8126D01*
X10719Y8648D01*
X10144Y9183D01*
X9582Y9732D01*
X9033Y10294D01*
X8498Y10869D01*
X7976Y11457D01*
X7469Y12057D01*
X6975Y12669D01*
X6496Y13293D01*
X6032Y13928D01*
X5582Y14575D01*
X5148Y15233D01*
X4730Y15902D01*
X4327Y16581D01*
X3940Y17270D01*
X3570Y17970D01*
X3216Y18679D01*
X2879Y19398D01*
X2559Y20126D01*
X2257Y20863D01*
X1972Y21609D01*
X1705Y22363D01*
X1456Y23126D01*
X1226Y23896D01*
X1014Y24674D01*
X821Y25460D01*
X647Y26252D01*
X493Y27052D01*
X358Y27858D01*
X244Y28670D01*
X150Y29489D01*
X76Y30313D01*
X23Y31143D01*
X-9Y31978D01*
X-20Y32819D01*
X60899Y306345D02*
X60901Y306485D01*
X60907Y306625D01*
X60916Y306765D01*
X60930Y306904D01*
X60947Y307043D01*
X60968Y307181D01*
X60993Y307319D01*
X61022Y307456D01*
X61054Y307592D01*
X61091Y307727D01*
X61131Y307861D01*
X61174Y307994D01*
X61222Y308126D01*
X61272Y308257D01*
X61327Y308386D01*
X61385Y308513D01*
X61446Y308639D01*
X61511Y308763D01*
X61580Y308885D01*
X61651Y309005D01*
X61726Y309123D01*
X61804Y309240D01*
X61886Y309354D01*
X61970Y309465D01*
X62058Y309574D01*
X62148Y309681D01*
X62242Y309786D01*
X62338Y309887D01*
X62437Y309986D01*
X62538Y310082D01*
X62643Y310176D01*
X62750Y310266D01*
X62859Y310354D01*
X62970Y310438D01*
X63084Y310520D01*
X63201Y310598D01*
X63319Y310673D01*
X63439Y310744D01*
X63561Y310813D01*
X63685Y310878D01*
X63811Y310939D01*
X63938Y310997D01*
X64067Y311052D01*
X64198Y311102D01*
X64330Y311150D01*
X64463Y311193D01*
X64597Y311233D01*
X64732Y311270D01*
X64868Y311302D01*
X65005Y311331D01*
X65143Y311356D01*
X65281Y311377D01*
X65420Y311394D01*
X65559Y311408D01*
X65699Y311417D01*
X65839Y311423D01*
X65979Y311425D01*
X60900Y306345D02*
X60900Y306063D01*
X60902Y305926D01*
X60908Y305789D01*
X60918Y305652D01*
X60931Y305516D01*
X60949Y305380D01*
X60970Y305245D01*
X60996Y305110D01*
X61025Y304976D01*
X61058Y304844D01*
X61094Y304712D01*
X61135Y304581D01*
X61179Y304451D01*
X61227Y304323D01*
X61278Y304196D01*
X61333Y304070D01*
X61392Y303946D01*
X61454Y303824D01*
X61520Y303704D01*
X61589Y303586D01*
X61662Y303470D01*
X61737Y303355D01*
X61816Y303243D01*
X61898Y303134D01*
X61983Y303026D01*
X62072Y302922D01*
X62163Y302819D01*
X62257Y302720D01*
X62354Y302623D01*
X62453Y302529D01*
X62556Y302438D01*
X62660Y302349D01*
X62768Y302264D01*
X62877Y302182D01*
X62989Y302103D01*
X63104Y302028D01*
X63220Y301955D01*
X63338Y301886D01*
X63458Y301820D01*
X63580Y301758D01*
X63704Y301699D01*
X63830Y301644D01*
X63957Y301593D01*
X64085Y301545D01*
X64215Y301501D01*
X64346Y301460D01*
X64478Y301424D01*
X64610Y301391D01*
X64744Y301362D01*
X64879Y301336D01*
X65014Y301315D01*
X65150Y301297D01*
X65286Y301284D01*
X65423Y301274D01*
X65560Y301268D01*
X65697Y301266D01*
X65697Y301265D02*
X135117Y301265D01*
X135117Y301266D02*
X135257Y301260D01*
X135397Y301258D01*
X135537Y301260D01*
X135677Y301266D01*
X135817Y301275D01*
X135957Y301289D01*
X136096Y301306D01*
X136234Y301327D01*
X136372Y301352D01*
X136510Y301381D01*
X136646Y301413D01*
X136781Y301449D01*
X136916Y301489D01*
X137049Y301533D01*
X137181Y301580D01*
X137311Y301631D01*
X137441Y301686D01*
X137568Y301744D01*
X137694Y301805D01*
X137818Y301870D01*
X137941Y301939D01*
X138061Y302010D01*
X138180Y302085D01*
X138296Y302164D01*
X138410Y302245D01*
X138522Y302329D01*
X138631Y302417D01*
X138738Y302508D01*
X138843Y302601D01*
X138945Y302697D01*
X139044Y302796D01*
X139140Y302898D01*
X139234Y303003D01*
X139325Y303110D01*
X139412Y303219D01*
X139497Y303331D01*
X139578Y303445D01*
X139657Y303561D01*
X139732Y303679D01*
X139804Y303800D01*
X139872Y303922D01*
X139937Y304046D01*
X139999Y304172D01*
X140057Y304300D01*
X140111Y304429D01*
X140162Y304559D01*
X140210Y304691D01*
X140253Y304825D01*
X140294Y304959D01*
X140330Y305094D01*
X140362Y305231D01*
X140391Y305368D01*
X140416Y305506D01*
X140438Y305644D01*
X140455Y305783D01*
X140468Y305923D01*
X140478Y306063D01*
X140484Y306203D01*
X140486Y306343D01*
X140484Y306483D01*
X140478Y306623D01*
X140469Y306763D01*
X140455Y306903D01*
X140438Y307042D01*
X140417Y307180D01*
X140392Y307318D01*
X140363Y307456D01*
X140331Y307592D01*
X140295Y307727D01*
X140255Y307862D01*
X140211Y307995D01*
X140164Y308127D01*
X140113Y308257D01*
X140058Y308387D01*
X140000Y308514D01*
X139939Y308640D01*
X139874Y308764D01*
X139805Y308887D01*
X139734Y309007D01*
X139659Y309126D01*
X139580Y309242D01*
X139499Y309356D01*
X139415Y309468D01*
X139327Y309577D01*
X139236Y309684D01*
X139143Y309789D01*
X139047Y309891D01*
X138948Y309990D01*
X138846Y310086D01*
X138741Y310180D01*
X138634Y310271D01*
X138525Y310358D01*
X138413Y310443D01*
X138299Y310524D01*
X138183Y310603D01*
X138065Y310678D01*
X137944Y310749D01*
X137822Y310818D01*
X137698Y310883D01*
X137572Y310945D01*
X137444Y311003D01*
X137315Y311057D01*
X137185Y311108D01*
X137053Y311156D01*
X136919Y311199D01*
X136785Y311240D01*
X136650Y311276D01*
X136513Y311308D01*
X136376Y311337D01*
X136238Y311362D01*
X136100Y311384D01*
X135961Y311401D01*
X135821Y311414D01*
X135681Y311424D01*
X65979Y311424D01*
X65697Y229871D02*
X65557Y229869D01*
X65417Y229863D01*
X65277Y229854D01*
X65138Y229840D01*
X64999Y229823D01*
X64861Y229802D01*
X64723Y229777D01*
X64586Y229748D01*
X64450Y229716D01*
X64315Y229679D01*
X64181Y229639D01*
X64048Y229596D01*
X63916Y229548D01*
X63785Y229498D01*
X63656Y229443D01*
X63529Y229385D01*
X63403Y229324D01*
X63279Y229259D01*
X63157Y229190D01*
X63037Y229119D01*
X62919Y229044D01*
X62802Y228966D01*
X62688Y228884D01*
X62577Y228800D01*
X62468Y228712D01*
X62361Y228622D01*
X62256Y228528D01*
X62155Y228432D01*
X62056Y228333D01*
X61960Y228232D01*
X61866Y228127D01*
X61776Y228020D01*
X61688Y227911D01*
X61604Y227800D01*
X61522Y227686D01*
X61444Y227569D01*
X61369Y227451D01*
X61298Y227331D01*
X61229Y227209D01*
X61164Y227085D01*
X61103Y226959D01*
X61045Y226832D01*
X60990Y226703D01*
X60940Y226572D01*
X60892Y226440D01*
X60849Y226307D01*
X60809Y226173D01*
X60772Y226038D01*
X60740Y225902D01*
X60711Y225765D01*
X60686Y225627D01*
X60665Y225489D01*
X60648Y225350D01*
X60634Y225211D01*
X60625Y225071D01*
X60619Y224931D01*
X60617Y224791D01*
X60617Y224509D01*
X60618Y224509D02*
X60620Y224372D01*
X60626Y224235D01*
X60636Y224098D01*
X60649Y223962D01*
X60667Y223826D01*
X60688Y223691D01*
X60714Y223556D01*
X60743Y223422D01*
X60776Y223290D01*
X60812Y223158D01*
X60853Y223027D01*
X60897Y222897D01*
X60945Y222769D01*
X60996Y222642D01*
X61051Y222516D01*
X61110Y222392D01*
X61172Y222270D01*
X61238Y222150D01*
X61307Y222032D01*
X61380Y221916D01*
X61455Y221801D01*
X61534Y221689D01*
X61616Y221580D01*
X61701Y221472D01*
X61790Y221368D01*
X61881Y221265D01*
X61975Y221166D01*
X62072Y221069D01*
X62171Y220975D01*
X62274Y220884D01*
X62378Y220795D01*
X62486Y220710D01*
X62595Y220628D01*
X62707Y220549D01*
X62822Y220474D01*
X62938Y220401D01*
X63056Y220332D01*
X63176Y220266D01*
X63298Y220204D01*
X63422Y220145D01*
X63548Y220090D01*
X63675Y220039D01*
X63803Y219991D01*
X63933Y219947D01*
X64064Y219906D01*
X64196Y219870D01*
X64328Y219837D01*
X64462Y219808D01*
X64597Y219782D01*
X64732Y219761D01*
X64868Y219743D01*
X65004Y219730D01*
X65141Y219720D01*
X65278Y219714D01*
X65415Y219712D01*
X65415Y219711D02*
X134834Y219711D01*
X134835Y219712D02*
X134975Y219706D01*
X135115Y219704D01*
X135255Y219706D01*
X135395Y219712D01*
X135535Y219721D01*
X135675Y219735D01*
X135814Y219752D01*
X135952Y219773D01*
X136090Y219798D01*
X136228Y219827D01*
X136364Y219859D01*
X136499Y219895D01*
X136634Y219935D01*
X136767Y219979D01*
X136899Y220026D01*
X137029Y220077D01*
X137159Y220132D01*
X137286Y220190D01*
X137412Y220251D01*
X137536Y220316D01*
X137659Y220385D01*
X137779Y220456D01*
X137898Y220531D01*
X138014Y220610D01*
X138128Y220691D01*
X138240Y220775D01*
X138349Y220863D01*
X138456Y220954D01*
X138561Y221047D01*
X138663Y221143D01*
X138762Y221242D01*
X138858Y221344D01*
X138952Y221449D01*
X139043Y221556D01*
X139130Y221665D01*
X139215Y221777D01*
X139296Y221891D01*
X139375Y222007D01*
X139450Y222125D01*
X139522Y222246D01*
X139590Y222368D01*
X139655Y222492D01*
X139717Y222618D01*
X139775Y222746D01*
X139829Y222875D01*
X139880Y223005D01*
X139928Y223137D01*
X139971Y223271D01*
X140012Y223405D01*
X140048Y223540D01*
X140080Y223677D01*
X140109Y223814D01*
X140134Y223952D01*
X140156Y224090D01*
X140173Y224229D01*
X140186Y224369D01*
X140196Y224509D01*
X140202Y224649D01*
X140204Y224789D01*
X140202Y224929D01*
X140196Y225069D01*
X140187Y225209D01*
X140173Y225349D01*
X140156Y225488D01*
X140135Y225626D01*
X140110Y225764D01*
X140081Y225902D01*
X140049Y226038D01*
X140013Y226173D01*
X139973Y226308D01*
X139929Y226441D01*
X139882Y226573D01*
X139831Y226703D01*
X139776Y226833D01*
X139718Y226960D01*
X139657Y227086D01*
X139592Y227210D01*
X139523Y227333D01*
X139452Y227453D01*
X139377Y227572D01*
X139298Y227688D01*
X139217Y227802D01*
X139133Y227914D01*
X139045Y228023D01*
X138954Y228130D01*
X138861Y228235D01*
X138765Y228337D01*
X138666Y228436D01*
X138564Y228532D01*
X138459Y228626D01*
X138352Y228717D01*
X138243Y228804D01*
X138131Y228889D01*
X138017Y228970D01*
X137901Y229049D01*
X137783Y229124D01*
X137662Y229195D01*
X137540Y229264D01*
X137416Y229329D01*
X137290Y229391D01*
X137162Y229449D01*
X137033Y229503D01*
X136903Y229554D01*
X136771Y229602D01*
X136637Y229645D01*
X136503Y229686D01*
X136368Y229722D01*
X136231Y229754D01*
X136094Y229783D01*
X135956Y229808D01*
X135818Y229830D01*
X135679Y229847D01*
X135539Y229860D01*
X135399Y229870D01*
X65697Y229870D01*
X305311Y465071D02*
X305316Y465500D01*
X305332Y465930D01*
X305358Y466358D01*
X305395Y466786D01*
X305443Y467213D01*
X305500Y467639D01*
X305569Y468063D01*
X305647Y468485D01*
X305736Y468905D01*
X305835Y469323D01*
X305945Y469738D01*
X306065Y470151D01*
X306194Y470560D01*
X306334Y470967D01*
X306484Y471369D01*
X306643Y471768D01*
X306812Y472163D01*
X306991Y472553D01*
X307180Y472939D01*
X307377Y473320D01*
X307584Y473697D01*
X307801Y474068D01*
X308026Y474433D01*
X308260Y474793D01*
X308503Y475148D01*
X308755Y475496D01*
X309015Y475838D01*
X309283Y476173D01*
X309560Y476502D01*
X309844Y476823D01*
X310137Y477138D01*
X310437Y477445D01*
X310744Y477745D01*
X311059Y478038D01*
X311380Y478322D01*
X311709Y478599D01*
X312044Y478867D01*
X312386Y479127D01*
X312734Y479379D01*
X313089Y479622D01*
X313449Y479856D01*
X313814Y480081D01*
X314185Y480298D01*
X314562Y480505D01*
X314943Y480702D01*
X315329Y480891D01*
X315719Y481070D01*
X316114Y481239D01*
X316513Y481398D01*
X316915Y481548D01*
X317322Y481688D01*
X317731Y481817D01*
X318144Y481937D01*
X318559Y482047D01*
X318977Y482146D01*
X319397Y482235D01*
X319819Y482313D01*
X320243Y482382D01*
X320669Y482439D01*
X321096Y482487D01*
X321524Y482524D01*
X321952Y482550D01*
X322382Y482566D01*
X322811Y482571D01*
X323240Y482566D01*
X323670Y482550D01*
X324098Y482524D01*
X324526Y482487D01*
X324953Y482439D01*
X325379Y482382D01*
X325803Y482313D01*
X326225Y482235D01*
X326645Y482146D01*
X327063Y482047D01*
X327478Y481937D01*
X327891Y481817D01*
X328300Y481688D01*
X328707Y481548D01*
X329109Y481398D01*
X329508Y481239D01*
X329903Y481070D01*
X330293Y480891D01*
X330679Y480702D01*
X331060Y480505D01*
X331437Y480298D01*
X331808Y480081D01*
X332173Y479856D01*
X332533Y479622D01*
X332888Y479379D01*
X333236Y479127D01*
X333578Y478867D01*
X333913Y478599D01*
X334242Y478322D01*
X334563Y478038D01*
X334878Y477745D01*
X335185Y477445D01*
X335485Y477138D01*
X335778Y476823D01*
X336062Y476502D01*
X336339Y476173D01*
X336607Y475838D01*
X336867Y475496D01*
X337119Y475148D01*
X337362Y474793D01*
X337596Y474433D01*
X337821Y474068D01*
X338038Y473697D01*
X338245Y473320D01*
X338442Y472939D01*
X338631Y472553D01*
X338810Y472163D01*
X338979Y471768D01*
X339138Y471369D01*
X339288Y470967D01*
X339428Y470560D01*
X339557Y470151D01*
X339677Y469738D01*
X339787Y469323D01*
X339886Y468905D01*
X339975Y468485D01*
X340053Y468063D01*
X340122Y467639D01*
X340179Y467213D01*
X340227Y466786D01*
X340264Y466358D01*
X340290Y465930D01*
X340306Y465500D01*
X340311Y465071D01*
X340306Y464642D01*
X340290Y464212D01*
X340264Y463784D01*
X340227Y463356D01*
X340179Y462929D01*
X340122Y462503D01*
X340053Y462079D01*
X339975Y461657D01*
X339886Y461237D01*
X339787Y460819D01*
X339677Y460404D01*
X339557Y459991D01*
X339428Y459582D01*
X339288Y459175D01*
X339138Y458773D01*
X338979Y458374D01*
X338810Y457979D01*
X338631Y457589D01*
X338442Y457203D01*
X338245Y456822D01*
X338038Y456445D01*
X337821Y456074D01*
X337596Y455709D01*
X337362Y455349D01*
X337119Y454994D01*
X336867Y454646D01*
X336607Y454304D01*
X336339Y453969D01*
X336062Y453640D01*
X335778Y453319D01*
X335485Y453004D01*
X335185Y452697D01*
X334878Y452397D01*
X334563Y452104D01*
X334242Y451820D01*
X333913Y451543D01*
X333578Y451275D01*
X333236Y451015D01*
X332888Y450763D01*
X332533Y450520D01*
X332173Y450286D01*
X331808Y450061D01*
X331437Y449844D01*
X331060Y449637D01*
X330679Y449440D01*
X330293Y449251D01*
X329903Y449072D01*
X329508Y448903D01*
X329109Y448744D01*
X328707Y448594D01*
X328300Y448454D01*
X327891Y448325D01*
X327478Y448205D01*
X327063Y448095D01*
X326645Y447996D01*
X326225Y447907D01*
X325803Y447829D01*
X325379Y447760D01*
X324953Y447703D01*
X324526Y447655D01*
X324098Y447618D01*
X323670Y447592D01*
X323240Y447576D01*
X322811Y447571D01*
X322382Y447576D01*
X321952Y447592D01*
X321524Y447618D01*
X321096Y447655D01*
X320669Y447703D01*
X320243Y447760D01*
X319819Y447829D01*
X319397Y447907D01*
X318977Y447996D01*
X318559Y448095D01*
X318144Y448205D01*
X317731Y448325D01*
X317322Y448454D01*
X316915Y448594D01*
X316513Y448744D01*
X316114Y448903D01*
X315719Y449072D01*
X315329Y449251D01*
X314943Y449440D01*
X314562Y449637D01*
X314185Y449844D01*
X313814Y450061D01*
X313449Y450286D01*
X313089Y450520D01*
X312734Y450763D01*
X312386Y451015D01*
X312044Y451275D01*
X311709Y451543D01*
X311380Y451820D01*
X311059Y452104D01*
X310744Y452397D01*
X310437Y452697D01*
X310137Y453004D01*
X309844Y453319D01*
X309560Y453640D01*
X309283Y453969D01*
X309015Y454304D01*
X308755Y454646D01*
X308503Y454994D01*
X308260Y455349D01*
X308026Y455709D01*
X307801Y456074D01*
X307584Y456445D01*
X307377Y456822D01*
X307180Y457203D01*
X306991Y457589D01*
X306812Y457979D01*
X306643Y458374D01*
X306484Y458773D01*
X306334Y459175D01*
X306194Y459582D01*
X306065Y459991D01*
X305945Y460404D01*
X305835Y460819D01*
X305736Y461237D01*
X305647Y461657D01*
X305569Y462079D01*
X305500Y462503D01*
X305443Y462929D01*
X305395Y463356D01*
X305358Y463784D01*
X305332Y464212D01*
X305316Y464642D01*
X305311Y465071D01*
D11*
X-20Y32819D02*
X-9Y31978D01*
X23Y31143D01*
X76Y30313D01*
X150Y29489D01*
X244Y28670D01*
X358Y27858D01*
X493Y27052D01*
X647Y26252D01*
X821Y25460D01*
X1014Y24674D01*
X1226Y23896D01*
X1456Y23126D01*
X1705Y22363D01*
X1972Y21609D01*
X2257Y20863D01*
X2559Y20126D01*
X2879Y19398D01*
X3216Y18679D01*
X3570Y17970D01*
X3940Y17270D01*
X4327Y16581D01*
X4730Y15902D01*
X5148Y15233D01*
X5582Y14575D01*
X6032Y13928D01*
X6496Y13293D01*
X6975Y12669D01*
X7469Y12057D01*
X7976Y11457D01*
X8498Y10869D01*
X9033Y10294D01*
X9582Y9732D01*
X10144Y9183D01*
X10719Y8648D01*
X11307Y8126D01*
X11907Y7619D01*
X12519Y7125D01*
X13143Y6646D01*
X13778Y6182D01*
X14425Y5732D01*
X15083Y5298D01*
X15752Y4880D01*
X16431Y4477D01*
X17120Y4090D01*
X17820Y3720D01*
X18529Y3366D01*
X19248Y3029D01*
X19976Y2709D01*
X20713Y2407D01*
X21459Y2122D01*
X22213Y1855D01*
X22976Y1606D01*
X23746Y1376D01*
X24524Y1164D01*
X25310Y971D01*
X26102Y797D01*
X26902Y643D01*
X27708Y508D01*
X28520Y394D01*
X29339Y300D01*
X30163Y226D01*
X30993Y173D01*
X31828Y141D01*
X32669Y130D01*
X335069Y130D01*
X335910Y141D01*
X336745Y173D01*
X337575Y226D01*
X338399Y300D01*
X339218Y394D01*
X340030Y508D01*
X340836Y643D01*
X341636Y797D01*
X342428Y971D01*
X343214Y1164D01*
X343992Y1376D01*
X344762Y1606D01*
X345525Y1855D01*
X346279Y2122D01*
X347025Y2407D01*
X347762Y2709D01*
X348490Y3029D01*
X349209Y3366D01*
X349918Y3720D01*
X350618Y4090D01*
X351307Y4477D01*
X351987Y4880D01*
X352655Y5298D01*
X353313Y5732D01*
X353960Y6182D01*
X354595Y6646D01*
X355219Y7125D01*
X355831Y7619D01*
X356431Y8126D01*
X357019Y8648D01*
X357594Y9183D01*
X358156Y9732D01*
X358705Y10294D01*
X359240Y10869D01*
X359762Y11457D01*
X360269Y12057D01*
X360763Y12669D01*
X361242Y13293D01*
X361706Y13928D01*
X362156Y14575D01*
X362590Y15233D01*
X363008Y15902D01*
X363411Y16581D01*
X363798Y17270D01*
X364168Y17970D01*
X364522Y18679D01*
X364859Y19398D01*
X365179Y20126D01*
X365481Y20863D01*
X365766Y21609D01*
X366033Y22363D01*
X366282Y23126D01*
X366513Y23896D01*
X366724Y24674D01*
X366917Y25460D01*
X367091Y26252D01*
X367245Y27052D01*
X367380Y27858D01*
X367494Y28670D01*
X367588Y29489D01*
X367662Y30313D01*
X367715Y31143D01*
X367747Y31978D01*
X367758Y32819D01*
X367758Y531639D01*
X367747Y532480D01*
X367715Y533315D01*
X367662Y534145D01*
X367588Y534969D01*
X367494Y535788D01*
X367380Y536600D01*
X367245Y537406D01*
X367091Y538206D01*
X366917Y538998D01*
X366724Y539784D01*
X366513Y540562D01*
X366282Y541332D01*
X366033Y542095D01*
X365766Y542849D01*
X365481Y543595D01*
X365179Y544332D01*
X364859Y545060D01*
X364522Y545779D01*
X364168Y546488D01*
X363798Y547188D01*
X363411Y547877D01*
X363008Y548557D01*
X362590Y549225D01*
X362156Y549883D01*
X361706Y550530D01*
X361242Y551165D01*
X360763Y551789D01*
X360269Y552401D01*
X359762Y553001D01*
X359240Y553589D01*
X358705Y554164D01*
X358156Y554726D01*
X357594Y555275D01*
X357019Y555810D01*
X356431Y556332D01*
X355831Y556839D01*
X355219Y557333D01*
X354595Y557812D01*
X353960Y558276D01*
X353313Y558726D01*
X352655Y559160D01*
X351987Y559578D01*
X351307Y559981D01*
X350618Y560368D01*
X349918Y560738D01*
X349209Y561092D01*
X348490Y561429D01*
X347762Y561749D01*
X347025Y562051D01*
X346279Y562336D01*
X345525Y562603D01*
X344762Y562852D01*
X343992Y563083D01*
X343214Y563294D01*
X342428Y563487D01*
X341636Y563661D01*
X340836Y563815D01*
X340030Y563950D01*
X339218Y564064D01*
X338399Y564158D01*
X337575Y564232D01*
X336745Y564285D01*
X335910Y564317D01*
X335069Y564328D01*
X32669Y564328D01*
X31828Y564317D01*
X30993Y564285D01*
X30163Y564232D01*
X29339Y564158D01*
X28520Y564064D01*
X27708Y563950D01*
X26902Y563815D01*
X26102Y563661D01*
X25310Y563487D01*
X24524Y563294D01*
X23746Y563083D01*
X22976Y562852D01*
X22213Y562603D01*
X21459Y562336D01*
X20713Y562051D01*
X19976Y561749D01*
X19248Y561429D01*
X18529Y561092D01*
X17820Y560738D01*
X17120Y560368D01*
X16431Y559981D01*
X15752Y559578D01*
X15083Y559160D01*
X14425Y558726D01*
X13778Y558276D01*
X13143Y557812D01*
X12519Y557333D01*
X11907Y556839D01*
X11307Y556332D01*
X10719Y555810D01*
X10144Y555275D01*
X9582Y554726D01*
X9033Y554164D01*
X8498Y553589D01*
X7976Y553001D01*
X7469Y552401D01*
X6975Y551789D01*
X6496Y551165D01*
X6032Y550530D01*
X5582Y549883D01*
X5148Y549225D01*
X4730Y548557D01*
X4327Y547877D01*
X3940Y547188D01*
X3570Y546488D01*
X3216Y545779D01*
X2879Y545060D01*
X2559Y544332D01*
X2257Y543595D01*
X1972Y542849D01*
X1705Y542095D01*
X1456Y541332D01*
X1226Y540562D01*
X1014Y539784D01*
X821Y538998D01*
X647Y538206D01*
X493Y537406D01*
X358Y536600D01*
X244Y535788D01*
X150Y534969D01*
X76Y534145D01*
X23Y533315D01*
X-9Y532480D01*
X-20Y531639D01*
X-20Y32819D01*
X109385Y399237D02*
X109411Y398797D01*
X109478Y398356D01*
X109588Y397917D01*
X109732Y397503D01*
X109875Y397178D01*
X110039Y396868D01*
X110223Y396575D01*
X110425Y396298D01*
X110645Y396038D01*
X110881Y395796D01*
X111132Y395572D01*
X111398Y395367D01*
X111676Y395181D01*
X111965Y395016D01*
X112265Y394870D01*
X112574Y394746D01*
X112891Y394643D01*
X113215Y394562D01*
X113545Y394503D01*
X113879Y394467D01*
X114217Y394456D01*
X114317Y394457D01*
X114417Y394460D01*
X114517Y394465D01*
X114617Y394472D01*
X114716Y394482D01*
X114816Y394493D01*
X114916Y394507D01*
X115016Y394523D01*
X115115Y394541D01*
X115215Y394561D01*
X115314Y394583D01*
X115413Y394608D01*
X115512Y394634D01*
X115611Y394663D01*
X115710Y394694D01*
X115808Y394728D01*
X115907Y394763D01*
X117887Y395570D01*
X120323Y396729D01*
X122663Y398029D01*
X124903Y399464D01*
X127037Y401030D01*
X129062Y402720D01*
X130972Y404527D01*
X132763Y406447D01*
X134429Y408472D01*
X135967Y410596D01*
X137371Y412815D01*
X138638Y415121D01*
X139761Y417510D01*
X140736Y419973D01*
X141560Y422507D01*
X142226Y425104D01*
X142730Y427759D01*
X142950Y429350D01*
X143028Y430059D01*
X143095Y430769D01*
X143149Y431479D01*
X143191Y432190D01*
X143222Y432901D01*
X143240Y433612D01*
X143246Y434323D01*
X143240Y435035D01*
X143222Y435746D01*
X143192Y436457D01*
X143150Y437167D01*
X143096Y437877D01*
X143030Y438586D01*
X142952Y439294D01*
X142863Y440001D01*
X142761Y440708D01*
X142659Y441330D01*
X142548Y441775D01*
X142398Y442201D01*
X142211Y442606D01*
X141989Y442989D01*
X141735Y443347D01*
X141452Y443679D01*
X141142Y443984D01*
X140807Y444260D01*
X140450Y444505D01*
X140073Y444717D01*
X139679Y444895D01*
X139271Y445037D01*
X138850Y445142D01*
X138419Y445207D01*
X137981Y445232D01*
X137538Y445214D01*
X137092Y445152D01*
X136643Y445052D01*
X136214Y444913D01*
X135805Y444737D01*
X135418Y444526D01*
X135056Y444283D01*
X134718Y444010D01*
X134408Y443709D01*
X134126Y443383D01*
X133874Y443033D01*
X133655Y442662D01*
X133468Y442272D01*
X133317Y441866D01*
X133203Y441445D01*
X133127Y441012D01*
X133092Y440569D01*
X133097Y440119D01*
X133147Y439663D01*
X133229Y439129D01*
X133305Y438584D01*
X133371Y438039D01*
X133429Y437493D01*
X133477Y436947D01*
X133516Y436400D01*
X133546Y435852D01*
X133566Y435304D01*
X133578Y434756D01*
X133580Y434207D01*
X133573Y433659D01*
X133556Y433110D01*
X133530Y432562D01*
X133495Y432013D01*
X133451Y431465D01*
X133397Y430917D01*
X133334Y430369D01*
X133104Y428804D01*
X132689Y426764D01*
X132149Y424770D01*
X131488Y422826D01*
X130711Y420937D01*
X129820Y419108D01*
X128819Y417343D01*
X127713Y415647D01*
X126504Y414024D01*
X125196Y412479D01*
X123793Y411017D01*
X122299Y409642D01*
X120718Y408360D01*
X119052Y407174D01*
X117306Y406089D01*
X115484Y405110D01*
X113588Y404241D01*
X112314Y403731D01*
X111903Y403531D01*
X111518Y403299D01*
X111162Y403035D01*
X110835Y402742D01*
X110538Y402423D01*
X110272Y402081D01*
X110039Y401718D01*
X109839Y401336D01*
X109674Y400938D01*
X109545Y400527D01*
X109453Y400105D01*
X109400Y399674D01*
X109385Y399237D01*
X58769Y434088D02*
X58809Y432474D01*
X58909Y430868D01*
X59071Y429272D01*
X59292Y427688D01*
X59572Y426116D01*
X59910Y424559D01*
X60307Y423017D01*
X60761Y421494D01*
X61272Y419990D01*
X61839Y418506D01*
X62461Y417045D01*
X63137Y415608D01*
X63868Y414197D01*
X64653Y412813D01*
X65490Y411457D01*
X66380Y410131D01*
X67321Y408838D01*
X68313Y407578D01*
X69356Y406352D01*
X70448Y405164D01*
X71589Y404013D01*
X72779Y402903D01*
X74016Y401833D01*
X75301Y400807D01*
X75451Y400692D01*
X75494Y400659D01*
X75580Y400593D01*
X75753Y400463D01*
X77160Y399453D01*
X78604Y398505D01*
X80083Y397617D01*
X81595Y396792D01*
X83139Y396030D01*
X84713Y395332D01*
X85511Y395008D01*
X85912Y394852D01*
X86113Y394775D01*
X86162Y394757D01*
X86401Y394675D01*
X86880Y394549D01*
X87360Y394475D01*
X87838Y394451D01*
X88248Y394468D01*
X88653Y394520D01*
X89050Y394606D01*
X89438Y394724D01*
X89814Y394874D01*
X90176Y395055D01*
X90522Y395266D01*
X90850Y395505D01*
X91158Y395772D01*
X91444Y396066D01*
X91706Y396386D01*
X91941Y396731D01*
X92149Y397100D01*
X92326Y397492D01*
X92413Y397729D01*
X92495Y397994D01*
X92610Y398528D01*
X92665Y399062D01*
X92659Y399592D01*
X92597Y400115D01*
X92479Y400624D01*
X92307Y401117D01*
X92084Y401588D01*
X91811Y402032D01*
X91490Y402447D01*
X91124Y402826D01*
X90714Y403166D01*
X90262Y403462D01*
X89771Y403710D01*
X89506Y403816D01*
X89196Y403935D01*
X88580Y404183D01*
X87365Y404717D01*
X86174Y405300D01*
X85007Y405931D01*
X83865Y406610D01*
X82748Y407337D01*
X81659Y408111D01*
X81391Y408312D01*
X81324Y408362D01*
X81307Y408375D01*
X81259Y408411D01*
X81133Y408508D01*
X80634Y408901D01*
X79663Y409712D01*
X78728Y410555D01*
X77830Y411429D01*
X76970Y412334D01*
X76149Y413267D01*
X75365Y414228D01*
X74621Y415215D01*
X73917Y416227D01*
X73253Y417263D01*
X72629Y418322D01*
X72046Y419402D01*
X71505Y420502D01*
X71006Y421622D01*
X70549Y422759D01*
X70136Y423913D01*
X69766Y425082D01*
X69440Y426266D01*
X69158Y427462D01*
X68922Y428670D01*
X68731Y429889D01*
X68586Y431117D01*
X68487Y432353D01*
X68435Y433596D01*
X68431Y434845D01*
X68475Y436098D01*
X68567Y437355D01*
X68708Y438613D01*
X68797Y439243D01*
X68846Y439557D01*
X68853Y439602D01*
X68856Y439619D01*
X68861Y439654D01*
X68912Y440206D01*
X68900Y440750D01*
X68828Y441280D01*
X68700Y441793D01*
X68517Y442286D01*
X68284Y442754D01*
X68002Y443192D01*
X67674Y443599D01*
X67304Y443968D01*
X66894Y444297D01*
X66448Y444581D01*
X65967Y444817D01*
X65455Y445000D01*
X64915Y445126D01*
X64379Y445183D01*
X63848Y445179D01*
X63324Y445116D01*
X62812Y444998D01*
X62316Y444827D01*
X61840Y444606D01*
X61391Y444336D01*
X60972Y444022D01*
X60587Y443664D01*
X60243Y443267D01*
X59942Y442831D01*
X59690Y442360D01*
X59492Y441857D01*
X59352Y441323D01*
X59327Y441185D01*
X59321Y441150D01*
X59320Y441142D01*
X59314Y441105D01*
X59297Y441003D01*
X59235Y440595D01*
X59023Y438964D01*
X58876Y437335D01*
X58791Y435709D01*
X58769Y434088D01*
X21386Y530998D02*
X21418Y529733D01*
X21572Y528501D01*
X21842Y527308D01*
X22224Y526162D01*
X22710Y525068D01*
X23294Y524033D01*
X23972Y523061D01*
X24736Y522160D01*
X25580Y521335D01*
X26500Y520592D01*
X27488Y519937D01*
X28539Y519377D01*
X29646Y518916D01*
X30804Y518562D01*
X32007Y518320D01*
X33249Y518196D01*
X34516Y518196D01*
X35757Y518320D01*
X36960Y518562D01*
X38118Y518916D01*
X39226Y519377D01*
X40276Y519937D01*
X41265Y520592D01*
X42184Y521335D01*
X43029Y522160D01*
X43793Y523061D01*
X44470Y524033D01*
X45055Y525068D01*
X45541Y526162D01*
X45922Y527308D01*
X46193Y528501D01*
X46347Y529733D01*
X46378Y530998D01*
X46285Y532248D01*
X46072Y533461D01*
X45745Y534631D01*
X45311Y535752D01*
X44774Y536817D01*
X44143Y537822D01*
X43421Y538759D01*
X42616Y539623D01*
X41733Y540408D01*
X40779Y541107D01*
X39759Y541716D01*
X38679Y542227D01*
X37545Y542635D01*
X36364Y542934D01*
X35141Y543118D01*
X33882Y543180D01*
X32624Y543118D01*
X31401Y542934D01*
X30219Y542635D01*
X29086Y542227D01*
X28006Y541716D01*
X26986Y541107D01*
X26031Y540408D01*
X25148Y539623D01*
X24343Y538759D01*
X23622Y537822D01*
X22990Y536817D01*
X22454Y535752D01*
X22019Y534631D01*
X21693Y533461D01*
X21480Y532248D01*
X21386Y530998D01*
X323392Y530998D02*
X323424Y529733D01*
X323578Y528501D01*
X323848Y527308D01*
X324230Y526162D01*
X324716Y525068D01*
X325300Y524033D01*
X325978Y523061D01*
X326742Y522160D01*
X327586Y521335D01*
X328506Y520592D01*
X329494Y519937D01*
X330545Y519377D01*
X331652Y518916D01*
X332810Y518562D01*
X334013Y518320D01*
X335255Y518196D01*
X336522Y518196D01*
X337763Y518320D01*
X338966Y518562D01*
X340124Y518916D01*
X341232Y519377D01*
X342282Y519937D01*
X343271Y520592D01*
X344190Y521335D01*
X345035Y522160D01*
X345799Y523061D01*
X346476Y524033D01*
X347061Y525068D01*
X347547Y526162D01*
X347928Y527308D01*
X348199Y528501D01*
X348353Y529733D01*
X348384Y530998D01*
X348291Y532248D01*
X348078Y533461D01*
X347751Y534631D01*
X347317Y535752D01*
X346780Y536817D01*
X346149Y537822D01*
X345427Y538759D01*
X344622Y539623D01*
X343739Y540408D01*
X342785Y541107D01*
X341765Y541716D01*
X340685Y542227D01*
X339551Y542635D01*
X338370Y542934D01*
X337147Y543118D01*
X335888Y543180D01*
X334630Y543118D01*
X333407Y542934D01*
X332225Y542635D01*
X331092Y542227D01*
X330012Y541716D01*
X328992Y541107D01*
X328037Y540408D01*
X327154Y539623D01*
X326349Y538759D01*
X325628Y537822D01*
X324996Y536817D01*
X324460Y535752D01*
X324025Y534631D01*
X323699Y533461D01*
X323486Y532248D01*
X323392Y530998D01*
X72445Y463373D02*
X72454Y462942D01*
X72501Y462512D01*
X72587Y462087D01*
X72711Y461668D01*
X72875Y461258D01*
X73079Y460861D01*
X73323Y460479D01*
X73577Y460149D01*
X73749Y459954D01*
X73930Y459772D01*
X74118Y459600D01*
X74313Y459440D01*
X74515Y459292D01*
X74724Y459155D01*
X74938Y459029D01*
X75157Y458916D01*
X75380Y458814D01*
X75608Y458724D01*
X75840Y458646D01*
X76074Y458580D01*
X76311Y458525D01*
X76550Y458483D01*
X76791Y458452D01*
X77033Y458434D01*
X77275Y458428D01*
X77463Y458432D01*
X77651Y458443D01*
X77839Y458461D01*
X78026Y458487D01*
X78213Y458519D01*
X78398Y458560D01*
X78582Y458607D01*
X78765Y458663D01*
X78946Y458725D01*
X79125Y458795D01*
X79302Y458872D01*
X79477Y458957D01*
X79648Y459050D01*
X79817Y459149D01*
X79983Y459257D01*
X80145Y459372D01*
X80304Y459494D01*
X80667Y459788D01*
X81096Y460124D01*
X81530Y460453D01*
X81970Y460775D01*
X82416Y461089D01*
X82868Y461396D01*
X83326Y461696D01*
X83789Y461988D01*
X84258Y462273D01*
X84732Y462550D01*
X85212Y462820D01*
X85696Y463082D01*
X86186Y463336D01*
X86681Y463583D01*
X87180Y463821D01*
X87685Y464052D01*
X88194Y464275D01*
X89503Y464803D01*
X91473Y465478D01*
X93467Y466023D01*
X95478Y466437D01*
X97501Y466723D01*
X99531Y466880D01*
X101561Y466910D01*
X103585Y466813D01*
X105597Y466591D01*
X107592Y466245D01*
X109563Y465774D01*
X111505Y465181D01*
X113411Y464465D01*
X115277Y463628D01*
X117095Y462671D01*
X118860Y461595D01*
X120566Y460399D01*
X121788Y459442D01*
X122161Y459183D01*
X122551Y458963D01*
X122955Y458783D01*
X123369Y458642D01*
X123792Y458539D01*
X124221Y458476D01*
X124652Y458451D01*
X125083Y458464D01*
X125511Y458515D01*
X125933Y458604D01*
X126347Y458731D01*
X126750Y458895D01*
X127139Y459096D01*
X127511Y459334D01*
X127864Y459609D01*
X128194Y459920D01*
X128499Y460268D01*
X128767Y460639D01*
X128996Y461027D01*
X129185Y461430D01*
X129335Y461843D01*
X129446Y462265D01*
X129518Y462693D01*
X129551Y463124D01*
X129546Y463555D01*
X129503Y463983D01*
X129422Y464406D01*
X129303Y464822D01*
X129147Y465227D01*
X128954Y465618D01*
X128724Y465993D01*
X128458Y466349D01*
X128155Y466684D01*
X127816Y466994D01*
X125862Y468500D01*
X123633Y470012D01*
X121329Y471371D01*
X118959Y472575D01*
X116529Y473623D01*
X114049Y474513D01*
X111524Y475245D01*
X108963Y475818D01*
X106374Y476230D01*
X103763Y476481D01*
X101139Y476569D01*
X98508Y476494D01*
X95879Y476253D01*
X93259Y475847D01*
X90655Y475274D01*
X88075Y474532D01*
X85527Y473622D01*
X84245Y473093D01*
X83588Y472802D01*
X82937Y472501D01*
X82292Y472189D01*
X81653Y471868D01*
X81021Y471536D01*
X80395Y471194D01*
X79776Y470843D01*
X79163Y470481D01*
X78557Y470110D01*
X77959Y469728D01*
X77367Y469338D01*
X76782Y468937D01*
X76204Y468527D01*
X75634Y468107D01*
X75071Y467678D01*
X74516Y467240D01*
X74055Y466859D01*
X73729Y466539D01*
X73440Y466197D01*
X73187Y465833D01*
X72970Y465452D01*
X72790Y465056D01*
X72648Y464647D01*
X72543Y464228D01*
X72475Y463803D01*
X72445Y463373D01*
X323392Y32650D02*
X323424Y31385D01*
X323578Y30153D01*
X323848Y28960D01*
X324230Y27814D01*
X324716Y26720D01*
X325300Y25685D01*
X325978Y24713D01*
X326742Y23812D01*
X327586Y22987D01*
X328506Y22244D01*
X329494Y21589D01*
X330545Y21029D01*
X331652Y20568D01*
X332810Y20214D01*
X334013Y19972D01*
X335255Y19848D01*
X336522Y19848D01*
X337763Y19972D01*
X338966Y20214D01*
X340124Y20568D01*
X341232Y21029D01*
X342282Y21589D01*
X343271Y22244D01*
X344190Y22987D01*
X345035Y23812D01*
X345799Y24713D01*
X346476Y25685D01*
X347061Y26720D01*
X347547Y27814D01*
X347928Y28960D01*
X348199Y30153D01*
X348353Y31385D01*
X348384Y32650D01*
X348291Y33900D01*
X348078Y35113D01*
X347751Y36283D01*
X347317Y37404D01*
X346780Y38469D01*
X346149Y39474D01*
X345427Y40411D01*
X344622Y41275D01*
X343739Y42060D01*
X342785Y42759D01*
X341765Y43368D01*
X340685Y43879D01*
X339551Y44287D01*
X338370Y44586D01*
X337147Y44770D01*
X335888Y44832D01*
X334630Y44770D01*
X333407Y44586D01*
X332225Y44287D01*
X331092Y43879D01*
X330012Y43368D01*
X328992Y42759D01*
X328037Y42060D01*
X327154Y41275D01*
X326349Y40411D01*
X325628Y39474D01*
X324996Y38469D01*
X324460Y37404D01*
X324025Y36283D01*
X323699Y35113D01*
X323486Y33900D01*
X323392Y32650D01*
X60617Y224509D02*
X60636Y224090D01*
X60690Y223676D01*
X60781Y223267D01*
X60907Y222868D01*
X61067Y222481D01*
X61260Y222110D01*
X61485Y221757D01*
X61740Y221425D01*
X62022Y221116D01*
X62331Y220834D01*
X62663Y220579D01*
X63016Y220354D01*
X63387Y220161D01*
X63774Y220001D01*
X64173Y219875D01*
X64582Y219784D01*
X64997Y219730D01*
X65415Y219711D01*
X134834Y219711D01*
X135278Y219706D01*
X135721Y219739D01*
X136159Y219811D01*
X136589Y219921D01*
X137007Y220068D01*
X137412Y220251D01*
X137799Y220468D01*
X138165Y220718D01*
X138509Y221000D01*
X138826Y221310D01*
X139116Y221646D01*
X139374Y222007D01*
X139601Y222388D01*
X139793Y222788D01*
X139950Y223204D01*
X140070Y223631D01*
X140152Y224067D01*
X140196Y224509D01*
X140201Y224952D01*
X140168Y225395D01*
X140096Y225833D01*
X139986Y226263D01*
X139839Y226682D01*
X139657Y227086D01*
X139439Y227473D01*
X139189Y227840D01*
X138908Y228183D01*
X138598Y228501D01*
X138261Y228790D01*
X137901Y229049D01*
X137519Y229275D01*
X137119Y229467D01*
X136704Y229624D01*
X136277Y229744D01*
X135840Y229826D01*
X135399Y229870D01*
X65697Y229870D01*
X65254Y229851D01*
X64815Y229793D01*
X64382Y229697D01*
X63960Y229564D01*
X63550Y229394D01*
X63157Y229190D01*
X62783Y228952D01*
X62432Y228682D01*
X62105Y228383D01*
X61806Y228056D01*
X61536Y227704D01*
X61298Y227331D01*
X61093Y226937D01*
X60924Y226528D01*
X60790Y226105D01*
X60695Y225673D01*
X60637Y225233D01*
X60617Y224791D01*
X60617Y224509D01*
X60900Y306063D02*
X60918Y305645D01*
X60972Y305230D01*
X61063Y304821D01*
X61189Y304422D01*
X61349Y304035D01*
X61542Y303664D01*
X61767Y303311D01*
X62022Y302979D01*
X62305Y302670D01*
X62613Y302388D01*
X62945Y302133D01*
X63298Y301908D01*
X63669Y301715D01*
X64056Y301555D01*
X64455Y301429D01*
X64864Y301338D01*
X65279Y301284D01*
X65697Y301265D01*
X135117Y301265D01*
X135560Y301260D01*
X136003Y301294D01*
X136441Y301365D01*
X136871Y301475D01*
X137290Y301622D01*
X137694Y301805D01*
X138081Y302022D01*
X138448Y302272D01*
X138791Y302554D01*
X139108Y302864D01*
X139398Y303200D01*
X139657Y303561D01*
X139883Y303942D01*
X140075Y304342D01*
X140232Y304758D01*
X140352Y305185D01*
X140434Y305621D01*
X140478Y306063D01*
X140483Y306506D01*
X140450Y306949D01*
X140378Y307387D01*
X140268Y307817D01*
X140122Y308236D01*
X139939Y308640D01*
X139721Y309027D01*
X139471Y309394D01*
X139190Y309737D01*
X138880Y310055D01*
X138543Y310344D01*
X138183Y310603D01*
X137801Y310829D01*
X137401Y311021D01*
X136986Y311178D01*
X136559Y311298D01*
X136123Y311380D01*
X135681Y311424D01*
X65979Y311424D01*
X65536Y311405D01*
X65097Y311347D01*
X64664Y311251D01*
X64242Y311118D01*
X63832Y310948D01*
X63439Y310744D01*
X63066Y310506D01*
X62714Y310236D01*
X62387Y309937D01*
X62088Y309610D01*
X61818Y309258D01*
X61580Y308885D01*
X61375Y308492D01*
X61206Y308082D01*
X61073Y307659D01*
X60977Y307227D01*
X60919Y306788D01*
X60900Y306345D01*
X60900Y306063D01*
X340311Y464498D02*
X340311Y465644D01*
X340236Y466787D01*
X340086Y467923D01*
X339863Y469047D01*
X339566Y470154D01*
X339198Y471239D01*
X338759Y472297D01*
X338253Y473325D01*
X337680Y474317D01*
X337043Y475270D01*
X336346Y476179D01*
X335590Y477040D01*
X334780Y477851D01*
X333919Y478606D01*
X333009Y479304D01*
X332057Y479940D01*
X331065Y480513D01*
X330037Y481020D01*
X328978Y481458D01*
X327893Y481827D01*
X326787Y482123D01*
X325663Y482347D01*
X324527Y482496D01*
X323384Y482571D01*
X322238Y482571D01*
X321094Y482496D01*
X319958Y482347D01*
X318835Y482123D01*
X317728Y481827D01*
X316643Y481458D01*
X315584Y481020D01*
X314557Y480513D01*
X313565Y479940D01*
X312612Y479304D01*
X311703Y478606D01*
X310841Y477851D01*
X310031Y477040D01*
X309276Y476179D01*
X308578Y475270D01*
X307942Y474317D01*
X307369Y473325D01*
X306862Y472297D01*
X306424Y471239D01*
X306055Y470154D01*
X305759Y469047D01*
X305535Y467923D01*
X305386Y466787D01*
X305311Y465644D01*
X305311Y464498D01*
X305386Y463355D01*
X305535Y462219D01*
X305759Y461095D01*
X306055Y459988D01*
X306424Y458903D01*
X306862Y457845D01*
X307369Y456817D01*
X307942Y455825D01*
X308578Y454872D01*
X309276Y453963D01*
X310031Y453102D01*
X310841Y452292D01*
X311703Y451536D01*
X312612Y450839D01*
X313565Y450202D01*
X314557Y449629D01*
X315584Y449123D01*
X316643Y448684D01*
X317728Y448316D01*
X318835Y448019D01*
X319958Y447796D01*
X321094Y447646D01*
X322238Y447571D01*
X323384Y447571D01*
X324527Y447646D01*
X325663Y447796D01*
X326787Y448019D01*
X327893Y448316D01*
X328978Y448684D01*
X330037Y449123D01*
X331065Y449629D01*
X332057Y450202D01*
X333009Y450839D01*
X333919Y451536D01*
X334780Y452292D01*
X335590Y453102D01*
X336346Y453963D01*
X337043Y454872D01*
X337680Y455825D01*
X338253Y456817D01*
X338759Y457845D01*
X339198Y458903D01*
X339566Y459988D01*
X339863Y461095D01*
X340086Y462219D01*
X340236Y463355D01*
X340311Y464498D01*
M02*
