G04 EAGLE Gerber RS-274X export*
G75*
%MOMM*%
%FSLAX34Y34*%
%LPD*%
%INInner Layer 2*%
%IPPOS*%
%AMOC8*
5,1,8,0,0,1.08239X$1,22.5*%
G01*
%ADD10C,1.308000*%
%ADD11C,0.706400*%
%ADD12C,0.250000*%
%ADD13C,0.200000*%
%ADD14C,0.400000*%
%ADD15C,0.756400*%
%ADD16C,0.350000*%

G36*
X334551Y5080D02*
X334551Y5080D01*
X334582Y5078D01*
X338158Y5312D01*
X338267Y5335D01*
X338351Y5344D01*
X345260Y7195D01*
X345425Y7266D01*
X345501Y7295D01*
X351695Y10871D01*
X351837Y10983D01*
X351902Y11030D01*
X356959Y16087D01*
X357067Y16232D01*
X357118Y16294D01*
X360694Y22488D01*
X360761Y22656D01*
X360794Y22729D01*
X362645Y29638D01*
X362658Y29748D01*
X362677Y29831D01*
X362911Y33407D01*
X362909Y33442D01*
X362913Y33473D01*
X362913Y51323D01*
X365553Y59448D01*
X370575Y66359D01*
X377486Y71381D01*
X385611Y74021D01*
X560720Y74021D01*
X560741Y74024D01*
X560758Y74024D01*
X560773Y74026D01*
X560798Y74024D01*
X563158Y74210D01*
X563297Y74241D01*
X563388Y74255D01*
X567876Y75714D01*
X567878Y75715D01*
X567880Y75715D01*
X567911Y75731D01*
X568129Y75838D01*
X568142Y75849D01*
X568155Y75856D01*
X571972Y78629D01*
X571974Y78631D01*
X571976Y78632D01*
X572000Y78656D01*
X572175Y78825D01*
X572183Y78840D01*
X572193Y78850D01*
X574967Y82668D01*
X574968Y82670D01*
X574970Y82671D01*
X574986Y82703D01*
X575099Y82917D01*
X575102Y82933D01*
X575109Y82946D01*
X576567Y87434D01*
X576592Y87576D01*
X576613Y87665D01*
X576799Y90024D01*
X576796Y90066D01*
X576802Y90103D01*
X576802Y461481D01*
X576786Y461590D01*
X576777Y461701D01*
X576766Y461730D01*
X576762Y461760D01*
X576717Y461861D01*
X576677Y461964D01*
X576659Y461989D01*
X576646Y462017D01*
X576574Y462101D01*
X576508Y462189D01*
X576483Y462208D01*
X576462Y462232D01*
X576370Y462292D01*
X576282Y462358D01*
X576252Y462369D01*
X576226Y462386D01*
X576121Y462418D01*
X576018Y462457D01*
X575986Y462459D01*
X575957Y462469D01*
X575846Y462470D01*
X575736Y462478D01*
X575706Y462472D01*
X575675Y462472D01*
X575568Y462443D01*
X575460Y462420D01*
X575433Y462405D01*
X575403Y462397D01*
X575309Y462339D01*
X575212Y462287D01*
X575191Y462266D01*
X575163Y462249D01*
X575057Y462132D01*
X574994Y462069D01*
X570257Y455548D01*
X563420Y451601D01*
X555568Y450776D01*
X548060Y453215D01*
X542193Y458498D01*
X538982Y465710D01*
X538982Y473604D01*
X542193Y480816D01*
X548060Y486099D01*
X555568Y488538D01*
X563420Y487713D01*
X570257Y483766D01*
X574994Y477245D01*
X575071Y477166D01*
X575143Y477082D01*
X575169Y477065D01*
X575190Y477043D01*
X575286Y476988D01*
X575379Y476928D01*
X575408Y476919D01*
X575436Y476903D01*
X575543Y476878D01*
X575648Y476845D01*
X575680Y476845D01*
X575710Y476838D01*
X575820Y476843D01*
X575930Y476842D01*
X575960Y476850D01*
X575992Y476852D01*
X576096Y476887D01*
X576202Y476917D01*
X576229Y476933D01*
X576258Y476943D01*
X576348Y477007D01*
X576442Y477065D01*
X576463Y477088D01*
X576489Y477106D01*
X576557Y477192D01*
X576631Y477274D01*
X576645Y477302D01*
X576664Y477327D01*
X576706Y477429D01*
X576754Y477528D01*
X576759Y477557D01*
X576771Y477588D01*
X576788Y477744D01*
X576802Y477833D01*
X576802Y531774D01*
X576797Y531808D01*
X576800Y531839D01*
X576581Y535168D01*
X576559Y535277D01*
X576550Y535361D01*
X574826Y541792D01*
X574756Y541958D01*
X574727Y542033D01*
X571398Y547799D01*
X571286Y547941D01*
X571239Y548005D01*
X566531Y552713D01*
X566387Y552821D01*
X566324Y552872D01*
X560559Y556201D01*
X560391Y556268D01*
X560318Y556301D01*
X553887Y558024D01*
X553777Y558037D01*
X553693Y558056D01*
X550365Y558274D01*
X550330Y558271D01*
X550299Y558276D01*
X524978Y558276D01*
X524893Y558264D01*
X524806Y558261D01*
X524754Y558244D01*
X524699Y558236D01*
X524620Y558201D01*
X524538Y558174D01*
X524492Y558143D01*
X524442Y558120D01*
X524376Y558064D01*
X524305Y558015D01*
X524270Y557972D01*
X524228Y557937D01*
X524180Y557864D01*
X524125Y557797D01*
X524104Y557747D01*
X524074Y557701D01*
X524048Y557618D01*
X524014Y557538D01*
X524007Y557483D01*
X523991Y557431D01*
X523990Y557344D01*
X523979Y557258D01*
X523988Y557204D01*
X523987Y557149D01*
X524011Y557065D01*
X524024Y556980D01*
X524048Y556930D01*
X524063Y556877D01*
X524108Y556803D01*
X524146Y556725D01*
X524182Y556684D01*
X524211Y556637D01*
X524275Y556579D01*
X524333Y556514D01*
X524376Y556488D01*
X524420Y556448D01*
X524522Y556398D01*
X524596Y556354D01*
X524809Y556265D01*
X526365Y554709D01*
X527208Y552676D01*
X527208Y550474D01*
X526365Y548441D01*
X524809Y546885D01*
X522776Y546042D01*
X520574Y546042D01*
X518541Y546885D01*
X516985Y548441D01*
X516142Y550474D01*
X516142Y552676D01*
X516985Y554709D01*
X518541Y556265D01*
X518754Y556354D01*
X518829Y556398D01*
X518908Y556434D01*
X518949Y556469D01*
X518997Y556497D01*
X519056Y556560D01*
X519122Y556617D01*
X519152Y556663D01*
X519190Y556703D01*
X519229Y556780D01*
X519276Y556853D01*
X519292Y556905D01*
X519317Y556954D01*
X519333Y557040D01*
X519359Y557123D01*
X519360Y557178D01*
X519370Y557231D01*
X519361Y557318D01*
X519363Y557405D01*
X519348Y557458D01*
X519343Y557512D01*
X519311Y557593D01*
X519287Y557676D01*
X519259Y557723D01*
X519238Y557774D01*
X519185Y557843D01*
X519139Y557916D01*
X519098Y557953D01*
X519065Y557996D01*
X518994Y558047D01*
X518930Y558105D01*
X518880Y558129D01*
X518836Y558162D01*
X518754Y558191D01*
X518676Y558228D01*
X518626Y558236D01*
X518570Y558256D01*
X518457Y558263D01*
X518372Y558276D01*
X504978Y558276D01*
X504893Y558264D01*
X504806Y558261D01*
X504754Y558244D01*
X504699Y558236D01*
X504620Y558201D01*
X504538Y558174D01*
X504492Y558143D01*
X504442Y558120D01*
X504376Y558064D01*
X504305Y558015D01*
X504270Y557972D01*
X504228Y557937D01*
X504180Y557864D01*
X504125Y557797D01*
X504104Y557747D01*
X504074Y557701D01*
X504048Y557618D01*
X504014Y557538D01*
X504007Y557483D01*
X503991Y557431D01*
X503990Y557344D01*
X503979Y557258D01*
X503988Y557204D01*
X503987Y557149D01*
X504011Y557065D01*
X504024Y556980D01*
X504048Y556930D01*
X504063Y556877D01*
X504108Y556803D01*
X504146Y556725D01*
X504182Y556684D01*
X504211Y556637D01*
X504275Y556579D01*
X504333Y556514D01*
X504376Y556488D01*
X504420Y556448D01*
X504522Y556398D01*
X504596Y556354D01*
X504809Y556265D01*
X506365Y554709D01*
X507208Y552676D01*
X507208Y550474D01*
X506365Y548441D01*
X504809Y546885D01*
X502776Y546042D01*
X500574Y546042D01*
X498541Y546885D01*
X496985Y548441D01*
X496142Y550474D01*
X496142Y552676D01*
X496985Y554709D01*
X498541Y556265D01*
X498754Y556354D01*
X498829Y556398D01*
X498908Y556434D01*
X498949Y556469D01*
X498997Y556497D01*
X499056Y556560D01*
X499122Y556617D01*
X499152Y556663D01*
X499190Y556703D01*
X499229Y556780D01*
X499276Y556853D01*
X499292Y556905D01*
X499317Y556954D01*
X499333Y557040D01*
X499359Y557123D01*
X499360Y557178D01*
X499370Y557231D01*
X499361Y557318D01*
X499363Y557405D01*
X499348Y557458D01*
X499343Y557512D01*
X499311Y557593D01*
X499287Y557676D01*
X499259Y557723D01*
X499238Y557774D01*
X499185Y557843D01*
X499139Y557916D01*
X499098Y557953D01*
X499065Y557996D01*
X498994Y558047D01*
X498930Y558105D01*
X498880Y558129D01*
X498836Y558162D01*
X498754Y558191D01*
X498676Y558228D01*
X498626Y558236D01*
X498570Y558256D01*
X498457Y558263D01*
X498372Y558276D01*
X484978Y558276D01*
X484893Y558264D01*
X484806Y558261D01*
X484754Y558244D01*
X484699Y558236D01*
X484620Y558201D01*
X484538Y558174D01*
X484492Y558143D01*
X484442Y558120D01*
X484376Y558064D01*
X484305Y558015D01*
X484270Y557972D01*
X484228Y557937D01*
X484180Y557864D01*
X484125Y557797D01*
X484104Y557747D01*
X484074Y557701D01*
X484048Y557618D01*
X484014Y557538D01*
X484007Y557483D01*
X483991Y557431D01*
X483990Y557344D01*
X483979Y557258D01*
X483988Y557204D01*
X483987Y557149D01*
X484011Y557065D01*
X484024Y556980D01*
X484048Y556930D01*
X484063Y556877D01*
X484108Y556803D01*
X484146Y556725D01*
X484182Y556684D01*
X484211Y556637D01*
X484275Y556579D01*
X484333Y556514D01*
X484376Y556488D01*
X484420Y556448D01*
X484522Y556398D01*
X484596Y556354D01*
X484809Y556265D01*
X486365Y554709D01*
X487208Y552676D01*
X487208Y550474D01*
X486365Y548441D01*
X484809Y546885D01*
X482776Y546042D01*
X480574Y546042D01*
X478541Y546885D01*
X476985Y548441D01*
X476142Y550474D01*
X476142Y552676D01*
X476985Y554709D01*
X478541Y556265D01*
X478754Y556354D01*
X478829Y556398D01*
X478908Y556434D01*
X478949Y556469D01*
X478997Y556497D01*
X479056Y556560D01*
X479122Y556617D01*
X479152Y556663D01*
X479190Y556703D01*
X479229Y556780D01*
X479276Y556853D01*
X479292Y556905D01*
X479317Y556954D01*
X479333Y557040D01*
X479359Y557123D01*
X479360Y557178D01*
X479370Y557231D01*
X479361Y557318D01*
X479363Y557405D01*
X479348Y557458D01*
X479343Y557512D01*
X479311Y557593D01*
X479287Y557676D01*
X479259Y557723D01*
X479238Y557774D01*
X479185Y557843D01*
X479139Y557916D01*
X479098Y557953D01*
X479065Y557996D01*
X478994Y558047D01*
X478930Y558105D01*
X478880Y558129D01*
X478836Y558162D01*
X478754Y558191D01*
X478676Y558228D01*
X478626Y558236D01*
X478570Y558256D01*
X478457Y558263D01*
X478372Y558276D01*
X464978Y558276D01*
X464893Y558264D01*
X464806Y558261D01*
X464754Y558244D01*
X464699Y558236D01*
X464620Y558201D01*
X464538Y558174D01*
X464492Y558143D01*
X464442Y558120D01*
X464376Y558064D01*
X464305Y558015D01*
X464270Y557972D01*
X464228Y557937D01*
X464180Y557864D01*
X464125Y557797D01*
X464104Y557747D01*
X464074Y557701D01*
X464048Y557618D01*
X464014Y557538D01*
X464007Y557483D01*
X463991Y557431D01*
X463990Y557344D01*
X463979Y557258D01*
X463988Y557204D01*
X463987Y557149D01*
X464011Y557065D01*
X464024Y556980D01*
X464048Y556930D01*
X464063Y556877D01*
X464108Y556803D01*
X464146Y556725D01*
X464182Y556684D01*
X464211Y556637D01*
X464275Y556579D01*
X464333Y556514D01*
X464376Y556488D01*
X464420Y556448D01*
X464522Y556398D01*
X464596Y556354D01*
X464809Y556265D01*
X466365Y554709D01*
X467208Y552676D01*
X467208Y550474D01*
X466365Y548441D01*
X464809Y546885D01*
X462776Y546042D01*
X460574Y546042D01*
X458541Y546885D01*
X456985Y548441D01*
X456142Y550474D01*
X456142Y552676D01*
X456985Y554709D01*
X458541Y556265D01*
X458754Y556354D01*
X458829Y556398D01*
X458908Y556434D01*
X458949Y556469D01*
X458997Y556497D01*
X459056Y556560D01*
X459122Y556617D01*
X459152Y556663D01*
X459190Y556703D01*
X459229Y556780D01*
X459276Y556853D01*
X459292Y556905D01*
X459317Y556954D01*
X459333Y557040D01*
X459359Y557123D01*
X459360Y557178D01*
X459370Y557231D01*
X459361Y557318D01*
X459363Y557405D01*
X459348Y557458D01*
X459343Y557512D01*
X459311Y557593D01*
X459287Y557676D01*
X459259Y557723D01*
X459238Y557774D01*
X459185Y557843D01*
X459139Y557916D01*
X459098Y557953D01*
X459065Y557996D01*
X458994Y558047D01*
X458930Y558105D01*
X458880Y558129D01*
X458836Y558162D01*
X458754Y558191D01*
X458676Y558228D01*
X458626Y558236D01*
X458570Y558256D01*
X458457Y558263D01*
X458372Y558276D01*
X361212Y558276D01*
X361095Y558259D01*
X360977Y558248D01*
X360955Y558239D01*
X360933Y558236D01*
X360825Y558187D01*
X360715Y558143D01*
X360697Y558129D01*
X360676Y558120D01*
X360586Y558043D01*
X360492Y557970D01*
X360479Y557951D01*
X360462Y557937D01*
X360396Y557837D01*
X360327Y557741D01*
X360320Y557720D01*
X360307Y557701D01*
X360272Y557587D01*
X360233Y557476D01*
X360231Y557453D01*
X360225Y557431D01*
X360223Y557312D01*
X360216Y557194D01*
X360221Y557173D01*
X360221Y557149D01*
X360271Y556969D01*
X360289Y556894D01*
X361426Y554149D01*
X361426Y550238D01*
X359929Y546625D01*
X357164Y543860D01*
X353551Y542363D01*
X349640Y542363D01*
X346026Y543860D01*
X343261Y546625D01*
X341764Y550238D01*
X341764Y554149D01*
X342901Y556894D01*
X342931Y557009D01*
X342965Y557123D01*
X342966Y557145D01*
X342971Y557168D01*
X342968Y557286D01*
X342969Y557405D01*
X342963Y557427D01*
X342962Y557449D01*
X342926Y557562D01*
X342894Y557676D01*
X342882Y557696D01*
X342875Y557718D01*
X342808Y557815D01*
X342746Y557916D01*
X342729Y557932D01*
X342716Y557951D01*
X342625Y558026D01*
X342537Y558105D01*
X342516Y558115D01*
X342498Y558130D01*
X342389Y558177D01*
X342283Y558228D01*
X342261Y558232D01*
X342239Y558241D01*
X342055Y558264D01*
X341978Y558276D01*
X338212Y558276D01*
X338095Y558259D01*
X337977Y558248D01*
X337955Y558239D01*
X337933Y558236D01*
X337825Y558187D01*
X337715Y558143D01*
X337697Y558129D01*
X337676Y558120D01*
X337586Y558043D01*
X337492Y557970D01*
X337479Y557951D01*
X337462Y557937D01*
X337396Y557837D01*
X337327Y557741D01*
X337320Y557720D01*
X337307Y557701D01*
X337272Y557587D01*
X337233Y557476D01*
X337231Y557453D01*
X337225Y557431D01*
X337223Y557312D01*
X337216Y557194D01*
X337221Y557173D01*
X337221Y557149D01*
X337271Y556969D01*
X337289Y556894D01*
X338426Y554149D01*
X338426Y550238D01*
X336929Y546625D01*
X334164Y543860D01*
X330551Y542363D01*
X326640Y542363D01*
X323026Y543860D01*
X320261Y546625D01*
X318764Y550238D01*
X318764Y554149D01*
X319901Y556894D01*
X319931Y557009D01*
X319965Y557123D01*
X319966Y557145D01*
X319971Y557168D01*
X319968Y557286D01*
X319969Y557405D01*
X319963Y557427D01*
X319962Y557449D01*
X319926Y557562D01*
X319894Y557676D01*
X319882Y557696D01*
X319875Y557718D01*
X319808Y557815D01*
X319746Y557916D01*
X319729Y557932D01*
X319716Y557951D01*
X319625Y558026D01*
X319537Y558105D01*
X319516Y558115D01*
X319498Y558130D01*
X319389Y558177D01*
X319283Y558228D01*
X319261Y558232D01*
X319239Y558241D01*
X319055Y558264D01*
X318978Y558276D01*
X272295Y558276D01*
X272178Y558259D01*
X272060Y558248D01*
X272039Y558239D01*
X272016Y558236D01*
X271908Y558187D01*
X271798Y558143D01*
X271780Y558129D01*
X271759Y558120D01*
X271669Y558043D01*
X271576Y557970D01*
X271562Y557951D01*
X271545Y557937D01*
X271480Y557837D01*
X271411Y557741D01*
X271403Y557720D01*
X271391Y557701D01*
X271356Y557587D01*
X271316Y557476D01*
X271315Y557453D01*
X271308Y557431D01*
X271307Y557312D01*
X271300Y557194D01*
X271305Y557173D01*
X271304Y557149D01*
X271354Y556969D01*
X271372Y556894D01*
X272217Y554854D01*
X272217Y551456D01*
X272027Y550998D01*
X272003Y550904D01*
X271971Y550814D01*
X271969Y550768D01*
X271957Y550724D01*
X271960Y550628D01*
X271955Y550532D01*
X271965Y550491D01*
X271966Y550442D01*
X272006Y550321D01*
X272027Y550233D01*
X272217Y549774D01*
X272217Y546376D01*
X270917Y543237D01*
X268515Y540835D01*
X265376Y539534D01*
X261978Y539534D01*
X258839Y540835D01*
X256436Y543237D01*
X255136Y546376D01*
X255136Y549774D01*
X255326Y550233D01*
X255350Y550326D01*
X255382Y550416D01*
X255385Y550462D01*
X255396Y550506D01*
X255393Y550602D01*
X255399Y550698D01*
X255389Y550739D01*
X255387Y550788D01*
X255347Y550909D01*
X255326Y550998D01*
X255136Y551456D01*
X255136Y554854D01*
X255981Y556894D01*
X256011Y557009D01*
X256045Y557123D01*
X256046Y557145D01*
X256051Y557168D01*
X256047Y557286D01*
X256049Y557405D01*
X256043Y557427D01*
X256042Y557449D01*
X256005Y557562D01*
X255974Y557676D01*
X255962Y557696D01*
X255955Y557718D01*
X255888Y557815D01*
X255826Y557916D01*
X255809Y557932D01*
X255796Y557951D01*
X255704Y558026D01*
X255616Y558105D01*
X255596Y558115D01*
X255578Y558130D01*
X255469Y558177D01*
X255363Y558228D01*
X255341Y558232D01*
X255319Y558241D01*
X255134Y558264D01*
X255058Y558276D01*
X202191Y558276D01*
X202074Y558259D01*
X201956Y558248D01*
X201935Y558239D01*
X201912Y558236D01*
X201804Y558187D01*
X201694Y558143D01*
X201676Y558129D01*
X201655Y558120D01*
X201565Y558043D01*
X201472Y557970D01*
X201458Y557951D01*
X201441Y557937D01*
X201376Y557837D01*
X201307Y557741D01*
X201299Y557720D01*
X201287Y557701D01*
X201252Y557587D01*
X201212Y557476D01*
X201211Y557453D01*
X201204Y557431D01*
X201203Y557312D01*
X201196Y557194D01*
X201201Y557173D01*
X201200Y557149D01*
X201250Y556969D01*
X201268Y556894D01*
X202113Y554854D01*
X202113Y551456D01*
X201923Y550997D01*
X201900Y550904D01*
X201867Y550814D01*
X201865Y550768D01*
X201853Y550724D01*
X201856Y550628D01*
X201851Y550532D01*
X201861Y550491D01*
X201862Y550442D01*
X201902Y550321D01*
X201923Y550233D01*
X202113Y549774D01*
X202113Y546376D01*
X200813Y543237D01*
X198411Y540835D01*
X195272Y539534D01*
X191874Y539534D01*
X188735Y540835D01*
X186332Y543237D01*
X185032Y546376D01*
X185032Y549774D01*
X185222Y550233D01*
X185246Y550326D01*
X185278Y550416D01*
X185281Y550462D01*
X185292Y550506D01*
X185289Y550602D01*
X185295Y550698D01*
X185285Y550739D01*
X185283Y550788D01*
X185243Y550909D01*
X185222Y550997D01*
X185032Y551456D01*
X185032Y554854D01*
X185877Y556894D01*
X185907Y557009D01*
X185941Y557123D01*
X185942Y557145D01*
X185947Y557168D01*
X185943Y557286D01*
X185945Y557405D01*
X185939Y557427D01*
X185938Y557449D01*
X185901Y557562D01*
X185870Y557676D01*
X185858Y557696D01*
X185851Y557718D01*
X185784Y557815D01*
X185722Y557916D01*
X185705Y557932D01*
X185692Y557951D01*
X185600Y558026D01*
X185512Y558105D01*
X185492Y558115D01*
X185474Y558130D01*
X185365Y558177D01*
X185259Y558228D01*
X185237Y558232D01*
X185215Y558241D01*
X185030Y558264D01*
X184954Y558276D01*
X182626Y558276D01*
X182574Y558269D01*
X182528Y558271D01*
X182214Y558240D01*
X181940Y558173D01*
X181935Y558170D01*
X181930Y558169D01*
X181350Y557929D01*
X181314Y557908D01*
X181274Y557894D01*
X181205Y557843D01*
X181107Y557785D01*
X181067Y557742D01*
X181025Y557712D01*
X180582Y557268D01*
X180557Y557235D01*
X180525Y557207D01*
X180481Y557134D01*
X180412Y557043D01*
X180391Y556988D01*
X180365Y556944D01*
X180125Y556364D01*
X180055Y556091D01*
X180055Y556085D01*
X180053Y556079D01*
X180022Y555765D01*
X180025Y555713D01*
X180018Y555668D01*
X180018Y548713D01*
X177434Y542476D01*
X172661Y537702D01*
X166423Y535119D01*
X93443Y535119D01*
X87167Y537718D01*
X82364Y542522D01*
X79764Y548797D01*
X79764Y555562D01*
X79757Y555614D01*
X79759Y555660D01*
X79726Y555995D01*
X79659Y556269D01*
X79656Y556274D01*
X79655Y556279D01*
X79399Y556897D01*
X79378Y556933D01*
X79364Y556972D01*
X79313Y557042D01*
X79255Y557140D01*
X79213Y557180D01*
X79182Y557221D01*
X78709Y557694D01*
X78676Y557719D01*
X78648Y557751D01*
X78575Y557795D01*
X78484Y557864D01*
X78429Y557884D01*
X78385Y557911D01*
X77767Y558167D01*
X77494Y558237D01*
X77488Y558237D01*
X77483Y558238D01*
X77148Y558271D01*
X77096Y558269D01*
X77050Y558276D01*
X32525Y558276D01*
X32491Y558271D01*
X32460Y558274D01*
X29021Y558049D01*
X28912Y558026D01*
X28828Y558017D01*
X22185Y556237D01*
X22019Y556166D01*
X21944Y556137D01*
X15988Y552698D01*
X15845Y552586D01*
X15781Y552539D01*
X10918Y547676D01*
X10809Y547532D01*
X10759Y547469D01*
X7320Y541513D01*
X7253Y541345D01*
X7220Y541272D01*
X5440Y534629D01*
X5427Y534519D01*
X5408Y534436D01*
X5183Y530997D01*
X5186Y530962D01*
X5181Y530931D01*
X5181Y33473D01*
X5186Y33438D01*
X5183Y33407D01*
X5417Y29831D01*
X5440Y29722D01*
X5449Y29638D01*
X7300Y22729D01*
X7371Y22564D01*
X7400Y22488D01*
X10976Y16294D01*
X11088Y16152D01*
X11135Y16087D01*
X16193Y11030D01*
X16337Y10922D01*
X16400Y10871D01*
X22594Y7295D01*
X22761Y7228D01*
X22835Y7195D01*
X29743Y5344D01*
X29853Y5331D01*
X29936Y5312D01*
X33513Y5078D01*
X33547Y5080D01*
X33578Y5075D01*
X334516Y5075D01*
X334551Y5080D01*
G37*
%LPC*%
G36*
X523765Y88566D02*
X523765Y88566D01*
X523763Y88565D01*
X523761Y88566D01*
X522121Y88572D01*
X522106Y88574D01*
X502338Y88574D01*
X463791Y127121D01*
X463697Y127192D01*
X463605Y127267D01*
X463584Y127276D01*
X463566Y127290D01*
X463455Y127332D01*
X463346Y127379D01*
X463323Y127381D01*
X463302Y127389D01*
X463184Y127399D01*
X463066Y127413D01*
X463043Y127410D01*
X463021Y127411D01*
X462905Y127387D01*
X462788Y127368D01*
X462767Y127358D01*
X462745Y127354D01*
X462640Y127298D01*
X462533Y127247D01*
X462516Y127232D01*
X462496Y127221D01*
X462411Y127138D01*
X462322Y127060D01*
X462311Y127041D01*
X462294Y127024D01*
X462221Y126897D01*
X460634Y125310D01*
X458601Y124467D01*
X456399Y124467D01*
X454366Y125310D01*
X452810Y126866D01*
X451967Y128899D01*
X451967Y131101D01*
X452810Y133134D01*
X454396Y134720D01*
X454399Y134722D01*
X454503Y134778D01*
X454520Y134794D01*
X454539Y134805D01*
X454620Y134892D01*
X454705Y134974D01*
X454716Y134994D01*
X454732Y135011D01*
X454786Y135117D01*
X454844Y135220D01*
X454850Y135242D01*
X454860Y135262D01*
X454882Y135378D01*
X454909Y135494D01*
X454908Y135517D01*
X454912Y135539D01*
X454901Y135657D01*
X454895Y135776D01*
X454887Y135798D01*
X454885Y135820D01*
X454842Y135930D01*
X454802Y136042D01*
X454790Y136060D01*
X454781Y136082D01*
X454666Y136229D01*
X454621Y136291D01*
X413674Y177238D01*
X413674Y203177D01*
X469172Y258675D01*
X545773Y258675D01*
X562778Y241670D01*
X562778Y128926D01*
X562785Y128881D01*
X562778Y127274D01*
X562779Y127272D01*
X562778Y127270D01*
X562778Y126028D01*
X561897Y125154D01*
X561896Y125152D01*
X561894Y125151D01*
X560755Y124012D01*
X560721Y123987D01*
X527064Y90596D01*
X527037Y90560D01*
X525893Y89434D01*
X525891Y89432D01*
X525890Y89431D01*
X525007Y88556D01*
X523765Y88566D01*
G37*
%LPD*%
G36*
X523870Y90580D02*
X523870Y90580D01*
X523968Y90585D01*
X524010Y90599D01*
X524053Y90605D01*
X524142Y90644D01*
X524235Y90676D01*
X524268Y90700D01*
X524311Y90719D01*
X524411Y90803D01*
X524485Y90857D01*
X560481Y126569D01*
X560541Y126647D01*
X560606Y126720D01*
X560625Y126759D01*
X560652Y126794D01*
X560686Y126885D01*
X560729Y126974D01*
X560736Y127014D01*
X560752Y127057D01*
X560763Y127188D01*
X560777Y127278D01*
X560777Y240427D01*
X560763Y240522D01*
X560758Y240618D01*
X560743Y240661D01*
X560737Y240706D01*
X560697Y240794D01*
X560666Y240885D01*
X560641Y240919D01*
X560621Y240963D01*
X560542Y241056D01*
X560518Y241094D01*
X560504Y241107D01*
X560484Y241134D01*
X545237Y256381D01*
X545160Y256439D01*
X545089Y256503D01*
X545048Y256523D01*
X545011Y256550D01*
X544921Y256584D01*
X544835Y256626D01*
X544793Y256633D01*
X544747Y256650D01*
X544620Y256660D01*
X544530Y256674D01*
X470415Y256674D01*
X470320Y256660D01*
X470224Y256655D01*
X470181Y256640D01*
X470136Y256634D01*
X470049Y256594D01*
X469958Y256563D01*
X469923Y256538D01*
X469879Y256518D01*
X469782Y256434D01*
X469709Y256381D01*
X415968Y202641D01*
X415911Y202564D01*
X415846Y202493D01*
X415826Y202452D01*
X415799Y202415D01*
X415765Y202325D01*
X415723Y202239D01*
X415717Y202197D01*
X415700Y202151D01*
X415690Y202024D01*
X415676Y201934D01*
X415676Y178481D01*
X415685Y178419D01*
X415684Y178373D01*
X415691Y178347D01*
X415694Y178290D01*
X415709Y178247D01*
X415716Y178202D01*
X415755Y178114D01*
X415758Y178107D01*
X415759Y178101D01*
X415760Y178100D01*
X415787Y178023D01*
X415812Y177989D01*
X415832Y177945D01*
X415915Y177847D01*
X415968Y177774D01*
X457917Y135825D01*
X457994Y135768D01*
X458065Y135703D01*
X458106Y135683D01*
X458143Y135656D01*
X458233Y135622D01*
X458319Y135580D01*
X458361Y135574D01*
X458407Y135557D01*
X458534Y135547D01*
X458586Y135539D01*
X460634Y134690D01*
X462190Y133134D01*
X463038Y131088D01*
X463046Y131029D01*
X463051Y130933D01*
X463066Y130890D01*
X463073Y130845D01*
X463112Y130757D01*
X463144Y130666D01*
X463169Y130632D01*
X463189Y130588D01*
X463272Y130490D01*
X463325Y130417D01*
X502874Y90868D01*
X502951Y90811D01*
X503022Y90746D01*
X503063Y90726D01*
X503100Y90699D01*
X503190Y90665D01*
X503276Y90623D01*
X503318Y90617D01*
X503364Y90600D01*
X503491Y90590D01*
X503581Y90576D01*
X522671Y90576D01*
X523773Y90567D01*
X523870Y90580D01*
G37*
%LPC*%
G36*
X265399Y263467D02*
X265399Y263467D01*
X263366Y264310D01*
X262219Y265457D01*
X262142Y265514D01*
X262071Y265579D01*
X262030Y265599D01*
X261993Y265626D01*
X261903Y265660D01*
X261817Y265702D01*
X261775Y265708D01*
X261730Y265725D01*
X261602Y265735D01*
X261512Y265749D01*
X207653Y265749D01*
X165924Y307478D01*
X165924Y313587D01*
X165911Y313682D01*
X165906Y313779D01*
X165891Y313822D01*
X165884Y313867D01*
X165845Y313954D01*
X165813Y314045D01*
X165788Y314079D01*
X165768Y314124D01*
X165685Y314221D01*
X165632Y314294D01*
X164894Y315032D01*
X164817Y315089D01*
X164746Y315154D01*
X164705Y315174D01*
X164668Y315201D01*
X164578Y315235D01*
X164492Y315277D01*
X164450Y315283D01*
X164404Y315300D01*
X164277Y315310D01*
X164187Y315324D01*
X130006Y315324D01*
X129920Y315312D01*
X129833Y315309D01*
X129781Y315292D01*
X129727Y315284D01*
X129648Y315249D01*
X129565Y315222D01*
X129520Y315191D01*
X129470Y315168D01*
X129404Y315112D01*
X129332Y315063D01*
X129297Y315020D01*
X129256Y314985D01*
X129208Y314912D01*
X129153Y314845D01*
X129131Y314795D01*
X129101Y314749D01*
X129076Y314666D01*
X129041Y314586D01*
X129035Y314532D01*
X129019Y314479D01*
X129018Y314392D01*
X129007Y314306D01*
X129016Y314252D01*
X129015Y314197D01*
X129038Y314113D01*
X129052Y314028D01*
X129076Y313978D01*
X129090Y313925D01*
X129136Y313851D01*
X129173Y313773D01*
X129209Y313732D01*
X129238Y313685D01*
X129303Y313627D01*
X129360Y313562D01*
X129404Y313536D01*
X129448Y313496D01*
X129550Y313447D01*
X129624Y313402D01*
X130134Y313190D01*
X131690Y311634D01*
X132533Y309601D01*
X132533Y307399D01*
X131690Y305366D01*
X130134Y303810D01*
X128101Y302967D01*
X125899Y302967D01*
X123866Y303810D01*
X123454Y304221D01*
X123360Y304292D01*
X123268Y304368D01*
X123247Y304377D01*
X123229Y304390D01*
X123118Y304432D01*
X123009Y304479D01*
X122986Y304482D01*
X122965Y304490D01*
X122847Y304499D01*
X122729Y304514D01*
X122706Y304510D01*
X122684Y304512D01*
X122568Y304488D01*
X122451Y304469D01*
X122430Y304459D01*
X122408Y304454D01*
X122303Y304398D01*
X122196Y304348D01*
X122179Y304332D01*
X122159Y304322D01*
X122074Y304239D01*
X121985Y304160D01*
X121974Y304142D01*
X121957Y304125D01*
X121865Y303963D01*
X121825Y303897D01*
X121190Y302366D01*
X119634Y300810D01*
X117601Y299967D01*
X115399Y299967D01*
X113366Y300810D01*
X111810Y302366D01*
X110967Y304399D01*
X110967Y306601D01*
X111810Y308634D01*
X113366Y310190D01*
X115399Y311033D01*
X117601Y311033D01*
X119634Y310190D01*
X120046Y309779D01*
X120141Y309708D01*
X120232Y309632D01*
X120253Y309623D01*
X120271Y309610D01*
X120382Y309568D01*
X120491Y309521D01*
X120514Y309518D01*
X120535Y309510D01*
X120653Y309501D01*
X120771Y309486D01*
X120793Y309490D01*
X120816Y309488D01*
X120932Y309512D01*
X121049Y309531D01*
X121070Y309541D01*
X121092Y309546D01*
X121197Y309601D01*
X121304Y309652D01*
X121321Y309668D01*
X121341Y309678D01*
X121426Y309761D01*
X121515Y309840D01*
X121526Y309858D01*
X121543Y309875D01*
X121635Y310037D01*
X121675Y310103D01*
X122310Y311634D01*
X123866Y313190D01*
X124376Y313402D01*
X124451Y313446D01*
X124530Y313482D01*
X124572Y313517D01*
X124619Y313545D01*
X124678Y313609D01*
X124744Y313665D01*
X124774Y313711D01*
X124812Y313751D01*
X124851Y313828D01*
X124899Y313901D01*
X124915Y313954D01*
X124940Y314003D01*
X124956Y314088D01*
X124981Y314171D01*
X124982Y314226D01*
X124992Y314280D01*
X124984Y314366D01*
X124985Y314453D01*
X124970Y314506D01*
X124965Y314560D01*
X124933Y314641D01*
X124910Y314725D01*
X124881Y314771D01*
X124861Y314822D01*
X124807Y314891D01*
X124762Y314965D01*
X124721Y315001D01*
X124687Y315045D01*
X124617Y315096D01*
X124552Y315154D01*
X124503Y315178D01*
X124458Y315210D01*
X124377Y315239D01*
X124299Y315277D01*
X124248Y315285D01*
X124193Y315304D01*
X124079Y315311D01*
X123994Y315324D01*
X101420Y315324D01*
X100430Y316314D01*
X100335Y316385D01*
X100243Y316461D01*
X100222Y316470D01*
X100204Y316484D01*
X100093Y316525D01*
X99984Y316572D01*
X99962Y316575D01*
X99940Y316583D01*
X99822Y316592D01*
X99704Y316607D01*
X99682Y316603D01*
X99659Y316605D01*
X99543Y316581D01*
X99426Y316562D01*
X99405Y316552D01*
X99383Y316547D01*
X99278Y316492D01*
X99171Y316441D01*
X99154Y316426D01*
X99134Y316415D01*
X99049Y316332D01*
X98960Y316253D01*
X98949Y316235D01*
X98932Y316218D01*
X98840Y316056D01*
X98800Y315990D01*
X98365Y314941D01*
X96809Y313385D01*
X95876Y312998D01*
X95848Y312982D01*
X95818Y312972D01*
X95728Y312910D01*
X95633Y312855D01*
X95611Y312831D01*
X95585Y312813D01*
X95515Y312728D01*
X95441Y312649D01*
X95426Y312620D01*
X95405Y312595D01*
X95362Y312495D01*
X95313Y312397D01*
X95307Y312366D01*
X95294Y312336D01*
X95281Y312228D01*
X95260Y312120D01*
X95263Y312088D01*
X95260Y312056D01*
X95277Y311948D01*
X95287Y311840D01*
X95299Y311810D01*
X95305Y311778D01*
X95351Y311679D01*
X95392Y311578D01*
X95412Y311552D01*
X95426Y311523D01*
X95498Y311441D01*
X95565Y311355D01*
X95592Y311336D01*
X95613Y311312D01*
X95690Y311265D01*
X95794Y311190D01*
X95840Y311174D01*
X95876Y311152D01*
X96809Y310765D01*
X98365Y309209D01*
X99208Y307176D01*
X99208Y304974D01*
X98365Y302941D01*
X96809Y301385D01*
X94776Y300542D01*
X92574Y300542D01*
X90541Y301385D01*
X88985Y302941D01*
X88142Y304974D01*
X88142Y307176D01*
X88985Y309209D01*
X90541Y310765D01*
X91474Y311152D01*
X91501Y311168D01*
X91532Y311178D01*
X91623Y311240D01*
X91717Y311295D01*
X91739Y311319D01*
X91765Y311337D01*
X91835Y311421D01*
X91909Y311501D01*
X91924Y311530D01*
X91945Y311555D01*
X91988Y311655D01*
X92037Y311753D01*
X92043Y311784D01*
X92056Y311814D01*
X92069Y311922D01*
X92090Y312030D01*
X92087Y312062D01*
X92090Y312094D01*
X92073Y312202D01*
X92063Y312310D01*
X92051Y312340D01*
X92045Y312372D01*
X91999Y312471D01*
X91958Y312572D01*
X91938Y312598D01*
X91924Y312627D01*
X91852Y312709D01*
X91785Y312795D01*
X91758Y312814D01*
X91737Y312838D01*
X91660Y312885D01*
X91556Y312960D01*
X91510Y312976D01*
X91474Y312998D01*
X90541Y313385D01*
X88985Y314941D01*
X88142Y316974D01*
X88142Y319176D01*
X88985Y321209D01*
X90541Y322765D01*
X91590Y323200D01*
X91692Y323260D01*
X91797Y323316D01*
X91813Y323332D01*
X91833Y323344D01*
X91914Y323430D01*
X91999Y323513D01*
X92010Y323533D01*
X92026Y323549D01*
X92079Y323655D01*
X92138Y323758D01*
X92143Y323780D01*
X92154Y323801D01*
X92176Y323917D01*
X92203Y324033D01*
X92202Y324056D01*
X92206Y324078D01*
X92195Y324196D01*
X92189Y324314D01*
X92181Y324336D01*
X92179Y324359D01*
X92135Y324469D01*
X92096Y324581D01*
X92083Y324598D01*
X92074Y324621D01*
X91960Y324767D01*
X91914Y324830D01*
X87787Y328957D01*
X87710Y329014D01*
X87639Y329079D01*
X87598Y329099D01*
X87562Y329126D01*
X87472Y329160D01*
X87385Y329202D01*
X87343Y329208D01*
X87298Y329225D01*
X87170Y329235D01*
X87081Y329249D01*
X45653Y329249D01*
X28924Y345978D01*
X28924Y349087D01*
X28911Y349182D01*
X28906Y349279D01*
X28891Y349322D01*
X28884Y349367D01*
X28845Y349454D01*
X28813Y349545D01*
X28788Y349579D01*
X28768Y349624D01*
X28685Y349721D01*
X28632Y349794D01*
X27485Y350941D01*
X26642Y352974D01*
X26642Y355176D01*
X27485Y357209D01*
X29041Y358765D01*
X31074Y359608D01*
X33276Y359608D01*
X35309Y358765D01*
X36865Y357209D01*
X37002Y356880D01*
X37018Y356852D01*
X37028Y356821D01*
X37090Y356731D01*
X37145Y356637D01*
X37169Y356615D01*
X37187Y356588D01*
X37272Y356519D01*
X37351Y356444D01*
X37380Y356430D01*
X37405Y356409D01*
X37505Y356366D01*
X37603Y356316D01*
X37634Y356310D01*
X37664Y356298D01*
X37772Y356284D01*
X37880Y356264D01*
X37912Y356267D01*
X37944Y356263D01*
X38052Y356281D01*
X38160Y356291D01*
X38190Y356303D01*
X38222Y356308D01*
X38321Y356355D01*
X38422Y356395D01*
X38448Y356415D01*
X38477Y356429D01*
X38559Y356502D01*
X38645Y356569D01*
X38664Y356595D01*
X38688Y356617D01*
X38735Y356694D01*
X38810Y356798D01*
X38826Y356843D01*
X38848Y356880D01*
X38985Y357209D01*
X40541Y358765D01*
X42574Y359608D01*
X44776Y359608D01*
X46809Y358765D01*
X48365Y357209D01*
X49208Y355176D01*
X49208Y352974D01*
X48365Y350941D01*
X47218Y349794D01*
X47161Y349717D01*
X47096Y349646D01*
X47076Y349605D01*
X47049Y349568D01*
X47015Y349478D01*
X46973Y349392D01*
X46967Y349350D01*
X46950Y349305D01*
X46940Y349177D01*
X46926Y349087D01*
X46926Y348585D01*
X46939Y348490D01*
X46944Y348394D01*
X46959Y348351D01*
X46966Y348306D01*
X47005Y348219D01*
X47037Y348128D01*
X47062Y348093D01*
X47082Y348049D01*
X47165Y347952D01*
X47218Y347879D01*
X54554Y340543D01*
X54631Y340486D01*
X54702Y340421D01*
X54743Y340401D01*
X54779Y340374D01*
X54869Y340340D01*
X54956Y340298D01*
X54998Y340292D01*
X55043Y340275D01*
X55171Y340265D01*
X55260Y340251D01*
X135347Y340251D01*
X136543Y339054D01*
X136569Y339034D01*
X136590Y339010D01*
X136682Y338950D01*
X136769Y338885D01*
X136799Y338873D01*
X136826Y338855D01*
X136931Y338823D01*
X137033Y338785D01*
X137065Y338782D01*
X137096Y338773D01*
X137205Y338772D01*
X137314Y338763D01*
X137346Y338770D01*
X137378Y338769D01*
X137483Y338798D01*
X137590Y338821D01*
X137619Y338836D01*
X137650Y338845D01*
X137743Y338902D01*
X137839Y338953D01*
X137862Y338976D01*
X137890Y338993D01*
X137963Y339074D01*
X138041Y339150D01*
X138057Y339178D01*
X138079Y339202D01*
X138126Y339300D01*
X138180Y339395D01*
X138188Y339427D01*
X138202Y339456D01*
X138216Y339545D01*
X138245Y339670D01*
X138243Y339718D01*
X138249Y339760D01*
X138249Y390512D01*
X138245Y390544D01*
X138247Y390577D01*
X138225Y390684D01*
X138209Y390792D01*
X138196Y390821D01*
X138190Y390853D01*
X138138Y390949D01*
X138093Y391049D01*
X138072Y391073D01*
X138057Y391102D01*
X137981Y391180D01*
X137910Y391263D01*
X137883Y391281D01*
X137860Y391304D01*
X137766Y391357D01*
X137674Y391417D01*
X137643Y391427D01*
X137615Y391443D01*
X137509Y391468D01*
X137404Y391500D01*
X137372Y391500D01*
X137341Y391508D01*
X137231Y391502D01*
X137122Y391503D01*
X137091Y391495D01*
X137059Y391493D01*
X136956Y391457D01*
X136850Y391428D01*
X136823Y391411D01*
X136792Y391401D01*
X136719Y391347D01*
X136610Y391280D01*
X136578Y391244D01*
X136543Y391219D01*
X136134Y390810D01*
X134101Y389967D01*
X131899Y389967D01*
X129866Y390810D01*
X129457Y391219D01*
X129405Y391257D01*
X129360Y391304D01*
X129293Y391342D01*
X129231Y391388D01*
X129171Y391411D01*
X129115Y391443D01*
X129040Y391460D01*
X128967Y391488D01*
X128903Y391493D01*
X128840Y391508D01*
X128763Y391504D01*
X128686Y391510D01*
X128623Y391496D01*
X128559Y391493D01*
X128486Y391468D01*
X128410Y391452D01*
X128353Y391422D01*
X128292Y391401D01*
X128236Y391359D01*
X128161Y391320D01*
X128100Y391260D01*
X128043Y391219D01*
X127634Y390810D01*
X125601Y389967D01*
X123399Y389967D01*
X121366Y390810D01*
X120957Y391219D01*
X120905Y391257D01*
X120860Y391304D01*
X120793Y391342D01*
X120731Y391388D01*
X120671Y391411D01*
X120615Y391443D01*
X120540Y391460D01*
X120467Y391488D01*
X120403Y391493D01*
X120340Y391508D01*
X120263Y391504D01*
X120186Y391510D01*
X120123Y391496D01*
X120059Y391493D01*
X119986Y391468D01*
X119910Y391452D01*
X119853Y391422D01*
X119792Y391401D01*
X119736Y391359D01*
X119661Y391320D01*
X119600Y391260D01*
X119543Y391219D01*
X119134Y390810D01*
X117101Y389967D01*
X114899Y389967D01*
X112866Y390810D01*
X112457Y391219D01*
X112405Y391257D01*
X112360Y391304D01*
X112293Y391342D01*
X112231Y391388D01*
X112171Y391411D01*
X112115Y391443D01*
X112040Y391460D01*
X111967Y391488D01*
X111903Y391493D01*
X111840Y391508D01*
X111763Y391504D01*
X111686Y391510D01*
X111623Y391496D01*
X111559Y391493D01*
X111486Y391468D01*
X111410Y391452D01*
X111353Y391422D01*
X111292Y391401D01*
X111236Y391359D01*
X111161Y391320D01*
X111100Y391260D01*
X111043Y391219D01*
X110634Y390810D01*
X108601Y389967D01*
X106399Y389967D01*
X104366Y390810D01*
X102810Y392366D01*
X101967Y394399D01*
X101967Y396601D01*
X102810Y398634D01*
X104366Y400190D01*
X106399Y401033D01*
X108601Y401033D01*
X110634Y400190D01*
X111043Y399781D01*
X111095Y399742D01*
X111140Y399696D01*
X111207Y399658D01*
X111269Y399612D01*
X111329Y399589D01*
X111385Y399557D01*
X111460Y399540D01*
X111533Y399512D01*
X111597Y399507D01*
X111659Y399492D01*
X111737Y399496D01*
X111814Y399490D01*
X111877Y399504D01*
X111941Y399507D01*
X112014Y399532D01*
X112090Y399548D01*
X112147Y399578D01*
X112208Y399599D01*
X112264Y399641D01*
X112339Y399680D01*
X112400Y399740D01*
X112457Y399781D01*
X112866Y400190D01*
X114899Y401033D01*
X117101Y401033D01*
X119134Y400190D01*
X119543Y399781D01*
X119595Y399742D01*
X119640Y399696D01*
X119707Y399658D01*
X119769Y399612D01*
X119829Y399589D01*
X119885Y399557D01*
X119960Y399540D01*
X120033Y399512D01*
X120097Y399507D01*
X120159Y399492D01*
X120237Y399496D01*
X120314Y399490D01*
X120377Y399504D01*
X120441Y399507D01*
X120514Y399532D01*
X120590Y399548D01*
X120647Y399578D01*
X120708Y399599D01*
X120764Y399641D01*
X120839Y399680D01*
X120900Y399740D01*
X120957Y399781D01*
X121366Y400190D01*
X123399Y401033D01*
X125601Y401033D01*
X127634Y400190D01*
X128043Y399781D01*
X128095Y399742D01*
X128140Y399696D01*
X128207Y399658D01*
X128269Y399612D01*
X128329Y399589D01*
X128385Y399557D01*
X128460Y399540D01*
X128533Y399512D01*
X128597Y399507D01*
X128659Y399492D01*
X128737Y399496D01*
X128814Y399490D01*
X128877Y399504D01*
X128941Y399507D01*
X129014Y399532D01*
X129090Y399548D01*
X129147Y399578D01*
X129208Y399599D01*
X129264Y399641D01*
X129339Y399680D01*
X129400Y399740D01*
X129457Y399781D01*
X129866Y400190D01*
X131899Y401033D01*
X134101Y401033D01*
X136134Y400190D01*
X136543Y399781D01*
X136569Y399762D01*
X136590Y399737D01*
X136682Y399677D01*
X136769Y399612D01*
X136799Y399600D01*
X136826Y399583D01*
X136931Y399551D01*
X137033Y399512D01*
X137065Y399510D01*
X137096Y399500D01*
X137205Y399499D01*
X137314Y399490D01*
X137346Y399497D01*
X137378Y399497D01*
X137483Y399526D01*
X137590Y399548D01*
X137619Y399563D01*
X137650Y399572D01*
X137743Y399629D01*
X137839Y399680D01*
X137862Y399703D01*
X137890Y399720D01*
X137963Y399801D01*
X138041Y399877D01*
X138057Y399905D01*
X138079Y399929D01*
X138126Y400028D01*
X138180Y400123D01*
X138188Y400154D01*
X138202Y400183D01*
X138216Y400273D01*
X138245Y400397D01*
X138243Y400445D01*
X138249Y400488D01*
X138249Y407173D01*
X138237Y407258D01*
X138234Y407345D01*
X138217Y407397D01*
X138209Y407452D01*
X138174Y407531D01*
X138147Y407613D01*
X138116Y407659D01*
X138093Y407709D01*
X138037Y407775D01*
X137988Y407846D01*
X137946Y407881D01*
X137910Y407923D01*
X137837Y407971D01*
X137770Y408026D01*
X137720Y408047D01*
X137674Y408077D01*
X137591Y408103D01*
X137511Y408137D01*
X137457Y408144D01*
X137404Y408160D01*
X137317Y408161D01*
X137231Y408172D01*
X137177Y408163D01*
X137122Y408164D01*
X137038Y408140D01*
X136953Y408127D01*
X136903Y408103D01*
X136850Y408088D01*
X136776Y408043D01*
X136698Y408006D01*
X136657Y407969D01*
X136610Y407940D01*
X136552Y407876D01*
X136487Y407818D01*
X136461Y407775D01*
X136421Y407731D01*
X136372Y407629D01*
X136327Y407555D01*
X135865Y406441D01*
X134309Y404885D01*
X132276Y404042D01*
X130074Y404042D01*
X128041Y404885D01*
X127132Y405794D01*
X127080Y405832D01*
X127035Y405879D01*
X126968Y405917D01*
X126906Y405963D01*
X126846Y405986D01*
X126790Y406018D01*
X126715Y406035D01*
X126642Y406063D01*
X126578Y406068D01*
X126515Y406083D01*
X126438Y406079D01*
X126361Y406085D01*
X126298Y406071D01*
X126234Y406068D01*
X126161Y406043D01*
X126085Y406027D01*
X126028Y405997D01*
X125967Y405976D01*
X125911Y405934D01*
X125836Y405895D01*
X125775Y405835D01*
X125718Y405794D01*
X124809Y404885D01*
X122776Y404042D01*
X120574Y404042D01*
X118541Y404885D01*
X117632Y405794D01*
X117580Y405832D01*
X117535Y405879D01*
X117468Y405917D01*
X117406Y405963D01*
X117346Y405986D01*
X117290Y406018D01*
X117215Y406035D01*
X117142Y406063D01*
X117078Y406068D01*
X117015Y406083D01*
X116938Y406079D01*
X116861Y406085D01*
X116798Y406071D01*
X116734Y406068D01*
X116661Y406043D01*
X116585Y406027D01*
X116528Y405997D01*
X116467Y405976D01*
X116411Y405934D01*
X116336Y405895D01*
X116275Y405835D01*
X116218Y405794D01*
X115309Y404885D01*
X113276Y404042D01*
X111074Y404042D01*
X109041Y404885D01*
X107882Y406044D01*
X107830Y406082D01*
X107785Y406129D01*
X107718Y406167D01*
X107656Y406213D01*
X107596Y406236D01*
X107540Y406268D01*
X107465Y406285D01*
X107392Y406313D01*
X107328Y406318D01*
X107265Y406333D01*
X107188Y406329D01*
X107111Y406335D01*
X107048Y406321D01*
X106984Y406318D01*
X106911Y406293D01*
X106835Y406277D01*
X106778Y406247D01*
X106717Y406226D01*
X106661Y406184D01*
X106586Y406145D01*
X106525Y406085D01*
X106468Y406044D01*
X105309Y404885D01*
X103276Y404042D01*
X101074Y404042D01*
X99041Y404885D01*
X97485Y406441D01*
X96642Y408474D01*
X96642Y410676D01*
X97485Y412709D01*
X99041Y414265D01*
X101074Y415108D01*
X103276Y415108D01*
X105309Y414265D01*
X106468Y413106D01*
X106520Y413067D01*
X106565Y413021D01*
X106632Y412983D01*
X106694Y412937D01*
X106754Y412914D01*
X106810Y412882D01*
X106885Y412865D01*
X106958Y412837D01*
X107022Y412832D01*
X107084Y412817D01*
X107162Y412821D01*
X107239Y412815D01*
X107302Y412829D01*
X107366Y412832D01*
X107439Y412857D01*
X107515Y412873D01*
X107572Y412903D01*
X107633Y412924D01*
X107689Y412966D01*
X107764Y413005D01*
X107825Y413065D01*
X107882Y413106D01*
X109041Y414265D01*
X111074Y415108D01*
X113276Y415108D01*
X115309Y414265D01*
X116218Y413356D01*
X116270Y413317D01*
X116315Y413271D01*
X116382Y413233D01*
X116444Y413187D01*
X116504Y413164D01*
X116560Y413132D01*
X116635Y413115D01*
X116708Y413087D01*
X116772Y413082D01*
X116834Y413067D01*
X116912Y413071D01*
X116989Y413065D01*
X117052Y413079D01*
X117116Y413082D01*
X117189Y413107D01*
X117265Y413123D01*
X117322Y413153D01*
X117383Y413174D01*
X117439Y413216D01*
X117514Y413255D01*
X117575Y413315D01*
X117632Y413356D01*
X118541Y414265D01*
X120574Y415108D01*
X122776Y415108D01*
X124809Y414265D01*
X125718Y413356D01*
X125770Y413317D01*
X125815Y413271D01*
X125882Y413233D01*
X125944Y413187D01*
X126004Y413164D01*
X126060Y413132D01*
X126135Y413115D01*
X126208Y413087D01*
X126272Y413082D01*
X126334Y413067D01*
X126412Y413071D01*
X126489Y413065D01*
X126552Y413079D01*
X126616Y413082D01*
X126689Y413107D01*
X126765Y413123D01*
X126822Y413153D01*
X126883Y413174D01*
X126939Y413216D01*
X127014Y413255D01*
X127075Y413315D01*
X127132Y413356D01*
X128041Y414265D01*
X130074Y415108D01*
X132276Y415108D01*
X134309Y414265D01*
X135865Y412709D01*
X136327Y411595D01*
X136371Y411520D01*
X136407Y411441D01*
X136442Y411400D01*
X136470Y411352D01*
X136534Y411293D01*
X136590Y411227D01*
X136636Y411197D01*
X136676Y411159D01*
X136753Y411120D01*
X136826Y411073D01*
X136879Y411057D01*
X136928Y411032D01*
X137013Y411015D01*
X137096Y410990D01*
X137151Y410989D01*
X137205Y410979D01*
X137291Y410988D01*
X137378Y410986D01*
X137431Y411001D01*
X137485Y411006D01*
X137566Y411038D01*
X137650Y411062D01*
X137696Y411090D01*
X137747Y411111D01*
X137816Y411164D01*
X137890Y411210D01*
X137926Y411250D01*
X137970Y411284D01*
X138021Y411355D01*
X138079Y411419D01*
X138103Y411468D01*
X138135Y411513D01*
X138164Y411595D01*
X138202Y411673D01*
X138210Y411723D01*
X138229Y411779D01*
X138236Y411892D01*
X138249Y411977D01*
X138249Y443379D01*
X186121Y491251D01*
X201982Y491251D01*
X202099Y491267D01*
X202218Y491279D01*
X202239Y491287D01*
X202261Y491291D01*
X202369Y491339D01*
X202480Y491383D01*
X202498Y491397D01*
X202518Y491407D01*
X202608Y491484D01*
X202702Y491557D01*
X202715Y491575D01*
X202733Y491590D01*
X202798Y491690D01*
X202867Y491786D01*
X202874Y491807D01*
X202887Y491826D01*
X202922Y491940D01*
X202961Y492051D01*
X202963Y492074D01*
X202969Y492096D01*
X202971Y492214D01*
X202978Y492333D01*
X202973Y492354D01*
X202973Y492378D01*
X202923Y492557D01*
X202905Y492632D01*
X202142Y494474D01*
X202142Y496676D01*
X202985Y498709D01*
X204541Y500265D01*
X206574Y501108D01*
X206714Y501108D01*
X206831Y501124D01*
X206949Y501136D01*
X206971Y501144D01*
X206993Y501148D01*
X207101Y501196D01*
X207211Y501240D01*
X207229Y501254D01*
X207250Y501264D01*
X207340Y501341D01*
X207434Y501414D01*
X207447Y501432D01*
X207464Y501447D01*
X207529Y501547D01*
X207599Y501643D01*
X207606Y501664D01*
X207619Y501683D01*
X207654Y501797D01*
X207693Y501908D01*
X207695Y501931D01*
X207701Y501953D01*
X207703Y502071D01*
X207710Y502190D01*
X207705Y502211D01*
X207705Y502235D01*
X207655Y502414D01*
X207637Y502489D01*
X207467Y502899D01*
X207467Y505101D01*
X208310Y507134D01*
X209866Y508690D01*
X211899Y509533D01*
X214101Y509533D01*
X216134Y508690D01*
X216192Y508632D01*
X216287Y508561D01*
X216378Y508486D01*
X216399Y508477D01*
X216418Y508463D01*
X216529Y508421D01*
X216638Y508374D01*
X216660Y508372D01*
X216682Y508364D01*
X216800Y508354D01*
X216917Y508340D01*
X216940Y508344D01*
X216963Y508342D01*
X217079Y508366D01*
X217196Y508385D01*
X217217Y508395D01*
X217239Y508399D01*
X217343Y508455D01*
X217451Y508506D01*
X217468Y508521D01*
X217488Y508532D01*
X217573Y508615D01*
X217661Y508693D01*
X217673Y508712D01*
X217690Y508729D01*
X217782Y508891D01*
X217822Y508957D01*
X218310Y510134D01*
X219866Y511690D01*
X221899Y512533D01*
X224101Y512533D01*
X226134Y511690D01*
X226738Y511087D01*
X226815Y511029D01*
X226886Y510964D01*
X226927Y510945D01*
X226964Y510917D01*
X227054Y510883D01*
X227140Y510841D01*
X227182Y510835D01*
X227227Y510818D01*
X227355Y510808D01*
X227445Y510794D01*
X236055Y510794D01*
X236150Y510807D01*
X236247Y510812D01*
X236290Y510827D01*
X236335Y510834D01*
X236422Y510873D01*
X236513Y510905D01*
X236547Y510930D01*
X236592Y510950D01*
X236689Y511033D01*
X236762Y511087D01*
X237366Y511690D01*
X239399Y512533D01*
X241601Y512533D01*
X243634Y511690D01*
X245190Y510134D01*
X246033Y508101D01*
X246033Y505899D01*
X245190Y503866D01*
X244972Y503648D01*
X244915Y503571D01*
X244850Y503500D01*
X244830Y503459D01*
X244803Y503422D01*
X244769Y503332D01*
X244727Y503246D01*
X244721Y503204D01*
X244704Y503158D01*
X244694Y503031D01*
X244680Y502941D01*
X244680Y496198D01*
X228231Y479749D01*
X191542Y479749D01*
X191447Y479736D01*
X191351Y479731D01*
X191308Y479716D01*
X191263Y479709D01*
X191175Y479670D01*
X191084Y479638D01*
X191050Y479613D01*
X191006Y479593D01*
X190908Y479510D01*
X190835Y479457D01*
X150543Y439165D01*
X150486Y439088D01*
X150421Y439017D01*
X150401Y438976D01*
X150374Y438939D01*
X150340Y438849D01*
X150298Y438763D01*
X150292Y438721D01*
X150275Y438675D01*
X150265Y438548D01*
X150251Y438458D01*
X150251Y355632D01*
X150263Y355547D01*
X150266Y355460D01*
X150283Y355408D01*
X150291Y355353D01*
X150326Y355274D01*
X150353Y355192D01*
X150384Y355146D01*
X150407Y355096D01*
X150463Y355030D01*
X150512Y354959D01*
X150554Y354924D01*
X150590Y354882D01*
X150663Y354834D01*
X150730Y354779D01*
X150780Y354758D01*
X150826Y354728D01*
X150909Y354702D01*
X150989Y354668D01*
X151043Y354661D01*
X151096Y354645D01*
X151183Y354644D01*
X151269Y354633D01*
X151323Y354642D01*
X151378Y354641D01*
X151462Y354665D01*
X151547Y354678D01*
X151597Y354702D01*
X151650Y354717D01*
X151723Y354762D01*
X151802Y354799D01*
X151843Y354836D01*
X151890Y354865D01*
X151948Y354929D01*
X152013Y354987D01*
X152039Y355030D01*
X152079Y355074D01*
X152128Y355177D01*
X152173Y355250D01*
X152985Y357209D01*
X154541Y358765D01*
X155974Y359359D01*
X156002Y359375D01*
X156032Y359385D01*
X156123Y359447D01*
X156217Y359503D01*
X156239Y359526D01*
X156265Y359544D01*
X156335Y359629D01*
X156409Y359708D01*
X156424Y359737D01*
X156445Y359762D01*
X156488Y359862D01*
X156537Y359960D01*
X156543Y359991D01*
X156556Y360021D01*
X156569Y360129D01*
X156590Y360237D01*
X156587Y360269D01*
X156590Y360301D01*
X156573Y360409D01*
X156563Y360518D01*
X156551Y360547D01*
X156545Y360579D01*
X156499Y360678D01*
X156458Y360779D01*
X156438Y360805D01*
X156424Y360834D01*
X156352Y360916D01*
X156285Y361002D01*
X156258Y361021D01*
X156237Y361045D01*
X156160Y361092D01*
X156056Y361167D01*
X156010Y361183D01*
X155974Y361205D01*
X155541Y361385D01*
X153985Y362941D01*
X153142Y364974D01*
X153142Y367176D01*
X153985Y369209D01*
X155541Y370765D01*
X157488Y371572D01*
X157500Y371579D01*
X157513Y371582D01*
X157621Y371651D01*
X157731Y371716D01*
X157740Y371725D01*
X157751Y371732D01*
X157837Y371828D01*
X157924Y371921D01*
X157930Y371933D01*
X157939Y371943D01*
X157994Y372059D01*
X158052Y372173D01*
X158054Y372186D01*
X158060Y372198D01*
X158080Y372324D01*
X158104Y372450D01*
X158103Y372463D01*
X158105Y372476D01*
X158089Y372603D01*
X158077Y372731D01*
X158072Y372743D01*
X158070Y372756D01*
X158020Y372874D01*
X158007Y372905D01*
X157999Y372942D01*
X157999Y373429D01*
X157994Y373466D01*
X157997Y373500D01*
X157555Y379685D01*
X157542Y379744D01*
X157539Y379805D01*
X157512Y379881D01*
X157499Y379942D01*
X157499Y380429D01*
X157494Y380466D01*
X157497Y380500D01*
X157461Y381001D01*
X157463Y381014D01*
X157488Y381099D01*
X157489Y381179D01*
X157499Y381246D01*
X157499Y393415D01*
X162585Y398501D01*
X172415Y398501D01*
X178622Y392293D01*
X178699Y392236D01*
X178770Y392171D01*
X178811Y392151D01*
X178847Y392124D01*
X178937Y392090D01*
X179024Y392048D01*
X179066Y392042D01*
X179111Y392025D01*
X179239Y392015D01*
X179328Y392001D01*
X188762Y392001D01*
X188857Y392014D01*
X188954Y392019D01*
X188997Y392034D01*
X189042Y392041D01*
X189129Y392080D01*
X189220Y392112D01*
X189254Y392137D01*
X189299Y392157D01*
X189396Y392240D01*
X189469Y392293D01*
X190866Y393690D01*
X192899Y394533D01*
X195101Y394533D01*
X197134Y393690D01*
X198531Y392293D01*
X198608Y392236D01*
X198679Y392171D01*
X198720Y392151D01*
X198757Y392124D01*
X198847Y392090D01*
X198933Y392048D01*
X198975Y392042D01*
X199021Y392025D01*
X199148Y392015D01*
X199238Y392001D01*
X213915Y392001D01*
X220209Y385706D01*
X220279Y385654D01*
X220342Y385595D01*
X220391Y385570D01*
X220435Y385537D01*
X220501Y385512D01*
X220501Y369067D01*
X220506Y369032D01*
X220503Y369000D01*
X220529Y368614D01*
X220255Y368340D01*
X220234Y368311D01*
X220209Y368291D01*
X217737Y365465D01*
X217248Y364907D01*
X217214Y364854D01*
X217171Y364807D01*
X217137Y364736D01*
X217110Y364695D01*
X216755Y364340D01*
X216734Y364311D01*
X216709Y364291D01*
X216454Y363999D01*
X216067Y363999D01*
X216032Y363994D01*
X216000Y363997D01*
X215483Y363963D01*
X215400Y363988D01*
X215317Y363989D01*
X215249Y363999D01*
X167085Y363999D01*
X165822Y365262D01*
X165728Y365333D01*
X165636Y365409D01*
X165615Y365418D01*
X165597Y365432D01*
X165486Y365473D01*
X165377Y365520D01*
X165354Y365523D01*
X165333Y365531D01*
X165215Y365540D01*
X165097Y365555D01*
X165075Y365551D01*
X165052Y365553D01*
X164936Y365529D01*
X164819Y365510D01*
X164798Y365500D01*
X164776Y365495D01*
X164671Y365440D01*
X164564Y365389D01*
X164547Y365374D01*
X164527Y365363D01*
X164442Y365280D01*
X164353Y365201D01*
X164342Y365183D01*
X164325Y365166D01*
X164233Y365004D01*
X164193Y364938D01*
X163365Y362941D01*
X161809Y361385D01*
X160376Y360791D01*
X160348Y360775D01*
X160318Y360765D01*
X160227Y360703D01*
X160133Y360647D01*
X160111Y360624D01*
X160085Y360606D01*
X160015Y360521D01*
X159941Y360442D01*
X159926Y360413D01*
X159905Y360388D01*
X159862Y360288D01*
X159813Y360190D01*
X159807Y360159D01*
X159794Y360129D01*
X159781Y360021D01*
X159760Y359913D01*
X159763Y359881D01*
X159760Y359849D01*
X159777Y359741D01*
X159787Y359632D01*
X159799Y359603D01*
X159805Y359571D01*
X159851Y359472D01*
X159892Y359371D01*
X159912Y359345D01*
X159926Y359316D01*
X159998Y359234D01*
X160065Y359148D01*
X160092Y359129D01*
X160113Y359105D01*
X160190Y359058D01*
X160294Y358983D01*
X160340Y358967D01*
X160376Y358945D01*
X160809Y358765D01*
X162365Y357209D01*
X163208Y355176D01*
X163208Y352974D01*
X162365Y350941D01*
X160809Y349385D01*
X158776Y348542D01*
X156574Y348542D01*
X154541Y349385D01*
X152985Y350941D01*
X152173Y352900D01*
X152129Y352974D01*
X152093Y353054D01*
X152058Y353095D01*
X152030Y353143D01*
X151966Y353202D01*
X151910Y353268D01*
X151864Y353298D01*
X151824Y353336D01*
X151747Y353375D01*
X151674Y353422D01*
X151621Y353438D01*
X151572Y353463D01*
X151487Y353479D01*
X151404Y353505D01*
X151349Y353506D01*
X151295Y353516D01*
X151209Y353507D01*
X151122Y353509D01*
X151069Y353494D01*
X151015Y353489D01*
X150934Y353457D01*
X150850Y353433D01*
X150803Y353404D01*
X150753Y353384D01*
X150684Y353331D01*
X150610Y353285D01*
X150574Y353244D01*
X150530Y353211D01*
X150479Y353140D01*
X150421Y353076D01*
X150397Y353027D01*
X150365Y352982D01*
X150336Y352900D01*
X150298Y352822D01*
X150290Y352772D01*
X150271Y352716D01*
X150264Y352603D01*
X150251Y352518D01*
X150251Y346666D01*
X150264Y346571D01*
X150269Y346475D01*
X150284Y346432D01*
X150291Y346387D01*
X150330Y346299D01*
X150362Y346209D01*
X150387Y346174D01*
X150407Y346130D01*
X150490Y346033D01*
X150543Y345960D01*
X151960Y344543D01*
X152036Y344486D01*
X152108Y344421D01*
X152149Y344401D01*
X152185Y344374D01*
X152275Y344340D01*
X152362Y344298D01*
X152404Y344292D01*
X152449Y344275D01*
X152577Y344265D01*
X152666Y344251D01*
X156012Y344251D01*
X156107Y344264D01*
X156204Y344269D01*
X156247Y344284D01*
X156292Y344291D01*
X156379Y344330D01*
X156470Y344362D01*
X156504Y344387D01*
X156549Y344407D01*
X156646Y344490D01*
X156719Y344543D01*
X157866Y345690D01*
X159899Y346533D01*
X162101Y346533D01*
X164134Y345690D01*
X165690Y344134D01*
X166533Y342101D01*
X166533Y339899D01*
X165690Y337866D01*
X164134Y336310D01*
X162101Y335467D01*
X159841Y335467D01*
X159723Y335451D01*
X159605Y335439D01*
X159584Y335431D01*
X159562Y335427D01*
X159454Y335379D01*
X159343Y335335D01*
X159325Y335321D01*
X159305Y335311D01*
X159215Y335234D01*
X159121Y335161D01*
X159108Y335143D01*
X159090Y335128D01*
X159025Y335028D01*
X158956Y334932D01*
X158948Y334911D01*
X158936Y334892D01*
X158901Y334778D01*
X158861Y334667D01*
X158860Y334644D01*
X158853Y334622D01*
X158852Y334504D01*
X158845Y334385D01*
X158850Y334364D01*
X158850Y334340D01*
X158899Y334161D01*
X158918Y334086D01*
X159391Y332943D01*
X159396Y332934D01*
X159398Y332925D01*
X159468Y332813D01*
X159535Y332700D01*
X159542Y332693D01*
X159547Y332685D01*
X159644Y332597D01*
X159740Y332507D01*
X159749Y332503D01*
X159756Y332496D01*
X159874Y332439D01*
X159992Y332379D01*
X160001Y332377D01*
X160010Y332373D01*
X160086Y332361D01*
X160269Y332327D01*
X160293Y332329D01*
X160314Y332326D01*
X174687Y332326D01*
X174783Y332339D01*
X174879Y332344D01*
X174922Y332359D01*
X174967Y332366D01*
X175054Y332405D01*
X175145Y332437D01*
X175179Y332462D01*
X175224Y332482D01*
X175321Y332565D01*
X175394Y332618D01*
X176541Y333765D01*
X178574Y334608D01*
X180776Y334608D01*
X182809Y333765D01*
X184365Y332209D01*
X185208Y330176D01*
X185208Y327974D01*
X184365Y325941D01*
X182809Y324385D01*
X181368Y323788D01*
X181359Y323783D01*
X181350Y323780D01*
X181238Y323711D01*
X181125Y323644D01*
X181118Y323637D01*
X181110Y323632D01*
X181022Y323534D01*
X180932Y323438D01*
X180928Y323430D01*
X180921Y323423D01*
X180864Y323304D01*
X180804Y323187D01*
X180802Y323177D01*
X180798Y323169D01*
X180786Y323093D01*
X180774Y323030D01*
X180763Y322991D01*
X180762Y322966D01*
X180752Y322910D01*
X180754Y322886D01*
X180751Y322864D01*
X180751Y319804D01*
X180759Y319744D01*
X180759Y319711D01*
X180768Y319677D01*
X180779Y319569D01*
X180787Y319548D01*
X180791Y319525D01*
X180839Y319417D01*
X180883Y319307D01*
X180897Y319289D01*
X180907Y319268D01*
X180984Y319178D01*
X181057Y319084D01*
X181075Y319071D01*
X181090Y319054D01*
X181190Y318989D01*
X181286Y318919D01*
X181307Y318912D01*
X181326Y318899D01*
X181440Y318865D01*
X181551Y318825D01*
X181574Y318824D01*
X181596Y318817D01*
X181714Y318815D01*
X181833Y318808D01*
X181854Y318813D01*
X181878Y318813D01*
X182057Y318863D01*
X182132Y318881D01*
X184036Y319670D01*
X186238Y319670D01*
X188271Y318827D01*
X189827Y317271D01*
X190670Y315238D01*
X190670Y313036D01*
X189827Y311003D01*
X188271Y309447D01*
X186238Y308604D01*
X184036Y308604D01*
X182396Y309284D01*
X182312Y309305D01*
X182231Y309336D01*
X182176Y309340D01*
X182123Y309354D01*
X182036Y309351D01*
X181950Y309358D01*
X181896Y309346D01*
X181841Y309345D01*
X181759Y309318D01*
X181674Y309300D01*
X181625Y309274D01*
X181573Y309257D01*
X181501Y309208D01*
X181425Y309168D01*
X181385Y309129D01*
X181340Y309098D01*
X181285Y309031D01*
X181223Y308971D01*
X181196Y308923D01*
X181161Y308881D01*
X181126Y308801D01*
X181084Y308725D01*
X181071Y308672D01*
X181049Y308622D01*
X181039Y308536D01*
X181019Y308451D01*
X181022Y308396D01*
X181015Y308342D01*
X181029Y308256D01*
X181033Y308169D01*
X181051Y308117D01*
X181060Y308063D01*
X181097Y307985D01*
X181126Y307903D01*
X181156Y307862D01*
X181181Y307809D01*
X181257Y307723D01*
X181307Y307654D01*
X211918Y277043D01*
X211995Y276986D01*
X212066Y276921D01*
X212107Y276901D01*
X212143Y276874D01*
X212233Y276840D01*
X212320Y276798D01*
X212362Y276792D01*
X212407Y276775D01*
X212535Y276765D01*
X212624Y276751D01*
X241240Y276751D01*
X241335Y276764D01*
X241431Y276769D01*
X241474Y276784D01*
X241519Y276791D01*
X241606Y276830D01*
X241697Y276862D01*
X241732Y276887D01*
X241776Y276907D01*
X241873Y276990D01*
X241946Y277043D01*
X243675Y278772D01*
X243732Y278849D01*
X243797Y278920D01*
X243817Y278961D01*
X243844Y278997D01*
X243878Y279087D01*
X243920Y279174D01*
X243926Y279216D01*
X243943Y279261D01*
X243953Y279389D01*
X243967Y279478D01*
X243967Y281101D01*
X244810Y283134D01*
X246366Y284690D01*
X248399Y285533D01*
X250601Y285533D01*
X252634Y284690D01*
X254190Y283134D01*
X255033Y281101D01*
X255033Y278899D01*
X254190Y276866D01*
X252634Y275310D01*
X250601Y274467D01*
X248978Y274467D01*
X248883Y274454D01*
X248787Y274449D01*
X248744Y274434D01*
X248699Y274427D01*
X248612Y274388D01*
X248521Y274356D01*
X248486Y274331D01*
X248442Y274311D01*
X248345Y274228D01*
X248272Y274175D01*
X248054Y273957D01*
X248034Y273931D01*
X248010Y273910D01*
X247950Y273818D01*
X247885Y273731D01*
X247873Y273701D01*
X247855Y273674D01*
X247824Y273569D01*
X247785Y273467D01*
X247782Y273435D01*
X247773Y273404D01*
X247772Y273295D01*
X247763Y273186D01*
X247770Y273154D01*
X247769Y273122D01*
X247798Y273017D01*
X247821Y272910D01*
X247836Y272881D01*
X247845Y272850D01*
X247902Y272757D01*
X247953Y272661D01*
X247976Y272638D01*
X247993Y272610D01*
X248074Y272537D01*
X248150Y272459D01*
X248178Y272443D01*
X248202Y272421D01*
X248300Y272374D01*
X248395Y272320D01*
X248427Y272312D01*
X248456Y272298D01*
X248545Y272284D01*
X248670Y272255D01*
X248718Y272257D01*
X248760Y272251D01*
X261512Y272251D01*
X261608Y272264D01*
X261704Y272269D01*
X261747Y272284D01*
X261792Y272291D01*
X261879Y272330D01*
X261970Y272362D01*
X262004Y272387D01*
X262049Y272407D01*
X262146Y272490D01*
X262219Y272543D01*
X263366Y273690D01*
X265399Y274533D01*
X267601Y274533D01*
X269634Y273690D01*
X271190Y272134D01*
X272033Y270101D01*
X272033Y267899D01*
X271190Y265866D01*
X269634Y264310D01*
X267601Y263467D01*
X265399Y263467D01*
G37*
%LPD*%
%LPC*%
G36*
X259085Y356499D02*
X259085Y356499D01*
X258499Y357085D01*
X258499Y397672D01*
X258486Y397767D01*
X258481Y397863D01*
X258466Y397906D01*
X258459Y397951D01*
X258420Y398038D01*
X258388Y398129D01*
X258363Y398164D01*
X258343Y398208D01*
X258260Y398305D01*
X258207Y398378D01*
X255914Y400671D01*
X255888Y400691D01*
X255867Y400715D01*
X255775Y400775D01*
X255688Y400840D01*
X255658Y400852D01*
X255631Y400870D01*
X255526Y400902D01*
X255424Y400940D01*
X255392Y400943D01*
X255361Y400952D01*
X255252Y400953D01*
X255143Y400962D01*
X255111Y400955D01*
X255079Y400956D01*
X254974Y400926D01*
X254867Y400904D01*
X254838Y400889D01*
X254807Y400880D01*
X254714Y400823D01*
X254618Y400772D01*
X254595Y400749D01*
X254567Y400732D01*
X254494Y400651D01*
X254416Y400575D01*
X254400Y400547D01*
X254378Y400523D01*
X254331Y400425D01*
X254277Y400330D01*
X254269Y400298D01*
X254255Y400269D01*
X254241Y400180D01*
X254212Y400055D01*
X254214Y400007D01*
X254208Y399965D01*
X254208Y398474D01*
X253365Y396441D01*
X251809Y394885D01*
X249776Y394042D01*
X247574Y394042D01*
X245541Y394885D01*
X243985Y396441D01*
X243142Y398474D01*
X243142Y400676D01*
X243985Y402709D01*
X245541Y404265D01*
X247574Y405108D01*
X249065Y405108D01*
X249097Y405112D01*
X249129Y405110D01*
X249236Y405132D01*
X249344Y405148D01*
X249373Y405161D01*
X249405Y405167D01*
X249501Y405219D01*
X249601Y405264D01*
X249625Y405285D01*
X249654Y405300D01*
X249732Y405376D01*
X249815Y405447D01*
X249833Y405474D01*
X249856Y405497D01*
X249910Y405591D01*
X249970Y405683D01*
X249979Y405714D01*
X249995Y405742D01*
X250020Y405848D01*
X250052Y405953D01*
X250052Y405985D01*
X250060Y406016D01*
X250054Y406126D01*
X250056Y406235D01*
X250047Y406266D01*
X250045Y406298D01*
X250010Y406401D01*
X249980Y406507D01*
X249964Y406534D01*
X249953Y406565D01*
X249900Y406638D01*
X249832Y406747D01*
X249796Y406779D01*
X249771Y406814D01*
X249493Y407092D01*
X249499Y407500D01*
X249498Y407508D01*
X249499Y407516D01*
X249499Y408249D01*
X249512Y408326D01*
X249603Y413909D01*
X249587Y414034D01*
X249575Y414160D01*
X249569Y414174D01*
X249567Y414189D01*
X249517Y414305D01*
X249470Y414422D01*
X249461Y414434D01*
X249455Y414447D01*
X249374Y414545D01*
X249297Y414645D01*
X249285Y414653D01*
X249275Y414665D01*
X249170Y414736D01*
X249068Y414810D01*
X249054Y414815D01*
X249042Y414823D01*
X248921Y414862D01*
X248802Y414904D01*
X248787Y414905D01*
X248773Y414910D01*
X248647Y414913D01*
X248521Y414921D01*
X248507Y414917D01*
X248492Y414918D01*
X248244Y414854D01*
X248221Y414848D01*
X246276Y414042D01*
X244074Y414042D01*
X242041Y414885D01*
X241632Y415294D01*
X241580Y415333D01*
X241535Y415379D01*
X241468Y415417D01*
X241406Y415463D01*
X241346Y415486D01*
X241290Y415518D01*
X241215Y415535D01*
X241142Y415563D01*
X241078Y415568D01*
X241016Y415583D01*
X240938Y415579D01*
X240861Y415585D01*
X240798Y415571D01*
X240734Y415568D01*
X240661Y415543D01*
X240585Y415527D01*
X240528Y415497D01*
X240467Y415476D01*
X240411Y415434D01*
X240336Y415395D01*
X240275Y415335D01*
X240218Y415294D01*
X239809Y414885D01*
X237776Y414042D01*
X235574Y414042D01*
X233541Y414885D01*
X233132Y415294D01*
X233080Y415333D01*
X233035Y415379D01*
X232968Y415417D01*
X232906Y415463D01*
X232846Y415486D01*
X232790Y415518D01*
X232715Y415535D01*
X232642Y415563D01*
X232578Y415568D01*
X232516Y415583D01*
X232438Y415579D01*
X232361Y415585D01*
X232298Y415571D01*
X232234Y415568D01*
X232161Y415543D01*
X232085Y415527D01*
X232028Y415497D01*
X231967Y415476D01*
X231911Y415434D01*
X231836Y415395D01*
X231775Y415335D01*
X231718Y415294D01*
X231309Y414885D01*
X229276Y414042D01*
X227074Y414042D01*
X225041Y414885D01*
X223485Y416441D01*
X222642Y418474D01*
X222642Y420676D01*
X223485Y422709D01*
X223894Y423118D01*
X223932Y423170D01*
X223979Y423215D01*
X224017Y423282D01*
X224063Y423344D01*
X224086Y423404D01*
X224118Y423460D01*
X224135Y423535D01*
X224163Y423608D01*
X224168Y423672D01*
X224183Y423735D01*
X224179Y423812D01*
X224185Y423889D01*
X224171Y423952D01*
X224168Y424016D01*
X224143Y424089D01*
X224127Y424165D01*
X224097Y424222D01*
X224076Y424283D01*
X224034Y424339D01*
X223995Y424414D01*
X223935Y424475D01*
X223894Y424532D01*
X223485Y424941D01*
X222642Y426974D01*
X222642Y429176D01*
X223485Y431209D01*
X223894Y431618D01*
X223933Y431670D01*
X223979Y431715D01*
X224017Y431782D01*
X224063Y431844D01*
X224086Y431904D01*
X224118Y431960D01*
X224135Y432035D01*
X224163Y432108D01*
X224168Y432172D01*
X224183Y432234D01*
X224179Y432312D01*
X224185Y432389D01*
X224171Y432452D01*
X224168Y432516D01*
X224143Y432589D01*
X224127Y432665D01*
X224097Y432722D01*
X224076Y432783D01*
X224034Y432839D01*
X223995Y432914D01*
X223935Y432975D01*
X223894Y433032D01*
X223485Y433441D01*
X222642Y435474D01*
X222642Y437676D01*
X223485Y439709D01*
X225041Y441265D01*
X227074Y442108D01*
X229276Y442108D01*
X231309Y441265D01*
X231718Y440856D01*
X231770Y440817D01*
X231815Y440771D01*
X231882Y440733D01*
X231944Y440687D01*
X232004Y440664D01*
X232060Y440632D01*
X232135Y440615D01*
X232208Y440587D01*
X232272Y440582D01*
X232334Y440567D01*
X232412Y440571D01*
X232489Y440565D01*
X232552Y440579D01*
X232616Y440582D01*
X232689Y440607D01*
X232765Y440623D01*
X232822Y440653D01*
X232883Y440674D01*
X232939Y440716D01*
X233014Y440755D01*
X233075Y440815D01*
X233132Y440856D01*
X233541Y441265D01*
X235574Y442108D01*
X237776Y442108D01*
X239809Y441265D01*
X240218Y440856D01*
X240270Y440818D01*
X240315Y440771D01*
X240382Y440733D01*
X240444Y440687D01*
X240504Y440664D01*
X240560Y440632D01*
X240635Y440615D01*
X240708Y440587D01*
X240772Y440582D01*
X240835Y440567D01*
X240912Y440571D01*
X240989Y440565D01*
X241052Y440579D01*
X241116Y440582D01*
X241189Y440607D01*
X241265Y440623D01*
X241322Y440653D01*
X241383Y440674D01*
X241439Y440716D01*
X241514Y440755D01*
X241575Y440815D01*
X241632Y440856D01*
X242041Y441265D01*
X244074Y442108D01*
X246276Y442108D01*
X248309Y441265D01*
X249772Y439802D01*
X249843Y439749D01*
X249907Y439689D01*
X249955Y439665D01*
X249998Y439633D01*
X250081Y439602D01*
X250159Y439562D01*
X250208Y439554D01*
X250262Y439533D01*
X250377Y439524D01*
X250463Y439510D01*
X251000Y439501D01*
X251008Y439502D01*
X251016Y439501D01*
X261129Y439501D01*
X261242Y439517D01*
X261355Y439527D01*
X261381Y439537D01*
X261409Y439541D01*
X261512Y439587D01*
X261618Y439629D01*
X261639Y439645D01*
X261666Y439657D01*
X261793Y439765D01*
X261861Y439819D01*
X274231Y453106D01*
X274276Y453170D01*
X274329Y453229D01*
X274343Y453258D01*
X274767Y453682D01*
X274778Y453697D01*
X274792Y453708D01*
X275064Y454001D01*
X275464Y454001D01*
X275483Y454003D01*
X275500Y454001D01*
X276090Y454022D01*
X276105Y454017D01*
X276207Y454013D01*
X276287Y454001D01*
X285915Y454001D01*
X286501Y453415D01*
X286501Y424880D01*
X286517Y424763D01*
X286528Y424646D01*
X286537Y424624D01*
X286541Y424601D01*
X286589Y424494D01*
X286632Y424384D01*
X286646Y424366D01*
X286657Y424344D01*
X286775Y424206D01*
X286825Y424143D01*
X291603Y419763D01*
X291664Y419721D01*
X291720Y419671D01*
X291780Y419642D01*
X291835Y419604D01*
X291906Y419581D01*
X291973Y419548D01*
X292034Y419539D01*
X292103Y419516D01*
X292201Y419513D01*
X292278Y419501D01*
X301915Y419501D01*
X302501Y418915D01*
X302501Y385585D01*
X288293Y371378D01*
X288236Y371301D01*
X288171Y371230D01*
X288151Y371189D01*
X288124Y371153D01*
X288090Y371063D01*
X288048Y370976D01*
X288042Y370934D01*
X288025Y370889D01*
X288015Y370761D01*
X288001Y370672D01*
X288001Y359085D01*
X285415Y356499D01*
X259085Y356499D01*
G37*
%LPD*%
%LPC*%
G36*
X483932Y305574D02*
X483932Y305574D01*
X482920Y306587D01*
X482912Y306592D01*
X482906Y306600D01*
X482819Y306663D01*
X482802Y306678D01*
X482790Y306684D01*
X482694Y306756D01*
X482685Y306759D01*
X482677Y306765D01*
X482554Y306809D01*
X482430Y306856D01*
X482421Y306856D01*
X482412Y306859D01*
X482280Y306867D01*
X482149Y306877D01*
X482140Y306875D01*
X482130Y306876D01*
X482055Y306858D01*
X481873Y306820D01*
X481852Y306808D01*
X481831Y306803D01*
X480601Y306294D01*
X478400Y306294D01*
X476367Y307137D01*
X474811Y308693D01*
X473968Y310726D01*
X473968Y312927D01*
X474811Y314961D01*
X476367Y316517D01*
X478400Y317360D01*
X479034Y317360D01*
X479073Y317365D01*
X479112Y317363D01*
X479212Y317385D01*
X479313Y317400D01*
X479349Y317416D01*
X479388Y317424D01*
X479477Y317474D01*
X479570Y317516D01*
X479600Y317541D01*
X479635Y317560D01*
X479707Y317633D01*
X479785Y317699D01*
X479806Y317732D01*
X479834Y317760D01*
X479883Y317850D01*
X479939Y317935D01*
X479951Y317973D01*
X479970Y318007D01*
X479987Y318093D01*
X480021Y318205D01*
X480022Y318261D01*
X480032Y318309D01*
X480173Y321125D01*
X480171Y321152D01*
X480174Y321175D01*
X480174Y322407D01*
X481088Y323233D01*
X481105Y323254D01*
X481124Y323268D01*
X484432Y326576D01*
X488803Y326576D01*
X488812Y326577D01*
X488822Y326576D01*
X488952Y326597D01*
X489082Y326616D01*
X489091Y326619D01*
X489100Y326621D01*
X489220Y326678D01*
X489339Y326732D01*
X489346Y326738D01*
X489355Y326742D01*
X489453Y326830D01*
X489553Y326915D01*
X489559Y326923D01*
X489566Y326929D01*
X489606Y326995D01*
X489708Y327151D01*
X489715Y327174D01*
X489726Y327193D01*
X490049Y327972D01*
X491605Y329528D01*
X493639Y330371D01*
X495840Y330371D01*
X497873Y329528D01*
X499430Y327972D01*
X499753Y327193D01*
X499758Y327184D01*
X499760Y327175D01*
X499829Y327063D01*
X499896Y326950D01*
X499903Y326943D01*
X499908Y326935D01*
X500006Y326847D01*
X500102Y326757D01*
X500110Y326753D01*
X500118Y326746D01*
X500236Y326689D01*
X500353Y326629D01*
X500363Y326627D01*
X500371Y326623D01*
X500447Y326611D01*
X500631Y326577D01*
X500655Y326579D01*
X500676Y326576D01*
X539182Y326576D01*
X539966Y325792D01*
X539974Y325786D01*
X539980Y325779D01*
X540086Y325702D01*
X540192Y325623D01*
X540201Y325619D01*
X540208Y325614D01*
X540332Y325570D01*
X540456Y325523D01*
X540465Y325522D01*
X540474Y325519D01*
X540605Y325511D01*
X540737Y325501D01*
X540746Y325503D01*
X540756Y325503D01*
X540831Y325521D01*
X541013Y325559D01*
X541034Y325570D01*
X541055Y325575D01*
X541660Y325826D01*
X543861Y325826D01*
X545894Y324983D01*
X546804Y324074D01*
X546855Y324035D01*
X546900Y323989D01*
X546967Y323951D01*
X547029Y323905D01*
X547089Y323882D01*
X547145Y323850D01*
X547221Y323832D01*
X547293Y323805D01*
X547357Y323800D01*
X547420Y323785D01*
X547497Y323789D01*
X547574Y323783D01*
X547637Y323796D01*
X547701Y323800D01*
X547774Y323825D01*
X547850Y323841D01*
X547907Y323871D01*
X547968Y323892D01*
X548024Y323933D01*
X548099Y323973D01*
X548160Y324032D01*
X548217Y324074D01*
X549126Y324983D01*
X551160Y325826D01*
X553361Y325826D01*
X555394Y324983D01*
X556950Y323427D01*
X557793Y321393D01*
X557793Y319192D01*
X556950Y317159D01*
X556291Y316499D01*
X556253Y316448D01*
X556206Y316403D01*
X556168Y316336D01*
X556122Y316274D01*
X556099Y316214D01*
X556067Y316158D01*
X556050Y316082D01*
X556022Y316010D01*
X556017Y315946D01*
X556003Y315883D01*
X556006Y315806D01*
X556000Y315729D01*
X556014Y315666D01*
X556017Y315602D01*
X556042Y315528D01*
X556058Y315453D01*
X556088Y315396D01*
X556109Y315335D01*
X556151Y315279D01*
X556191Y315204D01*
X556250Y315143D01*
X556291Y315086D01*
X556950Y314427D01*
X557793Y312393D01*
X557793Y310192D01*
X556950Y308159D01*
X555394Y306602D01*
X553361Y305760D01*
X551160Y305760D01*
X549126Y306602D01*
X548217Y307512D01*
X548165Y307550D01*
X548120Y307596D01*
X548053Y307635D01*
X547991Y307681D01*
X547931Y307704D01*
X547875Y307735D01*
X547800Y307753D01*
X547727Y307781D01*
X547663Y307786D01*
X547601Y307800D01*
X547523Y307796D01*
X547446Y307802D01*
X547383Y307789D01*
X547319Y307786D01*
X547246Y307761D01*
X547170Y307745D01*
X547113Y307715D01*
X547052Y307694D01*
X546996Y307652D01*
X546921Y307612D01*
X546860Y307553D01*
X546804Y307512D01*
X545894Y306602D01*
X543861Y305760D01*
X541660Y305760D01*
X540741Y306141D01*
X540732Y306143D01*
X540723Y306148D01*
X540594Y306178D01*
X540468Y306211D01*
X540458Y306210D01*
X540449Y306213D01*
X540316Y306206D01*
X540186Y306202D01*
X540177Y306199D01*
X540167Y306198D01*
X540043Y306155D01*
X539918Y306114D01*
X539910Y306109D01*
X539901Y306106D01*
X539839Y306060D01*
X539685Y305955D01*
X539669Y305937D01*
X539652Y305924D01*
X539302Y305574D01*
X483932Y305574D01*
G37*
%LPD*%
%LPC*%
G36*
X15574Y461542D02*
X15574Y461542D01*
X13541Y462385D01*
X11985Y463941D01*
X11142Y465974D01*
X11142Y468176D01*
X11985Y470209D01*
X13541Y471765D01*
X15574Y472608D01*
X17776Y472608D01*
X19809Y471765D01*
X21365Y470209D01*
X21502Y469880D01*
X21518Y469852D01*
X21528Y469821D01*
X21590Y469731D01*
X21645Y469637D01*
X21669Y469615D01*
X21687Y469588D01*
X21772Y469519D01*
X21851Y469444D01*
X21880Y469430D01*
X21905Y469409D01*
X22005Y469366D01*
X22103Y469316D01*
X22134Y469310D01*
X22164Y469298D01*
X22272Y469284D01*
X22380Y469264D01*
X22412Y469267D01*
X22444Y469263D01*
X22552Y469281D01*
X22660Y469291D01*
X22690Y469303D01*
X22722Y469308D01*
X22821Y469355D01*
X22922Y469395D01*
X22948Y469415D01*
X22977Y469429D01*
X23059Y469502D01*
X23145Y469569D01*
X23164Y469595D01*
X23188Y469617D01*
X23235Y469694D01*
X23310Y469798D01*
X23326Y469843D01*
X23348Y469880D01*
X23485Y470209D01*
X25041Y471765D01*
X27074Y472608D01*
X29276Y472608D01*
X31309Y471765D01*
X32968Y470106D01*
X33020Y470067D01*
X33065Y470021D01*
X33132Y469983D01*
X33194Y469937D01*
X33254Y469914D01*
X33310Y469882D01*
X33385Y469865D01*
X33458Y469837D01*
X33522Y469832D01*
X33584Y469817D01*
X33662Y469821D01*
X33739Y469815D01*
X33802Y469829D01*
X33866Y469832D01*
X33939Y469857D01*
X34015Y469873D01*
X34072Y469903D01*
X34133Y469924D01*
X34189Y469966D01*
X34264Y470005D01*
X34325Y470065D01*
X34382Y470106D01*
X35144Y470868D01*
X35183Y470920D01*
X35229Y470965D01*
X35267Y471032D01*
X35313Y471094D01*
X35336Y471154D01*
X35368Y471210D01*
X35385Y471285D01*
X35413Y471358D01*
X35418Y471422D01*
X35433Y471484D01*
X35429Y471562D01*
X35435Y471639D01*
X35421Y471702D01*
X35418Y471766D01*
X35393Y471839D01*
X35377Y471915D01*
X35347Y471972D01*
X35326Y472033D01*
X35284Y472089D01*
X35245Y472164D01*
X35185Y472225D01*
X35144Y472282D01*
X34485Y472941D01*
X33642Y474974D01*
X33642Y477176D01*
X34485Y479209D01*
X35144Y479868D01*
X35182Y479920D01*
X35229Y479965D01*
X35267Y480032D01*
X35313Y480094D01*
X35336Y480154D01*
X35368Y480210D01*
X35385Y480285D01*
X35413Y480358D01*
X35418Y480422D01*
X35433Y480485D01*
X35429Y480562D01*
X35435Y480639D01*
X35421Y480702D01*
X35418Y480766D01*
X35393Y480839D01*
X35377Y480915D01*
X35347Y480972D01*
X35326Y481033D01*
X35284Y481089D01*
X35245Y481164D01*
X35185Y481225D01*
X35144Y481282D01*
X34485Y481941D01*
X33642Y483974D01*
X33642Y486176D01*
X34485Y488209D01*
X35394Y489118D01*
X35432Y489170D01*
X35479Y489215D01*
X35517Y489282D01*
X35563Y489344D01*
X35586Y489404D01*
X35618Y489460D01*
X35635Y489535D01*
X35663Y489608D01*
X35668Y489672D01*
X35683Y489735D01*
X35679Y489812D01*
X35685Y489889D01*
X35671Y489952D01*
X35668Y490016D01*
X35643Y490089D01*
X35627Y490165D01*
X35597Y490222D01*
X35576Y490283D01*
X35534Y490339D01*
X35495Y490414D01*
X35435Y490475D01*
X35394Y490532D01*
X34382Y491544D01*
X34330Y491583D01*
X34285Y491629D01*
X34218Y491667D01*
X34156Y491713D01*
X34096Y491736D01*
X34040Y491768D01*
X33964Y491785D01*
X33892Y491813D01*
X33828Y491818D01*
X33765Y491833D01*
X33688Y491829D01*
X33611Y491835D01*
X33548Y491821D01*
X33484Y491818D01*
X33411Y491793D01*
X33335Y491777D01*
X33278Y491747D01*
X33217Y491726D01*
X33161Y491684D01*
X33086Y491644D01*
X33025Y491585D01*
X32968Y491544D01*
X31309Y489885D01*
X29276Y489042D01*
X27074Y489042D01*
X25041Y489885D01*
X23544Y491382D01*
X23449Y491453D01*
X23357Y491529D01*
X23336Y491538D01*
X23318Y491551D01*
X23207Y491593D01*
X23098Y491640D01*
X23075Y491643D01*
X23054Y491651D01*
X22936Y491660D01*
X22818Y491674D01*
X22796Y491671D01*
X22773Y491673D01*
X22657Y491648D01*
X22540Y491629D01*
X22519Y491620D01*
X22497Y491615D01*
X22392Y491559D01*
X22285Y491508D01*
X22268Y491493D01*
X22248Y491483D01*
X22163Y491400D01*
X22074Y491321D01*
X22063Y491302D01*
X22046Y491286D01*
X21954Y491124D01*
X21914Y491058D01*
X21865Y490941D01*
X20309Y489385D01*
X18276Y488542D01*
X16074Y488542D01*
X14041Y489385D01*
X12485Y490941D01*
X11642Y492974D01*
X11642Y495176D01*
X12485Y497209D01*
X14041Y498765D01*
X16074Y499608D01*
X18276Y499608D01*
X20309Y498765D01*
X21806Y497268D01*
X21901Y497197D01*
X21993Y497121D01*
X22014Y497112D01*
X22032Y497099D01*
X22143Y497057D01*
X22252Y497010D01*
X22275Y497007D01*
X22296Y496999D01*
X22414Y496990D01*
X22532Y496976D01*
X22554Y496979D01*
X22577Y496977D01*
X22693Y497002D01*
X22810Y497021D01*
X22831Y497030D01*
X22853Y497035D01*
X22958Y497091D01*
X23065Y497142D01*
X23082Y497157D01*
X23102Y497167D01*
X23187Y497250D01*
X23276Y497329D01*
X23287Y497348D01*
X23304Y497364D01*
X23396Y497526D01*
X23436Y497592D01*
X23485Y497709D01*
X25041Y499265D01*
X27074Y500108D01*
X29276Y500108D01*
X31309Y499265D01*
X32968Y497606D01*
X33020Y497567D01*
X33065Y497521D01*
X33132Y497483D01*
X33194Y497437D01*
X33254Y497414D01*
X33310Y497382D01*
X33385Y497365D01*
X33458Y497337D01*
X33522Y497332D01*
X33584Y497317D01*
X33662Y497321D01*
X33739Y497315D01*
X33802Y497329D01*
X33866Y497332D01*
X33939Y497357D01*
X34015Y497373D01*
X34072Y497403D01*
X34133Y497424D01*
X34189Y497466D01*
X34264Y497505D01*
X34325Y497565D01*
X34382Y497606D01*
X36041Y499265D01*
X38074Y500108D01*
X40276Y500108D01*
X42309Y499265D01*
X43968Y497606D01*
X44020Y497567D01*
X44065Y497521D01*
X44132Y497483D01*
X44194Y497437D01*
X44254Y497414D01*
X44310Y497382D01*
X44385Y497365D01*
X44458Y497337D01*
X44522Y497332D01*
X44584Y497317D01*
X44662Y497321D01*
X44739Y497315D01*
X44802Y497329D01*
X44866Y497332D01*
X44939Y497357D01*
X45015Y497373D01*
X45072Y497403D01*
X45133Y497424D01*
X45189Y497466D01*
X45264Y497505D01*
X45325Y497565D01*
X45382Y497606D01*
X47041Y499265D01*
X49074Y500108D01*
X51276Y500108D01*
X53309Y499265D01*
X54968Y497606D01*
X55020Y497567D01*
X55065Y497521D01*
X55132Y497483D01*
X55194Y497437D01*
X55254Y497414D01*
X55310Y497382D01*
X55385Y497365D01*
X55458Y497337D01*
X55522Y497332D01*
X55584Y497317D01*
X55662Y497321D01*
X55739Y497315D01*
X55802Y497329D01*
X55866Y497332D01*
X55939Y497357D01*
X56015Y497373D01*
X56072Y497403D01*
X56133Y497424D01*
X56189Y497466D01*
X56264Y497505D01*
X56325Y497565D01*
X56382Y497606D01*
X58041Y499265D01*
X60074Y500108D01*
X62276Y500108D01*
X64309Y499265D01*
X65865Y497709D01*
X66605Y495923D01*
X66622Y495895D01*
X66632Y495864D01*
X66694Y495774D01*
X66749Y495680D01*
X66772Y495658D01*
X66791Y495631D01*
X66875Y495562D01*
X66955Y495487D01*
X66983Y495472D01*
X67008Y495452D01*
X67109Y495409D01*
X67206Y495359D01*
X67238Y495353D01*
X67267Y495340D01*
X67376Y495327D01*
X67483Y495307D01*
X67515Y495310D01*
X67547Y495306D01*
X67655Y495323D01*
X67764Y495334D01*
X67794Y495346D01*
X67826Y495351D01*
X67925Y495398D01*
X68026Y495438D01*
X68051Y495458D01*
X68080Y495472D01*
X68162Y495545D01*
X68248Y495612D01*
X68267Y495638D01*
X68291Y495659D01*
X68338Y495737D01*
X68413Y495841D01*
X68430Y495886D01*
X68452Y495923D01*
X68985Y497209D01*
X70541Y498765D01*
X72574Y499608D01*
X74776Y499608D01*
X76809Y498765D01*
X78365Y497209D01*
X79208Y495176D01*
X79208Y492974D01*
X78365Y490941D01*
X76809Y489385D01*
X74776Y488542D01*
X72574Y488542D01*
X70541Y489385D01*
X68985Y490941D01*
X68245Y492727D01*
X68228Y492755D01*
X68218Y492786D01*
X68156Y492876D01*
X68101Y492970D01*
X68078Y492992D01*
X68059Y493019D01*
X67975Y493088D01*
X67895Y493163D01*
X67867Y493178D01*
X67842Y493198D01*
X67741Y493241D01*
X67644Y493291D01*
X67612Y493297D01*
X67583Y493310D01*
X67474Y493323D01*
X67367Y493343D01*
X67335Y493340D01*
X67303Y493344D01*
X67195Y493327D01*
X67086Y493316D01*
X67056Y493304D01*
X67024Y493299D01*
X66925Y493252D01*
X66824Y493212D01*
X66799Y493192D01*
X66770Y493178D01*
X66688Y493105D01*
X66602Y493038D01*
X66583Y493012D01*
X66559Y492991D01*
X66512Y492913D01*
X66437Y492809D01*
X66420Y492764D01*
X66398Y492727D01*
X65865Y491441D01*
X64309Y489885D01*
X62276Y489042D01*
X60074Y489042D01*
X58041Y489885D01*
X56382Y491544D01*
X56330Y491582D01*
X56285Y491629D01*
X56218Y491667D01*
X56156Y491713D01*
X56096Y491736D01*
X56040Y491768D01*
X55965Y491785D01*
X55892Y491813D01*
X55828Y491818D01*
X55766Y491833D01*
X55688Y491829D01*
X55611Y491835D01*
X55548Y491821D01*
X55484Y491818D01*
X55411Y491793D01*
X55335Y491777D01*
X55278Y491747D01*
X55217Y491726D01*
X55161Y491684D01*
X55086Y491645D01*
X55025Y491585D01*
X54968Y491544D01*
X53956Y490532D01*
X53918Y490480D01*
X53871Y490435D01*
X53833Y490368D01*
X53787Y490306D01*
X53764Y490246D01*
X53732Y490190D01*
X53715Y490115D01*
X53687Y490042D01*
X53682Y489978D01*
X53667Y489916D01*
X53671Y489838D01*
X53665Y489761D01*
X53679Y489698D01*
X53682Y489634D01*
X53707Y489561D01*
X53723Y489485D01*
X53753Y489428D01*
X53774Y489367D01*
X53816Y489311D01*
X53855Y489236D01*
X53915Y489175D01*
X53956Y489118D01*
X54865Y488209D01*
X55708Y486176D01*
X55708Y483974D01*
X54865Y481941D01*
X54206Y481282D01*
X54167Y481230D01*
X54121Y481185D01*
X54083Y481118D01*
X54037Y481056D01*
X54014Y480996D01*
X53982Y480940D01*
X53965Y480865D01*
X53937Y480792D01*
X53932Y480728D01*
X53917Y480666D01*
X53921Y480588D01*
X53915Y480511D01*
X53929Y480448D01*
X53932Y480384D01*
X53957Y480311D01*
X53973Y480235D01*
X54003Y480178D01*
X54024Y480117D01*
X54066Y480061D01*
X54105Y479986D01*
X54165Y479925D01*
X54206Y479868D01*
X54865Y479209D01*
X55708Y477176D01*
X55708Y474974D01*
X54865Y472941D01*
X54206Y472282D01*
X54168Y472230D01*
X54121Y472185D01*
X54083Y472118D01*
X54037Y472056D01*
X54014Y471996D01*
X53982Y471940D01*
X53965Y471865D01*
X53937Y471792D01*
X53932Y471728D01*
X53917Y471666D01*
X53921Y471588D01*
X53915Y471511D01*
X53929Y471448D01*
X53932Y471384D01*
X53957Y471311D01*
X53973Y471235D01*
X54003Y471178D01*
X54024Y471117D01*
X54066Y471061D01*
X54105Y470986D01*
X54165Y470925D01*
X54206Y470868D01*
X54968Y470106D01*
X55020Y470068D01*
X55065Y470021D01*
X55132Y469983D01*
X55194Y469937D01*
X55254Y469914D01*
X55310Y469882D01*
X55385Y469865D01*
X55458Y469837D01*
X55522Y469832D01*
X55584Y469817D01*
X55662Y469821D01*
X55739Y469815D01*
X55802Y469829D01*
X55866Y469832D01*
X55939Y469857D01*
X56015Y469873D01*
X56072Y469903D01*
X56133Y469924D01*
X56189Y469966D01*
X56264Y470005D01*
X56325Y470065D01*
X56382Y470106D01*
X58041Y471765D01*
X60074Y472608D01*
X62276Y472608D01*
X64309Y471765D01*
X65865Y470209D01*
X66148Y469526D01*
X66165Y469498D01*
X66175Y469468D01*
X66236Y469378D01*
X66292Y469283D01*
X66315Y469261D01*
X66334Y469235D01*
X66418Y469165D01*
X66498Y469091D01*
X66526Y469076D01*
X66551Y469055D01*
X66652Y469012D01*
X66749Y468963D01*
X66781Y468957D01*
X66810Y468944D01*
X66919Y468931D01*
X67026Y468910D01*
X67058Y468913D01*
X67090Y468910D01*
X67198Y468927D01*
X67307Y468937D01*
X67337Y468949D01*
X67369Y468955D01*
X67467Y469001D01*
X67569Y469042D01*
X67594Y469062D01*
X67623Y469076D01*
X67705Y469148D01*
X67791Y469215D01*
X67810Y469242D01*
X67834Y469263D01*
X67881Y469340D01*
X67956Y469444D01*
X67972Y469490D01*
X67995Y469526D01*
X68485Y470709D01*
X70041Y472265D01*
X72074Y473108D01*
X74276Y473108D01*
X76309Y472265D01*
X77865Y470709D01*
X78708Y468676D01*
X78708Y466474D01*
X77865Y464441D01*
X76309Y462885D01*
X74276Y462042D01*
X72074Y462042D01*
X70041Y462885D01*
X68485Y464441D01*
X68202Y465124D01*
X68200Y465127D01*
X68199Y465130D01*
X68185Y465153D01*
X68175Y465182D01*
X68114Y465272D01*
X68058Y465367D01*
X68035Y465389D01*
X68016Y465415D01*
X67932Y465485D01*
X67852Y465559D01*
X67824Y465574D01*
X67799Y465595D01*
X67698Y465638D01*
X67601Y465687D01*
X67569Y465693D01*
X67540Y465706D01*
X67431Y465719D01*
X67324Y465740D01*
X67292Y465737D01*
X67260Y465740D01*
X67152Y465723D01*
X67043Y465713D01*
X67013Y465701D01*
X66981Y465695D01*
X66883Y465649D01*
X66781Y465608D01*
X66756Y465588D01*
X66727Y465574D01*
X66645Y465502D01*
X66559Y465435D01*
X66540Y465408D01*
X66516Y465387D01*
X66469Y465310D01*
X66394Y465206D01*
X66383Y465176D01*
X66369Y465154D01*
X66364Y465138D01*
X66355Y465124D01*
X65865Y463941D01*
X64309Y462385D01*
X62276Y461542D01*
X60074Y461542D01*
X58041Y462385D01*
X56382Y464044D01*
X56330Y464082D01*
X56285Y464129D01*
X56218Y464167D01*
X56156Y464213D01*
X56096Y464236D01*
X56040Y464268D01*
X55965Y464285D01*
X55892Y464313D01*
X55828Y464318D01*
X55765Y464333D01*
X55688Y464329D01*
X55611Y464335D01*
X55548Y464321D01*
X55484Y464318D01*
X55411Y464293D01*
X55335Y464277D01*
X55278Y464247D01*
X55217Y464226D01*
X55161Y464184D01*
X55086Y464145D01*
X55025Y464085D01*
X54968Y464044D01*
X53309Y462385D01*
X51276Y461542D01*
X49074Y461542D01*
X47041Y462385D01*
X45382Y464044D01*
X45330Y464082D01*
X45285Y464129D01*
X45218Y464167D01*
X45156Y464213D01*
X45096Y464236D01*
X45040Y464268D01*
X44965Y464285D01*
X44892Y464313D01*
X44828Y464318D01*
X44765Y464333D01*
X44688Y464329D01*
X44611Y464335D01*
X44548Y464321D01*
X44484Y464318D01*
X44411Y464293D01*
X44335Y464277D01*
X44278Y464247D01*
X44217Y464226D01*
X44161Y464184D01*
X44086Y464145D01*
X44025Y464085D01*
X43968Y464044D01*
X42309Y462385D01*
X40276Y461542D01*
X38074Y461542D01*
X36041Y462385D01*
X34382Y464044D01*
X34330Y464082D01*
X34285Y464129D01*
X34218Y464167D01*
X34156Y464213D01*
X34096Y464236D01*
X34040Y464268D01*
X33965Y464285D01*
X33892Y464313D01*
X33828Y464318D01*
X33765Y464333D01*
X33688Y464329D01*
X33611Y464335D01*
X33548Y464321D01*
X33484Y464318D01*
X33411Y464293D01*
X33335Y464277D01*
X33278Y464247D01*
X33217Y464226D01*
X33161Y464184D01*
X33086Y464145D01*
X33025Y464085D01*
X32968Y464044D01*
X31309Y462385D01*
X29276Y461542D01*
X27074Y461542D01*
X25041Y462385D01*
X23485Y463941D01*
X23348Y464270D01*
X23332Y464298D01*
X23322Y464329D01*
X23260Y464419D01*
X23205Y464513D01*
X23181Y464535D01*
X23163Y464562D01*
X23079Y464631D01*
X22999Y464706D01*
X22970Y464721D01*
X22945Y464741D01*
X22845Y464784D01*
X22747Y464834D01*
X22716Y464840D01*
X22686Y464852D01*
X22578Y464866D01*
X22470Y464886D01*
X22438Y464883D01*
X22406Y464887D01*
X22298Y464869D01*
X22190Y464859D01*
X22160Y464847D01*
X22128Y464842D01*
X22029Y464795D01*
X21928Y464755D01*
X21902Y464735D01*
X21873Y464721D01*
X21791Y464648D01*
X21705Y464581D01*
X21686Y464555D01*
X21662Y464533D01*
X21615Y464456D01*
X21540Y464352D01*
X21524Y464307D01*
X21502Y464270D01*
X21365Y463941D01*
X19809Y462385D01*
X17776Y461542D01*
X15574Y461542D01*
G37*
%LPD*%
%LPC*%
G36*
X325556Y16335D02*
X325556Y16335D01*
X319689Y21618D01*
X316478Y28830D01*
X316478Y36724D01*
X319689Y43936D01*
X325556Y49219D01*
X333064Y51658D01*
X340916Y50833D01*
X347753Y46886D01*
X352393Y40499D01*
X354034Y32777D01*
X352393Y25055D01*
X347753Y18668D01*
X340916Y14721D01*
X333064Y13896D01*
X325556Y16335D01*
G37*
%LPD*%
%LPC*%
G36*
X23550Y514683D02*
X23550Y514683D01*
X17684Y519966D01*
X14472Y527178D01*
X14472Y535072D01*
X17684Y542284D01*
X23550Y547567D01*
X31058Y550006D01*
X38910Y549181D01*
X45747Y545234D01*
X50387Y538847D01*
X52028Y531125D01*
X50387Y523403D01*
X45747Y517016D01*
X38910Y513069D01*
X31058Y512244D01*
X23550Y514683D01*
G37*
%LPD*%
G36*
X538154Y307589D02*
X538154Y307589D01*
X538250Y307594D01*
X538293Y307609D01*
X538338Y307616D01*
X538426Y307655D01*
X538517Y307687D01*
X538551Y307712D01*
X538595Y307732D01*
X538693Y307815D01*
X538766Y307868D01*
X539957Y309059D01*
X540014Y309136D01*
X540079Y309207D01*
X540099Y309248D01*
X540126Y309285D01*
X540160Y309375D01*
X540202Y309461D01*
X540208Y309503D01*
X540225Y309549D01*
X540235Y309676D01*
X540249Y309766D01*
X540249Y322264D01*
X540236Y322359D01*
X540231Y322455D01*
X540216Y322498D01*
X540209Y322543D01*
X540170Y322631D01*
X540138Y322722D01*
X540113Y322756D01*
X540093Y322800D01*
X540010Y322898D01*
X539957Y322971D01*
X538646Y324282D01*
X538569Y324339D01*
X538498Y324404D01*
X538457Y324424D01*
X538420Y324451D01*
X538330Y324485D01*
X538244Y324527D01*
X538202Y324533D01*
X538156Y324550D01*
X538029Y324560D01*
X537939Y324574D01*
X485675Y324574D01*
X485580Y324561D01*
X485484Y324556D01*
X485441Y324541D01*
X485396Y324534D01*
X485308Y324495D01*
X485217Y324463D01*
X485183Y324438D01*
X485139Y324418D01*
X485042Y324335D01*
X484968Y324282D01*
X482468Y321782D01*
X482426Y321725D01*
X482375Y321674D01*
X482341Y321612D01*
X482299Y321556D01*
X482274Y321489D01*
X482240Y321427D01*
X482227Y321364D01*
X482200Y321292D01*
X482192Y321199D01*
X482177Y321125D01*
X481677Y311125D01*
X481688Y311005D01*
X481694Y310884D01*
X481701Y310864D01*
X481703Y310844D01*
X481747Y310732D01*
X481787Y310617D01*
X481798Y310602D01*
X481806Y310582D01*
X481928Y310424D01*
X481968Y310368D01*
X484468Y307868D01*
X484545Y307811D01*
X484617Y307746D01*
X484658Y307726D01*
X484694Y307699D01*
X484784Y307665D01*
X484870Y307623D01*
X484912Y307617D01*
X484958Y307600D01*
X485086Y307590D01*
X485175Y307576D01*
X538059Y307576D01*
X538154Y307589D01*
G37*
%LPC*%
G36*
X29108Y15792D02*
X29108Y15792D01*
X22018Y19207D01*
X17112Y25359D01*
X15361Y33031D01*
X17112Y40703D01*
X22018Y46855D01*
X29108Y50270D01*
X36978Y50270D01*
X44068Y46855D01*
X48974Y40703D01*
X50725Y33031D01*
X48974Y25359D01*
X44068Y19207D01*
X36978Y15792D01*
X29108Y15792D01*
G37*
%LPD*%
%LPC*%
G36*
X39574Y170042D02*
X39574Y170042D01*
X37541Y170885D01*
X35985Y172441D01*
X35142Y174474D01*
X35142Y176676D01*
X35985Y178709D01*
X37541Y180265D01*
X39077Y180902D01*
X39105Y180918D01*
X39136Y180928D01*
X39226Y180990D01*
X39320Y181045D01*
X39342Y181069D01*
X39369Y181087D01*
X39438Y181172D01*
X39513Y181251D01*
X39528Y181280D01*
X39548Y181305D01*
X39591Y181405D01*
X39641Y181503D01*
X39647Y181534D01*
X39660Y181564D01*
X39673Y181672D01*
X39693Y181780D01*
X39690Y181812D01*
X39694Y181844D01*
X39677Y181952D01*
X39666Y182060D01*
X39654Y182090D01*
X39649Y182122D01*
X39602Y182221D01*
X39562Y182322D01*
X39542Y182348D01*
X39528Y182377D01*
X39455Y182459D01*
X39388Y182545D01*
X39362Y182564D01*
X39341Y182588D01*
X39263Y182635D01*
X39159Y182710D01*
X39114Y182726D01*
X39077Y182748D01*
X37541Y183385D01*
X35985Y184941D01*
X35142Y186974D01*
X35142Y189176D01*
X35985Y191209D01*
X37541Y192765D01*
X39077Y193402D01*
X39105Y193418D01*
X39136Y193428D01*
X39226Y193490D01*
X39320Y193545D01*
X39342Y193569D01*
X39369Y193587D01*
X39438Y193671D01*
X39513Y193751D01*
X39528Y193780D01*
X39548Y193805D01*
X39591Y193905D01*
X39641Y194003D01*
X39647Y194034D01*
X39660Y194064D01*
X39673Y194172D01*
X39693Y194280D01*
X39690Y194312D01*
X39694Y194344D01*
X39677Y194452D01*
X39666Y194560D01*
X39654Y194590D01*
X39649Y194622D01*
X39602Y194721D01*
X39562Y194822D01*
X39542Y194848D01*
X39528Y194877D01*
X39455Y194959D01*
X39388Y195045D01*
X39362Y195064D01*
X39341Y195088D01*
X39263Y195135D01*
X39159Y195210D01*
X39114Y195226D01*
X39077Y195248D01*
X37541Y195885D01*
X35985Y197441D01*
X35142Y199474D01*
X35142Y201676D01*
X35985Y203709D01*
X37144Y204868D01*
X37182Y204920D01*
X37229Y204965D01*
X37267Y205032D01*
X37313Y205094D01*
X37336Y205154D01*
X37368Y205210D01*
X37385Y205285D01*
X37413Y205358D01*
X37418Y205422D01*
X37433Y205485D01*
X37429Y205562D01*
X37435Y205639D01*
X37421Y205702D01*
X37418Y205766D01*
X37393Y205839D01*
X37377Y205915D01*
X37347Y205972D01*
X37326Y206033D01*
X37284Y206089D01*
X37245Y206164D01*
X37185Y206225D01*
X37144Y206282D01*
X35985Y207441D01*
X35142Y209474D01*
X35142Y211676D01*
X35985Y213709D01*
X37144Y214868D01*
X37182Y214920D01*
X37229Y214965D01*
X37267Y215032D01*
X37313Y215094D01*
X37336Y215154D01*
X37368Y215210D01*
X37385Y215285D01*
X37413Y215358D01*
X37418Y215422D01*
X37433Y215485D01*
X37429Y215562D01*
X37435Y215639D01*
X37421Y215702D01*
X37418Y215766D01*
X37393Y215839D01*
X37377Y215915D01*
X37347Y215972D01*
X37326Y216033D01*
X37284Y216089D01*
X37245Y216164D01*
X37185Y216225D01*
X37144Y216282D01*
X35985Y217441D01*
X35142Y219474D01*
X35142Y221676D01*
X35985Y223709D01*
X37144Y224868D01*
X37182Y224920D01*
X37229Y224965D01*
X37267Y225032D01*
X37313Y225094D01*
X37336Y225154D01*
X37368Y225210D01*
X37385Y225285D01*
X37413Y225358D01*
X37418Y225422D01*
X37433Y225485D01*
X37429Y225562D01*
X37435Y225639D01*
X37421Y225702D01*
X37418Y225766D01*
X37393Y225839D01*
X37377Y225915D01*
X37347Y225972D01*
X37326Y226033D01*
X37284Y226089D01*
X37245Y226164D01*
X37185Y226225D01*
X37144Y226282D01*
X35985Y227441D01*
X35142Y229474D01*
X35142Y231676D01*
X35985Y233709D01*
X37541Y235265D01*
X39574Y236108D01*
X41776Y236108D01*
X43809Y235265D01*
X45365Y233709D01*
X46208Y231676D01*
X46208Y229474D01*
X45365Y227441D01*
X44206Y226282D01*
X44167Y226230D01*
X44121Y226185D01*
X44083Y226118D01*
X44037Y226056D01*
X44014Y225996D01*
X43982Y225940D01*
X43965Y225865D01*
X43937Y225792D01*
X43932Y225728D01*
X43917Y225666D01*
X43921Y225588D01*
X43915Y225511D01*
X43929Y225448D01*
X43932Y225384D01*
X43957Y225311D01*
X43973Y225235D01*
X44003Y225178D01*
X44024Y225117D01*
X44066Y225061D01*
X44105Y224986D01*
X44165Y224925D01*
X44206Y224868D01*
X45365Y223709D01*
X46208Y221676D01*
X46208Y219474D01*
X45365Y217441D01*
X44206Y216282D01*
X44167Y216230D01*
X44121Y216185D01*
X44083Y216118D01*
X44037Y216056D01*
X44014Y215996D01*
X43982Y215940D01*
X43965Y215865D01*
X43937Y215792D01*
X43932Y215728D01*
X43917Y215666D01*
X43921Y215588D01*
X43915Y215511D01*
X43929Y215448D01*
X43932Y215384D01*
X43957Y215311D01*
X43973Y215235D01*
X44003Y215178D01*
X44024Y215117D01*
X44066Y215061D01*
X44105Y214986D01*
X44165Y214925D01*
X44206Y214868D01*
X45365Y213709D01*
X46208Y211676D01*
X46208Y209474D01*
X45365Y207441D01*
X44206Y206282D01*
X44167Y206230D01*
X44121Y206185D01*
X44083Y206118D01*
X44037Y206056D01*
X44014Y205996D01*
X43982Y205940D01*
X43965Y205865D01*
X43937Y205792D01*
X43932Y205728D01*
X43917Y205666D01*
X43921Y205588D01*
X43915Y205511D01*
X43929Y205448D01*
X43932Y205384D01*
X43957Y205311D01*
X43973Y205235D01*
X44003Y205178D01*
X44024Y205117D01*
X44066Y205061D01*
X44105Y204986D01*
X44165Y204925D01*
X44206Y204868D01*
X45365Y203709D01*
X46208Y201676D01*
X46208Y199474D01*
X45365Y197441D01*
X43809Y195885D01*
X42273Y195248D01*
X42245Y195232D01*
X42214Y195222D01*
X42124Y195160D01*
X42030Y195105D01*
X42008Y195081D01*
X41981Y195063D01*
X41912Y194978D01*
X41837Y194899D01*
X41822Y194870D01*
X41802Y194845D01*
X41759Y194745D01*
X41709Y194647D01*
X41703Y194616D01*
X41690Y194586D01*
X41677Y194478D01*
X41657Y194370D01*
X41660Y194338D01*
X41656Y194306D01*
X41673Y194198D01*
X41684Y194090D01*
X41696Y194060D01*
X41701Y194028D01*
X41748Y193929D01*
X41788Y193828D01*
X41808Y193802D01*
X41822Y193773D01*
X41895Y193691D01*
X41962Y193605D01*
X41988Y193586D01*
X42009Y193562D01*
X42087Y193515D01*
X42191Y193440D01*
X42236Y193424D01*
X42273Y193402D01*
X43809Y192765D01*
X45365Y191209D01*
X46208Y189176D01*
X46208Y186974D01*
X45365Y184941D01*
X43809Y183385D01*
X42273Y182748D01*
X42245Y182732D01*
X42214Y182722D01*
X42124Y182660D01*
X42030Y182605D01*
X42008Y182581D01*
X41981Y182563D01*
X41912Y182479D01*
X41837Y182399D01*
X41822Y182370D01*
X41802Y182345D01*
X41759Y182245D01*
X41709Y182147D01*
X41703Y182116D01*
X41690Y182086D01*
X41677Y181978D01*
X41657Y181870D01*
X41660Y181838D01*
X41656Y181806D01*
X41673Y181698D01*
X41684Y181590D01*
X41696Y181560D01*
X41701Y181528D01*
X41748Y181429D01*
X41788Y181328D01*
X41808Y181302D01*
X41822Y181273D01*
X41895Y181191D01*
X41962Y181105D01*
X41988Y181086D01*
X42009Y181062D01*
X42087Y181015D01*
X42191Y180940D01*
X42236Y180924D01*
X42273Y180902D01*
X43809Y180265D01*
X45365Y178709D01*
X46208Y176676D01*
X46208Y174474D01*
X45365Y172441D01*
X43809Y170885D01*
X41776Y170042D01*
X39574Y170042D01*
G37*
%LPD*%
%LPC*%
G36*
X204899Y107967D02*
X204899Y107967D01*
X202866Y108810D01*
X201310Y110366D01*
X200467Y112399D01*
X200467Y114601D01*
X201310Y116634D01*
X202866Y118190D01*
X204899Y119033D01*
X207101Y119033D01*
X209169Y118176D01*
X209182Y118166D01*
X209273Y118091D01*
X209294Y118082D01*
X209312Y118068D01*
X209423Y118027D01*
X209532Y117980D01*
X209555Y117977D01*
X209576Y117969D01*
X209695Y117960D01*
X209812Y117945D01*
X209834Y117949D01*
X209857Y117947D01*
X209974Y117971D01*
X210091Y117990D01*
X210111Y118000D01*
X210133Y118005D01*
X210238Y118060D01*
X210345Y118111D01*
X210362Y118126D01*
X210382Y118137D01*
X210467Y118220D01*
X210556Y118299D01*
X210567Y118317D01*
X210584Y118334D01*
X210677Y118497D01*
X210717Y118562D01*
X210985Y119209D01*
X212541Y120765D01*
X214574Y121608D01*
X216776Y121608D01*
X218809Y120765D01*
X220218Y119356D01*
X220270Y119317D01*
X220315Y119271D01*
X220382Y119233D01*
X220444Y119187D01*
X220504Y119164D01*
X220560Y119132D01*
X220635Y119115D01*
X220708Y119087D01*
X220772Y119082D01*
X220834Y119067D01*
X220912Y119071D01*
X220989Y119065D01*
X221052Y119079D01*
X221116Y119082D01*
X221189Y119107D01*
X221265Y119123D01*
X221322Y119153D01*
X221383Y119174D01*
X221439Y119216D01*
X221514Y119255D01*
X221575Y119315D01*
X221632Y119356D01*
X223041Y120765D01*
X225074Y121608D01*
X227276Y121608D01*
X229309Y120765D01*
X229436Y120638D01*
X229462Y120619D01*
X229483Y120594D01*
X229575Y120534D01*
X229662Y120469D01*
X229692Y120457D01*
X229719Y120440D01*
X229823Y120408D01*
X229926Y120369D01*
X229958Y120367D01*
X229989Y120357D01*
X230098Y120356D01*
X230207Y120347D01*
X230239Y120354D01*
X230271Y120354D01*
X230376Y120383D01*
X230483Y120405D01*
X230512Y120420D01*
X230543Y120429D01*
X230636Y120486D01*
X230732Y120537D01*
X230755Y120560D01*
X230783Y120577D01*
X230856Y120658D01*
X230934Y120734D01*
X230950Y120762D01*
X230972Y120786D01*
X231019Y120884D01*
X231073Y120980D01*
X231081Y121011D01*
X231095Y121040D01*
X231109Y121129D01*
X231138Y121254D01*
X231136Y121302D01*
X231142Y121345D01*
X231142Y122676D01*
X231985Y124709D01*
X233541Y126265D01*
X235574Y127108D01*
X237776Y127108D01*
X239629Y126340D01*
X239691Y126324D01*
X239750Y126299D01*
X239827Y126289D01*
X239902Y126270D01*
X239966Y126272D01*
X240030Y126264D01*
X240106Y126277D01*
X240184Y126279D01*
X240245Y126299D01*
X240308Y126309D01*
X240378Y126342D01*
X240452Y126366D01*
X240505Y126403D01*
X240563Y126430D01*
X240621Y126482D01*
X240685Y126525D01*
X240726Y126575D01*
X240774Y126618D01*
X240810Y126678D01*
X240864Y126743D01*
X240898Y126821D01*
X240934Y126881D01*
X241485Y128209D01*
X243041Y129765D01*
X245074Y130608D01*
X247276Y130608D01*
X249309Y129765D01*
X250865Y128209D01*
X251708Y126176D01*
X251708Y123974D01*
X250865Y121941D01*
X249309Y120385D01*
X247276Y119542D01*
X245074Y119542D01*
X243221Y120310D01*
X243159Y120326D01*
X243100Y120351D01*
X243023Y120361D01*
X242948Y120380D01*
X242884Y120378D01*
X242820Y120386D01*
X242744Y120373D01*
X242666Y120371D01*
X242605Y120351D01*
X242542Y120341D01*
X242472Y120308D01*
X242398Y120284D01*
X242345Y120247D01*
X242287Y120220D01*
X242229Y120168D01*
X242165Y120125D01*
X242124Y120075D01*
X242076Y120032D01*
X242040Y119972D01*
X241986Y119907D01*
X241952Y119829D01*
X241916Y119769D01*
X241365Y118441D01*
X239809Y116885D01*
X237776Y116042D01*
X235574Y116042D01*
X233541Y116885D01*
X233414Y117012D01*
X233388Y117031D01*
X233367Y117056D01*
X233275Y117116D01*
X233188Y117181D01*
X233158Y117193D01*
X233131Y117210D01*
X233027Y117242D01*
X232924Y117281D01*
X232892Y117283D01*
X232861Y117293D01*
X232752Y117294D01*
X232643Y117303D01*
X232611Y117296D01*
X232579Y117296D01*
X232474Y117267D01*
X232367Y117245D01*
X232338Y117230D01*
X232307Y117221D01*
X232214Y117164D01*
X232118Y117113D01*
X232095Y117090D01*
X232067Y117073D01*
X231994Y116992D01*
X231916Y116916D01*
X231900Y116888D01*
X231878Y116864D01*
X231831Y116766D01*
X231777Y116670D01*
X231769Y116639D01*
X231755Y116610D01*
X231741Y116521D01*
X231712Y116396D01*
X231714Y116348D01*
X231708Y116305D01*
X231708Y114974D01*
X230865Y112941D01*
X229309Y111385D01*
X227276Y110542D01*
X225074Y110542D01*
X223041Y111385D01*
X221632Y112794D01*
X221580Y112832D01*
X221535Y112879D01*
X221468Y112917D01*
X221406Y112963D01*
X221346Y112986D01*
X221290Y113018D01*
X221215Y113035D01*
X221142Y113063D01*
X221078Y113068D01*
X221015Y113083D01*
X220938Y113079D01*
X220861Y113085D01*
X220798Y113071D01*
X220734Y113068D01*
X220661Y113043D01*
X220585Y113027D01*
X220528Y112997D01*
X220467Y112976D01*
X220411Y112934D01*
X220336Y112895D01*
X220275Y112835D01*
X220218Y112794D01*
X218809Y111385D01*
X216776Y110542D01*
X214574Y110542D01*
X212506Y111399D01*
X212493Y111409D01*
X212402Y111484D01*
X212381Y111493D01*
X212363Y111507D01*
X212252Y111548D01*
X212143Y111595D01*
X212120Y111598D01*
X212099Y111606D01*
X211980Y111615D01*
X211863Y111630D01*
X211841Y111626D01*
X211818Y111628D01*
X211701Y111604D01*
X211584Y111585D01*
X211564Y111575D01*
X211542Y111570D01*
X211437Y111515D01*
X211330Y111464D01*
X211313Y111449D01*
X211293Y111438D01*
X211208Y111355D01*
X211119Y111276D01*
X211108Y111258D01*
X211091Y111241D01*
X210998Y111078D01*
X210958Y111013D01*
X210690Y110366D01*
X209134Y108810D01*
X207101Y107967D01*
X204899Y107967D01*
G37*
%LPD*%
%LPC*%
G36*
X489074Y417542D02*
X489074Y417542D01*
X487041Y418385D01*
X485485Y419941D01*
X484642Y421974D01*
X484642Y424176D01*
X485485Y426209D01*
X487041Y427765D01*
X489074Y428608D01*
X491276Y428608D01*
X493309Y427765D01*
X494718Y426356D01*
X494770Y426318D01*
X494815Y426271D01*
X494882Y426233D01*
X494944Y426187D01*
X495004Y426164D01*
X495060Y426132D01*
X495135Y426115D01*
X495208Y426087D01*
X495272Y426082D01*
X495334Y426067D01*
X495412Y426071D01*
X495489Y426065D01*
X495552Y426079D01*
X495616Y426082D01*
X495689Y426107D01*
X495765Y426123D01*
X495822Y426153D01*
X495883Y426174D01*
X495939Y426216D01*
X496014Y426255D01*
X496075Y426315D01*
X496132Y426356D01*
X496144Y426368D01*
X496182Y426419D01*
X496216Y426452D01*
X496217Y426453D01*
X496229Y426465D01*
X496267Y426532D01*
X496313Y426594D01*
X496336Y426654D01*
X496368Y426710D01*
X496385Y426785D01*
X496413Y426858D01*
X496418Y426922D01*
X496433Y426984D01*
X496429Y427062D01*
X496435Y427139D01*
X496421Y427202D01*
X496418Y427266D01*
X496393Y427339D01*
X496377Y427415D01*
X496347Y427472D01*
X496326Y427533D01*
X496284Y427589D01*
X496245Y427664D01*
X496185Y427725D01*
X496144Y427782D01*
X495985Y427941D01*
X495142Y429974D01*
X495142Y432176D01*
X495985Y434209D01*
X497541Y435765D01*
X499574Y436608D01*
X501776Y436608D01*
X503809Y435765D01*
X505365Y434209D01*
X506208Y432176D01*
X506208Y429974D01*
X505365Y427941D01*
X505206Y427782D01*
X505168Y427730D01*
X505121Y427685D01*
X505083Y427618D01*
X505037Y427556D01*
X505014Y427496D01*
X504982Y427440D01*
X504965Y427365D01*
X504937Y427292D01*
X504932Y427228D01*
X504917Y427166D01*
X504921Y427088D01*
X504915Y427011D01*
X504929Y426948D01*
X504932Y426884D01*
X504957Y426811D01*
X504973Y426735D01*
X505003Y426678D01*
X505024Y426617D01*
X505066Y426561D01*
X505105Y426486D01*
X505165Y426425D01*
X505206Y426368D01*
X505468Y426106D01*
X505520Y426068D01*
X505565Y426021D01*
X505632Y425983D01*
X505694Y425937D01*
X505754Y425914D01*
X505810Y425882D01*
X505885Y425865D01*
X505958Y425837D01*
X506022Y425832D01*
X506084Y425817D01*
X506162Y425821D01*
X506239Y425815D01*
X506302Y425829D01*
X506366Y425832D01*
X506439Y425857D01*
X506515Y425873D01*
X506572Y425903D01*
X506633Y425924D01*
X506689Y425966D01*
X506764Y426005D01*
X506825Y426065D01*
X506882Y426106D01*
X508541Y427765D01*
X510574Y428608D01*
X512776Y428608D01*
X514809Y427765D01*
X516468Y426106D01*
X516520Y426067D01*
X516565Y426021D01*
X516632Y425983D01*
X516694Y425937D01*
X516754Y425914D01*
X516810Y425882D01*
X516885Y425865D01*
X516958Y425837D01*
X517022Y425832D01*
X517085Y425817D01*
X517162Y425821D01*
X517239Y425815D01*
X517302Y425829D01*
X517366Y425832D01*
X517439Y425857D01*
X517515Y425873D01*
X517572Y425903D01*
X517633Y425924D01*
X517689Y425966D01*
X517764Y426005D01*
X517825Y426065D01*
X517882Y426106D01*
X519541Y427765D01*
X521574Y428608D01*
X523776Y428608D01*
X525809Y427765D01*
X527365Y426209D01*
X528208Y424176D01*
X528208Y421974D01*
X527365Y419941D01*
X525809Y418385D01*
X523776Y417542D01*
X521574Y417542D01*
X519541Y418385D01*
X517882Y420044D01*
X517830Y420083D01*
X517785Y420129D01*
X517718Y420167D01*
X517656Y420213D01*
X517596Y420236D01*
X517540Y420268D01*
X517465Y420285D01*
X517392Y420313D01*
X517328Y420318D01*
X517266Y420333D01*
X517188Y420329D01*
X517111Y420335D01*
X517048Y420321D01*
X516984Y420318D01*
X516911Y420293D01*
X516835Y420277D01*
X516778Y420247D01*
X516717Y420226D01*
X516661Y420184D01*
X516586Y420145D01*
X516525Y420085D01*
X516468Y420044D01*
X514809Y418385D01*
X512776Y417542D01*
X510574Y417542D01*
X508541Y418385D01*
X506882Y420044D01*
X506830Y420082D01*
X506785Y420129D01*
X506718Y420167D01*
X506656Y420213D01*
X506596Y420236D01*
X506540Y420268D01*
X506465Y420285D01*
X506392Y420313D01*
X506328Y420318D01*
X506265Y420333D01*
X506188Y420329D01*
X506111Y420335D01*
X506048Y420321D01*
X505984Y420318D01*
X505911Y420293D01*
X505835Y420277D01*
X505778Y420247D01*
X505717Y420226D01*
X505661Y420184D01*
X505586Y420145D01*
X505525Y420085D01*
X505468Y420044D01*
X503809Y418385D01*
X501776Y417542D01*
X499574Y417542D01*
X497541Y418385D01*
X496132Y419794D01*
X496080Y419833D01*
X496035Y419879D01*
X495968Y419917D01*
X495906Y419963D01*
X495846Y419986D01*
X495790Y420018D01*
X495715Y420035D01*
X495642Y420063D01*
X495578Y420068D01*
X495516Y420083D01*
X495438Y420079D01*
X495361Y420085D01*
X495298Y420071D01*
X495234Y420068D01*
X495161Y420043D01*
X495085Y420027D01*
X495028Y419997D01*
X494967Y419976D01*
X494911Y419934D01*
X494836Y419895D01*
X494775Y419835D01*
X494718Y419794D01*
X493309Y418385D01*
X491276Y417542D01*
X489074Y417542D01*
G37*
%LPD*%
%LPC*%
G36*
X390767Y228142D02*
X390767Y228142D01*
X388733Y228985D01*
X387336Y230382D01*
X387260Y230439D01*
X387188Y230504D01*
X387147Y230524D01*
X387111Y230551D01*
X387021Y230585D01*
X386934Y230627D01*
X386892Y230633D01*
X386847Y230650D01*
X386719Y230660D01*
X386630Y230674D01*
X340513Y230674D01*
X340418Y230661D01*
X340321Y230656D01*
X340278Y230641D01*
X340233Y230634D01*
X340146Y230595D01*
X340055Y230563D01*
X340021Y230538D01*
X339976Y230518D01*
X339879Y230435D01*
X339806Y230382D01*
X338809Y229385D01*
X336776Y228542D01*
X334574Y228542D01*
X332541Y229385D01*
X330985Y230941D01*
X330142Y232974D01*
X330142Y235176D01*
X330985Y237209D01*
X332541Y238765D01*
X334574Y239608D01*
X336776Y239608D01*
X338809Y238765D01*
X340401Y237174D01*
X340408Y237163D01*
X340474Y237050D01*
X340481Y237043D01*
X340486Y237035D01*
X340584Y236947D01*
X340680Y236857D01*
X340688Y236853D01*
X340696Y236846D01*
X340814Y236789D01*
X340931Y236729D01*
X340941Y236727D01*
X340949Y236723D01*
X341026Y236711D01*
X341208Y236677D01*
X341233Y236679D01*
X341254Y236676D01*
X386630Y236676D01*
X386725Y236689D01*
X386821Y236694D01*
X386864Y236709D01*
X386909Y236716D01*
X386996Y236755D01*
X387087Y236787D01*
X387122Y236812D01*
X387166Y236832D01*
X387263Y236915D01*
X387336Y236968D01*
X388733Y238365D01*
X390767Y239208D01*
X392968Y239208D01*
X395002Y238365D01*
X396558Y236809D01*
X397400Y234776D01*
X397400Y232574D01*
X396558Y230541D01*
X395002Y228985D01*
X392968Y228142D01*
X390767Y228142D01*
G37*
%LPD*%
%LPC*%
G36*
X184399Y105967D02*
X184399Y105967D01*
X182366Y106810D01*
X180810Y108366D01*
X179967Y110399D01*
X179967Y112601D01*
X180810Y114634D01*
X182094Y115918D01*
X182133Y115970D01*
X182179Y116015D01*
X182217Y116082D01*
X182263Y116144D01*
X182286Y116204D01*
X182318Y116260D01*
X182335Y116335D01*
X182363Y116408D01*
X182368Y116472D01*
X182383Y116534D01*
X182379Y116612D01*
X182385Y116689D01*
X182371Y116752D01*
X182368Y116816D01*
X182343Y116889D01*
X182327Y116965D01*
X182297Y117022D01*
X182276Y117083D01*
X182234Y117139D01*
X182195Y117214D01*
X182135Y117275D01*
X182094Y117332D01*
X180882Y118544D01*
X180830Y118582D01*
X180785Y118629D01*
X180718Y118667D01*
X180656Y118713D01*
X180596Y118736D01*
X180540Y118768D01*
X180465Y118785D01*
X180392Y118813D01*
X180328Y118818D01*
X180265Y118833D01*
X180188Y118829D01*
X180111Y118835D01*
X180048Y118821D01*
X179984Y118818D01*
X179911Y118793D01*
X179835Y118777D01*
X179778Y118747D01*
X179717Y118726D01*
X179661Y118684D01*
X179586Y118645D01*
X179525Y118585D01*
X179468Y118544D01*
X179309Y118385D01*
X177276Y117542D01*
X175074Y117542D01*
X173041Y118385D01*
X171485Y119941D01*
X170642Y121974D01*
X170642Y124176D01*
X171485Y126209D01*
X171644Y126368D01*
X171682Y126420D01*
X171729Y126465D01*
X171767Y126532D01*
X171813Y126594D01*
X171836Y126654D01*
X171868Y126710D01*
X171885Y126785D01*
X171913Y126858D01*
X171918Y126922D01*
X171933Y126985D01*
X171929Y127062D01*
X171935Y127139D01*
X171921Y127202D01*
X171918Y127266D01*
X171893Y127339D01*
X171877Y127415D01*
X171847Y127472D01*
X171826Y127533D01*
X171784Y127589D01*
X171745Y127664D01*
X171685Y127725D01*
X171644Y127782D01*
X169985Y129441D01*
X169142Y131474D01*
X169142Y133676D01*
X169483Y134499D01*
X169499Y134561D01*
X169525Y134620D01*
X169534Y134697D01*
X169553Y134772D01*
X169551Y134836D01*
X169559Y134900D01*
X169547Y134976D01*
X169544Y135054D01*
X169524Y135115D01*
X169514Y135178D01*
X169481Y135248D01*
X169457Y135322D01*
X169421Y135375D01*
X169393Y135433D01*
X169342Y135491D01*
X169298Y135555D01*
X169248Y135596D01*
X169206Y135644D01*
X169146Y135680D01*
X169080Y135734D01*
X169002Y135768D01*
X168942Y135804D01*
X167541Y136385D01*
X165985Y137941D01*
X165142Y139974D01*
X165142Y142176D01*
X165985Y144209D01*
X167541Y145765D01*
X169574Y146608D01*
X171776Y146608D01*
X173809Y145765D01*
X175365Y144209D01*
X176208Y142176D01*
X176208Y139974D01*
X175867Y139151D01*
X175851Y139089D01*
X175825Y139030D01*
X175816Y138953D01*
X175797Y138878D01*
X175799Y138814D01*
X175791Y138750D01*
X175803Y138674D01*
X175806Y138596D01*
X175826Y138535D01*
X175836Y138472D01*
X175869Y138402D01*
X175893Y138328D01*
X175929Y138275D01*
X175957Y138217D01*
X176008Y138159D01*
X176052Y138095D01*
X176102Y138054D01*
X176144Y138006D01*
X176204Y137970D01*
X176270Y137916D01*
X176348Y137882D01*
X176408Y137846D01*
X177809Y137265D01*
X179365Y135709D01*
X180208Y133676D01*
X180208Y131474D01*
X179365Y129441D01*
X179206Y129282D01*
X179167Y129230D01*
X179121Y129185D01*
X179083Y129118D01*
X179037Y129056D01*
X179014Y128996D01*
X178982Y128940D01*
X178965Y128865D01*
X178937Y128792D01*
X178932Y128728D01*
X178917Y128666D01*
X178921Y128588D01*
X178915Y128511D01*
X178929Y128448D01*
X178932Y128384D01*
X178957Y128311D01*
X178973Y128235D01*
X179003Y128178D01*
X179024Y128117D01*
X179066Y128061D01*
X179105Y127986D01*
X179165Y127925D01*
X179206Y127868D01*
X180968Y126106D01*
X181020Y126067D01*
X181065Y126021D01*
X181132Y125983D01*
X181194Y125937D01*
X181254Y125914D01*
X181310Y125882D01*
X181385Y125865D01*
X181458Y125837D01*
X181522Y125832D01*
X181584Y125817D01*
X181662Y125821D01*
X181739Y125815D01*
X181802Y125829D01*
X181866Y125832D01*
X181939Y125857D01*
X182015Y125873D01*
X182072Y125903D01*
X182133Y125924D01*
X182189Y125966D01*
X182264Y126005D01*
X182325Y126065D01*
X182382Y126106D01*
X182541Y126265D01*
X184574Y127108D01*
X186776Y127108D01*
X188809Y126265D01*
X190365Y124709D01*
X191208Y122676D01*
X191208Y120474D01*
X190365Y118441D01*
X189081Y117157D01*
X189043Y117105D01*
X188996Y117060D01*
X188958Y116993D01*
X188912Y116931D01*
X188889Y116871D01*
X188857Y116815D01*
X188840Y116740D01*
X188812Y116667D01*
X188807Y116603D01*
X188792Y116540D01*
X188796Y116463D01*
X188790Y116386D01*
X188804Y116323D01*
X188807Y116259D01*
X188832Y116186D01*
X188848Y116110D01*
X188878Y116053D01*
X188899Y115992D01*
X188941Y115936D01*
X188980Y115861D01*
X189040Y115800D01*
X189081Y115743D01*
X190190Y114634D01*
X191033Y112601D01*
X191033Y110399D01*
X190190Y108366D01*
X188634Y106810D01*
X186601Y105967D01*
X184399Y105967D01*
G37*
%LPD*%
%LPC*%
G36*
X515683Y503253D02*
X515683Y503253D01*
X511978Y504787D01*
X509142Y507623D01*
X507608Y511328D01*
X507608Y515338D01*
X509142Y519044D01*
X511978Y521879D01*
X515683Y523414D01*
X519694Y523414D01*
X523399Y521879D01*
X526235Y519044D01*
X527789Y515290D01*
X527797Y515206D01*
X527806Y515185D01*
X527809Y515162D01*
X527858Y515054D01*
X527902Y514944D01*
X527916Y514926D01*
X527925Y514905D01*
X528002Y514815D01*
X528075Y514721D01*
X528094Y514708D01*
X528109Y514691D01*
X528208Y514626D01*
X528304Y514556D01*
X528325Y514549D01*
X528345Y514536D01*
X528458Y514502D01*
X528570Y514462D01*
X528593Y514461D01*
X528614Y514454D01*
X528733Y514452D01*
X528851Y514445D01*
X528872Y514451D01*
X528896Y514450D01*
X529076Y514500D01*
X529151Y514518D01*
X530574Y515108D01*
X532776Y515108D01*
X534809Y514265D01*
X536365Y512709D01*
X537208Y510676D01*
X537208Y508474D01*
X536365Y506441D01*
X534809Y504885D01*
X532776Y504042D01*
X530574Y504042D01*
X528541Y504885D01*
X526978Y506448D01*
X526931Y506528D01*
X526875Y506632D01*
X526859Y506649D01*
X526847Y506668D01*
X526761Y506749D01*
X526678Y506834D01*
X526658Y506845D01*
X526642Y506861D01*
X526536Y506915D01*
X526433Y506973D01*
X526411Y506979D01*
X526390Y506989D01*
X526274Y507011D01*
X526158Y507038D01*
X526136Y507037D01*
X526113Y507041D01*
X525995Y507030D01*
X525877Y507024D01*
X525855Y507016D01*
X525833Y507014D01*
X525722Y506970D01*
X525610Y506931D01*
X525593Y506919D01*
X525571Y506910D01*
X525423Y506795D01*
X525361Y506750D01*
X523399Y504787D01*
X519694Y503253D01*
X515683Y503253D01*
G37*
%LPD*%
%LPC*%
G36*
X353899Y81967D02*
X353899Y81967D01*
X351866Y82810D01*
X350310Y84366D01*
X349467Y86399D01*
X349467Y88601D01*
X350310Y90634D01*
X351866Y92190D01*
X353899Y93033D01*
X356101Y93033D01*
X358134Y92190D01*
X359343Y90981D01*
X359395Y90942D01*
X359440Y90896D01*
X359507Y90858D01*
X359569Y90812D01*
X359629Y90789D01*
X359685Y90757D01*
X359760Y90740D01*
X359833Y90712D01*
X359897Y90707D01*
X359959Y90692D01*
X360037Y90696D01*
X360114Y90690D01*
X360177Y90704D01*
X360241Y90707D01*
X360314Y90732D01*
X360390Y90748D01*
X360447Y90778D01*
X360508Y90799D01*
X360564Y90841D01*
X360639Y90880D01*
X360700Y90940D01*
X360757Y90981D01*
X362041Y92265D01*
X364074Y93108D01*
X366276Y93108D01*
X368086Y92358D01*
X368200Y92328D01*
X368314Y92294D01*
X368337Y92294D01*
X368359Y92288D01*
X368477Y92292D01*
X368596Y92290D01*
X368618Y92296D01*
X368641Y92297D01*
X368753Y92334D01*
X368868Y92365D01*
X368887Y92377D01*
X368909Y92384D01*
X369007Y92451D01*
X369108Y92513D01*
X369123Y92530D01*
X369142Y92543D01*
X369217Y92635D01*
X369297Y92723D01*
X369307Y92743D01*
X369321Y92761D01*
X369368Y92870D01*
X369420Y92977D01*
X369423Y92998D01*
X369433Y93020D01*
X369455Y93205D01*
X369467Y93281D01*
X369467Y93601D01*
X370310Y95634D01*
X371866Y97190D01*
X373899Y98033D01*
X376101Y98033D01*
X378086Y97210D01*
X378200Y97181D01*
X378314Y97146D01*
X378337Y97146D01*
X378359Y97140D01*
X378477Y97144D01*
X378596Y97143D01*
X378618Y97149D01*
X378641Y97149D01*
X378753Y97186D01*
X378868Y97218D01*
X378887Y97230D01*
X378909Y97237D01*
X379007Y97304D01*
X379108Y97366D01*
X379123Y97383D01*
X379142Y97396D01*
X379217Y97487D01*
X379297Y97575D01*
X379307Y97596D01*
X379321Y97613D01*
X379368Y97722D01*
X379420Y97829D01*
X379423Y97850D01*
X379433Y97873D01*
X379455Y98057D01*
X379459Y98080D01*
X380310Y100134D01*
X381866Y101690D01*
X383899Y102533D01*
X386101Y102533D01*
X388134Y101690D01*
X389690Y100134D01*
X390533Y98101D01*
X390533Y95899D01*
X389690Y93866D01*
X388134Y92310D01*
X386101Y91467D01*
X383899Y91467D01*
X381914Y92290D01*
X381800Y92319D01*
X381686Y92354D01*
X381663Y92354D01*
X381641Y92360D01*
X381523Y92356D01*
X381404Y92357D01*
X381382Y92351D01*
X381359Y92351D01*
X381247Y92314D01*
X381132Y92282D01*
X381113Y92270D01*
X381091Y92263D01*
X380993Y92196D01*
X380892Y92134D01*
X380877Y92117D01*
X380858Y92104D01*
X380783Y92013D01*
X380703Y91925D01*
X380693Y91904D01*
X380679Y91887D01*
X380632Y91778D01*
X380580Y91671D01*
X380577Y91650D01*
X380567Y91627D01*
X380545Y91443D01*
X380541Y91420D01*
X379690Y89366D01*
X378134Y87810D01*
X376101Y86967D01*
X373899Y86967D01*
X372089Y87717D01*
X371975Y87747D01*
X371861Y87781D01*
X371838Y87781D01*
X371816Y87787D01*
X371698Y87783D01*
X371579Y87785D01*
X371557Y87779D01*
X371534Y87778D01*
X371422Y87741D01*
X371307Y87710D01*
X371288Y87698D01*
X371266Y87691D01*
X371168Y87624D01*
X371067Y87562D01*
X371052Y87545D01*
X371033Y87532D01*
X370958Y87440D01*
X370878Y87352D01*
X370868Y87332D01*
X370854Y87314D01*
X370807Y87205D01*
X370755Y87098D01*
X370752Y87077D01*
X370742Y87055D01*
X370720Y86870D01*
X370708Y86794D01*
X370708Y86474D01*
X369865Y84441D01*
X368309Y82885D01*
X366276Y82042D01*
X364074Y82042D01*
X362041Y82885D01*
X360832Y84094D01*
X360780Y84132D01*
X360735Y84179D01*
X360668Y84217D01*
X360606Y84263D01*
X360546Y84286D01*
X360490Y84318D01*
X360415Y84335D01*
X360342Y84363D01*
X360278Y84368D01*
X360215Y84383D01*
X360138Y84379D01*
X360061Y84385D01*
X359998Y84371D01*
X359934Y84368D01*
X359861Y84343D01*
X359785Y84327D01*
X359728Y84297D01*
X359667Y84276D01*
X359611Y84234D01*
X359536Y84195D01*
X359475Y84135D01*
X359418Y84094D01*
X358134Y82810D01*
X356101Y81967D01*
X353899Y81967D01*
G37*
%LPD*%
%LPC*%
G36*
X290574Y153542D02*
X290574Y153542D01*
X288541Y154385D01*
X286985Y155941D01*
X286136Y157989D01*
X286142Y158029D01*
X286142Y160176D01*
X286985Y162209D01*
X288541Y163765D01*
X290574Y164608D01*
X292776Y164608D01*
X293261Y164407D01*
X293375Y164377D01*
X293489Y164343D01*
X293512Y164342D01*
X293534Y164337D01*
X293652Y164341D01*
X293771Y164339D01*
X293793Y164345D01*
X293816Y164346D01*
X293928Y164382D01*
X294043Y164414D01*
X294062Y164426D01*
X294084Y164433D01*
X294182Y164500D01*
X294283Y164562D01*
X294298Y164579D01*
X294317Y164592D01*
X294392Y164684D01*
X294472Y164772D01*
X294482Y164792D01*
X294496Y164810D01*
X294543Y164919D01*
X294595Y165025D01*
X294598Y165047D01*
X294608Y165069D01*
X294612Y165101D01*
X295485Y167209D01*
X297041Y168765D01*
X299074Y169608D01*
X301276Y169608D01*
X303309Y168765D01*
X304865Y167209D01*
X305734Y165112D01*
X305736Y165095D01*
X305744Y165073D01*
X305748Y165051D01*
X305796Y164943D01*
X305840Y164833D01*
X305854Y164815D01*
X305864Y164794D01*
X305941Y164704D01*
X306014Y164610D01*
X306032Y164597D01*
X306047Y164580D01*
X306147Y164514D01*
X306243Y164445D01*
X306264Y164438D01*
X306283Y164425D01*
X306397Y164390D01*
X306508Y164351D01*
X306531Y164349D01*
X306553Y164343D01*
X306671Y164341D01*
X306790Y164334D01*
X306811Y164339D01*
X306835Y164339D01*
X307014Y164389D01*
X307089Y164407D01*
X307574Y164608D01*
X309776Y164608D01*
X310261Y164407D01*
X310375Y164377D01*
X310489Y164343D01*
X310512Y164342D01*
X310534Y164337D01*
X310652Y164341D01*
X310771Y164339D01*
X310793Y164345D01*
X310816Y164346D01*
X310928Y164382D01*
X311043Y164414D01*
X311062Y164426D01*
X311084Y164433D01*
X311182Y164500D01*
X311283Y164562D01*
X311298Y164579D01*
X311317Y164592D01*
X311392Y164684D01*
X311472Y164772D01*
X311482Y164792D01*
X311496Y164810D01*
X311543Y164919D01*
X311595Y165025D01*
X311598Y165047D01*
X311608Y165069D01*
X311612Y165101D01*
X312485Y167209D01*
X314041Y168765D01*
X316074Y169608D01*
X318276Y169608D01*
X320309Y168765D01*
X321865Y167209D01*
X322708Y165176D01*
X322708Y162974D01*
X321865Y160941D01*
X320309Y159385D01*
X318276Y158542D01*
X316074Y158542D01*
X315589Y158743D01*
X315475Y158773D01*
X315361Y158807D01*
X315338Y158808D01*
X315316Y158813D01*
X315198Y158809D01*
X315079Y158811D01*
X315057Y158805D01*
X315034Y158804D01*
X314922Y158768D01*
X314807Y158736D01*
X314788Y158724D01*
X314766Y158717D01*
X314668Y158650D01*
X314567Y158588D01*
X314552Y158571D01*
X314533Y158558D01*
X314458Y158466D01*
X314378Y158378D01*
X314368Y158358D01*
X314354Y158340D01*
X314307Y158231D01*
X314255Y158125D01*
X314252Y158103D01*
X314242Y158081D01*
X314238Y158049D01*
X313365Y155941D01*
X311809Y154385D01*
X309776Y153542D01*
X307574Y153542D01*
X305541Y154385D01*
X303985Y155941D01*
X303116Y158038D01*
X303114Y158056D01*
X303106Y158077D01*
X303102Y158099D01*
X303054Y158207D01*
X303010Y158317D01*
X302996Y158335D01*
X302986Y158356D01*
X302909Y158446D01*
X302836Y158540D01*
X302818Y158553D01*
X302803Y158570D01*
X302704Y158635D01*
X302607Y158705D01*
X302586Y158712D01*
X302567Y158725D01*
X302453Y158760D01*
X302342Y158799D01*
X302319Y158801D01*
X302297Y158807D01*
X302179Y158809D01*
X302060Y158816D01*
X302039Y158811D01*
X302015Y158811D01*
X301835Y158761D01*
X301761Y158743D01*
X301276Y158542D01*
X299074Y158542D01*
X298589Y158743D01*
X298475Y158773D01*
X298361Y158807D01*
X298338Y158808D01*
X298316Y158813D01*
X298198Y158810D01*
X298079Y158811D01*
X298057Y158805D01*
X298034Y158804D01*
X297922Y158768D01*
X297807Y158736D01*
X297788Y158724D01*
X297766Y158717D01*
X297669Y158650D01*
X297567Y158588D01*
X297552Y158571D01*
X297533Y158558D01*
X297458Y158467D01*
X297378Y158378D01*
X297368Y158358D01*
X297354Y158340D01*
X297307Y158231D01*
X297255Y158125D01*
X297252Y158103D01*
X297242Y158081D01*
X297238Y158049D01*
X296365Y155941D01*
X294809Y154385D01*
X292776Y153542D01*
X290574Y153542D01*
G37*
%LPD*%
%LPC*%
G36*
X200764Y515150D02*
X200764Y515150D01*
X197625Y516451D01*
X195222Y518853D01*
X193922Y521992D01*
X193922Y525390D01*
X195222Y528529D01*
X197625Y530932D01*
X200764Y532232D01*
X203781Y532232D01*
X203813Y532236D01*
X203845Y532234D01*
X203952Y532256D01*
X204061Y532272D01*
X204090Y532285D01*
X204121Y532292D01*
X204218Y532343D01*
X204317Y532388D01*
X204342Y532409D01*
X204370Y532424D01*
X204449Y532500D01*
X204532Y532571D01*
X204549Y532598D01*
X204573Y532621D01*
X204626Y532716D01*
X204686Y532807D01*
X204696Y532838D01*
X204712Y532866D01*
X204737Y532973D01*
X204769Y533077D01*
X204769Y533109D01*
X204776Y533141D01*
X204771Y533250D01*
X204772Y533359D01*
X204764Y533390D01*
X204762Y533422D01*
X204726Y533525D01*
X204697Y533631D01*
X204680Y533658D01*
X204670Y533689D01*
X204616Y533762D01*
X204549Y533871D01*
X204513Y533903D01*
X204488Y533938D01*
X203485Y534941D01*
X202642Y536974D01*
X202642Y539176D01*
X203485Y541209D01*
X205041Y542765D01*
X207074Y543608D01*
X209276Y543608D01*
X211309Y542765D01*
X212865Y541209D01*
X213708Y539176D01*
X213708Y536974D01*
X212865Y534941D01*
X211309Y533385D01*
X209843Y532777D01*
X209815Y532761D01*
X209784Y532751D01*
X209694Y532689D01*
X209600Y532634D01*
X209578Y532610D01*
X209551Y532592D01*
X209482Y532508D01*
X209407Y532428D01*
X209392Y532399D01*
X209372Y532374D01*
X209329Y532274D01*
X209279Y532176D01*
X209273Y532145D01*
X209260Y532115D01*
X209247Y532007D01*
X209227Y531899D01*
X209230Y531867D01*
X209226Y531835D01*
X209243Y531727D01*
X209254Y531619D01*
X209266Y531589D01*
X209271Y531557D01*
X209318Y531458D01*
X209358Y531357D01*
X209378Y531331D01*
X209392Y531302D01*
X209465Y531220D01*
X209532Y531134D01*
X209558Y531115D01*
X209579Y531091D01*
X209657Y531044D01*
X209760Y530969D01*
X209806Y530953D01*
X209840Y530933D01*
X212243Y528529D01*
X213543Y525390D01*
X213543Y521992D01*
X212243Y518853D01*
X209841Y516451D01*
X206702Y515150D01*
X200764Y515150D01*
G37*
%LPD*%
%LPC*%
G36*
X250548Y515150D02*
X250548Y515150D01*
X247409Y516451D01*
X245006Y518853D01*
X243706Y521992D01*
X243706Y525390D01*
X245006Y528529D01*
X247409Y530932D01*
X247457Y530952D01*
X247485Y530968D01*
X247516Y530978D01*
X247606Y531040D01*
X247700Y531095D01*
X247722Y531119D01*
X247749Y531137D01*
X247818Y531221D01*
X247893Y531301D01*
X247907Y531330D01*
X247928Y531355D01*
X247971Y531455D01*
X248021Y531552D01*
X248027Y531584D01*
X248039Y531614D01*
X248053Y531722D01*
X248073Y531829D01*
X248070Y531862D01*
X248074Y531894D01*
X248056Y532002D01*
X248046Y532110D01*
X248034Y532140D01*
X248029Y532172D01*
X247982Y532271D01*
X247941Y532372D01*
X247922Y532398D01*
X247908Y532427D01*
X247835Y532508D01*
X247768Y532594D01*
X247742Y532613D01*
X247720Y532638D01*
X247643Y532685D01*
X247539Y532760D01*
X247494Y532776D01*
X247457Y532798D01*
X246041Y533385D01*
X244485Y534941D01*
X243642Y536974D01*
X243642Y539176D01*
X244485Y541209D01*
X246041Y542765D01*
X248074Y543608D01*
X250276Y543608D01*
X252309Y542765D01*
X253865Y541209D01*
X254708Y539176D01*
X254708Y536974D01*
X253865Y534941D01*
X252862Y533938D01*
X252843Y533912D01*
X252818Y533891D01*
X252758Y533799D01*
X252693Y533712D01*
X252681Y533682D01*
X252664Y533655D01*
X252632Y533550D01*
X252593Y533448D01*
X252591Y533416D01*
X252581Y533385D01*
X252580Y533276D01*
X252571Y533167D01*
X252578Y533135D01*
X252578Y533103D01*
X252607Y532998D01*
X252629Y532891D01*
X252644Y532862D01*
X252653Y532831D01*
X252710Y532738D01*
X252762Y532642D01*
X252784Y532619D01*
X252801Y532591D01*
X252882Y532518D01*
X252958Y532440D01*
X252986Y532424D01*
X253010Y532402D01*
X253108Y532355D01*
X253204Y532301D01*
X253235Y532293D01*
X253264Y532279D01*
X253354Y532265D01*
X253478Y532236D01*
X253527Y532238D01*
X253569Y532232D01*
X256486Y532232D01*
X259625Y530932D01*
X262027Y528529D01*
X263327Y525390D01*
X263327Y521992D01*
X262027Y518853D01*
X259625Y516451D01*
X256486Y515150D01*
X250548Y515150D01*
G37*
%LPD*%
%LPC*%
G36*
X435883Y503253D02*
X435883Y503253D01*
X432178Y504787D01*
X429342Y507623D01*
X427808Y511328D01*
X427808Y515338D01*
X429342Y519044D01*
X432178Y521879D01*
X435883Y523414D01*
X439894Y523414D01*
X443599Y521879D01*
X446435Y519044D01*
X447969Y515338D01*
X447969Y511328D01*
X446435Y507623D01*
X443599Y504787D01*
X439894Y503253D01*
X435883Y503253D01*
G37*
%LPD*%
%LPC*%
G36*
X260074Y128042D02*
X260074Y128042D01*
X258041Y128885D01*
X256485Y130441D01*
X255624Y132519D01*
X255591Y132575D01*
X255567Y132634D01*
X255520Y132695D01*
X255480Y132762D01*
X255433Y132806D01*
X255394Y132857D01*
X255331Y132902D01*
X255274Y132955D01*
X255217Y132984D01*
X255165Y133022D01*
X255092Y133047D01*
X255023Y133083D01*
X254960Y133095D01*
X254899Y133116D01*
X254822Y133121D01*
X254746Y133135D01*
X254682Y133129D01*
X254618Y133133D01*
X254549Y133116D01*
X254465Y133108D01*
X254386Y133076D01*
X254318Y133060D01*
X254275Y133042D01*
X252074Y133042D01*
X250041Y133885D01*
X248485Y135441D01*
X248143Y136265D01*
X248083Y136367D01*
X248027Y136472D01*
X248011Y136488D01*
X248000Y136508D01*
X247913Y136589D01*
X247830Y136674D01*
X247811Y136685D01*
X247794Y136701D01*
X247688Y136754D01*
X247585Y136813D01*
X247563Y136818D01*
X247543Y136828D01*
X247426Y136850D01*
X247311Y136878D01*
X247288Y136876D01*
X247265Y136881D01*
X247148Y136869D01*
X247029Y136863D01*
X247007Y136856D01*
X246985Y136854D01*
X246875Y136810D01*
X246763Y136771D01*
X246745Y136758D01*
X246723Y136749D01*
X246576Y136634D01*
X246514Y136589D01*
X246309Y136385D01*
X244276Y135542D01*
X242074Y135542D01*
X240041Y136385D01*
X238485Y137941D01*
X237642Y139974D01*
X237642Y142176D01*
X238485Y144209D01*
X240041Y145765D01*
X242074Y146608D01*
X244276Y146608D01*
X246309Y145765D01*
X247865Y144209D01*
X248207Y143385D01*
X248267Y143283D01*
X248323Y143178D01*
X248339Y143162D01*
X248350Y143142D01*
X248437Y143061D01*
X248520Y142976D01*
X248539Y142965D01*
X248556Y142949D01*
X248662Y142896D01*
X248765Y142837D01*
X248787Y142832D01*
X248807Y142822D01*
X248924Y142800D01*
X249039Y142772D01*
X249062Y142774D01*
X249085Y142769D01*
X249202Y142781D01*
X249321Y142787D01*
X249343Y142794D01*
X249365Y142796D01*
X249475Y142840D01*
X249587Y142879D01*
X249605Y142892D01*
X249627Y142901D01*
X249774Y143016D01*
X249836Y143061D01*
X250041Y143265D01*
X252074Y144108D01*
X254276Y144108D01*
X256309Y143265D01*
X257865Y141709D01*
X258726Y139631D01*
X258759Y139575D01*
X258783Y139516D01*
X258830Y139455D01*
X258870Y139388D01*
X258917Y139344D01*
X258956Y139293D01*
X259019Y139248D01*
X259076Y139195D01*
X259133Y139166D01*
X259185Y139128D01*
X259258Y139103D01*
X259327Y139067D01*
X259390Y139055D01*
X259451Y139034D01*
X259528Y139029D01*
X259604Y139015D01*
X259668Y139021D01*
X259732Y139017D01*
X259801Y139034D01*
X259885Y139042D01*
X259964Y139074D01*
X260032Y139090D01*
X260075Y139108D01*
X262276Y139108D01*
X264309Y138265D01*
X265865Y136709D01*
X266708Y134676D01*
X266708Y132474D01*
X265865Y130441D01*
X264309Y128885D01*
X262276Y128042D01*
X260074Y128042D01*
G37*
%LPD*%
%LPC*%
G36*
X260574Y144042D02*
X260574Y144042D01*
X258541Y144885D01*
X256985Y146441D01*
X256142Y148474D01*
X256142Y150676D01*
X256985Y152709D01*
X258541Y154265D01*
X260574Y155108D01*
X262776Y155108D01*
X264809Y154265D01*
X265468Y153606D01*
X265520Y153568D01*
X265565Y153521D01*
X265632Y153483D01*
X265694Y153437D01*
X265754Y153414D01*
X265810Y153382D01*
X265885Y153365D01*
X265958Y153337D01*
X266022Y153332D01*
X266085Y153317D01*
X266162Y153321D01*
X266239Y153315D01*
X266302Y153329D01*
X266366Y153332D01*
X266439Y153357D01*
X266515Y153373D01*
X266572Y153403D01*
X266633Y153424D01*
X266689Y153466D01*
X266764Y153505D01*
X266825Y153565D01*
X266882Y153606D01*
X268041Y154765D01*
X270074Y155608D01*
X272143Y155608D01*
X272207Y155617D01*
X272271Y155616D01*
X272346Y155637D01*
X272422Y155648D01*
X272481Y155674D01*
X272543Y155691D01*
X272609Y155732D01*
X272679Y155764D01*
X272728Y155806D01*
X272783Y155839D01*
X272835Y155897D01*
X272893Y155947D01*
X272929Y156001D01*
X272972Y156049D01*
X273005Y156118D01*
X273048Y156183D01*
X273067Y156245D01*
X273095Y156302D01*
X273106Y156372D01*
X273130Y156453D01*
X273131Y156538D01*
X273142Y156607D01*
X273142Y157676D01*
X273985Y159709D01*
X275541Y161265D01*
X277574Y162108D01*
X279776Y162108D01*
X281809Y161265D01*
X283365Y159709D01*
X284214Y157661D01*
X284208Y157621D01*
X284208Y155474D01*
X283365Y153441D01*
X281809Y151885D01*
X279776Y151042D01*
X277707Y151042D01*
X277643Y151033D01*
X277579Y151034D01*
X277504Y151013D01*
X277428Y151002D01*
X277369Y150976D01*
X277307Y150959D01*
X277241Y150918D01*
X277171Y150886D01*
X277122Y150844D01*
X277067Y150811D01*
X277015Y150753D01*
X276957Y150703D01*
X276921Y150649D01*
X276878Y150601D01*
X276845Y150532D01*
X276802Y150467D01*
X276783Y150405D01*
X276755Y150348D01*
X276744Y150278D01*
X276720Y150197D01*
X276719Y150112D01*
X276708Y150043D01*
X276708Y148974D01*
X275865Y146941D01*
X274309Y145385D01*
X272276Y144542D01*
X270074Y144542D01*
X268041Y145385D01*
X267382Y146044D01*
X267330Y146083D01*
X267285Y146129D01*
X267218Y146167D01*
X267156Y146213D01*
X267096Y146236D01*
X267040Y146268D01*
X266965Y146285D01*
X266892Y146313D01*
X266828Y146318D01*
X266766Y146333D01*
X266688Y146329D01*
X266611Y146335D01*
X266548Y146321D01*
X266484Y146318D01*
X266411Y146293D01*
X266335Y146277D01*
X266278Y146247D01*
X266217Y146226D01*
X266161Y146184D01*
X266086Y146145D01*
X266025Y146085D01*
X265968Y146044D01*
X264809Y144885D01*
X262776Y144042D01*
X260574Y144042D01*
G37*
%LPD*%
%LPC*%
G36*
X65899Y409467D02*
X65899Y409467D01*
X63866Y410310D01*
X62310Y411866D01*
X61467Y413899D01*
X61467Y416101D01*
X62310Y418134D01*
X63866Y419690D01*
X65899Y420533D01*
X68101Y420533D01*
X70134Y419690D01*
X71690Y418134D01*
X72077Y417201D01*
X72093Y417173D01*
X72103Y417143D01*
X72165Y417053D01*
X72220Y416958D01*
X72244Y416936D01*
X72262Y416910D01*
X72347Y416840D01*
X72426Y416766D01*
X72455Y416751D01*
X72480Y416730D01*
X72580Y416687D01*
X72678Y416638D01*
X72709Y416632D01*
X72739Y416619D01*
X72847Y416606D01*
X72955Y416585D01*
X72987Y416588D01*
X73019Y416585D01*
X73127Y416602D01*
X73235Y416612D01*
X73265Y416624D01*
X73297Y416630D01*
X73396Y416676D01*
X73497Y416717D01*
X73523Y416737D01*
X73552Y416751D01*
X73634Y416823D01*
X73720Y416890D01*
X73739Y416917D01*
X73763Y416938D01*
X73810Y417015D01*
X73885Y417119D01*
X73901Y417165D01*
X73923Y417201D01*
X74310Y418134D01*
X75866Y419690D01*
X77899Y420533D01*
X80101Y420533D01*
X82134Y419690D01*
X83690Y418134D01*
X84533Y416101D01*
X84533Y413899D01*
X83690Y411866D01*
X82134Y410310D01*
X80101Y409467D01*
X77899Y409467D01*
X75866Y410310D01*
X74310Y411866D01*
X73923Y412799D01*
X73907Y412826D01*
X73897Y412857D01*
X73835Y412948D01*
X73780Y413042D01*
X73756Y413064D01*
X73738Y413090D01*
X73654Y413160D01*
X73574Y413234D01*
X73545Y413249D01*
X73520Y413270D01*
X73420Y413313D01*
X73322Y413362D01*
X73291Y413368D01*
X73261Y413381D01*
X73153Y413394D01*
X73045Y413415D01*
X73013Y413412D01*
X72981Y413415D01*
X72873Y413398D01*
X72765Y413388D01*
X72735Y413376D01*
X72703Y413370D01*
X72604Y413324D01*
X72503Y413283D01*
X72477Y413263D01*
X72448Y413249D01*
X72366Y413177D01*
X72280Y413110D01*
X72261Y413083D01*
X72237Y413062D01*
X72190Y412985D01*
X72115Y412881D01*
X72099Y412835D01*
X72077Y412799D01*
X71690Y411866D01*
X70134Y410310D01*
X68101Y409467D01*
X65899Y409467D01*
G37*
%LPD*%
%LPC*%
G36*
X215399Y454967D02*
X215399Y454967D01*
X213366Y455810D01*
X211810Y457366D01*
X210967Y459399D01*
X210967Y461601D01*
X211810Y463634D01*
X213366Y465190D01*
X215399Y466033D01*
X217601Y466033D01*
X219634Y465190D01*
X221190Y463634D01*
X221745Y462295D01*
X221762Y462267D01*
X221772Y462236D01*
X221833Y462146D01*
X221889Y462052D01*
X221912Y462030D01*
X221931Y462003D01*
X222015Y461934D01*
X222095Y461859D01*
X222123Y461844D01*
X222148Y461824D01*
X222249Y461781D01*
X222346Y461731D01*
X222378Y461725D01*
X222407Y461712D01*
X222516Y461699D01*
X222623Y461679D01*
X222655Y461682D01*
X222687Y461678D01*
X222795Y461695D01*
X222904Y461706D01*
X222934Y461718D01*
X222966Y461723D01*
X223064Y461770D01*
X223166Y461810D01*
X223191Y461830D01*
X223220Y461844D01*
X223302Y461917D01*
X223388Y461984D01*
X223407Y462010D01*
X223431Y462031D01*
X223478Y462109D01*
X223553Y462213D01*
X223569Y462258D01*
X223592Y462295D01*
X224385Y464209D01*
X225941Y465765D01*
X227974Y466608D01*
X230176Y466608D01*
X232209Y465765D01*
X233765Y464209D01*
X234608Y462176D01*
X234608Y459974D01*
X233765Y457941D01*
X232209Y456385D01*
X230176Y455542D01*
X227974Y455542D01*
X225941Y456385D01*
X224385Y457941D01*
X223830Y459280D01*
X223813Y459308D01*
X223803Y459339D01*
X223742Y459429D01*
X223686Y459523D01*
X223663Y459545D01*
X223644Y459572D01*
X223560Y459641D01*
X223480Y459716D01*
X223452Y459731D01*
X223427Y459751D01*
X223326Y459794D01*
X223229Y459844D01*
X223197Y459850D01*
X223168Y459863D01*
X223059Y459876D01*
X222952Y459896D01*
X222920Y459893D01*
X222888Y459897D01*
X222780Y459880D01*
X222671Y459869D01*
X222641Y459857D01*
X222609Y459852D01*
X222511Y459805D01*
X222409Y459765D01*
X222384Y459745D01*
X222355Y459731D01*
X222273Y459658D01*
X222187Y459591D01*
X222168Y459565D01*
X222144Y459544D01*
X222097Y459466D01*
X222022Y459362D01*
X222006Y459317D01*
X221983Y459280D01*
X221190Y457366D01*
X219634Y455810D01*
X217601Y454967D01*
X215399Y454967D01*
G37*
%LPD*%
%LPC*%
G36*
X118574Y140542D02*
X118574Y140542D01*
X116541Y141385D01*
X114985Y142941D01*
X114142Y144974D01*
X114142Y147176D01*
X114985Y149209D01*
X116541Y150765D01*
X118574Y151608D01*
X120776Y151608D01*
X122809Y150765D01*
X123936Y149638D01*
X123962Y149619D01*
X123983Y149594D01*
X124075Y149534D01*
X124162Y149469D01*
X124192Y149457D01*
X124219Y149440D01*
X124324Y149408D01*
X124426Y149369D01*
X124458Y149367D01*
X124489Y149357D01*
X124598Y149356D01*
X124707Y149347D01*
X124739Y149354D01*
X124771Y149354D01*
X124876Y149383D01*
X124983Y149405D01*
X125012Y149420D01*
X125043Y149429D01*
X125136Y149486D01*
X125232Y149537D01*
X125255Y149560D01*
X125283Y149577D01*
X125356Y149658D01*
X125434Y149734D01*
X125450Y149762D01*
X125472Y149786D01*
X125519Y149884D01*
X125573Y149980D01*
X125581Y150011D01*
X125595Y150040D01*
X125609Y150129D01*
X125638Y150254D01*
X125636Y150302D01*
X125642Y150345D01*
X125642Y152176D01*
X126485Y154209D01*
X128041Y155765D01*
X130074Y156608D01*
X132276Y156608D01*
X134309Y155765D01*
X135865Y154209D01*
X136708Y152176D01*
X136708Y149974D01*
X135865Y147941D01*
X134309Y146385D01*
X132276Y145542D01*
X130074Y145542D01*
X128041Y146385D01*
X126914Y147512D01*
X126888Y147531D01*
X126867Y147556D01*
X126775Y147616D01*
X126688Y147681D01*
X126658Y147693D01*
X126631Y147710D01*
X126526Y147742D01*
X126424Y147781D01*
X126392Y147783D01*
X126361Y147793D01*
X126252Y147794D01*
X126143Y147803D01*
X126111Y147796D01*
X126079Y147796D01*
X125974Y147767D01*
X125867Y147745D01*
X125838Y147730D01*
X125807Y147721D01*
X125714Y147664D01*
X125618Y147613D01*
X125595Y147590D01*
X125567Y147573D01*
X125494Y147492D01*
X125416Y147416D01*
X125400Y147388D01*
X125378Y147364D01*
X125331Y147266D01*
X125277Y147170D01*
X125269Y147139D01*
X125255Y147110D01*
X125241Y147021D01*
X125212Y146896D01*
X125214Y146848D01*
X125208Y146805D01*
X125208Y144974D01*
X124365Y142941D01*
X122809Y141385D01*
X120776Y140542D01*
X118574Y140542D01*
G37*
%LPD*%
%LPC*%
G36*
X65399Y387967D02*
X65399Y387967D01*
X63366Y388810D01*
X61810Y390366D01*
X60967Y392399D01*
X60967Y394601D01*
X61810Y396634D01*
X63366Y398190D01*
X65399Y399033D01*
X67601Y399033D01*
X69634Y398190D01*
X71190Y396634D01*
X72077Y394494D01*
X72093Y394466D01*
X72103Y394436D01*
X72165Y394345D01*
X72220Y394251D01*
X72244Y394229D01*
X72262Y394203D01*
X72347Y394133D01*
X72426Y394058D01*
X72455Y394044D01*
X72480Y394023D01*
X72580Y393980D01*
X72678Y393931D01*
X72709Y393925D01*
X72739Y393912D01*
X72847Y393899D01*
X72955Y393878D01*
X72987Y393881D01*
X73019Y393877D01*
X73127Y393895D01*
X73235Y393905D01*
X73265Y393917D01*
X73297Y393922D01*
X73396Y393969D01*
X73497Y394010D01*
X73523Y394030D01*
X73552Y394043D01*
X73634Y394116D01*
X73720Y394183D01*
X73739Y394209D01*
X73763Y394231D01*
X73810Y394308D01*
X73885Y394412D01*
X73901Y394458D01*
X73923Y394494D01*
X74810Y396634D01*
X76366Y398190D01*
X78399Y399033D01*
X80601Y399033D01*
X82634Y398190D01*
X84190Y396634D01*
X85033Y394601D01*
X85033Y392399D01*
X84190Y390366D01*
X82634Y388810D01*
X80601Y387967D01*
X78399Y387967D01*
X76366Y388810D01*
X74810Y390366D01*
X73923Y392506D01*
X73907Y392534D01*
X73897Y392564D01*
X73835Y392655D01*
X73780Y392749D01*
X73756Y392771D01*
X73738Y392797D01*
X73653Y392867D01*
X73574Y392942D01*
X73545Y392956D01*
X73520Y392977D01*
X73420Y393020D01*
X73322Y393069D01*
X73291Y393075D01*
X73261Y393088D01*
X73153Y393101D01*
X73045Y393122D01*
X73013Y393119D01*
X72981Y393123D01*
X72873Y393105D01*
X72765Y393095D01*
X72735Y393083D01*
X72703Y393078D01*
X72604Y393031D01*
X72503Y392990D01*
X72477Y392970D01*
X72448Y392957D01*
X72366Y392884D01*
X72280Y392817D01*
X72261Y392791D01*
X72237Y392769D01*
X72190Y392692D01*
X72115Y392588D01*
X72099Y392542D01*
X72077Y392506D01*
X71190Y390366D01*
X69634Y388810D01*
X67601Y387967D01*
X65399Y387967D01*
G37*
%LPD*%
%LPC*%
G36*
X180399Y40967D02*
X180399Y40967D01*
X178366Y41810D01*
X176810Y43366D01*
X175967Y45399D01*
X175967Y47601D01*
X176810Y49634D01*
X178366Y51190D01*
X180399Y52033D01*
X182601Y52033D01*
X183761Y51552D01*
X183875Y51523D01*
X183989Y51488D01*
X184012Y51488D01*
X184034Y51482D01*
X184152Y51486D01*
X184271Y51484D01*
X184293Y51490D01*
X184316Y51491D01*
X184428Y51528D01*
X184543Y51560D01*
X184562Y51572D01*
X184584Y51579D01*
X184682Y51645D01*
X184783Y51708D01*
X184798Y51725D01*
X184817Y51738D01*
X184892Y51829D01*
X184972Y51917D01*
X184982Y51938D01*
X184996Y51955D01*
X185043Y52064D01*
X185095Y52171D01*
X185098Y52192D01*
X185108Y52214D01*
X185130Y52399D01*
X185142Y52475D01*
X185142Y53676D01*
X185985Y55709D01*
X187541Y57265D01*
X189574Y58108D01*
X191776Y58108D01*
X193809Y57265D01*
X195365Y55709D01*
X196208Y53676D01*
X196208Y51474D01*
X195365Y49441D01*
X193809Y47885D01*
X191776Y47042D01*
X189574Y47042D01*
X188414Y47523D01*
X188300Y47552D01*
X188186Y47587D01*
X188163Y47587D01*
X188141Y47593D01*
X188023Y47589D01*
X187904Y47591D01*
X187882Y47585D01*
X187859Y47584D01*
X187747Y47547D01*
X187632Y47515D01*
X187613Y47503D01*
X187591Y47496D01*
X187493Y47430D01*
X187392Y47367D01*
X187377Y47350D01*
X187358Y47337D01*
X187283Y47246D01*
X187203Y47158D01*
X187193Y47137D01*
X187179Y47120D01*
X187132Y47011D01*
X187080Y46904D01*
X187077Y46883D01*
X187067Y46861D01*
X187045Y46676D01*
X187033Y46600D01*
X187033Y45399D01*
X186190Y43366D01*
X184634Y41810D01*
X182601Y40967D01*
X180399Y40967D01*
G37*
%LPD*%
%LPC*%
G36*
X423074Y269042D02*
X423074Y269042D01*
X421041Y269885D01*
X419485Y271441D01*
X418642Y273474D01*
X418642Y275676D01*
X419485Y277709D01*
X421041Y279265D01*
X423074Y280108D01*
X425143Y280108D01*
X425207Y280117D01*
X425271Y280116D01*
X425346Y280137D01*
X425422Y280148D01*
X425481Y280174D01*
X425543Y280191D01*
X425609Y280232D01*
X425679Y280264D01*
X425728Y280306D01*
X425783Y280339D01*
X425835Y280397D01*
X425893Y280447D01*
X425929Y280501D01*
X425972Y280549D01*
X426005Y280618D01*
X426048Y280683D01*
X426067Y280745D01*
X426095Y280802D01*
X426106Y280872D01*
X426130Y280953D01*
X426131Y281038D01*
X426142Y281107D01*
X426142Y283176D01*
X426985Y285209D01*
X428541Y286765D01*
X430574Y287608D01*
X432776Y287608D01*
X434809Y286765D01*
X436365Y285209D01*
X437208Y283176D01*
X437208Y280974D01*
X436365Y278941D01*
X434809Y277385D01*
X432776Y276542D01*
X430707Y276542D01*
X430643Y276533D01*
X430579Y276534D01*
X430504Y276513D01*
X430428Y276502D01*
X430369Y276476D01*
X430307Y276459D01*
X430241Y276418D01*
X430171Y276386D01*
X430122Y276344D01*
X430067Y276311D01*
X430015Y276253D01*
X429957Y276203D01*
X429921Y276149D01*
X429878Y276101D01*
X429845Y276032D01*
X429802Y275967D01*
X429783Y275905D01*
X429755Y275848D01*
X429744Y275778D01*
X429720Y275697D01*
X429719Y275612D01*
X429708Y275543D01*
X429708Y273474D01*
X428865Y271441D01*
X427309Y269885D01*
X425276Y269042D01*
X423074Y269042D01*
G37*
%LPD*%
%LPC*%
G36*
X153399Y282467D02*
X153399Y282467D01*
X151366Y283310D01*
X149810Y284866D01*
X148967Y286899D01*
X148967Y289101D01*
X149662Y290777D01*
X149678Y290839D01*
X149703Y290898D01*
X149713Y290975D01*
X149732Y291050D01*
X149730Y291114D01*
X149738Y291178D01*
X149725Y291255D01*
X149723Y291332D01*
X149703Y291393D01*
X149693Y291457D01*
X149659Y291527D01*
X149635Y291600D01*
X149599Y291653D01*
X149572Y291711D01*
X149520Y291769D01*
X149476Y291833D01*
X149427Y291874D01*
X149384Y291922D01*
X149324Y291959D01*
X149259Y292013D01*
X149181Y292046D01*
X149121Y292083D01*
X147366Y292810D01*
X145810Y294366D01*
X144967Y296399D01*
X144967Y298601D01*
X145810Y300634D01*
X147366Y302190D01*
X149399Y303033D01*
X151601Y303033D01*
X153634Y302190D01*
X155190Y300634D01*
X156033Y298601D01*
X156033Y296399D01*
X155338Y294723D01*
X155322Y294661D01*
X155297Y294602D01*
X155287Y294525D01*
X155268Y294450D01*
X155270Y294386D01*
X155262Y294322D01*
X155275Y294245D01*
X155277Y294168D01*
X155297Y294107D01*
X155307Y294043D01*
X155341Y293973D01*
X155365Y293900D01*
X155401Y293847D01*
X155428Y293789D01*
X155480Y293731D01*
X155524Y293667D01*
X155573Y293626D01*
X155616Y293578D01*
X155676Y293541D01*
X155741Y293487D01*
X155819Y293454D01*
X155879Y293417D01*
X157634Y292690D01*
X159190Y291134D01*
X160033Y289101D01*
X160033Y286899D01*
X159190Y284866D01*
X157634Y283310D01*
X155601Y282467D01*
X153399Y282467D01*
G37*
%LPD*%
%LPC*%
G36*
X73074Y244542D02*
X73074Y244542D01*
X71041Y245385D01*
X69485Y246941D01*
X68642Y248974D01*
X68642Y251176D01*
X69485Y253209D01*
X69982Y253706D01*
X70053Y253801D01*
X70129Y253893D01*
X70138Y253914D01*
X70151Y253932D01*
X70193Y254043D01*
X70240Y254152D01*
X70243Y254175D01*
X70251Y254196D01*
X70260Y254314D01*
X70274Y254432D01*
X70271Y254454D01*
X70273Y254477D01*
X70248Y254593D01*
X70229Y254710D01*
X70220Y254731D01*
X70215Y254753D01*
X70159Y254858D01*
X70108Y254965D01*
X70093Y254982D01*
X70083Y255002D01*
X70000Y255087D01*
X69921Y255176D01*
X69902Y255187D01*
X69886Y255204D01*
X69724Y255296D01*
X69658Y255336D01*
X69541Y255385D01*
X67985Y256941D01*
X67142Y258974D01*
X67142Y261176D01*
X67985Y263209D01*
X69541Y264765D01*
X71574Y265608D01*
X73776Y265608D01*
X75809Y264765D01*
X77365Y263209D01*
X78208Y261176D01*
X78208Y258974D01*
X77365Y256941D01*
X76868Y256444D01*
X76797Y256349D01*
X76721Y256257D01*
X76712Y256236D01*
X76699Y256218D01*
X76657Y256107D01*
X76610Y255998D01*
X76607Y255975D01*
X76599Y255954D01*
X76590Y255836D01*
X76576Y255718D01*
X76579Y255696D01*
X76577Y255673D01*
X76602Y255557D01*
X76621Y255440D01*
X76630Y255419D01*
X76635Y255397D01*
X76691Y255292D01*
X76742Y255185D01*
X76757Y255168D01*
X76767Y255148D01*
X76850Y255063D01*
X76929Y254974D01*
X76948Y254963D01*
X76964Y254946D01*
X77126Y254854D01*
X77192Y254814D01*
X77309Y254765D01*
X78865Y253209D01*
X79708Y251176D01*
X79708Y248974D01*
X78865Y246941D01*
X77309Y245385D01*
X75276Y244542D01*
X73074Y244542D01*
G37*
%LPD*%
%LPC*%
G36*
X242899Y477467D02*
X242899Y477467D01*
X240866Y478310D01*
X239310Y479866D01*
X238467Y481899D01*
X238467Y484101D01*
X239310Y486134D01*
X240866Y487690D01*
X242899Y488533D01*
X245101Y488533D01*
X246473Y487964D01*
X246535Y487948D01*
X246594Y487923D01*
X246671Y487913D01*
X246746Y487894D01*
X246811Y487896D01*
X246874Y487888D01*
X246951Y487901D01*
X247028Y487903D01*
X247089Y487923D01*
X247153Y487933D01*
X247223Y487967D01*
X247296Y487991D01*
X247349Y488027D01*
X247407Y488054D01*
X247465Y488106D01*
X247529Y488149D01*
X247570Y488199D01*
X247618Y488242D01*
X247655Y488302D01*
X247709Y488367D01*
X247742Y488445D01*
X247779Y488505D01*
X248485Y490209D01*
X250041Y491765D01*
X252074Y492608D01*
X254276Y492608D01*
X256309Y491765D01*
X257865Y490209D01*
X258708Y488176D01*
X258708Y485974D01*
X257865Y483941D01*
X256309Y482385D01*
X254276Y481542D01*
X252074Y481542D01*
X250702Y482111D01*
X250640Y482127D01*
X250581Y482152D01*
X250504Y482162D01*
X250429Y482181D01*
X250364Y482179D01*
X250301Y482187D01*
X250224Y482174D01*
X250147Y482172D01*
X250086Y482152D01*
X250022Y482142D01*
X249952Y482108D01*
X249879Y482084D01*
X249826Y482048D01*
X249768Y482021D01*
X249710Y481969D01*
X249646Y481926D01*
X249605Y481876D01*
X249557Y481833D01*
X249520Y481773D01*
X249466Y481708D01*
X249433Y481630D01*
X249396Y481570D01*
X248690Y479866D01*
X247134Y478310D01*
X245101Y477467D01*
X242899Y477467D01*
G37*
%LPD*%
%LPC*%
G36*
X244574Y223042D02*
X244574Y223042D01*
X242541Y223885D01*
X240985Y225441D01*
X240142Y227474D01*
X240142Y229676D01*
X240985Y231709D01*
X242541Y233265D01*
X244574Y234108D01*
X246776Y234108D01*
X248809Y233265D01*
X249968Y232106D01*
X250020Y232067D01*
X250065Y232021D01*
X250132Y231983D01*
X250194Y231937D01*
X250254Y231914D01*
X250310Y231882D01*
X250385Y231865D01*
X250458Y231837D01*
X250522Y231832D01*
X250584Y231817D01*
X250662Y231821D01*
X250739Y231815D01*
X250802Y231829D01*
X250866Y231832D01*
X250939Y231857D01*
X251015Y231873D01*
X251072Y231903D01*
X251133Y231924D01*
X251189Y231966D01*
X251264Y232005D01*
X251325Y232065D01*
X251382Y232106D01*
X252541Y233265D01*
X254574Y234108D01*
X256776Y234108D01*
X258809Y233265D01*
X260365Y231709D01*
X261208Y229676D01*
X261208Y227474D01*
X260365Y225441D01*
X258809Y223885D01*
X256776Y223042D01*
X254574Y223042D01*
X252541Y223885D01*
X251382Y225044D01*
X251330Y225082D01*
X251285Y225129D01*
X251218Y225167D01*
X251156Y225213D01*
X251096Y225236D01*
X251040Y225268D01*
X250965Y225285D01*
X250892Y225313D01*
X250828Y225318D01*
X250765Y225333D01*
X250688Y225329D01*
X250611Y225335D01*
X250548Y225321D01*
X250484Y225318D01*
X250411Y225293D01*
X250335Y225277D01*
X250278Y225247D01*
X250217Y225226D01*
X250161Y225184D01*
X250086Y225145D01*
X250025Y225085D01*
X249968Y225044D01*
X248809Y223885D01*
X246776Y223042D01*
X244574Y223042D01*
G37*
%LPD*%
%LPC*%
G36*
X128399Y270467D02*
X128399Y270467D01*
X126366Y271310D01*
X124810Y272866D01*
X123967Y274899D01*
X123967Y277101D01*
X124168Y277586D01*
X124198Y277700D01*
X124232Y277814D01*
X124233Y277837D01*
X124238Y277859D01*
X124234Y277977D01*
X124236Y278096D01*
X124230Y278118D01*
X124229Y278141D01*
X124193Y278253D01*
X124161Y278368D01*
X124149Y278387D01*
X124142Y278409D01*
X124075Y278507D01*
X124013Y278608D01*
X123996Y278623D01*
X123983Y278642D01*
X123891Y278717D01*
X123803Y278797D01*
X123783Y278807D01*
X123765Y278821D01*
X123656Y278868D01*
X123550Y278920D01*
X123528Y278923D01*
X123506Y278933D01*
X123474Y278937D01*
X121366Y279810D01*
X119810Y281366D01*
X118967Y283399D01*
X118967Y285601D01*
X119810Y287634D01*
X121366Y289190D01*
X123399Y290033D01*
X125601Y290033D01*
X127634Y289190D01*
X129190Y287634D01*
X130033Y285601D01*
X130033Y283399D01*
X129832Y282914D01*
X129802Y282800D01*
X129768Y282686D01*
X129767Y282663D01*
X129762Y282641D01*
X129766Y282523D01*
X129764Y282404D01*
X129770Y282382D01*
X129771Y282359D01*
X129807Y282247D01*
X129839Y282132D01*
X129851Y282113D01*
X129858Y282091D01*
X129925Y281993D01*
X129987Y281892D01*
X130004Y281877D01*
X130017Y281858D01*
X130109Y281783D01*
X130197Y281703D01*
X130217Y281693D01*
X130235Y281679D01*
X130344Y281632D01*
X130450Y281580D01*
X130472Y281577D01*
X130494Y281567D01*
X130526Y281563D01*
X132634Y280690D01*
X134190Y279134D01*
X135033Y277101D01*
X135033Y274899D01*
X134190Y272866D01*
X132634Y271310D01*
X130601Y270467D01*
X128399Y270467D01*
G37*
%LPD*%
%LPC*%
G36*
X35399Y384467D02*
X35399Y384467D01*
X33366Y385310D01*
X31810Y386866D01*
X30967Y388899D01*
X30967Y391101D01*
X31810Y393134D01*
X33366Y394690D01*
X35399Y395533D01*
X37143Y395533D01*
X37207Y395542D01*
X37271Y395541D01*
X37346Y395562D01*
X37422Y395573D01*
X37481Y395599D01*
X37543Y395616D01*
X37609Y395657D01*
X37679Y395689D01*
X37728Y395731D01*
X37783Y395764D01*
X37835Y395822D01*
X37893Y395872D01*
X37929Y395926D01*
X37972Y395974D01*
X38005Y396043D01*
X38048Y396108D01*
X38067Y396170D01*
X38095Y396227D01*
X38106Y396297D01*
X38130Y396378D01*
X38131Y396463D01*
X38142Y396532D01*
X38142Y397676D01*
X38985Y399709D01*
X40541Y401265D01*
X42574Y402108D01*
X44776Y402108D01*
X46809Y401265D01*
X48365Y399709D01*
X49208Y397676D01*
X49208Y395474D01*
X48365Y393441D01*
X46809Y391885D01*
X44776Y391042D01*
X43032Y391042D01*
X42968Y391033D01*
X42904Y391034D01*
X42829Y391013D01*
X42753Y391002D01*
X42694Y390976D01*
X42632Y390959D01*
X42566Y390918D01*
X42496Y390886D01*
X42447Y390844D01*
X42392Y390811D01*
X42340Y390753D01*
X42282Y390703D01*
X42246Y390649D01*
X42203Y390601D01*
X42170Y390532D01*
X42127Y390467D01*
X42108Y390405D01*
X42080Y390348D01*
X42069Y390278D01*
X42045Y390197D01*
X42044Y390112D01*
X42033Y390043D01*
X42033Y388899D01*
X41190Y386866D01*
X39634Y385310D01*
X37601Y384467D01*
X35399Y384467D01*
G37*
%LPD*%
%LPC*%
G36*
X221399Y220467D02*
X221399Y220467D01*
X219366Y221310D01*
X217810Y222866D01*
X216967Y224899D01*
X216967Y227101D01*
X217810Y229134D01*
X219366Y230690D01*
X221399Y231533D01*
X223601Y231533D01*
X225525Y230736D01*
X225587Y230720D01*
X225646Y230694D01*
X225723Y230685D01*
X225798Y230666D01*
X225862Y230668D01*
X225926Y230660D01*
X226002Y230672D01*
X226080Y230675D01*
X226141Y230695D01*
X226204Y230705D01*
X226274Y230738D01*
X226348Y230762D01*
X226401Y230798D01*
X226459Y230826D01*
X226517Y230877D01*
X226581Y230921D01*
X226622Y230971D01*
X226670Y231013D01*
X226706Y231073D01*
X226760Y231139D01*
X226789Y231206D01*
X228366Y232783D01*
X230399Y233625D01*
X232601Y233625D01*
X234634Y232783D01*
X236190Y231227D01*
X237033Y229193D01*
X237033Y226992D01*
X236190Y224958D01*
X234634Y223402D01*
X232601Y222560D01*
X230399Y222560D01*
X228475Y223357D01*
X228413Y223373D01*
X228354Y223398D01*
X228277Y223408D01*
X228202Y223427D01*
X228138Y223425D01*
X228074Y223433D01*
X227998Y223420D01*
X227920Y223418D01*
X227859Y223398D01*
X227796Y223388D01*
X227726Y223354D01*
X227652Y223330D01*
X227599Y223294D01*
X227541Y223267D01*
X227483Y223215D01*
X227419Y223171D01*
X227378Y223122D01*
X227330Y223079D01*
X227294Y223019D01*
X227240Y222954D01*
X227211Y222886D01*
X225634Y221310D01*
X223601Y220467D01*
X221399Y220467D01*
G37*
%LPD*%
%LPC*%
G36*
X228653Y243069D02*
X228653Y243069D01*
X226619Y243911D01*
X225063Y245467D01*
X224221Y247501D01*
X224221Y249702D01*
X225063Y251735D01*
X225485Y252158D01*
X225524Y252209D01*
X225570Y252254D01*
X225608Y252321D01*
X225655Y252383D01*
X225677Y252444D01*
X225709Y252499D01*
X225727Y252575D01*
X225754Y252647D01*
X225759Y252711D01*
X225774Y252774D01*
X225770Y252851D01*
X225776Y252928D01*
X225763Y252991D01*
X225759Y253056D01*
X225734Y253129D01*
X225718Y253205D01*
X225688Y253261D01*
X225667Y253322D01*
X225626Y253379D01*
X225586Y253454D01*
X225537Y253504D01*
X225521Y253529D01*
X225505Y253544D01*
X225485Y253571D01*
X224958Y254099D01*
X224115Y256132D01*
X224115Y258333D01*
X224958Y260367D01*
X226514Y261923D01*
X228547Y262765D01*
X230749Y262765D01*
X232782Y261923D01*
X234338Y260367D01*
X235181Y258333D01*
X235181Y256132D01*
X234338Y254099D01*
X233916Y253676D01*
X233877Y253625D01*
X233831Y253580D01*
X233793Y253513D01*
X233747Y253451D01*
X233724Y253391D01*
X233692Y253335D01*
X233675Y253259D01*
X233647Y253187D01*
X233642Y253123D01*
X233627Y253060D01*
X233631Y252983D01*
X233625Y252906D01*
X233638Y252843D01*
X233642Y252778D01*
X233667Y252705D01*
X233683Y252630D01*
X233713Y252573D01*
X233734Y252512D01*
X233776Y252455D01*
X233815Y252381D01*
X233875Y252320D01*
X233916Y252263D01*
X234444Y251735D01*
X235286Y249702D01*
X235286Y247501D01*
X234444Y245467D01*
X232887Y243911D01*
X230854Y243069D01*
X228653Y243069D01*
G37*
%LPD*%
%LPC*%
G36*
X108074Y417042D02*
X108074Y417042D01*
X106041Y417885D01*
X104485Y419441D01*
X103642Y421474D01*
X103642Y423676D01*
X104485Y425709D01*
X104894Y426118D01*
X104933Y426170D01*
X104979Y426215D01*
X105017Y426282D01*
X105063Y426344D01*
X105086Y426404D01*
X105118Y426460D01*
X105135Y426535D01*
X105163Y426608D01*
X105168Y426672D01*
X105183Y426734D01*
X105179Y426812D01*
X105185Y426889D01*
X105171Y426952D01*
X105168Y427016D01*
X105143Y427089D01*
X105127Y427165D01*
X105097Y427222D01*
X105076Y427283D01*
X105034Y427339D01*
X104995Y427414D01*
X104935Y427475D01*
X104894Y427532D01*
X104485Y427941D01*
X103642Y429974D01*
X103642Y432176D01*
X104485Y434209D01*
X106041Y435765D01*
X108074Y436608D01*
X110276Y436608D01*
X112309Y435765D01*
X113865Y434209D01*
X114708Y432176D01*
X114708Y429974D01*
X113865Y427941D01*
X113456Y427532D01*
X113418Y427480D01*
X113371Y427435D01*
X113333Y427368D01*
X113287Y427306D01*
X113264Y427246D01*
X113232Y427190D01*
X113215Y427115D01*
X113187Y427042D01*
X113182Y426978D01*
X113167Y426915D01*
X113171Y426838D01*
X113165Y426761D01*
X113179Y426698D01*
X113182Y426634D01*
X113207Y426561D01*
X113223Y426485D01*
X113253Y426428D01*
X113274Y426367D01*
X113316Y426311D01*
X113355Y426236D01*
X113415Y426175D01*
X113456Y426118D01*
X113865Y425709D01*
X114708Y423676D01*
X114708Y421474D01*
X113865Y419441D01*
X112309Y417885D01*
X110276Y417042D01*
X108074Y417042D01*
G37*
%LPD*%
%LPC*%
G36*
X284574Y317542D02*
X284574Y317542D01*
X282541Y318385D01*
X280985Y319941D01*
X280142Y321974D01*
X280142Y324176D01*
X280985Y326209D01*
X281144Y326368D01*
X281183Y326420D01*
X281229Y326465D01*
X281267Y326532D01*
X281313Y326594D01*
X281336Y326654D01*
X281368Y326710D01*
X281385Y326785D01*
X281413Y326858D01*
X281418Y326922D01*
X281433Y326984D01*
X281429Y327062D01*
X281435Y327139D01*
X281421Y327202D01*
X281418Y327266D01*
X281393Y327339D01*
X281377Y327415D01*
X281347Y327472D01*
X281326Y327533D01*
X281284Y327589D01*
X281245Y327664D01*
X281185Y327725D01*
X281144Y327782D01*
X280985Y327941D01*
X280142Y329974D01*
X280142Y332176D01*
X280985Y334209D01*
X282541Y335765D01*
X284574Y336608D01*
X286776Y336608D01*
X288809Y335765D01*
X290365Y334209D01*
X291208Y332176D01*
X291208Y329974D01*
X290365Y327941D01*
X290206Y327782D01*
X290168Y327730D01*
X290121Y327685D01*
X290083Y327618D01*
X290037Y327556D01*
X290014Y327496D01*
X289982Y327440D01*
X289965Y327365D01*
X289937Y327292D01*
X289932Y327228D01*
X289917Y327165D01*
X289921Y327088D01*
X289915Y327011D01*
X289929Y326948D01*
X289932Y326884D01*
X289957Y326811D01*
X289973Y326735D01*
X290003Y326678D01*
X290024Y326617D01*
X290066Y326561D01*
X290105Y326486D01*
X290165Y326425D01*
X290206Y326368D01*
X290365Y326209D01*
X291208Y324176D01*
X291208Y321974D01*
X290365Y319941D01*
X288809Y318385D01*
X286776Y317542D01*
X284574Y317542D01*
G37*
%LPD*%
%LPC*%
G36*
X319574Y317542D02*
X319574Y317542D01*
X317541Y318385D01*
X315985Y319941D01*
X315142Y321974D01*
X315142Y324176D01*
X315985Y326209D01*
X316144Y326368D01*
X316182Y326420D01*
X316229Y326465D01*
X316267Y326532D01*
X316313Y326594D01*
X316336Y326654D01*
X316368Y326710D01*
X316385Y326785D01*
X316413Y326858D01*
X316418Y326922D01*
X316433Y326985D01*
X316429Y327062D01*
X316435Y327139D01*
X316421Y327202D01*
X316418Y327266D01*
X316393Y327339D01*
X316377Y327415D01*
X316347Y327472D01*
X316326Y327533D01*
X316284Y327589D01*
X316245Y327664D01*
X316185Y327725D01*
X316144Y327782D01*
X315985Y327941D01*
X315142Y329974D01*
X315142Y332176D01*
X315985Y334209D01*
X317541Y335765D01*
X319574Y336608D01*
X321776Y336608D01*
X323809Y335765D01*
X325365Y334209D01*
X326208Y332176D01*
X326208Y329974D01*
X325365Y327941D01*
X325206Y327782D01*
X325167Y327730D01*
X325121Y327685D01*
X325083Y327618D01*
X325037Y327556D01*
X325014Y327496D01*
X324982Y327440D01*
X324965Y327365D01*
X324937Y327292D01*
X324932Y327228D01*
X324917Y327166D01*
X324921Y327088D01*
X324915Y327011D01*
X324929Y326948D01*
X324932Y326884D01*
X324957Y326811D01*
X324973Y326735D01*
X325003Y326678D01*
X325024Y326617D01*
X325066Y326561D01*
X325105Y326486D01*
X325165Y326425D01*
X325206Y326368D01*
X325365Y326209D01*
X326208Y324176D01*
X326208Y321974D01*
X325365Y319941D01*
X323809Y318385D01*
X321776Y317542D01*
X319574Y317542D01*
G37*
%LPD*%
%LPC*%
G36*
X302074Y317542D02*
X302074Y317542D01*
X300041Y318385D01*
X298485Y319941D01*
X297642Y321974D01*
X297642Y324176D01*
X298485Y326209D01*
X298644Y326368D01*
X298682Y326420D01*
X298729Y326465D01*
X298767Y326532D01*
X298813Y326594D01*
X298836Y326654D01*
X298868Y326710D01*
X298885Y326785D01*
X298913Y326858D01*
X298918Y326922D01*
X298933Y326985D01*
X298929Y327062D01*
X298935Y327139D01*
X298921Y327202D01*
X298918Y327266D01*
X298893Y327339D01*
X298877Y327415D01*
X298847Y327472D01*
X298826Y327533D01*
X298784Y327589D01*
X298745Y327664D01*
X298685Y327725D01*
X298644Y327782D01*
X298485Y327941D01*
X297642Y329974D01*
X297642Y332176D01*
X298485Y334209D01*
X300041Y335765D01*
X302074Y336608D01*
X304276Y336608D01*
X306309Y335765D01*
X307865Y334209D01*
X308708Y332176D01*
X308708Y329974D01*
X307865Y327941D01*
X307706Y327782D01*
X307667Y327730D01*
X307621Y327685D01*
X307583Y327618D01*
X307537Y327556D01*
X307514Y327496D01*
X307482Y327440D01*
X307465Y327365D01*
X307437Y327292D01*
X307432Y327228D01*
X307417Y327166D01*
X307421Y327088D01*
X307415Y327011D01*
X307429Y326948D01*
X307432Y326884D01*
X307457Y326811D01*
X307473Y326735D01*
X307503Y326678D01*
X307524Y326617D01*
X307566Y326561D01*
X307605Y326486D01*
X307665Y326425D01*
X307706Y326368D01*
X307865Y326209D01*
X308708Y324176D01*
X308708Y321974D01*
X307865Y319941D01*
X306309Y318385D01*
X304276Y317542D01*
X302074Y317542D01*
G37*
%LPD*%
%LPC*%
G36*
X101074Y347542D02*
X101074Y347542D01*
X99041Y348385D01*
X97485Y349941D01*
X96642Y351974D01*
X96642Y354176D01*
X97485Y356209D01*
X99041Y357765D01*
X101074Y358608D01*
X103276Y358608D01*
X105309Y357765D01*
X105468Y357606D01*
X105520Y357567D01*
X105565Y357521D01*
X105632Y357483D01*
X105694Y357437D01*
X105754Y357414D01*
X105810Y357382D01*
X105885Y357365D01*
X105958Y357337D01*
X106022Y357332D01*
X106084Y357317D01*
X106162Y357321D01*
X106239Y357315D01*
X106302Y357329D01*
X106366Y357332D01*
X106439Y357357D01*
X106515Y357373D01*
X106572Y357403D01*
X106633Y357424D01*
X106689Y357466D01*
X106764Y357505D01*
X106825Y357565D01*
X106882Y357606D01*
X107041Y357765D01*
X109074Y358608D01*
X111276Y358608D01*
X113309Y357765D01*
X114865Y356209D01*
X115708Y354176D01*
X115708Y351974D01*
X114865Y349941D01*
X113309Y348385D01*
X111276Y347542D01*
X109074Y347542D01*
X107041Y348385D01*
X106882Y348544D01*
X106830Y348582D01*
X106785Y348629D01*
X106718Y348667D01*
X106656Y348713D01*
X106596Y348736D01*
X106540Y348768D01*
X106465Y348785D01*
X106392Y348813D01*
X106328Y348818D01*
X106265Y348833D01*
X106188Y348829D01*
X106111Y348835D01*
X106048Y348821D01*
X105984Y348818D01*
X105911Y348793D01*
X105835Y348777D01*
X105778Y348747D01*
X105717Y348726D01*
X105661Y348684D01*
X105586Y348645D01*
X105525Y348585D01*
X105468Y348544D01*
X105309Y348385D01*
X103276Y347542D01*
X101074Y347542D01*
G37*
%LPD*%
%LPC*%
G36*
X225399Y384467D02*
X225399Y384467D01*
X223366Y385310D01*
X222207Y386469D01*
X222181Y386488D01*
X222160Y386513D01*
X222068Y386573D01*
X221981Y386638D01*
X221951Y386650D01*
X221924Y386667D01*
X221869Y386684D01*
X221859Y386711D01*
X221839Y386795D01*
X220967Y388899D01*
X220967Y391101D01*
X221810Y393134D01*
X223366Y394690D01*
X225399Y395533D01*
X227601Y395533D01*
X229634Y394690D01*
X231190Y393134D01*
X232033Y391101D01*
X232033Y388899D01*
X231190Y386866D01*
X229634Y385310D01*
X227601Y384467D01*
X225399Y384467D01*
G37*
%LPD*%
%LPC*%
G36*
X444574Y418042D02*
X444574Y418042D01*
X442541Y418885D01*
X440985Y420441D01*
X440142Y422474D01*
X440142Y424676D01*
X440985Y426709D01*
X442541Y428265D01*
X444574Y429108D01*
X446776Y429108D01*
X448809Y428265D01*
X450365Y426709D01*
X451208Y424676D01*
X451208Y422474D01*
X450365Y420441D01*
X448809Y418885D01*
X446776Y418042D01*
X444574Y418042D01*
G37*
%LPD*%
%LPC*%
G36*
X192899Y409967D02*
X192899Y409967D01*
X190866Y410810D01*
X189310Y412366D01*
X188467Y414399D01*
X188467Y416601D01*
X189310Y418634D01*
X190866Y420190D01*
X192899Y421033D01*
X195101Y421033D01*
X197134Y420190D01*
X198690Y418634D01*
X199533Y416601D01*
X199533Y414399D01*
X198690Y412366D01*
X197134Y410810D01*
X195101Y409967D01*
X192899Y409967D01*
G37*
%LPD*%
%LPC*%
G36*
X382574Y408542D02*
X382574Y408542D01*
X380541Y409385D01*
X378985Y410941D01*
X378142Y412974D01*
X378142Y415176D01*
X378985Y417209D01*
X380541Y418765D01*
X382574Y419608D01*
X384776Y419608D01*
X386809Y418765D01*
X388365Y417209D01*
X389208Y415176D01*
X389208Y412974D01*
X388365Y410941D01*
X386809Y409385D01*
X384776Y408542D01*
X382574Y408542D01*
G37*
%LPD*%
%LPC*%
G36*
X558074Y408042D02*
X558074Y408042D01*
X556041Y408885D01*
X554485Y410441D01*
X553642Y412474D01*
X553642Y414676D01*
X554485Y416709D01*
X556041Y418265D01*
X558074Y419108D01*
X560276Y419108D01*
X562309Y418265D01*
X563865Y416709D01*
X564708Y414676D01*
X564708Y412474D01*
X563865Y410441D01*
X562309Y408885D01*
X560276Y408042D01*
X558074Y408042D01*
G37*
%LPD*%
%LPC*%
G36*
X327574Y406542D02*
X327574Y406542D01*
X325541Y407385D01*
X323985Y408941D01*
X323142Y410974D01*
X323142Y413176D01*
X323985Y415209D01*
X325541Y416765D01*
X327574Y417608D01*
X329776Y417608D01*
X331809Y416765D01*
X333365Y415209D01*
X334208Y413176D01*
X334208Y410974D01*
X333365Y408941D01*
X331809Y407385D01*
X329776Y406542D01*
X327574Y406542D01*
G37*
%LPD*%
%LPC*%
G36*
X219899Y396467D02*
X219899Y396467D01*
X217866Y397310D01*
X216310Y398866D01*
X215467Y400899D01*
X215467Y403101D01*
X216310Y405134D01*
X217866Y406690D01*
X219899Y407533D01*
X222101Y407533D01*
X224134Y406690D01*
X225690Y405134D01*
X226533Y403101D01*
X226533Y400899D01*
X225690Y398866D01*
X224134Y397310D01*
X222101Y396467D01*
X219899Y396467D01*
G37*
%LPD*%
%LPC*%
G36*
X423574Y391042D02*
X423574Y391042D01*
X421541Y391885D01*
X419985Y393441D01*
X419142Y395474D01*
X419142Y397676D01*
X419985Y399709D01*
X421541Y401265D01*
X423574Y402108D01*
X425776Y402108D01*
X427809Y401265D01*
X429365Y399709D01*
X430208Y397676D01*
X430208Y395474D01*
X429365Y393441D01*
X427809Y391885D01*
X425776Y391042D01*
X423574Y391042D01*
G37*
%LPD*%
%LPC*%
G36*
X493074Y386042D02*
X493074Y386042D01*
X491041Y386885D01*
X489485Y388441D01*
X488642Y390474D01*
X488642Y392676D01*
X489485Y394709D01*
X491041Y396265D01*
X493074Y397108D01*
X495276Y397108D01*
X497309Y396265D01*
X498865Y394709D01*
X499708Y392676D01*
X499708Y390474D01*
X498865Y388441D01*
X497309Y386885D01*
X495276Y386042D01*
X493074Y386042D01*
G37*
%LPD*%
%LPC*%
G36*
X309899Y384467D02*
X309899Y384467D01*
X307866Y385310D01*
X306310Y386866D01*
X305467Y388899D01*
X305467Y391101D01*
X306310Y393134D01*
X307866Y394690D01*
X309899Y395533D01*
X312101Y395533D01*
X314134Y394690D01*
X315690Y393134D01*
X316533Y391101D01*
X316533Y388899D01*
X315690Y386866D01*
X314134Y385310D01*
X312101Y384467D01*
X309899Y384467D01*
G37*
%LPD*%
%LPC*%
G36*
X523074Y378542D02*
X523074Y378542D01*
X521041Y379385D01*
X519485Y380941D01*
X518642Y382974D01*
X518642Y385176D01*
X519485Y387209D01*
X521041Y388765D01*
X523074Y389608D01*
X525276Y389608D01*
X527309Y388765D01*
X528865Y387209D01*
X529708Y385176D01*
X529708Y382974D01*
X528865Y380941D01*
X527309Y379385D01*
X525276Y378542D01*
X523074Y378542D01*
G37*
%LPD*%
%LPC*%
G36*
X559074Y378542D02*
X559074Y378542D01*
X557041Y379385D01*
X555485Y380941D01*
X554642Y382974D01*
X554642Y385176D01*
X555485Y387209D01*
X557041Y388765D01*
X559074Y389608D01*
X561276Y389608D01*
X563309Y388765D01*
X564865Y387209D01*
X565708Y385176D01*
X565708Y382974D01*
X564865Y380941D01*
X563309Y379385D01*
X561276Y378542D01*
X559074Y378542D01*
G37*
%LPD*%
%LPC*%
G36*
X50574Y369542D02*
X50574Y369542D01*
X48541Y370385D01*
X46985Y371941D01*
X46142Y373974D01*
X46142Y376176D01*
X46985Y378209D01*
X48541Y379765D01*
X50574Y380608D01*
X52776Y380608D01*
X54809Y379765D01*
X56365Y378209D01*
X57208Y376176D01*
X57208Y373974D01*
X56365Y371941D01*
X54809Y370385D01*
X52776Y369542D01*
X50574Y369542D01*
G37*
%LPD*%
%LPC*%
G36*
X72399Y363967D02*
X72399Y363967D01*
X70366Y364810D01*
X68810Y366366D01*
X67967Y368399D01*
X67967Y370601D01*
X68810Y372634D01*
X70366Y374190D01*
X72399Y375033D01*
X74601Y375033D01*
X76634Y374190D01*
X78190Y372634D01*
X79033Y370601D01*
X79033Y368399D01*
X78190Y366366D01*
X76634Y364810D01*
X74601Y363967D01*
X72399Y363967D01*
G37*
%LPD*%
%LPC*%
G36*
X324574Y360542D02*
X324574Y360542D01*
X322541Y361385D01*
X320985Y362941D01*
X320142Y364974D01*
X320142Y367176D01*
X320985Y369209D01*
X322541Y370765D01*
X324574Y371608D01*
X326776Y371608D01*
X328809Y370765D01*
X330365Y369209D01*
X331208Y367176D01*
X331208Y364974D01*
X330365Y362941D01*
X328809Y361385D01*
X326776Y360542D01*
X324574Y360542D01*
G37*
%LPD*%
%LPC*%
G36*
X527574Y350542D02*
X527574Y350542D01*
X525541Y351385D01*
X523985Y352941D01*
X523142Y354974D01*
X523142Y357176D01*
X523985Y359209D01*
X525541Y360765D01*
X527574Y361608D01*
X529776Y361608D01*
X531809Y360765D01*
X533365Y359209D01*
X534208Y357176D01*
X534208Y354974D01*
X533365Y352941D01*
X531809Y351385D01*
X529776Y350542D01*
X527574Y350542D01*
G37*
%LPD*%
%LPC*%
G36*
X542531Y330542D02*
X542531Y330542D01*
X540497Y331385D01*
X538941Y332941D01*
X538099Y334974D01*
X538099Y337176D01*
X538941Y339209D01*
X540497Y340765D01*
X542531Y341608D01*
X544732Y341608D01*
X546765Y340765D01*
X548322Y339209D01*
X549164Y337176D01*
X549164Y334974D01*
X548322Y332941D01*
X546765Y331385D01*
X544732Y330542D01*
X542531Y330542D01*
G37*
%LPD*%
%LPC*%
G36*
X231074Y311542D02*
X231074Y311542D01*
X229041Y312385D01*
X227485Y313941D01*
X226642Y315974D01*
X226642Y318176D01*
X227485Y320209D01*
X229041Y321765D01*
X231074Y322608D01*
X233276Y322608D01*
X235309Y321765D01*
X236865Y320209D01*
X237708Y318176D01*
X237708Y315974D01*
X236865Y313941D01*
X235309Y312385D01*
X233276Y311542D01*
X231074Y311542D01*
G37*
%LPD*%
%LPC*%
G36*
X248074Y311542D02*
X248074Y311542D01*
X246041Y312385D01*
X244485Y313941D01*
X243642Y315974D01*
X243642Y318176D01*
X244485Y320209D01*
X246041Y321765D01*
X248074Y322608D01*
X250276Y322608D01*
X252309Y321765D01*
X253865Y320209D01*
X254708Y318176D01*
X254708Y315974D01*
X253865Y313941D01*
X252309Y312385D01*
X250276Y311542D01*
X248074Y311542D01*
G37*
%LPD*%
%LPC*%
G36*
X269074Y299042D02*
X269074Y299042D01*
X267041Y299885D01*
X265485Y301441D01*
X264642Y303474D01*
X264642Y305676D01*
X265485Y307709D01*
X267041Y309265D01*
X269074Y310108D01*
X271276Y310108D01*
X273309Y309265D01*
X274865Y307709D01*
X275708Y305676D01*
X275708Y303474D01*
X274865Y301441D01*
X273309Y299885D01*
X271276Y299042D01*
X269074Y299042D01*
G37*
%LPD*%
%LPC*%
G36*
X205074Y296042D02*
X205074Y296042D01*
X203041Y296885D01*
X201485Y298441D01*
X200642Y300474D01*
X200642Y302676D01*
X201485Y304709D01*
X203041Y306265D01*
X205074Y307108D01*
X207276Y307108D01*
X209309Y306265D01*
X210865Y304709D01*
X211708Y302676D01*
X211708Y300474D01*
X210865Y298441D01*
X209309Y296885D01*
X207276Y296042D01*
X205074Y296042D01*
G37*
%LPD*%
%LPC*%
G36*
X220074Y296042D02*
X220074Y296042D01*
X218041Y296885D01*
X216485Y298441D01*
X215642Y300474D01*
X215642Y302676D01*
X216485Y304709D01*
X218041Y306265D01*
X220074Y307108D01*
X222276Y307108D01*
X224309Y306265D01*
X225865Y304709D01*
X226708Y302676D01*
X226708Y300474D01*
X225865Y298441D01*
X224309Y296885D01*
X222276Y296042D01*
X220074Y296042D01*
G37*
%LPD*%
%LPC*%
G36*
X492074Y290542D02*
X492074Y290542D01*
X490041Y291385D01*
X488485Y292941D01*
X487642Y294974D01*
X487642Y297176D01*
X488485Y299209D01*
X490041Y300765D01*
X492074Y301608D01*
X494276Y301608D01*
X496309Y300765D01*
X497865Y299209D01*
X498708Y297176D01*
X498708Y294974D01*
X497865Y292941D01*
X496309Y291385D01*
X494276Y290542D01*
X492074Y290542D01*
G37*
%LPD*%
%LPC*%
G36*
X408574Y354542D02*
X408574Y354542D01*
X406541Y355385D01*
X404985Y356941D01*
X404142Y358974D01*
X404142Y361176D01*
X404985Y363209D01*
X406541Y364765D01*
X408574Y365608D01*
X410776Y365608D01*
X412809Y364765D01*
X414365Y363209D01*
X415208Y361176D01*
X415208Y358974D01*
X414365Y356941D01*
X412809Y355385D01*
X410776Y354542D01*
X408574Y354542D01*
G37*
%LPD*%
%LPC*%
G36*
X227574Y533042D02*
X227574Y533042D01*
X225541Y533885D01*
X223985Y535441D01*
X223142Y537474D01*
X223142Y539676D01*
X223985Y541709D01*
X225541Y543265D01*
X227574Y544108D01*
X229776Y544108D01*
X231809Y543265D01*
X233365Y541709D01*
X234208Y539676D01*
X234208Y537474D01*
X233365Y535441D01*
X231809Y533885D01*
X229776Y533042D01*
X227574Y533042D01*
G37*
%LPD*%
%LPC*%
G36*
X510074Y278542D02*
X510074Y278542D01*
X508041Y279385D01*
X506485Y280941D01*
X505642Y282974D01*
X505642Y285176D01*
X506485Y287209D01*
X508041Y288765D01*
X510074Y289608D01*
X512276Y289608D01*
X514309Y288765D01*
X515865Y287209D01*
X516708Y285176D01*
X516708Y282974D01*
X515865Y280941D01*
X514309Y279385D01*
X512276Y278542D01*
X510074Y278542D01*
G37*
%LPD*%
%LPC*%
G36*
X338443Y531753D02*
X338443Y531753D01*
X336410Y532595D01*
X334853Y534152D01*
X334011Y536185D01*
X334011Y538386D01*
X334853Y540420D01*
X336410Y541976D01*
X338443Y542818D01*
X340644Y542818D01*
X342678Y541976D01*
X344234Y540420D01*
X345077Y538386D01*
X345077Y536185D01*
X344234Y534152D01*
X342678Y532595D01*
X340644Y531753D01*
X338443Y531753D01*
G37*
%LPD*%
%LPC*%
G36*
X559574Y263542D02*
X559574Y263542D01*
X557541Y264385D01*
X555985Y265941D01*
X555142Y267974D01*
X555142Y270176D01*
X555985Y272209D01*
X557541Y273765D01*
X559574Y274608D01*
X561776Y274608D01*
X563809Y273765D01*
X565365Y272209D01*
X566208Y270176D01*
X566208Y267974D01*
X565365Y265941D01*
X563809Y264385D01*
X561776Y263542D01*
X559574Y263542D01*
G37*
%LPD*%
%LPC*%
G36*
X522574Y263042D02*
X522574Y263042D01*
X520541Y263885D01*
X518985Y265441D01*
X518142Y267474D01*
X518142Y269676D01*
X518985Y271709D01*
X520541Y273265D01*
X522574Y274108D01*
X524776Y274108D01*
X526809Y273265D01*
X528365Y271709D01*
X529208Y269676D01*
X529208Y267474D01*
X528365Y265441D01*
X526809Y263885D01*
X524776Y263042D01*
X522574Y263042D01*
G37*
%LPD*%
%LPC*%
G36*
X412074Y261542D02*
X412074Y261542D01*
X410041Y262385D01*
X408485Y263941D01*
X407642Y265974D01*
X407642Y268176D01*
X408485Y270209D01*
X410041Y271765D01*
X412074Y272608D01*
X414276Y272608D01*
X416309Y271765D01*
X417865Y270209D01*
X418708Y268176D01*
X418708Y265974D01*
X417865Y263941D01*
X416309Y262385D01*
X414276Y261542D01*
X412074Y261542D01*
G37*
%LPD*%
%LPC*%
G36*
X389824Y523642D02*
X389824Y523642D01*
X387791Y524485D01*
X386235Y526041D01*
X385392Y528074D01*
X385392Y530276D01*
X386235Y532309D01*
X387791Y533865D01*
X389824Y534708D01*
X392026Y534708D01*
X394059Y533865D01*
X395615Y532309D01*
X396458Y530276D01*
X396458Y528074D01*
X395615Y526041D01*
X394059Y524485D01*
X392026Y523642D01*
X389824Y523642D01*
G37*
%LPD*%
%LPC*%
G36*
X338574Y253042D02*
X338574Y253042D01*
X336541Y253885D01*
X334985Y255441D01*
X334142Y257474D01*
X334142Y259676D01*
X334985Y261709D01*
X336541Y263265D01*
X338574Y264108D01*
X340776Y264108D01*
X342809Y263265D01*
X344365Y261709D01*
X345208Y259676D01*
X345208Y257474D01*
X344365Y255441D01*
X342809Y253885D01*
X340776Y253042D01*
X338574Y253042D01*
G37*
%LPD*%
%LPC*%
G36*
X63574Y520042D02*
X63574Y520042D01*
X61541Y520885D01*
X59985Y522441D01*
X59142Y524474D01*
X59142Y526676D01*
X59985Y528709D01*
X61541Y530265D01*
X63574Y531108D01*
X65776Y531108D01*
X67809Y530265D01*
X69365Y528709D01*
X70208Y526676D01*
X70208Y524474D01*
X69365Y522441D01*
X67809Y520885D01*
X65776Y520042D01*
X63574Y520042D01*
G37*
%LPD*%
%LPC*%
G36*
X128574Y514542D02*
X128574Y514542D01*
X126541Y515385D01*
X124985Y516941D01*
X124142Y518974D01*
X124142Y521176D01*
X124985Y523209D01*
X126541Y524765D01*
X128574Y525608D01*
X130776Y525608D01*
X132809Y524765D01*
X134365Y523209D01*
X135208Y521176D01*
X135208Y518974D01*
X134365Y516941D01*
X132809Y515385D01*
X130776Y514542D01*
X128574Y514542D01*
G37*
%LPD*%
%LPC*%
G36*
X559574Y503542D02*
X559574Y503542D01*
X557541Y504385D01*
X555985Y505941D01*
X555142Y507974D01*
X555142Y510176D01*
X555985Y512209D01*
X557541Y513765D01*
X559574Y514608D01*
X561776Y514608D01*
X563809Y513765D01*
X565365Y512209D01*
X566208Y510176D01*
X566208Y507974D01*
X565365Y505941D01*
X563809Y504385D01*
X561776Y503542D01*
X559574Y503542D01*
G37*
%LPD*%
%LPC*%
G36*
X127399Y234967D02*
X127399Y234967D01*
X125366Y235810D01*
X123810Y237366D01*
X122967Y239399D01*
X122967Y241601D01*
X123810Y243634D01*
X125366Y245190D01*
X127399Y246033D01*
X129601Y246033D01*
X131634Y245190D01*
X133190Y243634D01*
X134033Y241601D01*
X134033Y239399D01*
X133190Y237366D01*
X131634Y235810D01*
X129601Y234967D01*
X127399Y234967D01*
G37*
%LPD*%
%LPC*%
G36*
X24899Y233467D02*
X24899Y233467D01*
X22866Y234310D01*
X21310Y235866D01*
X20467Y237899D01*
X20467Y240101D01*
X21310Y242134D01*
X22866Y243690D01*
X24899Y244533D01*
X27101Y244533D01*
X29134Y243690D01*
X30690Y242134D01*
X31533Y240101D01*
X31533Y237899D01*
X30690Y235866D01*
X29134Y234310D01*
X27101Y233467D01*
X24899Y233467D01*
G37*
%LPD*%
%LPC*%
G36*
X336074Y502542D02*
X336074Y502542D01*
X334041Y503385D01*
X332485Y504941D01*
X331642Y506974D01*
X331642Y509176D01*
X332485Y511209D01*
X334041Y512765D01*
X336074Y513608D01*
X338276Y513608D01*
X340309Y512765D01*
X341865Y511209D01*
X342708Y509176D01*
X342708Y506974D01*
X341865Y504941D01*
X340309Y503385D01*
X338276Y502542D01*
X336074Y502542D01*
G37*
%LPD*%
%LPC*%
G36*
X389574Y484042D02*
X389574Y484042D01*
X387541Y484885D01*
X385985Y486441D01*
X385142Y488474D01*
X385142Y490676D01*
X385985Y492709D01*
X387541Y494265D01*
X389574Y495108D01*
X391776Y495108D01*
X393809Y494265D01*
X395365Y492709D01*
X396208Y490676D01*
X396208Y488474D01*
X395365Y486441D01*
X393809Y484885D01*
X391776Y484042D01*
X389574Y484042D01*
G37*
%LPD*%
%LPC*%
G36*
X528074Y290542D02*
X528074Y290542D01*
X526041Y291385D01*
X524485Y292941D01*
X523642Y294974D01*
X523642Y297176D01*
X524485Y299209D01*
X526041Y300765D01*
X528074Y301608D01*
X530276Y301608D01*
X532309Y300765D01*
X533865Y299209D01*
X534708Y297176D01*
X534708Y294974D01*
X533865Y292941D01*
X532309Y291385D01*
X530276Y290542D01*
X528074Y290542D01*
G37*
%LPD*%
%LPC*%
G36*
X361574Y478542D02*
X361574Y478542D01*
X359541Y479385D01*
X357985Y480941D01*
X357142Y482974D01*
X357142Y485176D01*
X357985Y487209D01*
X359541Y488765D01*
X361574Y489608D01*
X363776Y489608D01*
X365809Y488765D01*
X367365Y487209D01*
X368208Y485176D01*
X368208Y482974D01*
X367365Y480941D01*
X365809Y479385D01*
X363776Y478542D01*
X361574Y478542D01*
G37*
%LPD*%
%LPC*%
G36*
X292074Y213542D02*
X292074Y213542D01*
X290041Y214385D01*
X288485Y215941D01*
X287642Y217974D01*
X287642Y220176D01*
X288485Y222209D01*
X290041Y223765D01*
X292074Y224608D01*
X294276Y224608D01*
X296309Y223765D01*
X297865Y222209D01*
X298708Y220176D01*
X298708Y217974D01*
X297865Y215941D01*
X296309Y214385D01*
X294276Y213542D01*
X292074Y213542D01*
G37*
%LPD*%
%LPC*%
G36*
X478074Y213542D02*
X478074Y213542D01*
X476041Y214385D01*
X474485Y215941D01*
X473642Y217974D01*
X473642Y220176D01*
X474485Y222209D01*
X476041Y223765D01*
X478074Y224608D01*
X480276Y224608D01*
X482309Y223765D01*
X483865Y222209D01*
X484708Y220176D01*
X484708Y217974D01*
X483865Y215941D01*
X482309Y214385D01*
X480276Y213542D01*
X478074Y213542D01*
G37*
%LPD*%
%LPC*%
G36*
X252574Y196542D02*
X252574Y196542D01*
X250541Y197385D01*
X248985Y198941D01*
X248142Y200974D01*
X248142Y203176D01*
X248985Y205209D01*
X250541Y206765D01*
X252574Y207608D01*
X254776Y207608D01*
X256809Y206765D01*
X258365Y205209D01*
X259208Y203176D01*
X259208Y200974D01*
X258365Y198941D01*
X256809Y197385D01*
X254776Y196542D01*
X252574Y196542D01*
G37*
%LPD*%
%LPC*%
G36*
X131074Y194042D02*
X131074Y194042D01*
X129041Y194885D01*
X127485Y196441D01*
X126642Y198474D01*
X126642Y200676D01*
X127485Y202709D01*
X129041Y204265D01*
X131074Y205108D01*
X133276Y205108D01*
X135309Y204265D01*
X136865Y202709D01*
X137708Y200676D01*
X137708Y198474D01*
X136865Y196441D01*
X135309Y194885D01*
X133276Y194042D01*
X131074Y194042D01*
G37*
%LPD*%
%LPC*%
G36*
X206574Y193042D02*
X206574Y193042D01*
X204541Y193885D01*
X202985Y195441D01*
X202142Y197474D01*
X202142Y199676D01*
X202985Y201709D01*
X204541Y203265D01*
X206574Y204108D01*
X208776Y204108D01*
X210809Y203265D01*
X212365Y201709D01*
X213208Y199676D01*
X213208Y197474D01*
X212365Y195441D01*
X210809Y193885D01*
X208776Y193042D01*
X206574Y193042D01*
G37*
%LPD*%
%LPC*%
G36*
X294574Y188542D02*
X294574Y188542D01*
X292541Y189385D01*
X290985Y190941D01*
X290142Y192974D01*
X290142Y195176D01*
X290985Y197209D01*
X292541Y198765D01*
X294574Y199608D01*
X296776Y199608D01*
X298809Y198765D01*
X300365Y197209D01*
X301208Y195176D01*
X301208Y192974D01*
X300365Y190941D01*
X298809Y189385D01*
X296776Y188542D01*
X294574Y188542D01*
G37*
%LPD*%
%LPC*%
G36*
X153074Y187042D02*
X153074Y187042D01*
X151041Y187885D01*
X149485Y189441D01*
X148642Y191474D01*
X148642Y193676D01*
X149485Y195709D01*
X151041Y197265D01*
X153074Y198108D01*
X155276Y198108D01*
X157309Y197265D01*
X158865Y195709D01*
X159708Y193676D01*
X159708Y191474D01*
X158865Y189441D01*
X157309Y187885D01*
X155276Y187042D01*
X153074Y187042D01*
G37*
%LPD*%
%LPC*%
G36*
X220074Y184542D02*
X220074Y184542D01*
X218041Y185385D01*
X216485Y186941D01*
X215642Y188974D01*
X215642Y191176D01*
X216485Y193209D01*
X218041Y194765D01*
X220074Y195608D01*
X222276Y195608D01*
X224309Y194765D01*
X225865Y193209D01*
X226708Y191176D01*
X226708Y188974D01*
X225865Y186941D01*
X224309Y185385D01*
X222276Y184542D01*
X220074Y184542D01*
G37*
%LPD*%
%LPC*%
G36*
X193074Y184542D02*
X193074Y184542D01*
X191041Y185385D01*
X189485Y186941D01*
X188642Y188974D01*
X188642Y191176D01*
X189485Y193209D01*
X191041Y194765D01*
X193074Y195608D01*
X195276Y195608D01*
X197309Y194765D01*
X198865Y193209D01*
X199708Y191176D01*
X199708Y188974D01*
X198865Y186941D01*
X197309Y185385D01*
X195276Y184542D01*
X193074Y184542D01*
G37*
%LPD*%
%LPC*%
G36*
X531574Y176542D02*
X531574Y176542D01*
X529541Y177385D01*
X527985Y178941D01*
X527142Y180974D01*
X527142Y183176D01*
X527985Y185209D01*
X529541Y186765D01*
X531574Y187608D01*
X533776Y187608D01*
X535809Y186765D01*
X537365Y185209D01*
X538208Y183176D01*
X538208Y180974D01*
X537365Y178941D01*
X535809Y177385D01*
X533776Y176542D01*
X531574Y176542D01*
G37*
%LPD*%
%LPC*%
G36*
X134399Y174967D02*
X134399Y174967D01*
X132366Y175810D01*
X130810Y177366D01*
X129967Y179399D01*
X129967Y181601D01*
X130810Y183634D01*
X132366Y185190D01*
X134399Y186033D01*
X136601Y186033D01*
X138634Y185190D01*
X140190Y183634D01*
X141033Y181601D01*
X141033Y179399D01*
X140190Y177366D01*
X138634Y175810D01*
X136601Y174967D01*
X134399Y174967D01*
G37*
%LPD*%
%LPC*%
G36*
X228574Y171042D02*
X228574Y171042D01*
X226541Y171885D01*
X224985Y173441D01*
X224142Y175474D01*
X224142Y177676D01*
X224985Y179709D01*
X226541Y181265D01*
X228574Y182108D01*
X230776Y182108D01*
X232809Y181265D01*
X234365Y179709D01*
X235208Y177676D01*
X235208Y175474D01*
X234365Y173441D01*
X232809Y171885D01*
X230776Y171042D01*
X228574Y171042D01*
G37*
%LPD*%
%LPC*%
G36*
X206574Y171042D02*
X206574Y171042D01*
X204541Y171885D01*
X202985Y173441D01*
X202142Y175474D01*
X202142Y177676D01*
X202985Y179709D01*
X204541Y181265D01*
X206574Y182108D01*
X208776Y182108D01*
X210809Y181265D01*
X212365Y179709D01*
X213208Y177676D01*
X213208Y175474D01*
X212365Y173441D01*
X210809Y171885D01*
X208776Y171042D01*
X206574Y171042D01*
G37*
%LPD*%
%LPC*%
G36*
X185074Y171042D02*
X185074Y171042D01*
X183041Y171885D01*
X181485Y173441D01*
X180642Y175474D01*
X180642Y177676D01*
X181485Y179709D01*
X183041Y181265D01*
X185074Y182108D01*
X187276Y182108D01*
X189309Y181265D01*
X190865Y179709D01*
X191708Y177676D01*
X191708Y175474D01*
X190865Y173441D01*
X189309Y171885D01*
X187276Y171042D01*
X185074Y171042D01*
G37*
%LPD*%
%LPC*%
G36*
X369574Y168042D02*
X369574Y168042D01*
X367541Y168885D01*
X365985Y170441D01*
X365142Y172474D01*
X365142Y174676D01*
X365985Y176709D01*
X367541Y178265D01*
X369574Y179108D01*
X371776Y179108D01*
X373809Y178265D01*
X375365Y176709D01*
X376208Y174676D01*
X376208Y172474D01*
X375365Y170441D01*
X373809Y168885D01*
X371776Y168042D01*
X369574Y168042D01*
G37*
%LPD*%
%LPC*%
G36*
X262074Y164542D02*
X262074Y164542D01*
X260041Y165385D01*
X258485Y166941D01*
X257642Y168974D01*
X257642Y171176D01*
X258485Y173209D01*
X260041Y174765D01*
X262074Y175608D01*
X264276Y175608D01*
X266309Y174765D01*
X267865Y173209D01*
X268708Y171176D01*
X268708Y168974D01*
X267865Y166941D01*
X266309Y165385D01*
X264276Y164542D01*
X262074Y164542D01*
G37*
%LPD*%
%LPC*%
G36*
X336074Y476042D02*
X336074Y476042D01*
X334041Y476885D01*
X332485Y478441D01*
X331642Y480474D01*
X331642Y482676D01*
X332485Y484709D01*
X334041Y486265D01*
X336074Y487108D01*
X338276Y487108D01*
X340309Y486265D01*
X341865Y484709D01*
X342708Y482676D01*
X342708Y480474D01*
X341865Y478441D01*
X340309Y476885D01*
X338276Y476042D01*
X336074Y476042D01*
G37*
%LPD*%
%LPC*%
G36*
X220074Y157542D02*
X220074Y157542D01*
X218041Y158385D01*
X216485Y159941D01*
X215642Y161974D01*
X215642Y164176D01*
X216485Y166209D01*
X218041Y167765D01*
X220074Y168608D01*
X222276Y168608D01*
X224309Y167765D01*
X225865Y166209D01*
X226708Y164176D01*
X226708Y161974D01*
X225865Y159941D01*
X224309Y158385D01*
X222276Y157542D01*
X220074Y157542D01*
G37*
%LPD*%
%LPC*%
G36*
X193074Y157542D02*
X193074Y157542D01*
X191041Y158385D01*
X189485Y159941D01*
X188642Y161974D01*
X188642Y164176D01*
X189485Y166209D01*
X191041Y167765D01*
X193074Y168608D01*
X195276Y168608D01*
X197309Y167765D01*
X198865Y166209D01*
X199708Y164176D01*
X199708Y161974D01*
X198865Y159941D01*
X197309Y158385D01*
X195276Y157542D01*
X193074Y157542D01*
G37*
%LPD*%
%LPC*%
G36*
X193899Y456467D02*
X193899Y456467D01*
X191866Y457310D01*
X190310Y458866D01*
X189467Y460899D01*
X189467Y463101D01*
X190310Y465134D01*
X191866Y466690D01*
X193899Y467533D01*
X196101Y467533D01*
X198134Y466690D01*
X199690Y465134D01*
X200533Y463101D01*
X200533Y460899D01*
X199690Y458866D01*
X198134Y457310D01*
X196101Y456467D01*
X193899Y456467D01*
G37*
%LPD*%
%LPC*%
G36*
X206574Y149042D02*
X206574Y149042D01*
X204541Y149885D01*
X202985Y151441D01*
X202142Y153474D01*
X202142Y155676D01*
X202985Y157709D01*
X204541Y159265D01*
X206574Y160108D01*
X208776Y160108D01*
X210809Y159265D01*
X212365Y157709D01*
X213208Y155676D01*
X213208Y153474D01*
X212365Y151441D01*
X210809Y149885D01*
X208776Y149042D01*
X206574Y149042D01*
G37*
%LPD*%
%LPC*%
G36*
X419574Y147042D02*
X419574Y147042D01*
X417541Y147885D01*
X415985Y149441D01*
X415142Y151474D01*
X415142Y153676D01*
X415985Y155709D01*
X417541Y157265D01*
X419574Y158108D01*
X421776Y158108D01*
X423809Y157265D01*
X425365Y155709D01*
X426208Y153676D01*
X426208Y151474D01*
X425365Y149441D01*
X423809Y147885D01*
X421776Y147042D01*
X419574Y147042D01*
G37*
%LPD*%
%LPC*%
G36*
X24899Y146967D02*
X24899Y146967D01*
X22866Y147810D01*
X21310Y149366D01*
X20467Y151399D01*
X20467Y153601D01*
X21310Y155634D01*
X22866Y157190D01*
X24899Y158033D01*
X27101Y158033D01*
X29134Y157190D01*
X30690Y155634D01*
X31533Y153601D01*
X31533Y151399D01*
X30690Y149366D01*
X29134Y147810D01*
X27101Y146967D01*
X24899Y146967D01*
G37*
%LPD*%
%LPC*%
G36*
X158899Y145967D02*
X158899Y145967D01*
X156866Y146810D01*
X155310Y148366D01*
X154467Y150399D01*
X154467Y152601D01*
X155310Y154634D01*
X156866Y156190D01*
X158899Y157033D01*
X161101Y157033D01*
X163134Y156190D01*
X164690Y154634D01*
X165533Y152601D01*
X165533Y150399D01*
X164690Y148366D01*
X163134Y146810D01*
X161101Y145967D01*
X158899Y145967D01*
G37*
%LPD*%
%LPC*%
G36*
X296574Y455042D02*
X296574Y455042D01*
X294541Y455885D01*
X292985Y457441D01*
X292142Y459474D01*
X292142Y461676D01*
X292985Y463709D01*
X294541Y465265D01*
X296574Y466108D01*
X298776Y466108D01*
X300809Y465265D01*
X302365Y463709D01*
X303208Y461676D01*
X303208Y459474D01*
X302365Y457441D01*
X300809Y455885D01*
X298776Y455042D01*
X296574Y455042D01*
G37*
%LPD*%
%LPC*%
G36*
X386574Y136542D02*
X386574Y136542D01*
X384541Y137385D01*
X382985Y138941D01*
X382142Y140974D01*
X382142Y143176D01*
X382985Y145209D01*
X384541Y146765D01*
X386574Y147608D01*
X388776Y147608D01*
X390809Y146765D01*
X392365Y145209D01*
X393208Y143176D01*
X393208Y140974D01*
X392365Y138941D01*
X390809Y137385D01*
X388776Y136542D01*
X386574Y136542D01*
G37*
%LPD*%
%LPC*%
G36*
X215074Y441542D02*
X215074Y441542D01*
X213041Y442385D01*
X211485Y443941D01*
X210642Y445974D01*
X210642Y448176D01*
X211485Y450209D01*
X213041Y451765D01*
X215074Y452608D01*
X217276Y452608D01*
X219309Y451765D01*
X220865Y450209D01*
X221708Y448176D01*
X221708Y445974D01*
X220865Y443941D01*
X219309Y442385D01*
X217276Y441542D01*
X215074Y441542D01*
G37*
%LPD*%
%LPC*%
G36*
X190899Y438467D02*
X190899Y438467D01*
X188866Y439310D01*
X187310Y440866D01*
X186467Y442899D01*
X186467Y445101D01*
X187310Y447134D01*
X188866Y448690D01*
X190899Y449533D01*
X193101Y449533D01*
X195134Y448690D01*
X196690Y447134D01*
X197533Y445101D01*
X197533Y442899D01*
X196690Y440866D01*
X195134Y439310D01*
X193101Y438467D01*
X190899Y438467D01*
G37*
%LPD*%
%LPC*%
G36*
X528074Y132042D02*
X528074Y132042D01*
X526041Y132885D01*
X524485Y134441D01*
X523642Y136474D01*
X523642Y138676D01*
X524485Y140709D01*
X526041Y142265D01*
X528074Y143108D01*
X530276Y143108D01*
X532309Y142265D01*
X533865Y140709D01*
X534708Y138676D01*
X534708Y136474D01*
X533865Y134441D01*
X532309Y132885D01*
X530276Y132042D01*
X528074Y132042D01*
G37*
%LPD*%
%LPC*%
G36*
X77074Y128042D02*
X77074Y128042D01*
X75041Y128885D01*
X73485Y130441D01*
X72642Y132474D01*
X72642Y134676D01*
X73485Y136709D01*
X75041Y138265D01*
X77074Y139108D01*
X79276Y139108D01*
X81309Y138265D01*
X82865Y136709D01*
X83708Y134676D01*
X83708Y132474D01*
X82865Y130441D01*
X81309Y128885D01*
X79276Y128042D01*
X77074Y128042D01*
G37*
%LPD*%
%LPC*%
G36*
X356074Y437542D02*
X356074Y437542D01*
X354041Y438385D01*
X352485Y439941D01*
X351642Y441974D01*
X351642Y444176D01*
X352485Y446209D01*
X354041Y447765D01*
X356074Y448608D01*
X358276Y448608D01*
X360309Y447765D01*
X361865Y446209D01*
X362708Y444176D01*
X362708Y441974D01*
X361865Y439941D01*
X360309Y438385D01*
X358276Y437542D01*
X356074Y437542D01*
G37*
%LPD*%
%LPC*%
G36*
X443399Y116967D02*
X443399Y116967D01*
X441366Y117810D01*
X439810Y119366D01*
X438967Y121399D01*
X438967Y123601D01*
X439810Y125634D01*
X441366Y127190D01*
X443399Y128033D01*
X445601Y128033D01*
X447634Y127190D01*
X449190Y125634D01*
X450033Y123601D01*
X450033Y121399D01*
X449190Y119366D01*
X447634Y117810D01*
X445601Y116967D01*
X443399Y116967D01*
G37*
%LPD*%
%LPC*%
G36*
X383899Y113967D02*
X383899Y113967D01*
X381866Y114810D01*
X380310Y116366D01*
X379467Y118399D01*
X379467Y120601D01*
X380310Y122634D01*
X381866Y124190D01*
X383899Y125033D01*
X386101Y125033D01*
X388134Y124190D01*
X389690Y122634D01*
X390533Y120601D01*
X390533Y118399D01*
X389690Y116366D01*
X388134Y114810D01*
X386101Y113967D01*
X383899Y113967D01*
G37*
%LPD*%
%LPC*%
G36*
X294574Y113542D02*
X294574Y113542D01*
X292541Y114385D01*
X290985Y115941D01*
X290142Y117974D01*
X290142Y120176D01*
X290985Y122209D01*
X292541Y123765D01*
X294574Y124608D01*
X296776Y124608D01*
X298809Y123765D01*
X300365Y122209D01*
X301208Y120176D01*
X301208Y117974D01*
X300365Y115941D01*
X298809Y114385D01*
X296776Y113542D01*
X294574Y113542D01*
G37*
%LPD*%
%LPC*%
G36*
X81899Y112967D02*
X81899Y112967D01*
X79866Y113810D01*
X78310Y115366D01*
X77467Y117399D01*
X77467Y119601D01*
X78310Y121634D01*
X79866Y123190D01*
X81899Y124033D01*
X84101Y124033D01*
X86134Y123190D01*
X87690Y121634D01*
X88533Y119601D01*
X88533Y117399D01*
X87690Y115366D01*
X86134Y113810D01*
X84101Y112967D01*
X81899Y112967D01*
G37*
%LPD*%
%LPC*%
G36*
X305074Y434042D02*
X305074Y434042D01*
X303041Y434885D01*
X301485Y436441D01*
X300642Y438474D01*
X300642Y440676D01*
X301485Y442709D01*
X303041Y444265D01*
X305074Y445108D01*
X307276Y445108D01*
X309309Y444265D01*
X310865Y442709D01*
X311708Y440676D01*
X311708Y438474D01*
X310865Y436441D01*
X309309Y434885D01*
X307276Y434042D01*
X305074Y434042D01*
G37*
%LPD*%
%LPC*%
G36*
X121074Y90042D02*
X121074Y90042D01*
X119041Y90885D01*
X117485Y92441D01*
X116642Y94474D01*
X116642Y96676D01*
X117485Y98709D01*
X119041Y100265D01*
X121074Y101108D01*
X123276Y101108D01*
X125309Y100265D01*
X126865Y98709D01*
X127708Y96676D01*
X127708Y94474D01*
X126865Y92441D01*
X125309Y90885D01*
X123276Y90042D01*
X121074Y90042D01*
G37*
%LPD*%
%LPC*%
G36*
X567574Y87042D02*
X567574Y87042D01*
X565541Y87885D01*
X563985Y89441D01*
X563142Y91474D01*
X563142Y93676D01*
X563985Y95709D01*
X565541Y97265D01*
X567574Y98108D01*
X569776Y98108D01*
X571809Y97265D01*
X573365Y95709D01*
X574208Y93676D01*
X574208Y91474D01*
X573365Y89441D01*
X571809Y87885D01*
X569776Y87042D01*
X567574Y87042D01*
G37*
%LPD*%
%LPC*%
G36*
X162399Y86467D02*
X162399Y86467D01*
X160366Y87310D01*
X158810Y88866D01*
X157967Y90899D01*
X157967Y93101D01*
X158810Y95134D01*
X160366Y96690D01*
X162399Y97533D01*
X164601Y97533D01*
X166634Y96690D01*
X168190Y95134D01*
X169033Y93101D01*
X169033Y90899D01*
X168190Y88866D01*
X166634Y87310D01*
X164601Y86467D01*
X162399Y86467D01*
G37*
%LPD*%
%LPC*%
G36*
X488574Y78542D02*
X488574Y78542D01*
X486541Y79385D01*
X484985Y80941D01*
X484142Y82974D01*
X484142Y85176D01*
X484985Y87209D01*
X486541Y88765D01*
X488574Y89608D01*
X490776Y89608D01*
X492809Y88765D01*
X494365Y87209D01*
X495208Y85176D01*
X495208Y82974D01*
X494365Y80941D01*
X492809Y79385D01*
X490776Y78542D01*
X488574Y78542D01*
G37*
%LPD*%
%LPC*%
G36*
X45074Y76042D02*
X45074Y76042D01*
X43041Y76885D01*
X41485Y78441D01*
X40642Y80474D01*
X40642Y82676D01*
X41485Y84709D01*
X43041Y86265D01*
X45074Y87108D01*
X47276Y87108D01*
X49309Y86265D01*
X50865Y84709D01*
X51708Y82676D01*
X51708Y80474D01*
X50865Y78441D01*
X49309Y76885D01*
X47276Y76042D01*
X45074Y76042D01*
G37*
%LPD*%
%LPC*%
G36*
X187574Y60542D02*
X187574Y60542D01*
X185541Y61385D01*
X183985Y62941D01*
X183142Y64974D01*
X183142Y67176D01*
X183985Y69209D01*
X185541Y70765D01*
X187574Y71608D01*
X189776Y71608D01*
X191809Y70765D01*
X193365Y69209D01*
X194208Y67176D01*
X194208Y64974D01*
X193365Y62941D01*
X191809Y61385D01*
X189776Y60542D01*
X187574Y60542D01*
G37*
%LPD*%
%LPC*%
G36*
X249074Y56542D02*
X249074Y56542D01*
X247041Y57385D01*
X245485Y58941D01*
X244642Y60974D01*
X244642Y63176D01*
X245485Y65209D01*
X247041Y66765D01*
X249074Y67608D01*
X251276Y67608D01*
X253309Y66765D01*
X254865Y65209D01*
X255708Y63176D01*
X255708Y60974D01*
X254865Y58941D01*
X253309Y57385D01*
X251276Y56542D01*
X249074Y56542D01*
G37*
%LPD*%
%LPC*%
G36*
X310074Y51542D02*
X310074Y51542D01*
X308041Y52385D01*
X306485Y53941D01*
X305642Y55974D01*
X305642Y58176D01*
X306485Y60209D01*
X308041Y61765D01*
X310074Y62608D01*
X312276Y62608D01*
X314309Y61765D01*
X315865Y60209D01*
X316708Y58176D01*
X316708Y55974D01*
X315865Y53941D01*
X314309Y52385D01*
X312276Y51542D01*
X310074Y51542D01*
G37*
%LPD*%
%LPC*%
G36*
X399074Y423542D02*
X399074Y423542D01*
X397041Y424385D01*
X395485Y425941D01*
X394642Y427974D01*
X394642Y430176D01*
X395485Y432209D01*
X397041Y433765D01*
X399074Y434608D01*
X401276Y434608D01*
X403309Y433765D01*
X404865Y432209D01*
X405708Y430176D01*
X405708Y427974D01*
X404865Y425941D01*
X403309Y424385D01*
X401276Y423542D01*
X399074Y423542D01*
G37*
%LPD*%
%LPC*%
G36*
X545074Y421542D02*
X545074Y421542D01*
X543041Y422385D01*
X541485Y423941D01*
X540642Y425974D01*
X540642Y428176D01*
X541485Y430209D01*
X543041Y431765D01*
X545074Y432608D01*
X547276Y432608D01*
X549309Y431765D01*
X550865Y430209D01*
X551708Y428176D01*
X551708Y425974D01*
X550865Y423941D01*
X549309Y422385D01*
X547276Y421542D01*
X545074Y421542D01*
G37*
%LPD*%
%LPC*%
G36*
X467074Y418042D02*
X467074Y418042D01*
X465041Y418885D01*
X463485Y420441D01*
X462642Y422474D01*
X462642Y424676D01*
X463485Y426709D01*
X465041Y428265D01*
X467074Y429108D01*
X469276Y429108D01*
X471309Y428265D01*
X472865Y426709D01*
X473708Y424676D01*
X473708Y422474D01*
X472865Y420441D01*
X471309Y418885D01*
X469276Y418042D01*
X467074Y418042D01*
G37*
%LPD*%
%LPC*%
G36*
X284074Y36542D02*
X284074Y36542D01*
X282041Y37385D01*
X280485Y38941D01*
X279642Y40974D01*
X279642Y43176D01*
X280485Y45209D01*
X282041Y46765D01*
X284074Y47608D01*
X286276Y47608D01*
X288309Y46765D01*
X289865Y45209D01*
X290708Y43176D01*
X290708Y40974D01*
X289865Y38941D01*
X288309Y37385D01*
X286276Y36542D01*
X284074Y36542D01*
G37*
%LPD*%
D10*
X254787Y523691D03*
X252247Y523691D03*
X263677Y553155D03*
X263677Y548075D03*
X193573Y548075D03*
X193573Y553155D03*
X205003Y523691D03*
X202463Y523691D03*
D11*
X194175Y190075D03*
X194175Y163075D03*
X207675Y176575D03*
X229675Y176575D03*
X17175Y494075D03*
X129675Y520075D03*
X339675Y258575D03*
X40675Y230575D03*
X40675Y220575D03*
X40675Y210575D03*
X40675Y200575D03*
X253675Y202075D03*
X207675Y154575D03*
X221175Y163075D03*
X186175Y176575D03*
X207675Y198575D03*
X479175Y219075D03*
X489675Y84075D03*
X532675Y182075D03*
X529175Y137575D03*
X311175Y57075D03*
X122175Y95575D03*
X523675Y268575D03*
X297675Y460575D03*
X208175Y538075D03*
X390925Y529175D03*
X328675Y412075D03*
X559175Y413575D03*
X546175Y427075D03*
X73675Y494075D03*
X531675Y509575D03*
X560675Y509075D03*
X357175Y443075D03*
X560675Y269075D03*
X249175Y317075D03*
X500675Y423075D03*
X500675Y431075D03*
X236675Y428075D03*
X78175Y133575D03*
X207675Y495575D03*
X16675Y467075D03*
X228675Y538575D03*
X248675Y399575D03*
X306175Y439575D03*
X221175Y190075D03*
X228175Y428075D03*
X228175Y436575D03*
X245175Y419575D03*
X236675Y419575D03*
X245175Y436575D03*
X236675Y436575D03*
X245175Y428075D03*
X228175Y419575D03*
X303175Y331075D03*
X303175Y323075D03*
X285675Y331075D03*
X285675Y323075D03*
X320675Y331075D03*
X320675Y323075D03*
X109175Y422575D03*
X109175Y431075D03*
X46175Y81575D03*
X337175Y508075D03*
X339544Y537286D03*
X461675Y551575D03*
X249175Y538075D03*
X295675Y119075D03*
X64675Y525575D03*
X521675Y551575D03*
X420675Y152575D03*
X501675Y551575D03*
X337175Y481575D03*
X481675Y551575D03*
X293175Y219075D03*
X270175Y304575D03*
X493175Y296075D03*
X119675Y146075D03*
X511175Y284075D03*
X524175Y384075D03*
X560175Y384075D03*
X390675Y489575D03*
X494175Y391575D03*
X383675Y414075D03*
X400175Y429075D03*
X73175Y467575D03*
X529175Y296075D03*
X568675Y92575D03*
X370675Y173575D03*
X232175Y317075D03*
X206000Y113500D03*
X181500Y46500D03*
X128500Y240500D03*
X295675Y194075D03*
X325675Y366075D03*
X253175Y487075D03*
X206175Y301575D03*
X221175Y301575D03*
X102175Y353075D03*
X110175Y353075D03*
X158675Y366075D03*
X157675Y354075D03*
X102175Y409575D03*
X112175Y409575D03*
X121675Y409575D03*
X131175Y409575D03*
X28175Y494575D03*
X39175Y494575D03*
X50175Y494575D03*
X61175Y494575D03*
X28175Y467075D03*
X39175Y467075D03*
X50175Y467075D03*
X61175Y467075D03*
X39175Y485075D03*
X50175Y485075D03*
X39175Y476075D03*
X50175Y476075D03*
X229648Y257233D03*
X229753Y248601D03*
X291675Y159075D03*
X445675Y423575D03*
X375000Y92500D03*
X444500Y122500D03*
X131175Y151075D03*
X231500Y228092D03*
X169175Y318575D03*
X32175Y354075D03*
X216500Y460500D03*
X266500Y269000D03*
D12*
X209000Y269000D01*
X169175Y308825D02*
X169175Y318575D01*
X169175Y308825D02*
X209000Y269000D01*
X169175Y318575D02*
X102766Y318575D01*
X88841Y332500D01*
X32175Y347325D02*
X32175Y354075D01*
X47000Y332500D02*
X88841Y332500D01*
X47000Y332500D02*
X32175Y347325D01*
D11*
X179675Y329075D03*
X43675Y354075D03*
X229075Y461075D03*
X249500Y280000D03*
D12*
X243000Y273500D01*
X210864Y273500D01*
X177500Y306864D01*
X177500Y326900D02*
X179675Y329075D01*
X177500Y326900D02*
X177500Y306864D01*
X179675Y329075D02*
X161166Y329075D01*
X156809Y324718D01*
X134000Y337000D02*
X53500Y337000D01*
X43675Y346825D01*
X43675Y354075D01*
X146282Y324718D02*
X156809Y324718D01*
X146282Y324718D02*
X134000Y337000D01*
D11*
X255675Y228575D03*
X335675Y234075D03*
X391867Y233675D03*
D13*
X336075Y233675D01*
X335675Y234075D01*
D11*
X385000Y97000D03*
X385000Y119500D03*
X15175Y281075D03*
X31175Y281075D03*
X59675Y164575D03*
X110675Y164075D03*
X478675Y423075D03*
X478675Y431075D03*
X399675Y316075D03*
X221675Y27575D03*
X194500Y115500D03*
X195500Y233000D03*
D13*
X198500Y233000D01*
D11*
X378500Y332000D03*
D14*
X381500Y332000D01*
D11*
X335000Y332000D03*
D14*
X335000Y335000D01*
D11*
X338500Y274000D03*
X296000Y232500D03*
X309000Y232500D03*
X322000Y232500D03*
X370500Y507500D03*
D13*
X374500Y507500D01*
D11*
X244000Y213500D03*
D13*
X244000Y216500D01*
D11*
X238500Y466000D03*
D13*
X238500Y464000D01*
D11*
X179500Y495500D03*
D13*
X179500Y496000D01*
X178000Y496000D01*
D11*
X295500Y71000D03*
D13*
X295500Y74000D01*
D11*
X275500Y250500D03*
X276500Y279500D03*
X388000Y224000D03*
X384000Y216500D03*
D15*
X144417Y32841D03*
X82840Y32736D03*
D11*
X263175Y170075D03*
X362675Y484075D03*
X387675Y142075D03*
X365175Y87575D03*
X457500Y130000D03*
X355000Y87500D03*
X26000Y152500D03*
X26000Y239000D03*
X163500Y92000D03*
X83000Y118500D03*
X223000Y507000D03*
D13*
X223793Y507793D01*
X239707Y507793D01*
X240500Y507000D01*
D11*
X240500Y507000D03*
D12*
X241429Y506071D01*
X241429Y497544D01*
X226885Y483000D01*
X189781Y483000D01*
X147000Y440219D01*
X147000Y344906D01*
X150906Y341000D01*
X161000Y341000D01*
D11*
X161000Y341000D03*
X233500Y500500D03*
D12*
X221000Y488000D01*
X187467Y488000D01*
X141500Y442033D01*
X141500Y340124D01*
X150124Y331500D01*
X154000Y331500D01*
D11*
X154000Y331500D03*
X74175Y250075D03*
X40675Y175575D03*
X129500Y276000D03*
X154500Y288000D03*
X135500Y180500D03*
X222500Y226000D03*
X511675Y423075D03*
X250175Y62075D03*
X236675Y121575D03*
X300175Y164075D03*
X271175Y150075D03*
X424175Y274575D03*
X72675Y260075D03*
X40675Y188075D03*
X124500Y284500D03*
X150500Y297500D03*
X261675Y149575D03*
X431675Y282075D03*
X278675Y156575D03*
X413175Y267075D03*
X468175Y423575D03*
X317175Y164075D03*
X215675Y116075D03*
X188675Y66075D03*
X490175Y423075D03*
X190675Y52575D03*
X308675Y159075D03*
X226175Y116075D03*
X221000Y402000D03*
X132175Y199575D03*
X185137Y314137D03*
X216175Y447075D03*
X154175Y192575D03*
X246175Y125075D03*
X285175Y42075D03*
X421175Y182575D03*
X553675Y239075D03*
X517175Y100575D03*
D16*
X519175Y100575D01*
D11*
X472000Y253000D03*
X194000Y415500D03*
X194000Y389000D03*
X226500Y390000D03*
X311000Y390000D03*
X36500Y390000D03*
X185500Y111500D03*
X176175Y123075D03*
X51675Y375075D03*
X185675Y121575D03*
X43675Y396575D03*
X486675Y316075D03*
X479501Y311827D03*
X552260Y320293D03*
X542760Y320293D03*
X552260Y311293D03*
X542760Y311293D03*
X494739Y324838D03*
X522675Y423075D03*
X243175Y141075D03*
X213000Y504000D03*
X244000Y483000D03*
X543631Y336075D03*
X253175Y138575D03*
X528675Y356075D03*
X261175Y133575D03*
X245675Y228575D03*
X409675Y360075D03*
X424675Y396575D03*
X174675Y132575D03*
X93675Y306075D03*
X170675Y141075D03*
X93675Y318075D03*
X160000Y151500D03*
X116500Y305500D03*
X73500Y369500D03*
X127000Y308500D03*
X192000Y444000D03*
X195000Y462000D03*
X107500Y395500D03*
X116000Y395500D03*
X124500Y395500D03*
X133000Y395500D03*
X66500Y393500D03*
X79500Y393500D03*
X67000Y415000D03*
X79000Y415000D03*
M02*
