G04 EAGLE Gerber RS-274X export*
G75*
%MOMM*%
%FSLAX34Y34*%
%LPD*%
%INMechanical*%
%IPPOS*%
%AMOC8*
5,1,8,0,0,1.08239X$1,22.5*%
G01*
%ADD10C,0.001000*%
%ADD11C,0.254000*%


D10*
X335069Y130D02*
X32669Y130D01*
X-20Y32819D02*
X-20Y531639D01*
X32669Y564328D02*
X335069Y564328D01*
X367758Y531639D02*
X367758Y32819D01*
X287374Y401572D02*
X287037Y401583D01*
X286702Y401619D01*
X286373Y401678D01*
X286049Y401759D01*
X285732Y401862D01*
X285422Y401986D01*
X285123Y402132D01*
X284833Y402297D01*
X284555Y402483D01*
X284290Y402688D01*
X284039Y402912D01*
X283803Y403154D01*
X283583Y403414D01*
X283380Y403691D01*
X283197Y403984D01*
X283033Y404294D01*
X282890Y404619D01*
X282745Y405033D01*
X282635Y405472D01*
X282568Y405913D01*
X282542Y406353D01*
X282557Y406790D01*
X282611Y407221D01*
X282703Y407643D01*
X282832Y408054D01*
X282997Y408452D01*
X283196Y408834D01*
X283430Y409197D01*
X283695Y409539D01*
X283992Y409858D01*
X284320Y410151D01*
X284676Y410415D01*
X285060Y410647D01*
X285471Y410847D01*
X286746Y411357D01*
X288641Y412226D01*
X290464Y413205D01*
X292210Y414290D01*
X293875Y415476D01*
X295457Y416758D01*
X296951Y418133D01*
X298354Y419595D01*
X299661Y421140D01*
X300870Y422763D01*
X301977Y424459D01*
X302977Y426224D01*
X303868Y428053D01*
X304646Y429942D01*
X305306Y431886D01*
X305846Y433880D01*
X306262Y435920D01*
X306491Y437485D01*
X306554Y438033D01*
X306608Y438581D01*
X306653Y439129D01*
X306688Y439678D01*
X306714Y440226D01*
X306730Y440775D01*
X306737Y441323D01*
X306735Y441872D01*
X306724Y442420D01*
X306703Y442968D01*
X306673Y443516D01*
X306634Y444063D01*
X306586Y444609D01*
X306529Y445155D01*
X306462Y445700D01*
X306387Y446245D01*
X306304Y446779D01*
X306255Y447235D01*
X306249Y447685D01*
X306285Y448128D01*
X306361Y448561D01*
X306475Y448982D01*
X306626Y449388D01*
X306812Y449778D01*
X307032Y450149D01*
X307283Y450499D01*
X307565Y450825D01*
X307876Y451126D01*
X308213Y451399D01*
X308576Y451642D01*
X308963Y451853D01*
X309372Y452029D01*
X309801Y452168D01*
X310249Y452268D01*
X310696Y452330D01*
X311139Y452348D01*
X311577Y452323D01*
X312007Y452258D01*
X312428Y452153D01*
X312837Y452011D01*
X313231Y451833D01*
X313607Y451621D01*
X313964Y451376D01*
X314299Y451100D01*
X314610Y450795D01*
X314893Y450463D01*
X315147Y450105D01*
X315368Y449722D01*
X315555Y449317D01*
X315706Y448891D01*
X315817Y448446D01*
X315919Y447824D01*
X316020Y447117D01*
X316110Y446410D01*
X316187Y445702D01*
X316253Y444993D01*
X316307Y444283D01*
X316349Y443573D01*
X316379Y442862D01*
X316397Y442151D01*
X316403Y441439D01*
X316397Y440728D01*
X316379Y440017D01*
X316349Y439306D01*
X316307Y438595D01*
X316252Y437885D01*
X316186Y437175D01*
X316107Y436466D01*
X315887Y434875D01*
X315383Y432220D01*
X314717Y429623D01*
X313894Y427089D01*
X312918Y424626D01*
X311795Y422237D01*
X310529Y419931D01*
X309125Y417712D01*
X307587Y415588D01*
X305920Y413563D01*
X304129Y411643D01*
X302219Y409836D01*
X300195Y408146D01*
X298060Y406580D01*
X295820Y405145D01*
X293480Y403845D01*
X291044Y402686D01*
X289064Y401879D01*
X288966Y401844D01*
X288867Y401810D01*
X288769Y401779D01*
X288670Y401750D01*
X288571Y401724D01*
X288471Y401699D01*
X288372Y401677D01*
X288273Y401657D01*
X288173Y401639D01*
X288073Y401623D01*
X287974Y401609D01*
X287874Y401598D01*
X287774Y401588D01*
X287674Y401581D01*
X287574Y401576D01*
X287474Y401573D01*
X287374Y401572D01*
X260995Y401567D02*
X260518Y401591D01*
X260038Y401665D01*
X259558Y401791D01*
X259320Y401873D01*
X259271Y401891D01*
X259070Y401968D01*
X258668Y402124D01*
X257871Y402448D01*
X256297Y403146D01*
X254752Y403908D01*
X253240Y404733D01*
X251761Y405621D01*
X250318Y406569D01*
X248911Y407579D01*
X248738Y407709D01*
X248652Y407775D01*
X248608Y407808D01*
X248458Y407923D01*
X247173Y408949D01*
X245936Y410019D01*
X244746Y411129D01*
X243605Y412280D01*
X242513Y413468D01*
X241471Y414694D01*
X240478Y415954D01*
X239537Y417247D01*
X238648Y418573D01*
X237810Y419929D01*
X237026Y421313D01*
X236295Y422724D01*
X235618Y424161D01*
X234996Y425622D01*
X234429Y427106D01*
X233919Y428610D01*
X233465Y430133D01*
X233068Y431675D01*
X232729Y433232D01*
X232449Y434804D01*
X232228Y436388D01*
X232067Y437984D01*
X231966Y439590D01*
X231927Y441204D01*
X231949Y442825D01*
X232033Y444451D01*
X232181Y446080D01*
X232392Y447711D01*
X232455Y448119D01*
X232471Y448221D01*
X232477Y448258D01*
X232479Y448266D01*
X232484Y448301D01*
X232510Y448439D01*
X232650Y448973D01*
X232848Y449476D01*
X233100Y449947D01*
X233400Y450383D01*
X233745Y450780D01*
X234129Y451138D01*
X234548Y451452D01*
X234998Y451722D01*
X235473Y451943D01*
X235969Y452114D01*
X236482Y452232D01*
X237006Y452295D01*
X237537Y452299D01*
X238073Y452242D01*
X238613Y452116D01*
X239125Y451933D01*
X239605Y451697D01*
X240052Y451413D01*
X240462Y451084D01*
X240832Y450715D01*
X241159Y450308D01*
X241441Y449870D01*
X241675Y449402D01*
X241857Y448909D01*
X241986Y448396D01*
X242057Y447866D01*
X242069Y447322D01*
X242019Y446770D01*
X242013Y446735D01*
X242010Y446718D01*
X242003Y446673D01*
X241954Y446359D01*
X241865Y445729D01*
X241724Y444471D01*
X241632Y443214D01*
X241588Y441961D01*
X241593Y440712D01*
X241644Y439469D01*
X241743Y438233D01*
X241888Y437005D01*
X242079Y435786D01*
X242316Y434578D01*
X242597Y433382D01*
X242923Y432198D01*
X243293Y431029D01*
X243707Y429875D01*
X244163Y428738D01*
X244662Y427618D01*
X245204Y426518D01*
X245786Y425438D01*
X246410Y424379D01*
X247074Y423343D01*
X247779Y422331D01*
X248523Y421344D01*
X249306Y420383D01*
X250128Y419450D01*
X250988Y418545D01*
X251885Y417671D01*
X252820Y416828D01*
X253791Y416017D01*
X254291Y415624D01*
X254417Y415527D01*
X254465Y415491D01*
X254481Y415478D01*
X254548Y415428D01*
X254816Y415227D01*
X255906Y414453D01*
X257022Y413726D01*
X258164Y413047D01*
X259331Y412416D01*
X260523Y411833D01*
X261737Y411299D01*
X262353Y411051D01*
X262663Y410932D01*
X262928Y410826D01*
X263420Y410578D01*
X263871Y410282D01*
X264281Y409942D01*
X264648Y409563D01*
X264968Y409148D01*
X265241Y408704D01*
X265464Y408233D01*
X265636Y407740D01*
X265754Y407231D01*
X265817Y406708D01*
X265822Y406178D01*
X265768Y405644D01*
X265652Y405110D01*
X265571Y404845D01*
X265483Y404608D01*
X265306Y404216D01*
X265099Y403847D01*
X264863Y403502D01*
X264601Y403182D01*
X264315Y402888D01*
X264007Y402621D01*
X263679Y402382D01*
X263333Y402171D01*
X262971Y401990D01*
X262595Y401840D01*
X262208Y401722D01*
X261811Y401636D01*
X261406Y401584D01*
X260995Y401567D01*
X250432Y465544D02*
X250190Y465550D01*
X249948Y465568D01*
X249708Y465599D01*
X249469Y465641D01*
X249232Y465696D01*
X248997Y465762D01*
X248766Y465840D01*
X248538Y465930D01*
X248314Y466032D01*
X248095Y466145D01*
X247881Y466271D01*
X247673Y466408D01*
X247471Y466556D01*
X247275Y466716D01*
X247087Y466888D01*
X246907Y467070D01*
X246734Y467265D01*
X246480Y467595D01*
X246237Y467977D01*
X246033Y468374D01*
X245869Y468784D01*
X245744Y469203D01*
X245658Y469628D01*
X245611Y470058D01*
X245603Y470489D01*
X245632Y470919D01*
X245700Y471344D01*
X245805Y471763D01*
X245948Y472172D01*
X246128Y472568D01*
X246344Y472949D01*
X246597Y473313D01*
X246887Y473655D01*
X247212Y473975D01*
X247674Y474356D01*
X248229Y474794D01*
X248792Y475223D01*
X249362Y475643D01*
X249939Y476053D01*
X250524Y476454D01*
X251116Y476844D01*
X251715Y477226D01*
X252321Y477597D01*
X252933Y477959D01*
X253552Y478310D01*
X254178Y478652D01*
X254811Y478984D01*
X255449Y479305D01*
X256094Y479617D01*
X256745Y479918D01*
X257403Y480209D01*
X258685Y480738D01*
X261233Y481648D01*
X263812Y482390D01*
X266416Y482963D01*
X269036Y483369D01*
X271665Y483610D01*
X274296Y483685D01*
X276921Y483597D01*
X279531Y483346D01*
X282121Y482934D01*
X284682Y482361D01*
X287206Y481629D01*
X289687Y480739D01*
X292116Y479691D01*
X294486Y478487D01*
X296790Y477128D01*
X299020Y475616D01*
X300973Y474110D01*
X301312Y473800D01*
X301615Y473465D01*
X301882Y473109D01*
X302111Y472734D01*
X302305Y472343D01*
X302461Y471938D01*
X302579Y471522D01*
X302660Y471099D01*
X302703Y470671D01*
X302709Y470240D01*
X302675Y469809D01*
X302603Y469381D01*
X302493Y468959D01*
X302343Y468546D01*
X302154Y468143D01*
X301925Y467755D01*
X301656Y467384D01*
X301351Y467036D01*
X301021Y466725D01*
X300668Y466450D01*
X300296Y466212D01*
X299907Y466011D01*
X299505Y465847D01*
X299091Y465720D01*
X298668Y465631D01*
X298240Y465580D01*
X297809Y465567D01*
X297378Y465592D01*
X296950Y465655D01*
X296527Y465758D01*
X296112Y465899D01*
X295708Y466079D01*
X295319Y466299D01*
X294945Y466558D01*
X293723Y467515D01*
X292017Y468711D01*
X290252Y469787D01*
X288434Y470744D01*
X286569Y471581D01*
X284662Y472297D01*
X282721Y472890D01*
X280749Y473361D01*
X278755Y473707D01*
X276742Y473929D01*
X274718Y474026D01*
X272688Y473996D01*
X270659Y473839D01*
X268635Y473553D01*
X266624Y473139D01*
X264630Y472594D01*
X262661Y471919D01*
X261351Y471391D01*
X260842Y471168D01*
X260338Y470937D01*
X259838Y470699D01*
X259344Y470452D01*
X258854Y470198D01*
X258369Y469936D01*
X257890Y469666D01*
X257416Y469389D01*
X256947Y469104D01*
X256483Y468812D01*
X256026Y468512D01*
X255574Y468205D01*
X255128Y467891D01*
X254687Y467569D01*
X254253Y467240D01*
X253825Y466904D01*
X253461Y466610D01*
X253303Y466488D01*
X253140Y466373D01*
X252975Y466265D01*
X252806Y466166D01*
X252634Y466073D01*
X252460Y465988D01*
X252283Y465911D01*
X252104Y465841D01*
X251923Y465779D01*
X251740Y465723D01*
X251556Y465676D01*
X251370Y465635D01*
X251184Y465603D01*
X250996Y465577D01*
X250808Y465559D01*
X250620Y465548D01*
X250432Y465544D01*
X33882Y543180D02*
X32624Y543118D01*
X31401Y542934D01*
X30219Y542635D01*
X29086Y542227D01*
X28006Y541716D01*
X26986Y541107D01*
X26031Y540408D01*
X25148Y539623D01*
X24343Y538759D01*
X23622Y537822D01*
X22990Y536817D01*
X22454Y535752D01*
X22019Y534631D01*
X21693Y533461D01*
X21480Y532248D01*
X21386Y530998D01*
X21418Y529733D01*
X21572Y528501D01*
X21842Y527308D01*
X22224Y526162D01*
X22710Y525068D01*
X23294Y524033D01*
X23972Y523061D01*
X24736Y522160D01*
X25580Y521335D01*
X26500Y520592D01*
X27488Y519937D01*
X28539Y519377D01*
X29646Y518916D01*
X30804Y518562D01*
X32007Y518320D01*
X33249Y518196D01*
X34516Y518196D01*
X35757Y518320D01*
X36960Y518562D01*
X38118Y518916D01*
X39226Y519377D01*
X40276Y519937D01*
X41265Y520592D01*
X42184Y521335D01*
X43029Y522160D01*
X43793Y523061D01*
X44470Y524033D01*
X45055Y525068D01*
X45541Y526162D01*
X45922Y527308D01*
X46193Y528501D01*
X46347Y529733D01*
X46378Y530998D01*
X46285Y532248D01*
X46072Y533461D01*
X45745Y534631D01*
X45311Y535752D01*
X44774Y536817D01*
X44143Y537822D01*
X43421Y538759D01*
X42616Y539623D01*
X41733Y540408D01*
X40779Y541107D01*
X39759Y541716D01*
X38679Y542227D01*
X37545Y542635D01*
X36364Y542934D01*
X35141Y543118D01*
X33882Y543180D01*
X334630Y543118D02*
X335888Y543180D01*
X334630Y543118D02*
X333407Y542934D01*
X332225Y542635D01*
X331092Y542227D01*
X330012Y541716D01*
X328992Y541107D01*
X328037Y540408D01*
X327154Y539623D01*
X326349Y538759D01*
X325628Y537822D01*
X324996Y536817D01*
X324460Y535752D01*
X324025Y534631D01*
X323699Y533461D01*
X323486Y532248D01*
X323392Y530998D01*
X323424Y529733D01*
X323578Y528501D01*
X323848Y527308D01*
X324230Y526162D01*
X324716Y525068D01*
X325300Y524033D01*
X325978Y523061D01*
X326742Y522160D01*
X327586Y521335D01*
X328506Y520592D01*
X329494Y519937D01*
X330545Y519377D01*
X331652Y518916D01*
X332810Y518562D01*
X334013Y518320D01*
X335255Y518196D01*
X336522Y518196D01*
X337763Y518320D01*
X338966Y518562D01*
X340124Y518916D01*
X341232Y519377D01*
X342282Y519937D01*
X343271Y520592D01*
X344190Y521335D01*
X345035Y522160D01*
X345799Y523061D01*
X346476Y524033D01*
X347061Y525068D01*
X347547Y526162D01*
X347928Y527308D01*
X348199Y528501D01*
X348353Y529733D01*
X348384Y530998D01*
X348291Y532248D01*
X348078Y533461D01*
X347751Y534631D01*
X347317Y535752D01*
X346780Y536817D01*
X346149Y537822D01*
X345427Y538759D01*
X344622Y539623D01*
X343739Y540408D01*
X342785Y541107D01*
X341765Y541716D01*
X340685Y542227D01*
X339551Y542635D01*
X338370Y542934D01*
X337147Y543118D01*
X335888Y543180D01*
X-9Y532480D02*
X-20Y531639D01*
X-9Y532480D02*
X23Y533315D01*
X76Y534145D01*
X150Y534969D01*
X244Y535788D01*
X358Y536600D01*
X493Y537406D01*
X647Y538206D01*
X821Y538998D01*
X1014Y539784D01*
X1226Y540562D01*
X1456Y541332D01*
X1705Y542095D01*
X1972Y542849D01*
X2257Y543595D01*
X2559Y544332D01*
X2879Y545060D01*
X3216Y545779D01*
X3570Y546488D01*
X3940Y547188D01*
X4327Y547877D01*
X4730Y548557D01*
X5148Y549225D01*
X5582Y549883D01*
X6032Y550530D01*
X6496Y551165D01*
X6975Y551789D01*
X7469Y552401D01*
X7976Y553001D01*
X8498Y553589D01*
X9033Y554164D01*
X9582Y554726D01*
X10144Y555275D01*
X10719Y555810D01*
X11307Y556332D01*
X11907Y556839D01*
X12519Y557333D01*
X13143Y557812D01*
X13778Y558276D01*
X14425Y558726D01*
X15083Y559160D01*
X15752Y559578D01*
X16431Y559981D01*
X17120Y560368D01*
X17820Y560738D01*
X18529Y561092D01*
X19248Y561429D01*
X19976Y561749D01*
X20713Y562051D01*
X21459Y562336D01*
X22213Y562603D01*
X22976Y562852D01*
X23746Y563083D01*
X24524Y563294D01*
X25310Y563487D01*
X26102Y563661D01*
X26902Y563815D01*
X27708Y563950D01*
X28520Y564064D01*
X29339Y564158D01*
X30163Y564232D01*
X30993Y564285D01*
X31828Y564317D01*
X32669Y564328D01*
X335069Y564328D02*
X335910Y564317D01*
X336745Y564285D01*
X337575Y564232D01*
X338399Y564158D01*
X339218Y564064D01*
X340030Y563950D01*
X340836Y563815D01*
X341636Y563661D01*
X342428Y563487D01*
X343214Y563294D01*
X343992Y563083D01*
X344762Y562852D01*
X345525Y562603D01*
X346279Y562336D01*
X347025Y562051D01*
X347762Y561749D01*
X348490Y561429D01*
X349209Y561092D01*
X349918Y560738D01*
X350618Y560368D01*
X351307Y559981D01*
X351987Y559578D01*
X352655Y559160D01*
X353313Y558726D01*
X353960Y558276D01*
X354595Y557812D01*
X355219Y557333D01*
X355831Y556839D01*
X356431Y556332D01*
X357019Y555810D01*
X357594Y555275D01*
X358156Y554726D01*
X358705Y554164D01*
X359240Y553589D01*
X359762Y553001D01*
X360269Y552401D01*
X360763Y551789D01*
X361242Y551165D01*
X361706Y550530D01*
X362156Y549883D01*
X362590Y549225D01*
X363008Y548557D01*
X363411Y547877D01*
X363798Y547188D01*
X364168Y546488D01*
X364522Y545779D01*
X364859Y545060D01*
X365179Y544332D01*
X365481Y543595D01*
X365766Y542849D01*
X366033Y542095D01*
X366282Y541332D01*
X366513Y540562D01*
X366724Y539784D01*
X366917Y538998D01*
X367091Y538206D01*
X367245Y537406D01*
X367380Y536600D01*
X367494Y535788D01*
X367588Y534969D01*
X367662Y534145D01*
X367715Y533315D01*
X367747Y532480D01*
X367758Y531639D01*
X335888Y44832D02*
X334630Y44770D01*
X333407Y44586D01*
X332225Y44287D01*
X331092Y43879D01*
X330012Y43368D01*
X328992Y42759D01*
X328037Y42060D01*
X327154Y41275D01*
X326349Y40411D01*
X325628Y39474D01*
X324996Y38469D01*
X324460Y37404D01*
X324025Y36283D01*
X323699Y35113D01*
X323486Y33900D01*
X323392Y32650D01*
X323424Y31385D01*
X323578Y30153D01*
X323848Y28960D01*
X324230Y27814D01*
X324716Y26720D01*
X325300Y25685D01*
X325978Y24713D01*
X326742Y23812D01*
X327586Y22987D01*
X328506Y22244D01*
X329494Y21589D01*
X330545Y21029D01*
X331652Y20568D01*
X332810Y20214D01*
X334013Y19972D01*
X335255Y19848D01*
X336522Y19848D01*
X337763Y19972D01*
X338966Y20214D01*
X340124Y20568D01*
X341232Y21029D01*
X342282Y21589D01*
X343271Y22244D01*
X344190Y22987D01*
X345035Y23812D01*
X345799Y24713D01*
X346476Y25685D01*
X347061Y26720D01*
X347547Y27814D01*
X347928Y28960D01*
X348199Y30153D01*
X348353Y31385D01*
X348384Y32650D01*
X348291Y33900D01*
X348078Y35113D01*
X347751Y36283D01*
X347317Y37404D01*
X346780Y38469D01*
X346149Y39474D01*
X345427Y40411D01*
X344622Y41275D01*
X343739Y42060D01*
X342785Y42759D01*
X341765Y43368D01*
X340685Y43879D01*
X339551Y44287D01*
X338370Y44586D01*
X337147Y44770D01*
X335888Y44832D01*
X367758Y32819D02*
X367747Y31978D01*
X367715Y31143D01*
X367662Y30313D01*
X367588Y29489D01*
X367494Y28670D01*
X367380Y27858D01*
X367245Y27052D01*
X367091Y26252D01*
X366917Y25460D01*
X366724Y24674D01*
X366513Y23896D01*
X366282Y23126D01*
X366033Y22363D01*
X365766Y21609D01*
X365481Y20863D01*
X365179Y20126D01*
X364859Y19398D01*
X364522Y18679D01*
X364168Y17970D01*
X363798Y17270D01*
X363411Y16581D01*
X363008Y15902D01*
X362590Y15233D01*
X362156Y14575D01*
X361706Y13928D01*
X361242Y13293D01*
X360763Y12669D01*
X360269Y12057D01*
X359762Y11457D01*
X359240Y10869D01*
X358705Y10294D01*
X358156Y9732D01*
X357594Y9183D01*
X357019Y8648D01*
X356431Y8126D01*
X355831Y7619D01*
X355219Y7125D01*
X354595Y6646D01*
X353960Y6182D01*
X353313Y5732D01*
X352655Y5298D01*
X351987Y4880D01*
X351307Y4477D01*
X350618Y4090D01*
X349918Y3720D01*
X349209Y3366D01*
X348490Y3029D01*
X347762Y2709D01*
X347025Y2407D01*
X346279Y2122D01*
X345525Y1855D01*
X344762Y1606D01*
X343992Y1376D01*
X343214Y1164D01*
X342428Y971D01*
X341636Y797D01*
X340836Y643D01*
X340030Y508D01*
X339218Y394D01*
X338399Y300D01*
X337575Y226D01*
X336745Y173D01*
X335910Y141D01*
X335069Y130D01*
X32669Y130D02*
X31828Y141D01*
X30993Y173D01*
X30163Y226D01*
X29339Y300D01*
X28520Y394D01*
X27708Y508D01*
X26902Y643D01*
X26102Y797D01*
X25310Y971D01*
X24524Y1164D01*
X23746Y1376D01*
X22976Y1606D01*
X22213Y1855D01*
X21459Y2122D01*
X20713Y2407D01*
X19976Y2709D01*
X19248Y3029D01*
X18529Y3366D01*
X17820Y3720D01*
X17120Y4090D01*
X16431Y4477D01*
X15752Y4880D01*
X15083Y5298D01*
X14425Y5732D01*
X13778Y6182D01*
X13143Y6646D01*
X12519Y7125D01*
X11907Y7619D01*
X11307Y8126D01*
X10719Y8648D01*
X10144Y9183D01*
X9582Y9732D01*
X9033Y10294D01*
X8498Y10869D01*
X7976Y11457D01*
X7469Y12057D01*
X6975Y12669D01*
X6496Y13293D01*
X6032Y13928D01*
X5582Y14575D01*
X5148Y15233D01*
X4730Y15902D01*
X4327Y16581D01*
X3940Y17270D01*
X3570Y17970D01*
X3216Y18679D01*
X2879Y19398D01*
X2559Y20126D01*
X2257Y20863D01*
X1972Y21609D01*
X1705Y22363D01*
X1456Y23126D01*
X1226Y23896D01*
X1014Y24674D01*
X821Y25460D01*
X647Y26252D01*
X493Y27052D01*
X358Y27858D01*
X244Y28670D01*
X150Y29489D01*
X76Y30313D01*
X23Y31143D01*
X-9Y31978D01*
X-20Y32819D01*
X57849Y313800D02*
X57851Y313940D01*
X57857Y314080D01*
X57866Y314220D01*
X57880Y314359D01*
X57897Y314498D01*
X57918Y314636D01*
X57943Y314774D01*
X57972Y314911D01*
X58004Y315047D01*
X58041Y315182D01*
X58081Y315316D01*
X58124Y315449D01*
X58172Y315581D01*
X58222Y315712D01*
X58277Y315841D01*
X58335Y315968D01*
X58396Y316094D01*
X58461Y316218D01*
X58530Y316340D01*
X58601Y316460D01*
X58676Y316578D01*
X58754Y316695D01*
X58836Y316809D01*
X58920Y316920D01*
X59008Y317029D01*
X59098Y317136D01*
X59192Y317241D01*
X59288Y317342D01*
X59387Y317441D01*
X59488Y317537D01*
X59593Y317631D01*
X59700Y317721D01*
X59809Y317809D01*
X59920Y317893D01*
X60034Y317975D01*
X60151Y318053D01*
X60269Y318128D01*
X60389Y318199D01*
X60511Y318268D01*
X60635Y318333D01*
X60761Y318394D01*
X60888Y318452D01*
X61017Y318507D01*
X61148Y318557D01*
X61280Y318605D01*
X61413Y318648D01*
X61547Y318688D01*
X61682Y318725D01*
X61818Y318757D01*
X61955Y318786D01*
X62093Y318811D01*
X62231Y318832D01*
X62370Y318849D01*
X62509Y318863D01*
X62649Y318872D01*
X62789Y318878D01*
X62929Y318880D01*
X57850Y313800D02*
X57850Y313518D01*
X57852Y313381D01*
X57858Y313244D01*
X57868Y313107D01*
X57881Y312971D01*
X57899Y312835D01*
X57920Y312700D01*
X57946Y312565D01*
X57975Y312431D01*
X58008Y312299D01*
X58044Y312167D01*
X58085Y312036D01*
X58129Y311906D01*
X58177Y311778D01*
X58228Y311651D01*
X58283Y311525D01*
X58342Y311401D01*
X58404Y311279D01*
X58470Y311159D01*
X58539Y311041D01*
X58612Y310925D01*
X58687Y310810D01*
X58766Y310698D01*
X58848Y310589D01*
X58933Y310481D01*
X59022Y310377D01*
X59113Y310274D01*
X59207Y310175D01*
X59304Y310078D01*
X59403Y309984D01*
X59506Y309893D01*
X59610Y309804D01*
X59718Y309719D01*
X59827Y309637D01*
X59939Y309558D01*
X60054Y309483D01*
X60170Y309410D01*
X60288Y309341D01*
X60408Y309275D01*
X60530Y309213D01*
X60654Y309154D01*
X60780Y309099D01*
X60907Y309048D01*
X61035Y309000D01*
X61165Y308956D01*
X61296Y308915D01*
X61428Y308879D01*
X61560Y308846D01*
X61694Y308817D01*
X61829Y308791D01*
X61964Y308770D01*
X62100Y308752D01*
X62236Y308739D01*
X62373Y308729D01*
X62510Y308723D01*
X62647Y308721D01*
X62647Y308720D02*
X132067Y308720D01*
X132067Y308721D02*
X132207Y308715D01*
X132347Y308713D01*
X132487Y308715D01*
X132627Y308721D01*
X132767Y308730D01*
X132907Y308744D01*
X133046Y308761D01*
X133184Y308782D01*
X133322Y308807D01*
X133460Y308836D01*
X133596Y308868D01*
X133731Y308904D01*
X133866Y308944D01*
X133999Y308988D01*
X134131Y309035D01*
X134261Y309086D01*
X134391Y309141D01*
X134518Y309199D01*
X134644Y309260D01*
X134768Y309325D01*
X134891Y309394D01*
X135011Y309465D01*
X135130Y309540D01*
X135246Y309619D01*
X135360Y309700D01*
X135472Y309784D01*
X135581Y309872D01*
X135688Y309963D01*
X135793Y310056D01*
X135895Y310152D01*
X135994Y310251D01*
X136090Y310353D01*
X136184Y310458D01*
X136275Y310565D01*
X136362Y310674D01*
X136447Y310786D01*
X136528Y310900D01*
X136607Y311016D01*
X136682Y311134D01*
X136754Y311255D01*
X136822Y311377D01*
X136887Y311501D01*
X136949Y311627D01*
X137007Y311755D01*
X137061Y311884D01*
X137112Y312014D01*
X137160Y312146D01*
X137203Y312280D01*
X137244Y312414D01*
X137280Y312549D01*
X137312Y312686D01*
X137341Y312823D01*
X137366Y312961D01*
X137388Y313099D01*
X137405Y313238D01*
X137418Y313378D01*
X137428Y313518D01*
X137434Y313658D01*
X137436Y313798D01*
X137434Y313938D01*
X137428Y314078D01*
X137419Y314218D01*
X137405Y314358D01*
X137388Y314497D01*
X137367Y314635D01*
X137342Y314773D01*
X137313Y314911D01*
X137281Y315047D01*
X137245Y315182D01*
X137205Y315317D01*
X137161Y315450D01*
X137114Y315582D01*
X137063Y315712D01*
X137008Y315842D01*
X136950Y315969D01*
X136889Y316095D01*
X136824Y316219D01*
X136755Y316342D01*
X136684Y316462D01*
X136609Y316581D01*
X136530Y316697D01*
X136449Y316811D01*
X136365Y316923D01*
X136277Y317032D01*
X136186Y317139D01*
X136093Y317244D01*
X135997Y317346D01*
X135898Y317445D01*
X135796Y317541D01*
X135691Y317635D01*
X135584Y317726D01*
X135475Y317813D01*
X135363Y317898D01*
X135249Y317979D01*
X135133Y318058D01*
X135015Y318133D01*
X134894Y318204D01*
X134772Y318273D01*
X134648Y318338D01*
X134522Y318400D01*
X134394Y318458D01*
X134265Y318512D01*
X134135Y318563D01*
X134003Y318611D01*
X133869Y318654D01*
X133735Y318695D01*
X133600Y318731D01*
X133463Y318763D01*
X133326Y318792D01*
X133188Y318817D01*
X133050Y318839D01*
X132911Y318856D01*
X132771Y318869D01*
X132631Y318879D01*
X62929Y318879D01*
X62647Y237326D02*
X62507Y237324D01*
X62367Y237318D01*
X62227Y237309D01*
X62088Y237295D01*
X61949Y237278D01*
X61811Y237257D01*
X61673Y237232D01*
X61536Y237203D01*
X61400Y237171D01*
X61265Y237134D01*
X61131Y237094D01*
X60998Y237051D01*
X60866Y237003D01*
X60735Y236953D01*
X60606Y236898D01*
X60479Y236840D01*
X60353Y236779D01*
X60229Y236714D01*
X60107Y236645D01*
X59987Y236574D01*
X59869Y236499D01*
X59752Y236421D01*
X59638Y236339D01*
X59527Y236255D01*
X59418Y236167D01*
X59311Y236077D01*
X59206Y235983D01*
X59105Y235887D01*
X59006Y235788D01*
X58910Y235687D01*
X58816Y235582D01*
X58726Y235475D01*
X58638Y235366D01*
X58554Y235255D01*
X58472Y235141D01*
X58394Y235024D01*
X58319Y234906D01*
X58248Y234786D01*
X58179Y234664D01*
X58114Y234540D01*
X58053Y234414D01*
X57995Y234287D01*
X57940Y234158D01*
X57890Y234027D01*
X57842Y233895D01*
X57799Y233762D01*
X57759Y233628D01*
X57722Y233493D01*
X57690Y233357D01*
X57661Y233220D01*
X57636Y233082D01*
X57615Y232944D01*
X57598Y232805D01*
X57584Y232666D01*
X57575Y232526D01*
X57569Y232386D01*
X57567Y232246D01*
X57568Y232246D02*
X57568Y231963D01*
X57570Y231826D01*
X57576Y231689D01*
X57586Y231552D01*
X57599Y231416D01*
X57617Y231280D01*
X57638Y231145D01*
X57664Y231010D01*
X57693Y230876D01*
X57726Y230744D01*
X57762Y230612D01*
X57803Y230481D01*
X57847Y230351D01*
X57895Y230223D01*
X57946Y230096D01*
X58001Y229970D01*
X58060Y229846D01*
X58122Y229724D01*
X58188Y229604D01*
X58257Y229486D01*
X58330Y229370D01*
X58405Y229255D01*
X58484Y229143D01*
X58566Y229034D01*
X58651Y228926D01*
X58740Y228822D01*
X58831Y228719D01*
X58925Y228620D01*
X59022Y228523D01*
X59121Y228429D01*
X59224Y228338D01*
X59328Y228249D01*
X59436Y228164D01*
X59545Y228082D01*
X59657Y228003D01*
X59772Y227928D01*
X59888Y227855D01*
X60006Y227786D01*
X60126Y227720D01*
X60248Y227658D01*
X60372Y227599D01*
X60498Y227544D01*
X60625Y227493D01*
X60753Y227445D01*
X60883Y227401D01*
X61014Y227360D01*
X61146Y227324D01*
X61278Y227291D01*
X61412Y227262D01*
X61547Y227236D01*
X61682Y227215D01*
X61818Y227197D01*
X61954Y227184D01*
X62091Y227174D01*
X62228Y227168D01*
X62365Y227166D01*
X131785Y227166D01*
X131785Y227167D02*
X131925Y227161D01*
X132065Y227159D01*
X132205Y227161D01*
X132345Y227167D01*
X132485Y227176D01*
X132625Y227190D01*
X132764Y227207D01*
X132902Y227228D01*
X133040Y227253D01*
X133178Y227282D01*
X133314Y227314D01*
X133449Y227350D01*
X133584Y227390D01*
X133717Y227434D01*
X133849Y227481D01*
X133979Y227532D01*
X134109Y227587D01*
X134236Y227645D01*
X134362Y227706D01*
X134486Y227771D01*
X134609Y227840D01*
X134729Y227911D01*
X134848Y227986D01*
X134964Y228065D01*
X135078Y228146D01*
X135190Y228230D01*
X135299Y228318D01*
X135406Y228409D01*
X135511Y228502D01*
X135613Y228598D01*
X135712Y228697D01*
X135808Y228799D01*
X135902Y228904D01*
X135993Y229011D01*
X136080Y229120D01*
X136165Y229232D01*
X136246Y229346D01*
X136325Y229462D01*
X136400Y229580D01*
X136472Y229701D01*
X136540Y229823D01*
X136605Y229947D01*
X136667Y230073D01*
X136725Y230201D01*
X136779Y230330D01*
X136830Y230460D01*
X136878Y230592D01*
X136921Y230726D01*
X136962Y230860D01*
X136998Y230995D01*
X137030Y231132D01*
X137059Y231269D01*
X137084Y231407D01*
X137106Y231545D01*
X137123Y231684D01*
X137136Y231824D01*
X137146Y231964D01*
X137152Y232104D01*
X137154Y232244D01*
X137152Y232384D01*
X137146Y232524D01*
X137137Y232664D01*
X137123Y232804D01*
X137106Y232943D01*
X137085Y233081D01*
X137060Y233219D01*
X137031Y233357D01*
X136999Y233493D01*
X136963Y233628D01*
X136923Y233763D01*
X136879Y233896D01*
X136832Y234028D01*
X136781Y234158D01*
X136726Y234288D01*
X136668Y234415D01*
X136607Y234541D01*
X136542Y234665D01*
X136473Y234788D01*
X136402Y234908D01*
X136327Y235027D01*
X136248Y235143D01*
X136167Y235257D01*
X136083Y235369D01*
X135995Y235478D01*
X135904Y235585D01*
X135811Y235690D01*
X135715Y235792D01*
X135616Y235891D01*
X135514Y235987D01*
X135409Y236081D01*
X135302Y236172D01*
X135193Y236259D01*
X135081Y236344D01*
X134967Y236425D01*
X134851Y236504D01*
X134733Y236579D01*
X134612Y236650D01*
X134490Y236719D01*
X134366Y236784D01*
X134240Y236846D01*
X134112Y236904D01*
X133983Y236958D01*
X133853Y237009D01*
X133721Y237057D01*
X133587Y237100D01*
X133453Y237141D01*
X133318Y237177D01*
X133181Y237209D01*
X133044Y237238D01*
X132906Y237263D01*
X132768Y237285D01*
X132629Y237302D01*
X132489Y237315D01*
X132349Y237325D01*
X62647Y237325D01*
D11*
X-20Y32819D02*
X-9Y31978D01*
X23Y31143D01*
X76Y30313D01*
X150Y29489D01*
X244Y28670D01*
X358Y27858D01*
X493Y27052D01*
X647Y26252D01*
X821Y25460D01*
X1014Y24674D01*
X1226Y23896D01*
X1456Y23126D01*
X1705Y22363D01*
X1972Y21609D01*
X2257Y20863D01*
X2559Y20126D01*
X2879Y19398D01*
X3216Y18679D01*
X3570Y17970D01*
X3940Y17270D01*
X4327Y16581D01*
X4730Y15902D01*
X5148Y15233D01*
X5582Y14575D01*
X6032Y13928D01*
X6496Y13293D01*
X6975Y12669D01*
X7469Y12057D01*
X7976Y11457D01*
X8498Y10869D01*
X9033Y10294D01*
X9582Y9732D01*
X10144Y9183D01*
X10719Y8648D01*
X11307Y8126D01*
X11907Y7619D01*
X12519Y7125D01*
X13143Y6646D01*
X13778Y6182D01*
X14425Y5732D01*
X15083Y5298D01*
X15752Y4880D01*
X16431Y4477D01*
X17120Y4090D01*
X17820Y3720D01*
X18529Y3366D01*
X19248Y3029D01*
X19976Y2709D01*
X20713Y2407D01*
X21459Y2122D01*
X22213Y1855D01*
X22976Y1606D01*
X23746Y1376D01*
X24524Y1164D01*
X25310Y971D01*
X26102Y797D01*
X26902Y643D01*
X27708Y508D01*
X28520Y394D01*
X29339Y300D01*
X30163Y226D01*
X30993Y173D01*
X31828Y141D01*
X32669Y130D01*
X335069Y130D01*
X335910Y141D01*
X336745Y173D01*
X337575Y226D01*
X338399Y300D01*
X339218Y394D01*
X340030Y508D01*
X340836Y643D01*
X341636Y797D01*
X342428Y971D01*
X343214Y1164D01*
X343992Y1376D01*
X344762Y1606D01*
X345525Y1855D01*
X346279Y2122D01*
X347025Y2407D01*
X347762Y2709D01*
X348490Y3029D01*
X349209Y3366D01*
X349918Y3720D01*
X350618Y4090D01*
X351307Y4477D01*
X351987Y4880D01*
X352655Y5298D01*
X353313Y5732D01*
X353960Y6182D01*
X354595Y6646D01*
X355219Y7125D01*
X355831Y7619D01*
X356431Y8126D01*
X357019Y8648D01*
X357594Y9183D01*
X358156Y9732D01*
X358705Y10294D01*
X359240Y10869D01*
X359762Y11457D01*
X360269Y12057D01*
X360763Y12669D01*
X361242Y13293D01*
X361706Y13928D01*
X362156Y14575D01*
X362590Y15233D01*
X363008Y15902D01*
X363411Y16581D01*
X363798Y17270D01*
X364168Y17970D01*
X364522Y18679D01*
X364859Y19398D01*
X365179Y20126D01*
X365481Y20863D01*
X365766Y21609D01*
X366033Y22363D01*
X366282Y23126D01*
X366513Y23896D01*
X366724Y24674D01*
X366917Y25460D01*
X367091Y26252D01*
X367245Y27052D01*
X367380Y27858D01*
X367494Y28670D01*
X367588Y29489D01*
X367662Y30313D01*
X367715Y31143D01*
X367747Y31978D01*
X367758Y32819D01*
X367758Y531639D01*
X367747Y532480D01*
X367715Y533315D01*
X367662Y534145D01*
X367588Y534969D01*
X367494Y535788D01*
X367380Y536600D01*
X367245Y537406D01*
X367091Y538206D01*
X366917Y538998D01*
X366724Y539784D01*
X366513Y540562D01*
X366282Y541332D01*
X366033Y542095D01*
X365766Y542849D01*
X365481Y543595D01*
X365179Y544332D01*
X364859Y545060D01*
X364522Y545779D01*
X364168Y546488D01*
X363798Y547188D01*
X363411Y547877D01*
X363008Y548557D01*
X362590Y549225D01*
X362156Y549883D01*
X361706Y550530D01*
X361242Y551165D01*
X360763Y551789D01*
X360269Y552401D01*
X359762Y553001D01*
X359240Y553589D01*
X358705Y554164D01*
X358156Y554726D01*
X357594Y555275D01*
X357019Y555810D01*
X356431Y556332D01*
X355831Y556839D01*
X355219Y557333D01*
X354595Y557812D01*
X353960Y558276D01*
X353313Y558726D01*
X352655Y559160D01*
X351987Y559578D01*
X351307Y559981D01*
X350618Y560368D01*
X349918Y560738D01*
X349209Y561092D01*
X348490Y561429D01*
X347762Y561749D01*
X347025Y562051D01*
X346279Y562336D01*
X345525Y562603D01*
X344762Y562852D01*
X343992Y563083D01*
X343214Y563294D01*
X342428Y563487D01*
X341636Y563661D01*
X340836Y563815D01*
X340030Y563950D01*
X339218Y564064D01*
X338399Y564158D01*
X337575Y564232D01*
X336745Y564285D01*
X335910Y564317D01*
X335069Y564328D01*
X32669Y564328D01*
X31828Y564317D01*
X30993Y564285D01*
X30163Y564232D01*
X29339Y564158D01*
X28520Y564064D01*
X27708Y563950D01*
X26902Y563815D01*
X26102Y563661D01*
X25310Y563487D01*
X24524Y563294D01*
X23746Y563083D01*
X22976Y562852D01*
X22213Y562603D01*
X21459Y562336D01*
X20713Y562051D01*
X19976Y561749D01*
X19248Y561429D01*
X18529Y561092D01*
X17820Y560738D01*
X17120Y560368D01*
X16431Y559981D01*
X15752Y559578D01*
X15083Y559160D01*
X14425Y558726D01*
X13778Y558276D01*
X13143Y557812D01*
X12519Y557333D01*
X11907Y556839D01*
X11307Y556332D01*
X10719Y555810D01*
X10144Y555275D01*
X9582Y554726D01*
X9033Y554164D01*
X8498Y553589D01*
X7976Y553001D01*
X7469Y552401D01*
X6975Y551789D01*
X6496Y551165D01*
X6032Y550530D01*
X5582Y549883D01*
X5148Y549225D01*
X4730Y548557D01*
X4327Y547877D01*
X3940Y547188D01*
X3570Y546488D01*
X3216Y545779D01*
X2879Y545060D01*
X2559Y544332D01*
X2257Y543595D01*
X1972Y542849D01*
X1705Y542095D01*
X1456Y541332D01*
X1226Y540562D01*
X1014Y539784D01*
X821Y538998D01*
X647Y538206D01*
X493Y537406D01*
X358Y536600D01*
X244Y535788D01*
X150Y534969D01*
X76Y534145D01*
X23Y533315D01*
X-9Y532480D01*
X-20Y531639D01*
X-20Y32819D01*
X282542Y406353D02*
X282568Y405913D01*
X282635Y405472D01*
X282745Y405033D01*
X282890Y404619D01*
X283033Y404294D01*
X283197Y403984D01*
X283380Y403691D01*
X283583Y403414D01*
X283803Y403154D01*
X284039Y402912D01*
X284290Y402688D01*
X284555Y402483D01*
X284833Y402297D01*
X285123Y402132D01*
X285422Y401986D01*
X285732Y401862D01*
X286049Y401759D01*
X286373Y401678D01*
X286702Y401619D01*
X287037Y401583D01*
X287374Y401572D01*
X287474Y401573D01*
X287574Y401576D01*
X287674Y401581D01*
X287774Y401588D01*
X287874Y401598D01*
X287974Y401609D01*
X288073Y401623D01*
X288173Y401639D01*
X288273Y401657D01*
X288372Y401677D01*
X288471Y401699D01*
X288571Y401724D01*
X288670Y401750D01*
X288769Y401779D01*
X288867Y401810D01*
X288966Y401844D01*
X289064Y401879D01*
X291044Y402686D01*
X293480Y403845D01*
X295820Y405145D01*
X298060Y406580D01*
X300195Y408146D01*
X302219Y409836D01*
X304129Y411643D01*
X305920Y413563D01*
X307587Y415588D01*
X309125Y417712D01*
X310529Y419931D01*
X311795Y422237D01*
X312918Y424626D01*
X313894Y427089D01*
X314717Y429623D01*
X315383Y432220D01*
X315887Y434875D01*
X316107Y436466D01*
X316186Y437175D01*
X316252Y437885D01*
X316307Y438595D01*
X316349Y439306D01*
X316379Y440017D01*
X316397Y440728D01*
X316403Y441439D01*
X316397Y442151D01*
X316379Y442862D01*
X316349Y443573D01*
X316307Y444283D01*
X316253Y444993D01*
X316187Y445702D01*
X316110Y446410D01*
X316020Y447117D01*
X315919Y447824D01*
X315817Y448446D01*
X315706Y448891D01*
X315555Y449317D01*
X315368Y449722D01*
X315147Y450105D01*
X314893Y450463D01*
X314610Y450795D01*
X314299Y451100D01*
X313964Y451376D01*
X313607Y451621D01*
X313231Y451833D01*
X312837Y452011D01*
X312428Y452153D01*
X312007Y452258D01*
X311577Y452323D01*
X311139Y452348D01*
X310696Y452330D01*
X310249Y452268D01*
X309801Y452168D01*
X309372Y452029D01*
X308963Y451853D01*
X308576Y451642D01*
X308213Y451399D01*
X307876Y451126D01*
X307565Y450825D01*
X307283Y450499D01*
X307032Y450149D01*
X306812Y449778D01*
X306626Y449388D01*
X306475Y448982D01*
X306361Y448561D01*
X306285Y448128D01*
X306249Y447685D01*
X306255Y447235D01*
X306304Y446779D01*
X306387Y446245D01*
X306462Y445700D01*
X306529Y445155D01*
X306586Y444609D01*
X306634Y444063D01*
X306673Y443516D01*
X306703Y442968D01*
X306724Y442420D01*
X306735Y441872D01*
X306737Y441323D01*
X306730Y440775D01*
X306714Y440226D01*
X306688Y439678D01*
X306653Y439129D01*
X306608Y438581D01*
X306554Y438033D01*
X306491Y437485D01*
X306262Y435920D01*
X305846Y433880D01*
X305306Y431886D01*
X304646Y429942D01*
X303868Y428053D01*
X302977Y426224D01*
X301977Y424459D01*
X300870Y422763D01*
X299661Y421140D01*
X298354Y419595D01*
X296951Y418133D01*
X295457Y416758D01*
X293875Y415476D01*
X292210Y414290D01*
X290464Y413205D01*
X288641Y412226D01*
X286746Y411357D01*
X285471Y410847D01*
X285060Y410647D01*
X284676Y410415D01*
X284320Y410151D01*
X283992Y409858D01*
X283695Y409539D01*
X283430Y409197D01*
X283196Y408834D01*
X282997Y408452D01*
X282832Y408054D01*
X282703Y407643D01*
X282611Y407221D01*
X282557Y406790D01*
X282542Y406353D01*
X21386Y530998D02*
X21418Y529733D01*
X21572Y528501D01*
X21842Y527308D01*
X22224Y526162D01*
X22710Y525068D01*
X23294Y524033D01*
X23972Y523061D01*
X24736Y522160D01*
X25580Y521335D01*
X26500Y520592D01*
X27488Y519937D01*
X28539Y519377D01*
X29646Y518916D01*
X30804Y518562D01*
X32007Y518320D01*
X33249Y518196D01*
X34516Y518196D01*
X35757Y518320D01*
X36960Y518562D01*
X38118Y518916D01*
X39226Y519377D01*
X40276Y519937D01*
X41265Y520592D01*
X42184Y521335D01*
X43029Y522160D01*
X43793Y523061D01*
X44470Y524033D01*
X45055Y525068D01*
X45541Y526162D01*
X45922Y527308D01*
X46193Y528501D01*
X46347Y529733D01*
X46378Y530998D01*
X46285Y532248D01*
X46072Y533461D01*
X45745Y534631D01*
X45311Y535752D01*
X44774Y536817D01*
X44143Y537822D01*
X43421Y538759D01*
X42616Y539623D01*
X41733Y540408D01*
X40779Y541107D01*
X39759Y541716D01*
X38679Y542227D01*
X37545Y542635D01*
X36364Y542934D01*
X35141Y543118D01*
X33882Y543180D01*
X32624Y543118D01*
X31401Y542934D01*
X30219Y542635D01*
X29086Y542227D01*
X28006Y541716D01*
X26986Y541107D01*
X26031Y540408D01*
X25148Y539623D01*
X24343Y538759D01*
X23622Y537822D01*
X22990Y536817D01*
X22454Y535752D01*
X22019Y534631D01*
X21693Y533461D01*
X21480Y532248D01*
X21386Y530998D01*
X245603Y470489D02*
X245611Y470058D01*
X245658Y469628D01*
X245744Y469203D01*
X245869Y468784D01*
X246033Y468374D01*
X246237Y467977D01*
X246480Y467595D01*
X246734Y467265D01*
X246907Y467070D01*
X247087Y466888D01*
X247275Y466716D01*
X247471Y466556D01*
X247673Y466408D01*
X247881Y466271D01*
X248095Y466145D01*
X248314Y466032D01*
X248538Y465930D01*
X248766Y465840D01*
X248997Y465762D01*
X249232Y465696D01*
X249469Y465641D01*
X249708Y465599D01*
X249948Y465568D01*
X250190Y465550D01*
X250432Y465544D01*
X250620Y465548D01*
X250808Y465559D01*
X250996Y465577D01*
X251184Y465603D01*
X251370Y465635D01*
X251556Y465676D01*
X251740Y465723D01*
X251923Y465779D01*
X252104Y465841D01*
X252283Y465911D01*
X252460Y465988D01*
X252634Y466073D01*
X252806Y466166D01*
X252975Y466265D01*
X253140Y466373D01*
X253303Y466488D01*
X253461Y466610D01*
X253825Y466904D01*
X254253Y467240D01*
X254687Y467569D01*
X255128Y467891D01*
X255574Y468205D01*
X256026Y468512D01*
X256483Y468812D01*
X256947Y469104D01*
X257416Y469389D01*
X257890Y469666D01*
X258369Y469936D01*
X258854Y470198D01*
X259344Y470452D01*
X259838Y470699D01*
X260338Y470937D01*
X260842Y471168D01*
X261351Y471391D01*
X262661Y471919D01*
X264630Y472594D01*
X266624Y473139D01*
X268635Y473553D01*
X270659Y473839D01*
X272688Y473996D01*
X274718Y474026D01*
X276742Y473929D01*
X278755Y473707D01*
X280749Y473361D01*
X282721Y472890D01*
X284662Y472297D01*
X286569Y471581D01*
X288434Y470744D01*
X290252Y469787D01*
X292017Y468711D01*
X293723Y467515D01*
X294945Y466558D01*
X295319Y466299D01*
X295708Y466079D01*
X296112Y465899D01*
X296527Y465758D01*
X296950Y465655D01*
X297378Y465592D01*
X297809Y465567D01*
X298240Y465580D01*
X298668Y465631D01*
X299091Y465720D01*
X299505Y465847D01*
X299907Y466011D01*
X300296Y466212D01*
X300668Y466450D01*
X301021Y466725D01*
X301351Y467036D01*
X301656Y467384D01*
X301925Y467755D01*
X302154Y468143D01*
X302343Y468546D01*
X302493Y468959D01*
X302603Y469381D01*
X302675Y469809D01*
X302709Y470240D01*
X302703Y470671D01*
X302660Y471099D01*
X302579Y471522D01*
X302461Y471938D01*
X302305Y472343D01*
X302111Y472734D01*
X301882Y473109D01*
X301615Y473465D01*
X301312Y473800D01*
X300973Y474110D01*
X299020Y475616D01*
X296790Y477128D01*
X294486Y478487D01*
X292116Y479691D01*
X289687Y480739D01*
X287206Y481629D01*
X284682Y482361D01*
X282121Y482934D01*
X279531Y483346D01*
X276921Y483597D01*
X274296Y483685D01*
X271665Y483610D01*
X269036Y483369D01*
X266416Y482963D01*
X263812Y482390D01*
X261233Y481648D01*
X258685Y480738D01*
X257403Y480209D01*
X256745Y479918D01*
X256094Y479617D01*
X255449Y479305D01*
X254811Y478984D01*
X254178Y478652D01*
X253552Y478310D01*
X252933Y477959D01*
X252321Y477597D01*
X251715Y477226D01*
X251116Y476844D01*
X250524Y476454D01*
X249939Y476053D01*
X249362Y475643D01*
X248792Y475223D01*
X248229Y474794D01*
X247674Y474356D01*
X247212Y473975D01*
X246887Y473655D01*
X246597Y473313D01*
X246344Y472949D01*
X246128Y472568D01*
X245948Y472172D01*
X245805Y471763D01*
X245700Y471344D01*
X245632Y470919D01*
X245603Y470489D01*
X231927Y441204D02*
X231966Y439590D01*
X232067Y437984D01*
X232228Y436388D01*
X232449Y434804D01*
X232729Y433232D01*
X233068Y431675D01*
X233465Y430133D01*
X233919Y428610D01*
X234429Y427106D01*
X234996Y425622D01*
X235618Y424161D01*
X236295Y422724D01*
X237026Y421313D01*
X237810Y419929D01*
X238648Y418573D01*
X239537Y417247D01*
X240478Y415954D01*
X241471Y414694D01*
X242513Y413468D01*
X243605Y412280D01*
X244746Y411129D01*
X245936Y410019D01*
X247173Y408949D01*
X248458Y407923D01*
X248608Y407808D01*
X248652Y407775D01*
X248738Y407709D01*
X248911Y407579D01*
X250318Y406569D01*
X251761Y405621D01*
X253240Y404733D01*
X254752Y403908D01*
X256297Y403146D01*
X257871Y402448D01*
X258668Y402124D01*
X259070Y401968D01*
X259271Y401891D01*
X259320Y401873D01*
X259558Y401791D01*
X260038Y401665D01*
X260518Y401591D01*
X260995Y401567D01*
X261406Y401584D01*
X261811Y401636D01*
X262208Y401722D01*
X262595Y401840D01*
X262971Y401990D01*
X263333Y402171D01*
X263679Y402382D01*
X264007Y402621D01*
X264315Y402888D01*
X264601Y403182D01*
X264863Y403502D01*
X265099Y403847D01*
X265306Y404216D01*
X265483Y404608D01*
X265571Y404845D01*
X265652Y405110D01*
X265768Y405644D01*
X265822Y406178D01*
X265817Y406708D01*
X265754Y407231D01*
X265636Y407740D01*
X265464Y408233D01*
X265241Y408704D01*
X264968Y409148D01*
X264648Y409563D01*
X264281Y409942D01*
X263871Y410282D01*
X263420Y410578D01*
X262928Y410826D01*
X262663Y410932D01*
X262353Y411051D01*
X261737Y411299D01*
X260523Y411833D01*
X259331Y412416D01*
X258164Y413047D01*
X257022Y413726D01*
X255906Y414453D01*
X254816Y415227D01*
X254548Y415428D01*
X254481Y415478D01*
X254465Y415491D01*
X254417Y415527D01*
X254291Y415624D01*
X253791Y416017D01*
X252820Y416828D01*
X251885Y417671D01*
X250988Y418545D01*
X250128Y419450D01*
X249306Y420383D01*
X248523Y421344D01*
X247779Y422331D01*
X247074Y423343D01*
X246410Y424379D01*
X245786Y425438D01*
X245204Y426518D01*
X244662Y427618D01*
X244163Y428738D01*
X243707Y429875D01*
X243293Y431029D01*
X242923Y432198D01*
X242597Y433382D01*
X242316Y434578D01*
X242079Y435786D01*
X241888Y437005D01*
X241743Y438233D01*
X241644Y439469D01*
X241593Y440712D01*
X241588Y441961D01*
X241632Y443214D01*
X241724Y444471D01*
X241865Y445729D01*
X241954Y446359D01*
X242003Y446673D01*
X242010Y446718D01*
X242013Y446735D01*
X242019Y446770D01*
X242069Y447322D01*
X242057Y447866D01*
X241986Y448396D01*
X241857Y448909D01*
X241675Y449402D01*
X241441Y449870D01*
X241159Y450308D01*
X240832Y450715D01*
X240462Y451084D01*
X240052Y451413D01*
X239605Y451697D01*
X239125Y451933D01*
X238613Y452116D01*
X238073Y452242D01*
X237537Y452299D01*
X237006Y452295D01*
X236482Y452232D01*
X235969Y452114D01*
X235473Y451943D01*
X234998Y451722D01*
X234548Y451452D01*
X234129Y451138D01*
X233745Y450780D01*
X233400Y450383D01*
X233100Y449947D01*
X232848Y449476D01*
X232650Y448973D01*
X232510Y448439D01*
X232484Y448301D01*
X232479Y448266D01*
X232477Y448258D01*
X232471Y448221D01*
X232455Y448119D01*
X232392Y447711D01*
X232181Y446080D01*
X232033Y444451D01*
X231949Y442825D01*
X231927Y441204D01*
X323392Y530998D02*
X323424Y529733D01*
X323578Y528501D01*
X323848Y527308D01*
X324230Y526162D01*
X324716Y525068D01*
X325300Y524033D01*
X325978Y523061D01*
X326742Y522160D01*
X327586Y521335D01*
X328506Y520592D01*
X329494Y519937D01*
X330545Y519377D01*
X331652Y518916D01*
X332810Y518562D01*
X334013Y518320D01*
X335255Y518196D01*
X336522Y518196D01*
X337763Y518320D01*
X338966Y518562D01*
X340124Y518916D01*
X341232Y519377D01*
X342282Y519937D01*
X343271Y520592D01*
X344190Y521335D01*
X345035Y522160D01*
X345799Y523061D01*
X346476Y524033D01*
X347061Y525068D01*
X347547Y526162D01*
X347928Y527308D01*
X348199Y528501D01*
X348353Y529733D01*
X348384Y530998D01*
X348291Y532248D01*
X348078Y533461D01*
X347751Y534631D01*
X347317Y535752D01*
X346780Y536817D01*
X346149Y537822D01*
X345427Y538759D01*
X344622Y539623D01*
X343739Y540408D01*
X342785Y541107D01*
X341765Y541716D01*
X340685Y542227D01*
X339551Y542635D01*
X338370Y542934D01*
X337147Y543118D01*
X335888Y543180D01*
X334630Y543118D01*
X333407Y542934D01*
X332225Y542635D01*
X331092Y542227D01*
X330012Y541716D01*
X328992Y541107D01*
X328037Y540408D01*
X327154Y539623D01*
X326349Y538759D01*
X325628Y537822D01*
X324996Y536817D01*
X324460Y535752D01*
X324025Y534631D01*
X323699Y533461D01*
X323486Y532248D01*
X323392Y530998D01*
X323392Y32650D02*
X323424Y31385D01*
X323578Y30153D01*
X323848Y28960D01*
X324230Y27814D01*
X324716Y26720D01*
X325300Y25685D01*
X325978Y24713D01*
X326742Y23812D01*
X327586Y22987D01*
X328506Y22244D01*
X329494Y21589D01*
X330545Y21029D01*
X331652Y20568D01*
X332810Y20214D01*
X334013Y19972D01*
X335255Y19848D01*
X336522Y19848D01*
X337763Y19972D01*
X338966Y20214D01*
X340124Y20568D01*
X341232Y21029D01*
X342282Y21589D01*
X343271Y22244D01*
X344190Y22987D01*
X345035Y23812D01*
X345799Y24713D01*
X346476Y25685D01*
X347061Y26720D01*
X347547Y27814D01*
X347928Y28960D01*
X348199Y30153D01*
X348353Y31385D01*
X348384Y32650D01*
X348291Y33900D01*
X348078Y35113D01*
X347751Y36283D01*
X347317Y37404D01*
X346780Y38469D01*
X346149Y39474D01*
X345427Y40411D01*
X344622Y41275D01*
X343739Y42060D01*
X342785Y42759D01*
X341765Y43368D01*
X340685Y43879D01*
X339551Y44287D01*
X338370Y44586D01*
X337147Y44770D01*
X335888Y44832D01*
X334630Y44770D01*
X333407Y44586D01*
X332225Y44287D01*
X331092Y43879D01*
X330012Y43368D01*
X328992Y42759D01*
X328037Y42060D01*
X327154Y41275D01*
X326349Y40411D01*
X325628Y39474D01*
X324996Y38469D01*
X324460Y37404D01*
X324025Y36283D01*
X323699Y35113D01*
X323486Y33900D01*
X323392Y32650D01*
X57568Y231963D02*
X57586Y231545D01*
X57640Y231130D01*
X57731Y230722D01*
X57857Y230323D01*
X58017Y229936D01*
X58210Y229565D01*
X58435Y229212D01*
X58690Y228880D01*
X58973Y228571D01*
X59281Y228289D01*
X59613Y228034D01*
X59966Y227809D01*
X60337Y227616D01*
X60724Y227456D01*
X61123Y227330D01*
X61532Y227239D01*
X61947Y227184D01*
X62365Y227166D01*
X131785Y227166D01*
X132228Y227161D01*
X132671Y227194D01*
X133109Y227266D01*
X133539Y227376D01*
X133958Y227523D01*
X134362Y227706D01*
X134749Y227923D01*
X135116Y228173D01*
X135459Y228454D01*
X135777Y228764D01*
X136066Y229101D01*
X136325Y229462D01*
X136551Y229843D01*
X136743Y230243D01*
X136900Y230658D01*
X137020Y231086D01*
X137102Y231522D01*
X137146Y231964D01*
X137152Y232407D01*
X137118Y232850D01*
X137046Y233288D01*
X136936Y233718D01*
X136790Y234137D01*
X136607Y234541D01*
X136390Y234928D01*
X136139Y235295D01*
X135858Y235638D01*
X135548Y235955D01*
X135211Y236245D01*
X134851Y236504D01*
X134469Y236730D01*
X134069Y236922D01*
X133654Y237079D01*
X133227Y237199D01*
X132791Y237281D01*
X132349Y237325D01*
X62647Y237325D01*
X62204Y237306D01*
X61765Y237248D01*
X61332Y237152D01*
X60910Y237019D01*
X60500Y236849D01*
X60107Y236645D01*
X59734Y236407D01*
X59382Y236137D01*
X59055Y235837D01*
X58756Y235511D01*
X58486Y235159D01*
X58248Y234785D01*
X58044Y234392D01*
X57874Y233983D01*
X57741Y233560D01*
X57645Y233128D01*
X57587Y232688D01*
X57568Y232246D01*
X57568Y231963D01*
X57850Y313518D02*
X57868Y313099D01*
X57923Y312685D01*
X58013Y312276D01*
X58139Y311877D01*
X58299Y311490D01*
X58493Y311119D01*
X58717Y310766D01*
X58972Y310434D01*
X59255Y310125D01*
X59563Y309843D01*
X59895Y309588D01*
X60248Y309363D01*
X60620Y309170D01*
X61006Y309010D01*
X61405Y308884D01*
X61814Y308793D01*
X62229Y308739D01*
X62647Y308720D01*
X132067Y308720D01*
X132511Y308715D01*
X132953Y308748D01*
X133391Y308820D01*
X133821Y308930D01*
X134240Y309077D01*
X134644Y309260D01*
X135031Y309477D01*
X135398Y309727D01*
X135741Y310008D01*
X136059Y310319D01*
X136348Y310655D01*
X136607Y311016D01*
X136833Y311397D01*
X137026Y311797D01*
X137182Y312213D01*
X137302Y312640D01*
X137385Y313076D01*
X137428Y313518D01*
X137434Y313961D01*
X137400Y314404D01*
X137328Y314842D01*
X137219Y315272D01*
X137072Y315691D01*
X136889Y316095D01*
X136672Y316482D01*
X136422Y316849D01*
X136140Y317192D01*
X135830Y317509D01*
X135494Y317799D01*
X135133Y318058D01*
X134751Y318284D01*
X134351Y318476D01*
X133936Y318633D01*
X133509Y318753D01*
X133073Y318835D01*
X132631Y318879D01*
X62929Y318879D01*
X62487Y318860D01*
X62047Y318802D01*
X61615Y318706D01*
X61192Y318573D01*
X60783Y318403D01*
X60390Y318199D01*
X60016Y317961D01*
X59664Y317691D01*
X59338Y317391D01*
X59038Y317065D01*
X58768Y316713D01*
X58530Y316339D01*
X58326Y315946D01*
X58156Y315537D01*
X58023Y315114D01*
X57927Y314682D01*
X57869Y314242D01*
X57850Y313800D01*
X57850Y313518D01*
M02*
