M48
;GenerationSoftware,Autodesk,EAGLE,9.6.2*%
;CreationDate,2023-11-09T16:24:33Z*%
FMAT,2
ICI,OFF
METRIC,TZ,000.000
T2C0.300
T1C1.000
%
G90
M71
T1
X9799Y44154
T2
X26385Y7647
X9710Y27345
X27610Y25566
X8600Y24600
X11700Y28000
X34815Y21160
X22547Y26556
X23896Y28851
X19100Y47800
X21573Y32439
X20046Y31022
X34815Y23700
X32339Y19951
X17900Y47800
X19300Y34300
X18934Y32034
X22576Y19133
X27429Y45490
X14477Y26103
X19612Y24861
X19986Y38415
X24088Y37685
X10879Y24591
X25426Y44361
X24687Y27562
X26978Y24926
X26075Y14165
X34815Y16080
X26754Y14825
X34815Y18620
X28727Y7309
X11700Y28900
X10000Y29900
X24494Y21165
X25426Y20092
X22604Y13235
M30